G04 #@! TF.GenerationSoftware,KiCad,Pcbnew,(5.1.10)-1*
G04 #@! TF.CreationDate,2021-11-19T20:39:20+03:00*
G04 #@! TF.ProjectId,hdmi_to_mipi-dsi_converter,68646d69-5f74-46f5-9f6d-6970692d6473,rev?*
G04 #@! TF.SameCoordinates,Original*
G04 #@! TF.FileFunction,Legend,Top*
G04 #@! TF.FilePolarity,Positive*
%FSLAX46Y46*%
G04 Gerber Fmt 4.6, Leading zero omitted, Abs format (unit mm)*
G04 Created by KiCad (PCBNEW (5.1.10)-1) date 2021-11-19 20:39:20*
%MOMM*%
%LPD*%
G01*
G04 APERTURE LIST*
%ADD10C,0.120000*%
%ADD11C,0.150000*%
%ADD12C,0.200000*%
%ADD13C,0.125000*%
%ADD14C,0.100000*%
%ADD15C,0.152400*%
%ADD16C,0.127000*%
%ADD17C,0.137500*%
G04 APERTURE END LIST*
D10*
X115350000Y-54075000D02*
X116250000Y-54075000D01*
X115750000Y-54050000D02*
X115325000Y-53400000D01*
X116250000Y-53400000D02*
X115750000Y-54050000D01*
X115325000Y-53400000D02*
X116250000Y-53400000D01*
X115750000Y-52800000D02*
X115775000Y-54475000D01*
D11*
X128158571Y-70321904D02*
X127587142Y-70321904D01*
X127872857Y-70321904D02*
X127872857Y-69521904D01*
X127777619Y-69636190D01*
X127682380Y-69712380D01*
X127587142Y-69750476D01*
X128491904Y-69788571D02*
X128730000Y-70321904D01*
X128968095Y-69788571D01*
X129491904Y-69864761D02*
X129396666Y-69826666D01*
X129349047Y-69788571D01*
X129301428Y-69712380D01*
X129301428Y-69674285D01*
X129349047Y-69598095D01*
X129396666Y-69560000D01*
X129491904Y-69521904D01*
X129682380Y-69521904D01*
X129777619Y-69560000D01*
X129825238Y-69598095D01*
X129872857Y-69674285D01*
X129872857Y-69712380D01*
X129825238Y-69788571D01*
X129777619Y-69826666D01*
X129682380Y-69864761D01*
X129491904Y-69864761D01*
X129396666Y-69902857D01*
X129349047Y-69940952D01*
X129301428Y-70017142D01*
X129301428Y-70169523D01*
X129349047Y-70245714D01*
X129396666Y-70283809D01*
X129491904Y-70321904D01*
X129682380Y-70321904D01*
X129777619Y-70283809D01*
X129825238Y-70245714D01*
X129872857Y-70169523D01*
X129872857Y-70017142D01*
X129825238Y-69940952D01*
X129777619Y-69902857D01*
X129682380Y-69864761D01*
X130808571Y-79611904D02*
X130237142Y-79611904D01*
X130522857Y-79611904D02*
X130522857Y-78811904D01*
X130427619Y-78926190D01*
X130332380Y-79002380D01*
X130237142Y-79040476D01*
X131141904Y-79078571D02*
X131380000Y-79611904D01*
X131618095Y-79078571D01*
X132522857Y-79611904D02*
X131951428Y-79611904D01*
X132237142Y-79611904D02*
X132237142Y-78811904D01*
X132141904Y-78926190D01*
X132046666Y-79002380D01*
X131951428Y-79040476D01*
X146408571Y-88521904D02*
X145837142Y-88521904D01*
X146122857Y-88521904D02*
X146122857Y-87721904D01*
X146027619Y-87836190D01*
X145932380Y-87912380D01*
X145837142Y-87950476D01*
X146741904Y-87988571D02*
X146980000Y-88521904D01*
X147218095Y-87988571D01*
X147551428Y-87798095D02*
X147599047Y-87760000D01*
X147694285Y-87721904D01*
X147932380Y-87721904D01*
X148027619Y-87760000D01*
X148075238Y-87798095D01*
X148122857Y-87874285D01*
X148122857Y-87950476D01*
X148075238Y-88064761D01*
X147503809Y-88521904D01*
X148122857Y-88521904D01*
X120038095Y-80850000D02*
X119942857Y-80811904D01*
X119800000Y-80811904D01*
X119657142Y-80850000D01*
X119561904Y-80926190D01*
X119514285Y-81002380D01*
X119466666Y-81154761D01*
X119466666Y-81269047D01*
X119514285Y-81421428D01*
X119561904Y-81497619D01*
X119657142Y-81573809D01*
X119800000Y-81611904D01*
X119895238Y-81611904D01*
X120038095Y-81573809D01*
X120085714Y-81535714D01*
X120085714Y-81269047D01*
X119895238Y-81269047D01*
X120514285Y-81611904D02*
X120514285Y-80811904D01*
X121085714Y-81611904D01*
X121085714Y-80811904D01*
X121561904Y-81611904D02*
X121561904Y-80811904D01*
X121800000Y-80811904D01*
X121942857Y-80850000D01*
X122038095Y-80926190D01*
X122085714Y-81002380D01*
X122133333Y-81154761D01*
X122133333Y-81269047D01*
X122085714Y-81421428D01*
X122038095Y-81497619D01*
X121942857Y-81573809D01*
X121800000Y-81611904D01*
X121561904Y-81611904D01*
X135638095Y-50975000D02*
X135542857Y-50936904D01*
X135400000Y-50936904D01*
X135257142Y-50975000D01*
X135161904Y-51051190D01*
X135114285Y-51127380D01*
X135066666Y-51279761D01*
X135066666Y-51394047D01*
X135114285Y-51546428D01*
X135161904Y-51622619D01*
X135257142Y-51698809D01*
X135400000Y-51736904D01*
X135495238Y-51736904D01*
X135638095Y-51698809D01*
X135685714Y-51660714D01*
X135685714Y-51394047D01*
X135495238Y-51394047D01*
X136114285Y-51736904D02*
X136114285Y-50936904D01*
X136685714Y-51736904D01*
X136685714Y-50936904D01*
X137161904Y-51736904D02*
X137161904Y-50936904D01*
X137400000Y-50936904D01*
X137542857Y-50975000D01*
X137638095Y-51051190D01*
X137685714Y-51127380D01*
X137733333Y-51279761D01*
X137733333Y-51394047D01*
X137685714Y-51546428D01*
X137638095Y-51622619D01*
X137542857Y-51698809D01*
X137400000Y-51736904D01*
X137161904Y-51736904D01*
D12*
X158173607Y-94600000D02*
G75*
G03*
X158173607Y-94600000I-223607J0D01*
G01*
D10*
X158750000Y-102500000D02*
X158750000Y-102000000D01*
X159250000Y-102500000D02*
X159250000Y-102000000D01*
X160000000Y-102250000D02*
X158000000Y-102250000D01*
X158750000Y-102250000D02*
X159250000Y-102500000D01*
X159250000Y-102000000D02*
X158750000Y-102250000D01*
X121200000Y-67250000D02*
X120950000Y-66750000D01*
X120700000Y-67250000D02*
X121200000Y-67250000D01*
X120950000Y-66750000D02*
X120700000Y-67250000D01*
X120700000Y-66750000D02*
X121200000Y-66750000D01*
X120950000Y-68000000D02*
X120950000Y-66000000D01*
X180750000Y-90000000D02*
X180750000Y-90750000D01*
X176500000Y-90000000D02*
X180750000Y-90000000D01*
X176500000Y-90250000D02*
X176500000Y-90000000D01*
X176500000Y-90750000D02*
X176500000Y-90250000D01*
D13*
X177342857Y-91003571D02*
X177485714Y-91039285D01*
X177723809Y-91039285D01*
X177819047Y-91003571D01*
X177866666Y-90967857D01*
X177914285Y-90896428D01*
X177914285Y-90825000D01*
X177866666Y-90753571D01*
X177819047Y-90717857D01*
X177723809Y-90682142D01*
X177533333Y-90646428D01*
X177438095Y-90610714D01*
X177390476Y-90575000D01*
X177342857Y-90503571D01*
X177342857Y-90432142D01*
X177390476Y-90360714D01*
X177438095Y-90325000D01*
X177533333Y-90289285D01*
X177771428Y-90289285D01*
X177914285Y-90325000D01*
X178247619Y-90289285D02*
X178485714Y-91039285D01*
X178676190Y-90503571D01*
X178866666Y-91039285D01*
X179104761Y-90289285D01*
X179485714Y-91039285D02*
X179485714Y-90289285D01*
X179723809Y-90289285D01*
X179866666Y-90325000D01*
X179961904Y-90396428D01*
X180009523Y-90467857D01*
X180057142Y-90610714D01*
X180057142Y-90717857D01*
X180009523Y-90860714D01*
X179961904Y-90932142D01*
X179866666Y-91003571D01*
X179723809Y-91039285D01*
X179485714Y-91039285D01*
X175432857Y-96736190D02*
X175432857Y-96236190D01*
X175867142Y-96736190D01*
X175867142Y-96236190D01*
X176663333Y-96688571D02*
X176627142Y-96712380D01*
X176518571Y-96736190D01*
X176446190Y-96736190D01*
X176337619Y-96712380D01*
X176265238Y-96664761D01*
X176229047Y-96617142D01*
X176192857Y-96521904D01*
X176192857Y-96450476D01*
X176229047Y-96355238D01*
X176265238Y-96307619D01*
X176337619Y-96260000D01*
X176446190Y-96236190D01*
X176518571Y-96236190D01*
X176627142Y-96260000D01*
X176663333Y-96283809D01*
X180882857Y-96736190D02*
X180882857Y-96236190D01*
X181317142Y-96736190D01*
X181317142Y-96236190D01*
X182113333Y-96688571D02*
X182077142Y-96712380D01*
X181968571Y-96736190D01*
X181896190Y-96736190D01*
X181787619Y-96712380D01*
X181715238Y-96664761D01*
X181679047Y-96617142D01*
X181642857Y-96521904D01*
X181642857Y-96450476D01*
X181679047Y-96355238D01*
X181715238Y-96307619D01*
X181787619Y-96260000D01*
X181896190Y-96236190D01*
X181968571Y-96236190D01*
X182077142Y-96260000D01*
X182113333Y-96283809D01*
X180880952Y-94112380D02*
X180989523Y-94136190D01*
X181170476Y-94136190D01*
X181242857Y-94112380D01*
X181279047Y-94088571D01*
X181315238Y-94040952D01*
X181315238Y-93993333D01*
X181279047Y-93945714D01*
X181242857Y-93921904D01*
X181170476Y-93898095D01*
X181025714Y-93874285D01*
X180953333Y-93850476D01*
X180917142Y-93826666D01*
X180880952Y-93779047D01*
X180880952Y-93731428D01*
X180917142Y-93683809D01*
X180953333Y-93660000D01*
X181025714Y-93636190D01*
X181206666Y-93636190D01*
X181315238Y-93660000D01*
X181568571Y-93636190D02*
X181749523Y-94136190D01*
X181894285Y-93779047D01*
X182039047Y-94136190D01*
X182220000Y-93636190D01*
X182509523Y-94136190D02*
X182509523Y-93636190D01*
X182690476Y-93636190D01*
X182799047Y-93660000D01*
X182871428Y-93707619D01*
X182907619Y-93755238D01*
X182943809Y-93850476D01*
X182943809Y-93921904D01*
X182907619Y-94017142D01*
X182871428Y-94064761D01*
X182799047Y-94112380D01*
X182690476Y-94136190D01*
X182509523Y-94136190D01*
X183703809Y-94088571D02*
X183667619Y-94112380D01*
X183559047Y-94136190D01*
X183486666Y-94136190D01*
X183378095Y-94112380D01*
X183305714Y-94064761D01*
X183269523Y-94017142D01*
X183233333Y-93921904D01*
X183233333Y-93850476D01*
X183269523Y-93755238D01*
X183305714Y-93707619D01*
X183378095Y-93660000D01*
X183486666Y-93636190D01*
X183559047Y-93636190D01*
X183667619Y-93660000D01*
X183703809Y-93683809D01*
X184391428Y-94136190D02*
X184029523Y-94136190D01*
X184029523Y-93636190D01*
X184644761Y-94136190D02*
X184644761Y-93636190D01*
X185079047Y-94136190D02*
X184753333Y-93850476D01*
X185079047Y-93636190D02*
X184644761Y-93921904D01*
X180880476Y-95462380D02*
X180989047Y-95486190D01*
X181170000Y-95486190D01*
X181242380Y-95462380D01*
X181278571Y-95438571D01*
X181314761Y-95390952D01*
X181314761Y-95343333D01*
X181278571Y-95295714D01*
X181242380Y-95271904D01*
X181170000Y-95248095D01*
X181025238Y-95224285D01*
X180952857Y-95200476D01*
X180916666Y-95176666D01*
X180880476Y-95129047D01*
X180880476Y-95081428D01*
X180916666Y-95033809D01*
X180952857Y-95010000D01*
X181025238Y-94986190D01*
X181206190Y-94986190D01*
X181314761Y-95010000D01*
X181568095Y-94986190D02*
X181749047Y-95486190D01*
X181893809Y-95129047D01*
X182038571Y-95486190D01*
X182219523Y-94986190D01*
X182653809Y-94986190D02*
X182798571Y-94986190D01*
X182870952Y-95010000D01*
X182943333Y-95057619D01*
X182979523Y-95152857D01*
X182979523Y-95319523D01*
X182943333Y-95414761D01*
X182870952Y-95462380D01*
X182798571Y-95486190D01*
X182653809Y-95486190D01*
X182581428Y-95462380D01*
X182509047Y-95414761D01*
X182472857Y-95319523D01*
X182472857Y-95152857D01*
X182509047Y-95057619D01*
X182581428Y-95010000D01*
X182653809Y-94986190D01*
X180881428Y-98036190D02*
X180881428Y-97536190D01*
X181315714Y-98036190D01*
X181315714Y-97536190D01*
X182111904Y-98036190D02*
X181858571Y-97798095D01*
X181677619Y-98036190D02*
X181677619Y-97536190D01*
X181967142Y-97536190D01*
X182039523Y-97560000D01*
X182075714Y-97583809D01*
X182111904Y-97631428D01*
X182111904Y-97702857D01*
X182075714Y-97750476D01*
X182039523Y-97774285D01*
X181967142Y-97798095D01*
X181677619Y-97798095D01*
X182401428Y-98012380D02*
X182510000Y-98036190D01*
X182690952Y-98036190D01*
X182763333Y-98012380D01*
X182799523Y-97988571D01*
X182835714Y-97940952D01*
X182835714Y-97893333D01*
X182799523Y-97845714D01*
X182763333Y-97821904D01*
X182690952Y-97798095D01*
X182546190Y-97774285D01*
X182473809Y-97750476D01*
X182437619Y-97726666D01*
X182401428Y-97679047D01*
X182401428Y-97631428D01*
X182437619Y-97583809D01*
X182473809Y-97560000D01*
X182546190Y-97536190D01*
X182727142Y-97536190D01*
X182835714Y-97560000D01*
X183052857Y-97536190D02*
X183487142Y-97536190D01*
X183270000Y-98036190D02*
X183270000Y-97536190D01*
X175100952Y-97610000D02*
X175028571Y-97586190D01*
X174920000Y-97586190D01*
X174811428Y-97610000D01*
X174739047Y-97657619D01*
X174702857Y-97705238D01*
X174666666Y-97800476D01*
X174666666Y-97871904D01*
X174702857Y-97967142D01*
X174739047Y-98014761D01*
X174811428Y-98062380D01*
X174920000Y-98086190D01*
X174992380Y-98086190D01*
X175100952Y-98062380D01*
X175137142Y-98038571D01*
X175137142Y-97871904D01*
X174992380Y-97871904D01*
X175462857Y-98086190D02*
X175462857Y-97586190D01*
X175897142Y-98086190D01*
X175897142Y-97586190D01*
X176259047Y-98086190D02*
X176259047Y-97586190D01*
X176440000Y-97586190D01*
X176548571Y-97610000D01*
X176620952Y-97657619D01*
X176657142Y-97705238D01*
X176693333Y-97800476D01*
X176693333Y-97871904D01*
X176657142Y-97967142D01*
X176620952Y-98014761D01*
X176548571Y-98062380D01*
X176440000Y-98086190D01*
X176259047Y-98086190D01*
X175150952Y-94860000D02*
X175078571Y-94836190D01*
X174970000Y-94836190D01*
X174861428Y-94860000D01*
X174789047Y-94907619D01*
X174752857Y-94955238D01*
X174716666Y-95050476D01*
X174716666Y-95121904D01*
X174752857Y-95217142D01*
X174789047Y-95264761D01*
X174861428Y-95312380D01*
X174970000Y-95336190D01*
X175042380Y-95336190D01*
X175150952Y-95312380D01*
X175187142Y-95288571D01*
X175187142Y-95121904D01*
X175042380Y-95121904D01*
X175512857Y-95336190D02*
X175512857Y-94836190D01*
X175947142Y-95336190D01*
X175947142Y-94836190D01*
X176309047Y-95336190D02*
X176309047Y-94836190D01*
X176490000Y-94836190D01*
X176598571Y-94860000D01*
X176670952Y-94907619D01*
X176707142Y-94955238D01*
X176743333Y-95050476D01*
X176743333Y-95121904D01*
X176707142Y-95217142D01*
X176670952Y-95264761D01*
X176598571Y-95312380D01*
X176490000Y-95336190D01*
X176309047Y-95336190D01*
X175150952Y-93660000D02*
X175078571Y-93636190D01*
X174970000Y-93636190D01*
X174861428Y-93660000D01*
X174789047Y-93707619D01*
X174752857Y-93755238D01*
X174716666Y-93850476D01*
X174716666Y-93921904D01*
X174752857Y-94017142D01*
X174789047Y-94064761D01*
X174861428Y-94112380D01*
X174970000Y-94136190D01*
X175042380Y-94136190D01*
X175150952Y-94112380D01*
X175187142Y-94088571D01*
X175187142Y-93921904D01*
X175042380Y-93921904D01*
X175512857Y-94136190D02*
X175512857Y-93636190D01*
X175947142Y-94136190D01*
X175947142Y-93636190D01*
X176309047Y-94136190D02*
X176309047Y-93636190D01*
X176490000Y-93636190D01*
X176598571Y-93660000D01*
X176670952Y-93707619D01*
X176707142Y-93755238D01*
X176743333Y-93850476D01*
X176743333Y-93921904D01*
X176707142Y-94017142D01*
X176670952Y-94064761D01*
X176598571Y-94112380D01*
X176490000Y-94136190D01*
X176309047Y-94136190D01*
X174416666Y-92536190D02*
X174670000Y-93036190D01*
X174923333Y-92536190D01*
X175610952Y-92988571D02*
X175574761Y-93012380D01*
X175466190Y-93036190D01*
X175393809Y-93036190D01*
X175285238Y-93012380D01*
X175212857Y-92964761D01*
X175176666Y-92917142D01*
X175140476Y-92821904D01*
X175140476Y-92750476D01*
X175176666Y-92655238D01*
X175212857Y-92607619D01*
X175285238Y-92560000D01*
X175393809Y-92536190D01*
X175466190Y-92536190D01*
X175574761Y-92560000D01*
X175610952Y-92583809D01*
X176370952Y-92988571D02*
X176334761Y-93012380D01*
X176226190Y-93036190D01*
X176153809Y-93036190D01*
X176045238Y-93012380D01*
X175972857Y-92964761D01*
X175936666Y-92917142D01*
X175900476Y-92821904D01*
X175900476Y-92750476D01*
X175936666Y-92655238D01*
X175972857Y-92607619D01*
X176045238Y-92560000D01*
X176153809Y-92536190D01*
X176226190Y-92536190D01*
X176334761Y-92560000D01*
X176370952Y-92583809D01*
X180839523Y-92802380D02*
X180948095Y-92826190D01*
X181129047Y-92826190D01*
X181201428Y-92802380D01*
X181237619Y-92778571D01*
X181273809Y-92730952D01*
X181273809Y-92683333D01*
X181237619Y-92635714D01*
X181201428Y-92611904D01*
X181129047Y-92588095D01*
X180984285Y-92564285D01*
X180911904Y-92540476D01*
X180875714Y-92516666D01*
X180839523Y-92469047D01*
X180839523Y-92421428D01*
X180875714Y-92373809D01*
X180911904Y-92350000D01*
X180984285Y-92326190D01*
X181165238Y-92326190D01*
X181273809Y-92350000D01*
X181527142Y-92326190D02*
X181708095Y-92826190D01*
X181852857Y-92469047D01*
X181997619Y-92826190D01*
X182178571Y-92326190D01*
X182468095Y-92826190D02*
X182468095Y-92326190D01*
X182649047Y-92326190D01*
X182757619Y-92350000D01*
X182830000Y-92397619D01*
X182866190Y-92445238D01*
X182902380Y-92540476D01*
X182902380Y-92611904D01*
X182866190Y-92707142D01*
X182830000Y-92754761D01*
X182757619Y-92802380D01*
X182649047Y-92826190D01*
X182468095Y-92826190D01*
X183228095Y-92826190D02*
X183228095Y-92326190D01*
X183734761Y-92326190D02*
X183879523Y-92326190D01*
X183951904Y-92350000D01*
X184024285Y-92397619D01*
X184060476Y-92492857D01*
X184060476Y-92659523D01*
X184024285Y-92754761D01*
X183951904Y-92802380D01*
X183879523Y-92826190D01*
X183734761Y-92826190D01*
X183662380Y-92802380D01*
X183590000Y-92754761D01*
X183553809Y-92659523D01*
X183553809Y-92492857D01*
X183590000Y-92397619D01*
X183662380Y-92350000D01*
X183734761Y-92326190D01*
D10*
X120450000Y-69000000D02*
X120450000Y-68700000D01*
X116750000Y-69000000D02*
X120450000Y-69000000D01*
X116750000Y-68700000D02*
X116750000Y-69000000D01*
D11*
X116708571Y-69249285D02*
X116880000Y-69249285D01*
X116965714Y-69285000D01*
X117051428Y-69356428D01*
X117094285Y-69499285D01*
X117094285Y-69749285D01*
X117051428Y-69892142D01*
X116965714Y-69963571D01*
X116880000Y-69999285D01*
X116708571Y-69999285D01*
X116622857Y-69963571D01*
X116537142Y-69892142D01*
X116494285Y-69749285D01*
X116494285Y-69499285D01*
X116537142Y-69356428D01*
X116622857Y-69285000D01*
X116708571Y-69249285D01*
X117480000Y-69999285D02*
X117480000Y-69249285D01*
X117994285Y-69999285D01*
X117994285Y-69249285D01*
X119537142Y-69999285D02*
X119108571Y-69999285D01*
X119108571Y-69249285D01*
X119837142Y-69606428D02*
X120137142Y-69606428D01*
X120265714Y-69999285D02*
X119837142Y-69999285D01*
X119837142Y-69249285D01*
X120265714Y-69249285D01*
X120651428Y-69999285D02*
X120651428Y-69249285D01*
X120865714Y-69249285D01*
X120994285Y-69285000D01*
X121080000Y-69356428D01*
X121122857Y-69427857D01*
X121165714Y-69570714D01*
X121165714Y-69677857D01*
X121122857Y-69820714D01*
X121080000Y-69892142D01*
X120994285Y-69963571D01*
X120865714Y-69999285D01*
X120651428Y-69999285D01*
X135939523Y-55731904D02*
X135463333Y-55731904D01*
X135415714Y-56112857D01*
X135463333Y-56074761D01*
X135558571Y-56036666D01*
X135796666Y-56036666D01*
X135891904Y-56074761D01*
X135939523Y-56112857D01*
X135987142Y-56189047D01*
X135987142Y-56379523D01*
X135939523Y-56455714D01*
X135891904Y-56493809D01*
X135796666Y-56531904D01*
X135558571Y-56531904D01*
X135463333Y-56493809D01*
X135415714Y-56455714D01*
X136272857Y-55731904D02*
X136606190Y-56531904D01*
X136939523Y-55731904D01*
X139189523Y-61461904D02*
X139808571Y-61461904D01*
X139475238Y-61766666D01*
X139618095Y-61766666D01*
X139713333Y-61804761D01*
X139760952Y-61842857D01*
X139808571Y-61919047D01*
X139808571Y-62109523D01*
X139760952Y-62185714D01*
X139713333Y-62223809D01*
X139618095Y-62261904D01*
X139332380Y-62261904D01*
X139237142Y-62223809D01*
X139189523Y-62185714D01*
X140141904Y-61728571D02*
X140380000Y-62261904D01*
X140618095Y-61728571D01*
X140903809Y-61461904D02*
X141522857Y-61461904D01*
X141189523Y-61766666D01*
X141332380Y-61766666D01*
X141427619Y-61804761D01*
X141475238Y-61842857D01*
X141522857Y-61919047D01*
X141522857Y-62109523D01*
X141475238Y-62185714D01*
X141427619Y-62223809D01*
X141332380Y-62261904D01*
X141046666Y-62261904D01*
X140951428Y-62223809D01*
X140903809Y-62185714D01*
X92777619Y-73880952D02*
X92777619Y-73404761D01*
X92301428Y-73357142D01*
X92349047Y-73404761D01*
X92396666Y-73500000D01*
X92396666Y-73738095D01*
X92349047Y-73833333D01*
X92301428Y-73880952D01*
X92206190Y-73928571D01*
X91968095Y-73928571D01*
X91872857Y-73880952D01*
X91825238Y-73833333D01*
X91777619Y-73738095D01*
X91777619Y-73500000D01*
X91825238Y-73404761D01*
X91872857Y-73357142D01*
X92777619Y-74833333D02*
X92777619Y-74357142D01*
X92301428Y-74309523D01*
X92349047Y-74357142D01*
X92396666Y-74452380D01*
X92396666Y-74690476D01*
X92349047Y-74785714D01*
X92301428Y-74833333D01*
X92206190Y-74880952D01*
X91968095Y-74880952D01*
X91872857Y-74833333D01*
X91825238Y-74785714D01*
X91777619Y-74690476D01*
X91777619Y-74452380D01*
X91825238Y-74357142D01*
X91872857Y-74309523D01*
X91872857Y-75309523D02*
X91825238Y-75357142D01*
X91777619Y-75309523D01*
X91825238Y-75261904D01*
X91872857Y-75309523D01*
X91777619Y-75309523D01*
X92777619Y-75976190D02*
X92777619Y-76071428D01*
X92730000Y-76166666D01*
X92682380Y-76214285D01*
X92587142Y-76261904D01*
X92396666Y-76309523D01*
X92158571Y-76309523D01*
X91968095Y-76261904D01*
X91872857Y-76214285D01*
X91825238Y-76166666D01*
X91777619Y-76071428D01*
X91777619Y-75976190D01*
X91825238Y-75880952D01*
X91872857Y-75833333D01*
X91968095Y-75785714D01*
X92158571Y-75738095D01*
X92396666Y-75738095D01*
X92587142Y-75785714D01*
X92682380Y-75833333D01*
X92730000Y-75880952D01*
X92777619Y-75976190D01*
X92777619Y-76928571D02*
X92777619Y-77023809D01*
X92730000Y-77119047D01*
X92682380Y-77166666D01*
X92587142Y-77214285D01*
X92396666Y-77261904D01*
X92158571Y-77261904D01*
X91968095Y-77214285D01*
X91872857Y-77166666D01*
X91825238Y-77119047D01*
X91777619Y-77023809D01*
X91777619Y-76928571D01*
X91825238Y-76833333D01*
X91872857Y-76785714D01*
X91968095Y-76738095D01*
X92158571Y-76690476D01*
X92396666Y-76690476D01*
X92587142Y-76738095D01*
X92682380Y-76785714D01*
X92730000Y-76833333D01*
X92777619Y-76928571D01*
X92777619Y-77880952D02*
X92777619Y-77976190D01*
X92730000Y-78071428D01*
X92682380Y-78119047D01*
X92587142Y-78166666D01*
X92396666Y-78214285D01*
X92158571Y-78214285D01*
X91968095Y-78166666D01*
X91872857Y-78119047D01*
X91825238Y-78071428D01*
X91777619Y-77976190D01*
X91777619Y-77880952D01*
X91825238Y-77785714D01*
X91872857Y-77738095D01*
X91968095Y-77690476D01*
X92158571Y-77642857D01*
X92396666Y-77642857D01*
X92587142Y-77690476D01*
X92682380Y-77738095D01*
X92730000Y-77785714D01*
X92777619Y-77880952D01*
X91777619Y-79404761D02*
X92444285Y-79404761D01*
X92349047Y-79404761D02*
X92396666Y-79452380D01*
X92444285Y-79547619D01*
X92444285Y-79690476D01*
X92396666Y-79785714D01*
X92301428Y-79833333D01*
X91777619Y-79833333D01*
X92301428Y-79833333D02*
X92396666Y-79880952D01*
X92444285Y-79976190D01*
X92444285Y-80119047D01*
X92396666Y-80214285D01*
X92301428Y-80261904D01*
X91777619Y-80261904D01*
X91777619Y-80738095D02*
X92444285Y-80738095D01*
X92349047Y-80738095D02*
X92396666Y-80785714D01*
X92444285Y-80880952D01*
X92444285Y-81023809D01*
X92396666Y-81119047D01*
X92301428Y-81166666D01*
X91777619Y-81166666D01*
X92301428Y-81166666D02*
X92396666Y-81214285D01*
X92444285Y-81309523D01*
X92444285Y-81452380D01*
X92396666Y-81547619D01*
X92301428Y-81595238D01*
X91777619Y-81595238D01*
D10*
X93500000Y-50000000D02*
X93500000Y-105000000D01*
X102500000Y-50000000D02*
X92913579Y-50000000D01*
X102500000Y-105000000D02*
X92913579Y-105000000D01*
X93500000Y-105000000D02*
X92913579Y-103873496D01*
X93500000Y-105000000D02*
X94086421Y-103873496D01*
X93500000Y-50000000D02*
X92913579Y-51126504D01*
X93500000Y-50000000D02*
X94086421Y-51126504D01*
D11*
X141452380Y-48182380D02*
X141642857Y-48182380D01*
X141738095Y-48134761D01*
X141785714Y-48087142D01*
X141880952Y-47944285D01*
X141928571Y-47753809D01*
X141928571Y-47372857D01*
X141880952Y-47277619D01*
X141833333Y-47230000D01*
X141738095Y-47182380D01*
X141547619Y-47182380D01*
X141452380Y-47230000D01*
X141404761Y-47277619D01*
X141357142Y-47372857D01*
X141357142Y-47610952D01*
X141404761Y-47706190D01*
X141452380Y-47753809D01*
X141547619Y-47801428D01*
X141738095Y-47801428D01*
X141833333Y-47753809D01*
X141880952Y-47706190D01*
X141928571Y-47610952D01*
X142547619Y-47182380D02*
X142642857Y-47182380D01*
X142738095Y-47230000D01*
X142785714Y-47277619D01*
X142833333Y-47372857D01*
X142880952Y-47563333D01*
X142880952Y-47801428D01*
X142833333Y-47991904D01*
X142785714Y-48087142D01*
X142738095Y-48134761D01*
X142642857Y-48182380D01*
X142547619Y-48182380D01*
X142452380Y-48134761D01*
X142404761Y-48087142D01*
X142357142Y-47991904D01*
X142309523Y-47801428D01*
X142309523Y-47563333D01*
X142357142Y-47372857D01*
X142404761Y-47277619D01*
X142452380Y-47230000D01*
X142547619Y-47182380D01*
X143309523Y-48087142D02*
X143357142Y-48134761D01*
X143309523Y-48182380D01*
X143261904Y-48134761D01*
X143309523Y-48087142D01*
X143309523Y-48182380D01*
X143976190Y-47182380D02*
X144071428Y-47182380D01*
X144166666Y-47230000D01*
X144214285Y-47277619D01*
X144261904Y-47372857D01*
X144309523Y-47563333D01*
X144309523Y-47801428D01*
X144261904Y-47991904D01*
X144214285Y-48087142D01*
X144166666Y-48134761D01*
X144071428Y-48182380D01*
X143976190Y-48182380D01*
X143880952Y-48134761D01*
X143833333Y-48087142D01*
X143785714Y-47991904D01*
X143738095Y-47801428D01*
X143738095Y-47563333D01*
X143785714Y-47372857D01*
X143833333Y-47277619D01*
X143880952Y-47230000D01*
X143976190Y-47182380D01*
X144928571Y-47182380D02*
X145023809Y-47182380D01*
X145119047Y-47230000D01*
X145166666Y-47277619D01*
X145214285Y-47372857D01*
X145261904Y-47563333D01*
X145261904Y-47801428D01*
X145214285Y-47991904D01*
X145166666Y-48087142D01*
X145119047Y-48134761D01*
X145023809Y-48182380D01*
X144928571Y-48182380D01*
X144833333Y-48134761D01*
X144785714Y-48087142D01*
X144738095Y-47991904D01*
X144690476Y-47801428D01*
X144690476Y-47563333D01*
X144738095Y-47372857D01*
X144785714Y-47277619D01*
X144833333Y-47230000D01*
X144928571Y-47182380D01*
X145880952Y-47182380D02*
X145976190Y-47182380D01*
X146071428Y-47230000D01*
X146119047Y-47277619D01*
X146166666Y-47372857D01*
X146214285Y-47563333D01*
X146214285Y-47801428D01*
X146166666Y-47991904D01*
X146119047Y-48087142D01*
X146071428Y-48134761D01*
X145976190Y-48182380D01*
X145880952Y-48182380D01*
X145785714Y-48134761D01*
X145738095Y-48087142D01*
X145690476Y-47991904D01*
X145642857Y-47801428D01*
X145642857Y-47563333D01*
X145690476Y-47372857D01*
X145738095Y-47277619D01*
X145785714Y-47230000D01*
X145880952Y-47182380D01*
X147404761Y-48182380D02*
X147404761Y-47515714D01*
X147404761Y-47610952D02*
X147452380Y-47563333D01*
X147547619Y-47515714D01*
X147690476Y-47515714D01*
X147785714Y-47563333D01*
X147833333Y-47658571D01*
X147833333Y-48182380D01*
X147833333Y-47658571D02*
X147880952Y-47563333D01*
X147976190Y-47515714D01*
X148119047Y-47515714D01*
X148214285Y-47563333D01*
X148261904Y-47658571D01*
X148261904Y-48182380D01*
X148738095Y-48182380D02*
X148738095Y-47515714D01*
X148738095Y-47610952D02*
X148785714Y-47563333D01*
X148880952Y-47515714D01*
X149023809Y-47515714D01*
X149119047Y-47563333D01*
X149166666Y-47658571D01*
X149166666Y-48182380D01*
X149166666Y-47658571D02*
X149214285Y-47563333D01*
X149309523Y-47515714D01*
X149452380Y-47515714D01*
X149547619Y-47563333D01*
X149595238Y-47658571D01*
X149595238Y-48182380D01*
D10*
X100500000Y-49000000D02*
X190500000Y-49000000D01*
X100500000Y-52000000D02*
X100500000Y-48413579D01*
X190500000Y-52000000D02*
X190500000Y-48413579D01*
X190500000Y-49000000D02*
X189373496Y-49586421D01*
X190500000Y-49000000D02*
X189373496Y-48413579D01*
X100500000Y-49000000D02*
X101626504Y-49586421D01*
X100500000Y-49000000D02*
X101626504Y-48413579D01*
X130910000Y-57637221D02*
X130910000Y-57962779D01*
X129890000Y-57637221D02*
X129890000Y-57962779D01*
X122040000Y-66150000D02*
X122040000Y-60140000D01*
X128860000Y-63900000D02*
X128860000Y-60140000D01*
X122040000Y-60140000D02*
X123300000Y-60140000D01*
X128860000Y-60140000D02*
X127600000Y-60140000D01*
X99610000Y-73490000D02*
X99610000Y-80740000D01*
X99610000Y-80740000D02*
X109160000Y-80740000D01*
X109140000Y-79800000D02*
X109140000Y-65300000D01*
X109170000Y-64400000D02*
X99620000Y-64400000D01*
X99620000Y-64400000D02*
X99620000Y-71660000D01*
X99620000Y-71660000D02*
X99610000Y-73490000D01*
X109140000Y-79810000D02*
X109160000Y-80740000D01*
X109140000Y-65300000D02*
X109170000Y-64400000D01*
X99610000Y-91340000D02*
X99610000Y-98590000D01*
X99610000Y-98590000D02*
X109160000Y-98590000D01*
X109140000Y-97650000D02*
X109140000Y-83150000D01*
X109170000Y-82250000D02*
X99620000Y-82250000D01*
X99620000Y-82250000D02*
X99620000Y-89510000D01*
X99620000Y-89510000D02*
X99610000Y-91340000D01*
X109140000Y-97660000D02*
X109160000Y-98590000D01*
X109140000Y-83150000D02*
X109170000Y-82250000D01*
X132990000Y-61799721D02*
X132990000Y-62125279D01*
X134010000Y-61799721D02*
X134010000Y-62125279D01*
X130410000Y-64837221D02*
X130410000Y-65162779D01*
X129390000Y-64837221D02*
X129390000Y-65162779D01*
X135637779Y-58960000D02*
X135312221Y-58960000D01*
X135637779Y-57940000D02*
X135312221Y-57940000D01*
X127035000Y-53062779D02*
X127035000Y-52737221D01*
X126015000Y-53062779D02*
X126015000Y-52737221D01*
X124900279Y-66740000D02*
X124574721Y-66740000D01*
X124900279Y-67760000D02*
X124574721Y-67760000D01*
X127212779Y-55140000D02*
X126887221Y-55140000D01*
X127212779Y-56160000D02*
X126887221Y-56160000D01*
X170842779Y-98940000D02*
X170517221Y-98940000D01*
X170842779Y-97920000D02*
X170517221Y-97920000D01*
X158222500Y-104255000D02*
X160707500Y-104255000D01*
X158222500Y-102885000D02*
X158222500Y-104255000D01*
X160707500Y-102885000D02*
X158222500Y-102885000D01*
X119985000Y-68050000D02*
X119985000Y-65565000D01*
X119985000Y-65565000D02*
X118615000Y-65565000D01*
X118615000Y-65565000D02*
X118615000Y-68050000D01*
X176970000Y-91880000D02*
X178100000Y-91880000D01*
X176970000Y-92640000D02*
X176970000Y-91880000D01*
X179677530Y-91945000D02*
X180500000Y-91945000D01*
X178860000Y-91945000D02*
X179062470Y-91945000D01*
X178860000Y-92076529D02*
X178860000Y-91945000D01*
X178860000Y-93346529D02*
X178860000Y-93203471D01*
X178663471Y-93400000D02*
X178806529Y-93400000D01*
X176970000Y-93400000D02*
X177536529Y-93400000D01*
X180500000Y-91945000D02*
X180500000Y-98415000D01*
X176970000Y-93400000D02*
X176970000Y-98415000D01*
X178407530Y-98415000D02*
X179062470Y-98415000D01*
X179677530Y-98415000D02*
X180500000Y-98415000D01*
X176970000Y-98415000D02*
X177792470Y-98415000D01*
D14*
X174200000Y-50550000D02*
X143700000Y-50550000D01*
X143200000Y-55450000D02*
X141950000Y-55450000D01*
X141950000Y-55450000D02*
X141950000Y-52500000D01*
X174200000Y-55450000D02*
X175450000Y-55450000D01*
X175450000Y-55450000D02*
X175450000Y-52500000D01*
X173450000Y-56500000D02*
X173450000Y-56500000D01*
X173550000Y-56500000D02*
X173550000Y-56500000D01*
X173450000Y-56500000D02*
G75*
G02*
X173550000Y-56500000I50000J0D01*
G01*
X173550000Y-56500000D02*
G75*
G02*
X173450000Y-56500000I-50000J0D01*
G01*
D10*
X101000000Y-55350000D02*
X101000000Y-56850000D01*
X102740000Y-55350000D02*
X101000000Y-55350000D01*
X108360000Y-63410000D02*
X101240000Y-63410000D01*
X108360000Y-55590000D02*
X101240000Y-55590000D01*
X101240000Y-55590000D02*
X101240000Y-63410000D01*
X108360000Y-55590000D02*
X108360000Y-63410000D01*
X102800000Y-55590000D02*
X102800000Y-63410000D01*
X106455000Y-61250000D02*
G75*
G03*
X106455000Y-61250000I-1555000J0D01*
G01*
X103468615Y-58357587D02*
G75*
G02*
X103345000Y-57750000I1431385J607587D01*
G01*
X105507742Y-59182109D02*
G75*
G02*
X104292000Y-59182000I-607742J1432109D01*
G01*
X106332109Y-57142258D02*
G75*
G02*
X106332000Y-58358000I-1432109J-607742D01*
G01*
X104292258Y-56317891D02*
G75*
G02*
X105508000Y-56318000I607742J-1432109D01*
G01*
X103344508Y-57777011D02*
G75*
G02*
X103468000Y-57142000I1555492J27011D01*
G01*
X147310000Y-99912779D02*
X147310000Y-99587221D01*
X146290000Y-99912779D02*
X146290000Y-99587221D01*
X163332779Y-103090000D02*
X163007221Y-103090000D01*
X163332779Y-104110000D02*
X163007221Y-104110000D01*
X117190000Y-66987221D02*
X117190000Y-67312779D01*
X118210000Y-66987221D02*
X118210000Y-67312779D01*
X137680000Y-61290000D02*
X136750000Y-61290000D01*
X134520000Y-61290000D02*
X135450000Y-61290000D01*
X134520000Y-61290000D02*
X134520000Y-63450000D01*
X137680000Y-61290000D02*
X137680000Y-62750000D01*
X130830000Y-52290000D02*
X130830000Y-53750000D01*
X127670000Y-52290000D02*
X127670000Y-54450000D01*
X127670000Y-52290000D02*
X128600000Y-52290000D01*
X130830000Y-52290000D02*
X129900000Y-52290000D01*
X159700000Y-94350000D02*
X158410000Y-94350000D01*
X159700000Y-93900000D02*
X159700000Y-94350000D01*
X160150000Y-93900000D02*
X159700000Y-93900000D01*
X166920000Y-93900000D02*
X166920000Y-94350000D01*
X166470000Y-93900000D02*
X166920000Y-93900000D01*
X159700000Y-101120000D02*
X159700000Y-100670000D01*
X160150000Y-101120000D02*
X159700000Y-101120000D01*
X166920000Y-101120000D02*
X166920000Y-100670000D01*
X166470000Y-101120000D02*
X166920000Y-101120000D01*
D15*
X151629700Y-78027440D02*
X151629700Y-78352560D01*
X153890300Y-78352560D02*
X153890300Y-78027440D01*
X154336200Y-78940000D02*
G75*
G03*
X154336200Y-78940000I-76200J0D01*
G01*
D10*
X153460000Y-94620000D02*
X153460000Y-98620000D01*
X156760000Y-94620000D02*
X153460000Y-94620000D01*
X174650000Y-99700000D02*
X174650000Y-100150000D01*
X174650000Y-99700000D02*
X175100000Y-99700000D01*
X180250000Y-100250000D02*
X179800000Y-100250000D01*
X180250000Y-102100000D02*
X180250000Y-100250000D01*
X172450000Y-104650000D02*
X172450000Y-104400000D01*
X180250000Y-104650000D02*
X180250000Y-104400000D01*
X172450000Y-102100000D02*
X172450000Y-100250000D01*
X172450000Y-100250000D02*
X172900000Y-100250000D01*
D14*
X190250000Y-93000000D02*
X190250000Y-62500000D01*
X185350000Y-62000000D02*
X185350000Y-60750000D01*
X185350000Y-60750000D02*
X188300000Y-60750000D01*
X185350000Y-93000000D02*
X185350000Y-94250000D01*
X185350000Y-94250000D02*
X188300000Y-94250000D01*
X184300000Y-92250000D02*
X184300000Y-92250000D01*
X184300000Y-92350000D02*
X184300000Y-92350000D01*
X184300000Y-92250000D02*
G75*
G02*
X184300000Y-92350000I0J-50000D01*
G01*
X184300000Y-92350000D02*
G75*
G02*
X184300000Y-92250000I0J50000D01*
G01*
D15*
X142776200Y-95900000D02*
G75*
G03*
X142776200Y-95900000I-76200J0D01*
G01*
X142330300Y-95312560D02*
X142330300Y-94987440D01*
X140069700Y-94987440D02*
X140069700Y-95312560D01*
D10*
X132710000Y-58012779D02*
X132710000Y-57687221D01*
X131690000Y-58012779D02*
X131690000Y-57687221D01*
X136512779Y-65090000D02*
X136187221Y-65090000D01*
X136512779Y-66110000D02*
X136187221Y-66110000D01*
X138974721Y-57965000D02*
X139300279Y-57965000D01*
X138974721Y-58985000D02*
X139300279Y-58985000D01*
D14*
X141100000Y-63300000D02*
G75*
G03*
X141100000Y-63300000I-650000J0D01*
G01*
D11*
X143900000Y-68750000D02*
X143200000Y-69450000D01*
X143200000Y-75950000D02*
X143200000Y-68750000D01*
X150400000Y-75950000D02*
X143200000Y-75950000D01*
X150400000Y-68750000D02*
X150400000Y-75950000D01*
X143200000Y-68750000D02*
X150400000Y-68750000D01*
X131700000Y-85400000D02*
X138900000Y-85400000D01*
X138900000Y-85400000D02*
X138900000Y-92600000D01*
X138900000Y-92600000D02*
X131700000Y-92600000D01*
X131700000Y-92600000D02*
X131700000Y-85400000D01*
X132400000Y-85400000D02*
X131700000Y-86100000D01*
D14*
X140150000Y-51450000D02*
G75*
G03*
X140150000Y-51450000I-650000J0D01*
G01*
X121500000Y-79850000D02*
G75*
G03*
X121500000Y-79850000I-650000J0D01*
G01*
X132000000Y-78100000D02*
G75*
G03*
X132000000Y-78100000I-650000J0D01*
G01*
X129450000Y-68750000D02*
G75*
G03*
X129450000Y-68750000I-650000J0D01*
G01*
X147700000Y-86700000D02*
G75*
G03*
X147700000Y-86700000I-650000J0D01*
G01*
D10*
X108515000Y-53444564D02*
X108515000Y-52990436D01*
X107045000Y-53444564D02*
X107045000Y-52990436D01*
X110535000Y-53439564D02*
X110535000Y-52985436D01*
X109065000Y-53439564D02*
X109065000Y-52985436D01*
X120014420Y-61978000D02*
X120295580Y-61978000D01*
X120014420Y-60958000D02*
X120295580Y-60958000D01*
X116462436Y-62257000D02*
X116916564Y-62257000D01*
X116462436Y-63727000D02*
X116916564Y-63727000D01*
X111761748Y-63902000D02*
X113184252Y-63902000D01*
X111761748Y-62082000D02*
X113184252Y-62082000D01*
X112313748Y-55699000D02*
X112836252Y-55699000D01*
X112313748Y-54229000D02*
X112836252Y-54229000D01*
X142635000Y-67292164D02*
X142635000Y-67507836D01*
X141915000Y-67292164D02*
X141915000Y-67507836D01*
X130407836Y-83490000D02*
X130192164Y-83490000D01*
X130407836Y-84210000D02*
X130192164Y-84210000D01*
X175475000Y-97715000D02*
X173190000Y-97715000D01*
X175475000Y-99185000D02*
X175475000Y-97715000D01*
X173190000Y-99185000D02*
X175475000Y-99185000D01*
X114775000Y-55800000D02*
X114775000Y-51900000D01*
X116775000Y-55800000D02*
X116775000Y-51900000D01*
X114775000Y-55800000D02*
X116775000Y-55800000D01*
D12*
X122225000Y-51450000D02*
X118125000Y-51450000D01*
X118125000Y-55550000D02*
X122225000Y-55550000D01*
D10*
X137823641Y-67670000D02*
X137516359Y-67670000D01*
X137823641Y-68430000D02*
X137516359Y-68430000D01*
X125300000Y-84296359D02*
X125300000Y-84603641D01*
X124540000Y-84296359D02*
X124540000Y-84603641D01*
X145100000Y-67236359D02*
X145100000Y-67543641D01*
X145860000Y-67236359D02*
X145860000Y-67543641D01*
X116020000Y-67863641D02*
X116020000Y-67556359D01*
X116780000Y-67863641D02*
X116780000Y-67556359D01*
X119967742Y-62723500D02*
X120442258Y-62723500D01*
X119967742Y-63768500D02*
X120442258Y-63768500D01*
X121887258Y-57222500D02*
X121412742Y-57222500D01*
X121887258Y-56177500D02*
X121412742Y-56177500D01*
X120402500Y-58912742D02*
X120402500Y-59387258D01*
X121447500Y-58912742D02*
X121447500Y-59387258D01*
X116950000Y-85833641D02*
X116950000Y-85526359D01*
X116190000Y-85833641D02*
X116190000Y-85526359D01*
X132966359Y-81500000D02*
X133273641Y-81500000D01*
X132966359Y-82260000D02*
X133273641Y-82260000D01*
X139823641Y-68450000D02*
X139516359Y-68450000D01*
X139823641Y-67690000D02*
X139516359Y-67690000D01*
X154223641Y-74450000D02*
X153916359Y-74450000D01*
X154223641Y-75210000D02*
X153916359Y-75210000D01*
X136955000Y-78381359D02*
X136955000Y-78688641D01*
X136195000Y-78381359D02*
X136195000Y-78688641D01*
X144240000Y-92043641D02*
X144240000Y-91736359D01*
X143480000Y-92043641D02*
X143480000Y-91736359D01*
X125650000Y-84316359D02*
X125650000Y-84623641D01*
X126410000Y-84316359D02*
X126410000Y-84623641D01*
X138160000Y-56135000D02*
X137930000Y-56135000D01*
X133440000Y-56135000D02*
X133670000Y-56135000D01*
X133440000Y-56135000D02*
X133440000Y-53415000D01*
X133440000Y-53415000D02*
X134750000Y-53415000D01*
X133670000Y-57275000D02*
X133670000Y-56135000D01*
X138160000Y-53415000D02*
X138160000Y-56135000D01*
X136850000Y-53415000D02*
X138160000Y-53415000D01*
D16*
X112730000Y-56339000D02*
X116630000Y-56339000D01*
X112730000Y-61389000D02*
X116630000Y-61389000D01*
D12*
X110710000Y-56959000D02*
G75*
G03*
X110710000Y-56959000I-100000J0D01*
G01*
D10*
X113160000Y-67022779D02*
X113160000Y-66697221D01*
X112140000Y-67022779D02*
X112140000Y-66697221D01*
X173429721Y-96020000D02*
X173755279Y-96020000D01*
X173429721Y-97040000D02*
X173755279Y-97040000D01*
X165737779Y-57940000D02*
X165412221Y-57940000D01*
X165737779Y-58960000D02*
X165412221Y-58960000D01*
X112090000Y-85012779D02*
X112090000Y-84687221D01*
X113110000Y-85012779D02*
X113110000Y-84687221D01*
X165337742Y-60102500D02*
X165812258Y-60102500D01*
X165337742Y-61147500D02*
X165812258Y-61147500D01*
D12*
X150545000Y-101200000D02*
G75*
G03*
X150545000Y-101200000I-100000J0D01*
G01*
D11*
X130425000Y-56189285D02*
X130225000Y-55832142D01*
X130082142Y-56189285D02*
X130082142Y-55439285D01*
X130310714Y-55439285D01*
X130367857Y-55475000D01*
X130396428Y-55510714D01*
X130425000Y-55582142D01*
X130425000Y-55689285D01*
X130396428Y-55760714D01*
X130367857Y-55796428D01*
X130310714Y-55832142D01*
X130082142Y-55832142D01*
X130767857Y-55760714D02*
X130710714Y-55725000D01*
X130682142Y-55689285D01*
X130653571Y-55617857D01*
X130653571Y-55582142D01*
X130682142Y-55510714D01*
X130710714Y-55475000D01*
X130767857Y-55439285D01*
X130882142Y-55439285D01*
X130939285Y-55475000D01*
X130967857Y-55510714D01*
X130996428Y-55582142D01*
X130996428Y-55617857D01*
X130967857Y-55689285D01*
X130939285Y-55725000D01*
X130882142Y-55760714D01*
X130767857Y-55760714D01*
X130710714Y-55796428D01*
X130682142Y-55832142D01*
X130653571Y-55903571D01*
X130653571Y-56046428D01*
X130682142Y-56117857D01*
X130710714Y-56153571D01*
X130767857Y-56189285D01*
X130882142Y-56189285D01*
X130939285Y-56153571D01*
X130967857Y-56117857D01*
X130996428Y-56046428D01*
X130996428Y-55903571D01*
X130967857Y-55832142D01*
X130939285Y-55796428D01*
X130882142Y-55760714D01*
X128679285Y-67242857D02*
X128650714Y-67278571D01*
X128565000Y-67314285D01*
X128507857Y-67314285D01*
X128422142Y-67278571D01*
X128365000Y-67207142D01*
X128336428Y-67135714D01*
X128307857Y-66992857D01*
X128307857Y-66885714D01*
X128336428Y-66742857D01*
X128365000Y-66671428D01*
X128422142Y-66600000D01*
X128507857Y-66564285D01*
X128565000Y-66564285D01*
X128650714Y-66600000D01*
X128679285Y-66635714D01*
X128907857Y-66635714D02*
X128936428Y-66600000D01*
X128993571Y-66564285D01*
X129136428Y-66564285D01*
X129193571Y-66600000D01*
X129222142Y-66635714D01*
X129250714Y-66707142D01*
X129250714Y-66778571D01*
X129222142Y-66885714D01*
X128879285Y-67314285D01*
X129250714Y-67314285D01*
X129593571Y-66885714D02*
X129536428Y-66850000D01*
X129507857Y-66814285D01*
X129479285Y-66742857D01*
X129479285Y-66707142D01*
X129507857Y-66635714D01*
X129536428Y-66600000D01*
X129593571Y-66564285D01*
X129707857Y-66564285D01*
X129765000Y-66600000D01*
X129793571Y-66635714D01*
X129822142Y-66707142D01*
X129822142Y-66742857D01*
X129793571Y-66814285D01*
X129765000Y-66850000D01*
X129707857Y-66885714D01*
X129593571Y-66885714D01*
X129536428Y-66921428D01*
X129507857Y-66957142D01*
X129479285Y-67028571D01*
X129479285Y-67171428D01*
X129507857Y-67242857D01*
X129536428Y-67278571D01*
X129593571Y-67314285D01*
X129707857Y-67314285D01*
X129765000Y-67278571D01*
X129793571Y-67242857D01*
X129822142Y-67171428D01*
X129822142Y-67028571D01*
X129793571Y-66957142D01*
X129765000Y-66921428D01*
X129707857Y-66885714D01*
X123513095Y-56427380D02*
X123513095Y-57236904D01*
X123560714Y-57332142D01*
X123608333Y-57379761D01*
X123703571Y-57427380D01*
X123894047Y-57427380D01*
X123989285Y-57379761D01*
X124036904Y-57332142D01*
X124084523Y-57236904D01*
X124084523Y-56427380D01*
X124513095Y-56522619D02*
X124560714Y-56475000D01*
X124655952Y-56427380D01*
X124894047Y-56427380D01*
X124989285Y-56475000D01*
X125036904Y-56522619D01*
X125084523Y-56617857D01*
X125084523Y-56713095D01*
X125036904Y-56855952D01*
X124465476Y-57427380D01*
X125084523Y-57427380D01*
X109625000Y-66764285D02*
X109625000Y-67300000D01*
X109596428Y-67407142D01*
X109539285Y-67478571D01*
X109453571Y-67514285D01*
X109396428Y-67514285D01*
X109882142Y-66835714D02*
X109910714Y-66800000D01*
X109967857Y-66764285D01*
X110110714Y-66764285D01*
X110167857Y-66800000D01*
X110196428Y-66835714D01*
X110225000Y-66907142D01*
X110225000Y-66978571D01*
X110196428Y-67085714D01*
X109853571Y-67514285D01*
X110225000Y-67514285D01*
X104189285Y-81750000D02*
X104725000Y-81750000D01*
X104832142Y-81778571D01*
X104903571Y-81835714D01*
X104939285Y-81921428D01*
X104939285Y-81978571D01*
X104939285Y-81150000D02*
X104939285Y-81492857D01*
X104939285Y-81321428D02*
X104189285Y-81321428D01*
X104296428Y-81378571D01*
X104367857Y-81435714D01*
X104403571Y-81492857D01*
X114100000Y-65732857D02*
X114071428Y-65768571D01*
X113985714Y-65804285D01*
X113928571Y-65804285D01*
X113842857Y-65768571D01*
X113785714Y-65697142D01*
X113757142Y-65625714D01*
X113728571Y-65482857D01*
X113728571Y-65375714D01*
X113757142Y-65232857D01*
X113785714Y-65161428D01*
X113842857Y-65090000D01*
X113928571Y-65054285D01*
X113985714Y-65054285D01*
X114071428Y-65090000D01*
X114100000Y-65125714D01*
X114671428Y-65804285D02*
X114328571Y-65804285D01*
X114500000Y-65804285D02*
X114500000Y-65054285D01*
X114442857Y-65161428D01*
X114385714Y-65232857D01*
X114328571Y-65268571D01*
X147617857Y-79825000D02*
X147653571Y-79853571D01*
X147689285Y-79939285D01*
X147689285Y-79996428D01*
X147653571Y-80082142D01*
X147582142Y-80139285D01*
X147510714Y-80167857D01*
X147367857Y-80196428D01*
X147260714Y-80196428D01*
X147117857Y-80167857D01*
X147046428Y-80139285D01*
X146975000Y-80082142D01*
X146939285Y-79996428D01*
X146939285Y-79939285D01*
X146975000Y-79853571D01*
X147010714Y-79825000D01*
X147010714Y-79596428D02*
X146975000Y-79567857D01*
X146939285Y-79510714D01*
X146939285Y-79367857D01*
X146975000Y-79310714D01*
X147010714Y-79282142D01*
X147082142Y-79253571D01*
X147153571Y-79253571D01*
X147260714Y-79282142D01*
X147689285Y-79625000D01*
X147689285Y-79253571D01*
X152860000Y-70727857D02*
X152831428Y-70763571D01*
X152745714Y-70799285D01*
X152688571Y-70799285D01*
X152602857Y-70763571D01*
X152545714Y-70692142D01*
X152517142Y-70620714D01*
X152488571Y-70477857D01*
X152488571Y-70370714D01*
X152517142Y-70227857D01*
X152545714Y-70156428D01*
X152602857Y-70085000D01*
X152688571Y-70049285D01*
X152745714Y-70049285D01*
X152831428Y-70085000D01*
X152860000Y-70120714D01*
X153060000Y-70049285D02*
X153431428Y-70049285D01*
X153231428Y-70335000D01*
X153317142Y-70335000D01*
X153374285Y-70370714D01*
X153402857Y-70406428D01*
X153431428Y-70477857D01*
X153431428Y-70656428D01*
X153402857Y-70727857D01*
X153374285Y-70763571D01*
X153317142Y-70799285D01*
X153145714Y-70799285D01*
X153088571Y-70763571D01*
X153060000Y-70727857D01*
X149742857Y-79775000D02*
X149778571Y-79803571D01*
X149814285Y-79889285D01*
X149814285Y-79946428D01*
X149778571Y-80032142D01*
X149707142Y-80089285D01*
X149635714Y-80117857D01*
X149492857Y-80146428D01*
X149385714Y-80146428D01*
X149242857Y-80117857D01*
X149171428Y-80089285D01*
X149100000Y-80032142D01*
X149064285Y-79946428D01*
X149064285Y-79889285D01*
X149100000Y-79803571D01*
X149135714Y-79775000D01*
X149314285Y-79260714D02*
X149814285Y-79260714D01*
X149028571Y-79403571D02*
X149564285Y-79546428D01*
X149564285Y-79175000D01*
X148792857Y-80025000D02*
X148828571Y-80053571D01*
X148864285Y-80139285D01*
X148864285Y-80196428D01*
X148828571Y-80282142D01*
X148757142Y-80339285D01*
X148685714Y-80367857D01*
X148542857Y-80396428D01*
X148435714Y-80396428D01*
X148292857Y-80367857D01*
X148221428Y-80339285D01*
X148150000Y-80282142D01*
X148114285Y-80196428D01*
X148114285Y-80139285D01*
X148150000Y-80053571D01*
X148185714Y-80025000D01*
X148114285Y-79482142D02*
X148114285Y-79767857D01*
X148471428Y-79796428D01*
X148435714Y-79767857D01*
X148400000Y-79710714D01*
X148400000Y-79567857D01*
X148435714Y-79510714D01*
X148471428Y-79482142D01*
X148542857Y-79453571D01*
X148721428Y-79453571D01*
X148792857Y-79482142D01*
X148828571Y-79510714D01*
X148864285Y-79567857D01*
X148864285Y-79710714D01*
X148828571Y-79767857D01*
X148792857Y-79796428D01*
X140275000Y-76617857D02*
X140246428Y-76653571D01*
X140160714Y-76689285D01*
X140103571Y-76689285D01*
X140017857Y-76653571D01*
X139960714Y-76582142D01*
X139932142Y-76510714D01*
X139903571Y-76367857D01*
X139903571Y-76260714D01*
X139932142Y-76117857D01*
X139960714Y-76046428D01*
X140017857Y-75975000D01*
X140103571Y-75939285D01*
X140160714Y-75939285D01*
X140246428Y-75975000D01*
X140275000Y-76010714D01*
X140789285Y-75939285D02*
X140675000Y-75939285D01*
X140617857Y-75975000D01*
X140589285Y-76010714D01*
X140532142Y-76117857D01*
X140503571Y-76260714D01*
X140503571Y-76546428D01*
X140532142Y-76617857D01*
X140560714Y-76653571D01*
X140617857Y-76689285D01*
X140732142Y-76689285D01*
X140789285Y-76653571D01*
X140817857Y-76617857D01*
X140846428Y-76546428D01*
X140846428Y-76367857D01*
X140817857Y-76296428D01*
X140789285Y-76260714D01*
X140732142Y-76225000D01*
X140617857Y-76225000D01*
X140560714Y-76260714D01*
X140532142Y-76296428D01*
X140503571Y-76367857D01*
X141350000Y-76667857D02*
X141321428Y-76703571D01*
X141235714Y-76739285D01*
X141178571Y-76739285D01*
X141092857Y-76703571D01*
X141035714Y-76632142D01*
X141007142Y-76560714D01*
X140978571Y-76417857D01*
X140978571Y-76310714D01*
X141007142Y-76167857D01*
X141035714Y-76096428D01*
X141092857Y-76025000D01*
X141178571Y-75989285D01*
X141235714Y-75989285D01*
X141321428Y-76025000D01*
X141350000Y-76060714D01*
X141550000Y-75989285D02*
X141950000Y-75989285D01*
X141692857Y-76739285D01*
X152100000Y-75317857D02*
X152071428Y-75353571D01*
X151985714Y-75389285D01*
X151928571Y-75389285D01*
X151842857Y-75353571D01*
X151785714Y-75282142D01*
X151757142Y-75210714D01*
X151728571Y-75067857D01*
X151728571Y-74960714D01*
X151757142Y-74817857D01*
X151785714Y-74746428D01*
X151842857Y-74675000D01*
X151928571Y-74639285D01*
X151985714Y-74639285D01*
X152071428Y-74675000D01*
X152100000Y-74710714D01*
X152442857Y-74960714D02*
X152385714Y-74925000D01*
X152357142Y-74889285D01*
X152328571Y-74817857D01*
X152328571Y-74782142D01*
X152357142Y-74710714D01*
X152385714Y-74675000D01*
X152442857Y-74639285D01*
X152557142Y-74639285D01*
X152614285Y-74675000D01*
X152642857Y-74710714D01*
X152671428Y-74782142D01*
X152671428Y-74817857D01*
X152642857Y-74889285D01*
X152614285Y-74925000D01*
X152557142Y-74960714D01*
X152442857Y-74960714D01*
X152385714Y-74996428D01*
X152357142Y-75032142D01*
X152328571Y-75103571D01*
X152328571Y-75246428D01*
X152357142Y-75317857D01*
X152385714Y-75353571D01*
X152442857Y-75389285D01*
X152557142Y-75389285D01*
X152614285Y-75353571D01*
X152642857Y-75317857D01*
X152671428Y-75246428D01*
X152671428Y-75103571D01*
X152642857Y-75032142D01*
X152614285Y-74996428D01*
X152557142Y-74960714D01*
X152870000Y-69777857D02*
X152841428Y-69813571D01*
X152755714Y-69849285D01*
X152698571Y-69849285D01*
X152612857Y-69813571D01*
X152555714Y-69742142D01*
X152527142Y-69670714D01*
X152498571Y-69527857D01*
X152498571Y-69420714D01*
X152527142Y-69277857D01*
X152555714Y-69206428D01*
X152612857Y-69135000D01*
X152698571Y-69099285D01*
X152755714Y-69099285D01*
X152841428Y-69135000D01*
X152870000Y-69170714D01*
X153155714Y-69849285D02*
X153270000Y-69849285D01*
X153327142Y-69813571D01*
X153355714Y-69777857D01*
X153412857Y-69670714D01*
X153441428Y-69527857D01*
X153441428Y-69242142D01*
X153412857Y-69170714D01*
X153384285Y-69135000D01*
X153327142Y-69099285D01*
X153212857Y-69099285D01*
X153155714Y-69135000D01*
X153127142Y-69170714D01*
X153098571Y-69242142D01*
X153098571Y-69420714D01*
X153127142Y-69492142D01*
X153155714Y-69527857D01*
X153212857Y-69563571D01*
X153327142Y-69563571D01*
X153384285Y-69527857D01*
X153412857Y-69492142D01*
X153441428Y-69420714D01*
X144587857Y-66215714D02*
X144623571Y-66244285D01*
X144659285Y-66330000D01*
X144659285Y-66387142D01*
X144623571Y-66472857D01*
X144552142Y-66530000D01*
X144480714Y-66558571D01*
X144337857Y-66587142D01*
X144230714Y-66587142D01*
X144087857Y-66558571D01*
X144016428Y-66530000D01*
X143945000Y-66472857D01*
X143909285Y-66387142D01*
X143909285Y-66330000D01*
X143945000Y-66244285D01*
X143980714Y-66215714D01*
X144659285Y-65644285D02*
X144659285Y-65987142D01*
X144659285Y-65815714D02*
X143909285Y-65815714D01*
X144016428Y-65872857D01*
X144087857Y-65930000D01*
X144123571Y-65987142D01*
X143909285Y-65272857D02*
X143909285Y-65215714D01*
X143945000Y-65158571D01*
X143980714Y-65130000D01*
X144052142Y-65101428D01*
X144195000Y-65072857D01*
X144373571Y-65072857D01*
X144516428Y-65101428D01*
X144587857Y-65130000D01*
X144623571Y-65158571D01*
X144659285Y-65215714D01*
X144659285Y-65272857D01*
X144623571Y-65330000D01*
X144587857Y-65358571D01*
X144516428Y-65387142D01*
X144373571Y-65415714D01*
X144195000Y-65415714D01*
X144052142Y-65387142D01*
X143980714Y-65358571D01*
X143945000Y-65330000D01*
X143909285Y-65272857D01*
X142414285Y-76617857D02*
X142385714Y-76653571D01*
X142300000Y-76689285D01*
X142242857Y-76689285D01*
X142157142Y-76653571D01*
X142100000Y-76582142D01*
X142071428Y-76510714D01*
X142042857Y-76367857D01*
X142042857Y-76260714D01*
X142071428Y-76117857D01*
X142100000Y-76046428D01*
X142157142Y-75975000D01*
X142242857Y-75939285D01*
X142300000Y-75939285D01*
X142385714Y-75975000D01*
X142414285Y-76010714D01*
X142985714Y-76689285D02*
X142642857Y-76689285D01*
X142814285Y-76689285D02*
X142814285Y-75939285D01*
X142757142Y-76046428D01*
X142700000Y-76117857D01*
X142642857Y-76153571D01*
X143557142Y-76689285D02*
X143214285Y-76689285D01*
X143385714Y-76689285D02*
X143385714Y-75939285D01*
X143328571Y-76046428D01*
X143271428Y-76117857D01*
X143214285Y-76153571D01*
X141542857Y-71535714D02*
X141578571Y-71564285D01*
X141614285Y-71650000D01*
X141614285Y-71707142D01*
X141578571Y-71792857D01*
X141507142Y-71850000D01*
X141435714Y-71878571D01*
X141292857Y-71907142D01*
X141185714Y-71907142D01*
X141042857Y-71878571D01*
X140971428Y-71850000D01*
X140900000Y-71792857D01*
X140864285Y-71707142D01*
X140864285Y-71650000D01*
X140900000Y-71564285D01*
X140935714Y-71535714D01*
X141614285Y-70964285D02*
X141614285Y-71307142D01*
X141614285Y-71135714D02*
X140864285Y-71135714D01*
X140971428Y-71192857D01*
X141042857Y-71250000D01*
X141078571Y-71307142D01*
X140935714Y-70735714D02*
X140900000Y-70707142D01*
X140864285Y-70650000D01*
X140864285Y-70507142D01*
X140900000Y-70450000D01*
X140935714Y-70421428D01*
X141007142Y-70392857D01*
X141078571Y-70392857D01*
X141185714Y-70421428D01*
X141614285Y-70764285D01*
X141614285Y-70392857D01*
X142617857Y-71535714D02*
X142653571Y-71564285D01*
X142689285Y-71650000D01*
X142689285Y-71707142D01*
X142653571Y-71792857D01*
X142582142Y-71850000D01*
X142510714Y-71878571D01*
X142367857Y-71907142D01*
X142260714Y-71907142D01*
X142117857Y-71878571D01*
X142046428Y-71850000D01*
X141975000Y-71792857D01*
X141939285Y-71707142D01*
X141939285Y-71650000D01*
X141975000Y-71564285D01*
X142010714Y-71535714D01*
X142689285Y-70964285D02*
X142689285Y-71307142D01*
X142689285Y-71135714D02*
X141939285Y-71135714D01*
X142046428Y-71192857D01*
X142117857Y-71250000D01*
X142153571Y-71307142D01*
X141939285Y-70764285D02*
X141939285Y-70392857D01*
X142225000Y-70592857D01*
X142225000Y-70507142D01*
X142260714Y-70450000D01*
X142296428Y-70421428D01*
X142367857Y-70392857D01*
X142546428Y-70392857D01*
X142617857Y-70421428D01*
X142653571Y-70450000D01*
X142689285Y-70507142D01*
X142689285Y-70678571D01*
X142653571Y-70735714D01*
X142617857Y-70764285D01*
X139799285Y-73617857D02*
X139770714Y-73653571D01*
X139685000Y-73689285D01*
X139627857Y-73689285D01*
X139542142Y-73653571D01*
X139485000Y-73582142D01*
X139456428Y-73510714D01*
X139427857Y-73367857D01*
X139427857Y-73260714D01*
X139456428Y-73117857D01*
X139485000Y-73046428D01*
X139542142Y-72975000D01*
X139627857Y-72939285D01*
X139685000Y-72939285D01*
X139770714Y-72975000D01*
X139799285Y-73010714D01*
X140370714Y-73689285D02*
X140027857Y-73689285D01*
X140199285Y-73689285D02*
X140199285Y-72939285D01*
X140142142Y-73046428D01*
X140085000Y-73117857D01*
X140027857Y-73153571D01*
X140885000Y-73189285D02*
X140885000Y-73689285D01*
X140742142Y-72903571D02*
X140599285Y-73439285D01*
X140970714Y-73439285D01*
X133667857Y-64748214D02*
X133703571Y-64776785D01*
X133739285Y-64862500D01*
X133739285Y-64919642D01*
X133703571Y-65005357D01*
X133632142Y-65062500D01*
X133560714Y-65091071D01*
X133417857Y-65119642D01*
X133310714Y-65119642D01*
X133167857Y-65091071D01*
X133096428Y-65062500D01*
X133025000Y-65005357D01*
X132989285Y-64919642D01*
X132989285Y-64862500D01*
X133025000Y-64776785D01*
X133060714Y-64748214D01*
X133739285Y-64176785D02*
X133739285Y-64519642D01*
X133739285Y-64348214D02*
X132989285Y-64348214D01*
X133096428Y-64405357D01*
X133167857Y-64462500D01*
X133203571Y-64519642D01*
X132989285Y-63633928D02*
X132989285Y-63919642D01*
X133346428Y-63948214D01*
X133310714Y-63919642D01*
X133275000Y-63862500D01*
X133275000Y-63719642D01*
X133310714Y-63662500D01*
X133346428Y-63633928D01*
X133417857Y-63605357D01*
X133596428Y-63605357D01*
X133667857Y-63633928D01*
X133703571Y-63662500D01*
X133739285Y-63719642D01*
X133739285Y-63862500D01*
X133703571Y-63919642D01*
X133667857Y-63948214D01*
X129589285Y-63292857D02*
X129560714Y-63328571D01*
X129475000Y-63364285D01*
X129417857Y-63364285D01*
X129332142Y-63328571D01*
X129275000Y-63257142D01*
X129246428Y-63185714D01*
X129217857Y-63042857D01*
X129217857Y-62935714D01*
X129246428Y-62792857D01*
X129275000Y-62721428D01*
X129332142Y-62650000D01*
X129417857Y-62614285D01*
X129475000Y-62614285D01*
X129560714Y-62650000D01*
X129589285Y-62685714D01*
X130160714Y-63364285D02*
X129817857Y-63364285D01*
X129989285Y-63364285D02*
X129989285Y-62614285D01*
X129932142Y-62721428D01*
X129875000Y-62792857D01*
X129817857Y-62828571D01*
X130675000Y-62614285D02*
X130560714Y-62614285D01*
X130503571Y-62650000D01*
X130475000Y-62685714D01*
X130417857Y-62792857D01*
X130389285Y-62935714D01*
X130389285Y-63221428D01*
X130417857Y-63292857D01*
X130446428Y-63328571D01*
X130503571Y-63364285D01*
X130617857Y-63364285D01*
X130675000Y-63328571D01*
X130703571Y-63292857D01*
X130732142Y-63221428D01*
X130732142Y-63042857D01*
X130703571Y-62971428D01*
X130675000Y-62935714D01*
X130617857Y-62900000D01*
X130503571Y-62900000D01*
X130446428Y-62935714D01*
X130417857Y-62971428D01*
X130389285Y-63042857D01*
X135564285Y-59917857D02*
X135535714Y-59953571D01*
X135450000Y-59989285D01*
X135392857Y-59989285D01*
X135307142Y-59953571D01*
X135250000Y-59882142D01*
X135221428Y-59810714D01*
X135192857Y-59667857D01*
X135192857Y-59560714D01*
X135221428Y-59417857D01*
X135250000Y-59346428D01*
X135307142Y-59275000D01*
X135392857Y-59239285D01*
X135450000Y-59239285D01*
X135535714Y-59275000D01*
X135564285Y-59310714D01*
X136135714Y-59989285D02*
X135792857Y-59989285D01*
X135964285Y-59989285D02*
X135964285Y-59239285D01*
X135907142Y-59346428D01*
X135850000Y-59417857D01*
X135792857Y-59453571D01*
X136335714Y-59239285D02*
X136735714Y-59239285D01*
X136478571Y-59989285D01*
D13*
X126403571Y-51253571D02*
X126379761Y-51277380D01*
X126308333Y-51301190D01*
X126260714Y-51301190D01*
X126189285Y-51277380D01*
X126141666Y-51229761D01*
X126117857Y-51182142D01*
X126094047Y-51086904D01*
X126094047Y-51015476D01*
X126117857Y-50920238D01*
X126141666Y-50872619D01*
X126189285Y-50825000D01*
X126260714Y-50801190D01*
X126308333Y-50801190D01*
X126379761Y-50825000D01*
X126403571Y-50848809D01*
X126879761Y-51301190D02*
X126594047Y-51301190D01*
X126736904Y-51301190D02*
X126736904Y-50801190D01*
X126689285Y-50872619D01*
X126641666Y-50920238D01*
X126594047Y-50944047D01*
X127165476Y-51015476D02*
X127117857Y-50991666D01*
X127094047Y-50967857D01*
X127070238Y-50920238D01*
X127070238Y-50896428D01*
X127094047Y-50848809D01*
X127117857Y-50825000D01*
X127165476Y-50801190D01*
X127260714Y-50801190D01*
X127308333Y-50825000D01*
X127332142Y-50848809D01*
X127355952Y-50896428D01*
X127355952Y-50920238D01*
X127332142Y-50967857D01*
X127308333Y-50991666D01*
X127260714Y-51015476D01*
X127165476Y-51015476D01*
X127117857Y-51039285D01*
X127094047Y-51063095D01*
X127070238Y-51110714D01*
X127070238Y-51205952D01*
X127094047Y-51253571D01*
X127117857Y-51277380D01*
X127165476Y-51301190D01*
X127260714Y-51301190D01*
X127308333Y-51277380D01*
X127332142Y-51253571D01*
X127355952Y-51205952D01*
X127355952Y-51110714D01*
X127332142Y-51063095D01*
X127308333Y-51039285D01*
X127260714Y-51015476D01*
D11*
X121914285Y-67617857D02*
X121885714Y-67653571D01*
X121800000Y-67689285D01*
X121742857Y-67689285D01*
X121657142Y-67653571D01*
X121600000Y-67582142D01*
X121571428Y-67510714D01*
X121542857Y-67367857D01*
X121542857Y-67260714D01*
X121571428Y-67117857D01*
X121600000Y-67046428D01*
X121657142Y-66975000D01*
X121742857Y-66939285D01*
X121800000Y-66939285D01*
X121885714Y-66975000D01*
X121914285Y-67010714D01*
X122142857Y-67010714D02*
X122171428Y-66975000D01*
X122228571Y-66939285D01*
X122371428Y-66939285D01*
X122428571Y-66975000D01*
X122457142Y-67010714D01*
X122485714Y-67082142D01*
X122485714Y-67153571D01*
X122457142Y-67260714D01*
X122114285Y-67689285D01*
X122485714Y-67689285D01*
X122714285Y-67010714D02*
X122742857Y-66975000D01*
X122800000Y-66939285D01*
X122942857Y-66939285D01*
X123000000Y-66975000D01*
X123028571Y-67010714D01*
X123057142Y-67082142D01*
X123057142Y-67153571D01*
X123028571Y-67260714D01*
X122685714Y-67689285D01*
X123057142Y-67689285D01*
X126814285Y-57167857D02*
X126785714Y-57203571D01*
X126700000Y-57239285D01*
X126642857Y-57239285D01*
X126557142Y-57203571D01*
X126500000Y-57132142D01*
X126471428Y-57060714D01*
X126442857Y-56917857D01*
X126442857Y-56810714D01*
X126471428Y-56667857D01*
X126500000Y-56596428D01*
X126557142Y-56525000D01*
X126642857Y-56489285D01*
X126700000Y-56489285D01*
X126785714Y-56525000D01*
X126814285Y-56560714D01*
X127042857Y-56560714D02*
X127071428Y-56525000D01*
X127128571Y-56489285D01*
X127271428Y-56489285D01*
X127328571Y-56525000D01*
X127357142Y-56560714D01*
X127385714Y-56632142D01*
X127385714Y-56703571D01*
X127357142Y-56810714D01*
X127014285Y-57239285D01*
X127385714Y-57239285D01*
X127900000Y-56739285D02*
X127900000Y-57239285D01*
X127757142Y-56453571D02*
X127614285Y-56989285D01*
X127985714Y-56989285D01*
X143417857Y-80350714D02*
X143453571Y-80379285D01*
X143489285Y-80465000D01*
X143489285Y-80522142D01*
X143453571Y-80607857D01*
X143382142Y-80665000D01*
X143310714Y-80693571D01*
X143167857Y-80722142D01*
X143060714Y-80722142D01*
X142917857Y-80693571D01*
X142846428Y-80665000D01*
X142775000Y-80607857D01*
X142739285Y-80522142D01*
X142739285Y-80465000D01*
X142775000Y-80379285D01*
X142810714Y-80350714D01*
X142739285Y-80150714D02*
X142739285Y-79779285D01*
X143025000Y-79979285D01*
X143025000Y-79893571D01*
X143060714Y-79836428D01*
X143096428Y-79807857D01*
X143167857Y-79779285D01*
X143346428Y-79779285D01*
X143417857Y-79807857D01*
X143453571Y-79836428D01*
X143489285Y-79893571D01*
X143489285Y-80065000D01*
X143453571Y-80122142D01*
X143417857Y-80150714D01*
X142739285Y-79579285D02*
X142739285Y-79207857D01*
X143025000Y-79407857D01*
X143025000Y-79322142D01*
X143060714Y-79265000D01*
X143096428Y-79236428D01*
X143167857Y-79207857D01*
X143346428Y-79207857D01*
X143417857Y-79236428D01*
X143453571Y-79265000D01*
X143489285Y-79322142D01*
X143489285Y-79493571D01*
X143453571Y-79550714D01*
X143417857Y-79579285D01*
X142417857Y-80285714D02*
X142453571Y-80314285D01*
X142489285Y-80400000D01*
X142489285Y-80457142D01*
X142453571Y-80542857D01*
X142382142Y-80600000D01*
X142310714Y-80628571D01*
X142167857Y-80657142D01*
X142060714Y-80657142D01*
X141917857Y-80628571D01*
X141846428Y-80600000D01*
X141775000Y-80542857D01*
X141739285Y-80457142D01*
X141739285Y-80400000D01*
X141775000Y-80314285D01*
X141810714Y-80285714D01*
X141739285Y-80085714D02*
X141739285Y-79714285D01*
X142025000Y-79914285D01*
X142025000Y-79828571D01*
X142060714Y-79771428D01*
X142096428Y-79742857D01*
X142167857Y-79714285D01*
X142346428Y-79714285D01*
X142417857Y-79742857D01*
X142453571Y-79771428D01*
X142489285Y-79828571D01*
X142489285Y-80000000D01*
X142453571Y-80057142D01*
X142417857Y-80085714D01*
X141989285Y-79200000D02*
X142489285Y-79200000D01*
X141703571Y-79342857D02*
X142239285Y-79485714D01*
X142239285Y-79114285D01*
X141317857Y-80435714D02*
X141353571Y-80464285D01*
X141389285Y-80550000D01*
X141389285Y-80607142D01*
X141353571Y-80692857D01*
X141282142Y-80750000D01*
X141210714Y-80778571D01*
X141067857Y-80807142D01*
X140960714Y-80807142D01*
X140817857Y-80778571D01*
X140746428Y-80750000D01*
X140675000Y-80692857D01*
X140639285Y-80607142D01*
X140639285Y-80550000D01*
X140675000Y-80464285D01*
X140710714Y-80435714D01*
X140639285Y-80235714D02*
X140639285Y-79864285D01*
X140925000Y-80064285D01*
X140925000Y-79978571D01*
X140960714Y-79921428D01*
X140996428Y-79892857D01*
X141067857Y-79864285D01*
X141246428Y-79864285D01*
X141317857Y-79892857D01*
X141353571Y-79921428D01*
X141389285Y-79978571D01*
X141389285Y-80150000D01*
X141353571Y-80207142D01*
X141317857Y-80235714D01*
X140639285Y-79321428D02*
X140639285Y-79607142D01*
X140996428Y-79635714D01*
X140960714Y-79607142D01*
X140925000Y-79550000D01*
X140925000Y-79407142D01*
X140960714Y-79350000D01*
X140996428Y-79321428D01*
X141067857Y-79292857D01*
X141246428Y-79292857D01*
X141317857Y-79321428D01*
X141353571Y-79350000D01*
X141389285Y-79407142D01*
X141389285Y-79550000D01*
X141353571Y-79607142D01*
X141317857Y-79635714D01*
X169851785Y-100057857D02*
X169823214Y-100093571D01*
X169737500Y-100129285D01*
X169680357Y-100129285D01*
X169594642Y-100093571D01*
X169537500Y-100022142D01*
X169508928Y-99950714D01*
X169480357Y-99807857D01*
X169480357Y-99700714D01*
X169508928Y-99557857D01*
X169537500Y-99486428D01*
X169594642Y-99415000D01*
X169680357Y-99379285D01*
X169737500Y-99379285D01*
X169823214Y-99415000D01*
X169851785Y-99450714D01*
X170051785Y-99379285D02*
X170423214Y-99379285D01*
X170223214Y-99665000D01*
X170308928Y-99665000D01*
X170366071Y-99700714D01*
X170394642Y-99736428D01*
X170423214Y-99807857D01*
X170423214Y-99986428D01*
X170394642Y-100057857D01*
X170366071Y-100093571D01*
X170308928Y-100129285D01*
X170137500Y-100129285D01*
X170080357Y-100093571D01*
X170051785Y-100057857D01*
X170937500Y-99379285D02*
X170823214Y-99379285D01*
X170766071Y-99415000D01*
X170737500Y-99450714D01*
X170680357Y-99557857D01*
X170651785Y-99700714D01*
X170651785Y-99986428D01*
X170680357Y-100057857D01*
X170708928Y-100093571D01*
X170766071Y-100129285D01*
X170880357Y-100129285D01*
X170937500Y-100093571D01*
X170966071Y-100057857D01*
X170994642Y-99986428D01*
X170994642Y-99807857D01*
X170966071Y-99736428D01*
X170937500Y-99700714D01*
X170880357Y-99665000D01*
X170766071Y-99665000D01*
X170708928Y-99700714D01*
X170680357Y-99736428D01*
X170651785Y-99807857D01*
X152814285Y-94257857D02*
X152785714Y-94293571D01*
X152700000Y-94329285D01*
X152642857Y-94329285D01*
X152557142Y-94293571D01*
X152500000Y-94222142D01*
X152471428Y-94150714D01*
X152442857Y-94007857D01*
X152442857Y-93900714D01*
X152471428Y-93757857D01*
X152500000Y-93686428D01*
X152557142Y-93615000D01*
X152642857Y-93579285D01*
X152700000Y-93579285D01*
X152785714Y-93615000D01*
X152814285Y-93650714D01*
X153328571Y-93829285D02*
X153328571Y-94329285D01*
X153185714Y-93543571D02*
X153042857Y-94079285D01*
X153414285Y-94079285D01*
X153757142Y-93579285D02*
X153814285Y-93579285D01*
X153871428Y-93615000D01*
X153900000Y-93650714D01*
X153928571Y-93722142D01*
X153957142Y-93865000D01*
X153957142Y-94043571D01*
X153928571Y-94186428D01*
X153900000Y-94257857D01*
X153871428Y-94293571D01*
X153814285Y-94329285D01*
X153757142Y-94329285D01*
X153700000Y-94293571D01*
X153671428Y-94257857D01*
X153642857Y-94186428D01*
X153614285Y-94043571D01*
X153614285Y-93865000D01*
X153642857Y-93722142D01*
X153671428Y-93650714D01*
X153700000Y-93615000D01*
X153757142Y-93579285D01*
X153044285Y-99607857D02*
X153015714Y-99643571D01*
X152930000Y-99679285D01*
X152872857Y-99679285D01*
X152787142Y-99643571D01*
X152730000Y-99572142D01*
X152701428Y-99500714D01*
X152672857Y-99357857D01*
X152672857Y-99250714D01*
X152701428Y-99107857D01*
X152730000Y-99036428D01*
X152787142Y-98965000D01*
X152872857Y-98929285D01*
X152930000Y-98929285D01*
X153015714Y-98965000D01*
X153044285Y-99000714D01*
X153558571Y-99179285D02*
X153558571Y-99679285D01*
X153415714Y-98893571D02*
X153272857Y-99429285D01*
X153644285Y-99429285D01*
X154187142Y-99679285D02*
X153844285Y-99679285D01*
X154015714Y-99679285D02*
X154015714Y-98929285D01*
X153958571Y-99036428D01*
X153901428Y-99107857D01*
X153844285Y-99143571D01*
X157164642Y-103909285D02*
X157164642Y-103159285D01*
X157307500Y-103159285D01*
X157393214Y-103195000D01*
X157450357Y-103266428D01*
X157478928Y-103337857D01*
X157507500Y-103480714D01*
X157507500Y-103587857D01*
X157478928Y-103730714D01*
X157450357Y-103802142D01*
X157393214Y-103873571D01*
X157307500Y-103909285D01*
X157164642Y-103909285D01*
X158078928Y-103909285D02*
X157736071Y-103909285D01*
X157907500Y-103909285D02*
X157907500Y-103159285D01*
X157850357Y-103266428D01*
X157793214Y-103337857D01*
X157736071Y-103373571D01*
X120207142Y-65964285D02*
X120207142Y-65214285D01*
X120350000Y-65214285D01*
X120435714Y-65250000D01*
X120492857Y-65321428D01*
X120521428Y-65392857D01*
X120550000Y-65535714D01*
X120550000Y-65642857D01*
X120521428Y-65785714D01*
X120492857Y-65857142D01*
X120435714Y-65928571D01*
X120350000Y-65964285D01*
X120207142Y-65964285D01*
X120778571Y-65285714D02*
X120807142Y-65250000D01*
X120864285Y-65214285D01*
X121007142Y-65214285D01*
X121064285Y-65250000D01*
X121092857Y-65285714D01*
X121121428Y-65357142D01*
X121121428Y-65428571D01*
X121092857Y-65535714D01*
X120750000Y-65964285D01*
X121121428Y-65964285D01*
X178535000Y-98639285D02*
X178535000Y-99175000D01*
X178506428Y-99282142D01*
X178449285Y-99353571D01*
X178363571Y-99389285D01*
X178306428Y-99389285D01*
X178763571Y-98639285D02*
X179135000Y-98639285D01*
X178935000Y-98925000D01*
X179020714Y-98925000D01*
X179077857Y-98960714D01*
X179106428Y-98996428D01*
X179135000Y-99067857D01*
X179135000Y-99246428D01*
X179106428Y-99317857D01*
X179077857Y-99353571D01*
X179020714Y-99389285D01*
X178849285Y-99389285D01*
X178792142Y-99353571D01*
X178763571Y-99317857D01*
X174950000Y-56089285D02*
X174950000Y-56625000D01*
X174921428Y-56732142D01*
X174864285Y-56803571D01*
X174778571Y-56839285D01*
X174721428Y-56839285D01*
X175521428Y-56089285D02*
X175235714Y-56089285D01*
X175207142Y-56446428D01*
X175235714Y-56410714D01*
X175292857Y-56375000D01*
X175435714Y-56375000D01*
X175492857Y-56410714D01*
X175521428Y-56446428D01*
X175550000Y-56517857D01*
X175550000Y-56696428D01*
X175521428Y-56767857D01*
X175492857Y-56803571D01*
X175435714Y-56839285D01*
X175292857Y-56839285D01*
X175235714Y-56803571D01*
X175207142Y-56767857D01*
X104489285Y-54950000D02*
X105025000Y-54950000D01*
X105132142Y-54978571D01*
X105203571Y-55035714D01*
X105239285Y-55121428D01*
X105239285Y-55178571D01*
X104489285Y-54407142D02*
X104489285Y-54521428D01*
X104525000Y-54578571D01*
X104560714Y-54607142D01*
X104667857Y-54664285D01*
X104810714Y-54692857D01*
X105096428Y-54692857D01*
X105167857Y-54664285D01*
X105203571Y-54635714D01*
X105239285Y-54578571D01*
X105239285Y-54464285D01*
X105203571Y-54407142D01*
X105167857Y-54378571D01*
X105096428Y-54350000D01*
X104917857Y-54350000D01*
X104846428Y-54378571D01*
X104810714Y-54407142D01*
X104775000Y-54464285D01*
X104775000Y-54578571D01*
X104810714Y-54635714D01*
X104846428Y-54664285D01*
X104917857Y-54692857D01*
X150889285Y-79700000D02*
X150532142Y-79900000D01*
X150889285Y-80042857D02*
X150139285Y-80042857D01*
X150139285Y-79814285D01*
X150175000Y-79757142D01*
X150210714Y-79728571D01*
X150282142Y-79700000D01*
X150389285Y-79700000D01*
X150460714Y-79728571D01*
X150496428Y-79757142D01*
X150532142Y-79814285D01*
X150532142Y-80042857D01*
X150139285Y-79157142D02*
X150139285Y-79442857D01*
X150496428Y-79471428D01*
X150460714Y-79442857D01*
X150425000Y-79385714D01*
X150425000Y-79242857D01*
X150460714Y-79185714D01*
X150496428Y-79157142D01*
X150567857Y-79128571D01*
X150746428Y-79128571D01*
X150817857Y-79157142D01*
X150853571Y-79185714D01*
X150889285Y-79242857D01*
X150889285Y-79385714D01*
X150853571Y-79442857D01*
X150817857Y-79471428D01*
X146739285Y-80235714D02*
X146382142Y-80435714D01*
X146739285Y-80578571D02*
X145989285Y-80578571D01*
X145989285Y-80350000D01*
X146025000Y-80292857D01*
X146060714Y-80264285D01*
X146132142Y-80235714D01*
X146239285Y-80235714D01*
X146310714Y-80264285D01*
X146346428Y-80292857D01*
X146382142Y-80350000D01*
X146382142Y-80578571D01*
X146739285Y-79664285D02*
X146739285Y-80007142D01*
X146739285Y-79835714D02*
X145989285Y-79835714D01*
X146096428Y-79892857D01*
X146167857Y-79950000D01*
X146203571Y-80007142D01*
X145989285Y-79292857D02*
X145989285Y-79235714D01*
X146025000Y-79178571D01*
X146060714Y-79150000D01*
X146132142Y-79121428D01*
X146275000Y-79092857D01*
X146453571Y-79092857D01*
X146596428Y-79121428D01*
X146667857Y-79150000D01*
X146703571Y-79178571D01*
X146739285Y-79235714D01*
X146739285Y-79292857D01*
X146703571Y-79350000D01*
X146667857Y-79378571D01*
X146596428Y-79407142D01*
X146453571Y-79435714D01*
X146275000Y-79435714D01*
X146132142Y-79407142D01*
X146060714Y-79378571D01*
X146025000Y-79350000D01*
X145989285Y-79292857D01*
X146414285Y-97989285D02*
X146214285Y-97632142D01*
X146071428Y-97989285D02*
X146071428Y-97239285D01*
X146300000Y-97239285D01*
X146357142Y-97275000D01*
X146385714Y-97310714D01*
X146414285Y-97382142D01*
X146414285Y-97489285D01*
X146385714Y-97560714D01*
X146357142Y-97596428D01*
X146300000Y-97632142D01*
X146071428Y-97632142D01*
X146985714Y-97989285D02*
X146642857Y-97989285D01*
X146814285Y-97989285D02*
X146814285Y-97239285D01*
X146757142Y-97346428D01*
X146700000Y-97417857D01*
X146642857Y-97453571D01*
X147214285Y-97310714D02*
X147242857Y-97275000D01*
X147300000Y-97239285D01*
X147442857Y-97239285D01*
X147500000Y-97275000D01*
X147528571Y-97310714D01*
X147557142Y-97382142D01*
X147557142Y-97453571D01*
X147528571Y-97560714D01*
X147185714Y-97989285D01*
X147557142Y-97989285D01*
X165429285Y-103975714D02*
X165072142Y-104175714D01*
X165429285Y-104318571D02*
X164679285Y-104318571D01*
X164679285Y-104090000D01*
X164715000Y-104032857D01*
X164750714Y-104004285D01*
X164822142Y-103975714D01*
X164929285Y-103975714D01*
X165000714Y-104004285D01*
X165036428Y-104032857D01*
X165072142Y-104090000D01*
X165072142Y-104318571D01*
X165429285Y-103404285D02*
X165429285Y-103747142D01*
X165429285Y-103575714D02*
X164679285Y-103575714D01*
X164786428Y-103632857D01*
X164857857Y-103690000D01*
X164893571Y-103747142D01*
X164679285Y-103204285D02*
X164679285Y-102832857D01*
X164965000Y-103032857D01*
X164965000Y-102947142D01*
X165000714Y-102890000D01*
X165036428Y-102861428D01*
X165107857Y-102832857D01*
X165286428Y-102832857D01*
X165357857Y-102861428D01*
X165393571Y-102890000D01*
X165429285Y-102947142D01*
X165429285Y-103118571D01*
X165393571Y-103175714D01*
X165357857Y-103204285D01*
X117314285Y-65539285D02*
X117114285Y-65182142D01*
X116971428Y-65539285D02*
X116971428Y-64789285D01*
X117200000Y-64789285D01*
X117257142Y-64825000D01*
X117285714Y-64860714D01*
X117314285Y-64932142D01*
X117314285Y-65039285D01*
X117285714Y-65110714D01*
X117257142Y-65146428D01*
X117200000Y-65182142D01*
X116971428Y-65182142D01*
X117885714Y-65539285D02*
X117542857Y-65539285D01*
X117714285Y-65539285D02*
X117714285Y-64789285D01*
X117657142Y-64896428D01*
X117600000Y-64967857D01*
X117542857Y-65003571D01*
X118400000Y-65039285D02*
X118400000Y-65539285D01*
X118257142Y-64753571D02*
X118114285Y-65289285D01*
X118485714Y-65289285D01*
X136942857Y-60289285D02*
X136942857Y-60896428D01*
X136971428Y-60967857D01*
X137000000Y-61003571D01*
X137057142Y-61039285D01*
X137171428Y-61039285D01*
X137228571Y-61003571D01*
X137257142Y-60967857D01*
X137285714Y-60896428D01*
X137285714Y-60289285D01*
X137885714Y-61039285D02*
X137542857Y-61039285D01*
X137714285Y-61039285D02*
X137714285Y-60289285D01*
X137657142Y-60396428D01*
X137600000Y-60467857D01*
X137542857Y-60503571D01*
X130042857Y-51264285D02*
X130042857Y-51871428D01*
X130071428Y-51942857D01*
X130100000Y-51978571D01*
X130157142Y-52014285D01*
X130271428Y-52014285D01*
X130328571Y-51978571D01*
X130357142Y-51942857D01*
X130385714Y-51871428D01*
X130385714Y-51264285D01*
X130957142Y-51264285D02*
X130671428Y-51264285D01*
X130642857Y-51621428D01*
X130671428Y-51585714D01*
X130728571Y-51550000D01*
X130871428Y-51550000D01*
X130928571Y-51585714D01*
X130957142Y-51621428D01*
X130985714Y-51692857D01*
X130985714Y-51871428D01*
X130957142Y-51942857D01*
X130928571Y-51978571D01*
X130871428Y-52014285D01*
X130728571Y-52014285D01*
X130671428Y-51978571D01*
X130642857Y-51942857D01*
X162852857Y-91249285D02*
X162852857Y-91856428D01*
X162881428Y-91927857D01*
X162910000Y-91963571D01*
X162967142Y-91999285D01*
X163081428Y-91999285D01*
X163138571Y-91963571D01*
X163167142Y-91927857D01*
X163195714Y-91856428D01*
X163195714Y-91249285D01*
X163424285Y-91249285D02*
X163824285Y-91249285D01*
X163567142Y-91999285D01*
X152624285Y-76247642D02*
X152624285Y-76604785D01*
X152424285Y-75854785D02*
X152624285Y-76247642D01*
X152824285Y-75854785D01*
X153338571Y-76604785D02*
X152995714Y-76604785D01*
X153167142Y-76604785D02*
X153167142Y-75854785D01*
X153110000Y-75961928D01*
X153052857Y-76033357D01*
X152995714Y-76069071D01*
X152474285Y-96502142D02*
X152474285Y-96859285D01*
X152274285Y-96109285D02*
X152474285Y-96502142D01*
X152674285Y-96109285D01*
X152845714Y-96180714D02*
X152874285Y-96145000D01*
X152931428Y-96109285D01*
X153074285Y-96109285D01*
X153131428Y-96145000D01*
X153160000Y-96180714D01*
X153188571Y-96252142D01*
X153188571Y-96323571D01*
X153160000Y-96430714D01*
X152817142Y-96859285D01*
X153188571Y-96859285D01*
X180250000Y-99489285D02*
X180250000Y-100025000D01*
X180221428Y-100132142D01*
X180164285Y-100203571D01*
X180078571Y-100239285D01*
X180021428Y-100239285D01*
X180792857Y-99739285D02*
X180792857Y-100239285D01*
X180650000Y-99453571D02*
X180507142Y-99989285D01*
X180878571Y-99989285D01*
X114417857Y-83585714D02*
X114453571Y-83614285D01*
X114489285Y-83700000D01*
X114489285Y-83757142D01*
X114453571Y-83842857D01*
X114382142Y-83900000D01*
X114310714Y-83928571D01*
X114167857Y-83957142D01*
X114060714Y-83957142D01*
X113917857Y-83928571D01*
X113846428Y-83900000D01*
X113775000Y-83842857D01*
X113739285Y-83757142D01*
X113739285Y-83700000D01*
X113775000Y-83614285D01*
X113810714Y-83585714D01*
X113989285Y-83071428D02*
X114489285Y-83071428D01*
X113703571Y-83214285D02*
X114239285Y-83357142D01*
X114239285Y-82985714D01*
X114060714Y-82671428D02*
X114025000Y-82728571D01*
X113989285Y-82757142D01*
X113917857Y-82785714D01*
X113882142Y-82785714D01*
X113810714Y-82757142D01*
X113775000Y-82728571D01*
X113739285Y-82671428D01*
X113739285Y-82557142D01*
X113775000Y-82500000D01*
X113810714Y-82471428D01*
X113882142Y-82442857D01*
X113917857Y-82442857D01*
X113989285Y-82471428D01*
X114025000Y-82500000D01*
X114060714Y-82557142D01*
X114060714Y-82671428D01*
X114096428Y-82728571D01*
X114132142Y-82757142D01*
X114203571Y-82785714D01*
X114346428Y-82785714D01*
X114417857Y-82757142D01*
X114453571Y-82728571D01*
X114489285Y-82671428D01*
X114489285Y-82557142D01*
X114453571Y-82500000D01*
X114417857Y-82471428D01*
X114346428Y-82442857D01*
X114203571Y-82442857D01*
X114132142Y-82471428D01*
X114096428Y-82500000D01*
X114060714Y-82557142D01*
X136267857Y-97185714D02*
X136303571Y-97214285D01*
X136339285Y-97300000D01*
X136339285Y-97357142D01*
X136303571Y-97442857D01*
X136232142Y-97500000D01*
X136160714Y-97528571D01*
X136017857Y-97557142D01*
X135910714Y-97557142D01*
X135767857Y-97528571D01*
X135696428Y-97500000D01*
X135625000Y-97442857D01*
X135589285Y-97357142D01*
X135589285Y-97300000D01*
X135625000Y-97214285D01*
X135660714Y-97185714D01*
X135839285Y-96671428D02*
X136339285Y-96671428D01*
X135553571Y-96814285D02*
X136089285Y-96957142D01*
X136089285Y-96585714D01*
X136339285Y-96328571D02*
X136339285Y-96214285D01*
X136303571Y-96157142D01*
X136267857Y-96128571D01*
X136160714Y-96071428D01*
X136017857Y-96042857D01*
X135732142Y-96042857D01*
X135660714Y-96071428D01*
X135625000Y-96100000D01*
X135589285Y-96157142D01*
X135589285Y-96271428D01*
X135625000Y-96328571D01*
X135660714Y-96357142D01*
X135732142Y-96385714D01*
X135910714Y-96385714D01*
X135982142Y-96357142D01*
X136017857Y-96328571D01*
X136053571Y-96271428D01*
X136053571Y-96157142D01*
X136017857Y-96100000D01*
X135982142Y-96071428D01*
X135910714Y-96042857D01*
X141424285Y-87357857D02*
X141395714Y-87393571D01*
X141310000Y-87429285D01*
X141252857Y-87429285D01*
X141167142Y-87393571D01*
X141110000Y-87322142D01*
X141081428Y-87250714D01*
X141052857Y-87107857D01*
X141052857Y-87000714D01*
X141081428Y-86857857D01*
X141110000Y-86786428D01*
X141167142Y-86715000D01*
X141252857Y-86679285D01*
X141310000Y-86679285D01*
X141395714Y-86715000D01*
X141424285Y-86750714D01*
X141967142Y-86679285D02*
X141681428Y-86679285D01*
X141652857Y-87036428D01*
X141681428Y-87000714D01*
X141738571Y-86965000D01*
X141881428Y-86965000D01*
X141938571Y-87000714D01*
X141967142Y-87036428D01*
X141995714Y-87107857D01*
X141995714Y-87286428D01*
X141967142Y-87357857D01*
X141938571Y-87393571D01*
X141881428Y-87429285D01*
X141738571Y-87429285D01*
X141681428Y-87393571D01*
X141652857Y-87357857D01*
X142367142Y-86679285D02*
X142424285Y-86679285D01*
X142481428Y-86715000D01*
X142510000Y-86750714D01*
X142538571Y-86822142D01*
X142567142Y-86965000D01*
X142567142Y-87143571D01*
X142538571Y-87286428D01*
X142510000Y-87357857D01*
X142481428Y-87393571D01*
X142424285Y-87429285D01*
X142367142Y-87429285D01*
X142310000Y-87393571D01*
X142281428Y-87357857D01*
X142252857Y-87286428D01*
X142224285Y-87143571D01*
X142224285Y-86965000D01*
X142252857Y-86822142D01*
X142281428Y-86750714D01*
X142310000Y-86715000D01*
X142367142Y-86679285D01*
X137217857Y-97185714D02*
X137253571Y-97214285D01*
X137289285Y-97300000D01*
X137289285Y-97357142D01*
X137253571Y-97442857D01*
X137182142Y-97500000D01*
X137110714Y-97528571D01*
X136967857Y-97557142D01*
X136860714Y-97557142D01*
X136717857Y-97528571D01*
X136646428Y-97500000D01*
X136575000Y-97442857D01*
X136539285Y-97357142D01*
X136539285Y-97300000D01*
X136575000Y-97214285D01*
X136610714Y-97185714D01*
X136539285Y-96642857D02*
X136539285Y-96928571D01*
X136896428Y-96957142D01*
X136860714Y-96928571D01*
X136825000Y-96871428D01*
X136825000Y-96728571D01*
X136860714Y-96671428D01*
X136896428Y-96642857D01*
X136967857Y-96614285D01*
X137146428Y-96614285D01*
X137217857Y-96642857D01*
X137253571Y-96671428D01*
X137289285Y-96728571D01*
X137289285Y-96871428D01*
X137253571Y-96928571D01*
X137217857Y-96957142D01*
X137289285Y-96042857D02*
X137289285Y-96385714D01*
X137289285Y-96214285D02*
X136539285Y-96214285D01*
X136646428Y-96271428D01*
X136717857Y-96328571D01*
X136753571Y-96385714D01*
X138217857Y-97185714D02*
X138253571Y-97214285D01*
X138289285Y-97300000D01*
X138289285Y-97357142D01*
X138253571Y-97442857D01*
X138182142Y-97500000D01*
X138110714Y-97528571D01*
X137967857Y-97557142D01*
X137860714Y-97557142D01*
X137717857Y-97528571D01*
X137646428Y-97500000D01*
X137575000Y-97442857D01*
X137539285Y-97357142D01*
X137539285Y-97300000D01*
X137575000Y-97214285D01*
X137610714Y-97185714D01*
X137539285Y-96642857D02*
X137539285Y-96928571D01*
X137896428Y-96957142D01*
X137860714Y-96928571D01*
X137825000Y-96871428D01*
X137825000Y-96728571D01*
X137860714Y-96671428D01*
X137896428Y-96642857D01*
X137967857Y-96614285D01*
X138146428Y-96614285D01*
X138217857Y-96642857D01*
X138253571Y-96671428D01*
X138289285Y-96728571D01*
X138289285Y-96871428D01*
X138253571Y-96928571D01*
X138217857Y-96957142D01*
X137610714Y-96385714D02*
X137575000Y-96357142D01*
X137539285Y-96300000D01*
X137539285Y-96157142D01*
X137575000Y-96100000D01*
X137610714Y-96071428D01*
X137682142Y-96042857D01*
X137753571Y-96042857D01*
X137860714Y-96071428D01*
X138289285Y-96414285D01*
X138289285Y-96042857D01*
X129217857Y-93665714D02*
X129253571Y-93694285D01*
X129289285Y-93780000D01*
X129289285Y-93837142D01*
X129253571Y-93922857D01*
X129182142Y-93980000D01*
X129110714Y-94008571D01*
X128967857Y-94037142D01*
X128860714Y-94037142D01*
X128717857Y-94008571D01*
X128646428Y-93980000D01*
X128575000Y-93922857D01*
X128539285Y-93837142D01*
X128539285Y-93780000D01*
X128575000Y-93694285D01*
X128610714Y-93665714D01*
X128539285Y-93122857D02*
X128539285Y-93408571D01*
X128896428Y-93437142D01*
X128860714Y-93408571D01*
X128825000Y-93351428D01*
X128825000Y-93208571D01*
X128860714Y-93151428D01*
X128896428Y-93122857D01*
X128967857Y-93094285D01*
X129146428Y-93094285D01*
X129217857Y-93122857D01*
X129253571Y-93151428D01*
X129289285Y-93208571D01*
X129289285Y-93351428D01*
X129253571Y-93408571D01*
X129217857Y-93437142D01*
X128539285Y-92894285D02*
X128539285Y-92522857D01*
X128825000Y-92722857D01*
X128825000Y-92637142D01*
X128860714Y-92580000D01*
X128896428Y-92551428D01*
X128967857Y-92522857D01*
X129146428Y-92522857D01*
X129217857Y-92551428D01*
X129253571Y-92580000D01*
X129289285Y-92637142D01*
X129289285Y-92808571D01*
X129253571Y-92865714D01*
X129217857Y-92894285D01*
X130267857Y-93535714D02*
X130303571Y-93564285D01*
X130339285Y-93650000D01*
X130339285Y-93707142D01*
X130303571Y-93792857D01*
X130232142Y-93850000D01*
X130160714Y-93878571D01*
X130017857Y-93907142D01*
X129910714Y-93907142D01*
X129767857Y-93878571D01*
X129696428Y-93850000D01*
X129625000Y-93792857D01*
X129589285Y-93707142D01*
X129589285Y-93650000D01*
X129625000Y-93564285D01*
X129660714Y-93535714D01*
X129589285Y-92992857D02*
X129589285Y-93278571D01*
X129946428Y-93307142D01*
X129910714Y-93278571D01*
X129875000Y-93221428D01*
X129875000Y-93078571D01*
X129910714Y-93021428D01*
X129946428Y-92992857D01*
X130017857Y-92964285D01*
X130196428Y-92964285D01*
X130267857Y-92992857D01*
X130303571Y-93021428D01*
X130339285Y-93078571D01*
X130339285Y-93221428D01*
X130303571Y-93278571D01*
X130267857Y-93307142D01*
X129839285Y-92450000D02*
X130339285Y-92450000D01*
X129553571Y-92592857D02*
X130089285Y-92735714D01*
X130089285Y-92364285D01*
X140897857Y-92135714D02*
X140933571Y-92164285D01*
X140969285Y-92250000D01*
X140969285Y-92307142D01*
X140933571Y-92392857D01*
X140862142Y-92450000D01*
X140790714Y-92478571D01*
X140647857Y-92507142D01*
X140540714Y-92507142D01*
X140397857Y-92478571D01*
X140326428Y-92450000D01*
X140255000Y-92392857D01*
X140219285Y-92307142D01*
X140219285Y-92250000D01*
X140255000Y-92164285D01*
X140290714Y-92135714D01*
X140219285Y-91592857D02*
X140219285Y-91878571D01*
X140576428Y-91907142D01*
X140540714Y-91878571D01*
X140505000Y-91821428D01*
X140505000Y-91678571D01*
X140540714Y-91621428D01*
X140576428Y-91592857D01*
X140647857Y-91564285D01*
X140826428Y-91564285D01*
X140897857Y-91592857D01*
X140933571Y-91621428D01*
X140969285Y-91678571D01*
X140969285Y-91821428D01*
X140933571Y-91878571D01*
X140897857Y-91907142D01*
X140219285Y-91021428D02*
X140219285Y-91307142D01*
X140576428Y-91335714D01*
X140540714Y-91307142D01*
X140505000Y-91250000D01*
X140505000Y-91107142D01*
X140540714Y-91050000D01*
X140576428Y-91021428D01*
X140647857Y-90992857D01*
X140826428Y-90992857D01*
X140897857Y-91021428D01*
X140933571Y-91050000D01*
X140969285Y-91107142D01*
X140969285Y-91250000D01*
X140933571Y-91307142D01*
X140897857Y-91335714D01*
X141454285Y-86347857D02*
X141425714Y-86383571D01*
X141340000Y-86419285D01*
X141282857Y-86419285D01*
X141197142Y-86383571D01*
X141140000Y-86312142D01*
X141111428Y-86240714D01*
X141082857Y-86097857D01*
X141082857Y-85990714D01*
X141111428Y-85847857D01*
X141140000Y-85776428D01*
X141197142Y-85705000D01*
X141282857Y-85669285D01*
X141340000Y-85669285D01*
X141425714Y-85705000D01*
X141454285Y-85740714D01*
X141997142Y-85669285D02*
X141711428Y-85669285D01*
X141682857Y-86026428D01*
X141711428Y-85990714D01*
X141768571Y-85955000D01*
X141911428Y-85955000D01*
X141968571Y-85990714D01*
X141997142Y-86026428D01*
X142025714Y-86097857D01*
X142025714Y-86276428D01*
X141997142Y-86347857D01*
X141968571Y-86383571D01*
X141911428Y-86419285D01*
X141768571Y-86419285D01*
X141711428Y-86383571D01*
X141682857Y-86347857D01*
X142540000Y-85669285D02*
X142425714Y-85669285D01*
X142368571Y-85705000D01*
X142340000Y-85740714D01*
X142282857Y-85847857D01*
X142254285Y-85990714D01*
X142254285Y-86276428D01*
X142282857Y-86347857D01*
X142311428Y-86383571D01*
X142368571Y-86419285D01*
X142482857Y-86419285D01*
X142540000Y-86383571D01*
X142568571Y-86347857D01*
X142597142Y-86276428D01*
X142597142Y-86097857D01*
X142568571Y-86026428D01*
X142540000Y-85990714D01*
X142482857Y-85955000D01*
X142368571Y-85955000D01*
X142311428Y-85990714D01*
X142282857Y-86026428D01*
X142254285Y-86097857D01*
X134017857Y-84610714D02*
X134053571Y-84639285D01*
X134089285Y-84725000D01*
X134089285Y-84782142D01*
X134053571Y-84867857D01*
X133982142Y-84925000D01*
X133910714Y-84953571D01*
X133767857Y-84982142D01*
X133660714Y-84982142D01*
X133517857Y-84953571D01*
X133446428Y-84925000D01*
X133375000Y-84867857D01*
X133339285Y-84782142D01*
X133339285Y-84725000D01*
X133375000Y-84639285D01*
X133410714Y-84610714D01*
X133339285Y-84067857D02*
X133339285Y-84353571D01*
X133696428Y-84382142D01*
X133660714Y-84353571D01*
X133625000Y-84296428D01*
X133625000Y-84153571D01*
X133660714Y-84096428D01*
X133696428Y-84067857D01*
X133767857Y-84039285D01*
X133946428Y-84039285D01*
X134017857Y-84067857D01*
X134053571Y-84096428D01*
X134089285Y-84153571D01*
X134089285Y-84296428D01*
X134053571Y-84353571D01*
X134017857Y-84382142D01*
X133339285Y-83839285D02*
X133339285Y-83439285D01*
X134089285Y-83696428D01*
X131367857Y-93685714D02*
X131403571Y-93714285D01*
X131439285Y-93800000D01*
X131439285Y-93857142D01*
X131403571Y-93942857D01*
X131332142Y-94000000D01*
X131260714Y-94028571D01*
X131117857Y-94057142D01*
X131010714Y-94057142D01*
X130867857Y-94028571D01*
X130796428Y-94000000D01*
X130725000Y-93942857D01*
X130689285Y-93857142D01*
X130689285Y-93800000D01*
X130725000Y-93714285D01*
X130760714Y-93685714D01*
X130689285Y-93142857D02*
X130689285Y-93428571D01*
X131046428Y-93457142D01*
X131010714Y-93428571D01*
X130975000Y-93371428D01*
X130975000Y-93228571D01*
X131010714Y-93171428D01*
X131046428Y-93142857D01*
X131117857Y-93114285D01*
X131296428Y-93114285D01*
X131367857Y-93142857D01*
X131403571Y-93171428D01*
X131439285Y-93228571D01*
X131439285Y-93371428D01*
X131403571Y-93428571D01*
X131367857Y-93457142D01*
X131010714Y-92771428D02*
X130975000Y-92828571D01*
X130939285Y-92857142D01*
X130867857Y-92885714D01*
X130832142Y-92885714D01*
X130760714Y-92857142D01*
X130725000Y-92828571D01*
X130689285Y-92771428D01*
X130689285Y-92657142D01*
X130725000Y-92600000D01*
X130760714Y-92571428D01*
X130832142Y-92542857D01*
X130867857Y-92542857D01*
X130939285Y-92571428D01*
X130975000Y-92600000D01*
X131010714Y-92657142D01*
X131010714Y-92771428D01*
X131046428Y-92828571D01*
X131082142Y-92857142D01*
X131153571Y-92885714D01*
X131296428Y-92885714D01*
X131367857Y-92857142D01*
X131403571Y-92828571D01*
X131439285Y-92771428D01*
X131439285Y-92657142D01*
X131403571Y-92600000D01*
X131367857Y-92571428D01*
X131296428Y-92542857D01*
X131153571Y-92542857D01*
X131082142Y-92571428D01*
X131046428Y-92600000D01*
X131010714Y-92657142D01*
X129067857Y-86385714D02*
X129103571Y-86414285D01*
X129139285Y-86500000D01*
X129139285Y-86557142D01*
X129103571Y-86642857D01*
X129032142Y-86700000D01*
X128960714Y-86728571D01*
X128817857Y-86757142D01*
X128710714Y-86757142D01*
X128567857Y-86728571D01*
X128496428Y-86700000D01*
X128425000Y-86642857D01*
X128389285Y-86557142D01*
X128389285Y-86500000D01*
X128425000Y-86414285D01*
X128460714Y-86385714D01*
X128389285Y-85842857D02*
X128389285Y-86128571D01*
X128746428Y-86157142D01*
X128710714Y-86128571D01*
X128675000Y-86071428D01*
X128675000Y-85928571D01*
X128710714Y-85871428D01*
X128746428Y-85842857D01*
X128817857Y-85814285D01*
X128996428Y-85814285D01*
X129067857Y-85842857D01*
X129103571Y-85871428D01*
X129139285Y-85928571D01*
X129139285Y-86071428D01*
X129103571Y-86128571D01*
X129067857Y-86157142D01*
X129139285Y-85528571D02*
X129139285Y-85414285D01*
X129103571Y-85357142D01*
X129067857Y-85328571D01*
X128960714Y-85271428D01*
X128817857Y-85242857D01*
X128532142Y-85242857D01*
X128460714Y-85271428D01*
X128425000Y-85300000D01*
X128389285Y-85357142D01*
X128389285Y-85471428D01*
X128425000Y-85528571D01*
X128460714Y-85557142D01*
X128532142Y-85585714D01*
X128710714Y-85585714D01*
X128782142Y-85557142D01*
X128817857Y-85528571D01*
X128853571Y-85471428D01*
X128853571Y-85357142D01*
X128817857Y-85300000D01*
X128782142Y-85271428D01*
X128710714Y-85242857D01*
X128379285Y-90217857D02*
X128350714Y-90253571D01*
X128265000Y-90289285D01*
X128207857Y-90289285D01*
X128122142Y-90253571D01*
X128065000Y-90182142D01*
X128036428Y-90110714D01*
X128007857Y-89967857D01*
X128007857Y-89860714D01*
X128036428Y-89717857D01*
X128065000Y-89646428D01*
X128122142Y-89575000D01*
X128207857Y-89539285D01*
X128265000Y-89539285D01*
X128350714Y-89575000D01*
X128379285Y-89610714D01*
X128893571Y-89539285D02*
X128779285Y-89539285D01*
X128722142Y-89575000D01*
X128693571Y-89610714D01*
X128636428Y-89717857D01*
X128607857Y-89860714D01*
X128607857Y-90146428D01*
X128636428Y-90217857D01*
X128665000Y-90253571D01*
X128722142Y-90289285D01*
X128836428Y-90289285D01*
X128893571Y-90253571D01*
X128922142Y-90217857D01*
X128950714Y-90146428D01*
X128950714Y-89967857D01*
X128922142Y-89896428D01*
X128893571Y-89860714D01*
X128836428Y-89825000D01*
X128722142Y-89825000D01*
X128665000Y-89860714D01*
X128636428Y-89896428D01*
X128607857Y-89967857D01*
X129322142Y-89539285D02*
X129379285Y-89539285D01*
X129436428Y-89575000D01*
X129465000Y-89610714D01*
X129493571Y-89682142D01*
X129522142Y-89825000D01*
X129522142Y-90003571D01*
X129493571Y-90146428D01*
X129465000Y-90217857D01*
X129436428Y-90253571D01*
X129379285Y-90289285D01*
X129322142Y-90289285D01*
X129265000Y-90253571D01*
X129236428Y-90217857D01*
X129207857Y-90146428D01*
X129179285Y-90003571D01*
X129179285Y-89825000D01*
X129207857Y-89682142D01*
X129236428Y-89610714D01*
X129265000Y-89575000D01*
X129322142Y-89539285D01*
D13*
X130278571Y-84853571D02*
X130254761Y-84877380D01*
X130183333Y-84901190D01*
X130135714Y-84901190D01*
X130064285Y-84877380D01*
X130016666Y-84829761D01*
X129992857Y-84782142D01*
X129969047Y-84686904D01*
X129969047Y-84615476D01*
X129992857Y-84520238D01*
X130016666Y-84472619D01*
X130064285Y-84425000D01*
X130135714Y-84401190D01*
X130183333Y-84401190D01*
X130254761Y-84425000D01*
X130278571Y-84448809D01*
X130707142Y-84401190D02*
X130611904Y-84401190D01*
X130564285Y-84425000D01*
X130540476Y-84448809D01*
X130492857Y-84520238D01*
X130469047Y-84615476D01*
X130469047Y-84805952D01*
X130492857Y-84853571D01*
X130516666Y-84877380D01*
X130564285Y-84901190D01*
X130659523Y-84901190D01*
X130707142Y-84877380D01*
X130730952Y-84853571D01*
X130754761Y-84805952D01*
X130754761Y-84686904D01*
X130730952Y-84639285D01*
X130707142Y-84615476D01*
X130659523Y-84591666D01*
X130564285Y-84591666D01*
X130516666Y-84615476D01*
X130492857Y-84639285D01*
X130469047Y-84686904D01*
X131230952Y-84901190D02*
X130945238Y-84901190D01*
X131088095Y-84901190D02*
X131088095Y-84401190D01*
X131040476Y-84472619D01*
X130992857Y-84520238D01*
X130945238Y-84544047D01*
D11*
X132117857Y-97185714D02*
X132153571Y-97214285D01*
X132189285Y-97300000D01*
X132189285Y-97357142D01*
X132153571Y-97442857D01*
X132082142Y-97500000D01*
X132010714Y-97528571D01*
X131867857Y-97557142D01*
X131760714Y-97557142D01*
X131617857Y-97528571D01*
X131546428Y-97500000D01*
X131475000Y-97442857D01*
X131439285Y-97357142D01*
X131439285Y-97300000D01*
X131475000Y-97214285D01*
X131510714Y-97185714D01*
X131439285Y-96671428D02*
X131439285Y-96785714D01*
X131475000Y-96842857D01*
X131510714Y-96871428D01*
X131617857Y-96928571D01*
X131760714Y-96957142D01*
X132046428Y-96957142D01*
X132117857Y-96928571D01*
X132153571Y-96900000D01*
X132189285Y-96842857D01*
X132189285Y-96728571D01*
X132153571Y-96671428D01*
X132117857Y-96642857D01*
X132046428Y-96614285D01*
X131867857Y-96614285D01*
X131796428Y-96642857D01*
X131760714Y-96671428D01*
X131725000Y-96728571D01*
X131725000Y-96842857D01*
X131760714Y-96900000D01*
X131796428Y-96928571D01*
X131867857Y-96957142D01*
X131689285Y-96100000D02*
X132189285Y-96100000D01*
X131403571Y-96242857D02*
X131939285Y-96385714D01*
X131939285Y-96014285D01*
X131067857Y-97235714D02*
X131103571Y-97264285D01*
X131139285Y-97350000D01*
X131139285Y-97407142D01*
X131103571Y-97492857D01*
X131032142Y-97550000D01*
X130960714Y-97578571D01*
X130817857Y-97607142D01*
X130710714Y-97607142D01*
X130567857Y-97578571D01*
X130496428Y-97550000D01*
X130425000Y-97492857D01*
X130389285Y-97407142D01*
X130389285Y-97350000D01*
X130425000Y-97264285D01*
X130460714Y-97235714D01*
X130389285Y-96721428D02*
X130389285Y-96835714D01*
X130425000Y-96892857D01*
X130460714Y-96921428D01*
X130567857Y-96978571D01*
X130710714Y-97007142D01*
X130996428Y-97007142D01*
X131067857Y-96978571D01*
X131103571Y-96950000D01*
X131139285Y-96892857D01*
X131139285Y-96778571D01*
X131103571Y-96721428D01*
X131067857Y-96692857D01*
X130996428Y-96664285D01*
X130817857Y-96664285D01*
X130746428Y-96692857D01*
X130710714Y-96721428D01*
X130675000Y-96778571D01*
X130675000Y-96892857D01*
X130710714Y-96950000D01*
X130746428Y-96978571D01*
X130817857Y-97007142D01*
X130389285Y-96121428D02*
X130389285Y-96407142D01*
X130746428Y-96435714D01*
X130710714Y-96407142D01*
X130675000Y-96350000D01*
X130675000Y-96207142D01*
X130710714Y-96150000D01*
X130746428Y-96121428D01*
X130817857Y-96092857D01*
X130996428Y-96092857D01*
X131067857Y-96121428D01*
X131103571Y-96150000D01*
X131139285Y-96207142D01*
X131139285Y-96350000D01*
X131103571Y-96407142D01*
X131067857Y-96435714D01*
X129867857Y-97185714D02*
X129903571Y-97214285D01*
X129939285Y-97300000D01*
X129939285Y-97357142D01*
X129903571Y-97442857D01*
X129832142Y-97500000D01*
X129760714Y-97528571D01*
X129617857Y-97557142D01*
X129510714Y-97557142D01*
X129367857Y-97528571D01*
X129296428Y-97500000D01*
X129225000Y-97442857D01*
X129189285Y-97357142D01*
X129189285Y-97300000D01*
X129225000Y-97214285D01*
X129260714Y-97185714D01*
X129189285Y-96671428D02*
X129189285Y-96785714D01*
X129225000Y-96842857D01*
X129260714Y-96871428D01*
X129367857Y-96928571D01*
X129510714Y-96957142D01*
X129796428Y-96957142D01*
X129867857Y-96928571D01*
X129903571Y-96900000D01*
X129939285Y-96842857D01*
X129939285Y-96728571D01*
X129903571Y-96671428D01*
X129867857Y-96642857D01*
X129796428Y-96614285D01*
X129617857Y-96614285D01*
X129546428Y-96642857D01*
X129510714Y-96671428D01*
X129475000Y-96728571D01*
X129475000Y-96842857D01*
X129510714Y-96900000D01*
X129546428Y-96928571D01*
X129617857Y-96957142D01*
X129189285Y-96100000D02*
X129189285Y-96214285D01*
X129225000Y-96271428D01*
X129260714Y-96300000D01*
X129367857Y-96357142D01*
X129510714Y-96385714D01*
X129796428Y-96385714D01*
X129867857Y-96357142D01*
X129903571Y-96328571D01*
X129939285Y-96271428D01*
X129939285Y-96157142D01*
X129903571Y-96100000D01*
X129867857Y-96071428D01*
X129796428Y-96042857D01*
X129617857Y-96042857D01*
X129546428Y-96071428D01*
X129510714Y-96100000D01*
X129475000Y-96157142D01*
X129475000Y-96271428D01*
X129510714Y-96328571D01*
X129546428Y-96357142D01*
X129617857Y-96385714D01*
X183650000Y-60839285D02*
X183650000Y-61375000D01*
X183621428Y-61482142D01*
X183564285Y-61553571D01*
X183478571Y-61589285D01*
X183421428Y-61589285D01*
X183878571Y-60839285D02*
X184278571Y-60839285D01*
X184021428Y-61589285D01*
X139289285Y-97235714D02*
X138932142Y-97435714D01*
X139289285Y-97578571D02*
X138539285Y-97578571D01*
X138539285Y-97350000D01*
X138575000Y-97292857D01*
X138610714Y-97264285D01*
X138682142Y-97235714D01*
X138789285Y-97235714D01*
X138860714Y-97264285D01*
X138896428Y-97292857D01*
X138932142Y-97350000D01*
X138932142Y-97578571D01*
X139289285Y-96664285D02*
X139289285Y-97007142D01*
X139289285Y-96835714D02*
X138539285Y-96835714D01*
X138646428Y-96892857D01*
X138717857Y-96950000D01*
X138753571Y-97007142D01*
X139289285Y-96378571D02*
X139289285Y-96264285D01*
X139253571Y-96207142D01*
X139217857Y-96178571D01*
X139110714Y-96121428D01*
X138967857Y-96092857D01*
X138682142Y-96092857D01*
X138610714Y-96121428D01*
X138575000Y-96150000D01*
X138539285Y-96207142D01*
X138539285Y-96321428D01*
X138575000Y-96378571D01*
X138610714Y-96407142D01*
X138682142Y-96435714D01*
X138860714Y-96435714D01*
X138932142Y-96407142D01*
X138967857Y-96378571D01*
X139003571Y-96321428D01*
X139003571Y-96207142D01*
X138967857Y-96150000D01*
X138932142Y-96121428D01*
X138860714Y-96092857D01*
X135289285Y-97185714D02*
X134932142Y-97385714D01*
X135289285Y-97528571D02*
X134539285Y-97528571D01*
X134539285Y-97300000D01*
X134575000Y-97242857D01*
X134610714Y-97214285D01*
X134682142Y-97185714D01*
X134789285Y-97185714D01*
X134860714Y-97214285D01*
X134896428Y-97242857D01*
X134932142Y-97300000D01*
X134932142Y-97528571D01*
X134610714Y-96957142D02*
X134575000Y-96928571D01*
X134539285Y-96871428D01*
X134539285Y-96728571D01*
X134575000Y-96671428D01*
X134610714Y-96642857D01*
X134682142Y-96614285D01*
X134753571Y-96614285D01*
X134860714Y-96642857D01*
X135289285Y-96985714D01*
X135289285Y-96614285D01*
X134610714Y-96385714D02*
X134575000Y-96357142D01*
X134539285Y-96300000D01*
X134539285Y-96157142D01*
X134575000Y-96100000D01*
X134610714Y-96071428D01*
X134682142Y-96042857D01*
X134753571Y-96042857D01*
X134860714Y-96071428D01*
X135289285Y-96414285D01*
X135289285Y-96042857D01*
X140914285Y-93332142D02*
X140914285Y-93689285D01*
X140714285Y-92939285D02*
X140914285Y-93332142D01*
X141114285Y-92939285D01*
X141257142Y-92939285D02*
X141628571Y-92939285D01*
X141428571Y-93225000D01*
X141514285Y-93225000D01*
X141571428Y-93260714D01*
X141600000Y-93296428D01*
X141628571Y-93367857D01*
X141628571Y-93546428D01*
X141600000Y-93617857D01*
X141571428Y-93653571D01*
X141514285Y-93689285D01*
X141342857Y-93689285D01*
X141285714Y-93653571D01*
X141257142Y-93617857D01*
X132075000Y-56139285D02*
X131875000Y-55782142D01*
X131732142Y-56139285D02*
X131732142Y-55389285D01*
X131960714Y-55389285D01*
X132017857Y-55425000D01*
X132046428Y-55460714D01*
X132075000Y-55532142D01*
X132075000Y-55639285D01*
X132046428Y-55710714D01*
X132017857Y-55746428D01*
X131960714Y-55782142D01*
X131732142Y-55782142D01*
X132360714Y-56139285D02*
X132475000Y-56139285D01*
X132532142Y-56103571D01*
X132560714Y-56067857D01*
X132617857Y-55960714D01*
X132646428Y-55817857D01*
X132646428Y-55532142D01*
X132617857Y-55460714D01*
X132589285Y-55425000D01*
X132532142Y-55389285D01*
X132417857Y-55389285D01*
X132360714Y-55425000D01*
X132332142Y-55460714D01*
X132303571Y-55532142D01*
X132303571Y-55710714D01*
X132332142Y-55782142D01*
X132360714Y-55817857D01*
X132417857Y-55853571D01*
X132532142Y-55853571D01*
X132589285Y-55817857D01*
X132617857Y-55782142D01*
X132646428Y-55710714D01*
X138339285Y-65967857D02*
X138310714Y-66003571D01*
X138225000Y-66039285D01*
X138167857Y-66039285D01*
X138082142Y-66003571D01*
X138025000Y-65932142D01*
X137996428Y-65860714D01*
X137967857Y-65717857D01*
X137967857Y-65610714D01*
X137996428Y-65467857D01*
X138025000Y-65396428D01*
X138082142Y-65325000D01*
X138167857Y-65289285D01*
X138225000Y-65289285D01*
X138310714Y-65325000D01*
X138339285Y-65360714D01*
X138567857Y-65360714D02*
X138596428Y-65325000D01*
X138653571Y-65289285D01*
X138796428Y-65289285D01*
X138853571Y-65325000D01*
X138882142Y-65360714D01*
X138910714Y-65432142D01*
X138910714Y-65503571D01*
X138882142Y-65610714D01*
X138539285Y-66039285D01*
X138910714Y-66039285D01*
X139482142Y-66039285D02*
X139139285Y-66039285D01*
X139310714Y-66039285D02*
X139310714Y-65289285D01*
X139253571Y-65396428D01*
X139196428Y-65467857D01*
X139139285Y-65503571D01*
X138064285Y-64617857D02*
X138035714Y-64653571D01*
X137950000Y-64689285D01*
X137892857Y-64689285D01*
X137807142Y-64653571D01*
X137750000Y-64582142D01*
X137721428Y-64510714D01*
X137692857Y-64367857D01*
X137692857Y-64260714D01*
X137721428Y-64117857D01*
X137750000Y-64046428D01*
X137807142Y-63975000D01*
X137892857Y-63939285D01*
X137950000Y-63939285D01*
X138035714Y-63975000D01*
X138064285Y-64010714D01*
X138292857Y-64010714D02*
X138321428Y-63975000D01*
X138378571Y-63939285D01*
X138521428Y-63939285D01*
X138578571Y-63975000D01*
X138607142Y-64010714D01*
X138635714Y-64082142D01*
X138635714Y-64153571D01*
X138607142Y-64260714D01*
X138264285Y-64689285D01*
X138635714Y-64689285D01*
X138835714Y-63939285D02*
X139207142Y-63939285D01*
X139007142Y-64225000D01*
X139092857Y-64225000D01*
X139150000Y-64260714D01*
X139178571Y-64296428D01*
X139207142Y-64367857D01*
X139207142Y-64546428D01*
X139178571Y-64617857D01*
X139150000Y-64653571D01*
X139092857Y-64689285D01*
X138921428Y-64689285D01*
X138864285Y-64653571D01*
X138835714Y-64617857D01*
X141151785Y-58592857D02*
X141123214Y-58628571D01*
X141037500Y-58664285D01*
X140980357Y-58664285D01*
X140894642Y-58628571D01*
X140837500Y-58557142D01*
X140808928Y-58485714D01*
X140780357Y-58342857D01*
X140780357Y-58235714D01*
X140808928Y-58092857D01*
X140837500Y-58021428D01*
X140894642Y-57950000D01*
X140980357Y-57914285D01*
X141037500Y-57914285D01*
X141123214Y-57950000D01*
X141151785Y-57985714D01*
X141380357Y-57985714D02*
X141408928Y-57950000D01*
X141466071Y-57914285D01*
X141608928Y-57914285D01*
X141666071Y-57950000D01*
X141694642Y-57985714D01*
X141723214Y-58057142D01*
X141723214Y-58128571D01*
X141694642Y-58235714D01*
X141351785Y-58664285D01*
X141723214Y-58664285D01*
X141923214Y-57914285D02*
X142323214Y-57914285D01*
X142066071Y-58664285D01*
X139192857Y-55235714D02*
X139228571Y-55264285D01*
X139264285Y-55350000D01*
X139264285Y-55407142D01*
X139228571Y-55492857D01*
X139157142Y-55550000D01*
X139085714Y-55578571D01*
X138942857Y-55607142D01*
X138835714Y-55607142D01*
X138692857Y-55578571D01*
X138621428Y-55550000D01*
X138550000Y-55492857D01*
X138514285Y-55407142D01*
X138514285Y-55350000D01*
X138550000Y-55264285D01*
X138585714Y-55235714D01*
X138585714Y-55007142D02*
X138550000Y-54978571D01*
X138514285Y-54921428D01*
X138514285Y-54778571D01*
X138550000Y-54721428D01*
X138585714Y-54692857D01*
X138657142Y-54664285D01*
X138728571Y-54664285D01*
X138835714Y-54692857D01*
X139264285Y-55035714D01*
X139264285Y-54664285D01*
X139264285Y-54378571D02*
X139264285Y-54264285D01*
X139228571Y-54207142D01*
X139192857Y-54178571D01*
X139085714Y-54121428D01*
X138942857Y-54092857D01*
X138657142Y-54092857D01*
X138585714Y-54121428D01*
X138550000Y-54150000D01*
X138514285Y-54207142D01*
X138514285Y-54321428D01*
X138550000Y-54378571D01*
X138585714Y-54407142D01*
X138657142Y-54435714D01*
X138835714Y-54435714D01*
X138907142Y-54407142D01*
X138942857Y-54378571D01*
X138978571Y-54321428D01*
X138978571Y-54207142D01*
X138942857Y-54150000D01*
X138907142Y-54121428D01*
X138835714Y-54092857D01*
D17*
X133389285Y-60117857D02*
X133360714Y-60153571D01*
X133275000Y-60189285D01*
X133217857Y-60189285D01*
X133132142Y-60153571D01*
X133075000Y-60082142D01*
X133046428Y-60010714D01*
X133017857Y-59867857D01*
X133017857Y-59760714D01*
X133046428Y-59617857D01*
X133075000Y-59546428D01*
X133132142Y-59475000D01*
X133217857Y-59439285D01*
X133275000Y-59439285D01*
X133360714Y-59475000D01*
X133389285Y-59510714D01*
X133589285Y-59439285D02*
X133960714Y-59439285D01*
X133760714Y-59725000D01*
X133846428Y-59725000D01*
X133903571Y-59760714D01*
X133932142Y-59796428D01*
X133960714Y-59867857D01*
X133960714Y-60046428D01*
X133932142Y-60117857D01*
X133903571Y-60153571D01*
X133846428Y-60189285D01*
X133675000Y-60189285D01*
X133617857Y-60153571D01*
X133589285Y-60117857D01*
X134332142Y-59439285D02*
X134389285Y-59439285D01*
X134446428Y-59475000D01*
X134475000Y-59510714D01*
X134503571Y-59582142D01*
X134532142Y-59725000D01*
X134532142Y-59903571D01*
X134503571Y-60046428D01*
X134475000Y-60117857D01*
X134446428Y-60153571D01*
X134389285Y-60189285D01*
X134332142Y-60189285D01*
X134275000Y-60153571D01*
X134246428Y-60117857D01*
X134217857Y-60046428D01*
X134189285Y-59903571D01*
X134189285Y-59725000D01*
X134217857Y-59582142D01*
X134246428Y-59510714D01*
X134275000Y-59475000D01*
X134332142Y-59439285D01*
D11*
X142714285Y-97567857D02*
X142685714Y-97603571D01*
X142600000Y-97639285D01*
X142542857Y-97639285D01*
X142457142Y-97603571D01*
X142400000Y-97532142D01*
X142371428Y-97460714D01*
X142342857Y-97317857D01*
X142342857Y-97210714D01*
X142371428Y-97067857D01*
X142400000Y-96996428D01*
X142457142Y-96925000D01*
X142542857Y-96889285D01*
X142600000Y-96889285D01*
X142685714Y-96925000D01*
X142714285Y-96960714D01*
X143228571Y-96889285D02*
X143114285Y-96889285D01*
X143057142Y-96925000D01*
X143028571Y-96960714D01*
X142971428Y-97067857D01*
X142942857Y-97210714D01*
X142942857Y-97496428D01*
X142971428Y-97567857D01*
X143000000Y-97603571D01*
X143057142Y-97639285D01*
X143171428Y-97639285D01*
X143228571Y-97603571D01*
X143257142Y-97567857D01*
X143285714Y-97496428D01*
X143285714Y-97317857D01*
X143257142Y-97246428D01*
X143228571Y-97210714D01*
X143171428Y-97175000D01*
X143057142Y-97175000D01*
X143000000Y-97210714D01*
X142971428Y-97246428D01*
X142942857Y-97317857D01*
X143485714Y-96889285D02*
X143857142Y-96889285D01*
X143657142Y-97175000D01*
X143742857Y-97175000D01*
X143800000Y-97210714D01*
X143828571Y-97246428D01*
X143857142Y-97317857D01*
X143857142Y-97496428D01*
X143828571Y-97567857D01*
X143800000Y-97603571D01*
X143742857Y-97639285D01*
X143571428Y-97639285D01*
X143514285Y-97603571D01*
X143485714Y-97567857D01*
X114014285Y-87489285D02*
X113814285Y-87132142D01*
X113671428Y-87489285D02*
X113671428Y-86739285D01*
X113900000Y-86739285D01*
X113957142Y-86775000D01*
X113985714Y-86810714D01*
X114014285Y-86882142D01*
X114014285Y-86989285D01*
X113985714Y-87060714D01*
X113957142Y-87096428D01*
X113900000Y-87132142D01*
X113671428Y-87132142D01*
X114585714Y-87489285D02*
X114242857Y-87489285D01*
X114414285Y-87489285D02*
X114414285Y-86739285D01*
X114357142Y-86846428D01*
X114300000Y-86917857D01*
X114242857Y-86953571D01*
X115100000Y-86739285D02*
X114985714Y-86739285D01*
X114928571Y-86775000D01*
X114900000Y-86810714D01*
X114842857Y-86917857D01*
X114814285Y-87060714D01*
X114814285Y-87346428D01*
X114842857Y-87417857D01*
X114871428Y-87453571D01*
X114928571Y-87489285D01*
X115042857Y-87489285D01*
X115100000Y-87453571D01*
X115128571Y-87417857D01*
X115157142Y-87346428D01*
X115157142Y-87167857D01*
X115128571Y-87096428D01*
X115100000Y-87060714D01*
X115042857Y-87025000D01*
X114928571Y-87025000D01*
X114871428Y-87060714D01*
X114842857Y-87096428D01*
X114814285Y-87167857D01*
X114064285Y-88589285D02*
X113864285Y-88232142D01*
X113721428Y-88589285D02*
X113721428Y-87839285D01*
X113950000Y-87839285D01*
X114007142Y-87875000D01*
X114035714Y-87910714D01*
X114064285Y-87982142D01*
X114064285Y-88089285D01*
X114035714Y-88160714D01*
X114007142Y-88196428D01*
X113950000Y-88232142D01*
X113721428Y-88232142D01*
X114635714Y-88589285D02*
X114292857Y-88589285D01*
X114464285Y-88589285D02*
X114464285Y-87839285D01*
X114407142Y-87946428D01*
X114350000Y-88017857D01*
X114292857Y-88053571D01*
X114835714Y-87839285D02*
X115235714Y-87839285D01*
X114978571Y-88589285D01*
X143464285Y-94017857D02*
X143435714Y-94053571D01*
X143350000Y-94089285D01*
X143292857Y-94089285D01*
X143207142Y-94053571D01*
X143150000Y-93982142D01*
X143121428Y-93910714D01*
X143092857Y-93767857D01*
X143092857Y-93660714D01*
X143121428Y-93517857D01*
X143150000Y-93446428D01*
X143207142Y-93375000D01*
X143292857Y-93339285D01*
X143350000Y-93339285D01*
X143435714Y-93375000D01*
X143464285Y-93410714D01*
X143978571Y-93339285D02*
X143864285Y-93339285D01*
X143807142Y-93375000D01*
X143778571Y-93410714D01*
X143721428Y-93517857D01*
X143692857Y-93660714D01*
X143692857Y-93946428D01*
X143721428Y-94017857D01*
X143750000Y-94053571D01*
X143807142Y-94089285D01*
X143921428Y-94089285D01*
X143978571Y-94053571D01*
X144007142Y-94017857D01*
X144035714Y-93946428D01*
X144035714Y-93767857D01*
X144007142Y-93696428D01*
X143978571Y-93660714D01*
X143921428Y-93625000D01*
X143807142Y-93625000D01*
X143750000Y-93660714D01*
X143721428Y-93696428D01*
X143692857Y-93767857D01*
X144264285Y-93410714D02*
X144292857Y-93375000D01*
X144350000Y-93339285D01*
X144492857Y-93339285D01*
X144550000Y-93375000D01*
X144578571Y-93410714D01*
X144607142Y-93482142D01*
X144607142Y-93553571D01*
X144578571Y-93660714D01*
X144235714Y-94089285D01*
X144607142Y-94089285D01*
X154229285Y-80567857D02*
X154200714Y-80603571D01*
X154115000Y-80639285D01*
X154057857Y-80639285D01*
X153972142Y-80603571D01*
X153915000Y-80532142D01*
X153886428Y-80460714D01*
X153857857Y-80317857D01*
X153857857Y-80210714D01*
X153886428Y-80067857D01*
X153915000Y-79996428D01*
X153972142Y-79925000D01*
X154057857Y-79889285D01*
X154115000Y-79889285D01*
X154200714Y-79925000D01*
X154229285Y-79960714D01*
X154457857Y-79960714D02*
X154486428Y-79925000D01*
X154543571Y-79889285D01*
X154686428Y-79889285D01*
X154743571Y-79925000D01*
X154772142Y-79960714D01*
X154800714Y-80032142D01*
X154800714Y-80103571D01*
X154772142Y-80210714D01*
X154429285Y-80639285D01*
X154800714Y-80639285D01*
X155343571Y-79889285D02*
X155057857Y-79889285D01*
X155029285Y-80246428D01*
X155057857Y-80210714D01*
X155115000Y-80175000D01*
X155257857Y-80175000D01*
X155315000Y-80210714D01*
X155343571Y-80246428D01*
X155372142Y-80317857D01*
X155372142Y-80496428D01*
X155343571Y-80567857D01*
X155315000Y-80603571D01*
X155257857Y-80639285D01*
X155115000Y-80639285D01*
X155057857Y-80603571D01*
X155029285Y-80567857D01*
X155387857Y-76705714D02*
X155423571Y-76734285D01*
X155459285Y-76820000D01*
X155459285Y-76877142D01*
X155423571Y-76962857D01*
X155352142Y-77020000D01*
X155280714Y-77048571D01*
X155137857Y-77077142D01*
X155030714Y-77077142D01*
X154887857Y-77048571D01*
X154816428Y-77020000D01*
X154745000Y-76962857D01*
X154709285Y-76877142D01*
X154709285Y-76820000D01*
X154745000Y-76734285D01*
X154780714Y-76705714D01*
X154780714Y-76477142D02*
X154745000Y-76448571D01*
X154709285Y-76391428D01*
X154709285Y-76248571D01*
X154745000Y-76191428D01*
X154780714Y-76162857D01*
X154852142Y-76134285D01*
X154923571Y-76134285D01*
X155030714Y-76162857D01*
X155459285Y-76505714D01*
X155459285Y-76134285D01*
X154709285Y-75620000D02*
X154709285Y-75734285D01*
X154745000Y-75791428D01*
X154780714Y-75820000D01*
X154887857Y-75877142D01*
X155030714Y-75905714D01*
X155316428Y-75905714D01*
X155387857Y-75877142D01*
X155423571Y-75848571D01*
X155459285Y-75791428D01*
X155459285Y-75677142D01*
X155423571Y-75620000D01*
X155387857Y-75591428D01*
X155316428Y-75562857D01*
X155137857Y-75562857D01*
X155066428Y-75591428D01*
X155030714Y-75620000D01*
X154995000Y-75677142D01*
X154995000Y-75791428D01*
X155030714Y-75848571D01*
X155066428Y-75877142D01*
X155137857Y-75905714D01*
X144589285Y-79875000D02*
X144232142Y-80075000D01*
X144589285Y-80217857D02*
X143839285Y-80217857D01*
X143839285Y-79989285D01*
X143875000Y-79932142D01*
X143910714Y-79903571D01*
X143982142Y-79875000D01*
X144089285Y-79875000D01*
X144160714Y-79903571D01*
X144196428Y-79932142D01*
X144232142Y-79989285D01*
X144232142Y-80217857D01*
X143839285Y-79360714D02*
X143839285Y-79475000D01*
X143875000Y-79532142D01*
X143910714Y-79560714D01*
X144017857Y-79617857D01*
X144160714Y-79646428D01*
X144446428Y-79646428D01*
X144517857Y-79617857D01*
X144553571Y-79589285D01*
X144589285Y-79532142D01*
X144589285Y-79417857D01*
X144553571Y-79360714D01*
X144517857Y-79332142D01*
X144446428Y-79303571D01*
X144267857Y-79303571D01*
X144196428Y-79332142D01*
X144160714Y-79360714D01*
X144125000Y-79417857D01*
X144125000Y-79532142D01*
X144160714Y-79589285D01*
X144196428Y-79617857D01*
X144267857Y-79646428D01*
X145664285Y-79775000D02*
X145307142Y-79975000D01*
X145664285Y-80117857D02*
X144914285Y-80117857D01*
X144914285Y-79889285D01*
X144950000Y-79832142D01*
X144985714Y-79803571D01*
X145057142Y-79775000D01*
X145164285Y-79775000D01*
X145235714Y-79803571D01*
X145271428Y-79832142D01*
X145307142Y-79889285D01*
X145307142Y-80117857D01*
X144914285Y-79575000D02*
X144914285Y-79175000D01*
X145664285Y-79432142D01*
X143679285Y-66175000D02*
X143322142Y-66375000D01*
X143679285Y-66517857D02*
X142929285Y-66517857D01*
X142929285Y-66289285D01*
X142965000Y-66232142D01*
X143000714Y-66203571D01*
X143072142Y-66175000D01*
X143179285Y-66175000D01*
X143250714Y-66203571D01*
X143286428Y-66232142D01*
X143322142Y-66289285D01*
X143322142Y-66517857D01*
X143679285Y-65603571D02*
X143679285Y-65946428D01*
X143679285Y-65775000D02*
X142929285Y-65775000D01*
X143036428Y-65832142D01*
X143107857Y-65889285D01*
X143143571Y-65946428D01*
D13*
X114341666Y-69639285D02*
X114175000Y-69282142D01*
X114055952Y-69639285D02*
X114055952Y-68889285D01*
X114246428Y-68889285D01*
X114294047Y-68925000D01*
X114317857Y-68960714D01*
X114341666Y-69032142D01*
X114341666Y-69139285D01*
X114317857Y-69210714D01*
X114294047Y-69246428D01*
X114246428Y-69282142D01*
X114055952Y-69282142D01*
X114532142Y-68960714D02*
X114555952Y-68925000D01*
X114603571Y-68889285D01*
X114722619Y-68889285D01*
X114770238Y-68925000D01*
X114794047Y-68960714D01*
X114817857Y-69032142D01*
X114817857Y-69103571D01*
X114794047Y-69210714D01*
X114508333Y-69639285D01*
X114817857Y-69639285D01*
X114366666Y-70639285D02*
X114200000Y-70282142D01*
X114080952Y-70639285D02*
X114080952Y-69889285D01*
X114271428Y-69889285D01*
X114319047Y-69925000D01*
X114342857Y-69960714D01*
X114366666Y-70032142D01*
X114366666Y-70139285D01*
X114342857Y-70210714D01*
X114319047Y-70246428D01*
X114271428Y-70282142D01*
X114080952Y-70282142D01*
X114533333Y-69889285D02*
X114842857Y-69889285D01*
X114676190Y-70175000D01*
X114747619Y-70175000D01*
X114795238Y-70210714D01*
X114819047Y-70246428D01*
X114842857Y-70317857D01*
X114842857Y-70496428D01*
X114819047Y-70567857D01*
X114795238Y-70603571D01*
X114747619Y-70639285D01*
X114604761Y-70639285D01*
X114557142Y-70603571D01*
X114533333Y-70567857D01*
D11*
X132139285Y-82885714D02*
X131782142Y-83085714D01*
X132139285Y-83228571D02*
X131389285Y-83228571D01*
X131389285Y-83000000D01*
X131425000Y-82942857D01*
X131460714Y-82914285D01*
X131532142Y-82885714D01*
X131639285Y-82885714D01*
X131710714Y-82914285D01*
X131746428Y-82942857D01*
X131782142Y-83000000D01*
X131782142Y-83228571D01*
X132139285Y-82314285D02*
X132139285Y-82657142D01*
X132139285Y-82485714D02*
X131389285Y-82485714D01*
X131496428Y-82542857D01*
X131567857Y-82600000D01*
X131603571Y-82657142D01*
X131389285Y-81771428D02*
X131389285Y-82057142D01*
X131746428Y-82085714D01*
X131710714Y-82057142D01*
X131675000Y-82000000D01*
X131675000Y-81857142D01*
X131710714Y-81800000D01*
X131746428Y-81771428D01*
X131817857Y-81742857D01*
X131996428Y-81742857D01*
X132067857Y-81771428D01*
X132103571Y-81800000D01*
X132139285Y-81857142D01*
X132139285Y-82000000D01*
X132103571Y-82057142D01*
X132067857Y-82085714D01*
X133189285Y-97173214D02*
X132832142Y-97373214D01*
X133189285Y-97516071D02*
X132439285Y-97516071D01*
X132439285Y-97287500D01*
X132475000Y-97230357D01*
X132510714Y-97201785D01*
X132582142Y-97173214D01*
X132689285Y-97173214D01*
X132760714Y-97201785D01*
X132796428Y-97230357D01*
X132832142Y-97287500D01*
X132832142Y-97516071D01*
X132510714Y-96944642D02*
X132475000Y-96916071D01*
X132439285Y-96858928D01*
X132439285Y-96716071D01*
X132475000Y-96658928D01*
X132510714Y-96630357D01*
X132582142Y-96601785D01*
X132653571Y-96601785D01*
X132760714Y-96630357D01*
X133189285Y-96973214D01*
X133189285Y-96601785D01*
X132439285Y-96230357D02*
X132439285Y-96173214D01*
X132475000Y-96116071D01*
X132510714Y-96087500D01*
X132582142Y-96058928D01*
X132725000Y-96030357D01*
X132903571Y-96030357D01*
X133046428Y-96058928D01*
X133117857Y-96087500D01*
X133153571Y-96116071D01*
X133189285Y-96173214D01*
X133189285Y-96230357D01*
X133153571Y-96287500D01*
X133117857Y-96316071D01*
X133046428Y-96344642D01*
X132903571Y-96373214D01*
X132725000Y-96373214D01*
X132582142Y-96344642D01*
X132510714Y-96316071D01*
X132475000Y-96287500D01*
X132439285Y-96230357D01*
X134239285Y-97135714D02*
X133882142Y-97335714D01*
X134239285Y-97478571D02*
X133489285Y-97478571D01*
X133489285Y-97250000D01*
X133525000Y-97192857D01*
X133560714Y-97164285D01*
X133632142Y-97135714D01*
X133739285Y-97135714D01*
X133810714Y-97164285D01*
X133846428Y-97192857D01*
X133882142Y-97250000D01*
X133882142Y-97478571D01*
X133560714Y-96907142D02*
X133525000Y-96878571D01*
X133489285Y-96821428D01*
X133489285Y-96678571D01*
X133525000Y-96621428D01*
X133560714Y-96592857D01*
X133632142Y-96564285D01*
X133703571Y-96564285D01*
X133810714Y-96592857D01*
X134239285Y-96935714D01*
X134239285Y-96564285D01*
X134239285Y-95992857D02*
X134239285Y-96335714D01*
X134239285Y-96164285D02*
X133489285Y-96164285D01*
X133596428Y-96221428D01*
X133667857Y-96278571D01*
X133703571Y-96335714D01*
X148367857Y-67839285D02*
X148367857Y-68446428D01*
X148396428Y-68517857D01*
X148425000Y-68553571D01*
X148482142Y-68589285D01*
X148596428Y-68589285D01*
X148653571Y-68553571D01*
X148682142Y-68517857D01*
X148710714Y-68446428D01*
X148710714Y-67839285D01*
X149253571Y-68089285D02*
X149253571Y-68589285D01*
X149110714Y-67803571D02*
X148967857Y-68339285D01*
X149339285Y-68339285D01*
X134942857Y-84439285D02*
X134942857Y-85046428D01*
X134971428Y-85117857D01*
X135000000Y-85153571D01*
X135057142Y-85189285D01*
X135171428Y-85189285D01*
X135228571Y-85153571D01*
X135257142Y-85117857D01*
X135285714Y-85046428D01*
X135285714Y-84439285D01*
X135600000Y-85189285D02*
X135714285Y-85189285D01*
X135771428Y-85153571D01*
X135800000Y-85117857D01*
X135857142Y-85010714D01*
X135885714Y-84867857D01*
X135885714Y-84582142D01*
X135857142Y-84510714D01*
X135828571Y-84475000D01*
X135771428Y-84439285D01*
X135657142Y-84439285D01*
X135600000Y-84475000D01*
X135571428Y-84510714D01*
X135542857Y-84582142D01*
X135542857Y-84760714D01*
X135571428Y-84832142D01*
X135600000Y-84867857D01*
X135657142Y-84903571D01*
X135771428Y-84903571D01*
X135828571Y-84867857D01*
X135857142Y-84832142D01*
X135885714Y-84760714D01*
X167937857Y-91935714D02*
X167973571Y-91964285D01*
X168009285Y-92050000D01*
X168009285Y-92107142D01*
X167973571Y-92192857D01*
X167902142Y-92250000D01*
X167830714Y-92278571D01*
X167687857Y-92307142D01*
X167580714Y-92307142D01*
X167437857Y-92278571D01*
X167366428Y-92250000D01*
X167295000Y-92192857D01*
X167259285Y-92107142D01*
X167259285Y-92050000D01*
X167295000Y-91964285D01*
X167330714Y-91935714D01*
X167259285Y-91735714D02*
X167259285Y-91364285D01*
X167545000Y-91564285D01*
X167545000Y-91478571D01*
X167580714Y-91421428D01*
X167616428Y-91392857D01*
X167687857Y-91364285D01*
X167866428Y-91364285D01*
X167937857Y-91392857D01*
X167973571Y-91421428D01*
X168009285Y-91478571D01*
X168009285Y-91650000D01*
X167973571Y-91707142D01*
X167937857Y-91735714D01*
X167259285Y-91164285D02*
X167259285Y-90764285D01*
X168009285Y-91021428D01*
X157827857Y-101435714D02*
X157863571Y-101464285D01*
X157899285Y-101550000D01*
X157899285Y-101607142D01*
X157863571Y-101692857D01*
X157792142Y-101750000D01*
X157720714Y-101778571D01*
X157577857Y-101807142D01*
X157470714Y-101807142D01*
X157327857Y-101778571D01*
X157256428Y-101750000D01*
X157185000Y-101692857D01*
X157149285Y-101607142D01*
X157149285Y-101550000D01*
X157185000Y-101464285D01*
X157220714Y-101435714D01*
X157149285Y-101235714D02*
X157149285Y-100864285D01*
X157435000Y-101064285D01*
X157435000Y-100978571D01*
X157470714Y-100921428D01*
X157506428Y-100892857D01*
X157577857Y-100864285D01*
X157756428Y-100864285D01*
X157827857Y-100892857D01*
X157863571Y-100921428D01*
X157899285Y-100978571D01*
X157899285Y-101150000D01*
X157863571Y-101207142D01*
X157827857Y-101235714D01*
X157470714Y-100521428D02*
X157435000Y-100578571D01*
X157399285Y-100607142D01*
X157327857Y-100635714D01*
X157292142Y-100635714D01*
X157220714Y-100607142D01*
X157185000Y-100578571D01*
X157149285Y-100521428D01*
X157149285Y-100407142D01*
X157185000Y-100350000D01*
X157220714Y-100321428D01*
X157292142Y-100292857D01*
X157327857Y-100292857D01*
X157399285Y-100321428D01*
X157435000Y-100350000D01*
X157470714Y-100407142D01*
X157470714Y-100521428D01*
X157506428Y-100578571D01*
X157542142Y-100607142D01*
X157613571Y-100635714D01*
X157756428Y-100635714D01*
X157827857Y-100607142D01*
X157863571Y-100578571D01*
X157899285Y-100521428D01*
X157899285Y-100407142D01*
X157863571Y-100350000D01*
X157827857Y-100321428D01*
X157756428Y-100292857D01*
X157613571Y-100292857D01*
X157542142Y-100321428D01*
X157506428Y-100350000D01*
X157470714Y-100407142D01*
X167986785Y-104567857D02*
X167958214Y-104603571D01*
X167872500Y-104639285D01*
X167815357Y-104639285D01*
X167729642Y-104603571D01*
X167672500Y-104532142D01*
X167643928Y-104460714D01*
X167615357Y-104317857D01*
X167615357Y-104210714D01*
X167643928Y-104067857D01*
X167672500Y-103996428D01*
X167729642Y-103925000D01*
X167815357Y-103889285D01*
X167872500Y-103889285D01*
X167958214Y-103925000D01*
X167986785Y-103960714D01*
X168186785Y-103889285D02*
X168558214Y-103889285D01*
X168358214Y-104175000D01*
X168443928Y-104175000D01*
X168501071Y-104210714D01*
X168529642Y-104246428D01*
X168558214Y-104317857D01*
X168558214Y-104496428D01*
X168529642Y-104567857D01*
X168501071Y-104603571D01*
X168443928Y-104639285D01*
X168272500Y-104639285D01*
X168215357Y-104603571D01*
X168186785Y-104567857D01*
X168843928Y-104639285D02*
X168958214Y-104639285D01*
X169015357Y-104603571D01*
X169043928Y-104567857D01*
X169101071Y-104460714D01*
X169129642Y-104317857D01*
X169129642Y-104032142D01*
X169101071Y-103960714D01*
X169072500Y-103925000D01*
X169015357Y-103889285D01*
X168901071Y-103889285D01*
X168843928Y-103925000D01*
X168815357Y-103960714D01*
X168786785Y-104032142D01*
X168786785Y-104210714D01*
X168815357Y-104282142D01*
X168843928Y-104317857D01*
X168901071Y-104353571D01*
X169015357Y-104353571D01*
X169072500Y-104317857D01*
X169101071Y-104282142D01*
X169129642Y-104210714D01*
X156314285Y-93017857D02*
X156285714Y-93053571D01*
X156200000Y-93089285D01*
X156142857Y-93089285D01*
X156057142Y-93053571D01*
X156000000Y-92982142D01*
X155971428Y-92910714D01*
X155942857Y-92767857D01*
X155942857Y-92660714D01*
X155971428Y-92517857D01*
X156000000Y-92446428D01*
X156057142Y-92375000D01*
X156142857Y-92339285D01*
X156200000Y-92339285D01*
X156285714Y-92375000D01*
X156314285Y-92410714D01*
X156828571Y-92589285D02*
X156828571Y-93089285D01*
X156685714Y-92303571D02*
X156542857Y-92839285D01*
X156914285Y-92839285D01*
X157400000Y-92589285D02*
X157400000Y-93089285D01*
X157257142Y-92303571D02*
X157114285Y-92839285D01*
X157485714Y-92839285D01*
X168887857Y-91955714D02*
X168923571Y-91984285D01*
X168959285Y-92070000D01*
X168959285Y-92127142D01*
X168923571Y-92212857D01*
X168852142Y-92270000D01*
X168780714Y-92298571D01*
X168637857Y-92327142D01*
X168530714Y-92327142D01*
X168387857Y-92298571D01*
X168316428Y-92270000D01*
X168245000Y-92212857D01*
X168209285Y-92127142D01*
X168209285Y-92070000D01*
X168245000Y-91984285D01*
X168280714Y-91955714D01*
X168459285Y-91441428D02*
X168959285Y-91441428D01*
X168173571Y-91584285D02*
X168709285Y-91727142D01*
X168709285Y-91355714D01*
X168209285Y-90841428D02*
X168209285Y-91127142D01*
X168566428Y-91155714D01*
X168530714Y-91127142D01*
X168495000Y-91070000D01*
X168495000Y-90927142D01*
X168530714Y-90870000D01*
X168566428Y-90841428D01*
X168637857Y-90812857D01*
X168816428Y-90812857D01*
X168887857Y-90841428D01*
X168923571Y-90870000D01*
X168959285Y-90927142D01*
X168959285Y-91070000D01*
X168923571Y-91127142D01*
X168887857Y-91155714D01*
X156364285Y-94067857D02*
X156335714Y-94103571D01*
X156250000Y-94139285D01*
X156192857Y-94139285D01*
X156107142Y-94103571D01*
X156050000Y-94032142D01*
X156021428Y-93960714D01*
X155992857Y-93817857D01*
X155992857Y-93710714D01*
X156021428Y-93567857D01*
X156050000Y-93496428D01*
X156107142Y-93425000D01*
X156192857Y-93389285D01*
X156250000Y-93389285D01*
X156335714Y-93425000D01*
X156364285Y-93460714D01*
X156878571Y-93639285D02*
X156878571Y-94139285D01*
X156735714Y-93353571D02*
X156592857Y-93889285D01*
X156964285Y-93889285D01*
X157450000Y-93389285D02*
X157335714Y-93389285D01*
X157278571Y-93425000D01*
X157250000Y-93460714D01*
X157192857Y-93567857D01*
X157164285Y-93710714D01*
X157164285Y-93996428D01*
X157192857Y-94067857D01*
X157221428Y-94103571D01*
X157278571Y-94139285D01*
X157392857Y-94139285D01*
X157450000Y-94103571D01*
X157478571Y-94067857D01*
X157507142Y-93996428D01*
X157507142Y-93817857D01*
X157478571Y-93746428D01*
X157450000Y-93710714D01*
X157392857Y-93675000D01*
X157278571Y-93675000D01*
X157221428Y-93710714D01*
X157192857Y-93746428D01*
X157164285Y-93817857D01*
X167984285Y-103537857D02*
X167955714Y-103573571D01*
X167870000Y-103609285D01*
X167812857Y-103609285D01*
X167727142Y-103573571D01*
X167670000Y-103502142D01*
X167641428Y-103430714D01*
X167612857Y-103287857D01*
X167612857Y-103180714D01*
X167641428Y-103037857D01*
X167670000Y-102966428D01*
X167727142Y-102895000D01*
X167812857Y-102859285D01*
X167870000Y-102859285D01*
X167955714Y-102895000D01*
X167984285Y-102930714D01*
X168498571Y-103109285D02*
X168498571Y-103609285D01*
X168355714Y-102823571D02*
X168212857Y-103359285D01*
X168584285Y-103359285D01*
X168755714Y-102859285D02*
X169155714Y-102859285D01*
X168898571Y-103609285D01*
X153164285Y-100719285D02*
X152964285Y-100362142D01*
X152821428Y-100719285D02*
X152821428Y-99969285D01*
X153050000Y-99969285D01*
X153107142Y-100005000D01*
X153135714Y-100040714D01*
X153164285Y-100112142D01*
X153164285Y-100219285D01*
X153135714Y-100290714D01*
X153107142Y-100326428D01*
X153050000Y-100362142D01*
X152821428Y-100362142D01*
X153735714Y-100719285D02*
X153392857Y-100719285D01*
X153564285Y-100719285D02*
X153564285Y-99969285D01*
X153507142Y-100076428D01*
X153450000Y-100147857D01*
X153392857Y-100183571D01*
X154307142Y-100719285D02*
X153964285Y-100719285D01*
X154135714Y-100719285D02*
X154135714Y-99969285D01*
X154078571Y-100076428D01*
X154021428Y-100147857D01*
X153964285Y-100183571D01*
X150814285Y-98332857D02*
X150785714Y-98368571D01*
X150700000Y-98404285D01*
X150642857Y-98404285D01*
X150557142Y-98368571D01*
X150500000Y-98297142D01*
X150471428Y-98225714D01*
X150442857Y-98082857D01*
X150442857Y-97975714D01*
X150471428Y-97832857D01*
X150500000Y-97761428D01*
X150557142Y-97690000D01*
X150642857Y-97654285D01*
X150700000Y-97654285D01*
X150785714Y-97690000D01*
X150814285Y-97725714D01*
X151328571Y-97904285D02*
X151328571Y-98404285D01*
X151185714Y-97618571D02*
X151042857Y-98154285D01*
X151414285Y-98154285D01*
X151614285Y-97725714D02*
X151642857Y-97690000D01*
X151700000Y-97654285D01*
X151842857Y-97654285D01*
X151900000Y-97690000D01*
X151928571Y-97725714D01*
X151957142Y-97797142D01*
X151957142Y-97868571D01*
X151928571Y-97975714D01*
X151585714Y-98404285D01*
X151957142Y-98404285D01*
X150914285Y-103117857D02*
X150885714Y-103153571D01*
X150800000Y-103189285D01*
X150742857Y-103189285D01*
X150657142Y-103153571D01*
X150600000Y-103082142D01*
X150571428Y-103010714D01*
X150542857Y-102867857D01*
X150542857Y-102760714D01*
X150571428Y-102617857D01*
X150600000Y-102546428D01*
X150657142Y-102475000D01*
X150742857Y-102439285D01*
X150800000Y-102439285D01*
X150885714Y-102475000D01*
X150914285Y-102510714D01*
X151428571Y-102689285D02*
X151428571Y-103189285D01*
X151285714Y-102403571D02*
X151142857Y-102939285D01*
X151514285Y-102939285D01*
X151685714Y-102439285D02*
X152057142Y-102439285D01*
X151857142Y-102725000D01*
X151942857Y-102725000D01*
X152000000Y-102760714D01*
X152028571Y-102796428D01*
X152057142Y-102867857D01*
X152057142Y-103046428D01*
X152028571Y-103117857D01*
X152000000Y-103153571D01*
X151942857Y-103189285D01*
X151771428Y-103189285D01*
X151714285Y-103153571D01*
X151685714Y-103117857D01*
X107282142Y-51357142D02*
X107251190Y-51388095D01*
X107158333Y-51419047D01*
X107096428Y-51419047D01*
X107003571Y-51388095D01*
X106941666Y-51326190D01*
X106910714Y-51264285D01*
X106879761Y-51140476D01*
X106879761Y-51047619D01*
X106910714Y-50923809D01*
X106941666Y-50861904D01*
X107003571Y-50800000D01*
X107096428Y-50769047D01*
X107158333Y-50769047D01*
X107251190Y-50800000D01*
X107282142Y-50830952D01*
X107901190Y-51419047D02*
X107529761Y-51419047D01*
X107715476Y-51419047D02*
X107715476Y-50769047D01*
X107653571Y-50861904D01*
X107591666Y-50923809D01*
X107529761Y-50954761D01*
X108210714Y-51419047D02*
X108334523Y-51419047D01*
X108396428Y-51388095D01*
X108427380Y-51357142D01*
X108489285Y-51264285D01*
X108520238Y-51140476D01*
X108520238Y-50892857D01*
X108489285Y-50830952D01*
X108458333Y-50800000D01*
X108396428Y-50769047D01*
X108272619Y-50769047D01*
X108210714Y-50800000D01*
X108179761Y-50830952D01*
X108148809Y-50892857D01*
X108148809Y-51047619D01*
X108179761Y-51109523D01*
X108210714Y-51140476D01*
X108272619Y-51171428D01*
X108396428Y-51171428D01*
X108458333Y-51140476D01*
X108489285Y-51109523D01*
X108520238Y-51047619D01*
X109457142Y-51332142D02*
X109426190Y-51363095D01*
X109333333Y-51394047D01*
X109271428Y-51394047D01*
X109178571Y-51363095D01*
X109116666Y-51301190D01*
X109085714Y-51239285D01*
X109054761Y-51115476D01*
X109054761Y-51022619D01*
X109085714Y-50898809D01*
X109116666Y-50836904D01*
X109178571Y-50775000D01*
X109271428Y-50744047D01*
X109333333Y-50744047D01*
X109426190Y-50775000D01*
X109457142Y-50805952D01*
X109704761Y-50805952D02*
X109735714Y-50775000D01*
X109797619Y-50744047D01*
X109952380Y-50744047D01*
X110014285Y-50775000D01*
X110045238Y-50805952D01*
X110076190Y-50867857D01*
X110076190Y-50929761D01*
X110045238Y-51022619D01*
X109673809Y-51394047D01*
X110076190Y-51394047D01*
X110478571Y-50744047D02*
X110540476Y-50744047D01*
X110602380Y-50775000D01*
X110633333Y-50805952D01*
X110664285Y-50867857D01*
X110695238Y-50991666D01*
X110695238Y-51146428D01*
X110664285Y-51270238D01*
X110633333Y-51332142D01*
X110602380Y-51363095D01*
X110540476Y-51394047D01*
X110478571Y-51394047D01*
X110416666Y-51363095D01*
X110385714Y-51332142D01*
X110354761Y-51270238D01*
X110323809Y-51146428D01*
X110323809Y-50991666D01*
X110354761Y-50867857D01*
X110385714Y-50805952D01*
X110416666Y-50775000D01*
X110478571Y-50744047D01*
D14*
X119292857Y-60667857D02*
X119273809Y-60686904D01*
X119216666Y-60705952D01*
X119178571Y-60705952D01*
X119121428Y-60686904D01*
X119083333Y-60648809D01*
X119064285Y-60610714D01*
X119045238Y-60534523D01*
X119045238Y-60477380D01*
X119064285Y-60401190D01*
X119083333Y-60363095D01*
X119121428Y-60325000D01*
X119178571Y-60305952D01*
X119216666Y-60305952D01*
X119273809Y-60325000D01*
X119292857Y-60344047D01*
X119426190Y-60305952D02*
X119673809Y-60305952D01*
X119540476Y-60458333D01*
X119597619Y-60458333D01*
X119635714Y-60477380D01*
X119654761Y-60496428D01*
X119673809Y-60534523D01*
X119673809Y-60629761D01*
X119654761Y-60667857D01*
X119635714Y-60686904D01*
X119597619Y-60705952D01*
X119483333Y-60705952D01*
X119445238Y-60686904D01*
X119426190Y-60667857D01*
X120054761Y-60705952D02*
X119826190Y-60705952D01*
X119940476Y-60705952D02*
X119940476Y-60305952D01*
X119902380Y-60363095D01*
X119864285Y-60401190D01*
X119826190Y-60420238D01*
D11*
X115582142Y-64632142D02*
X115551190Y-64663095D01*
X115458333Y-64694047D01*
X115396428Y-64694047D01*
X115303571Y-64663095D01*
X115241666Y-64601190D01*
X115210714Y-64539285D01*
X115179761Y-64415476D01*
X115179761Y-64322619D01*
X115210714Y-64198809D01*
X115241666Y-64136904D01*
X115303571Y-64075000D01*
X115396428Y-64044047D01*
X115458333Y-64044047D01*
X115551190Y-64075000D01*
X115582142Y-64105952D01*
X115798809Y-64044047D02*
X116201190Y-64044047D01*
X115984523Y-64291666D01*
X116077380Y-64291666D01*
X116139285Y-64322619D01*
X116170238Y-64353571D01*
X116201190Y-64415476D01*
X116201190Y-64570238D01*
X116170238Y-64632142D01*
X116139285Y-64663095D01*
X116077380Y-64694047D01*
X115891666Y-64694047D01*
X115829761Y-64663095D01*
X115798809Y-64632142D01*
X116448809Y-64105952D02*
X116479761Y-64075000D01*
X116541666Y-64044047D01*
X116696428Y-64044047D01*
X116758333Y-64075000D01*
X116789285Y-64105952D01*
X116820238Y-64167857D01*
X116820238Y-64229761D01*
X116789285Y-64322619D01*
X116417857Y-64694047D01*
X116820238Y-64694047D01*
X109957142Y-63392857D02*
X109988095Y-63423809D01*
X110019047Y-63516666D01*
X110019047Y-63578571D01*
X109988095Y-63671428D01*
X109926190Y-63733333D01*
X109864285Y-63764285D01*
X109740476Y-63795238D01*
X109647619Y-63795238D01*
X109523809Y-63764285D01*
X109461904Y-63733333D01*
X109400000Y-63671428D01*
X109369047Y-63578571D01*
X109369047Y-63516666D01*
X109400000Y-63423809D01*
X109430952Y-63392857D01*
X109369047Y-62835714D02*
X109369047Y-62959523D01*
X109400000Y-63021428D01*
X109430952Y-63052380D01*
X109523809Y-63114285D01*
X109647619Y-63145238D01*
X109895238Y-63145238D01*
X109957142Y-63114285D01*
X109988095Y-63083333D01*
X110019047Y-63021428D01*
X110019047Y-62897619D01*
X109988095Y-62835714D01*
X109957142Y-62804761D01*
X109895238Y-62773809D01*
X109740476Y-62773809D01*
X109678571Y-62804761D01*
X109647619Y-62835714D01*
X109616666Y-62897619D01*
X109616666Y-63021428D01*
X109647619Y-63083333D01*
X109678571Y-63114285D01*
X109740476Y-63145238D01*
X109369047Y-62557142D02*
X109369047Y-62123809D01*
X110019047Y-62402380D01*
X112182142Y-53757142D02*
X112151190Y-53788095D01*
X112058333Y-53819047D01*
X111996428Y-53819047D01*
X111903571Y-53788095D01*
X111841666Y-53726190D01*
X111810714Y-53664285D01*
X111779761Y-53540476D01*
X111779761Y-53447619D01*
X111810714Y-53323809D01*
X111841666Y-53261904D01*
X111903571Y-53200000D01*
X111996428Y-53169047D01*
X112058333Y-53169047D01*
X112151190Y-53200000D01*
X112182142Y-53230952D01*
X112739285Y-53169047D02*
X112615476Y-53169047D01*
X112553571Y-53200000D01*
X112522619Y-53230952D01*
X112460714Y-53323809D01*
X112429761Y-53447619D01*
X112429761Y-53695238D01*
X112460714Y-53757142D01*
X112491666Y-53788095D01*
X112553571Y-53819047D01*
X112677380Y-53819047D01*
X112739285Y-53788095D01*
X112770238Y-53757142D01*
X112801190Y-53695238D01*
X112801190Y-53540476D01*
X112770238Y-53478571D01*
X112739285Y-53447619D01*
X112677380Y-53416666D01*
X112553571Y-53416666D01*
X112491666Y-53447619D01*
X112460714Y-53478571D01*
X112429761Y-53540476D01*
X113172619Y-53447619D02*
X113110714Y-53416666D01*
X113079761Y-53385714D01*
X113048809Y-53323809D01*
X113048809Y-53292857D01*
X113079761Y-53230952D01*
X113110714Y-53200000D01*
X113172619Y-53169047D01*
X113296428Y-53169047D01*
X113358333Y-53200000D01*
X113389285Y-53230952D01*
X113420238Y-53292857D01*
X113420238Y-53323809D01*
X113389285Y-53385714D01*
X113358333Y-53416666D01*
X113296428Y-53447619D01*
X113172619Y-53447619D01*
X113110714Y-53478571D01*
X113079761Y-53509523D01*
X113048809Y-53571428D01*
X113048809Y-53695238D01*
X113079761Y-53757142D01*
X113110714Y-53788095D01*
X113172619Y-53819047D01*
X113296428Y-53819047D01*
X113358333Y-53788095D01*
X113389285Y-53757142D01*
X113420238Y-53695238D01*
X113420238Y-53571428D01*
X113389285Y-53509523D01*
X113358333Y-53478571D01*
X113296428Y-53447619D01*
D13*
X123478571Y-54603571D02*
X123454761Y-54627380D01*
X123383333Y-54651190D01*
X123335714Y-54651190D01*
X123264285Y-54627380D01*
X123216666Y-54579761D01*
X123192857Y-54532142D01*
X123169047Y-54436904D01*
X123169047Y-54365476D01*
X123192857Y-54270238D01*
X123216666Y-54222619D01*
X123264285Y-54175000D01*
X123335714Y-54151190D01*
X123383333Y-54151190D01*
X123454761Y-54175000D01*
X123478571Y-54198809D01*
X123907142Y-54151190D02*
X123811904Y-54151190D01*
X123764285Y-54175000D01*
X123740476Y-54198809D01*
X123692857Y-54270238D01*
X123669047Y-54365476D01*
X123669047Y-54555952D01*
X123692857Y-54603571D01*
X123716666Y-54627380D01*
X123764285Y-54651190D01*
X123859523Y-54651190D01*
X123907142Y-54627380D01*
X123930952Y-54603571D01*
X123954761Y-54555952D01*
X123954761Y-54436904D01*
X123930952Y-54389285D01*
X123907142Y-54365476D01*
X123859523Y-54341666D01*
X123764285Y-54341666D01*
X123716666Y-54365476D01*
X123692857Y-54389285D01*
X123669047Y-54436904D01*
X124192857Y-54651190D02*
X124288095Y-54651190D01*
X124335714Y-54627380D01*
X124359523Y-54603571D01*
X124407142Y-54532142D01*
X124430952Y-54436904D01*
X124430952Y-54246428D01*
X124407142Y-54198809D01*
X124383333Y-54175000D01*
X124335714Y-54151190D01*
X124240476Y-54151190D01*
X124192857Y-54175000D01*
X124169047Y-54198809D01*
X124145238Y-54246428D01*
X124145238Y-54365476D01*
X124169047Y-54413095D01*
X124192857Y-54436904D01*
X124240476Y-54460714D01*
X124335714Y-54460714D01*
X124383333Y-54436904D01*
X124407142Y-54413095D01*
X124430952Y-54365476D01*
X125253571Y-52896428D02*
X125277380Y-52920238D01*
X125301190Y-52991666D01*
X125301190Y-53039285D01*
X125277380Y-53110714D01*
X125229761Y-53158333D01*
X125182142Y-53182142D01*
X125086904Y-53205952D01*
X125015476Y-53205952D01*
X124920238Y-53182142D01*
X124872619Y-53158333D01*
X124825000Y-53110714D01*
X124801190Y-53039285D01*
X124801190Y-52991666D01*
X124825000Y-52920238D01*
X124848809Y-52896428D01*
X124801190Y-52729761D02*
X124801190Y-52396428D01*
X125301190Y-52610714D01*
X124801190Y-52110714D02*
X124801190Y-52063095D01*
X124825000Y-52015476D01*
X124848809Y-51991666D01*
X124896428Y-51967857D01*
X124991666Y-51944047D01*
X125110714Y-51944047D01*
X125205952Y-51967857D01*
X125253571Y-51991666D01*
X125277380Y-52015476D01*
X125301190Y-52063095D01*
X125301190Y-52110714D01*
X125277380Y-52158333D01*
X125253571Y-52182142D01*
X125205952Y-52205952D01*
X125110714Y-52229761D01*
X124991666Y-52229761D01*
X124896428Y-52205952D01*
X124848809Y-52182142D01*
X124825000Y-52158333D01*
X124801190Y-52110714D01*
X123653571Y-51178571D02*
X123629761Y-51202380D01*
X123558333Y-51226190D01*
X123510714Y-51226190D01*
X123439285Y-51202380D01*
X123391666Y-51154761D01*
X123367857Y-51107142D01*
X123344047Y-51011904D01*
X123344047Y-50940476D01*
X123367857Y-50845238D01*
X123391666Y-50797619D01*
X123439285Y-50750000D01*
X123510714Y-50726190D01*
X123558333Y-50726190D01*
X123629761Y-50750000D01*
X123653571Y-50773809D01*
X123820238Y-50726190D02*
X124153571Y-50726190D01*
X123939285Y-51226190D01*
X124605952Y-51226190D02*
X124320238Y-51226190D01*
X124463095Y-51226190D02*
X124463095Y-50726190D01*
X124415476Y-50797619D01*
X124367857Y-50845238D01*
X124320238Y-50869047D01*
D11*
X142507142Y-65942857D02*
X142538095Y-65973809D01*
X142569047Y-66066666D01*
X142569047Y-66128571D01*
X142538095Y-66221428D01*
X142476190Y-66283333D01*
X142414285Y-66314285D01*
X142290476Y-66345238D01*
X142197619Y-66345238D01*
X142073809Y-66314285D01*
X142011904Y-66283333D01*
X141950000Y-66221428D01*
X141919047Y-66128571D01*
X141919047Y-66066666D01*
X141950000Y-65973809D01*
X141980952Y-65942857D01*
X141919047Y-65726190D02*
X141919047Y-65292857D01*
X142569047Y-65571428D01*
X141980952Y-65076190D02*
X141950000Y-65045238D01*
X141919047Y-64983333D01*
X141919047Y-64828571D01*
X141950000Y-64766666D01*
X141980952Y-64735714D01*
X142042857Y-64704761D01*
X142104761Y-64704761D01*
X142197619Y-64735714D01*
X142569047Y-65107142D01*
X142569047Y-64704761D01*
D13*
X130128571Y-83203571D02*
X130104761Y-83227380D01*
X130033333Y-83251190D01*
X129985714Y-83251190D01*
X129914285Y-83227380D01*
X129866666Y-83179761D01*
X129842857Y-83132142D01*
X129819047Y-83036904D01*
X129819047Y-82965476D01*
X129842857Y-82870238D01*
X129866666Y-82822619D01*
X129914285Y-82775000D01*
X129985714Y-82751190D01*
X130033333Y-82751190D01*
X130104761Y-82775000D01*
X130128571Y-82798809D01*
X130295238Y-82751190D02*
X130628571Y-82751190D01*
X130414285Y-83251190D01*
X130771428Y-82751190D02*
X131080952Y-82751190D01*
X130914285Y-82941666D01*
X130985714Y-82941666D01*
X131033333Y-82965476D01*
X131057142Y-82989285D01*
X131080952Y-83036904D01*
X131080952Y-83155952D01*
X131057142Y-83203571D01*
X131033333Y-83227380D01*
X130985714Y-83251190D01*
X130842857Y-83251190D01*
X130795238Y-83227380D01*
X130771428Y-83203571D01*
D11*
X173251904Y-100332380D02*
X173251904Y-99332380D01*
X173490000Y-99332380D01*
X173632857Y-99380000D01*
X173728095Y-99475238D01*
X173775714Y-99570476D01*
X173823333Y-99760952D01*
X173823333Y-99903809D01*
X173775714Y-100094285D01*
X173728095Y-100189523D01*
X173632857Y-100284761D01*
X173490000Y-100332380D01*
X173251904Y-100332380D01*
X174156666Y-99332380D02*
X174775714Y-99332380D01*
X174442380Y-99713333D01*
X174585238Y-99713333D01*
X174680476Y-99760952D01*
X174728095Y-99808571D01*
X174775714Y-99903809D01*
X174775714Y-100141904D01*
X174728095Y-100237142D01*
X174680476Y-100284761D01*
X174585238Y-100332380D01*
X174299523Y-100332380D01*
X174204285Y-100284761D01*
X174156666Y-100237142D01*
X114519047Y-53404761D02*
X113869047Y-53404761D01*
X113869047Y-53250000D01*
X113900000Y-53157142D01*
X113961904Y-53095238D01*
X114023809Y-53064285D01*
X114147619Y-53033333D01*
X114240476Y-53033333D01*
X114364285Y-53064285D01*
X114426190Y-53095238D01*
X114488095Y-53157142D01*
X114519047Y-53250000D01*
X114519047Y-53404761D01*
X114085714Y-52476190D02*
X114519047Y-52476190D01*
X113838095Y-52630952D02*
X114302380Y-52785714D01*
X114302380Y-52383333D01*
D13*
X117816666Y-50976190D02*
X117578571Y-50976190D01*
X117578571Y-50476190D01*
X118245238Y-50976190D02*
X117959523Y-50976190D01*
X118102380Y-50976190D02*
X118102380Y-50476190D01*
X118054761Y-50547619D01*
X118007142Y-50595238D01*
X117959523Y-50619047D01*
D11*
X137441666Y-69344047D02*
X137225000Y-69034523D01*
X137070238Y-69344047D02*
X137070238Y-68694047D01*
X137317857Y-68694047D01*
X137379761Y-68725000D01*
X137410714Y-68755952D01*
X137441666Y-68817857D01*
X137441666Y-68910714D01*
X137410714Y-68972619D01*
X137379761Y-69003571D01*
X137317857Y-69034523D01*
X137070238Y-69034523D01*
X137998809Y-68910714D02*
X137998809Y-69344047D01*
X137844047Y-68663095D02*
X137689285Y-69127380D01*
X138091666Y-69127380D01*
X124244047Y-84667857D02*
X123934523Y-84884523D01*
X124244047Y-85039285D02*
X123594047Y-85039285D01*
X123594047Y-84791666D01*
X123625000Y-84729761D01*
X123655952Y-84698809D01*
X123717857Y-84667857D01*
X123810714Y-84667857D01*
X123872619Y-84698809D01*
X123903571Y-84729761D01*
X123934523Y-84791666D01*
X123934523Y-85039285D01*
X124244047Y-84048809D02*
X124244047Y-84420238D01*
X124244047Y-84234523D02*
X123594047Y-84234523D01*
X123686904Y-84296428D01*
X123748809Y-84358333D01*
X123779761Y-84420238D01*
X123872619Y-83677380D02*
X123841666Y-83739285D01*
X123810714Y-83770238D01*
X123748809Y-83801190D01*
X123717857Y-83801190D01*
X123655952Y-83770238D01*
X123625000Y-83739285D01*
X123594047Y-83677380D01*
X123594047Y-83553571D01*
X123625000Y-83491666D01*
X123655952Y-83460714D01*
X123717857Y-83429761D01*
X123748809Y-83429761D01*
X123810714Y-83460714D01*
X123841666Y-83491666D01*
X123872619Y-83553571D01*
X123872619Y-83677380D01*
X123903571Y-83739285D01*
X123934523Y-83770238D01*
X123996428Y-83801190D01*
X124120238Y-83801190D01*
X124182142Y-83770238D01*
X124213095Y-83739285D01*
X124244047Y-83677380D01*
X124244047Y-83553571D01*
X124213095Y-83491666D01*
X124182142Y-83460714D01*
X124120238Y-83429761D01*
X123996428Y-83429761D01*
X123934523Y-83460714D01*
X123903571Y-83491666D01*
X123872619Y-83553571D01*
X146944047Y-67807857D02*
X146634523Y-68024523D01*
X146944047Y-68179285D02*
X146294047Y-68179285D01*
X146294047Y-67931666D01*
X146325000Y-67869761D01*
X146355952Y-67838809D01*
X146417857Y-67807857D01*
X146510714Y-67807857D01*
X146572619Y-67838809D01*
X146603571Y-67869761D01*
X146634523Y-67931666D01*
X146634523Y-68179285D01*
X146355952Y-67560238D02*
X146325000Y-67529285D01*
X146294047Y-67467380D01*
X146294047Y-67312619D01*
X146325000Y-67250714D01*
X146355952Y-67219761D01*
X146417857Y-67188809D01*
X146479761Y-67188809D01*
X146572619Y-67219761D01*
X146944047Y-67591190D01*
X146944047Y-67188809D01*
X146294047Y-66972142D02*
X146294047Y-66569761D01*
X146541666Y-66786428D01*
X146541666Y-66693571D01*
X146572619Y-66631666D01*
X146603571Y-66600714D01*
X146665476Y-66569761D01*
X146820238Y-66569761D01*
X146882142Y-66600714D01*
X146913095Y-66631666D01*
X146944047Y-66693571D01*
X146944047Y-66879285D01*
X146913095Y-66941190D01*
X146882142Y-66972142D01*
X115769047Y-68092857D02*
X115459523Y-68309523D01*
X115769047Y-68464285D02*
X115119047Y-68464285D01*
X115119047Y-68216666D01*
X115150000Y-68154761D01*
X115180952Y-68123809D01*
X115242857Y-68092857D01*
X115335714Y-68092857D01*
X115397619Y-68123809D01*
X115428571Y-68154761D01*
X115459523Y-68216666D01*
X115459523Y-68464285D01*
X115180952Y-67845238D02*
X115150000Y-67814285D01*
X115119047Y-67752380D01*
X115119047Y-67597619D01*
X115150000Y-67535714D01*
X115180952Y-67504761D01*
X115242857Y-67473809D01*
X115304761Y-67473809D01*
X115397619Y-67504761D01*
X115769047Y-67876190D01*
X115769047Y-67473809D01*
X115335714Y-66916666D02*
X115769047Y-66916666D01*
X115088095Y-67071428D02*
X115552380Y-67226190D01*
X115552380Y-66823809D01*
X119532142Y-64719047D02*
X119315476Y-64409523D01*
X119160714Y-64719047D02*
X119160714Y-64069047D01*
X119408333Y-64069047D01*
X119470238Y-64100000D01*
X119501190Y-64130952D01*
X119532142Y-64192857D01*
X119532142Y-64285714D01*
X119501190Y-64347619D01*
X119470238Y-64378571D01*
X119408333Y-64409523D01*
X119160714Y-64409523D01*
X119779761Y-64130952D02*
X119810714Y-64100000D01*
X119872619Y-64069047D01*
X120027380Y-64069047D01*
X120089285Y-64100000D01*
X120120238Y-64130952D01*
X120151190Y-64192857D01*
X120151190Y-64254761D01*
X120120238Y-64347619D01*
X119748809Y-64719047D01*
X120151190Y-64719047D01*
X120739285Y-64069047D02*
X120429761Y-64069047D01*
X120398809Y-64378571D01*
X120429761Y-64347619D01*
X120491666Y-64316666D01*
X120646428Y-64316666D01*
X120708333Y-64347619D01*
X120739285Y-64378571D01*
X120770238Y-64440476D01*
X120770238Y-64595238D01*
X120739285Y-64657142D01*
X120708333Y-64688095D01*
X120646428Y-64719047D01*
X120491666Y-64719047D01*
X120429761Y-64688095D01*
X120398809Y-64657142D01*
D13*
X119926190Y-57071428D02*
X119688095Y-57238095D01*
X119926190Y-57357142D02*
X119426190Y-57357142D01*
X119426190Y-57166666D01*
X119450000Y-57119047D01*
X119473809Y-57095238D01*
X119521428Y-57071428D01*
X119592857Y-57071428D01*
X119640476Y-57095238D01*
X119664285Y-57119047D01*
X119688095Y-57166666D01*
X119688095Y-57357142D01*
X119473809Y-56880952D02*
X119450000Y-56857142D01*
X119426190Y-56809523D01*
X119426190Y-56690476D01*
X119450000Y-56642857D01*
X119473809Y-56619047D01*
X119521428Y-56595238D01*
X119569047Y-56595238D01*
X119640476Y-56619047D01*
X119926190Y-56904761D01*
X119926190Y-56595238D01*
X119426190Y-56166666D02*
X119426190Y-56261904D01*
X119450000Y-56309523D01*
X119473809Y-56333333D01*
X119545238Y-56380952D01*
X119640476Y-56404761D01*
X119830952Y-56404761D01*
X119878571Y-56380952D01*
X119902380Y-56357142D01*
X119926190Y-56309523D01*
X119926190Y-56214285D01*
X119902380Y-56166666D01*
X119878571Y-56142857D01*
X119830952Y-56119047D01*
X119711904Y-56119047D01*
X119664285Y-56142857D01*
X119640476Y-56166666D01*
X119616666Y-56214285D01*
X119616666Y-56309523D01*
X119640476Y-56357142D01*
X119664285Y-56380952D01*
X119711904Y-56404761D01*
X120076190Y-59296428D02*
X119838095Y-59463095D01*
X120076190Y-59582142D02*
X119576190Y-59582142D01*
X119576190Y-59391666D01*
X119600000Y-59344047D01*
X119623809Y-59320238D01*
X119671428Y-59296428D01*
X119742857Y-59296428D01*
X119790476Y-59320238D01*
X119814285Y-59344047D01*
X119838095Y-59391666D01*
X119838095Y-59582142D01*
X119623809Y-59105952D02*
X119600000Y-59082142D01*
X119576190Y-59034523D01*
X119576190Y-58915476D01*
X119600000Y-58867857D01*
X119623809Y-58844047D01*
X119671428Y-58820238D01*
X119719047Y-58820238D01*
X119790476Y-58844047D01*
X120076190Y-59129761D01*
X120076190Y-58820238D01*
X119576190Y-58653571D02*
X119576190Y-58320238D01*
X120076190Y-58534523D01*
D11*
X118044047Y-86017857D02*
X117734523Y-86234523D01*
X118044047Y-86389285D02*
X117394047Y-86389285D01*
X117394047Y-86141666D01*
X117425000Y-86079761D01*
X117455952Y-86048809D01*
X117517857Y-86017857D01*
X117610714Y-86017857D01*
X117672619Y-86048809D01*
X117703571Y-86079761D01*
X117734523Y-86141666D01*
X117734523Y-86389285D01*
X117455952Y-85770238D02*
X117425000Y-85739285D01*
X117394047Y-85677380D01*
X117394047Y-85522619D01*
X117425000Y-85460714D01*
X117455952Y-85429761D01*
X117517857Y-85398809D01*
X117579761Y-85398809D01*
X117672619Y-85429761D01*
X118044047Y-85801190D01*
X118044047Y-85398809D01*
X118044047Y-85089285D02*
X118044047Y-84965476D01*
X118013095Y-84903571D01*
X117982142Y-84872619D01*
X117889285Y-84810714D01*
X117765476Y-84779761D01*
X117517857Y-84779761D01*
X117455952Y-84810714D01*
X117425000Y-84841666D01*
X117394047Y-84903571D01*
X117394047Y-85027380D01*
X117425000Y-85089285D01*
X117455952Y-85120238D01*
X117517857Y-85151190D01*
X117672619Y-85151190D01*
X117734523Y-85120238D01*
X117765476Y-85089285D01*
X117796428Y-85027380D01*
X117796428Y-84903571D01*
X117765476Y-84841666D01*
X117734523Y-84810714D01*
X117672619Y-84779761D01*
X132857142Y-81244047D02*
X132640476Y-80934523D01*
X132485714Y-81244047D02*
X132485714Y-80594047D01*
X132733333Y-80594047D01*
X132795238Y-80625000D01*
X132826190Y-80655952D01*
X132857142Y-80717857D01*
X132857142Y-80810714D01*
X132826190Y-80872619D01*
X132795238Y-80903571D01*
X132733333Y-80934523D01*
X132485714Y-80934523D01*
X133073809Y-80594047D02*
X133476190Y-80594047D01*
X133259523Y-80841666D01*
X133352380Y-80841666D01*
X133414285Y-80872619D01*
X133445238Y-80903571D01*
X133476190Y-80965476D01*
X133476190Y-81120238D01*
X133445238Y-81182142D01*
X133414285Y-81213095D01*
X133352380Y-81244047D01*
X133166666Y-81244047D01*
X133104761Y-81213095D01*
X133073809Y-81182142D01*
X133878571Y-80594047D02*
X133940476Y-80594047D01*
X134002380Y-80625000D01*
X134033333Y-80655952D01*
X134064285Y-80717857D01*
X134095238Y-80841666D01*
X134095238Y-80996428D01*
X134064285Y-81120238D01*
X134033333Y-81182142D01*
X134002380Y-81213095D01*
X133940476Y-81244047D01*
X133878571Y-81244047D01*
X133816666Y-81213095D01*
X133785714Y-81182142D01*
X133754761Y-81120238D01*
X133723809Y-80996428D01*
X133723809Y-80841666D01*
X133754761Y-80717857D01*
X133785714Y-80655952D01*
X133816666Y-80625000D01*
X133878571Y-80594047D01*
X139357142Y-69319047D02*
X139140476Y-69009523D01*
X138985714Y-69319047D02*
X138985714Y-68669047D01*
X139233333Y-68669047D01*
X139295238Y-68700000D01*
X139326190Y-68730952D01*
X139357142Y-68792857D01*
X139357142Y-68885714D01*
X139326190Y-68947619D01*
X139295238Y-68978571D01*
X139233333Y-69009523D01*
X138985714Y-69009523D01*
X139573809Y-68669047D02*
X139976190Y-68669047D01*
X139759523Y-68916666D01*
X139852380Y-68916666D01*
X139914285Y-68947619D01*
X139945238Y-68978571D01*
X139976190Y-69040476D01*
X139976190Y-69195238D01*
X139945238Y-69257142D01*
X139914285Y-69288095D01*
X139852380Y-69319047D01*
X139666666Y-69319047D01*
X139604761Y-69288095D01*
X139573809Y-69257142D01*
X140595238Y-69319047D02*
X140223809Y-69319047D01*
X140409523Y-69319047D02*
X140409523Y-68669047D01*
X140347619Y-68761904D01*
X140285714Y-68823809D01*
X140223809Y-68854761D01*
X153657142Y-74219047D02*
X153440476Y-73909523D01*
X153285714Y-74219047D02*
X153285714Y-73569047D01*
X153533333Y-73569047D01*
X153595238Y-73600000D01*
X153626190Y-73630952D01*
X153657142Y-73692857D01*
X153657142Y-73785714D01*
X153626190Y-73847619D01*
X153595238Y-73878571D01*
X153533333Y-73909523D01*
X153285714Y-73909523D01*
X153873809Y-73569047D02*
X154276190Y-73569047D01*
X154059523Y-73816666D01*
X154152380Y-73816666D01*
X154214285Y-73847619D01*
X154245238Y-73878571D01*
X154276190Y-73940476D01*
X154276190Y-74095238D01*
X154245238Y-74157142D01*
X154214285Y-74188095D01*
X154152380Y-74219047D01*
X153966666Y-74219047D01*
X153904761Y-74188095D01*
X153873809Y-74157142D01*
X154523809Y-73630952D02*
X154554761Y-73600000D01*
X154616666Y-73569047D01*
X154771428Y-73569047D01*
X154833333Y-73600000D01*
X154864285Y-73630952D01*
X154895238Y-73692857D01*
X154895238Y-73754761D01*
X154864285Y-73847619D01*
X154492857Y-74219047D01*
X154895238Y-74219047D01*
X138039047Y-78952857D02*
X137729523Y-79169523D01*
X138039047Y-79324285D02*
X137389047Y-79324285D01*
X137389047Y-79076666D01*
X137420000Y-79014761D01*
X137450952Y-78983809D01*
X137512857Y-78952857D01*
X137605714Y-78952857D01*
X137667619Y-78983809D01*
X137698571Y-79014761D01*
X137729523Y-79076666D01*
X137729523Y-79324285D01*
X137389047Y-78736190D02*
X137389047Y-78333809D01*
X137636666Y-78550476D01*
X137636666Y-78457619D01*
X137667619Y-78395714D01*
X137698571Y-78364761D01*
X137760476Y-78333809D01*
X137915238Y-78333809D01*
X137977142Y-78364761D01*
X138008095Y-78395714D01*
X138039047Y-78457619D01*
X138039047Y-78643333D01*
X138008095Y-78705238D01*
X137977142Y-78736190D01*
X137389047Y-78117142D02*
X137389047Y-77714761D01*
X137636666Y-77931428D01*
X137636666Y-77838571D01*
X137667619Y-77776666D01*
X137698571Y-77745714D01*
X137760476Y-77714761D01*
X137915238Y-77714761D01*
X137977142Y-77745714D01*
X138008095Y-77776666D01*
X138039047Y-77838571D01*
X138039047Y-78024285D01*
X138008095Y-78086190D01*
X137977142Y-78117142D01*
X145319047Y-92217857D02*
X145009523Y-92434523D01*
X145319047Y-92589285D02*
X144669047Y-92589285D01*
X144669047Y-92341666D01*
X144700000Y-92279761D01*
X144730952Y-92248809D01*
X144792857Y-92217857D01*
X144885714Y-92217857D01*
X144947619Y-92248809D01*
X144978571Y-92279761D01*
X145009523Y-92341666D01*
X145009523Y-92589285D01*
X144669047Y-92001190D02*
X144669047Y-91598809D01*
X144916666Y-91815476D01*
X144916666Y-91722619D01*
X144947619Y-91660714D01*
X144978571Y-91629761D01*
X145040476Y-91598809D01*
X145195238Y-91598809D01*
X145257142Y-91629761D01*
X145288095Y-91660714D01*
X145319047Y-91722619D01*
X145319047Y-91908333D01*
X145288095Y-91970238D01*
X145257142Y-92001190D01*
X144885714Y-91041666D02*
X145319047Y-91041666D01*
X144638095Y-91196428D02*
X145102380Y-91351190D01*
X145102380Y-90948809D01*
X127369047Y-84842857D02*
X127059523Y-85059523D01*
X127369047Y-85214285D02*
X126719047Y-85214285D01*
X126719047Y-84966666D01*
X126750000Y-84904761D01*
X126780952Y-84873809D01*
X126842857Y-84842857D01*
X126935714Y-84842857D01*
X126997619Y-84873809D01*
X127028571Y-84904761D01*
X127059523Y-84966666D01*
X127059523Y-85214285D01*
X126719047Y-84626190D02*
X126719047Y-84223809D01*
X126966666Y-84440476D01*
X126966666Y-84347619D01*
X126997619Y-84285714D01*
X127028571Y-84254761D01*
X127090476Y-84223809D01*
X127245238Y-84223809D01*
X127307142Y-84254761D01*
X127338095Y-84285714D01*
X127369047Y-84347619D01*
X127369047Y-84533333D01*
X127338095Y-84595238D01*
X127307142Y-84626190D01*
X126719047Y-83635714D02*
X126719047Y-83945238D01*
X127028571Y-83976190D01*
X126997619Y-83945238D01*
X126966666Y-83883333D01*
X126966666Y-83728571D01*
X126997619Y-83666666D01*
X127028571Y-83635714D01*
X127090476Y-83604761D01*
X127245238Y-83604761D01*
X127307142Y-83635714D01*
X127338095Y-83666666D01*
X127369047Y-83728571D01*
X127369047Y-83883333D01*
X127338095Y-83945238D01*
X127307142Y-83976190D01*
X132888095Y-51402380D02*
X132888095Y-52211904D01*
X132935714Y-52307142D01*
X132983333Y-52354761D01*
X133078571Y-52402380D01*
X133269047Y-52402380D01*
X133364285Y-52354761D01*
X133411904Y-52307142D01*
X133459523Y-52211904D01*
X133459523Y-51402380D01*
X133840476Y-51402380D02*
X134459523Y-51402380D01*
X134126190Y-51783333D01*
X134269047Y-51783333D01*
X134364285Y-51830952D01*
X134411904Y-51878571D01*
X134459523Y-51973809D01*
X134459523Y-52211904D01*
X134411904Y-52307142D01*
X134364285Y-52354761D01*
X134269047Y-52402380D01*
X133983333Y-52402380D01*
X133888095Y-52354761D01*
X133840476Y-52307142D01*
X109752380Y-60486904D02*
X110561904Y-60486904D01*
X110657142Y-60439285D01*
X110704761Y-60391666D01*
X110752380Y-60296428D01*
X110752380Y-60105952D01*
X110704761Y-60010714D01*
X110657142Y-59963095D01*
X110561904Y-59915476D01*
X109752380Y-59915476D01*
X109752380Y-59010714D02*
X109752380Y-59201190D01*
X109800000Y-59296428D01*
X109847619Y-59344047D01*
X109990476Y-59439285D01*
X110180952Y-59486904D01*
X110561904Y-59486904D01*
X110657142Y-59439285D01*
X110704761Y-59391666D01*
X110752380Y-59296428D01*
X110752380Y-59105952D01*
X110704761Y-59010714D01*
X110657142Y-58963095D01*
X110561904Y-58915476D01*
X110323809Y-58915476D01*
X110228571Y-58963095D01*
X110180952Y-59010714D01*
X110133333Y-59105952D01*
X110133333Y-59296428D01*
X110180952Y-59391666D01*
X110228571Y-59439285D01*
X110323809Y-59486904D01*
X111403571Y-66496666D02*
X111403571Y-66715333D01*
X111744047Y-66715333D02*
X111094047Y-66715333D01*
X111094047Y-66402952D01*
X111403571Y-65934380D02*
X111434523Y-65840666D01*
X111465476Y-65809428D01*
X111527380Y-65778190D01*
X111620238Y-65778190D01*
X111682142Y-65809428D01*
X111713095Y-65840666D01*
X111744047Y-65903142D01*
X111744047Y-66153047D01*
X111094047Y-66153047D01*
X111094047Y-65934380D01*
X111125000Y-65871904D01*
X111155952Y-65840666D01*
X111217857Y-65809428D01*
X111279761Y-65809428D01*
X111341666Y-65840666D01*
X111372619Y-65871904D01*
X111403571Y-65934380D01*
X111403571Y-66153047D01*
X111744047Y-65153428D02*
X111744047Y-65528285D01*
X111744047Y-65340857D02*
X111094047Y-65340857D01*
X111186904Y-65403333D01*
X111248809Y-65465809D01*
X111279761Y-65528285D01*
X172759166Y-95028571D02*
X172425833Y-95028571D01*
X172425833Y-95552380D02*
X172425833Y-94552380D01*
X172902023Y-94552380D01*
X173616309Y-95028571D02*
X173759166Y-95076190D01*
X173806785Y-95123809D01*
X173854404Y-95219047D01*
X173854404Y-95361904D01*
X173806785Y-95457142D01*
X173759166Y-95504761D01*
X173663928Y-95552380D01*
X173282976Y-95552380D01*
X173282976Y-94552380D01*
X173616309Y-94552380D01*
X173711547Y-94600000D01*
X173759166Y-94647619D01*
X173806785Y-94742857D01*
X173806785Y-94838095D01*
X173759166Y-94933333D01*
X173711547Y-94980952D01*
X173616309Y-95028571D01*
X173282976Y-95028571D01*
X174235357Y-94647619D02*
X174282976Y-94600000D01*
X174378214Y-94552380D01*
X174616309Y-94552380D01*
X174711547Y-94600000D01*
X174759166Y-94647619D01*
X174806785Y-94742857D01*
X174806785Y-94838095D01*
X174759166Y-94980952D01*
X174187738Y-95552380D01*
X174806785Y-95552380D01*
X164741666Y-59808571D02*
X164408333Y-59808571D01*
X164408333Y-60332380D02*
X164408333Y-59332380D01*
X164884523Y-59332380D01*
X165598809Y-59808571D02*
X165741666Y-59856190D01*
X165789285Y-59903809D01*
X165836904Y-59999047D01*
X165836904Y-60141904D01*
X165789285Y-60237142D01*
X165741666Y-60284761D01*
X165646428Y-60332380D01*
X165265476Y-60332380D01*
X165265476Y-59332380D01*
X165598809Y-59332380D01*
X165694047Y-59380000D01*
X165741666Y-59427619D01*
X165789285Y-59522857D01*
X165789285Y-59618095D01*
X165741666Y-59713333D01*
X165694047Y-59760952D01*
X165598809Y-59808571D01*
X165265476Y-59808571D01*
X166170238Y-59332380D02*
X166789285Y-59332380D01*
X166455952Y-59713333D01*
X166598809Y-59713333D01*
X166694047Y-59760952D01*
X166741666Y-59808571D01*
X166789285Y-59903809D01*
X166789285Y-60141904D01*
X166741666Y-60237142D01*
X166694047Y-60284761D01*
X166598809Y-60332380D01*
X166313095Y-60332380D01*
X166217857Y-60284761D01*
X166170238Y-60237142D01*
X111098571Y-85683333D02*
X111098571Y-86016666D01*
X111622380Y-86016666D02*
X110622380Y-86016666D01*
X110622380Y-85540476D01*
X111098571Y-84826190D02*
X111146190Y-84683333D01*
X111193809Y-84635714D01*
X111289047Y-84588095D01*
X111431904Y-84588095D01*
X111527142Y-84635714D01*
X111574761Y-84683333D01*
X111622380Y-84778571D01*
X111622380Y-85159523D01*
X110622380Y-85159523D01*
X110622380Y-84826190D01*
X110670000Y-84730952D01*
X110717619Y-84683333D01*
X110812857Y-84635714D01*
X110908095Y-84635714D01*
X111003333Y-84683333D01*
X111050952Y-84730952D01*
X111098571Y-84826190D01*
X111098571Y-85159523D01*
X110955714Y-83730952D02*
X111622380Y-83730952D01*
X110574761Y-83969047D02*
X111289047Y-84207142D01*
X111289047Y-83588095D01*
X164932142Y-59647380D02*
X164598809Y-59171190D01*
X164360714Y-59647380D02*
X164360714Y-58647380D01*
X164741666Y-58647380D01*
X164836904Y-58695000D01*
X164884523Y-58742619D01*
X164932142Y-58837857D01*
X164932142Y-58980714D01*
X164884523Y-59075952D01*
X164836904Y-59123571D01*
X164741666Y-59171190D01*
X164360714Y-59171190D01*
X165313095Y-58742619D02*
X165360714Y-58695000D01*
X165455952Y-58647380D01*
X165694047Y-58647380D01*
X165789285Y-58695000D01*
X165836904Y-58742619D01*
X165884523Y-58837857D01*
X165884523Y-58933095D01*
X165836904Y-59075952D01*
X165265476Y-59647380D01*
X165884523Y-59647380D01*
X166455952Y-59075952D02*
X166360714Y-59028333D01*
X166313095Y-58980714D01*
X166265476Y-58885476D01*
X166265476Y-58837857D01*
X166313095Y-58742619D01*
X166360714Y-58695000D01*
X166455952Y-58647380D01*
X166646428Y-58647380D01*
X166741666Y-58695000D01*
X166789285Y-58742619D01*
X166836904Y-58837857D01*
X166836904Y-58885476D01*
X166789285Y-58980714D01*
X166741666Y-59028333D01*
X166646428Y-59075952D01*
X166455952Y-59075952D01*
X166360714Y-59123571D01*
X166313095Y-59171190D01*
X166265476Y-59266428D01*
X166265476Y-59456904D01*
X166313095Y-59552142D01*
X166360714Y-59599761D01*
X166455952Y-59647380D01*
X166646428Y-59647380D01*
X166741666Y-59599761D01*
X166789285Y-59552142D01*
X166836904Y-59456904D01*
X166836904Y-59266428D01*
X166789285Y-59171190D01*
X166741666Y-59123571D01*
X166646428Y-59075952D01*
X147092857Y-101379285D02*
X147092857Y-101986428D01*
X147121428Y-102057857D01*
X147150000Y-102093571D01*
X147207142Y-102129285D01*
X147321428Y-102129285D01*
X147378571Y-102093571D01*
X147407142Y-102057857D01*
X147435714Y-101986428D01*
X147435714Y-101379285D01*
X147807142Y-101700714D02*
X147750000Y-101665000D01*
X147721428Y-101629285D01*
X147692857Y-101557857D01*
X147692857Y-101522142D01*
X147721428Y-101450714D01*
X147750000Y-101415000D01*
X147807142Y-101379285D01*
X147921428Y-101379285D01*
X147978571Y-101415000D01*
X148007142Y-101450714D01*
X148035714Y-101522142D01*
X148035714Y-101557857D01*
X148007142Y-101629285D01*
X147978571Y-101665000D01*
X147921428Y-101700714D01*
X147807142Y-101700714D01*
X147750000Y-101736428D01*
X147721428Y-101772142D01*
X147692857Y-101843571D01*
X147692857Y-101986428D01*
X147721428Y-102057857D01*
X147750000Y-102093571D01*
X147807142Y-102129285D01*
X147921428Y-102129285D01*
X147978571Y-102093571D01*
X148007142Y-102057857D01*
X148035714Y-101986428D01*
X148035714Y-101843571D01*
X148007142Y-101772142D01*
X147978571Y-101736428D01*
X147921428Y-101700714D01*
M02*
