M48
; DRILL file {KiCad (5.1.10)-1} date 12/23/21 10:57:49
; FORMAT={-:-/ absolute / metric / decimal}
; #@! TF.CreationDate,2021-12-23T10:57:49+03:00
; #@! TF.GenerationSoftware,Kicad,Pcbnew,(5.1.10)-1
; #@! TF.FileFunction,Plated,1,4,PTH
FMAT,2
METRIC
T1C0.250
T2C0.300
T3C0.400
T4C0.600
T5C0.650
T6C0.850
T7C0.900
T8C1.200
%
G90
G05
T1
X114.25Y-79.69
X117.72Y-83.39
X118.91Y-83.46
X119.19Y-86.2
X119.55Y-92.49
X119.724Y-91.071
X120.68Y-90.24
X121.28Y-84.88
X121.58Y-65.33
X121.99Y-84.96
X122.58Y-65.24
X122.78Y-93.81
X123.14Y-83.3
X123.14Y-91.05
X124.05Y-83.27
X124.24Y-85.8
X124.75Y-69.37
X124.76Y-93.44
X124.95Y-87.69
X125.11Y-83.3
X125.16Y-85.61
X125.36Y-90.89
X125.73Y-87.63
X126.26Y-56.97
X126.3Y-69.29
X126.334Y-63.596
X126.38Y-84.03
X126.4Y-61.57
X126.78Y-62.94
X126.94Y-90.94
X126.965Y-92.646
X127.036Y-96.6
X127.2Y-56.95
X127.55Y-63.47
X127.64Y-87.75
X128.19Y-87.6
X128.25Y-56.44
X128.52Y-93.05
X129.23Y-58.61
X129.4Y-63.5
X130.048Y-86.106
X130.2Y-63.5
X130.22Y-87.63
X130.556Y-77.324
X130.556Y-78.124
X131.8Y-68.2
X132.09Y-98.45
X132.225Y-66.692
X132.305Y-77.949
X132.5Y-82.88
X132.871Y-78.515
X133.829Y-78.203
X134.395Y-78.769
X134.471Y-91.794
X135.607Y-77.949
X135.636Y-81.642
X135.636Y-82.442
X135.77Y-63.52
X135.89Y-83.52
X135.89Y-84.32
X135.987Y-88.157
X136.06Y-59.61
X136.17Y-86.43
X136.17Y-87.23
X136.173Y-78.515
X136.546Y-88.716
X137.131Y-78.457
X137.32Y-89.93
X137.32Y-90.73
X137.35Y-60.76
X137.697Y-79.023
X137.843Y-89.086
X138.72Y-63.43
X138.77Y-88.62
X139.55Y-86.01
X139.61Y-79.43
X140.54Y-85.97
X141.2Y-83.3
X141.33Y-79.38
X141.66Y-64.11
X141.79Y-86.1
X142.18Y-89.8
X142.632Y-64.21
X143.04Y-61.94
X143.19Y-80.19
X143.21Y-83.42
X143.36Y-91.67
X144.6Y-69.97
X144.7Y-82.55
X145.06Y-62.72
X145.705Y-69.46
X145.78Y-82.82
X145.85Y-86.03
X146.12Y-59.39
X146.174Y-70.466
X146.48Y-74.46
X146.93Y-80.15
X147.025Y-72.275
X147.38Y-67.04
X147.61Y-60.54
X147.775Y-85.165
X147.86Y-81.0
X148.335Y-61.19
X148.36Y-85.75
X149.06Y-63.515
X149.35Y-83.65
X149.795Y-60.825
X150.06Y-67.64
X150.196Y-66.932
X150.25Y-85.55
X150.3Y-56.87
X151.1Y-56.87
X151.91Y-64.36
X151.91Y-73.74
X151.935Y-69.965
X152.07Y-62.36
X152.86Y-73.79
X153.0Y-84.974
X153.06Y-60.45
X153.294Y-79.14
X153.78Y-67.68
X153.914Y-69.624
X154.452Y-76.6
X155.26Y-64.44
X156.046Y-79.14
X156.21Y-60.04
X157.01Y-60.04
X157.02Y-62.79
X158.2Y-74.02
X158.496Y-81.534
X158.653Y-68.527
X159.004Y-81.026
X159.53Y-68.33
X159.72Y-79.62
X160.65Y-88.55
X161.65Y-79.15
X162.22Y-86.454
X162.86Y-72.34
X164.23Y-81.83
X165.02Y-79.19
X165.83Y-88.4
X168.43Y-59.69
X169.926Y-67.56
X169.926Y-68.36
X170.15Y-72.06
X170.15Y-72.86
X170.18Y-63.06
X170.18Y-63.86
X170.18Y-64.56
X170.18Y-65.36
X170.18Y-66.06
X170.18Y-66.86
X170.18Y-69.06
X170.18Y-69.86
X170.18Y-70.56
X170.18Y-71.36
X170.908Y-73.56
X170.908Y-74.36
X170.913Y-75.06
X170.977Y-75.795
X171.11Y-80.88
X171.64Y-57.11
X173.31Y-92.26
X173.33Y-83.2
X173.609Y-76.56
X173.609Y-77.36
X173.87Y-85.683
T2
X108.0Y-86.9
X108.0Y-89.9
X108.0Y-91.4
X108.0Y-92.9
X108.0Y-94.4
X108.15Y-72.05
X108.15Y-73.55
X108.15Y-75.05
X108.15Y-76.55
X111.15Y-84.85
X111.2Y-66.95
X114.2Y-68.1
X114.2Y-87.15
X114.708Y-68.548
X114.864Y-85.686
X115.3Y-84.4
X116.2Y-86.218
X116.25Y-69.35
X118.79Y-86.816
X122.998Y-86.225
X125.14Y-88.95
X125.14Y-89.6
X125.24Y-94.0
X126.99Y-87.8
X127.64Y-90.75
X128.19Y-88.25
X128.19Y-90.25
X128.24Y-88.95
X128.24Y-89.6
X129.59Y-92.756
X130.89Y-93.15
X132.59Y-87.554
X132.64Y-86.554
X133.09Y-98.35
X133.39Y-93.5
X135.64Y-94.9
X144.65Y-80.55
X144.65Y-81.3
X145.724Y-82.05
X146.46Y-69.096
X146.51Y-63.634
X148.01Y-61.74
X149.81Y-62.988
X151.0Y-77.6
X151.11Y-60.207
X151.21Y-62.54
X151.96Y-67.84
X152.01Y-65.69
X152.01Y-66.39
X152.066Y-66.99
X152.61Y-64.29
X152.843Y-88.534
X153.06Y-73.09
X153.246Y-64.521
X153.86Y-64.49
X154.51Y-64.49
X154.552Y-67.443
X155.108Y-73.04
X155.11Y-65.69
X155.11Y-66.39
X155.378Y-69.84
X155.756Y-70.594
X155.76Y-74.53
X155.805Y-82.583
X156.412Y-73.04
X156.454Y-76.6
X156.51Y-69.59
X156.684Y-61.79
X157.71Y-62.09
X158.71Y-69.44
X160.36Y-69.89
X160.57Y-81.919
X160.86Y-74.0
X160.932Y-84.974
X161.45Y-56.5
X161.96Y-70.59
X163.05Y-76.504
X163.35Y-88.2
X164.05Y-76.504
X164.355Y-79.583
X164.45Y-54.25
X164.45Y-56.6
X166.923Y-56.75
X170.97Y-81.67
X173.45Y-54.3
T3
X106.08Y-52.58
X107.94Y-69.05
X111.41Y-61.85
X117.38Y-55.76
X117.77Y-52.62
X120.142Y-63.243
X120.86Y-55.67
X122.174Y-63.243
X124.19Y-96.7
X124.28Y-54.35
X127.29Y-55.31
X130.89Y-85.743
X131.79Y-93.45
X135.382Y-58.928
X137.0Y-85.22
X137.62Y-80.87
X138.412Y-65.14
X139.395Y-65.405
X140.28Y-90.34
X141.97Y-56.92
X145.41Y-89.79
X146.33Y-60.39
X146.421Y-68.04
X158.71Y-62.34
X159.11Y-90.9
T5
X163.78Y-95.49
X163.78Y-96.76
X165.05Y-95.49
X165.05Y-96.76
X166.32Y-95.49
X166.32Y-96.76
X167.59Y-95.49
X167.59Y-96.76
X168.86Y-95.49
X168.86Y-96.76
T6
X150.03Y-94.72
X155.03Y-94.72
T8
X105.58Y-57.74
X105.58Y-61.24
T4
G00X149.03Y-97.77
M15
G01X149.03Y-97.07
M16
G05
G00X156.03Y-97.07
M15
G01X156.03Y-97.77
M16
G05
T7
G00X103.2Y-65.3
M15
G01X102.0Y-65.3
M16
G05
G00X103.2Y-79.8
M15
G01X102.0Y-79.8
M16
G05
G00X103.2Y-83.15
M15
G01X102.0Y-83.15
M16
G05
G00X103.2Y-97.65
M15
G01X102.0Y-97.65
M16
G05
G00X109.74Y-65.3
M15
G01X108.54Y-65.3
M16
G05
G00X109.74Y-79.8
M15
G01X108.54Y-79.8
M16
G05
G00X109.74Y-83.15
M15
G01X108.54Y-83.15
M16
G05
G00X109.74Y-97.65
M15
G01X108.54Y-97.65
M16
G05
T0
M30
