G04 #@! TF.GenerationSoftware,KiCad,Pcbnew,(5.1.4-0)*
G04 #@! TF.CreationDate,2020-11-25T23:13:14+03:00*
G04 #@! TF.ProjectId,hdmi_to_mipi-dsi_converter,68646d69-5f74-46f5-9f6d-6970692d6473,rev?*
G04 #@! TF.SameCoordinates,Original*
G04 #@! TF.FileFunction,Legend,Top*
G04 #@! TF.FilePolarity,Positive*
%FSLAX46Y46*%
G04 Gerber Fmt 4.6, Leading zero omitted, Abs format (unit mm)*
G04 Created by KiCad (PCBNEW (5.1.4-0)) date 2020-11-25 23:13:14*
%MOMM*%
%LPD*%
G04 APERTURE LIST*
%ADD10C,0.150000*%
%ADD11C,0.200000*%
%ADD12C,0.120000*%
%ADD13C,0.125000*%
%ADD14C,0.100000*%
%ADD15C,0.152400*%
%ADD16C,0.137500*%
G04 APERTURE END LIST*
D10*
X128158571Y-70321904D02*
X127587142Y-70321904D01*
X127872857Y-70321904D02*
X127872857Y-69521904D01*
X127777619Y-69636190D01*
X127682380Y-69712380D01*
X127587142Y-69750476D01*
X128491904Y-69788571D02*
X128730000Y-70321904D01*
X128968095Y-69788571D01*
X129491904Y-69864761D02*
X129396666Y-69826666D01*
X129349047Y-69788571D01*
X129301428Y-69712380D01*
X129301428Y-69674285D01*
X129349047Y-69598095D01*
X129396666Y-69560000D01*
X129491904Y-69521904D01*
X129682380Y-69521904D01*
X129777619Y-69560000D01*
X129825238Y-69598095D01*
X129872857Y-69674285D01*
X129872857Y-69712380D01*
X129825238Y-69788571D01*
X129777619Y-69826666D01*
X129682380Y-69864761D01*
X129491904Y-69864761D01*
X129396666Y-69902857D01*
X129349047Y-69940952D01*
X129301428Y-70017142D01*
X129301428Y-70169523D01*
X129349047Y-70245714D01*
X129396666Y-70283809D01*
X129491904Y-70321904D01*
X129682380Y-70321904D01*
X129777619Y-70283809D01*
X129825238Y-70245714D01*
X129872857Y-70169523D01*
X129872857Y-70017142D01*
X129825238Y-69940952D01*
X129777619Y-69902857D01*
X129682380Y-69864761D01*
X130808571Y-79611904D02*
X130237142Y-79611904D01*
X130522857Y-79611904D02*
X130522857Y-78811904D01*
X130427619Y-78926190D01*
X130332380Y-79002380D01*
X130237142Y-79040476D01*
X131141904Y-79078571D02*
X131380000Y-79611904D01*
X131618095Y-79078571D01*
X132522857Y-79611904D02*
X131951428Y-79611904D01*
X132237142Y-79611904D02*
X132237142Y-78811904D01*
X132141904Y-78926190D01*
X132046666Y-79002380D01*
X131951428Y-79040476D01*
X146408571Y-88521904D02*
X145837142Y-88521904D01*
X146122857Y-88521904D02*
X146122857Y-87721904D01*
X146027619Y-87836190D01*
X145932380Y-87912380D01*
X145837142Y-87950476D01*
X146741904Y-87988571D02*
X146980000Y-88521904D01*
X147218095Y-87988571D01*
X147551428Y-87798095D02*
X147599047Y-87760000D01*
X147694285Y-87721904D01*
X147932380Y-87721904D01*
X148027619Y-87760000D01*
X148075238Y-87798095D01*
X148122857Y-87874285D01*
X148122857Y-87950476D01*
X148075238Y-88064761D01*
X147503809Y-88521904D01*
X148122857Y-88521904D01*
X120038095Y-80850000D02*
X119942857Y-80811904D01*
X119800000Y-80811904D01*
X119657142Y-80850000D01*
X119561904Y-80926190D01*
X119514285Y-81002380D01*
X119466666Y-81154761D01*
X119466666Y-81269047D01*
X119514285Y-81421428D01*
X119561904Y-81497619D01*
X119657142Y-81573809D01*
X119800000Y-81611904D01*
X119895238Y-81611904D01*
X120038095Y-81573809D01*
X120085714Y-81535714D01*
X120085714Y-81269047D01*
X119895238Y-81269047D01*
X120514285Y-81611904D02*
X120514285Y-80811904D01*
X121085714Y-81611904D01*
X121085714Y-80811904D01*
X121561904Y-81611904D02*
X121561904Y-80811904D01*
X121800000Y-80811904D01*
X121942857Y-80850000D01*
X122038095Y-80926190D01*
X122085714Y-81002380D01*
X122133333Y-81154761D01*
X122133333Y-81269047D01*
X122085714Y-81421428D01*
X122038095Y-81497619D01*
X121942857Y-81573809D01*
X121800000Y-81611904D01*
X121561904Y-81611904D01*
X131438095Y-53850000D02*
X131342857Y-53811904D01*
X131200000Y-53811904D01*
X131057142Y-53850000D01*
X130961904Y-53926190D01*
X130914285Y-54002380D01*
X130866666Y-54154761D01*
X130866666Y-54269047D01*
X130914285Y-54421428D01*
X130961904Y-54497619D01*
X131057142Y-54573809D01*
X131200000Y-54611904D01*
X131295238Y-54611904D01*
X131438095Y-54573809D01*
X131485714Y-54535714D01*
X131485714Y-54269047D01*
X131295238Y-54269047D01*
X131914285Y-54611904D02*
X131914285Y-53811904D01*
X132485714Y-54611904D01*
X132485714Y-53811904D01*
X132961904Y-54611904D02*
X132961904Y-53811904D01*
X133200000Y-53811904D01*
X133342857Y-53850000D01*
X133438095Y-53926190D01*
X133485714Y-54002380D01*
X133533333Y-54154761D01*
X133533333Y-54269047D01*
X133485714Y-54421428D01*
X133438095Y-54497619D01*
X133342857Y-54573809D01*
X133200000Y-54611904D01*
X132961904Y-54611904D01*
D11*
X158173607Y-94600000D02*
G75*
G03X158173607Y-94600000I-223607J0D01*
G01*
D12*
X158750000Y-102500000D02*
X158750000Y-102000000D01*
X159250000Y-102500000D02*
X159250000Y-102000000D01*
X160000000Y-102250000D02*
X158000000Y-102250000D01*
X158750000Y-102250000D02*
X159250000Y-102500000D01*
X159250000Y-102000000D02*
X158750000Y-102250000D01*
X121200000Y-67250000D02*
X120950000Y-66750000D01*
X120700000Y-67250000D02*
X121200000Y-67250000D01*
X120950000Y-66750000D02*
X120700000Y-67250000D01*
X120700000Y-66750000D02*
X121200000Y-66750000D01*
X120950000Y-68000000D02*
X120950000Y-66000000D01*
X180750000Y-90000000D02*
X180750000Y-90750000D01*
X176500000Y-90000000D02*
X180750000Y-90000000D01*
X176500000Y-90250000D02*
X176500000Y-90000000D01*
X176500000Y-90750000D02*
X176500000Y-90250000D01*
D13*
X177342857Y-91003571D02*
X177485714Y-91039285D01*
X177723809Y-91039285D01*
X177819047Y-91003571D01*
X177866666Y-90967857D01*
X177914285Y-90896428D01*
X177914285Y-90825000D01*
X177866666Y-90753571D01*
X177819047Y-90717857D01*
X177723809Y-90682142D01*
X177533333Y-90646428D01*
X177438095Y-90610714D01*
X177390476Y-90575000D01*
X177342857Y-90503571D01*
X177342857Y-90432142D01*
X177390476Y-90360714D01*
X177438095Y-90325000D01*
X177533333Y-90289285D01*
X177771428Y-90289285D01*
X177914285Y-90325000D01*
X178247619Y-90289285D02*
X178485714Y-91039285D01*
X178676190Y-90503571D01*
X178866666Y-91039285D01*
X179104761Y-90289285D01*
X179485714Y-91039285D02*
X179485714Y-90289285D01*
X179723809Y-90289285D01*
X179866666Y-90325000D01*
X179961904Y-90396428D01*
X180009523Y-90467857D01*
X180057142Y-90610714D01*
X180057142Y-90717857D01*
X180009523Y-90860714D01*
X179961904Y-90932142D01*
X179866666Y-91003571D01*
X179723809Y-91039285D01*
X179485714Y-91039285D01*
X175432857Y-96736190D02*
X175432857Y-96236190D01*
X175867142Y-96736190D01*
X175867142Y-96236190D01*
X176663333Y-96688571D02*
X176627142Y-96712380D01*
X176518571Y-96736190D01*
X176446190Y-96736190D01*
X176337619Y-96712380D01*
X176265238Y-96664761D01*
X176229047Y-96617142D01*
X176192857Y-96521904D01*
X176192857Y-96450476D01*
X176229047Y-96355238D01*
X176265238Y-96307619D01*
X176337619Y-96260000D01*
X176446190Y-96236190D01*
X176518571Y-96236190D01*
X176627142Y-96260000D01*
X176663333Y-96283809D01*
X180882857Y-96736190D02*
X180882857Y-96236190D01*
X181317142Y-96736190D01*
X181317142Y-96236190D01*
X182113333Y-96688571D02*
X182077142Y-96712380D01*
X181968571Y-96736190D01*
X181896190Y-96736190D01*
X181787619Y-96712380D01*
X181715238Y-96664761D01*
X181679047Y-96617142D01*
X181642857Y-96521904D01*
X181642857Y-96450476D01*
X181679047Y-96355238D01*
X181715238Y-96307619D01*
X181787619Y-96260000D01*
X181896190Y-96236190D01*
X181968571Y-96236190D01*
X182077142Y-96260000D01*
X182113333Y-96283809D01*
X180880952Y-94112380D02*
X180989523Y-94136190D01*
X181170476Y-94136190D01*
X181242857Y-94112380D01*
X181279047Y-94088571D01*
X181315238Y-94040952D01*
X181315238Y-93993333D01*
X181279047Y-93945714D01*
X181242857Y-93921904D01*
X181170476Y-93898095D01*
X181025714Y-93874285D01*
X180953333Y-93850476D01*
X180917142Y-93826666D01*
X180880952Y-93779047D01*
X180880952Y-93731428D01*
X180917142Y-93683809D01*
X180953333Y-93660000D01*
X181025714Y-93636190D01*
X181206666Y-93636190D01*
X181315238Y-93660000D01*
X181568571Y-93636190D02*
X181749523Y-94136190D01*
X181894285Y-93779047D01*
X182039047Y-94136190D01*
X182220000Y-93636190D01*
X182509523Y-94136190D02*
X182509523Y-93636190D01*
X182690476Y-93636190D01*
X182799047Y-93660000D01*
X182871428Y-93707619D01*
X182907619Y-93755238D01*
X182943809Y-93850476D01*
X182943809Y-93921904D01*
X182907619Y-94017142D01*
X182871428Y-94064761D01*
X182799047Y-94112380D01*
X182690476Y-94136190D01*
X182509523Y-94136190D01*
X183703809Y-94088571D02*
X183667619Y-94112380D01*
X183559047Y-94136190D01*
X183486666Y-94136190D01*
X183378095Y-94112380D01*
X183305714Y-94064761D01*
X183269523Y-94017142D01*
X183233333Y-93921904D01*
X183233333Y-93850476D01*
X183269523Y-93755238D01*
X183305714Y-93707619D01*
X183378095Y-93660000D01*
X183486666Y-93636190D01*
X183559047Y-93636190D01*
X183667619Y-93660000D01*
X183703809Y-93683809D01*
X184391428Y-94136190D02*
X184029523Y-94136190D01*
X184029523Y-93636190D01*
X184644761Y-94136190D02*
X184644761Y-93636190D01*
X185079047Y-94136190D02*
X184753333Y-93850476D01*
X185079047Y-93636190D02*
X184644761Y-93921904D01*
X180880476Y-95462380D02*
X180989047Y-95486190D01*
X181170000Y-95486190D01*
X181242380Y-95462380D01*
X181278571Y-95438571D01*
X181314761Y-95390952D01*
X181314761Y-95343333D01*
X181278571Y-95295714D01*
X181242380Y-95271904D01*
X181170000Y-95248095D01*
X181025238Y-95224285D01*
X180952857Y-95200476D01*
X180916666Y-95176666D01*
X180880476Y-95129047D01*
X180880476Y-95081428D01*
X180916666Y-95033809D01*
X180952857Y-95010000D01*
X181025238Y-94986190D01*
X181206190Y-94986190D01*
X181314761Y-95010000D01*
X181568095Y-94986190D02*
X181749047Y-95486190D01*
X181893809Y-95129047D01*
X182038571Y-95486190D01*
X182219523Y-94986190D01*
X182653809Y-94986190D02*
X182798571Y-94986190D01*
X182870952Y-95010000D01*
X182943333Y-95057619D01*
X182979523Y-95152857D01*
X182979523Y-95319523D01*
X182943333Y-95414761D01*
X182870952Y-95462380D01*
X182798571Y-95486190D01*
X182653809Y-95486190D01*
X182581428Y-95462380D01*
X182509047Y-95414761D01*
X182472857Y-95319523D01*
X182472857Y-95152857D01*
X182509047Y-95057619D01*
X182581428Y-95010000D01*
X182653809Y-94986190D01*
X180881428Y-98036190D02*
X180881428Y-97536190D01*
X181315714Y-98036190D01*
X181315714Y-97536190D01*
X182111904Y-98036190D02*
X181858571Y-97798095D01*
X181677619Y-98036190D02*
X181677619Y-97536190D01*
X181967142Y-97536190D01*
X182039523Y-97560000D01*
X182075714Y-97583809D01*
X182111904Y-97631428D01*
X182111904Y-97702857D01*
X182075714Y-97750476D01*
X182039523Y-97774285D01*
X181967142Y-97798095D01*
X181677619Y-97798095D01*
X182401428Y-98012380D02*
X182510000Y-98036190D01*
X182690952Y-98036190D01*
X182763333Y-98012380D01*
X182799523Y-97988571D01*
X182835714Y-97940952D01*
X182835714Y-97893333D01*
X182799523Y-97845714D01*
X182763333Y-97821904D01*
X182690952Y-97798095D01*
X182546190Y-97774285D01*
X182473809Y-97750476D01*
X182437619Y-97726666D01*
X182401428Y-97679047D01*
X182401428Y-97631428D01*
X182437619Y-97583809D01*
X182473809Y-97560000D01*
X182546190Y-97536190D01*
X182727142Y-97536190D01*
X182835714Y-97560000D01*
X183052857Y-97536190D02*
X183487142Y-97536190D01*
X183270000Y-98036190D02*
X183270000Y-97536190D01*
X175100952Y-97610000D02*
X175028571Y-97586190D01*
X174920000Y-97586190D01*
X174811428Y-97610000D01*
X174739047Y-97657619D01*
X174702857Y-97705238D01*
X174666666Y-97800476D01*
X174666666Y-97871904D01*
X174702857Y-97967142D01*
X174739047Y-98014761D01*
X174811428Y-98062380D01*
X174920000Y-98086190D01*
X174992380Y-98086190D01*
X175100952Y-98062380D01*
X175137142Y-98038571D01*
X175137142Y-97871904D01*
X174992380Y-97871904D01*
X175462857Y-98086190D02*
X175462857Y-97586190D01*
X175897142Y-98086190D01*
X175897142Y-97586190D01*
X176259047Y-98086190D02*
X176259047Y-97586190D01*
X176440000Y-97586190D01*
X176548571Y-97610000D01*
X176620952Y-97657619D01*
X176657142Y-97705238D01*
X176693333Y-97800476D01*
X176693333Y-97871904D01*
X176657142Y-97967142D01*
X176620952Y-98014761D01*
X176548571Y-98062380D01*
X176440000Y-98086190D01*
X176259047Y-98086190D01*
X175150952Y-94860000D02*
X175078571Y-94836190D01*
X174970000Y-94836190D01*
X174861428Y-94860000D01*
X174789047Y-94907619D01*
X174752857Y-94955238D01*
X174716666Y-95050476D01*
X174716666Y-95121904D01*
X174752857Y-95217142D01*
X174789047Y-95264761D01*
X174861428Y-95312380D01*
X174970000Y-95336190D01*
X175042380Y-95336190D01*
X175150952Y-95312380D01*
X175187142Y-95288571D01*
X175187142Y-95121904D01*
X175042380Y-95121904D01*
X175512857Y-95336190D02*
X175512857Y-94836190D01*
X175947142Y-95336190D01*
X175947142Y-94836190D01*
X176309047Y-95336190D02*
X176309047Y-94836190D01*
X176490000Y-94836190D01*
X176598571Y-94860000D01*
X176670952Y-94907619D01*
X176707142Y-94955238D01*
X176743333Y-95050476D01*
X176743333Y-95121904D01*
X176707142Y-95217142D01*
X176670952Y-95264761D01*
X176598571Y-95312380D01*
X176490000Y-95336190D01*
X176309047Y-95336190D01*
X175150952Y-93660000D02*
X175078571Y-93636190D01*
X174970000Y-93636190D01*
X174861428Y-93660000D01*
X174789047Y-93707619D01*
X174752857Y-93755238D01*
X174716666Y-93850476D01*
X174716666Y-93921904D01*
X174752857Y-94017142D01*
X174789047Y-94064761D01*
X174861428Y-94112380D01*
X174970000Y-94136190D01*
X175042380Y-94136190D01*
X175150952Y-94112380D01*
X175187142Y-94088571D01*
X175187142Y-93921904D01*
X175042380Y-93921904D01*
X175512857Y-94136190D02*
X175512857Y-93636190D01*
X175947142Y-94136190D01*
X175947142Y-93636190D01*
X176309047Y-94136190D02*
X176309047Y-93636190D01*
X176490000Y-93636190D01*
X176598571Y-93660000D01*
X176670952Y-93707619D01*
X176707142Y-93755238D01*
X176743333Y-93850476D01*
X176743333Y-93921904D01*
X176707142Y-94017142D01*
X176670952Y-94064761D01*
X176598571Y-94112380D01*
X176490000Y-94136190D01*
X176309047Y-94136190D01*
X174416666Y-92536190D02*
X174670000Y-93036190D01*
X174923333Y-92536190D01*
X175610952Y-92988571D02*
X175574761Y-93012380D01*
X175466190Y-93036190D01*
X175393809Y-93036190D01*
X175285238Y-93012380D01*
X175212857Y-92964761D01*
X175176666Y-92917142D01*
X175140476Y-92821904D01*
X175140476Y-92750476D01*
X175176666Y-92655238D01*
X175212857Y-92607619D01*
X175285238Y-92560000D01*
X175393809Y-92536190D01*
X175466190Y-92536190D01*
X175574761Y-92560000D01*
X175610952Y-92583809D01*
X176370952Y-92988571D02*
X176334761Y-93012380D01*
X176226190Y-93036190D01*
X176153809Y-93036190D01*
X176045238Y-93012380D01*
X175972857Y-92964761D01*
X175936666Y-92917142D01*
X175900476Y-92821904D01*
X175900476Y-92750476D01*
X175936666Y-92655238D01*
X175972857Y-92607619D01*
X176045238Y-92560000D01*
X176153809Y-92536190D01*
X176226190Y-92536190D01*
X176334761Y-92560000D01*
X176370952Y-92583809D01*
X180839523Y-92802380D02*
X180948095Y-92826190D01*
X181129047Y-92826190D01*
X181201428Y-92802380D01*
X181237619Y-92778571D01*
X181273809Y-92730952D01*
X181273809Y-92683333D01*
X181237619Y-92635714D01*
X181201428Y-92611904D01*
X181129047Y-92588095D01*
X180984285Y-92564285D01*
X180911904Y-92540476D01*
X180875714Y-92516666D01*
X180839523Y-92469047D01*
X180839523Y-92421428D01*
X180875714Y-92373809D01*
X180911904Y-92350000D01*
X180984285Y-92326190D01*
X181165238Y-92326190D01*
X181273809Y-92350000D01*
X181527142Y-92326190D02*
X181708095Y-92826190D01*
X181852857Y-92469047D01*
X181997619Y-92826190D01*
X182178571Y-92326190D01*
X182468095Y-92826190D02*
X182468095Y-92326190D01*
X182649047Y-92326190D01*
X182757619Y-92350000D01*
X182830000Y-92397619D01*
X182866190Y-92445238D01*
X182902380Y-92540476D01*
X182902380Y-92611904D01*
X182866190Y-92707142D01*
X182830000Y-92754761D01*
X182757619Y-92802380D01*
X182649047Y-92826190D01*
X182468095Y-92826190D01*
X183228095Y-92826190D02*
X183228095Y-92326190D01*
X183734761Y-92326190D02*
X183879523Y-92326190D01*
X183951904Y-92350000D01*
X184024285Y-92397619D01*
X184060476Y-92492857D01*
X184060476Y-92659523D01*
X184024285Y-92754761D01*
X183951904Y-92802380D01*
X183879523Y-92826190D01*
X183734761Y-92826190D01*
X183662380Y-92802380D01*
X183590000Y-92754761D01*
X183553809Y-92659523D01*
X183553809Y-92492857D01*
X183590000Y-92397619D01*
X183662380Y-92350000D01*
X183734761Y-92326190D01*
D12*
X120450000Y-69000000D02*
X120450000Y-68700000D01*
X116750000Y-69000000D02*
X120450000Y-69000000D01*
X116750000Y-68700000D02*
X116750000Y-69000000D01*
D10*
X116708571Y-69249285D02*
X116880000Y-69249285D01*
X116965714Y-69285000D01*
X117051428Y-69356428D01*
X117094285Y-69499285D01*
X117094285Y-69749285D01*
X117051428Y-69892142D01*
X116965714Y-69963571D01*
X116880000Y-69999285D01*
X116708571Y-69999285D01*
X116622857Y-69963571D01*
X116537142Y-69892142D01*
X116494285Y-69749285D01*
X116494285Y-69499285D01*
X116537142Y-69356428D01*
X116622857Y-69285000D01*
X116708571Y-69249285D01*
X117480000Y-69999285D02*
X117480000Y-69249285D01*
X117994285Y-69999285D01*
X117994285Y-69249285D01*
X119537142Y-69999285D02*
X119108571Y-69999285D01*
X119108571Y-69249285D01*
X119837142Y-69606428D02*
X120137142Y-69606428D01*
X120265714Y-69999285D02*
X119837142Y-69999285D01*
X119837142Y-69249285D01*
X120265714Y-69249285D01*
X120651428Y-69999285D02*
X120651428Y-69249285D01*
X120865714Y-69249285D01*
X120994285Y-69285000D01*
X121080000Y-69356428D01*
X121122857Y-69427857D01*
X121165714Y-69570714D01*
X121165714Y-69677857D01*
X121122857Y-69820714D01*
X121080000Y-69892142D01*
X120994285Y-69963571D01*
X120865714Y-69999285D01*
X120651428Y-69999285D01*
X135939523Y-55731904D02*
X135463333Y-55731904D01*
X135415714Y-56112857D01*
X135463333Y-56074761D01*
X135558571Y-56036666D01*
X135796666Y-56036666D01*
X135891904Y-56074761D01*
X135939523Y-56112857D01*
X135987142Y-56189047D01*
X135987142Y-56379523D01*
X135939523Y-56455714D01*
X135891904Y-56493809D01*
X135796666Y-56531904D01*
X135558571Y-56531904D01*
X135463333Y-56493809D01*
X135415714Y-56455714D01*
X136272857Y-55731904D02*
X136606190Y-56531904D01*
X136939523Y-55731904D01*
X139189523Y-61461904D02*
X139808571Y-61461904D01*
X139475238Y-61766666D01*
X139618095Y-61766666D01*
X139713333Y-61804761D01*
X139760952Y-61842857D01*
X139808571Y-61919047D01*
X139808571Y-62109523D01*
X139760952Y-62185714D01*
X139713333Y-62223809D01*
X139618095Y-62261904D01*
X139332380Y-62261904D01*
X139237142Y-62223809D01*
X139189523Y-62185714D01*
X140141904Y-61728571D02*
X140380000Y-62261904D01*
X140618095Y-61728571D01*
X140903809Y-61461904D02*
X141522857Y-61461904D01*
X141189523Y-61766666D01*
X141332380Y-61766666D01*
X141427619Y-61804761D01*
X141475238Y-61842857D01*
X141522857Y-61919047D01*
X141522857Y-62109523D01*
X141475238Y-62185714D01*
X141427619Y-62223809D01*
X141332380Y-62261904D01*
X141046666Y-62261904D01*
X140951428Y-62223809D01*
X140903809Y-62185714D01*
X92777619Y-73880952D02*
X92777619Y-73404761D01*
X92301428Y-73357142D01*
X92349047Y-73404761D01*
X92396666Y-73500000D01*
X92396666Y-73738095D01*
X92349047Y-73833333D01*
X92301428Y-73880952D01*
X92206190Y-73928571D01*
X91968095Y-73928571D01*
X91872857Y-73880952D01*
X91825238Y-73833333D01*
X91777619Y-73738095D01*
X91777619Y-73500000D01*
X91825238Y-73404761D01*
X91872857Y-73357142D01*
X92777619Y-74833333D02*
X92777619Y-74357142D01*
X92301428Y-74309523D01*
X92349047Y-74357142D01*
X92396666Y-74452380D01*
X92396666Y-74690476D01*
X92349047Y-74785714D01*
X92301428Y-74833333D01*
X92206190Y-74880952D01*
X91968095Y-74880952D01*
X91872857Y-74833333D01*
X91825238Y-74785714D01*
X91777619Y-74690476D01*
X91777619Y-74452380D01*
X91825238Y-74357142D01*
X91872857Y-74309523D01*
X91872857Y-75309523D02*
X91825238Y-75357142D01*
X91777619Y-75309523D01*
X91825238Y-75261904D01*
X91872857Y-75309523D01*
X91777619Y-75309523D01*
X92777619Y-75976190D02*
X92777619Y-76071428D01*
X92730000Y-76166666D01*
X92682380Y-76214285D01*
X92587142Y-76261904D01*
X92396666Y-76309523D01*
X92158571Y-76309523D01*
X91968095Y-76261904D01*
X91872857Y-76214285D01*
X91825238Y-76166666D01*
X91777619Y-76071428D01*
X91777619Y-75976190D01*
X91825238Y-75880952D01*
X91872857Y-75833333D01*
X91968095Y-75785714D01*
X92158571Y-75738095D01*
X92396666Y-75738095D01*
X92587142Y-75785714D01*
X92682380Y-75833333D01*
X92730000Y-75880952D01*
X92777619Y-75976190D01*
X92777619Y-76928571D02*
X92777619Y-77023809D01*
X92730000Y-77119047D01*
X92682380Y-77166666D01*
X92587142Y-77214285D01*
X92396666Y-77261904D01*
X92158571Y-77261904D01*
X91968095Y-77214285D01*
X91872857Y-77166666D01*
X91825238Y-77119047D01*
X91777619Y-77023809D01*
X91777619Y-76928571D01*
X91825238Y-76833333D01*
X91872857Y-76785714D01*
X91968095Y-76738095D01*
X92158571Y-76690476D01*
X92396666Y-76690476D01*
X92587142Y-76738095D01*
X92682380Y-76785714D01*
X92730000Y-76833333D01*
X92777619Y-76928571D01*
X92777619Y-77880952D02*
X92777619Y-77976190D01*
X92730000Y-78071428D01*
X92682380Y-78119047D01*
X92587142Y-78166666D01*
X92396666Y-78214285D01*
X92158571Y-78214285D01*
X91968095Y-78166666D01*
X91872857Y-78119047D01*
X91825238Y-78071428D01*
X91777619Y-77976190D01*
X91777619Y-77880952D01*
X91825238Y-77785714D01*
X91872857Y-77738095D01*
X91968095Y-77690476D01*
X92158571Y-77642857D01*
X92396666Y-77642857D01*
X92587142Y-77690476D01*
X92682380Y-77738095D01*
X92730000Y-77785714D01*
X92777619Y-77880952D01*
X91777619Y-79404761D02*
X92444285Y-79404761D01*
X92349047Y-79404761D02*
X92396666Y-79452380D01*
X92444285Y-79547619D01*
X92444285Y-79690476D01*
X92396666Y-79785714D01*
X92301428Y-79833333D01*
X91777619Y-79833333D01*
X92301428Y-79833333D02*
X92396666Y-79880952D01*
X92444285Y-79976190D01*
X92444285Y-80119047D01*
X92396666Y-80214285D01*
X92301428Y-80261904D01*
X91777619Y-80261904D01*
X91777619Y-80738095D02*
X92444285Y-80738095D01*
X92349047Y-80738095D02*
X92396666Y-80785714D01*
X92444285Y-80880952D01*
X92444285Y-81023809D01*
X92396666Y-81119047D01*
X92301428Y-81166666D01*
X91777619Y-81166666D01*
X92301428Y-81166666D02*
X92396666Y-81214285D01*
X92444285Y-81309523D01*
X92444285Y-81452380D01*
X92396666Y-81547619D01*
X92301428Y-81595238D01*
X91777619Y-81595238D01*
D12*
X93500000Y-50000000D02*
X93500000Y-105000000D01*
X102500000Y-50000000D02*
X92913579Y-50000000D01*
X102500000Y-105000000D02*
X92913579Y-105000000D01*
X93500000Y-105000000D02*
X92913579Y-103873496D01*
X93500000Y-105000000D02*
X94086421Y-103873496D01*
X93500000Y-50000000D02*
X92913579Y-51126504D01*
X93500000Y-50000000D02*
X94086421Y-51126504D01*
D10*
X141452380Y-48182380D02*
X141642857Y-48182380D01*
X141738095Y-48134761D01*
X141785714Y-48087142D01*
X141880952Y-47944285D01*
X141928571Y-47753809D01*
X141928571Y-47372857D01*
X141880952Y-47277619D01*
X141833333Y-47230000D01*
X141738095Y-47182380D01*
X141547619Y-47182380D01*
X141452380Y-47230000D01*
X141404761Y-47277619D01*
X141357142Y-47372857D01*
X141357142Y-47610952D01*
X141404761Y-47706190D01*
X141452380Y-47753809D01*
X141547619Y-47801428D01*
X141738095Y-47801428D01*
X141833333Y-47753809D01*
X141880952Y-47706190D01*
X141928571Y-47610952D01*
X142547619Y-47182380D02*
X142642857Y-47182380D01*
X142738095Y-47230000D01*
X142785714Y-47277619D01*
X142833333Y-47372857D01*
X142880952Y-47563333D01*
X142880952Y-47801428D01*
X142833333Y-47991904D01*
X142785714Y-48087142D01*
X142738095Y-48134761D01*
X142642857Y-48182380D01*
X142547619Y-48182380D01*
X142452380Y-48134761D01*
X142404761Y-48087142D01*
X142357142Y-47991904D01*
X142309523Y-47801428D01*
X142309523Y-47563333D01*
X142357142Y-47372857D01*
X142404761Y-47277619D01*
X142452380Y-47230000D01*
X142547619Y-47182380D01*
X143309523Y-48087142D02*
X143357142Y-48134761D01*
X143309523Y-48182380D01*
X143261904Y-48134761D01*
X143309523Y-48087142D01*
X143309523Y-48182380D01*
X143976190Y-47182380D02*
X144071428Y-47182380D01*
X144166666Y-47230000D01*
X144214285Y-47277619D01*
X144261904Y-47372857D01*
X144309523Y-47563333D01*
X144309523Y-47801428D01*
X144261904Y-47991904D01*
X144214285Y-48087142D01*
X144166666Y-48134761D01*
X144071428Y-48182380D01*
X143976190Y-48182380D01*
X143880952Y-48134761D01*
X143833333Y-48087142D01*
X143785714Y-47991904D01*
X143738095Y-47801428D01*
X143738095Y-47563333D01*
X143785714Y-47372857D01*
X143833333Y-47277619D01*
X143880952Y-47230000D01*
X143976190Y-47182380D01*
X144928571Y-47182380D02*
X145023809Y-47182380D01*
X145119047Y-47230000D01*
X145166666Y-47277619D01*
X145214285Y-47372857D01*
X145261904Y-47563333D01*
X145261904Y-47801428D01*
X145214285Y-47991904D01*
X145166666Y-48087142D01*
X145119047Y-48134761D01*
X145023809Y-48182380D01*
X144928571Y-48182380D01*
X144833333Y-48134761D01*
X144785714Y-48087142D01*
X144738095Y-47991904D01*
X144690476Y-47801428D01*
X144690476Y-47563333D01*
X144738095Y-47372857D01*
X144785714Y-47277619D01*
X144833333Y-47230000D01*
X144928571Y-47182380D01*
X145880952Y-47182380D02*
X145976190Y-47182380D01*
X146071428Y-47230000D01*
X146119047Y-47277619D01*
X146166666Y-47372857D01*
X146214285Y-47563333D01*
X146214285Y-47801428D01*
X146166666Y-47991904D01*
X146119047Y-48087142D01*
X146071428Y-48134761D01*
X145976190Y-48182380D01*
X145880952Y-48182380D01*
X145785714Y-48134761D01*
X145738095Y-48087142D01*
X145690476Y-47991904D01*
X145642857Y-47801428D01*
X145642857Y-47563333D01*
X145690476Y-47372857D01*
X145738095Y-47277619D01*
X145785714Y-47230000D01*
X145880952Y-47182380D01*
X147404761Y-48182380D02*
X147404761Y-47515714D01*
X147404761Y-47610952D02*
X147452380Y-47563333D01*
X147547619Y-47515714D01*
X147690476Y-47515714D01*
X147785714Y-47563333D01*
X147833333Y-47658571D01*
X147833333Y-48182380D01*
X147833333Y-47658571D02*
X147880952Y-47563333D01*
X147976190Y-47515714D01*
X148119047Y-47515714D01*
X148214285Y-47563333D01*
X148261904Y-47658571D01*
X148261904Y-48182380D01*
X148738095Y-48182380D02*
X148738095Y-47515714D01*
X148738095Y-47610952D02*
X148785714Y-47563333D01*
X148880952Y-47515714D01*
X149023809Y-47515714D01*
X149119047Y-47563333D01*
X149166666Y-47658571D01*
X149166666Y-48182380D01*
X149166666Y-47658571D02*
X149214285Y-47563333D01*
X149309523Y-47515714D01*
X149452380Y-47515714D01*
X149547619Y-47563333D01*
X149595238Y-47658571D01*
X149595238Y-48182380D01*
D12*
X100500000Y-49000000D02*
X190500000Y-49000000D01*
X100500000Y-52000000D02*
X100500000Y-48413579D01*
X190500000Y-52000000D02*
X190500000Y-48413579D01*
X190500000Y-49000000D02*
X189373496Y-49586421D01*
X190500000Y-49000000D02*
X189373496Y-48413579D01*
X100500000Y-49000000D02*
X101626504Y-49586421D01*
X100500000Y-49000000D02*
X101626504Y-48413579D01*
X109140000Y-65300000D02*
X109170000Y-64400000D01*
X109140000Y-79810000D02*
X109160000Y-80740000D01*
X99620000Y-71660000D02*
X99610000Y-73490000D01*
X99620000Y-64400000D02*
X99620000Y-71660000D01*
X109170000Y-64400000D02*
X99620000Y-64400000D01*
X109140000Y-79800000D02*
X109140000Y-65300000D01*
X99610000Y-80740000D02*
X109160000Y-80740000D01*
X99610000Y-73490000D02*
X99610000Y-80740000D01*
X109140000Y-83150000D02*
X109170000Y-82250000D01*
X109140000Y-97660000D02*
X109160000Y-98590000D01*
X99620000Y-89510000D02*
X99610000Y-91340000D01*
X99620000Y-82250000D02*
X99620000Y-89510000D01*
X109170000Y-82250000D02*
X99620000Y-82250000D01*
X109140000Y-97650000D02*
X109140000Y-83150000D01*
X99610000Y-98590000D02*
X109160000Y-98590000D01*
X99610000Y-91340000D02*
X99610000Y-98590000D01*
X134010000Y-61799721D02*
X134010000Y-62125279D01*
X132990000Y-61799721D02*
X132990000Y-62125279D01*
X122340000Y-61837221D02*
X122340000Y-62162779D01*
X123360000Y-61837221D02*
X123360000Y-62162779D01*
X127690000Y-61787221D02*
X127690000Y-62112779D01*
X128710000Y-61787221D02*
X128710000Y-62112779D01*
X123890000Y-58475279D02*
X123890000Y-58149721D01*
X124910000Y-58475279D02*
X124910000Y-58149721D01*
X110410000Y-61287221D02*
X110410000Y-61612779D01*
X109390000Y-61287221D02*
X109390000Y-61612779D01*
X126012779Y-66210000D02*
X125687221Y-66210000D01*
X126012779Y-65190000D02*
X125687221Y-65190000D01*
X127212779Y-56160000D02*
X126887221Y-56160000D01*
X127212779Y-55140000D02*
X126887221Y-55140000D01*
X120740000Y-58412779D02*
X120740000Y-58087221D01*
X121760000Y-58412779D02*
X121760000Y-58087221D01*
X174162779Y-98190000D02*
X173837221Y-98190000D01*
X174162779Y-99210000D02*
X173837221Y-99210000D01*
X160707500Y-102885000D02*
X158222500Y-102885000D01*
X158222500Y-102885000D02*
X158222500Y-104255000D01*
X158222500Y-104255000D02*
X160707500Y-104255000D01*
X118615000Y-65565000D02*
X118615000Y-68050000D01*
X119985000Y-65565000D02*
X118615000Y-65565000D01*
X119985000Y-68050000D02*
X119985000Y-65565000D01*
X176970000Y-98415000D02*
X177792470Y-98415000D01*
X179677530Y-98415000D02*
X180500000Y-98415000D01*
X178407530Y-98415000D02*
X179062470Y-98415000D01*
X176970000Y-93400000D02*
X176970000Y-98415000D01*
X180500000Y-91945000D02*
X180500000Y-98415000D01*
X176970000Y-93400000D02*
X177536529Y-93400000D01*
X178663471Y-93400000D02*
X178806529Y-93400000D01*
X178860000Y-93346529D02*
X178860000Y-93203471D01*
X178860000Y-92076529D02*
X178860000Y-91945000D01*
X178860000Y-91945000D02*
X179062470Y-91945000D01*
X179677530Y-91945000D02*
X180500000Y-91945000D01*
X176970000Y-92640000D02*
X176970000Y-91880000D01*
X176970000Y-91880000D02*
X178100000Y-91880000D01*
D14*
X173450000Y-56500000D02*
G75*
G02X173550000Y-56500000I50000J0D01*
G01*
X173550000Y-56500000D02*
G75*
G02X173450000Y-56500000I-50000J0D01*
G01*
X173550000Y-56500000D02*
X173550000Y-56500000D01*
X173450000Y-56500000D02*
X173450000Y-56500000D01*
X175450000Y-55450000D02*
X175450000Y-52500000D01*
X174200000Y-55450000D02*
X175450000Y-55450000D01*
X141950000Y-55450000D02*
X141950000Y-52500000D01*
X143200000Y-55450000D02*
X141950000Y-55450000D01*
X174200000Y-50550000D02*
X143700000Y-50550000D01*
D12*
X103468615Y-58357587D02*
G75*
G02X103345000Y-57750000I1431385J607587D01*
G01*
X105507742Y-59182109D02*
G75*
G02X104292000Y-59182000I-607742J1432109D01*
G01*
X106332109Y-57142258D02*
G75*
G02X106332000Y-58358000I-1432109J-607742D01*
G01*
X104292258Y-56317891D02*
G75*
G02X105508000Y-56318000I607742J-1432109D01*
G01*
X103344508Y-57777011D02*
G75*
G02X103468000Y-57142000I1555492J27011D01*
G01*
X106455000Y-61250000D02*
G75*
G03X106455000Y-61250000I-1555000J0D01*
G01*
X102800000Y-55590000D02*
X102800000Y-63410000D01*
X108360000Y-55590000D02*
X108360000Y-63410000D01*
X101240000Y-55590000D02*
X101240000Y-63410000D01*
X108360000Y-55590000D02*
X101240000Y-55590000D01*
X108360000Y-63410000D02*
X101240000Y-63410000D01*
X102740000Y-55350000D02*
X101000000Y-55350000D01*
X101000000Y-55350000D02*
X101000000Y-56850000D01*
X129090000Y-57737221D02*
X129090000Y-58062779D01*
X130110000Y-57737221D02*
X130110000Y-58062779D01*
X146290000Y-99912779D02*
X146290000Y-99587221D01*
X147310000Y-99912779D02*
X147310000Y-99587221D01*
X163332779Y-104110000D02*
X163007221Y-104110000D01*
X163332779Y-103090000D02*
X163007221Y-103090000D01*
X118210000Y-66987221D02*
X118210000Y-67312779D01*
X117190000Y-66987221D02*
X117190000Y-67312779D01*
X137680000Y-61290000D02*
X137680000Y-62750000D01*
X134520000Y-61290000D02*
X134520000Y-63450000D01*
X134520000Y-61290000D02*
X135450000Y-61290000D01*
X137680000Y-61290000D02*
X136750000Y-61290000D01*
X127030000Y-61290000D02*
X126100000Y-61290000D01*
X123870000Y-61290000D02*
X124800000Y-61290000D01*
X123870000Y-61290000D02*
X123870000Y-63450000D01*
X127030000Y-61290000D02*
X127030000Y-62750000D01*
X132430000Y-61240000D02*
X132430000Y-62700000D01*
X129270000Y-61240000D02*
X129270000Y-63400000D01*
X129270000Y-61240000D02*
X130200000Y-61240000D01*
X132430000Y-61240000D02*
X131500000Y-61240000D01*
X126290000Y-56620000D02*
X126290000Y-57550000D01*
X126290000Y-59780000D02*
X126290000Y-58850000D01*
X126290000Y-59780000D02*
X128450000Y-59780000D01*
X126290000Y-56620000D02*
X127750000Y-56620000D01*
X113300000Y-57870000D02*
X113300000Y-59370000D01*
X113300000Y-59370000D02*
X113570000Y-59370000D01*
X113570000Y-59370000D02*
X113570000Y-62200000D01*
X120200000Y-57870000D02*
X120200000Y-59370000D01*
X120200000Y-59370000D02*
X119930000Y-59370000D01*
X119930000Y-59370000D02*
X119930000Y-60470000D01*
X166470000Y-101120000D02*
X166920000Y-101120000D01*
X166920000Y-101120000D02*
X166920000Y-100670000D01*
X160150000Y-101120000D02*
X159700000Y-101120000D01*
X159700000Y-101120000D02*
X159700000Y-100670000D01*
X166470000Y-93900000D02*
X166920000Y-93900000D01*
X166920000Y-93900000D02*
X166920000Y-94350000D01*
X160150000Y-93900000D02*
X159700000Y-93900000D01*
X159700000Y-93900000D02*
X159700000Y-94350000D01*
X159700000Y-94350000D02*
X158410000Y-94350000D01*
D11*
X150570000Y-101200000D02*
G75*
G03X150570000Y-101200000I-100000J0D01*
G01*
D15*
X154336200Y-78940000D02*
G75*
G03X154336200Y-78940000I-76200J0D01*
G01*
X153890300Y-78352560D02*
X153890300Y-78027440D01*
X151629700Y-78027440D02*
X151629700Y-78352560D01*
D12*
X156760000Y-94620000D02*
X153460000Y-94620000D01*
X153460000Y-94620000D02*
X153460000Y-98620000D01*
X172450000Y-100250000D02*
X172900000Y-100250000D01*
X172450000Y-102100000D02*
X172450000Y-100250000D01*
X180250000Y-104650000D02*
X180250000Y-104400000D01*
X172450000Y-104650000D02*
X172450000Y-104400000D01*
X180250000Y-102100000D02*
X180250000Y-100250000D01*
X180250000Y-100250000D02*
X179800000Y-100250000D01*
X174650000Y-99700000D02*
X175100000Y-99700000D01*
X174650000Y-99700000D02*
X174650000Y-100150000D01*
D14*
X184300000Y-92250000D02*
G75*
G02X184300000Y-92350000I0J-50000D01*
G01*
X184300000Y-92350000D02*
G75*
G02X184300000Y-92250000I0J50000D01*
G01*
X184300000Y-92350000D02*
X184300000Y-92350000D01*
X184300000Y-92250000D02*
X184300000Y-92250000D01*
X185350000Y-94250000D02*
X188300000Y-94250000D01*
X185350000Y-93000000D02*
X185350000Y-94250000D01*
X185350000Y-60750000D02*
X188300000Y-60750000D01*
X185350000Y-62000000D02*
X185350000Y-60750000D01*
X190250000Y-93000000D02*
X190250000Y-62500000D01*
D15*
X140069700Y-94987440D02*
X140069700Y-95312560D01*
X142330300Y-95312560D02*
X142330300Y-94987440D01*
X142776200Y-95900000D02*
G75*
G03X142776200Y-95900000I-76200J0D01*
G01*
D12*
X123360000Y-58137221D02*
X123360000Y-58462779D01*
X122340000Y-58137221D02*
X122340000Y-58462779D01*
X112785000Y-63000000D02*
X112785000Y-59090000D01*
X112785000Y-59090000D02*
X110915000Y-59090000D01*
X110915000Y-59090000D02*
X110915000Y-63000000D01*
X131690000Y-58012779D02*
X131690000Y-57687221D01*
X132710000Y-58012779D02*
X132710000Y-57687221D01*
X136512779Y-66110000D02*
X136187221Y-66110000D01*
X136512779Y-65090000D02*
X136187221Y-65090000D01*
X131300279Y-65190000D02*
X130974721Y-65190000D01*
X131300279Y-66210000D02*
X130974721Y-66210000D01*
D14*
X141100000Y-63300000D02*
G75*
G03X141100000Y-63300000I-650000J0D01*
G01*
X136760000Y-57430000D02*
G75*
G03X136760000Y-57430000I-650000J0D01*
G01*
D10*
X143200000Y-68750000D02*
X150400000Y-68750000D01*
X150400000Y-68750000D02*
X150400000Y-75950000D01*
X150400000Y-75950000D02*
X143200000Y-75950000D01*
X143200000Y-75950000D02*
X143200000Y-68750000D01*
X143900000Y-68750000D02*
X143200000Y-69450000D01*
X132400000Y-85400000D02*
X131700000Y-86100000D01*
X131700000Y-92600000D02*
X131700000Y-85400000D01*
X138900000Y-92600000D02*
X131700000Y-92600000D01*
X138900000Y-85400000D02*
X138900000Y-92600000D01*
X131700000Y-85400000D02*
X138900000Y-85400000D01*
D14*
X132900000Y-52900000D02*
G75*
G03X132900000Y-52900000I-650000J0D01*
G01*
X121500000Y-79850000D02*
G75*
G03X121500000Y-79850000I-650000J0D01*
G01*
X132000000Y-78100000D02*
G75*
G03X132000000Y-78100000I-650000J0D01*
G01*
X129450000Y-68750000D02*
G75*
G03X129450000Y-68750000I-650000J0D01*
G01*
X147700000Y-86700000D02*
G75*
G03X147700000Y-86700000I-650000J0D01*
G01*
D10*
X109989285Y-67100000D02*
X110525000Y-67100000D01*
X110632142Y-67128571D01*
X110703571Y-67185714D01*
X110739285Y-67271428D01*
X110739285Y-67328571D01*
X110060714Y-66842857D02*
X110025000Y-66814285D01*
X109989285Y-66757142D01*
X109989285Y-66614285D01*
X110025000Y-66557142D01*
X110060714Y-66528571D01*
X110132142Y-66500000D01*
X110203571Y-66500000D01*
X110310714Y-66528571D01*
X110739285Y-66871428D01*
X110739285Y-66500000D01*
X104189285Y-81750000D02*
X104725000Y-81750000D01*
X104832142Y-81778571D01*
X104903571Y-81835714D01*
X104939285Y-81921428D01*
X104939285Y-81978571D01*
X104939285Y-81150000D02*
X104939285Y-81492857D01*
X104939285Y-81321428D02*
X104189285Y-81321428D01*
X104296428Y-81378571D01*
X104367857Y-81435714D01*
X104403571Y-81492857D01*
X114100000Y-65732857D02*
X114071428Y-65768571D01*
X113985714Y-65804285D01*
X113928571Y-65804285D01*
X113842857Y-65768571D01*
X113785714Y-65697142D01*
X113757142Y-65625714D01*
X113728571Y-65482857D01*
X113728571Y-65375714D01*
X113757142Y-65232857D01*
X113785714Y-65161428D01*
X113842857Y-65090000D01*
X113928571Y-65054285D01*
X113985714Y-65054285D01*
X114071428Y-65090000D01*
X114100000Y-65125714D01*
X114671428Y-65804285D02*
X114328571Y-65804285D01*
X114500000Y-65804285D02*
X114500000Y-65054285D01*
X114442857Y-65161428D01*
X114385714Y-65232857D01*
X114328571Y-65268571D01*
X147200000Y-79817857D02*
X147171428Y-79853571D01*
X147085714Y-79889285D01*
X147028571Y-79889285D01*
X146942857Y-79853571D01*
X146885714Y-79782142D01*
X146857142Y-79710714D01*
X146828571Y-79567857D01*
X146828571Y-79460714D01*
X146857142Y-79317857D01*
X146885714Y-79246428D01*
X146942857Y-79175000D01*
X147028571Y-79139285D01*
X147085714Y-79139285D01*
X147171428Y-79175000D01*
X147200000Y-79210714D01*
X147428571Y-79210714D02*
X147457142Y-79175000D01*
X147514285Y-79139285D01*
X147657142Y-79139285D01*
X147714285Y-79175000D01*
X147742857Y-79210714D01*
X147771428Y-79282142D01*
X147771428Y-79353571D01*
X147742857Y-79460714D01*
X147400000Y-79889285D01*
X147771428Y-79889285D01*
X152860000Y-70727857D02*
X152831428Y-70763571D01*
X152745714Y-70799285D01*
X152688571Y-70799285D01*
X152602857Y-70763571D01*
X152545714Y-70692142D01*
X152517142Y-70620714D01*
X152488571Y-70477857D01*
X152488571Y-70370714D01*
X152517142Y-70227857D01*
X152545714Y-70156428D01*
X152602857Y-70085000D01*
X152688571Y-70049285D01*
X152745714Y-70049285D01*
X152831428Y-70085000D01*
X152860000Y-70120714D01*
X153060000Y-70049285D02*
X153431428Y-70049285D01*
X153231428Y-70335000D01*
X153317142Y-70335000D01*
X153374285Y-70370714D01*
X153402857Y-70406428D01*
X153431428Y-70477857D01*
X153431428Y-70656428D01*
X153402857Y-70727857D01*
X153374285Y-70763571D01*
X153317142Y-70799285D01*
X153145714Y-70799285D01*
X153088571Y-70763571D01*
X153060000Y-70727857D01*
X149400000Y-79817857D02*
X149371428Y-79853571D01*
X149285714Y-79889285D01*
X149228571Y-79889285D01*
X149142857Y-79853571D01*
X149085714Y-79782142D01*
X149057142Y-79710714D01*
X149028571Y-79567857D01*
X149028571Y-79460714D01*
X149057142Y-79317857D01*
X149085714Y-79246428D01*
X149142857Y-79175000D01*
X149228571Y-79139285D01*
X149285714Y-79139285D01*
X149371428Y-79175000D01*
X149400000Y-79210714D01*
X149914285Y-79389285D02*
X149914285Y-79889285D01*
X149771428Y-79103571D02*
X149628571Y-79639285D01*
X150000000Y-79639285D01*
X148300000Y-79867857D02*
X148271428Y-79903571D01*
X148185714Y-79939285D01*
X148128571Y-79939285D01*
X148042857Y-79903571D01*
X147985714Y-79832142D01*
X147957142Y-79760714D01*
X147928571Y-79617857D01*
X147928571Y-79510714D01*
X147957142Y-79367857D01*
X147985714Y-79296428D01*
X148042857Y-79225000D01*
X148128571Y-79189285D01*
X148185714Y-79189285D01*
X148271428Y-79225000D01*
X148300000Y-79260714D01*
X148842857Y-79189285D02*
X148557142Y-79189285D01*
X148528571Y-79546428D01*
X148557142Y-79510714D01*
X148614285Y-79475000D01*
X148757142Y-79475000D01*
X148814285Y-79510714D01*
X148842857Y-79546428D01*
X148871428Y-79617857D01*
X148871428Y-79796428D01*
X148842857Y-79867857D01*
X148814285Y-79903571D01*
X148757142Y-79939285D01*
X148614285Y-79939285D01*
X148557142Y-79903571D01*
X148528571Y-79867857D01*
X140200000Y-76667857D02*
X140171428Y-76703571D01*
X140085714Y-76739285D01*
X140028571Y-76739285D01*
X139942857Y-76703571D01*
X139885714Y-76632142D01*
X139857142Y-76560714D01*
X139828571Y-76417857D01*
X139828571Y-76310714D01*
X139857142Y-76167857D01*
X139885714Y-76096428D01*
X139942857Y-76025000D01*
X140028571Y-75989285D01*
X140085714Y-75989285D01*
X140171428Y-76025000D01*
X140200000Y-76060714D01*
X140714285Y-75989285D02*
X140600000Y-75989285D01*
X140542857Y-76025000D01*
X140514285Y-76060714D01*
X140457142Y-76167857D01*
X140428571Y-76310714D01*
X140428571Y-76596428D01*
X140457142Y-76667857D01*
X140485714Y-76703571D01*
X140542857Y-76739285D01*
X140657142Y-76739285D01*
X140714285Y-76703571D01*
X140742857Y-76667857D01*
X140771428Y-76596428D01*
X140771428Y-76417857D01*
X140742857Y-76346428D01*
X140714285Y-76310714D01*
X140657142Y-76275000D01*
X140542857Y-76275000D01*
X140485714Y-76310714D01*
X140457142Y-76346428D01*
X140428571Y-76417857D01*
X141350000Y-76667857D02*
X141321428Y-76703571D01*
X141235714Y-76739285D01*
X141178571Y-76739285D01*
X141092857Y-76703571D01*
X141035714Y-76632142D01*
X141007142Y-76560714D01*
X140978571Y-76417857D01*
X140978571Y-76310714D01*
X141007142Y-76167857D01*
X141035714Y-76096428D01*
X141092857Y-76025000D01*
X141178571Y-75989285D01*
X141235714Y-75989285D01*
X141321428Y-76025000D01*
X141350000Y-76060714D01*
X141550000Y-75989285D02*
X141950000Y-75989285D01*
X141692857Y-76739285D01*
X152100000Y-75317857D02*
X152071428Y-75353571D01*
X151985714Y-75389285D01*
X151928571Y-75389285D01*
X151842857Y-75353571D01*
X151785714Y-75282142D01*
X151757142Y-75210714D01*
X151728571Y-75067857D01*
X151728571Y-74960714D01*
X151757142Y-74817857D01*
X151785714Y-74746428D01*
X151842857Y-74675000D01*
X151928571Y-74639285D01*
X151985714Y-74639285D01*
X152071428Y-74675000D01*
X152100000Y-74710714D01*
X152442857Y-74960714D02*
X152385714Y-74925000D01*
X152357142Y-74889285D01*
X152328571Y-74817857D01*
X152328571Y-74782142D01*
X152357142Y-74710714D01*
X152385714Y-74675000D01*
X152442857Y-74639285D01*
X152557142Y-74639285D01*
X152614285Y-74675000D01*
X152642857Y-74710714D01*
X152671428Y-74782142D01*
X152671428Y-74817857D01*
X152642857Y-74889285D01*
X152614285Y-74925000D01*
X152557142Y-74960714D01*
X152442857Y-74960714D01*
X152385714Y-74996428D01*
X152357142Y-75032142D01*
X152328571Y-75103571D01*
X152328571Y-75246428D01*
X152357142Y-75317857D01*
X152385714Y-75353571D01*
X152442857Y-75389285D01*
X152557142Y-75389285D01*
X152614285Y-75353571D01*
X152642857Y-75317857D01*
X152671428Y-75246428D01*
X152671428Y-75103571D01*
X152642857Y-75032142D01*
X152614285Y-74996428D01*
X152557142Y-74960714D01*
X152870000Y-69777857D02*
X152841428Y-69813571D01*
X152755714Y-69849285D01*
X152698571Y-69849285D01*
X152612857Y-69813571D01*
X152555714Y-69742142D01*
X152527142Y-69670714D01*
X152498571Y-69527857D01*
X152498571Y-69420714D01*
X152527142Y-69277857D01*
X152555714Y-69206428D01*
X152612857Y-69135000D01*
X152698571Y-69099285D01*
X152755714Y-69099285D01*
X152841428Y-69135000D01*
X152870000Y-69170714D01*
X153155714Y-69849285D02*
X153270000Y-69849285D01*
X153327142Y-69813571D01*
X153355714Y-69777857D01*
X153412857Y-69670714D01*
X153441428Y-69527857D01*
X153441428Y-69242142D01*
X153412857Y-69170714D01*
X153384285Y-69135000D01*
X153327142Y-69099285D01*
X153212857Y-69099285D01*
X153155714Y-69135000D01*
X153127142Y-69170714D01*
X153098571Y-69242142D01*
X153098571Y-69420714D01*
X153127142Y-69492142D01*
X153155714Y-69527857D01*
X153212857Y-69563571D01*
X153327142Y-69563571D01*
X153384285Y-69527857D01*
X153412857Y-69492142D01*
X153441428Y-69420714D01*
X144587857Y-66215714D02*
X144623571Y-66244285D01*
X144659285Y-66330000D01*
X144659285Y-66387142D01*
X144623571Y-66472857D01*
X144552142Y-66530000D01*
X144480714Y-66558571D01*
X144337857Y-66587142D01*
X144230714Y-66587142D01*
X144087857Y-66558571D01*
X144016428Y-66530000D01*
X143945000Y-66472857D01*
X143909285Y-66387142D01*
X143909285Y-66330000D01*
X143945000Y-66244285D01*
X143980714Y-66215714D01*
X144659285Y-65644285D02*
X144659285Y-65987142D01*
X144659285Y-65815714D02*
X143909285Y-65815714D01*
X144016428Y-65872857D01*
X144087857Y-65930000D01*
X144123571Y-65987142D01*
X143909285Y-65272857D02*
X143909285Y-65215714D01*
X143945000Y-65158571D01*
X143980714Y-65130000D01*
X144052142Y-65101428D01*
X144195000Y-65072857D01*
X144373571Y-65072857D01*
X144516428Y-65101428D01*
X144587857Y-65130000D01*
X144623571Y-65158571D01*
X144659285Y-65215714D01*
X144659285Y-65272857D01*
X144623571Y-65330000D01*
X144587857Y-65358571D01*
X144516428Y-65387142D01*
X144373571Y-65415714D01*
X144195000Y-65415714D01*
X144052142Y-65387142D01*
X143980714Y-65358571D01*
X143945000Y-65330000D01*
X143909285Y-65272857D01*
X142414285Y-76617857D02*
X142385714Y-76653571D01*
X142300000Y-76689285D01*
X142242857Y-76689285D01*
X142157142Y-76653571D01*
X142100000Y-76582142D01*
X142071428Y-76510714D01*
X142042857Y-76367857D01*
X142042857Y-76260714D01*
X142071428Y-76117857D01*
X142100000Y-76046428D01*
X142157142Y-75975000D01*
X142242857Y-75939285D01*
X142300000Y-75939285D01*
X142385714Y-75975000D01*
X142414285Y-76010714D01*
X142985714Y-76689285D02*
X142642857Y-76689285D01*
X142814285Y-76689285D02*
X142814285Y-75939285D01*
X142757142Y-76046428D01*
X142700000Y-76117857D01*
X142642857Y-76153571D01*
X143557142Y-76689285D02*
X143214285Y-76689285D01*
X143385714Y-76689285D02*
X143385714Y-75939285D01*
X143328571Y-76046428D01*
X143271428Y-76117857D01*
X143214285Y-76153571D01*
X141517857Y-67925714D02*
X141553571Y-67954285D01*
X141589285Y-68040000D01*
X141589285Y-68097142D01*
X141553571Y-68182857D01*
X141482142Y-68240000D01*
X141410714Y-68268571D01*
X141267857Y-68297142D01*
X141160714Y-68297142D01*
X141017857Y-68268571D01*
X140946428Y-68240000D01*
X140875000Y-68182857D01*
X140839285Y-68097142D01*
X140839285Y-68040000D01*
X140875000Y-67954285D01*
X140910714Y-67925714D01*
X141589285Y-67354285D02*
X141589285Y-67697142D01*
X141589285Y-67525714D02*
X140839285Y-67525714D01*
X140946428Y-67582857D01*
X141017857Y-67640000D01*
X141053571Y-67697142D01*
X140910714Y-67125714D02*
X140875000Y-67097142D01*
X140839285Y-67040000D01*
X140839285Y-66897142D01*
X140875000Y-66840000D01*
X140910714Y-66811428D01*
X140982142Y-66782857D01*
X141053571Y-66782857D01*
X141160714Y-66811428D01*
X141589285Y-67154285D01*
X141589285Y-66782857D01*
X142467857Y-67875714D02*
X142503571Y-67904285D01*
X142539285Y-67990000D01*
X142539285Y-68047142D01*
X142503571Y-68132857D01*
X142432142Y-68190000D01*
X142360714Y-68218571D01*
X142217857Y-68247142D01*
X142110714Y-68247142D01*
X141967857Y-68218571D01*
X141896428Y-68190000D01*
X141825000Y-68132857D01*
X141789285Y-68047142D01*
X141789285Y-67990000D01*
X141825000Y-67904285D01*
X141860714Y-67875714D01*
X142539285Y-67304285D02*
X142539285Y-67647142D01*
X142539285Y-67475714D02*
X141789285Y-67475714D01*
X141896428Y-67532857D01*
X141967857Y-67590000D01*
X142003571Y-67647142D01*
X141789285Y-67104285D02*
X141789285Y-66732857D01*
X142075000Y-66932857D01*
X142075000Y-66847142D01*
X142110714Y-66790000D01*
X142146428Y-66761428D01*
X142217857Y-66732857D01*
X142396428Y-66732857D01*
X142467857Y-66761428D01*
X142503571Y-66790000D01*
X142539285Y-66847142D01*
X142539285Y-67018571D01*
X142503571Y-67075714D01*
X142467857Y-67104285D01*
X139799285Y-73617857D02*
X139770714Y-73653571D01*
X139685000Y-73689285D01*
X139627857Y-73689285D01*
X139542142Y-73653571D01*
X139485000Y-73582142D01*
X139456428Y-73510714D01*
X139427857Y-73367857D01*
X139427857Y-73260714D01*
X139456428Y-73117857D01*
X139485000Y-73046428D01*
X139542142Y-72975000D01*
X139627857Y-72939285D01*
X139685000Y-72939285D01*
X139770714Y-72975000D01*
X139799285Y-73010714D01*
X140370714Y-73689285D02*
X140027857Y-73689285D01*
X140199285Y-73689285D02*
X140199285Y-72939285D01*
X140142142Y-73046428D01*
X140085000Y-73117857D01*
X140027857Y-73153571D01*
X140885000Y-73189285D02*
X140885000Y-73689285D01*
X140742142Y-72903571D02*
X140599285Y-73439285D01*
X140970714Y-73439285D01*
X133667857Y-64748214D02*
X133703571Y-64776785D01*
X133739285Y-64862500D01*
X133739285Y-64919642D01*
X133703571Y-65005357D01*
X133632142Y-65062500D01*
X133560714Y-65091071D01*
X133417857Y-65119642D01*
X133310714Y-65119642D01*
X133167857Y-65091071D01*
X133096428Y-65062500D01*
X133025000Y-65005357D01*
X132989285Y-64919642D01*
X132989285Y-64862500D01*
X133025000Y-64776785D01*
X133060714Y-64748214D01*
X133739285Y-64176785D02*
X133739285Y-64519642D01*
X133739285Y-64348214D02*
X132989285Y-64348214D01*
X133096428Y-64405357D01*
X133167857Y-64462500D01*
X133203571Y-64519642D01*
X132989285Y-63633928D02*
X132989285Y-63919642D01*
X133346428Y-63948214D01*
X133310714Y-63919642D01*
X133275000Y-63862500D01*
X133275000Y-63719642D01*
X133310714Y-63662500D01*
X133346428Y-63633928D01*
X133417857Y-63605357D01*
X133596428Y-63605357D01*
X133667857Y-63633928D01*
X133703571Y-63662500D01*
X133739285Y-63719642D01*
X133739285Y-63862500D01*
X133703571Y-63919642D01*
X133667857Y-63948214D01*
X123017857Y-64735714D02*
X123053571Y-64764285D01*
X123089285Y-64850000D01*
X123089285Y-64907142D01*
X123053571Y-64992857D01*
X122982142Y-65050000D01*
X122910714Y-65078571D01*
X122767857Y-65107142D01*
X122660714Y-65107142D01*
X122517857Y-65078571D01*
X122446428Y-65050000D01*
X122375000Y-64992857D01*
X122339285Y-64907142D01*
X122339285Y-64850000D01*
X122375000Y-64764285D01*
X122410714Y-64735714D01*
X123089285Y-64164285D02*
X123089285Y-64507142D01*
X123089285Y-64335714D02*
X122339285Y-64335714D01*
X122446428Y-64392857D01*
X122517857Y-64450000D01*
X122553571Y-64507142D01*
X122339285Y-63650000D02*
X122339285Y-63764285D01*
X122375000Y-63821428D01*
X122410714Y-63850000D01*
X122517857Y-63907142D01*
X122660714Y-63935714D01*
X122946428Y-63935714D01*
X123017857Y-63907142D01*
X123053571Y-63878571D01*
X123089285Y-63821428D01*
X123089285Y-63707142D01*
X123053571Y-63650000D01*
X123017857Y-63621428D01*
X122946428Y-63592857D01*
X122767857Y-63592857D01*
X122696428Y-63621428D01*
X122660714Y-63650000D01*
X122625000Y-63707142D01*
X122625000Y-63821428D01*
X122660714Y-63878571D01*
X122696428Y-63907142D01*
X122767857Y-63935714D01*
X128567857Y-64673214D02*
X128603571Y-64701785D01*
X128639285Y-64787500D01*
X128639285Y-64844642D01*
X128603571Y-64930357D01*
X128532142Y-64987500D01*
X128460714Y-65016071D01*
X128317857Y-65044642D01*
X128210714Y-65044642D01*
X128067857Y-65016071D01*
X127996428Y-64987500D01*
X127925000Y-64930357D01*
X127889285Y-64844642D01*
X127889285Y-64787500D01*
X127925000Y-64701785D01*
X127960714Y-64673214D01*
X128639285Y-64101785D02*
X128639285Y-64444642D01*
X128639285Y-64273214D02*
X127889285Y-64273214D01*
X127996428Y-64330357D01*
X128067857Y-64387500D01*
X128103571Y-64444642D01*
X127889285Y-63901785D02*
X127889285Y-63501785D01*
X128639285Y-63758928D01*
X124617857Y-56335714D02*
X124653571Y-56364285D01*
X124689285Y-56450000D01*
X124689285Y-56507142D01*
X124653571Y-56592857D01*
X124582142Y-56650000D01*
X124510714Y-56678571D01*
X124367857Y-56707142D01*
X124260714Y-56707142D01*
X124117857Y-56678571D01*
X124046428Y-56650000D01*
X123975000Y-56592857D01*
X123939285Y-56507142D01*
X123939285Y-56450000D01*
X123975000Y-56364285D01*
X124010714Y-56335714D01*
X124689285Y-55764285D02*
X124689285Y-56107142D01*
X124689285Y-55935714D02*
X123939285Y-55935714D01*
X124046428Y-55992857D01*
X124117857Y-56050000D01*
X124153571Y-56107142D01*
X124260714Y-55421428D02*
X124225000Y-55478571D01*
X124189285Y-55507142D01*
X124117857Y-55535714D01*
X124082142Y-55535714D01*
X124010714Y-55507142D01*
X123975000Y-55478571D01*
X123939285Y-55421428D01*
X123939285Y-55307142D01*
X123975000Y-55250000D01*
X124010714Y-55221428D01*
X124082142Y-55192857D01*
X124117857Y-55192857D01*
X124189285Y-55221428D01*
X124225000Y-55250000D01*
X124260714Y-55307142D01*
X124260714Y-55421428D01*
X124296428Y-55478571D01*
X124332142Y-55507142D01*
X124403571Y-55535714D01*
X124546428Y-55535714D01*
X124617857Y-55507142D01*
X124653571Y-55478571D01*
X124689285Y-55421428D01*
X124689285Y-55307142D01*
X124653571Y-55250000D01*
X124617857Y-55221428D01*
X124546428Y-55192857D01*
X124403571Y-55192857D01*
X124332142Y-55221428D01*
X124296428Y-55250000D01*
X124260714Y-55307142D01*
X109514285Y-59730357D02*
X109485714Y-59766071D01*
X109400000Y-59801785D01*
X109342857Y-59801785D01*
X109257142Y-59766071D01*
X109200000Y-59694642D01*
X109171428Y-59623214D01*
X109142857Y-59480357D01*
X109142857Y-59373214D01*
X109171428Y-59230357D01*
X109200000Y-59158928D01*
X109257142Y-59087500D01*
X109342857Y-59051785D01*
X109400000Y-59051785D01*
X109485714Y-59087500D01*
X109514285Y-59123214D01*
X110085714Y-59801785D02*
X109742857Y-59801785D01*
X109914285Y-59801785D02*
X109914285Y-59051785D01*
X109857142Y-59158928D01*
X109800000Y-59230357D01*
X109742857Y-59266071D01*
X110371428Y-59801785D02*
X110485714Y-59801785D01*
X110542857Y-59766071D01*
X110571428Y-59730357D01*
X110628571Y-59623214D01*
X110657142Y-59480357D01*
X110657142Y-59194642D01*
X110628571Y-59123214D01*
X110600000Y-59087500D01*
X110542857Y-59051785D01*
X110428571Y-59051785D01*
X110371428Y-59087500D01*
X110342857Y-59123214D01*
X110314285Y-59194642D01*
X110314285Y-59373214D01*
X110342857Y-59444642D01*
X110371428Y-59480357D01*
X110428571Y-59516071D01*
X110542857Y-59516071D01*
X110600000Y-59480357D01*
X110628571Y-59444642D01*
X110657142Y-59373214D01*
X123026785Y-66067857D02*
X122998214Y-66103571D01*
X122912500Y-66139285D01*
X122855357Y-66139285D01*
X122769642Y-66103571D01*
X122712500Y-66032142D01*
X122683928Y-65960714D01*
X122655357Y-65817857D01*
X122655357Y-65710714D01*
X122683928Y-65567857D01*
X122712500Y-65496428D01*
X122769642Y-65425000D01*
X122855357Y-65389285D01*
X122912500Y-65389285D01*
X122998214Y-65425000D01*
X123026785Y-65460714D01*
X123255357Y-65460714D02*
X123283928Y-65425000D01*
X123341071Y-65389285D01*
X123483928Y-65389285D01*
X123541071Y-65425000D01*
X123569642Y-65460714D01*
X123598214Y-65532142D01*
X123598214Y-65603571D01*
X123569642Y-65710714D01*
X123226785Y-66139285D01*
X123598214Y-66139285D01*
X123826785Y-65460714D02*
X123855357Y-65425000D01*
X123912500Y-65389285D01*
X124055357Y-65389285D01*
X124112500Y-65425000D01*
X124141071Y-65460714D01*
X124169642Y-65532142D01*
X124169642Y-65603571D01*
X124141071Y-65710714D01*
X123798214Y-66139285D01*
X124169642Y-66139285D01*
X129064285Y-56017857D02*
X129035714Y-56053571D01*
X128950000Y-56089285D01*
X128892857Y-56089285D01*
X128807142Y-56053571D01*
X128750000Y-55982142D01*
X128721428Y-55910714D01*
X128692857Y-55767857D01*
X128692857Y-55660714D01*
X128721428Y-55517857D01*
X128750000Y-55446428D01*
X128807142Y-55375000D01*
X128892857Y-55339285D01*
X128950000Y-55339285D01*
X129035714Y-55375000D01*
X129064285Y-55410714D01*
X129292857Y-55410714D02*
X129321428Y-55375000D01*
X129378571Y-55339285D01*
X129521428Y-55339285D01*
X129578571Y-55375000D01*
X129607142Y-55410714D01*
X129635714Y-55482142D01*
X129635714Y-55553571D01*
X129607142Y-55660714D01*
X129264285Y-56089285D01*
X129635714Y-56089285D01*
X130150000Y-55589285D02*
X130150000Y-56089285D01*
X130007142Y-55303571D02*
X129864285Y-55839285D01*
X130235714Y-55839285D01*
X121517857Y-56285714D02*
X121553571Y-56314285D01*
X121589285Y-56400000D01*
X121589285Y-56457142D01*
X121553571Y-56542857D01*
X121482142Y-56600000D01*
X121410714Y-56628571D01*
X121267857Y-56657142D01*
X121160714Y-56657142D01*
X121017857Y-56628571D01*
X120946428Y-56600000D01*
X120875000Y-56542857D01*
X120839285Y-56457142D01*
X120839285Y-56400000D01*
X120875000Y-56314285D01*
X120910714Y-56285714D01*
X120839285Y-56085714D02*
X120839285Y-55714285D01*
X121125000Y-55914285D01*
X121125000Y-55828571D01*
X121160714Y-55771428D01*
X121196428Y-55742857D01*
X121267857Y-55714285D01*
X121446428Y-55714285D01*
X121517857Y-55742857D01*
X121553571Y-55771428D01*
X121589285Y-55828571D01*
X121589285Y-56000000D01*
X121553571Y-56057142D01*
X121517857Y-56085714D01*
X121589285Y-55142857D02*
X121589285Y-55485714D01*
X121589285Y-55314285D02*
X120839285Y-55314285D01*
X120946428Y-55371428D01*
X121017857Y-55428571D01*
X121053571Y-55485714D01*
X121117857Y-63585714D02*
X121153571Y-63614285D01*
X121189285Y-63700000D01*
X121189285Y-63757142D01*
X121153571Y-63842857D01*
X121082142Y-63900000D01*
X121010714Y-63928571D01*
X120867857Y-63957142D01*
X120760714Y-63957142D01*
X120617857Y-63928571D01*
X120546428Y-63900000D01*
X120475000Y-63842857D01*
X120439285Y-63757142D01*
X120439285Y-63700000D01*
X120475000Y-63614285D01*
X120510714Y-63585714D01*
X120439285Y-63385714D02*
X120439285Y-63014285D01*
X120725000Y-63214285D01*
X120725000Y-63128571D01*
X120760714Y-63071428D01*
X120796428Y-63042857D01*
X120867857Y-63014285D01*
X121046428Y-63014285D01*
X121117857Y-63042857D01*
X121153571Y-63071428D01*
X121189285Y-63128571D01*
X121189285Y-63300000D01*
X121153571Y-63357142D01*
X121117857Y-63385714D01*
X120510714Y-62785714D02*
X120475000Y-62757142D01*
X120439285Y-62700000D01*
X120439285Y-62557142D01*
X120475000Y-62500000D01*
X120510714Y-62471428D01*
X120582142Y-62442857D01*
X120653571Y-62442857D01*
X120760714Y-62471428D01*
X121189285Y-62814285D01*
X121189285Y-62442857D01*
X143417857Y-80350714D02*
X143453571Y-80379285D01*
X143489285Y-80465000D01*
X143489285Y-80522142D01*
X143453571Y-80607857D01*
X143382142Y-80665000D01*
X143310714Y-80693571D01*
X143167857Y-80722142D01*
X143060714Y-80722142D01*
X142917857Y-80693571D01*
X142846428Y-80665000D01*
X142775000Y-80607857D01*
X142739285Y-80522142D01*
X142739285Y-80465000D01*
X142775000Y-80379285D01*
X142810714Y-80350714D01*
X142739285Y-80150714D02*
X142739285Y-79779285D01*
X143025000Y-79979285D01*
X143025000Y-79893571D01*
X143060714Y-79836428D01*
X143096428Y-79807857D01*
X143167857Y-79779285D01*
X143346428Y-79779285D01*
X143417857Y-79807857D01*
X143453571Y-79836428D01*
X143489285Y-79893571D01*
X143489285Y-80065000D01*
X143453571Y-80122142D01*
X143417857Y-80150714D01*
X142739285Y-79579285D02*
X142739285Y-79207857D01*
X143025000Y-79407857D01*
X143025000Y-79322142D01*
X143060714Y-79265000D01*
X143096428Y-79236428D01*
X143167857Y-79207857D01*
X143346428Y-79207857D01*
X143417857Y-79236428D01*
X143453571Y-79265000D01*
X143489285Y-79322142D01*
X143489285Y-79493571D01*
X143453571Y-79550714D01*
X143417857Y-79579285D01*
X142417857Y-80285714D02*
X142453571Y-80314285D01*
X142489285Y-80400000D01*
X142489285Y-80457142D01*
X142453571Y-80542857D01*
X142382142Y-80600000D01*
X142310714Y-80628571D01*
X142167857Y-80657142D01*
X142060714Y-80657142D01*
X141917857Y-80628571D01*
X141846428Y-80600000D01*
X141775000Y-80542857D01*
X141739285Y-80457142D01*
X141739285Y-80400000D01*
X141775000Y-80314285D01*
X141810714Y-80285714D01*
X141739285Y-80085714D02*
X141739285Y-79714285D01*
X142025000Y-79914285D01*
X142025000Y-79828571D01*
X142060714Y-79771428D01*
X142096428Y-79742857D01*
X142167857Y-79714285D01*
X142346428Y-79714285D01*
X142417857Y-79742857D01*
X142453571Y-79771428D01*
X142489285Y-79828571D01*
X142489285Y-80000000D01*
X142453571Y-80057142D01*
X142417857Y-80085714D01*
X141989285Y-79200000D02*
X142489285Y-79200000D01*
X141703571Y-79342857D02*
X142239285Y-79485714D01*
X142239285Y-79114285D01*
X141317857Y-80435714D02*
X141353571Y-80464285D01*
X141389285Y-80550000D01*
X141389285Y-80607142D01*
X141353571Y-80692857D01*
X141282142Y-80750000D01*
X141210714Y-80778571D01*
X141067857Y-80807142D01*
X140960714Y-80807142D01*
X140817857Y-80778571D01*
X140746428Y-80750000D01*
X140675000Y-80692857D01*
X140639285Y-80607142D01*
X140639285Y-80550000D01*
X140675000Y-80464285D01*
X140710714Y-80435714D01*
X140639285Y-80235714D02*
X140639285Y-79864285D01*
X140925000Y-80064285D01*
X140925000Y-79978571D01*
X140960714Y-79921428D01*
X140996428Y-79892857D01*
X141067857Y-79864285D01*
X141246428Y-79864285D01*
X141317857Y-79892857D01*
X141353571Y-79921428D01*
X141389285Y-79978571D01*
X141389285Y-80150000D01*
X141353571Y-80207142D01*
X141317857Y-80235714D01*
X140639285Y-79321428D02*
X140639285Y-79607142D01*
X140996428Y-79635714D01*
X140960714Y-79607142D01*
X140925000Y-79550000D01*
X140925000Y-79407142D01*
X140960714Y-79350000D01*
X140996428Y-79321428D01*
X141067857Y-79292857D01*
X141246428Y-79292857D01*
X141317857Y-79321428D01*
X141353571Y-79350000D01*
X141389285Y-79407142D01*
X141389285Y-79550000D01*
X141353571Y-79607142D01*
X141317857Y-79635714D01*
X171214285Y-99017857D02*
X171185714Y-99053571D01*
X171100000Y-99089285D01*
X171042857Y-99089285D01*
X170957142Y-99053571D01*
X170900000Y-98982142D01*
X170871428Y-98910714D01*
X170842857Y-98767857D01*
X170842857Y-98660714D01*
X170871428Y-98517857D01*
X170900000Y-98446428D01*
X170957142Y-98375000D01*
X171042857Y-98339285D01*
X171100000Y-98339285D01*
X171185714Y-98375000D01*
X171214285Y-98410714D01*
X171414285Y-98339285D02*
X171785714Y-98339285D01*
X171585714Y-98625000D01*
X171671428Y-98625000D01*
X171728571Y-98660714D01*
X171757142Y-98696428D01*
X171785714Y-98767857D01*
X171785714Y-98946428D01*
X171757142Y-99017857D01*
X171728571Y-99053571D01*
X171671428Y-99089285D01*
X171500000Y-99089285D01*
X171442857Y-99053571D01*
X171414285Y-99017857D01*
X172300000Y-98339285D02*
X172185714Y-98339285D01*
X172128571Y-98375000D01*
X172100000Y-98410714D01*
X172042857Y-98517857D01*
X172014285Y-98660714D01*
X172014285Y-98946428D01*
X172042857Y-99017857D01*
X172071428Y-99053571D01*
X172128571Y-99089285D01*
X172242857Y-99089285D01*
X172300000Y-99053571D01*
X172328571Y-99017857D01*
X172357142Y-98946428D01*
X172357142Y-98767857D01*
X172328571Y-98696428D01*
X172300000Y-98660714D01*
X172242857Y-98625000D01*
X172128571Y-98625000D01*
X172071428Y-98660714D01*
X172042857Y-98696428D01*
X172014285Y-98767857D01*
X152814285Y-94257857D02*
X152785714Y-94293571D01*
X152700000Y-94329285D01*
X152642857Y-94329285D01*
X152557142Y-94293571D01*
X152500000Y-94222142D01*
X152471428Y-94150714D01*
X152442857Y-94007857D01*
X152442857Y-93900714D01*
X152471428Y-93757857D01*
X152500000Y-93686428D01*
X152557142Y-93615000D01*
X152642857Y-93579285D01*
X152700000Y-93579285D01*
X152785714Y-93615000D01*
X152814285Y-93650714D01*
X153328571Y-93829285D02*
X153328571Y-94329285D01*
X153185714Y-93543571D02*
X153042857Y-94079285D01*
X153414285Y-94079285D01*
X153757142Y-93579285D02*
X153814285Y-93579285D01*
X153871428Y-93615000D01*
X153900000Y-93650714D01*
X153928571Y-93722142D01*
X153957142Y-93865000D01*
X153957142Y-94043571D01*
X153928571Y-94186428D01*
X153900000Y-94257857D01*
X153871428Y-94293571D01*
X153814285Y-94329285D01*
X153757142Y-94329285D01*
X153700000Y-94293571D01*
X153671428Y-94257857D01*
X153642857Y-94186428D01*
X153614285Y-94043571D01*
X153614285Y-93865000D01*
X153642857Y-93722142D01*
X153671428Y-93650714D01*
X153700000Y-93615000D01*
X153757142Y-93579285D01*
X153044285Y-99607857D02*
X153015714Y-99643571D01*
X152930000Y-99679285D01*
X152872857Y-99679285D01*
X152787142Y-99643571D01*
X152730000Y-99572142D01*
X152701428Y-99500714D01*
X152672857Y-99357857D01*
X152672857Y-99250714D01*
X152701428Y-99107857D01*
X152730000Y-99036428D01*
X152787142Y-98965000D01*
X152872857Y-98929285D01*
X152930000Y-98929285D01*
X153015714Y-98965000D01*
X153044285Y-99000714D01*
X153558571Y-99179285D02*
X153558571Y-99679285D01*
X153415714Y-98893571D02*
X153272857Y-99429285D01*
X153644285Y-99429285D01*
X154187142Y-99679285D02*
X153844285Y-99679285D01*
X154015714Y-99679285D02*
X154015714Y-98929285D01*
X153958571Y-99036428D01*
X153901428Y-99107857D01*
X153844285Y-99143571D01*
X157164642Y-103909285D02*
X157164642Y-103159285D01*
X157307500Y-103159285D01*
X157393214Y-103195000D01*
X157450357Y-103266428D01*
X157478928Y-103337857D01*
X157507500Y-103480714D01*
X157507500Y-103587857D01*
X157478928Y-103730714D01*
X157450357Y-103802142D01*
X157393214Y-103873571D01*
X157307500Y-103909285D01*
X157164642Y-103909285D01*
X158078928Y-103909285D02*
X157736071Y-103909285D01*
X157907500Y-103909285D02*
X157907500Y-103159285D01*
X157850357Y-103266428D01*
X157793214Y-103337857D01*
X157736071Y-103373571D01*
X118807142Y-65389285D02*
X118807142Y-64639285D01*
X118950000Y-64639285D01*
X119035714Y-64675000D01*
X119092857Y-64746428D01*
X119121428Y-64817857D01*
X119150000Y-64960714D01*
X119150000Y-65067857D01*
X119121428Y-65210714D01*
X119092857Y-65282142D01*
X119035714Y-65353571D01*
X118950000Y-65389285D01*
X118807142Y-65389285D01*
X119378571Y-64710714D02*
X119407142Y-64675000D01*
X119464285Y-64639285D01*
X119607142Y-64639285D01*
X119664285Y-64675000D01*
X119692857Y-64710714D01*
X119721428Y-64782142D01*
X119721428Y-64853571D01*
X119692857Y-64960714D01*
X119350000Y-65389285D01*
X119721428Y-65389285D01*
X112050000Y-64706428D02*
X111850000Y-64706428D01*
X111850000Y-65099285D02*
X111850000Y-64349285D01*
X112135714Y-64349285D01*
X112564285Y-64706428D02*
X112650000Y-64742142D01*
X112678571Y-64777857D01*
X112707142Y-64849285D01*
X112707142Y-64956428D01*
X112678571Y-65027857D01*
X112650000Y-65063571D01*
X112592857Y-65099285D01*
X112364285Y-65099285D01*
X112364285Y-64349285D01*
X112564285Y-64349285D01*
X112621428Y-64385000D01*
X112650000Y-64420714D01*
X112678571Y-64492142D01*
X112678571Y-64563571D01*
X112650000Y-64635000D01*
X112621428Y-64670714D01*
X112564285Y-64706428D01*
X112364285Y-64706428D01*
X113278571Y-65099285D02*
X112935714Y-65099285D01*
X113107142Y-65099285D02*
X113107142Y-64349285D01*
X113050000Y-64456428D01*
X112992857Y-64527857D01*
X112935714Y-64563571D01*
X170760000Y-96896428D02*
X170560000Y-96896428D01*
X170560000Y-97289285D02*
X170560000Y-96539285D01*
X170845714Y-96539285D01*
X171274285Y-96896428D02*
X171360000Y-96932142D01*
X171388571Y-96967857D01*
X171417142Y-97039285D01*
X171417142Y-97146428D01*
X171388571Y-97217857D01*
X171360000Y-97253571D01*
X171302857Y-97289285D01*
X171074285Y-97289285D01*
X171074285Y-96539285D01*
X171274285Y-96539285D01*
X171331428Y-96575000D01*
X171360000Y-96610714D01*
X171388571Y-96682142D01*
X171388571Y-96753571D01*
X171360000Y-96825000D01*
X171331428Y-96860714D01*
X171274285Y-96896428D01*
X171074285Y-96896428D01*
X171645714Y-96610714D02*
X171674285Y-96575000D01*
X171731428Y-96539285D01*
X171874285Y-96539285D01*
X171931428Y-96575000D01*
X171960000Y-96610714D01*
X171988571Y-96682142D01*
X171988571Y-96753571D01*
X171960000Y-96860714D01*
X171617142Y-97289285D01*
X171988571Y-97289285D01*
X114496428Y-64150000D02*
X114496428Y-64350000D01*
X114889285Y-64350000D02*
X114139285Y-64350000D01*
X114139285Y-64064285D01*
X114496428Y-63635714D02*
X114532142Y-63550000D01*
X114567857Y-63521428D01*
X114639285Y-63492857D01*
X114746428Y-63492857D01*
X114817857Y-63521428D01*
X114853571Y-63550000D01*
X114889285Y-63607142D01*
X114889285Y-63835714D01*
X114139285Y-63835714D01*
X114139285Y-63635714D01*
X114175000Y-63578571D01*
X114210714Y-63550000D01*
X114282142Y-63521428D01*
X114353571Y-63521428D01*
X114425000Y-63550000D01*
X114460714Y-63578571D01*
X114496428Y-63635714D01*
X114496428Y-63835714D01*
X114139285Y-63292857D02*
X114139285Y-62921428D01*
X114425000Y-63121428D01*
X114425000Y-63035714D01*
X114460714Y-62978571D01*
X114496428Y-62950000D01*
X114567857Y-62921428D01*
X114746428Y-62921428D01*
X114817857Y-62950000D01*
X114853571Y-62978571D01*
X114889285Y-63035714D01*
X114889285Y-63207142D01*
X114853571Y-63264285D01*
X114817857Y-63292857D01*
X178535000Y-98639285D02*
X178535000Y-99175000D01*
X178506428Y-99282142D01*
X178449285Y-99353571D01*
X178363571Y-99389285D01*
X178306428Y-99389285D01*
X178763571Y-98639285D02*
X179135000Y-98639285D01*
X178935000Y-98925000D01*
X179020714Y-98925000D01*
X179077857Y-98960714D01*
X179106428Y-98996428D01*
X179135000Y-99067857D01*
X179135000Y-99246428D01*
X179106428Y-99317857D01*
X179077857Y-99353571D01*
X179020714Y-99389285D01*
X178849285Y-99389285D01*
X178792142Y-99353571D01*
X178763571Y-99317857D01*
X174950000Y-56089285D02*
X174950000Y-56625000D01*
X174921428Y-56732142D01*
X174864285Y-56803571D01*
X174778571Y-56839285D01*
X174721428Y-56839285D01*
X175521428Y-56089285D02*
X175235714Y-56089285D01*
X175207142Y-56446428D01*
X175235714Y-56410714D01*
X175292857Y-56375000D01*
X175435714Y-56375000D01*
X175492857Y-56410714D01*
X175521428Y-56446428D01*
X175550000Y-56517857D01*
X175550000Y-56696428D01*
X175521428Y-56767857D01*
X175492857Y-56803571D01*
X175435714Y-56839285D01*
X175292857Y-56839285D01*
X175235714Y-56803571D01*
X175207142Y-56767857D01*
X104489285Y-54950000D02*
X105025000Y-54950000D01*
X105132142Y-54978571D01*
X105203571Y-55035714D01*
X105239285Y-55121428D01*
X105239285Y-55178571D01*
X104489285Y-54407142D02*
X104489285Y-54521428D01*
X104525000Y-54578571D01*
X104560714Y-54607142D01*
X104667857Y-54664285D01*
X104810714Y-54692857D01*
X105096428Y-54692857D01*
X105167857Y-54664285D01*
X105203571Y-54635714D01*
X105239285Y-54578571D01*
X105239285Y-54464285D01*
X105203571Y-54407142D01*
X105167857Y-54378571D01*
X105096428Y-54350000D01*
X104917857Y-54350000D01*
X104846428Y-54378571D01*
X104810714Y-54407142D01*
X104775000Y-54464285D01*
X104775000Y-54578571D01*
X104810714Y-54635714D01*
X104846428Y-54664285D01*
X104917857Y-54692857D01*
X145739285Y-66200000D02*
X145382142Y-66400000D01*
X145739285Y-66542857D02*
X144989285Y-66542857D01*
X144989285Y-66314285D01*
X145025000Y-66257142D01*
X145060714Y-66228571D01*
X145132142Y-66200000D01*
X145239285Y-66200000D01*
X145310714Y-66228571D01*
X145346428Y-66257142D01*
X145382142Y-66314285D01*
X145382142Y-66542857D01*
X145239285Y-65685714D02*
X145739285Y-65685714D01*
X144953571Y-65828571D02*
X145489285Y-65971428D01*
X145489285Y-65600000D01*
X150450000Y-79889285D02*
X150250000Y-79532142D01*
X150107142Y-79889285D02*
X150107142Y-79139285D01*
X150335714Y-79139285D01*
X150392857Y-79175000D01*
X150421428Y-79210714D01*
X150450000Y-79282142D01*
X150450000Y-79389285D01*
X150421428Y-79460714D01*
X150392857Y-79496428D01*
X150335714Y-79532142D01*
X150107142Y-79532142D01*
X150992857Y-79139285D02*
X150707142Y-79139285D01*
X150678571Y-79496428D01*
X150707142Y-79460714D01*
X150764285Y-79425000D01*
X150907142Y-79425000D01*
X150964285Y-79460714D01*
X150992857Y-79496428D01*
X151021428Y-79567857D01*
X151021428Y-79746428D01*
X150992857Y-79817857D01*
X150964285Y-79853571D01*
X150907142Y-79889285D01*
X150764285Y-79889285D01*
X150707142Y-79853571D01*
X150678571Y-79817857D01*
X129500000Y-60289285D02*
X129300000Y-59932142D01*
X129157142Y-60289285D02*
X129157142Y-59539285D01*
X129385714Y-59539285D01*
X129442857Y-59575000D01*
X129471428Y-59610714D01*
X129500000Y-59682142D01*
X129500000Y-59789285D01*
X129471428Y-59860714D01*
X129442857Y-59896428D01*
X129385714Y-59932142D01*
X129157142Y-59932142D01*
X129842857Y-59860714D02*
X129785714Y-59825000D01*
X129757142Y-59789285D01*
X129728571Y-59717857D01*
X129728571Y-59682142D01*
X129757142Y-59610714D01*
X129785714Y-59575000D01*
X129842857Y-59539285D01*
X129957142Y-59539285D01*
X130014285Y-59575000D01*
X130042857Y-59610714D01*
X130071428Y-59682142D01*
X130071428Y-59717857D01*
X130042857Y-59789285D01*
X130014285Y-59825000D01*
X129957142Y-59860714D01*
X129842857Y-59860714D01*
X129785714Y-59896428D01*
X129757142Y-59932142D01*
X129728571Y-60003571D01*
X129728571Y-60146428D01*
X129757142Y-60217857D01*
X129785714Y-60253571D01*
X129842857Y-60289285D01*
X129957142Y-60289285D01*
X130014285Y-60253571D01*
X130042857Y-60217857D01*
X130071428Y-60146428D01*
X130071428Y-60003571D01*
X130042857Y-59932142D01*
X130014285Y-59896428D01*
X129957142Y-59860714D01*
X146739285Y-80235714D02*
X146382142Y-80435714D01*
X146739285Y-80578571D02*
X145989285Y-80578571D01*
X145989285Y-80350000D01*
X146025000Y-80292857D01*
X146060714Y-80264285D01*
X146132142Y-80235714D01*
X146239285Y-80235714D01*
X146310714Y-80264285D01*
X146346428Y-80292857D01*
X146382142Y-80350000D01*
X146382142Y-80578571D01*
X146739285Y-79664285D02*
X146739285Y-80007142D01*
X146739285Y-79835714D02*
X145989285Y-79835714D01*
X146096428Y-79892857D01*
X146167857Y-79950000D01*
X146203571Y-80007142D01*
X145989285Y-79292857D02*
X145989285Y-79235714D01*
X146025000Y-79178571D01*
X146060714Y-79150000D01*
X146132142Y-79121428D01*
X146275000Y-79092857D01*
X146453571Y-79092857D01*
X146596428Y-79121428D01*
X146667857Y-79150000D01*
X146703571Y-79178571D01*
X146739285Y-79235714D01*
X146739285Y-79292857D01*
X146703571Y-79350000D01*
X146667857Y-79378571D01*
X146596428Y-79407142D01*
X146453571Y-79435714D01*
X146275000Y-79435714D01*
X146132142Y-79407142D01*
X146060714Y-79378571D01*
X146025000Y-79350000D01*
X145989285Y-79292857D01*
X146414285Y-97989285D02*
X146214285Y-97632142D01*
X146071428Y-97989285D02*
X146071428Y-97239285D01*
X146300000Y-97239285D01*
X146357142Y-97275000D01*
X146385714Y-97310714D01*
X146414285Y-97382142D01*
X146414285Y-97489285D01*
X146385714Y-97560714D01*
X146357142Y-97596428D01*
X146300000Y-97632142D01*
X146071428Y-97632142D01*
X146985714Y-97989285D02*
X146642857Y-97989285D01*
X146814285Y-97989285D02*
X146814285Y-97239285D01*
X146757142Y-97346428D01*
X146700000Y-97417857D01*
X146642857Y-97453571D01*
X147214285Y-97310714D02*
X147242857Y-97275000D01*
X147300000Y-97239285D01*
X147442857Y-97239285D01*
X147500000Y-97275000D01*
X147528571Y-97310714D01*
X147557142Y-97382142D01*
X147557142Y-97453571D01*
X147528571Y-97560714D01*
X147185714Y-97989285D01*
X147557142Y-97989285D01*
X165429285Y-103975714D02*
X165072142Y-104175714D01*
X165429285Y-104318571D02*
X164679285Y-104318571D01*
X164679285Y-104090000D01*
X164715000Y-104032857D01*
X164750714Y-104004285D01*
X164822142Y-103975714D01*
X164929285Y-103975714D01*
X165000714Y-104004285D01*
X165036428Y-104032857D01*
X165072142Y-104090000D01*
X165072142Y-104318571D01*
X165429285Y-103404285D02*
X165429285Y-103747142D01*
X165429285Y-103575714D02*
X164679285Y-103575714D01*
X164786428Y-103632857D01*
X164857857Y-103690000D01*
X164893571Y-103747142D01*
X164679285Y-103204285D02*
X164679285Y-102832857D01*
X164965000Y-103032857D01*
X164965000Y-102947142D01*
X165000714Y-102890000D01*
X165036428Y-102861428D01*
X165107857Y-102832857D01*
X165286428Y-102832857D01*
X165357857Y-102861428D01*
X165393571Y-102890000D01*
X165429285Y-102947142D01*
X165429285Y-103118571D01*
X165393571Y-103175714D01*
X165357857Y-103204285D01*
X117314285Y-65539285D02*
X117114285Y-65182142D01*
X116971428Y-65539285D02*
X116971428Y-64789285D01*
X117200000Y-64789285D01*
X117257142Y-64825000D01*
X117285714Y-64860714D01*
X117314285Y-64932142D01*
X117314285Y-65039285D01*
X117285714Y-65110714D01*
X117257142Y-65146428D01*
X117200000Y-65182142D01*
X116971428Y-65182142D01*
X117885714Y-65539285D02*
X117542857Y-65539285D01*
X117714285Y-65539285D02*
X117714285Y-64789285D01*
X117657142Y-64896428D01*
X117600000Y-64967857D01*
X117542857Y-65003571D01*
X118400000Y-65039285D02*
X118400000Y-65539285D01*
X118257142Y-64753571D02*
X118114285Y-65289285D01*
X118485714Y-65289285D01*
X136942857Y-60289285D02*
X136942857Y-60896428D01*
X136971428Y-60967857D01*
X137000000Y-61003571D01*
X137057142Y-61039285D01*
X137171428Y-61039285D01*
X137228571Y-61003571D01*
X137257142Y-60967857D01*
X137285714Y-60896428D01*
X137285714Y-60289285D01*
X137885714Y-61039285D02*
X137542857Y-61039285D01*
X137714285Y-61039285D02*
X137714285Y-60289285D01*
X137657142Y-60396428D01*
X137600000Y-60467857D01*
X137542857Y-60503571D01*
X123742857Y-60339285D02*
X123742857Y-60946428D01*
X123771428Y-61017857D01*
X123800000Y-61053571D01*
X123857142Y-61089285D01*
X123971428Y-61089285D01*
X124028571Y-61053571D01*
X124057142Y-61017857D01*
X124085714Y-60946428D01*
X124085714Y-60339285D01*
X124342857Y-60410714D02*
X124371428Y-60375000D01*
X124428571Y-60339285D01*
X124571428Y-60339285D01*
X124628571Y-60375000D01*
X124657142Y-60410714D01*
X124685714Y-60482142D01*
X124685714Y-60553571D01*
X124657142Y-60660714D01*
X124314285Y-61089285D01*
X124685714Y-61089285D01*
X129142857Y-60339285D02*
X129142857Y-60946428D01*
X129171428Y-61017857D01*
X129200000Y-61053571D01*
X129257142Y-61089285D01*
X129371428Y-61089285D01*
X129428571Y-61053571D01*
X129457142Y-61017857D01*
X129485714Y-60946428D01*
X129485714Y-60339285D01*
X129714285Y-60339285D02*
X130085714Y-60339285D01*
X129885714Y-60625000D01*
X129971428Y-60625000D01*
X130028571Y-60660714D01*
X130057142Y-60696428D01*
X130085714Y-60767857D01*
X130085714Y-60946428D01*
X130057142Y-61017857D01*
X130028571Y-61053571D01*
X129971428Y-61089285D01*
X129800000Y-61089285D01*
X129742857Y-61053571D01*
X129714285Y-61017857D01*
X125192857Y-56589285D02*
X125192857Y-57196428D01*
X125221428Y-57267857D01*
X125250000Y-57303571D01*
X125307142Y-57339285D01*
X125421428Y-57339285D01*
X125478571Y-57303571D01*
X125507142Y-57267857D01*
X125535714Y-57196428D01*
X125535714Y-56589285D01*
X126107142Y-56589285D02*
X125821428Y-56589285D01*
X125792857Y-56946428D01*
X125821428Y-56910714D01*
X125878571Y-56875000D01*
X126021428Y-56875000D01*
X126078571Y-56910714D01*
X126107142Y-56946428D01*
X126135714Y-57017857D01*
X126135714Y-57196428D01*
X126107142Y-57267857D01*
X126078571Y-57303571D01*
X126021428Y-57339285D01*
X125878571Y-57339285D01*
X125821428Y-57303571D01*
X125792857Y-57267857D01*
X116292857Y-60639285D02*
X116292857Y-61246428D01*
X116321428Y-61317857D01*
X116350000Y-61353571D01*
X116407142Y-61389285D01*
X116521428Y-61389285D01*
X116578571Y-61353571D01*
X116607142Y-61317857D01*
X116635714Y-61246428D01*
X116635714Y-60639285D01*
X117178571Y-60639285D02*
X117064285Y-60639285D01*
X117007142Y-60675000D01*
X116978571Y-60710714D01*
X116921428Y-60817857D01*
X116892857Y-60960714D01*
X116892857Y-61246428D01*
X116921428Y-61317857D01*
X116950000Y-61353571D01*
X117007142Y-61389285D01*
X117121428Y-61389285D01*
X117178571Y-61353571D01*
X117207142Y-61317857D01*
X117235714Y-61246428D01*
X117235714Y-61067857D01*
X117207142Y-60996428D01*
X117178571Y-60960714D01*
X117121428Y-60925000D01*
X117007142Y-60925000D01*
X116950000Y-60960714D01*
X116921428Y-60996428D01*
X116892857Y-61067857D01*
X162852857Y-91249285D02*
X162852857Y-91856428D01*
X162881428Y-91927857D01*
X162910000Y-91963571D01*
X162967142Y-91999285D01*
X163081428Y-91999285D01*
X163138571Y-91963571D01*
X163167142Y-91927857D01*
X163195714Y-91856428D01*
X163195714Y-91249285D01*
X163424285Y-91249285D02*
X163824285Y-91249285D01*
X163567142Y-91999285D01*
X147092857Y-101379285D02*
X147092857Y-101986428D01*
X147121428Y-102057857D01*
X147150000Y-102093571D01*
X147207142Y-102129285D01*
X147321428Y-102129285D01*
X147378571Y-102093571D01*
X147407142Y-102057857D01*
X147435714Y-101986428D01*
X147435714Y-101379285D01*
X147807142Y-101700714D02*
X147750000Y-101665000D01*
X147721428Y-101629285D01*
X147692857Y-101557857D01*
X147692857Y-101522142D01*
X147721428Y-101450714D01*
X147750000Y-101415000D01*
X147807142Y-101379285D01*
X147921428Y-101379285D01*
X147978571Y-101415000D01*
X148007142Y-101450714D01*
X148035714Y-101522142D01*
X148035714Y-101557857D01*
X148007142Y-101629285D01*
X147978571Y-101665000D01*
X147921428Y-101700714D01*
X147807142Y-101700714D01*
X147750000Y-101736428D01*
X147721428Y-101772142D01*
X147692857Y-101843571D01*
X147692857Y-101986428D01*
X147721428Y-102057857D01*
X147750000Y-102093571D01*
X147807142Y-102129285D01*
X147921428Y-102129285D01*
X147978571Y-102093571D01*
X148007142Y-102057857D01*
X148035714Y-101986428D01*
X148035714Y-101843571D01*
X148007142Y-101772142D01*
X147978571Y-101736428D01*
X147921428Y-101700714D01*
X152624285Y-76247642D02*
X152624285Y-76604785D01*
X152424285Y-75854785D02*
X152624285Y-76247642D01*
X152824285Y-75854785D01*
X153338571Y-76604785D02*
X152995714Y-76604785D01*
X153167142Y-76604785D02*
X153167142Y-75854785D01*
X153110000Y-75961928D01*
X153052857Y-76033357D01*
X152995714Y-76069071D01*
X152474285Y-96502142D02*
X152474285Y-96859285D01*
X152274285Y-96109285D02*
X152474285Y-96502142D01*
X152674285Y-96109285D01*
X152845714Y-96180714D02*
X152874285Y-96145000D01*
X152931428Y-96109285D01*
X153074285Y-96109285D01*
X153131428Y-96145000D01*
X153160000Y-96180714D01*
X153188571Y-96252142D01*
X153188571Y-96323571D01*
X153160000Y-96430714D01*
X152817142Y-96859285D01*
X153188571Y-96859285D01*
X180250000Y-99489285D02*
X180250000Y-100025000D01*
X180221428Y-100132142D01*
X180164285Y-100203571D01*
X180078571Y-100239285D01*
X180021428Y-100239285D01*
X180792857Y-99739285D02*
X180792857Y-100239285D01*
X180650000Y-99453571D02*
X180507142Y-99989285D01*
X180878571Y-99989285D01*
X114417857Y-83585714D02*
X114453571Y-83614285D01*
X114489285Y-83700000D01*
X114489285Y-83757142D01*
X114453571Y-83842857D01*
X114382142Y-83900000D01*
X114310714Y-83928571D01*
X114167857Y-83957142D01*
X114060714Y-83957142D01*
X113917857Y-83928571D01*
X113846428Y-83900000D01*
X113775000Y-83842857D01*
X113739285Y-83757142D01*
X113739285Y-83700000D01*
X113775000Y-83614285D01*
X113810714Y-83585714D01*
X113989285Y-83071428D02*
X114489285Y-83071428D01*
X113703571Y-83214285D02*
X114239285Y-83357142D01*
X114239285Y-82985714D01*
X114060714Y-82671428D02*
X114025000Y-82728571D01*
X113989285Y-82757142D01*
X113917857Y-82785714D01*
X113882142Y-82785714D01*
X113810714Y-82757142D01*
X113775000Y-82728571D01*
X113739285Y-82671428D01*
X113739285Y-82557142D01*
X113775000Y-82500000D01*
X113810714Y-82471428D01*
X113882142Y-82442857D01*
X113917857Y-82442857D01*
X113989285Y-82471428D01*
X114025000Y-82500000D01*
X114060714Y-82557142D01*
X114060714Y-82671428D01*
X114096428Y-82728571D01*
X114132142Y-82757142D01*
X114203571Y-82785714D01*
X114346428Y-82785714D01*
X114417857Y-82757142D01*
X114453571Y-82728571D01*
X114489285Y-82671428D01*
X114489285Y-82557142D01*
X114453571Y-82500000D01*
X114417857Y-82471428D01*
X114346428Y-82442857D01*
X114203571Y-82442857D01*
X114132142Y-82471428D01*
X114096428Y-82500000D01*
X114060714Y-82557142D01*
X136267857Y-97185714D02*
X136303571Y-97214285D01*
X136339285Y-97300000D01*
X136339285Y-97357142D01*
X136303571Y-97442857D01*
X136232142Y-97500000D01*
X136160714Y-97528571D01*
X136017857Y-97557142D01*
X135910714Y-97557142D01*
X135767857Y-97528571D01*
X135696428Y-97500000D01*
X135625000Y-97442857D01*
X135589285Y-97357142D01*
X135589285Y-97300000D01*
X135625000Y-97214285D01*
X135660714Y-97185714D01*
X135839285Y-96671428D02*
X136339285Y-96671428D01*
X135553571Y-96814285D02*
X136089285Y-96957142D01*
X136089285Y-96585714D01*
X136339285Y-96328571D02*
X136339285Y-96214285D01*
X136303571Y-96157142D01*
X136267857Y-96128571D01*
X136160714Y-96071428D01*
X136017857Y-96042857D01*
X135732142Y-96042857D01*
X135660714Y-96071428D01*
X135625000Y-96100000D01*
X135589285Y-96157142D01*
X135589285Y-96271428D01*
X135625000Y-96328571D01*
X135660714Y-96357142D01*
X135732142Y-96385714D01*
X135910714Y-96385714D01*
X135982142Y-96357142D01*
X136017857Y-96328571D01*
X136053571Y-96271428D01*
X136053571Y-96157142D01*
X136017857Y-96100000D01*
X135982142Y-96071428D01*
X135910714Y-96042857D01*
X141424285Y-87357857D02*
X141395714Y-87393571D01*
X141310000Y-87429285D01*
X141252857Y-87429285D01*
X141167142Y-87393571D01*
X141110000Y-87322142D01*
X141081428Y-87250714D01*
X141052857Y-87107857D01*
X141052857Y-87000714D01*
X141081428Y-86857857D01*
X141110000Y-86786428D01*
X141167142Y-86715000D01*
X141252857Y-86679285D01*
X141310000Y-86679285D01*
X141395714Y-86715000D01*
X141424285Y-86750714D01*
X141967142Y-86679285D02*
X141681428Y-86679285D01*
X141652857Y-87036428D01*
X141681428Y-87000714D01*
X141738571Y-86965000D01*
X141881428Y-86965000D01*
X141938571Y-87000714D01*
X141967142Y-87036428D01*
X141995714Y-87107857D01*
X141995714Y-87286428D01*
X141967142Y-87357857D01*
X141938571Y-87393571D01*
X141881428Y-87429285D01*
X141738571Y-87429285D01*
X141681428Y-87393571D01*
X141652857Y-87357857D01*
X142367142Y-86679285D02*
X142424285Y-86679285D01*
X142481428Y-86715000D01*
X142510000Y-86750714D01*
X142538571Y-86822142D01*
X142567142Y-86965000D01*
X142567142Y-87143571D01*
X142538571Y-87286428D01*
X142510000Y-87357857D01*
X142481428Y-87393571D01*
X142424285Y-87429285D01*
X142367142Y-87429285D01*
X142310000Y-87393571D01*
X142281428Y-87357857D01*
X142252857Y-87286428D01*
X142224285Y-87143571D01*
X142224285Y-86965000D01*
X142252857Y-86822142D01*
X142281428Y-86750714D01*
X142310000Y-86715000D01*
X142367142Y-86679285D01*
X137217857Y-97185714D02*
X137253571Y-97214285D01*
X137289285Y-97300000D01*
X137289285Y-97357142D01*
X137253571Y-97442857D01*
X137182142Y-97500000D01*
X137110714Y-97528571D01*
X136967857Y-97557142D01*
X136860714Y-97557142D01*
X136717857Y-97528571D01*
X136646428Y-97500000D01*
X136575000Y-97442857D01*
X136539285Y-97357142D01*
X136539285Y-97300000D01*
X136575000Y-97214285D01*
X136610714Y-97185714D01*
X136539285Y-96642857D02*
X136539285Y-96928571D01*
X136896428Y-96957142D01*
X136860714Y-96928571D01*
X136825000Y-96871428D01*
X136825000Y-96728571D01*
X136860714Y-96671428D01*
X136896428Y-96642857D01*
X136967857Y-96614285D01*
X137146428Y-96614285D01*
X137217857Y-96642857D01*
X137253571Y-96671428D01*
X137289285Y-96728571D01*
X137289285Y-96871428D01*
X137253571Y-96928571D01*
X137217857Y-96957142D01*
X137289285Y-96042857D02*
X137289285Y-96385714D01*
X137289285Y-96214285D02*
X136539285Y-96214285D01*
X136646428Y-96271428D01*
X136717857Y-96328571D01*
X136753571Y-96385714D01*
X138217857Y-97185714D02*
X138253571Y-97214285D01*
X138289285Y-97300000D01*
X138289285Y-97357142D01*
X138253571Y-97442857D01*
X138182142Y-97500000D01*
X138110714Y-97528571D01*
X137967857Y-97557142D01*
X137860714Y-97557142D01*
X137717857Y-97528571D01*
X137646428Y-97500000D01*
X137575000Y-97442857D01*
X137539285Y-97357142D01*
X137539285Y-97300000D01*
X137575000Y-97214285D01*
X137610714Y-97185714D01*
X137539285Y-96642857D02*
X137539285Y-96928571D01*
X137896428Y-96957142D01*
X137860714Y-96928571D01*
X137825000Y-96871428D01*
X137825000Y-96728571D01*
X137860714Y-96671428D01*
X137896428Y-96642857D01*
X137967857Y-96614285D01*
X138146428Y-96614285D01*
X138217857Y-96642857D01*
X138253571Y-96671428D01*
X138289285Y-96728571D01*
X138289285Y-96871428D01*
X138253571Y-96928571D01*
X138217857Y-96957142D01*
X137610714Y-96385714D02*
X137575000Y-96357142D01*
X137539285Y-96300000D01*
X137539285Y-96157142D01*
X137575000Y-96100000D01*
X137610714Y-96071428D01*
X137682142Y-96042857D01*
X137753571Y-96042857D01*
X137860714Y-96071428D01*
X138289285Y-96414285D01*
X138289285Y-96042857D01*
X129217857Y-93665714D02*
X129253571Y-93694285D01*
X129289285Y-93780000D01*
X129289285Y-93837142D01*
X129253571Y-93922857D01*
X129182142Y-93980000D01*
X129110714Y-94008571D01*
X128967857Y-94037142D01*
X128860714Y-94037142D01*
X128717857Y-94008571D01*
X128646428Y-93980000D01*
X128575000Y-93922857D01*
X128539285Y-93837142D01*
X128539285Y-93780000D01*
X128575000Y-93694285D01*
X128610714Y-93665714D01*
X128539285Y-93122857D02*
X128539285Y-93408571D01*
X128896428Y-93437142D01*
X128860714Y-93408571D01*
X128825000Y-93351428D01*
X128825000Y-93208571D01*
X128860714Y-93151428D01*
X128896428Y-93122857D01*
X128967857Y-93094285D01*
X129146428Y-93094285D01*
X129217857Y-93122857D01*
X129253571Y-93151428D01*
X129289285Y-93208571D01*
X129289285Y-93351428D01*
X129253571Y-93408571D01*
X129217857Y-93437142D01*
X128539285Y-92894285D02*
X128539285Y-92522857D01*
X128825000Y-92722857D01*
X128825000Y-92637142D01*
X128860714Y-92580000D01*
X128896428Y-92551428D01*
X128967857Y-92522857D01*
X129146428Y-92522857D01*
X129217857Y-92551428D01*
X129253571Y-92580000D01*
X129289285Y-92637142D01*
X129289285Y-92808571D01*
X129253571Y-92865714D01*
X129217857Y-92894285D01*
X130267857Y-93535714D02*
X130303571Y-93564285D01*
X130339285Y-93650000D01*
X130339285Y-93707142D01*
X130303571Y-93792857D01*
X130232142Y-93850000D01*
X130160714Y-93878571D01*
X130017857Y-93907142D01*
X129910714Y-93907142D01*
X129767857Y-93878571D01*
X129696428Y-93850000D01*
X129625000Y-93792857D01*
X129589285Y-93707142D01*
X129589285Y-93650000D01*
X129625000Y-93564285D01*
X129660714Y-93535714D01*
X129589285Y-92992857D02*
X129589285Y-93278571D01*
X129946428Y-93307142D01*
X129910714Y-93278571D01*
X129875000Y-93221428D01*
X129875000Y-93078571D01*
X129910714Y-93021428D01*
X129946428Y-92992857D01*
X130017857Y-92964285D01*
X130196428Y-92964285D01*
X130267857Y-92992857D01*
X130303571Y-93021428D01*
X130339285Y-93078571D01*
X130339285Y-93221428D01*
X130303571Y-93278571D01*
X130267857Y-93307142D01*
X129839285Y-92450000D02*
X130339285Y-92450000D01*
X129553571Y-92592857D02*
X130089285Y-92735714D01*
X130089285Y-92364285D01*
X140897857Y-92135714D02*
X140933571Y-92164285D01*
X140969285Y-92250000D01*
X140969285Y-92307142D01*
X140933571Y-92392857D01*
X140862142Y-92450000D01*
X140790714Y-92478571D01*
X140647857Y-92507142D01*
X140540714Y-92507142D01*
X140397857Y-92478571D01*
X140326428Y-92450000D01*
X140255000Y-92392857D01*
X140219285Y-92307142D01*
X140219285Y-92250000D01*
X140255000Y-92164285D01*
X140290714Y-92135714D01*
X140219285Y-91592857D02*
X140219285Y-91878571D01*
X140576428Y-91907142D01*
X140540714Y-91878571D01*
X140505000Y-91821428D01*
X140505000Y-91678571D01*
X140540714Y-91621428D01*
X140576428Y-91592857D01*
X140647857Y-91564285D01*
X140826428Y-91564285D01*
X140897857Y-91592857D01*
X140933571Y-91621428D01*
X140969285Y-91678571D01*
X140969285Y-91821428D01*
X140933571Y-91878571D01*
X140897857Y-91907142D01*
X140219285Y-91021428D02*
X140219285Y-91307142D01*
X140576428Y-91335714D01*
X140540714Y-91307142D01*
X140505000Y-91250000D01*
X140505000Y-91107142D01*
X140540714Y-91050000D01*
X140576428Y-91021428D01*
X140647857Y-90992857D01*
X140826428Y-90992857D01*
X140897857Y-91021428D01*
X140933571Y-91050000D01*
X140969285Y-91107142D01*
X140969285Y-91250000D01*
X140933571Y-91307142D01*
X140897857Y-91335714D01*
X141454285Y-86347857D02*
X141425714Y-86383571D01*
X141340000Y-86419285D01*
X141282857Y-86419285D01*
X141197142Y-86383571D01*
X141140000Y-86312142D01*
X141111428Y-86240714D01*
X141082857Y-86097857D01*
X141082857Y-85990714D01*
X141111428Y-85847857D01*
X141140000Y-85776428D01*
X141197142Y-85705000D01*
X141282857Y-85669285D01*
X141340000Y-85669285D01*
X141425714Y-85705000D01*
X141454285Y-85740714D01*
X141997142Y-85669285D02*
X141711428Y-85669285D01*
X141682857Y-86026428D01*
X141711428Y-85990714D01*
X141768571Y-85955000D01*
X141911428Y-85955000D01*
X141968571Y-85990714D01*
X141997142Y-86026428D01*
X142025714Y-86097857D01*
X142025714Y-86276428D01*
X141997142Y-86347857D01*
X141968571Y-86383571D01*
X141911428Y-86419285D01*
X141768571Y-86419285D01*
X141711428Y-86383571D01*
X141682857Y-86347857D01*
X142540000Y-85669285D02*
X142425714Y-85669285D01*
X142368571Y-85705000D01*
X142340000Y-85740714D01*
X142282857Y-85847857D01*
X142254285Y-85990714D01*
X142254285Y-86276428D01*
X142282857Y-86347857D01*
X142311428Y-86383571D01*
X142368571Y-86419285D01*
X142482857Y-86419285D01*
X142540000Y-86383571D01*
X142568571Y-86347857D01*
X142597142Y-86276428D01*
X142597142Y-86097857D01*
X142568571Y-86026428D01*
X142540000Y-85990714D01*
X142482857Y-85955000D01*
X142368571Y-85955000D01*
X142311428Y-85990714D01*
X142282857Y-86026428D01*
X142254285Y-86097857D01*
X133037857Y-82890714D02*
X133073571Y-82919285D01*
X133109285Y-83005000D01*
X133109285Y-83062142D01*
X133073571Y-83147857D01*
X133002142Y-83205000D01*
X132930714Y-83233571D01*
X132787857Y-83262142D01*
X132680714Y-83262142D01*
X132537857Y-83233571D01*
X132466428Y-83205000D01*
X132395000Y-83147857D01*
X132359285Y-83062142D01*
X132359285Y-83005000D01*
X132395000Y-82919285D01*
X132430714Y-82890714D01*
X132359285Y-82347857D02*
X132359285Y-82633571D01*
X132716428Y-82662142D01*
X132680714Y-82633571D01*
X132645000Y-82576428D01*
X132645000Y-82433571D01*
X132680714Y-82376428D01*
X132716428Y-82347857D01*
X132787857Y-82319285D01*
X132966428Y-82319285D01*
X133037857Y-82347857D01*
X133073571Y-82376428D01*
X133109285Y-82433571D01*
X133109285Y-82576428D01*
X133073571Y-82633571D01*
X133037857Y-82662142D01*
X132359285Y-82119285D02*
X132359285Y-81719285D01*
X133109285Y-81976428D01*
X131367857Y-93685714D02*
X131403571Y-93714285D01*
X131439285Y-93800000D01*
X131439285Y-93857142D01*
X131403571Y-93942857D01*
X131332142Y-94000000D01*
X131260714Y-94028571D01*
X131117857Y-94057142D01*
X131010714Y-94057142D01*
X130867857Y-94028571D01*
X130796428Y-94000000D01*
X130725000Y-93942857D01*
X130689285Y-93857142D01*
X130689285Y-93800000D01*
X130725000Y-93714285D01*
X130760714Y-93685714D01*
X130689285Y-93142857D02*
X130689285Y-93428571D01*
X131046428Y-93457142D01*
X131010714Y-93428571D01*
X130975000Y-93371428D01*
X130975000Y-93228571D01*
X131010714Y-93171428D01*
X131046428Y-93142857D01*
X131117857Y-93114285D01*
X131296428Y-93114285D01*
X131367857Y-93142857D01*
X131403571Y-93171428D01*
X131439285Y-93228571D01*
X131439285Y-93371428D01*
X131403571Y-93428571D01*
X131367857Y-93457142D01*
X131010714Y-92771428D02*
X130975000Y-92828571D01*
X130939285Y-92857142D01*
X130867857Y-92885714D01*
X130832142Y-92885714D01*
X130760714Y-92857142D01*
X130725000Y-92828571D01*
X130689285Y-92771428D01*
X130689285Y-92657142D01*
X130725000Y-92600000D01*
X130760714Y-92571428D01*
X130832142Y-92542857D01*
X130867857Y-92542857D01*
X130939285Y-92571428D01*
X130975000Y-92600000D01*
X131010714Y-92657142D01*
X131010714Y-92771428D01*
X131046428Y-92828571D01*
X131082142Y-92857142D01*
X131153571Y-92885714D01*
X131296428Y-92885714D01*
X131367857Y-92857142D01*
X131403571Y-92828571D01*
X131439285Y-92771428D01*
X131439285Y-92657142D01*
X131403571Y-92600000D01*
X131367857Y-92571428D01*
X131296428Y-92542857D01*
X131153571Y-92542857D01*
X131082142Y-92571428D01*
X131046428Y-92600000D01*
X131010714Y-92657142D01*
X130067857Y-84535714D02*
X130103571Y-84564285D01*
X130139285Y-84650000D01*
X130139285Y-84707142D01*
X130103571Y-84792857D01*
X130032142Y-84850000D01*
X129960714Y-84878571D01*
X129817857Y-84907142D01*
X129710714Y-84907142D01*
X129567857Y-84878571D01*
X129496428Y-84850000D01*
X129425000Y-84792857D01*
X129389285Y-84707142D01*
X129389285Y-84650000D01*
X129425000Y-84564285D01*
X129460714Y-84535714D01*
X129389285Y-83992857D02*
X129389285Y-84278571D01*
X129746428Y-84307142D01*
X129710714Y-84278571D01*
X129675000Y-84221428D01*
X129675000Y-84078571D01*
X129710714Y-84021428D01*
X129746428Y-83992857D01*
X129817857Y-83964285D01*
X129996428Y-83964285D01*
X130067857Y-83992857D01*
X130103571Y-84021428D01*
X130139285Y-84078571D01*
X130139285Y-84221428D01*
X130103571Y-84278571D01*
X130067857Y-84307142D01*
X130139285Y-83678571D02*
X130139285Y-83564285D01*
X130103571Y-83507142D01*
X130067857Y-83478571D01*
X129960714Y-83421428D01*
X129817857Y-83392857D01*
X129532142Y-83392857D01*
X129460714Y-83421428D01*
X129425000Y-83450000D01*
X129389285Y-83507142D01*
X129389285Y-83621428D01*
X129425000Y-83678571D01*
X129460714Y-83707142D01*
X129532142Y-83735714D01*
X129710714Y-83735714D01*
X129782142Y-83707142D01*
X129817857Y-83678571D01*
X129853571Y-83621428D01*
X129853571Y-83507142D01*
X129817857Y-83450000D01*
X129782142Y-83421428D01*
X129710714Y-83392857D01*
X128379285Y-90217857D02*
X128350714Y-90253571D01*
X128265000Y-90289285D01*
X128207857Y-90289285D01*
X128122142Y-90253571D01*
X128065000Y-90182142D01*
X128036428Y-90110714D01*
X128007857Y-89967857D01*
X128007857Y-89860714D01*
X128036428Y-89717857D01*
X128065000Y-89646428D01*
X128122142Y-89575000D01*
X128207857Y-89539285D01*
X128265000Y-89539285D01*
X128350714Y-89575000D01*
X128379285Y-89610714D01*
X128893571Y-89539285D02*
X128779285Y-89539285D01*
X128722142Y-89575000D01*
X128693571Y-89610714D01*
X128636428Y-89717857D01*
X128607857Y-89860714D01*
X128607857Y-90146428D01*
X128636428Y-90217857D01*
X128665000Y-90253571D01*
X128722142Y-90289285D01*
X128836428Y-90289285D01*
X128893571Y-90253571D01*
X128922142Y-90217857D01*
X128950714Y-90146428D01*
X128950714Y-89967857D01*
X128922142Y-89896428D01*
X128893571Y-89860714D01*
X128836428Y-89825000D01*
X128722142Y-89825000D01*
X128665000Y-89860714D01*
X128636428Y-89896428D01*
X128607857Y-89967857D01*
X129322142Y-89539285D02*
X129379285Y-89539285D01*
X129436428Y-89575000D01*
X129465000Y-89610714D01*
X129493571Y-89682142D01*
X129522142Y-89825000D01*
X129522142Y-90003571D01*
X129493571Y-90146428D01*
X129465000Y-90217857D01*
X129436428Y-90253571D01*
X129379285Y-90289285D01*
X129322142Y-90289285D01*
X129265000Y-90253571D01*
X129236428Y-90217857D01*
X129207857Y-90146428D01*
X129179285Y-90003571D01*
X129179285Y-89825000D01*
X129207857Y-89682142D01*
X129236428Y-89610714D01*
X129265000Y-89575000D01*
X129322142Y-89539285D01*
X131017857Y-84535714D02*
X131053571Y-84564285D01*
X131089285Y-84650000D01*
X131089285Y-84707142D01*
X131053571Y-84792857D01*
X130982142Y-84850000D01*
X130910714Y-84878571D01*
X130767857Y-84907142D01*
X130660714Y-84907142D01*
X130517857Y-84878571D01*
X130446428Y-84850000D01*
X130375000Y-84792857D01*
X130339285Y-84707142D01*
X130339285Y-84650000D01*
X130375000Y-84564285D01*
X130410714Y-84535714D01*
X130339285Y-84021428D02*
X130339285Y-84135714D01*
X130375000Y-84192857D01*
X130410714Y-84221428D01*
X130517857Y-84278571D01*
X130660714Y-84307142D01*
X130946428Y-84307142D01*
X131017857Y-84278571D01*
X131053571Y-84250000D01*
X131089285Y-84192857D01*
X131089285Y-84078571D01*
X131053571Y-84021428D01*
X131017857Y-83992857D01*
X130946428Y-83964285D01*
X130767857Y-83964285D01*
X130696428Y-83992857D01*
X130660714Y-84021428D01*
X130625000Y-84078571D01*
X130625000Y-84192857D01*
X130660714Y-84250000D01*
X130696428Y-84278571D01*
X130767857Y-84307142D01*
X131089285Y-83392857D02*
X131089285Y-83735714D01*
X131089285Y-83564285D02*
X130339285Y-83564285D01*
X130446428Y-83621428D01*
X130517857Y-83678571D01*
X130553571Y-83735714D01*
X132117857Y-97185714D02*
X132153571Y-97214285D01*
X132189285Y-97300000D01*
X132189285Y-97357142D01*
X132153571Y-97442857D01*
X132082142Y-97500000D01*
X132010714Y-97528571D01*
X131867857Y-97557142D01*
X131760714Y-97557142D01*
X131617857Y-97528571D01*
X131546428Y-97500000D01*
X131475000Y-97442857D01*
X131439285Y-97357142D01*
X131439285Y-97300000D01*
X131475000Y-97214285D01*
X131510714Y-97185714D01*
X131439285Y-96671428D02*
X131439285Y-96785714D01*
X131475000Y-96842857D01*
X131510714Y-96871428D01*
X131617857Y-96928571D01*
X131760714Y-96957142D01*
X132046428Y-96957142D01*
X132117857Y-96928571D01*
X132153571Y-96900000D01*
X132189285Y-96842857D01*
X132189285Y-96728571D01*
X132153571Y-96671428D01*
X132117857Y-96642857D01*
X132046428Y-96614285D01*
X131867857Y-96614285D01*
X131796428Y-96642857D01*
X131760714Y-96671428D01*
X131725000Y-96728571D01*
X131725000Y-96842857D01*
X131760714Y-96900000D01*
X131796428Y-96928571D01*
X131867857Y-96957142D01*
X131689285Y-96100000D02*
X132189285Y-96100000D01*
X131403571Y-96242857D02*
X131939285Y-96385714D01*
X131939285Y-96014285D01*
X131067857Y-97235714D02*
X131103571Y-97264285D01*
X131139285Y-97350000D01*
X131139285Y-97407142D01*
X131103571Y-97492857D01*
X131032142Y-97550000D01*
X130960714Y-97578571D01*
X130817857Y-97607142D01*
X130710714Y-97607142D01*
X130567857Y-97578571D01*
X130496428Y-97550000D01*
X130425000Y-97492857D01*
X130389285Y-97407142D01*
X130389285Y-97350000D01*
X130425000Y-97264285D01*
X130460714Y-97235714D01*
X130389285Y-96721428D02*
X130389285Y-96835714D01*
X130425000Y-96892857D01*
X130460714Y-96921428D01*
X130567857Y-96978571D01*
X130710714Y-97007142D01*
X130996428Y-97007142D01*
X131067857Y-96978571D01*
X131103571Y-96950000D01*
X131139285Y-96892857D01*
X131139285Y-96778571D01*
X131103571Y-96721428D01*
X131067857Y-96692857D01*
X130996428Y-96664285D01*
X130817857Y-96664285D01*
X130746428Y-96692857D01*
X130710714Y-96721428D01*
X130675000Y-96778571D01*
X130675000Y-96892857D01*
X130710714Y-96950000D01*
X130746428Y-96978571D01*
X130817857Y-97007142D01*
X130389285Y-96121428D02*
X130389285Y-96407142D01*
X130746428Y-96435714D01*
X130710714Y-96407142D01*
X130675000Y-96350000D01*
X130675000Y-96207142D01*
X130710714Y-96150000D01*
X130746428Y-96121428D01*
X130817857Y-96092857D01*
X130996428Y-96092857D01*
X131067857Y-96121428D01*
X131103571Y-96150000D01*
X131139285Y-96207142D01*
X131139285Y-96350000D01*
X131103571Y-96407142D01*
X131067857Y-96435714D01*
X129867857Y-97185714D02*
X129903571Y-97214285D01*
X129939285Y-97300000D01*
X129939285Y-97357142D01*
X129903571Y-97442857D01*
X129832142Y-97500000D01*
X129760714Y-97528571D01*
X129617857Y-97557142D01*
X129510714Y-97557142D01*
X129367857Y-97528571D01*
X129296428Y-97500000D01*
X129225000Y-97442857D01*
X129189285Y-97357142D01*
X129189285Y-97300000D01*
X129225000Y-97214285D01*
X129260714Y-97185714D01*
X129189285Y-96671428D02*
X129189285Y-96785714D01*
X129225000Y-96842857D01*
X129260714Y-96871428D01*
X129367857Y-96928571D01*
X129510714Y-96957142D01*
X129796428Y-96957142D01*
X129867857Y-96928571D01*
X129903571Y-96900000D01*
X129939285Y-96842857D01*
X129939285Y-96728571D01*
X129903571Y-96671428D01*
X129867857Y-96642857D01*
X129796428Y-96614285D01*
X129617857Y-96614285D01*
X129546428Y-96642857D01*
X129510714Y-96671428D01*
X129475000Y-96728571D01*
X129475000Y-96842857D01*
X129510714Y-96900000D01*
X129546428Y-96928571D01*
X129617857Y-96957142D01*
X129189285Y-96100000D02*
X129189285Y-96214285D01*
X129225000Y-96271428D01*
X129260714Y-96300000D01*
X129367857Y-96357142D01*
X129510714Y-96385714D01*
X129796428Y-96385714D01*
X129867857Y-96357142D01*
X129903571Y-96328571D01*
X129939285Y-96271428D01*
X129939285Y-96157142D01*
X129903571Y-96100000D01*
X129867857Y-96071428D01*
X129796428Y-96042857D01*
X129617857Y-96042857D01*
X129546428Y-96071428D01*
X129510714Y-96100000D01*
X129475000Y-96157142D01*
X129475000Y-96271428D01*
X129510714Y-96328571D01*
X129546428Y-96357142D01*
X129617857Y-96385714D01*
X112100000Y-82596428D02*
X111900000Y-82596428D01*
X111900000Y-82989285D02*
X111900000Y-82239285D01*
X112185714Y-82239285D01*
X112614285Y-82596428D02*
X112700000Y-82632142D01*
X112728571Y-82667857D01*
X112757142Y-82739285D01*
X112757142Y-82846428D01*
X112728571Y-82917857D01*
X112700000Y-82953571D01*
X112642857Y-82989285D01*
X112414285Y-82989285D01*
X112414285Y-82239285D01*
X112614285Y-82239285D01*
X112671428Y-82275000D01*
X112700000Y-82310714D01*
X112728571Y-82382142D01*
X112728571Y-82453571D01*
X112700000Y-82525000D01*
X112671428Y-82560714D01*
X112614285Y-82596428D01*
X112414285Y-82596428D01*
X113271428Y-82489285D02*
X113271428Y-82989285D01*
X113128571Y-82203571D02*
X112985714Y-82739285D01*
X113357142Y-82739285D01*
X183650000Y-60839285D02*
X183650000Y-61375000D01*
X183621428Y-61482142D01*
X183564285Y-61553571D01*
X183478571Y-61589285D01*
X183421428Y-61589285D01*
X183878571Y-60839285D02*
X184278571Y-60839285D01*
X184021428Y-61589285D01*
X134119285Y-82920714D02*
X133762142Y-83120714D01*
X134119285Y-83263571D02*
X133369285Y-83263571D01*
X133369285Y-83035000D01*
X133405000Y-82977857D01*
X133440714Y-82949285D01*
X133512142Y-82920714D01*
X133619285Y-82920714D01*
X133690714Y-82949285D01*
X133726428Y-82977857D01*
X133762142Y-83035000D01*
X133762142Y-83263571D01*
X134119285Y-82349285D02*
X134119285Y-82692142D01*
X134119285Y-82520714D02*
X133369285Y-82520714D01*
X133476428Y-82577857D01*
X133547857Y-82635000D01*
X133583571Y-82692142D01*
X133690714Y-82006428D02*
X133655000Y-82063571D01*
X133619285Y-82092142D01*
X133547857Y-82120714D01*
X133512142Y-82120714D01*
X133440714Y-82092142D01*
X133405000Y-82063571D01*
X133369285Y-82006428D01*
X133369285Y-81892142D01*
X133405000Y-81835000D01*
X133440714Y-81806428D01*
X133512142Y-81777857D01*
X133547857Y-81777857D01*
X133619285Y-81806428D01*
X133655000Y-81835000D01*
X133690714Y-81892142D01*
X133690714Y-82006428D01*
X133726428Y-82063571D01*
X133762142Y-82092142D01*
X133833571Y-82120714D01*
X133976428Y-82120714D01*
X134047857Y-82092142D01*
X134083571Y-82063571D01*
X134119285Y-82006428D01*
X134119285Y-81892142D01*
X134083571Y-81835000D01*
X134047857Y-81806428D01*
X133976428Y-81777857D01*
X133833571Y-81777857D01*
X133762142Y-81806428D01*
X133726428Y-81835000D01*
X133690714Y-81892142D01*
X139289285Y-97235714D02*
X138932142Y-97435714D01*
X139289285Y-97578571D02*
X138539285Y-97578571D01*
X138539285Y-97350000D01*
X138575000Y-97292857D01*
X138610714Y-97264285D01*
X138682142Y-97235714D01*
X138789285Y-97235714D01*
X138860714Y-97264285D01*
X138896428Y-97292857D01*
X138932142Y-97350000D01*
X138932142Y-97578571D01*
X139289285Y-96664285D02*
X139289285Y-97007142D01*
X139289285Y-96835714D02*
X138539285Y-96835714D01*
X138646428Y-96892857D01*
X138717857Y-96950000D01*
X138753571Y-97007142D01*
X139289285Y-96378571D02*
X139289285Y-96264285D01*
X139253571Y-96207142D01*
X139217857Y-96178571D01*
X139110714Y-96121428D01*
X138967857Y-96092857D01*
X138682142Y-96092857D01*
X138610714Y-96121428D01*
X138575000Y-96150000D01*
X138539285Y-96207142D01*
X138539285Y-96321428D01*
X138575000Y-96378571D01*
X138610714Y-96407142D01*
X138682142Y-96435714D01*
X138860714Y-96435714D01*
X138932142Y-96407142D01*
X138967857Y-96378571D01*
X139003571Y-96321428D01*
X139003571Y-96207142D01*
X138967857Y-96150000D01*
X138932142Y-96121428D01*
X138860714Y-96092857D01*
X135289285Y-97185714D02*
X134932142Y-97385714D01*
X135289285Y-97528571D02*
X134539285Y-97528571D01*
X134539285Y-97300000D01*
X134575000Y-97242857D01*
X134610714Y-97214285D01*
X134682142Y-97185714D01*
X134789285Y-97185714D01*
X134860714Y-97214285D01*
X134896428Y-97242857D01*
X134932142Y-97300000D01*
X134932142Y-97528571D01*
X134610714Y-96957142D02*
X134575000Y-96928571D01*
X134539285Y-96871428D01*
X134539285Y-96728571D01*
X134575000Y-96671428D01*
X134610714Y-96642857D01*
X134682142Y-96614285D01*
X134753571Y-96614285D01*
X134860714Y-96642857D01*
X135289285Y-96985714D01*
X135289285Y-96614285D01*
X134610714Y-96385714D02*
X134575000Y-96357142D01*
X134539285Y-96300000D01*
X134539285Y-96157142D01*
X134575000Y-96100000D01*
X134610714Y-96071428D01*
X134682142Y-96042857D01*
X134753571Y-96042857D01*
X134860714Y-96071428D01*
X135289285Y-96414285D01*
X135289285Y-96042857D01*
X140914285Y-93332142D02*
X140914285Y-93689285D01*
X140714285Y-92939285D02*
X140914285Y-93332142D01*
X141114285Y-92939285D01*
X141257142Y-92939285D02*
X141628571Y-92939285D01*
X141428571Y-93225000D01*
X141514285Y-93225000D01*
X141571428Y-93260714D01*
X141600000Y-93296428D01*
X141628571Y-93367857D01*
X141628571Y-93546428D01*
X141600000Y-93617857D01*
X141571428Y-93653571D01*
X141514285Y-93689285D01*
X141342857Y-93689285D01*
X141285714Y-93653571D01*
X141257142Y-93617857D01*
X123189285Y-56285714D02*
X122832142Y-56485714D01*
X123189285Y-56628571D02*
X122439285Y-56628571D01*
X122439285Y-56400000D01*
X122475000Y-56342857D01*
X122510714Y-56314285D01*
X122582142Y-56285714D01*
X122689285Y-56285714D01*
X122760714Y-56314285D01*
X122796428Y-56342857D01*
X122832142Y-56400000D01*
X122832142Y-56628571D01*
X122510714Y-56057142D02*
X122475000Y-56028571D01*
X122439285Y-55971428D01*
X122439285Y-55828571D01*
X122475000Y-55771428D01*
X122510714Y-55742857D01*
X122582142Y-55714285D01*
X122653571Y-55714285D01*
X122760714Y-55742857D01*
X123189285Y-56085714D01*
X123189285Y-55714285D01*
X122439285Y-55514285D02*
X122439285Y-55142857D01*
X122725000Y-55342857D01*
X122725000Y-55257142D01*
X122760714Y-55200000D01*
X122796428Y-55171428D01*
X122867857Y-55142857D01*
X123046428Y-55142857D01*
X123117857Y-55171428D01*
X123153571Y-55200000D01*
X123189285Y-55257142D01*
X123189285Y-55428571D01*
X123153571Y-55485714D01*
X123117857Y-55514285D01*
X111414285Y-58817857D02*
X111385714Y-58853571D01*
X111300000Y-58889285D01*
X111242857Y-58889285D01*
X111157142Y-58853571D01*
X111100000Y-58782142D01*
X111071428Y-58710714D01*
X111042857Y-58567857D01*
X111042857Y-58460714D01*
X111071428Y-58317857D01*
X111100000Y-58246428D01*
X111157142Y-58175000D01*
X111242857Y-58139285D01*
X111300000Y-58139285D01*
X111385714Y-58175000D01*
X111414285Y-58210714D01*
X111642857Y-58210714D02*
X111671428Y-58175000D01*
X111728571Y-58139285D01*
X111871428Y-58139285D01*
X111928571Y-58175000D01*
X111957142Y-58210714D01*
X111985714Y-58282142D01*
X111985714Y-58353571D01*
X111957142Y-58460714D01*
X111614285Y-58889285D01*
X111985714Y-58889285D01*
X112357142Y-58139285D02*
X112414285Y-58139285D01*
X112471428Y-58175000D01*
X112500000Y-58210714D01*
X112528571Y-58282142D01*
X112557142Y-58425000D01*
X112557142Y-58603571D01*
X112528571Y-58746428D01*
X112500000Y-58817857D01*
X112471428Y-58853571D01*
X112414285Y-58889285D01*
X112357142Y-58889285D01*
X112300000Y-58853571D01*
X112271428Y-58817857D01*
X112242857Y-58746428D01*
X112214285Y-58603571D01*
X112214285Y-58425000D01*
X112242857Y-58282142D01*
X112271428Y-58210714D01*
X112300000Y-58175000D01*
X112357142Y-58139285D01*
X132100000Y-60239285D02*
X131900000Y-59882142D01*
X131757142Y-60239285D02*
X131757142Y-59489285D01*
X131985714Y-59489285D01*
X132042857Y-59525000D01*
X132071428Y-59560714D01*
X132100000Y-59632142D01*
X132100000Y-59739285D01*
X132071428Y-59810714D01*
X132042857Y-59846428D01*
X131985714Y-59882142D01*
X131757142Y-59882142D01*
X132385714Y-60239285D02*
X132500000Y-60239285D01*
X132557142Y-60203571D01*
X132585714Y-60167857D01*
X132642857Y-60060714D01*
X132671428Y-59917857D01*
X132671428Y-59632142D01*
X132642857Y-59560714D01*
X132614285Y-59525000D01*
X132557142Y-59489285D01*
X132442857Y-59489285D01*
X132385714Y-59525000D01*
X132357142Y-59560714D01*
X132328571Y-59632142D01*
X132328571Y-59810714D01*
X132357142Y-59882142D01*
X132385714Y-59917857D01*
X132442857Y-59953571D01*
X132557142Y-59953571D01*
X132614285Y-59917857D01*
X132642857Y-59882142D01*
X132671428Y-59810714D01*
X133614285Y-65967857D02*
X133585714Y-66003571D01*
X133500000Y-66039285D01*
X133442857Y-66039285D01*
X133357142Y-66003571D01*
X133300000Y-65932142D01*
X133271428Y-65860714D01*
X133242857Y-65717857D01*
X133242857Y-65610714D01*
X133271428Y-65467857D01*
X133300000Y-65396428D01*
X133357142Y-65325000D01*
X133442857Y-65289285D01*
X133500000Y-65289285D01*
X133585714Y-65325000D01*
X133614285Y-65360714D01*
X133842857Y-65360714D02*
X133871428Y-65325000D01*
X133928571Y-65289285D01*
X134071428Y-65289285D01*
X134128571Y-65325000D01*
X134157142Y-65360714D01*
X134185714Y-65432142D01*
X134185714Y-65503571D01*
X134157142Y-65610714D01*
X133814285Y-66039285D01*
X134185714Y-66039285D01*
X134757142Y-66039285D02*
X134414285Y-66039285D01*
X134585714Y-66039285D02*
X134585714Y-65289285D01*
X134528571Y-65396428D01*
X134471428Y-65467857D01*
X134414285Y-65503571D01*
X134314285Y-64667857D02*
X134285714Y-64703571D01*
X134200000Y-64739285D01*
X134142857Y-64739285D01*
X134057142Y-64703571D01*
X134000000Y-64632142D01*
X133971428Y-64560714D01*
X133942857Y-64417857D01*
X133942857Y-64310714D01*
X133971428Y-64167857D01*
X134000000Y-64096428D01*
X134057142Y-64025000D01*
X134142857Y-63989285D01*
X134200000Y-63989285D01*
X134285714Y-64025000D01*
X134314285Y-64060714D01*
X134542857Y-64060714D02*
X134571428Y-64025000D01*
X134628571Y-63989285D01*
X134771428Y-63989285D01*
X134828571Y-64025000D01*
X134857142Y-64060714D01*
X134885714Y-64132142D01*
X134885714Y-64203571D01*
X134857142Y-64310714D01*
X134514285Y-64739285D01*
X134885714Y-64739285D01*
X135085714Y-63989285D02*
X135457142Y-63989285D01*
X135257142Y-64275000D01*
X135342857Y-64275000D01*
X135400000Y-64310714D01*
X135428571Y-64346428D01*
X135457142Y-64417857D01*
X135457142Y-64596428D01*
X135428571Y-64667857D01*
X135400000Y-64703571D01*
X135342857Y-64739285D01*
X135171428Y-64739285D01*
X135114285Y-64703571D01*
X135085714Y-64667857D01*
X128351785Y-66117857D02*
X128323214Y-66153571D01*
X128237500Y-66189285D01*
X128180357Y-66189285D01*
X128094642Y-66153571D01*
X128037500Y-66082142D01*
X128008928Y-66010714D01*
X127980357Y-65867857D01*
X127980357Y-65760714D01*
X128008928Y-65617857D01*
X128037500Y-65546428D01*
X128094642Y-65475000D01*
X128180357Y-65439285D01*
X128237500Y-65439285D01*
X128323214Y-65475000D01*
X128351785Y-65510714D01*
X128580357Y-65510714D02*
X128608928Y-65475000D01*
X128666071Y-65439285D01*
X128808928Y-65439285D01*
X128866071Y-65475000D01*
X128894642Y-65510714D01*
X128923214Y-65582142D01*
X128923214Y-65653571D01*
X128894642Y-65760714D01*
X128551785Y-66189285D01*
X128923214Y-66189285D01*
X129123214Y-65439285D02*
X129523214Y-65439285D01*
X129266071Y-66189285D01*
X123914285Y-64667857D02*
X123885714Y-64703571D01*
X123800000Y-64739285D01*
X123742857Y-64739285D01*
X123657142Y-64703571D01*
X123600000Y-64632142D01*
X123571428Y-64560714D01*
X123542857Y-64417857D01*
X123542857Y-64310714D01*
X123571428Y-64167857D01*
X123600000Y-64096428D01*
X123657142Y-64025000D01*
X123742857Y-63989285D01*
X123800000Y-63989285D01*
X123885714Y-64025000D01*
X123914285Y-64060714D01*
X124142857Y-64060714D02*
X124171428Y-64025000D01*
X124228571Y-63989285D01*
X124371428Y-63989285D01*
X124428571Y-64025000D01*
X124457142Y-64060714D01*
X124485714Y-64132142D01*
X124485714Y-64203571D01*
X124457142Y-64310714D01*
X124114285Y-64739285D01*
X124485714Y-64739285D01*
X124828571Y-64310714D02*
X124771428Y-64275000D01*
X124742857Y-64239285D01*
X124714285Y-64167857D01*
X124714285Y-64132142D01*
X124742857Y-64060714D01*
X124771428Y-64025000D01*
X124828571Y-63989285D01*
X124942857Y-63989285D01*
X125000000Y-64025000D01*
X125028571Y-64060714D01*
X125057142Y-64132142D01*
X125057142Y-64167857D01*
X125028571Y-64239285D01*
X125000000Y-64275000D01*
X124942857Y-64310714D01*
X124828571Y-64310714D01*
X124771428Y-64346428D01*
X124742857Y-64382142D01*
X124714285Y-64453571D01*
X124714285Y-64596428D01*
X124742857Y-64667857D01*
X124771428Y-64703571D01*
X124828571Y-64739285D01*
X124942857Y-64739285D01*
X125000000Y-64703571D01*
X125028571Y-64667857D01*
X125057142Y-64596428D01*
X125057142Y-64453571D01*
X125028571Y-64382142D01*
X125000000Y-64346428D01*
X124942857Y-64310714D01*
X129179285Y-64567857D02*
X129150714Y-64603571D01*
X129065000Y-64639285D01*
X129007857Y-64639285D01*
X128922142Y-64603571D01*
X128865000Y-64532142D01*
X128836428Y-64460714D01*
X128807857Y-64317857D01*
X128807857Y-64210714D01*
X128836428Y-64067857D01*
X128865000Y-63996428D01*
X128922142Y-63925000D01*
X129007857Y-63889285D01*
X129065000Y-63889285D01*
X129150714Y-63925000D01*
X129179285Y-63960714D01*
X129407857Y-63960714D02*
X129436428Y-63925000D01*
X129493571Y-63889285D01*
X129636428Y-63889285D01*
X129693571Y-63925000D01*
X129722142Y-63960714D01*
X129750714Y-64032142D01*
X129750714Y-64103571D01*
X129722142Y-64210714D01*
X129379285Y-64639285D01*
X129750714Y-64639285D01*
X130036428Y-64639285D02*
X130150714Y-64639285D01*
X130207857Y-64603571D01*
X130236428Y-64567857D01*
X130293571Y-64460714D01*
X130322142Y-64317857D01*
X130322142Y-64032142D01*
X130293571Y-63960714D01*
X130265000Y-63925000D01*
X130207857Y-63889285D01*
X130093571Y-63889285D01*
X130036428Y-63925000D01*
X130007857Y-63960714D01*
X129979285Y-64032142D01*
X129979285Y-64210714D01*
X130007857Y-64282142D01*
X130036428Y-64317857D01*
X130093571Y-64353571D01*
X130207857Y-64353571D01*
X130265000Y-64317857D01*
X130293571Y-64282142D01*
X130322142Y-64210714D01*
D16*
X131217857Y-59935714D02*
X131253571Y-59964285D01*
X131289285Y-60050000D01*
X131289285Y-60107142D01*
X131253571Y-60192857D01*
X131182142Y-60250000D01*
X131110714Y-60278571D01*
X130967857Y-60307142D01*
X130860714Y-60307142D01*
X130717857Y-60278571D01*
X130646428Y-60250000D01*
X130575000Y-60192857D01*
X130539285Y-60107142D01*
X130539285Y-60050000D01*
X130575000Y-59964285D01*
X130610714Y-59935714D01*
X130539285Y-59735714D02*
X130539285Y-59364285D01*
X130825000Y-59564285D01*
X130825000Y-59478571D01*
X130860714Y-59421428D01*
X130896428Y-59392857D01*
X130967857Y-59364285D01*
X131146428Y-59364285D01*
X131217857Y-59392857D01*
X131253571Y-59421428D01*
X131289285Y-59478571D01*
X131289285Y-59650000D01*
X131253571Y-59707142D01*
X131217857Y-59735714D01*
X130539285Y-58992857D02*
X130539285Y-58935714D01*
X130575000Y-58878571D01*
X130610714Y-58850000D01*
X130682142Y-58821428D01*
X130825000Y-58792857D01*
X131003571Y-58792857D01*
X131146428Y-58821428D01*
X131217857Y-58850000D01*
X131253571Y-58878571D01*
X131289285Y-58935714D01*
X131289285Y-58992857D01*
X131253571Y-59050000D01*
X131217857Y-59078571D01*
X131146428Y-59107142D01*
X131003571Y-59135714D01*
X130825000Y-59135714D01*
X130682142Y-59107142D01*
X130610714Y-59078571D01*
X130575000Y-59050000D01*
X130539285Y-58992857D01*
D10*
X142714285Y-97567857D02*
X142685714Y-97603571D01*
X142600000Y-97639285D01*
X142542857Y-97639285D01*
X142457142Y-97603571D01*
X142400000Y-97532142D01*
X142371428Y-97460714D01*
X142342857Y-97317857D01*
X142342857Y-97210714D01*
X142371428Y-97067857D01*
X142400000Y-96996428D01*
X142457142Y-96925000D01*
X142542857Y-96889285D01*
X142600000Y-96889285D01*
X142685714Y-96925000D01*
X142714285Y-96960714D01*
X143228571Y-96889285D02*
X143114285Y-96889285D01*
X143057142Y-96925000D01*
X143028571Y-96960714D01*
X142971428Y-97067857D01*
X142942857Y-97210714D01*
X142942857Y-97496428D01*
X142971428Y-97567857D01*
X143000000Y-97603571D01*
X143057142Y-97639285D01*
X143171428Y-97639285D01*
X143228571Y-97603571D01*
X143257142Y-97567857D01*
X143285714Y-97496428D01*
X143285714Y-97317857D01*
X143257142Y-97246428D01*
X143228571Y-97210714D01*
X143171428Y-97175000D01*
X143057142Y-97175000D01*
X143000000Y-97210714D01*
X142971428Y-97246428D01*
X142942857Y-97317857D01*
X143485714Y-96889285D02*
X143857142Y-96889285D01*
X143657142Y-97175000D01*
X143742857Y-97175000D01*
X143800000Y-97210714D01*
X143828571Y-97246428D01*
X143857142Y-97317857D01*
X143857142Y-97496428D01*
X143828571Y-97567857D01*
X143800000Y-97603571D01*
X143742857Y-97639285D01*
X143571428Y-97639285D01*
X143514285Y-97603571D01*
X143485714Y-97567857D01*
X114014285Y-87489285D02*
X113814285Y-87132142D01*
X113671428Y-87489285D02*
X113671428Y-86739285D01*
X113900000Y-86739285D01*
X113957142Y-86775000D01*
X113985714Y-86810714D01*
X114014285Y-86882142D01*
X114014285Y-86989285D01*
X113985714Y-87060714D01*
X113957142Y-87096428D01*
X113900000Y-87132142D01*
X113671428Y-87132142D01*
X114585714Y-87489285D02*
X114242857Y-87489285D01*
X114414285Y-87489285D02*
X114414285Y-86739285D01*
X114357142Y-86846428D01*
X114300000Y-86917857D01*
X114242857Y-86953571D01*
X115100000Y-86739285D02*
X114985714Y-86739285D01*
X114928571Y-86775000D01*
X114900000Y-86810714D01*
X114842857Y-86917857D01*
X114814285Y-87060714D01*
X114814285Y-87346428D01*
X114842857Y-87417857D01*
X114871428Y-87453571D01*
X114928571Y-87489285D01*
X115042857Y-87489285D01*
X115100000Y-87453571D01*
X115128571Y-87417857D01*
X115157142Y-87346428D01*
X115157142Y-87167857D01*
X115128571Y-87096428D01*
X115100000Y-87060714D01*
X115042857Y-87025000D01*
X114928571Y-87025000D01*
X114871428Y-87060714D01*
X114842857Y-87096428D01*
X114814285Y-87167857D01*
X114064285Y-88589285D02*
X113864285Y-88232142D01*
X113721428Y-88589285D02*
X113721428Y-87839285D01*
X113950000Y-87839285D01*
X114007142Y-87875000D01*
X114035714Y-87910714D01*
X114064285Y-87982142D01*
X114064285Y-88089285D01*
X114035714Y-88160714D01*
X114007142Y-88196428D01*
X113950000Y-88232142D01*
X113721428Y-88232142D01*
X114635714Y-88589285D02*
X114292857Y-88589285D01*
X114464285Y-88589285D02*
X114464285Y-87839285D01*
X114407142Y-87946428D01*
X114350000Y-88017857D01*
X114292857Y-88053571D01*
X114835714Y-87839285D02*
X115235714Y-87839285D01*
X114978571Y-88589285D01*
X143667857Y-93670714D02*
X143703571Y-93699285D01*
X143739285Y-93785000D01*
X143739285Y-93842142D01*
X143703571Y-93927857D01*
X143632142Y-93985000D01*
X143560714Y-94013571D01*
X143417857Y-94042142D01*
X143310714Y-94042142D01*
X143167857Y-94013571D01*
X143096428Y-93985000D01*
X143025000Y-93927857D01*
X142989285Y-93842142D01*
X142989285Y-93785000D01*
X143025000Y-93699285D01*
X143060714Y-93670714D01*
X142989285Y-93156428D02*
X142989285Y-93270714D01*
X143025000Y-93327857D01*
X143060714Y-93356428D01*
X143167857Y-93413571D01*
X143310714Y-93442142D01*
X143596428Y-93442142D01*
X143667857Y-93413571D01*
X143703571Y-93385000D01*
X143739285Y-93327857D01*
X143739285Y-93213571D01*
X143703571Y-93156428D01*
X143667857Y-93127857D01*
X143596428Y-93099285D01*
X143417857Y-93099285D01*
X143346428Y-93127857D01*
X143310714Y-93156428D01*
X143275000Y-93213571D01*
X143275000Y-93327857D01*
X143310714Y-93385000D01*
X143346428Y-93413571D01*
X143417857Y-93442142D01*
X143060714Y-92870714D02*
X143025000Y-92842142D01*
X142989285Y-92785000D01*
X142989285Y-92642142D01*
X143025000Y-92585000D01*
X143060714Y-92556428D01*
X143132142Y-92527857D01*
X143203571Y-92527857D01*
X143310714Y-92556428D01*
X143739285Y-92899285D01*
X143739285Y-92527857D01*
X154229285Y-80567857D02*
X154200714Y-80603571D01*
X154115000Y-80639285D01*
X154057857Y-80639285D01*
X153972142Y-80603571D01*
X153915000Y-80532142D01*
X153886428Y-80460714D01*
X153857857Y-80317857D01*
X153857857Y-80210714D01*
X153886428Y-80067857D01*
X153915000Y-79996428D01*
X153972142Y-79925000D01*
X154057857Y-79889285D01*
X154115000Y-79889285D01*
X154200714Y-79925000D01*
X154229285Y-79960714D01*
X154457857Y-79960714D02*
X154486428Y-79925000D01*
X154543571Y-79889285D01*
X154686428Y-79889285D01*
X154743571Y-79925000D01*
X154772142Y-79960714D01*
X154800714Y-80032142D01*
X154800714Y-80103571D01*
X154772142Y-80210714D01*
X154429285Y-80639285D01*
X154800714Y-80639285D01*
X155343571Y-79889285D02*
X155057857Y-79889285D01*
X155029285Y-80246428D01*
X155057857Y-80210714D01*
X155115000Y-80175000D01*
X155257857Y-80175000D01*
X155315000Y-80210714D01*
X155343571Y-80246428D01*
X155372142Y-80317857D01*
X155372142Y-80496428D01*
X155343571Y-80567857D01*
X155315000Y-80603571D01*
X155257857Y-80639285D01*
X155115000Y-80639285D01*
X155057857Y-80603571D01*
X155029285Y-80567857D01*
X155387857Y-76705714D02*
X155423571Y-76734285D01*
X155459285Y-76820000D01*
X155459285Y-76877142D01*
X155423571Y-76962857D01*
X155352142Y-77020000D01*
X155280714Y-77048571D01*
X155137857Y-77077142D01*
X155030714Y-77077142D01*
X154887857Y-77048571D01*
X154816428Y-77020000D01*
X154745000Y-76962857D01*
X154709285Y-76877142D01*
X154709285Y-76820000D01*
X154745000Y-76734285D01*
X154780714Y-76705714D01*
X154780714Y-76477142D02*
X154745000Y-76448571D01*
X154709285Y-76391428D01*
X154709285Y-76248571D01*
X154745000Y-76191428D01*
X154780714Y-76162857D01*
X154852142Y-76134285D01*
X154923571Y-76134285D01*
X155030714Y-76162857D01*
X155459285Y-76505714D01*
X155459285Y-76134285D01*
X154709285Y-75620000D02*
X154709285Y-75734285D01*
X154745000Y-75791428D01*
X154780714Y-75820000D01*
X154887857Y-75877142D01*
X155030714Y-75905714D01*
X155316428Y-75905714D01*
X155387857Y-75877142D01*
X155423571Y-75848571D01*
X155459285Y-75791428D01*
X155459285Y-75677142D01*
X155423571Y-75620000D01*
X155387857Y-75591428D01*
X155316428Y-75562857D01*
X155137857Y-75562857D01*
X155066428Y-75591428D01*
X155030714Y-75620000D01*
X154995000Y-75677142D01*
X154995000Y-75791428D01*
X155030714Y-75848571D01*
X155066428Y-75877142D01*
X155137857Y-75905714D01*
X144100000Y-79939285D02*
X143900000Y-79582142D01*
X143757142Y-79939285D02*
X143757142Y-79189285D01*
X143985714Y-79189285D01*
X144042857Y-79225000D01*
X144071428Y-79260714D01*
X144100000Y-79332142D01*
X144100000Y-79439285D01*
X144071428Y-79510714D01*
X144042857Y-79546428D01*
X143985714Y-79582142D01*
X143757142Y-79582142D01*
X144614285Y-79189285D02*
X144500000Y-79189285D01*
X144442857Y-79225000D01*
X144414285Y-79260714D01*
X144357142Y-79367857D01*
X144328571Y-79510714D01*
X144328571Y-79796428D01*
X144357142Y-79867857D01*
X144385714Y-79903571D01*
X144442857Y-79939285D01*
X144557142Y-79939285D01*
X144614285Y-79903571D01*
X144642857Y-79867857D01*
X144671428Y-79796428D01*
X144671428Y-79617857D01*
X144642857Y-79546428D01*
X144614285Y-79510714D01*
X144557142Y-79475000D01*
X144442857Y-79475000D01*
X144385714Y-79510714D01*
X144357142Y-79546428D01*
X144328571Y-79617857D01*
X145150000Y-79939285D02*
X144950000Y-79582142D01*
X144807142Y-79939285D02*
X144807142Y-79189285D01*
X145035714Y-79189285D01*
X145092857Y-79225000D01*
X145121428Y-79260714D01*
X145150000Y-79332142D01*
X145150000Y-79439285D01*
X145121428Y-79510714D01*
X145092857Y-79546428D01*
X145035714Y-79582142D01*
X144807142Y-79582142D01*
X145350000Y-79189285D02*
X145750000Y-79189285D01*
X145492857Y-79939285D01*
X143679285Y-66220000D02*
X143322142Y-66420000D01*
X143679285Y-66562857D02*
X142929285Y-66562857D01*
X142929285Y-66334285D01*
X142965000Y-66277142D01*
X143000714Y-66248571D01*
X143072142Y-66220000D01*
X143179285Y-66220000D01*
X143250714Y-66248571D01*
X143286428Y-66277142D01*
X143322142Y-66334285D01*
X143322142Y-66562857D01*
X143679285Y-65648571D02*
X143679285Y-65991428D01*
X143679285Y-65820000D02*
X142929285Y-65820000D01*
X143036428Y-65877142D01*
X143107857Y-65934285D01*
X143143571Y-65991428D01*
D13*
X114366666Y-69539285D02*
X114200000Y-69182142D01*
X114080952Y-69539285D02*
X114080952Y-68789285D01*
X114271428Y-68789285D01*
X114319047Y-68825000D01*
X114342857Y-68860714D01*
X114366666Y-68932142D01*
X114366666Y-69039285D01*
X114342857Y-69110714D01*
X114319047Y-69146428D01*
X114271428Y-69182142D01*
X114080952Y-69182142D01*
X114557142Y-68860714D02*
X114580952Y-68825000D01*
X114628571Y-68789285D01*
X114747619Y-68789285D01*
X114795238Y-68825000D01*
X114819047Y-68860714D01*
X114842857Y-68932142D01*
X114842857Y-69003571D01*
X114819047Y-69110714D01*
X114533333Y-69539285D01*
X114842857Y-69539285D01*
X114366666Y-70639285D02*
X114200000Y-70282142D01*
X114080952Y-70639285D02*
X114080952Y-69889285D01*
X114271428Y-69889285D01*
X114319047Y-69925000D01*
X114342857Y-69960714D01*
X114366666Y-70032142D01*
X114366666Y-70139285D01*
X114342857Y-70210714D01*
X114319047Y-70246428D01*
X114271428Y-70282142D01*
X114080952Y-70282142D01*
X114533333Y-69889285D02*
X114842857Y-69889285D01*
X114676190Y-70175000D01*
X114747619Y-70175000D01*
X114795238Y-70210714D01*
X114819047Y-70246428D01*
X114842857Y-70317857D01*
X114842857Y-70496428D01*
X114819047Y-70567857D01*
X114795238Y-70603571D01*
X114747619Y-70639285D01*
X114604761Y-70639285D01*
X114557142Y-70603571D01*
X114533333Y-70567857D01*
D10*
X132139285Y-82885714D02*
X131782142Y-83085714D01*
X132139285Y-83228571D02*
X131389285Y-83228571D01*
X131389285Y-83000000D01*
X131425000Y-82942857D01*
X131460714Y-82914285D01*
X131532142Y-82885714D01*
X131639285Y-82885714D01*
X131710714Y-82914285D01*
X131746428Y-82942857D01*
X131782142Y-83000000D01*
X131782142Y-83228571D01*
X132139285Y-82314285D02*
X132139285Y-82657142D01*
X132139285Y-82485714D02*
X131389285Y-82485714D01*
X131496428Y-82542857D01*
X131567857Y-82600000D01*
X131603571Y-82657142D01*
X131389285Y-81771428D02*
X131389285Y-82057142D01*
X131746428Y-82085714D01*
X131710714Y-82057142D01*
X131675000Y-82000000D01*
X131675000Y-81857142D01*
X131710714Y-81800000D01*
X131746428Y-81771428D01*
X131817857Y-81742857D01*
X131996428Y-81742857D01*
X132067857Y-81771428D01*
X132103571Y-81800000D01*
X132139285Y-81857142D01*
X132139285Y-82000000D01*
X132103571Y-82057142D01*
X132067857Y-82085714D01*
X133189285Y-97173214D02*
X132832142Y-97373214D01*
X133189285Y-97516071D02*
X132439285Y-97516071D01*
X132439285Y-97287500D01*
X132475000Y-97230357D01*
X132510714Y-97201785D01*
X132582142Y-97173214D01*
X132689285Y-97173214D01*
X132760714Y-97201785D01*
X132796428Y-97230357D01*
X132832142Y-97287500D01*
X132832142Y-97516071D01*
X132510714Y-96944642D02*
X132475000Y-96916071D01*
X132439285Y-96858928D01*
X132439285Y-96716071D01*
X132475000Y-96658928D01*
X132510714Y-96630357D01*
X132582142Y-96601785D01*
X132653571Y-96601785D01*
X132760714Y-96630357D01*
X133189285Y-96973214D01*
X133189285Y-96601785D01*
X132439285Y-96230357D02*
X132439285Y-96173214D01*
X132475000Y-96116071D01*
X132510714Y-96087500D01*
X132582142Y-96058928D01*
X132725000Y-96030357D01*
X132903571Y-96030357D01*
X133046428Y-96058928D01*
X133117857Y-96087500D01*
X133153571Y-96116071D01*
X133189285Y-96173214D01*
X133189285Y-96230357D01*
X133153571Y-96287500D01*
X133117857Y-96316071D01*
X133046428Y-96344642D01*
X132903571Y-96373214D01*
X132725000Y-96373214D01*
X132582142Y-96344642D01*
X132510714Y-96316071D01*
X132475000Y-96287500D01*
X132439285Y-96230357D01*
X134239285Y-97135714D02*
X133882142Y-97335714D01*
X134239285Y-97478571D02*
X133489285Y-97478571D01*
X133489285Y-97250000D01*
X133525000Y-97192857D01*
X133560714Y-97164285D01*
X133632142Y-97135714D01*
X133739285Y-97135714D01*
X133810714Y-97164285D01*
X133846428Y-97192857D01*
X133882142Y-97250000D01*
X133882142Y-97478571D01*
X133560714Y-96907142D02*
X133525000Y-96878571D01*
X133489285Y-96821428D01*
X133489285Y-96678571D01*
X133525000Y-96621428D01*
X133560714Y-96592857D01*
X133632142Y-96564285D01*
X133703571Y-96564285D01*
X133810714Y-96592857D01*
X134239285Y-96935714D01*
X134239285Y-96564285D01*
X134239285Y-95992857D02*
X134239285Y-96335714D01*
X134239285Y-96164285D02*
X133489285Y-96164285D01*
X133596428Y-96221428D01*
X133667857Y-96278571D01*
X133703571Y-96335714D01*
X146392857Y-67739285D02*
X146392857Y-68346428D01*
X146421428Y-68417857D01*
X146450000Y-68453571D01*
X146507142Y-68489285D01*
X146621428Y-68489285D01*
X146678571Y-68453571D01*
X146707142Y-68417857D01*
X146735714Y-68346428D01*
X146735714Y-67739285D01*
X147278571Y-67989285D02*
X147278571Y-68489285D01*
X147135714Y-67703571D02*
X146992857Y-68239285D01*
X147364285Y-68239285D01*
X134942857Y-84439285D02*
X134942857Y-85046428D01*
X134971428Y-85117857D01*
X135000000Y-85153571D01*
X135057142Y-85189285D01*
X135171428Y-85189285D01*
X135228571Y-85153571D01*
X135257142Y-85117857D01*
X135285714Y-85046428D01*
X135285714Y-84439285D01*
X135600000Y-85189285D02*
X135714285Y-85189285D01*
X135771428Y-85153571D01*
X135800000Y-85117857D01*
X135857142Y-85010714D01*
X135885714Y-84867857D01*
X135885714Y-84582142D01*
X135857142Y-84510714D01*
X135828571Y-84475000D01*
X135771428Y-84439285D01*
X135657142Y-84439285D01*
X135600000Y-84475000D01*
X135571428Y-84510714D01*
X135542857Y-84582142D01*
X135542857Y-84760714D01*
X135571428Y-84832142D01*
X135600000Y-84867857D01*
X135657142Y-84903571D01*
X135771428Y-84903571D01*
X135828571Y-84867857D01*
X135857142Y-84832142D01*
X135885714Y-84760714D01*
X167937857Y-91935714D02*
X167973571Y-91964285D01*
X168009285Y-92050000D01*
X168009285Y-92107142D01*
X167973571Y-92192857D01*
X167902142Y-92250000D01*
X167830714Y-92278571D01*
X167687857Y-92307142D01*
X167580714Y-92307142D01*
X167437857Y-92278571D01*
X167366428Y-92250000D01*
X167295000Y-92192857D01*
X167259285Y-92107142D01*
X167259285Y-92050000D01*
X167295000Y-91964285D01*
X167330714Y-91935714D01*
X167259285Y-91735714D02*
X167259285Y-91364285D01*
X167545000Y-91564285D01*
X167545000Y-91478571D01*
X167580714Y-91421428D01*
X167616428Y-91392857D01*
X167687857Y-91364285D01*
X167866428Y-91364285D01*
X167937857Y-91392857D01*
X167973571Y-91421428D01*
X168009285Y-91478571D01*
X168009285Y-91650000D01*
X167973571Y-91707142D01*
X167937857Y-91735714D01*
X167259285Y-91164285D02*
X167259285Y-90764285D01*
X168009285Y-91021428D01*
X157827857Y-101435714D02*
X157863571Y-101464285D01*
X157899285Y-101550000D01*
X157899285Y-101607142D01*
X157863571Y-101692857D01*
X157792142Y-101750000D01*
X157720714Y-101778571D01*
X157577857Y-101807142D01*
X157470714Y-101807142D01*
X157327857Y-101778571D01*
X157256428Y-101750000D01*
X157185000Y-101692857D01*
X157149285Y-101607142D01*
X157149285Y-101550000D01*
X157185000Y-101464285D01*
X157220714Y-101435714D01*
X157149285Y-101235714D02*
X157149285Y-100864285D01*
X157435000Y-101064285D01*
X157435000Y-100978571D01*
X157470714Y-100921428D01*
X157506428Y-100892857D01*
X157577857Y-100864285D01*
X157756428Y-100864285D01*
X157827857Y-100892857D01*
X157863571Y-100921428D01*
X157899285Y-100978571D01*
X157899285Y-101150000D01*
X157863571Y-101207142D01*
X157827857Y-101235714D01*
X157470714Y-100521428D02*
X157435000Y-100578571D01*
X157399285Y-100607142D01*
X157327857Y-100635714D01*
X157292142Y-100635714D01*
X157220714Y-100607142D01*
X157185000Y-100578571D01*
X157149285Y-100521428D01*
X157149285Y-100407142D01*
X157185000Y-100350000D01*
X157220714Y-100321428D01*
X157292142Y-100292857D01*
X157327857Y-100292857D01*
X157399285Y-100321428D01*
X157435000Y-100350000D01*
X157470714Y-100407142D01*
X157470714Y-100521428D01*
X157506428Y-100578571D01*
X157542142Y-100607142D01*
X157613571Y-100635714D01*
X157756428Y-100635714D01*
X157827857Y-100607142D01*
X157863571Y-100578571D01*
X157899285Y-100521428D01*
X157899285Y-100407142D01*
X157863571Y-100350000D01*
X157827857Y-100321428D01*
X157756428Y-100292857D01*
X157613571Y-100292857D01*
X157542142Y-100321428D01*
X157506428Y-100350000D01*
X157470714Y-100407142D01*
X167986785Y-104567857D02*
X167958214Y-104603571D01*
X167872500Y-104639285D01*
X167815357Y-104639285D01*
X167729642Y-104603571D01*
X167672500Y-104532142D01*
X167643928Y-104460714D01*
X167615357Y-104317857D01*
X167615357Y-104210714D01*
X167643928Y-104067857D01*
X167672500Y-103996428D01*
X167729642Y-103925000D01*
X167815357Y-103889285D01*
X167872500Y-103889285D01*
X167958214Y-103925000D01*
X167986785Y-103960714D01*
X168186785Y-103889285D02*
X168558214Y-103889285D01*
X168358214Y-104175000D01*
X168443928Y-104175000D01*
X168501071Y-104210714D01*
X168529642Y-104246428D01*
X168558214Y-104317857D01*
X168558214Y-104496428D01*
X168529642Y-104567857D01*
X168501071Y-104603571D01*
X168443928Y-104639285D01*
X168272500Y-104639285D01*
X168215357Y-104603571D01*
X168186785Y-104567857D01*
X168843928Y-104639285D02*
X168958214Y-104639285D01*
X169015357Y-104603571D01*
X169043928Y-104567857D01*
X169101071Y-104460714D01*
X169129642Y-104317857D01*
X169129642Y-104032142D01*
X169101071Y-103960714D01*
X169072500Y-103925000D01*
X169015357Y-103889285D01*
X168901071Y-103889285D01*
X168843928Y-103925000D01*
X168815357Y-103960714D01*
X168786785Y-104032142D01*
X168786785Y-104210714D01*
X168815357Y-104282142D01*
X168843928Y-104317857D01*
X168901071Y-104353571D01*
X169015357Y-104353571D01*
X169072500Y-104317857D01*
X169101071Y-104282142D01*
X169129642Y-104210714D01*
X156314285Y-93017857D02*
X156285714Y-93053571D01*
X156200000Y-93089285D01*
X156142857Y-93089285D01*
X156057142Y-93053571D01*
X156000000Y-92982142D01*
X155971428Y-92910714D01*
X155942857Y-92767857D01*
X155942857Y-92660714D01*
X155971428Y-92517857D01*
X156000000Y-92446428D01*
X156057142Y-92375000D01*
X156142857Y-92339285D01*
X156200000Y-92339285D01*
X156285714Y-92375000D01*
X156314285Y-92410714D01*
X156828571Y-92589285D02*
X156828571Y-93089285D01*
X156685714Y-92303571D02*
X156542857Y-92839285D01*
X156914285Y-92839285D01*
X157400000Y-92589285D02*
X157400000Y-93089285D01*
X157257142Y-92303571D02*
X157114285Y-92839285D01*
X157485714Y-92839285D01*
X168887857Y-91955714D02*
X168923571Y-91984285D01*
X168959285Y-92070000D01*
X168959285Y-92127142D01*
X168923571Y-92212857D01*
X168852142Y-92270000D01*
X168780714Y-92298571D01*
X168637857Y-92327142D01*
X168530714Y-92327142D01*
X168387857Y-92298571D01*
X168316428Y-92270000D01*
X168245000Y-92212857D01*
X168209285Y-92127142D01*
X168209285Y-92070000D01*
X168245000Y-91984285D01*
X168280714Y-91955714D01*
X168459285Y-91441428D02*
X168959285Y-91441428D01*
X168173571Y-91584285D02*
X168709285Y-91727142D01*
X168709285Y-91355714D01*
X168209285Y-90841428D02*
X168209285Y-91127142D01*
X168566428Y-91155714D01*
X168530714Y-91127142D01*
X168495000Y-91070000D01*
X168495000Y-90927142D01*
X168530714Y-90870000D01*
X168566428Y-90841428D01*
X168637857Y-90812857D01*
X168816428Y-90812857D01*
X168887857Y-90841428D01*
X168923571Y-90870000D01*
X168959285Y-90927142D01*
X168959285Y-91070000D01*
X168923571Y-91127142D01*
X168887857Y-91155714D01*
X156364285Y-94067857D02*
X156335714Y-94103571D01*
X156250000Y-94139285D01*
X156192857Y-94139285D01*
X156107142Y-94103571D01*
X156050000Y-94032142D01*
X156021428Y-93960714D01*
X155992857Y-93817857D01*
X155992857Y-93710714D01*
X156021428Y-93567857D01*
X156050000Y-93496428D01*
X156107142Y-93425000D01*
X156192857Y-93389285D01*
X156250000Y-93389285D01*
X156335714Y-93425000D01*
X156364285Y-93460714D01*
X156878571Y-93639285D02*
X156878571Y-94139285D01*
X156735714Y-93353571D02*
X156592857Y-93889285D01*
X156964285Y-93889285D01*
X157450000Y-93389285D02*
X157335714Y-93389285D01*
X157278571Y-93425000D01*
X157250000Y-93460714D01*
X157192857Y-93567857D01*
X157164285Y-93710714D01*
X157164285Y-93996428D01*
X157192857Y-94067857D01*
X157221428Y-94103571D01*
X157278571Y-94139285D01*
X157392857Y-94139285D01*
X157450000Y-94103571D01*
X157478571Y-94067857D01*
X157507142Y-93996428D01*
X157507142Y-93817857D01*
X157478571Y-93746428D01*
X157450000Y-93710714D01*
X157392857Y-93675000D01*
X157278571Y-93675000D01*
X157221428Y-93710714D01*
X157192857Y-93746428D01*
X157164285Y-93817857D01*
X167984285Y-103537857D02*
X167955714Y-103573571D01*
X167870000Y-103609285D01*
X167812857Y-103609285D01*
X167727142Y-103573571D01*
X167670000Y-103502142D01*
X167641428Y-103430714D01*
X167612857Y-103287857D01*
X167612857Y-103180714D01*
X167641428Y-103037857D01*
X167670000Y-102966428D01*
X167727142Y-102895000D01*
X167812857Y-102859285D01*
X167870000Y-102859285D01*
X167955714Y-102895000D01*
X167984285Y-102930714D01*
X168498571Y-103109285D02*
X168498571Y-103609285D01*
X168355714Y-102823571D02*
X168212857Y-103359285D01*
X168584285Y-103359285D01*
X168755714Y-102859285D02*
X169155714Y-102859285D01*
X168898571Y-103609285D01*
X153164285Y-100719285D02*
X152964285Y-100362142D01*
X152821428Y-100719285D02*
X152821428Y-99969285D01*
X153050000Y-99969285D01*
X153107142Y-100005000D01*
X153135714Y-100040714D01*
X153164285Y-100112142D01*
X153164285Y-100219285D01*
X153135714Y-100290714D01*
X153107142Y-100326428D01*
X153050000Y-100362142D01*
X152821428Y-100362142D01*
X153735714Y-100719285D02*
X153392857Y-100719285D01*
X153564285Y-100719285D02*
X153564285Y-99969285D01*
X153507142Y-100076428D01*
X153450000Y-100147857D01*
X153392857Y-100183571D01*
X154307142Y-100719285D02*
X153964285Y-100719285D01*
X154135714Y-100719285D02*
X154135714Y-99969285D01*
X154078571Y-100076428D01*
X154021428Y-100147857D01*
X153964285Y-100183571D01*
X150814285Y-98332857D02*
X150785714Y-98368571D01*
X150700000Y-98404285D01*
X150642857Y-98404285D01*
X150557142Y-98368571D01*
X150500000Y-98297142D01*
X150471428Y-98225714D01*
X150442857Y-98082857D01*
X150442857Y-97975714D01*
X150471428Y-97832857D01*
X150500000Y-97761428D01*
X150557142Y-97690000D01*
X150642857Y-97654285D01*
X150700000Y-97654285D01*
X150785714Y-97690000D01*
X150814285Y-97725714D01*
X151328571Y-97904285D02*
X151328571Y-98404285D01*
X151185714Y-97618571D02*
X151042857Y-98154285D01*
X151414285Y-98154285D01*
X151614285Y-97725714D02*
X151642857Y-97690000D01*
X151700000Y-97654285D01*
X151842857Y-97654285D01*
X151900000Y-97690000D01*
X151928571Y-97725714D01*
X151957142Y-97797142D01*
X151957142Y-97868571D01*
X151928571Y-97975714D01*
X151585714Y-98404285D01*
X151957142Y-98404285D01*
X150914285Y-103117857D02*
X150885714Y-103153571D01*
X150800000Y-103189285D01*
X150742857Y-103189285D01*
X150657142Y-103153571D01*
X150600000Y-103082142D01*
X150571428Y-103010714D01*
X150542857Y-102867857D01*
X150542857Y-102760714D01*
X150571428Y-102617857D01*
X150600000Y-102546428D01*
X150657142Y-102475000D01*
X150742857Y-102439285D01*
X150800000Y-102439285D01*
X150885714Y-102475000D01*
X150914285Y-102510714D01*
X151428571Y-102689285D02*
X151428571Y-103189285D01*
X151285714Y-102403571D02*
X151142857Y-102939285D01*
X151514285Y-102939285D01*
X151685714Y-102439285D02*
X152057142Y-102439285D01*
X151857142Y-102725000D01*
X151942857Y-102725000D01*
X152000000Y-102760714D01*
X152028571Y-102796428D01*
X152057142Y-102867857D01*
X152057142Y-103046428D01*
X152028571Y-103117857D01*
X152000000Y-103153571D01*
X151942857Y-103189285D01*
X151771428Y-103189285D01*
X151714285Y-103153571D01*
X151685714Y-103117857D01*
M02*
