G04 #@! TF.GenerationSoftware,KiCad,Pcbnew,(5.1.10)-1*
G04 #@! TF.CreationDate,2021-12-01T22:29:42+03:00*
G04 #@! TF.ProjectId,hdmi_to_mipi-dsi_converter,68646d69-5f74-46f5-9f6d-6970692d6473,rev?*
G04 #@! TF.SameCoordinates,Original*
G04 #@! TF.FileFunction,Soldermask,Bot*
G04 #@! TF.FilePolarity,Negative*
%FSLAX46Y46*%
G04 Gerber Fmt 4.6, Leading zero omitted, Abs format (unit mm)*
G04 Created by KiCad (PCBNEW (5.1.10)-1) date 2021-12-01 22:29:42*
%MOMM*%
%LPD*%
G01*
G04 APERTURE LIST*
%ADD10O,2.802000X1.602000*%
%ADD11O,1.102000X1.102000*%
%ADD12C,2.502000*%
%ADD13C,1.552000*%
%ADD14O,1.302000X2.002000*%
%ADD15C,2.802000*%
%ADD16C,0.402000*%
%ADD17C,0.100000*%
G04 APERTURE END LIST*
D10*
X102600000Y-65300000D03*
X109140000Y-65300000D03*
X109140000Y-79800000D03*
X102600000Y-79800000D03*
X102600000Y-83150000D03*
X109140000Y-83150000D03*
X109140000Y-97650000D03*
X102600000Y-97650000D03*
G36*
G01*
X164280000Y-97311000D02*
X163280000Y-97311000D01*
G75*
G02*
X163229000Y-97260000I0J51000D01*
G01*
X163229000Y-96260000D01*
G75*
G02*
X163280000Y-96209000I51000J0D01*
G01*
X164280000Y-96209000D01*
G75*
G02*
X164331000Y-96260000I0J-51000D01*
G01*
X164331000Y-97260000D01*
G75*
G02*
X164280000Y-97311000I-51000J0D01*
G01*
G37*
D11*
X163780000Y-95490000D03*
X165050000Y-96760000D03*
X165050000Y-95490000D03*
X166320000Y-96760000D03*
X166320000Y-95490000D03*
X167590000Y-96760000D03*
X167590000Y-95490000D03*
X168860000Y-96760000D03*
X168860000Y-95490000D03*
G36*
G01*
X103700000Y-56499000D02*
X106100000Y-56499000D01*
G75*
G02*
X106151000Y-56550000I0J-51000D01*
G01*
X106151000Y-58950000D01*
G75*
G02*
X106100000Y-59001000I-51000J0D01*
G01*
X103700000Y-59001000D01*
G75*
G02*
X103649000Y-58950000I0J51000D01*
G01*
X103649000Y-56550000D01*
G75*
G02*
X103700000Y-56499000I51000J0D01*
G01*
G37*
D12*
X104900000Y-61250000D03*
D13*
X150030000Y-94720000D03*
X155030000Y-94720000D03*
D14*
X149030000Y-97420000D03*
X156030000Y-97420000D03*
D15*
X114060000Y-52790000D03*
X114140000Y-96660000D03*
X161930000Y-63000000D03*
X161940000Y-92340000D03*
D16*
X113400000Y-56500000D03*
X114700000Y-56500000D03*
X113400000Y-57800000D03*
X114700000Y-57800000D03*
X113400000Y-59100000D03*
X114700000Y-59100000D03*
X113400000Y-60400000D03*
X114700000Y-60400000D03*
D17*
G36*
X164332990Y-96437882D02*
G01*
X164335372Y-96462069D01*
X164342372Y-96485144D01*
X164353737Y-96506408D01*
X164369032Y-96525045D01*
X164387669Y-96540340D01*
X164408933Y-96551705D01*
X164432008Y-96558705D01*
X164455999Y-96561068D01*
X164479990Y-96558705D01*
X164503065Y-96551705D01*
X164524329Y-96540340D01*
X164542966Y-96525045D01*
X164558324Y-96506330D01*
X164561216Y-96502002D01*
X164563010Y-96501117D01*
X164564673Y-96502228D01*
X164564727Y-96503878D01*
X164524650Y-96600635D01*
X164503653Y-96706192D01*
X164503653Y-96813808D01*
X164524650Y-96919365D01*
X164564727Y-97016122D01*
X164564466Y-97018105D01*
X164562618Y-97018870D01*
X164561216Y-97017998D01*
X164558324Y-97013670D01*
X164542965Y-96994955D01*
X164524328Y-96979660D01*
X164503065Y-96968295D01*
X164479990Y-96961295D01*
X164455998Y-96958932D01*
X164432007Y-96961295D01*
X164408932Y-96968295D01*
X164387669Y-96979660D01*
X164369032Y-96994956D01*
X164353737Y-97013593D01*
X164342372Y-97034856D01*
X164335372Y-97057931D01*
X164332990Y-97082118D01*
X164331825Y-97083744D01*
X164329835Y-97083548D01*
X164329000Y-97081922D01*
X164329000Y-96438078D01*
X164330000Y-96436346D01*
X164332000Y-96436346D01*
X164332990Y-96437882D01*
G37*
G36*
X165799287Y-96587256D02*
G01*
X165799437Y-96589077D01*
X165794650Y-96600635D01*
X165773653Y-96706192D01*
X165773653Y-96813808D01*
X165794650Y-96919365D01*
X165799437Y-96930923D01*
X165799176Y-96932906D01*
X165797328Y-96933671D01*
X165795825Y-96932631D01*
X165787262Y-96916609D01*
X165771967Y-96897972D01*
X165753330Y-96882677D01*
X165732066Y-96871312D01*
X165708991Y-96864312D01*
X165685000Y-96861949D01*
X165661009Y-96864312D01*
X165637934Y-96871312D01*
X165616670Y-96882677D01*
X165598033Y-96897972D01*
X165582738Y-96916609D01*
X165574175Y-96932631D01*
X165572476Y-96933687D01*
X165570713Y-96932744D01*
X165570563Y-96930923D01*
X165575350Y-96919365D01*
X165596347Y-96813808D01*
X165596347Y-96706192D01*
X165575350Y-96600635D01*
X165570563Y-96589077D01*
X165570824Y-96587094D01*
X165572672Y-96586329D01*
X165574175Y-96587369D01*
X165582738Y-96603391D01*
X165598033Y-96622028D01*
X165616670Y-96637323D01*
X165637934Y-96648688D01*
X165661009Y-96655688D01*
X165685000Y-96658051D01*
X165708991Y-96655688D01*
X165732066Y-96648688D01*
X165753330Y-96637323D01*
X165771967Y-96622028D01*
X165787262Y-96603391D01*
X165795825Y-96587369D01*
X165797524Y-96586313D01*
X165799287Y-96587256D01*
G37*
G36*
X168339287Y-96587256D02*
G01*
X168339437Y-96589077D01*
X168334650Y-96600635D01*
X168313653Y-96706192D01*
X168313653Y-96813808D01*
X168334650Y-96919365D01*
X168339437Y-96930923D01*
X168339176Y-96932906D01*
X168337328Y-96933671D01*
X168335825Y-96932631D01*
X168327262Y-96916609D01*
X168311967Y-96897972D01*
X168293330Y-96882677D01*
X168272066Y-96871312D01*
X168248991Y-96864312D01*
X168225000Y-96861949D01*
X168201009Y-96864312D01*
X168177934Y-96871312D01*
X168156670Y-96882677D01*
X168138033Y-96897972D01*
X168122738Y-96916609D01*
X168114175Y-96932631D01*
X168112476Y-96933687D01*
X168110713Y-96932744D01*
X168110563Y-96930923D01*
X168115350Y-96919365D01*
X168136347Y-96813808D01*
X168136347Y-96706192D01*
X168115350Y-96600635D01*
X168110563Y-96589077D01*
X168110824Y-96587094D01*
X168112672Y-96586329D01*
X168114175Y-96587369D01*
X168122738Y-96603391D01*
X168138033Y-96622028D01*
X168156670Y-96637323D01*
X168177934Y-96648688D01*
X168201009Y-96655688D01*
X168225000Y-96658051D01*
X168248991Y-96655688D01*
X168272066Y-96648688D01*
X168293330Y-96637323D01*
X168311967Y-96622028D01*
X168327262Y-96603391D01*
X168335825Y-96587369D01*
X168337524Y-96586313D01*
X168339287Y-96587256D01*
G37*
G36*
X167069287Y-96587256D02*
G01*
X167069437Y-96589077D01*
X167064650Y-96600635D01*
X167043653Y-96706192D01*
X167043653Y-96813808D01*
X167064650Y-96919365D01*
X167069437Y-96930923D01*
X167069176Y-96932906D01*
X167067328Y-96933671D01*
X167065825Y-96932631D01*
X167057262Y-96916609D01*
X167041967Y-96897972D01*
X167023330Y-96882677D01*
X167002066Y-96871312D01*
X166978991Y-96864312D01*
X166955000Y-96861949D01*
X166931009Y-96864312D01*
X166907934Y-96871312D01*
X166886670Y-96882677D01*
X166868033Y-96897972D01*
X166852738Y-96916609D01*
X166844175Y-96932631D01*
X166842476Y-96933687D01*
X166840713Y-96932744D01*
X166840563Y-96930923D01*
X166845350Y-96919365D01*
X166866347Y-96813808D01*
X166866347Y-96706192D01*
X166845350Y-96600635D01*
X166840563Y-96589077D01*
X166840824Y-96587094D01*
X166842672Y-96586329D01*
X166844175Y-96587369D01*
X166852738Y-96603391D01*
X166868033Y-96622028D01*
X166886670Y-96637323D01*
X166907934Y-96648688D01*
X166931009Y-96655688D01*
X166955000Y-96658051D01*
X166978991Y-96655688D01*
X167002066Y-96648688D01*
X167023330Y-96637323D01*
X167041967Y-96622028D01*
X167057262Y-96603391D01*
X167065825Y-96587369D01*
X167067524Y-96586313D01*
X167069287Y-96587256D01*
G37*
G36*
X169032906Y-96010824D02*
G01*
X169033671Y-96012672D01*
X169032631Y-96014175D01*
X169016609Y-96022738D01*
X168997972Y-96038033D01*
X168982677Y-96056670D01*
X168971312Y-96077934D01*
X168964312Y-96101009D01*
X168961949Y-96125000D01*
X168964312Y-96148991D01*
X168971312Y-96172066D01*
X168982677Y-96193330D01*
X168997972Y-96211967D01*
X169016609Y-96227262D01*
X169032631Y-96235825D01*
X169033687Y-96237524D01*
X169032744Y-96239287D01*
X169030923Y-96239437D01*
X169019365Y-96234650D01*
X168913808Y-96213653D01*
X168806192Y-96213653D01*
X168700635Y-96234650D01*
X168689077Y-96239437D01*
X168687094Y-96239176D01*
X168686329Y-96237328D01*
X168687369Y-96235825D01*
X168703391Y-96227262D01*
X168722028Y-96211967D01*
X168737323Y-96193330D01*
X168748688Y-96172066D01*
X168755688Y-96148991D01*
X168758051Y-96125000D01*
X168755688Y-96101009D01*
X168748688Y-96077934D01*
X168737323Y-96056670D01*
X168722028Y-96038033D01*
X168703391Y-96022738D01*
X168687369Y-96014175D01*
X168686313Y-96012476D01*
X168687256Y-96010713D01*
X168689077Y-96010563D01*
X168700635Y-96015350D01*
X168806192Y-96036347D01*
X168913808Y-96036347D01*
X169019365Y-96015350D01*
X169030923Y-96010563D01*
X169032906Y-96010824D01*
G37*
G36*
X167762906Y-96010824D02*
G01*
X167763671Y-96012672D01*
X167762631Y-96014175D01*
X167746609Y-96022738D01*
X167727972Y-96038033D01*
X167712677Y-96056670D01*
X167701312Y-96077934D01*
X167694312Y-96101009D01*
X167691949Y-96125000D01*
X167694312Y-96148991D01*
X167701312Y-96172066D01*
X167712677Y-96193330D01*
X167727972Y-96211967D01*
X167746609Y-96227262D01*
X167762631Y-96235825D01*
X167763687Y-96237524D01*
X167762744Y-96239287D01*
X167760923Y-96239437D01*
X167749365Y-96234650D01*
X167643808Y-96213653D01*
X167536192Y-96213653D01*
X167430635Y-96234650D01*
X167419077Y-96239437D01*
X167417094Y-96239176D01*
X167416329Y-96237328D01*
X167417369Y-96235825D01*
X167433391Y-96227262D01*
X167452028Y-96211967D01*
X167467323Y-96193330D01*
X167478688Y-96172066D01*
X167485688Y-96148991D01*
X167488051Y-96125000D01*
X167485688Y-96101009D01*
X167478688Y-96077934D01*
X167467323Y-96056670D01*
X167452028Y-96038033D01*
X167433391Y-96022738D01*
X167417369Y-96014175D01*
X167416313Y-96012476D01*
X167417256Y-96010713D01*
X167419077Y-96010563D01*
X167430635Y-96015350D01*
X167536192Y-96036347D01*
X167643808Y-96036347D01*
X167749365Y-96015350D01*
X167760923Y-96010563D01*
X167762906Y-96010824D01*
G37*
G36*
X165222906Y-96010824D02*
G01*
X165223671Y-96012672D01*
X165222631Y-96014175D01*
X165206609Y-96022738D01*
X165187972Y-96038033D01*
X165172677Y-96056670D01*
X165161312Y-96077934D01*
X165154312Y-96101009D01*
X165151949Y-96125000D01*
X165154312Y-96148991D01*
X165161312Y-96172066D01*
X165172677Y-96193330D01*
X165187972Y-96211967D01*
X165206609Y-96227262D01*
X165222631Y-96235825D01*
X165223687Y-96237524D01*
X165222744Y-96239287D01*
X165220923Y-96239437D01*
X165209365Y-96234650D01*
X165103808Y-96213653D01*
X164996192Y-96213653D01*
X164890635Y-96234650D01*
X164879077Y-96239437D01*
X164877094Y-96239176D01*
X164876329Y-96237328D01*
X164877369Y-96235825D01*
X164893391Y-96227262D01*
X164912028Y-96211967D01*
X164927323Y-96193330D01*
X164938688Y-96172066D01*
X164945688Y-96148991D01*
X164948051Y-96125000D01*
X164945688Y-96101009D01*
X164938688Y-96077934D01*
X164927323Y-96056670D01*
X164912028Y-96038033D01*
X164893391Y-96022738D01*
X164877369Y-96014175D01*
X164876313Y-96012476D01*
X164877256Y-96010713D01*
X164879077Y-96010563D01*
X164890635Y-96015350D01*
X164996192Y-96036347D01*
X165103808Y-96036347D01*
X165209365Y-96015350D01*
X165220923Y-96010563D01*
X165222906Y-96010824D01*
G37*
G36*
X166492906Y-96010824D02*
G01*
X166493671Y-96012672D01*
X166492631Y-96014175D01*
X166476609Y-96022738D01*
X166457972Y-96038033D01*
X166442677Y-96056670D01*
X166431312Y-96077934D01*
X166424312Y-96101009D01*
X166421949Y-96125000D01*
X166424312Y-96148991D01*
X166431312Y-96172066D01*
X166442677Y-96193330D01*
X166457972Y-96211967D01*
X166476609Y-96227262D01*
X166492631Y-96235825D01*
X166493687Y-96237524D01*
X166492744Y-96239287D01*
X166490923Y-96239437D01*
X166479365Y-96234650D01*
X166373808Y-96213653D01*
X166266192Y-96213653D01*
X166160635Y-96234650D01*
X166149077Y-96239437D01*
X166147094Y-96239176D01*
X166146329Y-96237328D01*
X166147369Y-96235825D01*
X166163391Y-96227262D01*
X166182028Y-96211967D01*
X166197323Y-96193330D01*
X166208688Y-96172066D01*
X166215688Y-96148991D01*
X166218051Y-96125000D01*
X166215688Y-96101009D01*
X166208688Y-96077934D01*
X166197323Y-96056670D01*
X166182028Y-96038033D01*
X166163391Y-96022738D01*
X166147369Y-96014175D01*
X166146313Y-96012476D01*
X166147256Y-96010713D01*
X166149077Y-96010563D01*
X166160635Y-96015350D01*
X166266192Y-96036347D01*
X166373808Y-96036347D01*
X166479365Y-96015350D01*
X166490923Y-96010563D01*
X166492906Y-96010824D01*
G37*
G36*
X164038105Y-95975534D02*
G01*
X164038870Y-95977382D01*
X164037998Y-95978784D01*
X164033670Y-95981676D01*
X164014955Y-95997035D01*
X163999660Y-96015672D01*
X163988295Y-96036935D01*
X163981295Y-96060010D01*
X163978932Y-96084001D01*
X163981295Y-96107993D01*
X163988295Y-96131068D01*
X163999660Y-96152331D01*
X164014956Y-96170968D01*
X164033593Y-96186263D01*
X164054856Y-96197628D01*
X164077931Y-96204628D01*
X164102118Y-96207010D01*
X164103744Y-96208175D01*
X164103548Y-96210165D01*
X164101922Y-96211000D01*
X163458078Y-96211000D01*
X163456346Y-96210000D01*
X163456346Y-96208000D01*
X163457882Y-96207010D01*
X163482069Y-96204628D01*
X163505144Y-96197628D01*
X163526408Y-96186263D01*
X163545045Y-96170968D01*
X163560340Y-96152331D01*
X163571705Y-96131067D01*
X163578705Y-96107992D01*
X163581068Y-96084001D01*
X163578705Y-96060010D01*
X163571705Y-96036935D01*
X163560340Y-96015671D01*
X163545045Y-95997034D01*
X163526330Y-95981676D01*
X163522002Y-95978784D01*
X163521117Y-95976990D01*
X163522228Y-95975327D01*
X163523878Y-95975273D01*
X163620635Y-96015350D01*
X163726192Y-96036347D01*
X163833808Y-96036347D01*
X163939365Y-96015350D01*
X164036122Y-95975273D01*
X164038105Y-95975534D01*
G37*
G36*
X164529287Y-95317256D02*
G01*
X164529437Y-95319077D01*
X164524650Y-95330635D01*
X164503653Y-95436192D01*
X164503653Y-95543808D01*
X164524650Y-95649365D01*
X164529437Y-95660923D01*
X164529176Y-95662906D01*
X164527328Y-95663671D01*
X164525825Y-95662631D01*
X164517262Y-95646609D01*
X164501967Y-95627972D01*
X164483330Y-95612677D01*
X164462066Y-95601312D01*
X164438991Y-95594312D01*
X164415000Y-95591949D01*
X164391009Y-95594312D01*
X164367934Y-95601312D01*
X164346670Y-95612677D01*
X164328033Y-95627972D01*
X164312738Y-95646609D01*
X164304175Y-95662631D01*
X164302476Y-95663687D01*
X164300713Y-95662744D01*
X164300563Y-95660923D01*
X164305350Y-95649365D01*
X164326347Y-95543808D01*
X164326347Y-95436192D01*
X164305350Y-95330635D01*
X164300563Y-95319077D01*
X164300824Y-95317094D01*
X164302672Y-95316329D01*
X164304175Y-95317369D01*
X164312738Y-95333391D01*
X164328033Y-95352028D01*
X164346670Y-95367323D01*
X164367934Y-95378688D01*
X164391009Y-95385688D01*
X164415000Y-95388051D01*
X164438991Y-95385688D01*
X164462066Y-95378688D01*
X164483330Y-95367323D01*
X164501967Y-95352028D01*
X164517262Y-95333391D01*
X164525825Y-95317369D01*
X164527524Y-95316313D01*
X164529287Y-95317256D01*
G37*
G36*
X168339287Y-95317256D02*
G01*
X168339437Y-95319077D01*
X168334650Y-95330635D01*
X168313653Y-95436192D01*
X168313653Y-95543808D01*
X168334650Y-95649365D01*
X168339437Y-95660923D01*
X168339176Y-95662906D01*
X168337328Y-95663671D01*
X168335825Y-95662631D01*
X168327262Y-95646609D01*
X168311967Y-95627972D01*
X168293330Y-95612677D01*
X168272066Y-95601312D01*
X168248991Y-95594312D01*
X168225000Y-95591949D01*
X168201009Y-95594312D01*
X168177934Y-95601312D01*
X168156670Y-95612677D01*
X168138033Y-95627972D01*
X168122738Y-95646609D01*
X168114175Y-95662631D01*
X168112476Y-95663687D01*
X168110713Y-95662744D01*
X168110563Y-95660923D01*
X168115350Y-95649365D01*
X168136347Y-95543808D01*
X168136347Y-95436192D01*
X168115350Y-95330635D01*
X168110563Y-95319077D01*
X168110824Y-95317094D01*
X168112672Y-95316329D01*
X168114175Y-95317369D01*
X168122738Y-95333391D01*
X168138033Y-95352028D01*
X168156670Y-95367323D01*
X168177934Y-95378688D01*
X168201009Y-95385688D01*
X168225000Y-95388051D01*
X168248991Y-95385688D01*
X168272066Y-95378688D01*
X168293330Y-95367323D01*
X168311967Y-95352028D01*
X168327262Y-95333391D01*
X168335825Y-95317369D01*
X168337524Y-95316313D01*
X168339287Y-95317256D01*
G37*
G36*
X167069287Y-95317256D02*
G01*
X167069437Y-95319077D01*
X167064650Y-95330635D01*
X167043653Y-95436192D01*
X167043653Y-95543808D01*
X167064650Y-95649365D01*
X167069437Y-95660923D01*
X167069176Y-95662906D01*
X167067328Y-95663671D01*
X167065825Y-95662631D01*
X167057262Y-95646609D01*
X167041967Y-95627972D01*
X167023330Y-95612677D01*
X167002066Y-95601312D01*
X166978991Y-95594312D01*
X166955000Y-95591949D01*
X166931009Y-95594312D01*
X166907934Y-95601312D01*
X166886670Y-95612677D01*
X166868033Y-95627972D01*
X166852738Y-95646609D01*
X166844175Y-95662631D01*
X166842476Y-95663687D01*
X166840713Y-95662744D01*
X166840563Y-95660923D01*
X166845350Y-95649365D01*
X166866347Y-95543808D01*
X166866347Y-95436192D01*
X166845350Y-95330635D01*
X166840563Y-95319077D01*
X166840824Y-95317094D01*
X166842672Y-95316329D01*
X166844175Y-95317369D01*
X166852738Y-95333391D01*
X166868033Y-95352028D01*
X166886670Y-95367323D01*
X166907934Y-95378688D01*
X166931009Y-95385688D01*
X166955000Y-95388051D01*
X166978991Y-95385688D01*
X167002066Y-95378688D01*
X167023330Y-95367323D01*
X167041967Y-95352028D01*
X167057262Y-95333391D01*
X167065825Y-95317369D01*
X167067524Y-95316313D01*
X167069287Y-95317256D01*
G37*
G36*
X165799287Y-95317256D02*
G01*
X165799437Y-95319077D01*
X165794650Y-95330635D01*
X165773653Y-95436192D01*
X165773653Y-95543808D01*
X165794650Y-95649365D01*
X165799437Y-95660923D01*
X165799176Y-95662906D01*
X165797328Y-95663671D01*
X165795825Y-95662631D01*
X165787262Y-95646609D01*
X165771967Y-95627972D01*
X165753330Y-95612677D01*
X165732066Y-95601312D01*
X165708991Y-95594312D01*
X165685000Y-95591949D01*
X165661009Y-95594312D01*
X165637934Y-95601312D01*
X165616670Y-95612677D01*
X165598033Y-95627972D01*
X165582738Y-95646609D01*
X165574175Y-95662631D01*
X165572476Y-95663687D01*
X165570713Y-95662744D01*
X165570563Y-95660923D01*
X165575350Y-95649365D01*
X165596347Y-95543808D01*
X165596347Y-95436192D01*
X165575350Y-95330635D01*
X165570563Y-95319077D01*
X165570824Y-95317094D01*
X165572672Y-95316329D01*
X165574175Y-95317369D01*
X165582738Y-95333391D01*
X165598033Y-95352028D01*
X165616670Y-95367323D01*
X165637934Y-95378688D01*
X165661009Y-95385688D01*
X165685000Y-95388051D01*
X165708991Y-95385688D01*
X165732066Y-95378688D01*
X165753330Y-95367323D01*
X165771967Y-95352028D01*
X165787262Y-95333391D01*
X165795825Y-95317369D01*
X165797524Y-95316313D01*
X165799287Y-95317256D01*
G37*
M02*
