G04 #@! TF.GenerationSoftware,KiCad,Pcbnew,(5.1.4-0)*
G04 #@! TF.CreationDate,2020-11-25T23:13:14+03:00*
G04 #@! TF.ProjectId,hdmi_to_mipi-dsi_converter,68646d69-5f74-46f5-9f6d-6970692d6473,rev?*
G04 #@! TF.SameCoordinates,Original*
G04 #@! TF.FileFunction,Soldermask,Bot*
G04 #@! TF.FilePolarity,Negative*
%FSLAX46Y46*%
G04 Gerber Fmt 4.6, Leading zero omitted, Abs format (unit mm)*
G04 Created by KiCad (PCBNEW (5.1.4-0)) date 2020-11-25 23:13:14*
%MOMM*%
%LPD*%
G04 APERTURE LIST*
%ADD10C,0.100000*%
G04 APERTURE END LIST*
D10*
G36*
X172977618Y-102258420D02*
G01*
X173068404Y-102285960D01*
X173100336Y-102295646D01*
X173213425Y-102356094D01*
X173312554Y-102437446D01*
X173393906Y-102536575D01*
X173454354Y-102649664D01*
X173458588Y-102663621D01*
X173491580Y-102772382D01*
X173501000Y-102868027D01*
X173501000Y-103631973D01*
X173491580Y-103727618D01*
X173464040Y-103818404D01*
X173454354Y-103850336D01*
X173393906Y-103963425D01*
X173312554Y-104062553D01*
X173213424Y-104143906D01*
X173100335Y-104204354D01*
X173068403Y-104214040D01*
X172977617Y-104241580D01*
X172850000Y-104254149D01*
X172722382Y-104241580D01*
X172631596Y-104214040D01*
X172599664Y-104204354D01*
X172486575Y-104143906D01*
X172387447Y-104062554D01*
X172306094Y-103963424D01*
X172245646Y-103850335D01*
X172235960Y-103818403D01*
X172208420Y-103727617D01*
X172199000Y-103631972D01*
X172199000Y-102868027D01*
X172208420Y-102772382D01*
X172245645Y-102649668D01*
X172270608Y-102602966D01*
X172306095Y-102536575D01*
X172387447Y-102437446D01*
X172486576Y-102356094D01*
X172599665Y-102295646D01*
X172631597Y-102285960D01*
X172722383Y-102258420D01*
X172850000Y-102245851D01*
X172977618Y-102258420D01*
X172977618Y-102258420D01*
G37*
G36*
X179977617Y-102258420D02*
G01*
X180068403Y-102285960D01*
X180100335Y-102295646D01*
X180213424Y-102356094D01*
X180312554Y-102437447D01*
X180393906Y-102536575D01*
X180454354Y-102649664D01*
X180458588Y-102663621D01*
X180491580Y-102772382D01*
X180501000Y-102868027D01*
X180501000Y-103631973D01*
X180491580Y-103727618D01*
X180464040Y-103818404D01*
X180454354Y-103850336D01*
X180393906Y-103963425D01*
X180312554Y-104062554D01*
X180213425Y-104143906D01*
X180100336Y-104204354D01*
X180068404Y-104214040D01*
X179977618Y-104241580D01*
X179850000Y-104254149D01*
X179722383Y-104241580D01*
X179631597Y-104214040D01*
X179599665Y-104204354D01*
X179486576Y-104143906D01*
X179387447Y-104062554D01*
X179306095Y-103963425D01*
X179245648Y-103850337D01*
X179245645Y-103850332D01*
X179208420Y-103727618D01*
X179199000Y-103631973D01*
X179199000Y-102868028D01*
X179208420Y-102772383D01*
X179245645Y-102649669D01*
X179245646Y-102649665D01*
X179306094Y-102536576D01*
X179387447Y-102437446D01*
X179486575Y-102356094D01*
X179599664Y-102295646D01*
X179631596Y-102285960D01*
X179722382Y-102258420D01*
X179850000Y-102245851D01*
X179977617Y-102258420D01*
X179977617Y-102258420D01*
G37*
G36*
X187775883Y-100626429D02*
G01*
X187908657Y-100652839D01*
X188014267Y-100696585D01*
X188163621Y-100758449D01*
X188190413Y-100776351D01*
X188393086Y-100911772D01*
X188588228Y-101106914D01*
X188690675Y-101260237D01*
X188741551Y-101336379D01*
X188803415Y-101485733D01*
X188847161Y-101591343D01*
X188901000Y-101862014D01*
X188901000Y-102137986D01*
X188847161Y-102408657D01*
X188803415Y-102514267D01*
X188741551Y-102663621D01*
X188741550Y-102663622D01*
X188588228Y-102893086D01*
X188393086Y-103088228D01*
X188239763Y-103190675D01*
X188163621Y-103241551D01*
X188014267Y-103303415D01*
X187908657Y-103347161D01*
X187818433Y-103365107D01*
X187637988Y-103401000D01*
X187362012Y-103401000D01*
X187181567Y-103365107D01*
X187091343Y-103347161D01*
X186985733Y-103303415D01*
X186836379Y-103241551D01*
X186760237Y-103190675D01*
X186606914Y-103088228D01*
X186411772Y-102893086D01*
X186258450Y-102663622D01*
X186258449Y-102663621D01*
X186196585Y-102514267D01*
X186152839Y-102408657D01*
X186099000Y-102137986D01*
X186099000Y-101862014D01*
X186152839Y-101591343D01*
X186196585Y-101485733D01*
X186258449Y-101336379D01*
X186309325Y-101260237D01*
X186411772Y-101106914D01*
X186606914Y-100911772D01*
X186809587Y-100776351D01*
X186836379Y-100758449D01*
X186985733Y-100696585D01*
X187091343Y-100652839D01*
X187224117Y-100626429D01*
X187362012Y-100599000D01*
X187637988Y-100599000D01*
X187775883Y-100626429D01*
X187775883Y-100626429D01*
G37*
G36*
X103775883Y-100626429D02*
G01*
X103908657Y-100652839D01*
X104014267Y-100696585D01*
X104163621Y-100758449D01*
X104190413Y-100776351D01*
X104393086Y-100911772D01*
X104588228Y-101106914D01*
X104690675Y-101260237D01*
X104741551Y-101336379D01*
X104803415Y-101485733D01*
X104847161Y-101591343D01*
X104901000Y-101862014D01*
X104901000Y-102137986D01*
X104847161Y-102408657D01*
X104803415Y-102514267D01*
X104741551Y-102663621D01*
X104741550Y-102663622D01*
X104588228Y-102893086D01*
X104393086Y-103088228D01*
X104239763Y-103190675D01*
X104163621Y-103241551D01*
X104014267Y-103303415D01*
X103908657Y-103347161D01*
X103818433Y-103365107D01*
X103637988Y-103401000D01*
X103362012Y-103401000D01*
X103181567Y-103365107D01*
X103091343Y-103347161D01*
X102985733Y-103303415D01*
X102836379Y-103241551D01*
X102760237Y-103190675D01*
X102606914Y-103088228D01*
X102411772Y-102893086D01*
X102258450Y-102663622D01*
X102258449Y-102663621D01*
X102196585Y-102514267D01*
X102152839Y-102408657D01*
X102099000Y-102137986D01*
X102099000Y-101862014D01*
X102152839Y-101591343D01*
X102196585Y-101485733D01*
X102258449Y-101336379D01*
X102309325Y-101260237D01*
X102411772Y-101106914D01*
X102606914Y-100911772D01*
X102809587Y-100776351D01*
X102836379Y-100758449D01*
X102985733Y-100696585D01*
X103091343Y-100652839D01*
X103224117Y-100626429D01*
X103362012Y-100599000D01*
X103637988Y-100599000D01*
X103775883Y-100626429D01*
X103775883Y-100626429D01*
G37*
G36*
X174076348Y-99803820D02*
G01*
X174076350Y-99803821D01*
X174076351Y-99803821D01*
X174217574Y-99862317D01*
X174217577Y-99862319D01*
X174344669Y-99947239D01*
X174452761Y-100055331D01*
X174537681Y-100182423D01*
X174537683Y-100182426D01*
X174596179Y-100323649D01*
X174626000Y-100473571D01*
X174626000Y-100626429D01*
X174596179Y-100776351D01*
X174537683Y-100917574D01*
X174537681Y-100917577D01*
X174452761Y-101044669D01*
X174344669Y-101152761D01*
X174217577Y-101237681D01*
X174217574Y-101237683D01*
X174076351Y-101296179D01*
X174076350Y-101296179D01*
X174076348Y-101296180D01*
X173926431Y-101326000D01*
X173773569Y-101326000D01*
X173623652Y-101296180D01*
X173623650Y-101296179D01*
X173623649Y-101296179D01*
X173482426Y-101237683D01*
X173482423Y-101237681D01*
X173355331Y-101152761D01*
X173247239Y-101044669D01*
X173162319Y-100917577D01*
X173162317Y-100917574D01*
X173103821Y-100776351D01*
X173074000Y-100626429D01*
X173074000Y-100473571D01*
X173103821Y-100323649D01*
X173162317Y-100182426D01*
X173162319Y-100182423D01*
X173247239Y-100055331D01*
X173355331Y-99947239D01*
X173482423Y-99862319D01*
X173482426Y-99862317D01*
X173623649Y-99803821D01*
X173623650Y-99803821D01*
X173623652Y-99803820D01*
X173773569Y-99774000D01*
X173926431Y-99774000D01*
X174076348Y-99803820D01*
X174076348Y-99803820D01*
G37*
G36*
X179076348Y-99803820D02*
G01*
X179076350Y-99803821D01*
X179076351Y-99803821D01*
X179217574Y-99862317D01*
X179217577Y-99862319D01*
X179344669Y-99947239D01*
X179452761Y-100055331D01*
X179537681Y-100182423D01*
X179537683Y-100182426D01*
X179596179Y-100323649D01*
X179626000Y-100473571D01*
X179626000Y-100626429D01*
X179596179Y-100776351D01*
X179537683Y-100917574D01*
X179537681Y-100917577D01*
X179452761Y-101044669D01*
X179344669Y-101152761D01*
X179217577Y-101237681D01*
X179217574Y-101237683D01*
X179076351Y-101296179D01*
X179076350Y-101296179D01*
X179076348Y-101296180D01*
X178926431Y-101326000D01*
X178773569Y-101326000D01*
X178623652Y-101296180D01*
X178623650Y-101296179D01*
X178623649Y-101296179D01*
X178482426Y-101237683D01*
X178482423Y-101237681D01*
X178355331Y-101152761D01*
X178247239Y-101044669D01*
X178162319Y-100917577D01*
X178162317Y-100917574D01*
X178103821Y-100776351D01*
X178074000Y-100626429D01*
X178074000Y-100473571D01*
X178103821Y-100323649D01*
X178162317Y-100182426D01*
X178162319Y-100182423D01*
X178247239Y-100055331D01*
X178355331Y-99947239D01*
X178482423Y-99862319D01*
X178482426Y-99862317D01*
X178623649Y-99803821D01*
X178623650Y-99803821D01*
X178623652Y-99803820D01*
X178773569Y-99774000D01*
X178926431Y-99774000D01*
X179076348Y-99803820D01*
X179076348Y-99803820D01*
G37*
G36*
X109818571Y-96852863D02*
G01*
X109897023Y-96860590D01*
X109997682Y-96891125D01*
X110048013Y-96906392D01*
X110187165Y-96980771D01*
X110309133Y-97080867D01*
X110409229Y-97202835D01*
X110483608Y-97341987D01*
X110483608Y-97341988D01*
X110529410Y-97492977D01*
X110544875Y-97650000D01*
X110529410Y-97807023D01*
X110502266Y-97896504D01*
X110483608Y-97958013D01*
X110409229Y-98097165D01*
X110309133Y-98219133D01*
X110187165Y-98319229D01*
X110048013Y-98393608D01*
X109997682Y-98408875D01*
X109897023Y-98439410D01*
X109818571Y-98447137D01*
X109779346Y-98451000D01*
X108500654Y-98451000D01*
X108461429Y-98447137D01*
X108382977Y-98439410D01*
X108282318Y-98408875D01*
X108231987Y-98393608D01*
X108092835Y-98319229D01*
X107970867Y-98219133D01*
X107870771Y-98097165D01*
X107796392Y-97958013D01*
X107777734Y-97896504D01*
X107750590Y-97807023D01*
X107735125Y-97650000D01*
X107750590Y-97492977D01*
X107796392Y-97341988D01*
X107796392Y-97341987D01*
X107870771Y-97202835D01*
X107970867Y-97080867D01*
X108092835Y-96980771D01*
X108231987Y-96906392D01*
X108282318Y-96891125D01*
X108382977Y-96860590D01*
X108461429Y-96852863D01*
X108500654Y-96849000D01*
X109779346Y-96849000D01*
X109818571Y-96852863D01*
X109818571Y-96852863D01*
G37*
G36*
X103278571Y-96852863D02*
G01*
X103357023Y-96860590D01*
X103457682Y-96891125D01*
X103508013Y-96906392D01*
X103647165Y-96980771D01*
X103769133Y-97080867D01*
X103869229Y-97202835D01*
X103943608Y-97341987D01*
X103943608Y-97341988D01*
X103989410Y-97492977D01*
X104004875Y-97650000D01*
X103989410Y-97807023D01*
X103962266Y-97896504D01*
X103943608Y-97958013D01*
X103869229Y-98097165D01*
X103769133Y-98219133D01*
X103647165Y-98319229D01*
X103508013Y-98393608D01*
X103457682Y-98408875D01*
X103357023Y-98439410D01*
X103278571Y-98447137D01*
X103239346Y-98451000D01*
X101960654Y-98451000D01*
X101921429Y-98447137D01*
X101842977Y-98439410D01*
X101742318Y-98408875D01*
X101691987Y-98393608D01*
X101552835Y-98319229D01*
X101430867Y-98219133D01*
X101330771Y-98097165D01*
X101256392Y-97958013D01*
X101237734Y-97896504D01*
X101210590Y-97807023D01*
X101195125Y-97650000D01*
X101210590Y-97492977D01*
X101256392Y-97341988D01*
X101256392Y-97341987D01*
X101330771Y-97202835D01*
X101430867Y-97080867D01*
X101552835Y-96980771D01*
X101691987Y-96906392D01*
X101742318Y-96891125D01*
X101842977Y-96860590D01*
X101921429Y-96852863D01*
X101960654Y-96849000D01*
X103239346Y-96849000D01*
X103278571Y-96852863D01*
X103278571Y-96852863D01*
G37*
G36*
X178651000Y-92317265D02*
G01*
X178653402Y-92341651D01*
X178660515Y-92365100D01*
X178672066Y-92386711D01*
X178687611Y-92405653D01*
X178706553Y-92421198D01*
X178728164Y-92432749D01*
X178751613Y-92439862D01*
X178775999Y-92442264D01*
X178800385Y-92439862D01*
X178823834Y-92432749D01*
X178845445Y-92421198D01*
X178864387Y-92405653D01*
X178879932Y-92386711D01*
X178886233Y-92376198D01*
X178909644Y-92332400D01*
X178978499Y-92248499D01*
X179062400Y-92179643D01*
X179130945Y-92143005D01*
X179158121Y-92128479D01*
X179261985Y-92096973D01*
X179342933Y-92089000D01*
X179397067Y-92089000D01*
X179478015Y-92096973D01*
X179581879Y-92128479D01*
X179609055Y-92143005D01*
X179677600Y-92179643D01*
X179761501Y-92248499D01*
X179830357Y-92332400D01*
X179866995Y-92400945D01*
X179881521Y-92428121D01*
X179913027Y-92531985D01*
X179923666Y-92640000D01*
X179913027Y-92748015D01*
X179881521Y-92851879D01*
X179881191Y-92852496D01*
X179830357Y-92947600D01*
X179761501Y-93031501D01*
X179677600Y-93100357D01*
X179609055Y-93136995D01*
X179581879Y-93151521D01*
X179569131Y-93155388D01*
X179546504Y-93164760D01*
X179526130Y-93178374D01*
X179508803Y-93195701D01*
X179495189Y-93216075D01*
X179485812Y-93238714D01*
X179481031Y-93262747D01*
X179481031Y-93287251D01*
X179485811Y-93311285D01*
X179495188Y-93333924D01*
X179508802Y-93354298D01*
X179526129Y-93371625D01*
X179546503Y-93385239D01*
X179569131Y-93394612D01*
X179581879Y-93398479D01*
X179608344Y-93412625D01*
X179677600Y-93449643D01*
X179761501Y-93518499D01*
X179830357Y-93602400D01*
X179866995Y-93670945D01*
X179881521Y-93698121D01*
X179913027Y-93801985D01*
X179923666Y-93910000D01*
X179913027Y-94018015D01*
X179881521Y-94121879D01*
X179881519Y-94121882D01*
X179830357Y-94217600D01*
X179761501Y-94301501D01*
X179677600Y-94370357D01*
X179609055Y-94406995D01*
X179581879Y-94421521D01*
X179569131Y-94425388D01*
X179546504Y-94434760D01*
X179526130Y-94448374D01*
X179508803Y-94465701D01*
X179495189Y-94486075D01*
X179485812Y-94508714D01*
X179481031Y-94532747D01*
X179481031Y-94557251D01*
X179485811Y-94581285D01*
X179495188Y-94603924D01*
X179508802Y-94624298D01*
X179526129Y-94641625D01*
X179546503Y-94655239D01*
X179569131Y-94664612D01*
X179581879Y-94668479D01*
X179609055Y-94683005D01*
X179677600Y-94719643D01*
X179761501Y-94788499D01*
X179830357Y-94872400D01*
X179866995Y-94940945D01*
X179881521Y-94968121D01*
X179913027Y-95071985D01*
X179923666Y-95180000D01*
X179913027Y-95288015D01*
X179881521Y-95391879D01*
X179881519Y-95391882D01*
X179830357Y-95487600D01*
X179761501Y-95571501D01*
X179677600Y-95640357D01*
X179609055Y-95676995D01*
X179581879Y-95691521D01*
X179569131Y-95695388D01*
X179546504Y-95704760D01*
X179526130Y-95718374D01*
X179508803Y-95735701D01*
X179495189Y-95756075D01*
X179485812Y-95778714D01*
X179481031Y-95802747D01*
X179481031Y-95827251D01*
X179485811Y-95851285D01*
X179495188Y-95873924D01*
X179508802Y-95894298D01*
X179526129Y-95911625D01*
X179546503Y-95925239D01*
X179569131Y-95934612D01*
X179581879Y-95938479D01*
X179609055Y-95953005D01*
X179677600Y-95989643D01*
X179761501Y-96058499D01*
X179830357Y-96142400D01*
X179866995Y-96210945D01*
X179881521Y-96238121D01*
X179913027Y-96341985D01*
X179923666Y-96450000D01*
X179913027Y-96558015D01*
X179881521Y-96661879D01*
X179881519Y-96661882D01*
X179830357Y-96757600D01*
X179761501Y-96841501D01*
X179677600Y-96910357D01*
X179609055Y-96946995D01*
X179581879Y-96961521D01*
X179569131Y-96965388D01*
X179546504Y-96974760D01*
X179526130Y-96988374D01*
X179508803Y-97005701D01*
X179495189Y-97026075D01*
X179485812Y-97048714D01*
X179481031Y-97072747D01*
X179481031Y-97097251D01*
X179485811Y-97121285D01*
X179495188Y-97143924D01*
X179508802Y-97164298D01*
X179526129Y-97181625D01*
X179546503Y-97195239D01*
X179569131Y-97204612D01*
X179581879Y-97208479D01*
X179609055Y-97223005D01*
X179677600Y-97259643D01*
X179761501Y-97328499D01*
X179830357Y-97412400D01*
X179866995Y-97480945D01*
X179881521Y-97508121D01*
X179913027Y-97611985D01*
X179923666Y-97720000D01*
X179913027Y-97828015D01*
X179881521Y-97931879D01*
X179881519Y-97931882D01*
X179830357Y-98027600D01*
X179761501Y-98111501D01*
X179677600Y-98180357D01*
X179609055Y-98216995D01*
X179581879Y-98231521D01*
X179478015Y-98263027D01*
X179397067Y-98271000D01*
X179342933Y-98271000D01*
X179261985Y-98263027D01*
X179158121Y-98231521D01*
X179130945Y-98216995D01*
X179062400Y-98180357D01*
X178978499Y-98111501D01*
X178909643Y-98027600D01*
X178858481Y-97931882D01*
X178858479Y-97931879D01*
X178854612Y-97919131D01*
X178845240Y-97896504D01*
X178831626Y-97876130D01*
X178814299Y-97858803D01*
X178793925Y-97845189D01*
X178771286Y-97835812D01*
X178747253Y-97831031D01*
X178722749Y-97831031D01*
X178698715Y-97835811D01*
X178676076Y-97845188D01*
X178655702Y-97858802D01*
X178638375Y-97876129D01*
X178624761Y-97896503D01*
X178615388Y-97919131D01*
X178611521Y-97931879D01*
X178611519Y-97931882D01*
X178560357Y-98027600D01*
X178491501Y-98111501D01*
X178407600Y-98180357D01*
X178339055Y-98216995D01*
X178311879Y-98231521D01*
X178208015Y-98263027D01*
X178127067Y-98271000D01*
X178072933Y-98271000D01*
X177991985Y-98263027D01*
X177888121Y-98231521D01*
X177860945Y-98216995D01*
X177792400Y-98180357D01*
X177708499Y-98111501D01*
X177639643Y-98027600D01*
X177588481Y-97931882D01*
X177588479Y-97931879D01*
X177556973Y-97828015D01*
X177546334Y-97720000D01*
X177556973Y-97611985D01*
X177588479Y-97508121D01*
X177603005Y-97480945D01*
X177639643Y-97412400D01*
X177708499Y-97328499D01*
X177792400Y-97259643D01*
X177860945Y-97223005D01*
X177888121Y-97208479D01*
X177900869Y-97204612D01*
X177923496Y-97195240D01*
X177943870Y-97181626D01*
X177961197Y-97164299D01*
X177974811Y-97143925D01*
X177984188Y-97121286D01*
X177988969Y-97097253D01*
X177988969Y-97072749D01*
X177988969Y-97072747D01*
X178211031Y-97072747D01*
X178211031Y-97097251D01*
X178215811Y-97121285D01*
X178225188Y-97143924D01*
X178238802Y-97164298D01*
X178256129Y-97181625D01*
X178276503Y-97195239D01*
X178299131Y-97204612D01*
X178311879Y-97208479D01*
X178339055Y-97223005D01*
X178407600Y-97259643D01*
X178491501Y-97328499D01*
X178560357Y-97412400D01*
X178596995Y-97480945D01*
X178611521Y-97508121D01*
X178615388Y-97520869D01*
X178624760Y-97543496D01*
X178638374Y-97563870D01*
X178655701Y-97581197D01*
X178676075Y-97594811D01*
X178698714Y-97604188D01*
X178722747Y-97608969D01*
X178747251Y-97608969D01*
X178771285Y-97604189D01*
X178793924Y-97594812D01*
X178814298Y-97581198D01*
X178831625Y-97563871D01*
X178845239Y-97543497D01*
X178854612Y-97520869D01*
X178858479Y-97508121D01*
X178873005Y-97480945D01*
X178909643Y-97412400D01*
X178978499Y-97328499D01*
X179062400Y-97259643D01*
X179130945Y-97223005D01*
X179158121Y-97208479D01*
X179170869Y-97204612D01*
X179193496Y-97195240D01*
X179213870Y-97181626D01*
X179231197Y-97164299D01*
X179244811Y-97143925D01*
X179254188Y-97121286D01*
X179258969Y-97097253D01*
X179258969Y-97072749D01*
X179254189Y-97048715D01*
X179244812Y-97026076D01*
X179231198Y-97005702D01*
X179213871Y-96988375D01*
X179193497Y-96974761D01*
X179170869Y-96965388D01*
X179158121Y-96961521D01*
X179130945Y-96946995D01*
X179062400Y-96910357D01*
X178978499Y-96841501D01*
X178909643Y-96757600D01*
X178858481Y-96661882D01*
X178858479Y-96661879D01*
X178854612Y-96649131D01*
X178845240Y-96626504D01*
X178831626Y-96606130D01*
X178814299Y-96588803D01*
X178793925Y-96575189D01*
X178771286Y-96565812D01*
X178747253Y-96561031D01*
X178722749Y-96561031D01*
X178698715Y-96565811D01*
X178676076Y-96575188D01*
X178655702Y-96588802D01*
X178638375Y-96606129D01*
X178624761Y-96626503D01*
X178615388Y-96649131D01*
X178611521Y-96661879D01*
X178611519Y-96661882D01*
X178560357Y-96757600D01*
X178491501Y-96841501D01*
X178407600Y-96910357D01*
X178339055Y-96946995D01*
X178311879Y-96961521D01*
X178299131Y-96965388D01*
X178276504Y-96974760D01*
X178256130Y-96988374D01*
X178238803Y-97005701D01*
X178225189Y-97026075D01*
X178215812Y-97048714D01*
X178211031Y-97072747D01*
X177988969Y-97072747D01*
X177984189Y-97048715D01*
X177974812Y-97026076D01*
X177961198Y-97005702D01*
X177943871Y-96988375D01*
X177923497Y-96974761D01*
X177900869Y-96965388D01*
X177888121Y-96961521D01*
X177860945Y-96946995D01*
X177792400Y-96910357D01*
X177708499Y-96841501D01*
X177639643Y-96757600D01*
X177588481Y-96661882D01*
X177588479Y-96661879D01*
X177556973Y-96558015D01*
X177546334Y-96450000D01*
X177556973Y-96341985D01*
X177588479Y-96238121D01*
X177603005Y-96210945D01*
X177639643Y-96142400D01*
X177708499Y-96058499D01*
X177792400Y-95989643D01*
X177860945Y-95953005D01*
X177888121Y-95938479D01*
X177900869Y-95934612D01*
X177923496Y-95925240D01*
X177943870Y-95911626D01*
X177961197Y-95894299D01*
X177974811Y-95873925D01*
X177984188Y-95851286D01*
X177988969Y-95827253D01*
X177988969Y-95802749D01*
X177988969Y-95802747D01*
X178211031Y-95802747D01*
X178211031Y-95827251D01*
X178215811Y-95851285D01*
X178225188Y-95873924D01*
X178238802Y-95894298D01*
X178256129Y-95911625D01*
X178276503Y-95925239D01*
X178299131Y-95934612D01*
X178311879Y-95938479D01*
X178339055Y-95953005D01*
X178407600Y-95989643D01*
X178491501Y-96058499D01*
X178560357Y-96142400D01*
X178596995Y-96210945D01*
X178611521Y-96238121D01*
X178615388Y-96250869D01*
X178624760Y-96273496D01*
X178638374Y-96293870D01*
X178655701Y-96311197D01*
X178676075Y-96324811D01*
X178698714Y-96334188D01*
X178722747Y-96338969D01*
X178747251Y-96338969D01*
X178771285Y-96334189D01*
X178793924Y-96324812D01*
X178814298Y-96311198D01*
X178831625Y-96293871D01*
X178845239Y-96273497D01*
X178854612Y-96250869D01*
X178858479Y-96238121D01*
X178873005Y-96210945D01*
X178909643Y-96142400D01*
X178978499Y-96058499D01*
X179062400Y-95989643D01*
X179130945Y-95953005D01*
X179158121Y-95938479D01*
X179170869Y-95934612D01*
X179193496Y-95925240D01*
X179213870Y-95911626D01*
X179231197Y-95894299D01*
X179244811Y-95873925D01*
X179254188Y-95851286D01*
X179258969Y-95827253D01*
X179258969Y-95802749D01*
X179254189Y-95778715D01*
X179244812Y-95756076D01*
X179231198Y-95735702D01*
X179213871Y-95718375D01*
X179193497Y-95704761D01*
X179170869Y-95695388D01*
X179158121Y-95691521D01*
X179130945Y-95676995D01*
X179062400Y-95640357D01*
X178978499Y-95571501D01*
X178909643Y-95487600D01*
X178858481Y-95391882D01*
X178858479Y-95391879D01*
X178854612Y-95379131D01*
X178845240Y-95356504D01*
X178831626Y-95336130D01*
X178814299Y-95318803D01*
X178793925Y-95305189D01*
X178771286Y-95295812D01*
X178747253Y-95291031D01*
X178722749Y-95291031D01*
X178698715Y-95295811D01*
X178676076Y-95305188D01*
X178655702Y-95318802D01*
X178638375Y-95336129D01*
X178624761Y-95356503D01*
X178615388Y-95379131D01*
X178611521Y-95391879D01*
X178611519Y-95391882D01*
X178560357Y-95487600D01*
X178491501Y-95571501D01*
X178407600Y-95640357D01*
X178339055Y-95676995D01*
X178311879Y-95691521D01*
X178299131Y-95695388D01*
X178276504Y-95704760D01*
X178256130Y-95718374D01*
X178238803Y-95735701D01*
X178225189Y-95756075D01*
X178215812Y-95778714D01*
X178211031Y-95802747D01*
X177988969Y-95802747D01*
X177984189Y-95778715D01*
X177974812Y-95756076D01*
X177961198Y-95735702D01*
X177943871Y-95718375D01*
X177923497Y-95704761D01*
X177900869Y-95695388D01*
X177888121Y-95691521D01*
X177860945Y-95676995D01*
X177792400Y-95640357D01*
X177708499Y-95571501D01*
X177639643Y-95487600D01*
X177588481Y-95391882D01*
X177588479Y-95391879D01*
X177556973Y-95288015D01*
X177546334Y-95180000D01*
X177556973Y-95071985D01*
X177588479Y-94968121D01*
X177603005Y-94940945D01*
X177639643Y-94872400D01*
X177708499Y-94788499D01*
X177792400Y-94719643D01*
X177860945Y-94683005D01*
X177888121Y-94668479D01*
X177900869Y-94664612D01*
X177923496Y-94655240D01*
X177943870Y-94641626D01*
X177961197Y-94624299D01*
X177974811Y-94603925D01*
X177984188Y-94581286D01*
X177988969Y-94557253D01*
X177988969Y-94532749D01*
X177988969Y-94532747D01*
X178211031Y-94532747D01*
X178211031Y-94557251D01*
X178215811Y-94581285D01*
X178225188Y-94603924D01*
X178238802Y-94624298D01*
X178256129Y-94641625D01*
X178276503Y-94655239D01*
X178299131Y-94664612D01*
X178311879Y-94668479D01*
X178339055Y-94683005D01*
X178407600Y-94719643D01*
X178491501Y-94788499D01*
X178560357Y-94872400D01*
X178596995Y-94940945D01*
X178611521Y-94968121D01*
X178615388Y-94980869D01*
X178624760Y-95003496D01*
X178638374Y-95023870D01*
X178655701Y-95041197D01*
X178676075Y-95054811D01*
X178698714Y-95064188D01*
X178722747Y-95068969D01*
X178747251Y-95068969D01*
X178771285Y-95064189D01*
X178793924Y-95054812D01*
X178814298Y-95041198D01*
X178831625Y-95023871D01*
X178845239Y-95003497D01*
X178854612Y-94980869D01*
X178858479Y-94968121D01*
X178873005Y-94940945D01*
X178909643Y-94872400D01*
X178978499Y-94788499D01*
X179062400Y-94719643D01*
X179130945Y-94683005D01*
X179158121Y-94668479D01*
X179170869Y-94664612D01*
X179193496Y-94655240D01*
X179213870Y-94641626D01*
X179231197Y-94624299D01*
X179244811Y-94603925D01*
X179254188Y-94581286D01*
X179258969Y-94557253D01*
X179258969Y-94532749D01*
X179254189Y-94508715D01*
X179244812Y-94486076D01*
X179231198Y-94465702D01*
X179213871Y-94448375D01*
X179193497Y-94434761D01*
X179170869Y-94425388D01*
X179158121Y-94421521D01*
X179130945Y-94406995D01*
X179062400Y-94370357D01*
X178978499Y-94301501D01*
X178909643Y-94217600D01*
X178858481Y-94121882D01*
X178858479Y-94121879D01*
X178854612Y-94109131D01*
X178845240Y-94086504D01*
X178831626Y-94066130D01*
X178814299Y-94048803D01*
X178793925Y-94035189D01*
X178771286Y-94025812D01*
X178747253Y-94021031D01*
X178722749Y-94021031D01*
X178698715Y-94025811D01*
X178676076Y-94035188D01*
X178655702Y-94048802D01*
X178638375Y-94066129D01*
X178624761Y-94086503D01*
X178615388Y-94109131D01*
X178611521Y-94121879D01*
X178611519Y-94121882D01*
X178560357Y-94217600D01*
X178491501Y-94301501D01*
X178407600Y-94370357D01*
X178339055Y-94406995D01*
X178311879Y-94421521D01*
X178299131Y-94425388D01*
X178276504Y-94434760D01*
X178256130Y-94448374D01*
X178238803Y-94465701D01*
X178225189Y-94486075D01*
X178215812Y-94508714D01*
X178211031Y-94532747D01*
X177988969Y-94532747D01*
X177984189Y-94508715D01*
X177974812Y-94486076D01*
X177961198Y-94465702D01*
X177943871Y-94448375D01*
X177923497Y-94434761D01*
X177900869Y-94425388D01*
X177888121Y-94421521D01*
X177860945Y-94406995D01*
X177792400Y-94370357D01*
X177708499Y-94301501D01*
X177639643Y-94217600D01*
X177588481Y-94121882D01*
X177588479Y-94121879D01*
X177556973Y-94018015D01*
X177546334Y-93910000D01*
X177556973Y-93801985D01*
X177588479Y-93698121D01*
X177603005Y-93670945D01*
X177639643Y-93602400D01*
X177708499Y-93518499D01*
X177792399Y-93449645D01*
X177792398Y-93449645D01*
X177792400Y-93449644D01*
X177836193Y-93426236D01*
X177856563Y-93412625D01*
X177873890Y-93395298D01*
X177887504Y-93374924D01*
X177896881Y-93352285D01*
X177901662Y-93328252D01*
X177901662Y-93315999D01*
X178297736Y-93315999D01*
X178300138Y-93340385D01*
X178307251Y-93363834D01*
X178318802Y-93385445D01*
X178334347Y-93404387D01*
X178353289Y-93419932D01*
X178363802Y-93426233D01*
X178407600Y-93449644D01*
X178407602Y-93449645D01*
X178407601Y-93449645D01*
X178491501Y-93518499D01*
X178560357Y-93602400D01*
X178596995Y-93670945D01*
X178611521Y-93698121D01*
X178615388Y-93710869D01*
X178624760Y-93733496D01*
X178638374Y-93753870D01*
X178655701Y-93771197D01*
X178676075Y-93784811D01*
X178698714Y-93794188D01*
X178722747Y-93798969D01*
X178747251Y-93798969D01*
X178771285Y-93794189D01*
X178793924Y-93784812D01*
X178814298Y-93771198D01*
X178831625Y-93753871D01*
X178845239Y-93733497D01*
X178854612Y-93710869D01*
X178858479Y-93698121D01*
X178873005Y-93670945D01*
X178909643Y-93602400D01*
X178978499Y-93518499D01*
X179062400Y-93449643D01*
X179131656Y-93412625D01*
X179158121Y-93398479D01*
X179170869Y-93394612D01*
X179193496Y-93385240D01*
X179213870Y-93371626D01*
X179231197Y-93354299D01*
X179244811Y-93333925D01*
X179254188Y-93311286D01*
X179258969Y-93287253D01*
X179258969Y-93262749D01*
X179254189Y-93238715D01*
X179244812Y-93216076D01*
X179231198Y-93195702D01*
X179213871Y-93178375D01*
X179193497Y-93164761D01*
X179170869Y-93155388D01*
X179158121Y-93151521D01*
X179130945Y-93136995D01*
X179062400Y-93100357D01*
X178978499Y-93031501D01*
X178909645Y-92947601D01*
X178909644Y-92947600D01*
X178886236Y-92903807D01*
X178872625Y-92883437D01*
X178855298Y-92866110D01*
X178834924Y-92852496D01*
X178812285Y-92843119D01*
X178788252Y-92838338D01*
X178763748Y-92838338D01*
X178739714Y-92843118D01*
X178717076Y-92852495D01*
X178696701Y-92866109D01*
X178679374Y-92883436D01*
X178665760Y-92903810D01*
X178656383Y-92926449D01*
X178651602Y-92950482D01*
X178651000Y-92962735D01*
X178651000Y-93191000D01*
X178422735Y-93191000D01*
X178398349Y-93193402D01*
X178374900Y-93200515D01*
X178353289Y-93212066D01*
X178334347Y-93227611D01*
X178318802Y-93246553D01*
X178307251Y-93268164D01*
X178300138Y-93291613D01*
X178297736Y-93315999D01*
X177901662Y-93315999D01*
X177901662Y-93303748D01*
X177896882Y-93279714D01*
X177887505Y-93257076D01*
X177873891Y-93236701D01*
X177856564Y-93219374D01*
X177836190Y-93205760D01*
X177813551Y-93196383D01*
X177789518Y-93191602D01*
X177777265Y-93191000D01*
X177549000Y-93191000D01*
X177549000Y-92089000D01*
X178651000Y-92089000D01*
X178651000Y-92317265D01*
X178651000Y-92317265D01*
G37*
G36*
X109818571Y-82352863D02*
G01*
X109897023Y-82360590D01*
X109997682Y-82391125D01*
X110048013Y-82406392D01*
X110187165Y-82480771D01*
X110309133Y-82580867D01*
X110409229Y-82702835D01*
X110483608Y-82841987D01*
X110483608Y-82841988D01*
X110529410Y-82992977D01*
X110544875Y-83150000D01*
X110529410Y-83307023D01*
X110498875Y-83407682D01*
X110483608Y-83458013D01*
X110409229Y-83597165D01*
X110309133Y-83719133D01*
X110187165Y-83819229D01*
X110048013Y-83893608D01*
X109997682Y-83908875D01*
X109897023Y-83939410D01*
X109818571Y-83947137D01*
X109779346Y-83951000D01*
X108500654Y-83951000D01*
X108461429Y-83947137D01*
X108382977Y-83939410D01*
X108282318Y-83908875D01*
X108231987Y-83893608D01*
X108092835Y-83819229D01*
X107970867Y-83719133D01*
X107870771Y-83597165D01*
X107796392Y-83458013D01*
X107781125Y-83407682D01*
X107750590Y-83307023D01*
X107735125Y-83150000D01*
X107750590Y-82992977D01*
X107796392Y-82841988D01*
X107796392Y-82841987D01*
X107870771Y-82702835D01*
X107970867Y-82580867D01*
X108092835Y-82480771D01*
X108231987Y-82406392D01*
X108282318Y-82391125D01*
X108382977Y-82360590D01*
X108461429Y-82352863D01*
X108500654Y-82349000D01*
X109779346Y-82349000D01*
X109818571Y-82352863D01*
X109818571Y-82352863D01*
G37*
G36*
X103278571Y-82352863D02*
G01*
X103357023Y-82360590D01*
X103457682Y-82391125D01*
X103508013Y-82406392D01*
X103647165Y-82480771D01*
X103769133Y-82580867D01*
X103869229Y-82702835D01*
X103943608Y-82841987D01*
X103943608Y-82841988D01*
X103989410Y-82992977D01*
X104004875Y-83150000D01*
X103989410Y-83307023D01*
X103958875Y-83407682D01*
X103943608Y-83458013D01*
X103869229Y-83597165D01*
X103769133Y-83719133D01*
X103647165Y-83819229D01*
X103508013Y-83893608D01*
X103457682Y-83908875D01*
X103357023Y-83939410D01*
X103278571Y-83947137D01*
X103239346Y-83951000D01*
X101960654Y-83951000D01*
X101921429Y-83947137D01*
X101842977Y-83939410D01*
X101742318Y-83908875D01*
X101691987Y-83893608D01*
X101552835Y-83819229D01*
X101430867Y-83719133D01*
X101330771Y-83597165D01*
X101256392Y-83458013D01*
X101241125Y-83407682D01*
X101210590Y-83307023D01*
X101195125Y-83150000D01*
X101210590Y-82992977D01*
X101256392Y-82841988D01*
X101256392Y-82841987D01*
X101330771Y-82702835D01*
X101430867Y-82580867D01*
X101552835Y-82480771D01*
X101691987Y-82406392D01*
X101742318Y-82391125D01*
X101842977Y-82360590D01*
X101921429Y-82352863D01*
X101960654Y-82349000D01*
X103239346Y-82349000D01*
X103278571Y-82352863D01*
X103278571Y-82352863D01*
G37*
G36*
X103278571Y-79002863D02*
G01*
X103357023Y-79010590D01*
X103457682Y-79041125D01*
X103508013Y-79056392D01*
X103647165Y-79130771D01*
X103769133Y-79230867D01*
X103869229Y-79352835D01*
X103943608Y-79491987D01*
X103943608Y-79491988D01*
X103989410Y-79642977D01*
X104004875Y-79800000D01*
X103989410Y-79957023D01*
X103958875Y-80057682D01*
X103943608Y-80108013D01*
X103869229Y-80247165D01*
X103769133Y-80369133D01*
X103647165Y-80469229D01*
X103508013Y-80543608D01*
X103457682Y-80558875D01*
X103357023Y-80589410D01*
X103278571Y-80597137D01*
X103239346Y-80601000D01*
X101960654Y-80601000D01*
X101921429Y-80597137D01*
X101842977Y-80589410D01*
X101742318Y-80558875D01*
X101691987Y-80543608D01*
X101552835Y-80469229D01*
X101430867Y-80369133D01*
X101330771Y-80247165D01*
X101256392Y-80108013D01*
X101241125Y-80057682D01*
X101210590Y-79957023D01*
X101195125Y-79800000D01*
X101210590Y-79642977D01*
X101256392Y-79491988D01*
X101256392Y-79491987D01*
X101330771Y-79352835D01*
X101430867Y-79230867D01*
X101552835Y-79130771D01*
X101691987Y-79056392D01*
X101742318Y-79041125D01*
X101842977Y-79010590D01*
X101921429Y-79002863D01*
X101960654Y-78999000D01*
X103239346Y-78999000D01*
X103278571Y-79002863D01*
X103278571Y-79002863D01*
G37*
G36*
X109818571Y-79002863D02*
G01*
X109897023Y-79010590D01*
X109997682Y-79041125D01*
X110048013Y-79056392D01*
X110187165Y-79130771D01*
X110309133Y-79230867D01*
X110409229Y-79352835D01*
X110483608Y-79491987D01*
X110483608Y-79491988D01*
X110529410Y-79642977D01*
X110544875Y-79800000D01*
X110529410Y-79957023D01*
X110498875Y-80057682D01*
X110483608Y-80108013D01*
X110409229Y-80247165D01*
X110309133Y-80369133D01*
X110187165Y-80469229D01*
X110048013Y-80543608D01*
X109997682Y-80558875D01*
X109897023Y-80589410D01*
X109818571Y-80597137D01*
X109779346Y-80601000D01*
X108500654Y-80601000D01*
X108461429Y-80597137D01*
X108382977Y-80589410D01*
X108282318Y-80558875D01*
X108231987Y-80543608D01*
X108092835Y-80469229D01*
X107970867Y-80369133D01*
X107870771Y-80247165D01*
X107796392Y-80108013D01*
X107781125Y-80057682D01*
X107750590Y-79957023D01*
X107735125Y-79800000D01*
X107750590Y-79642977D01*
X107796392Y-79491988D01*
X107796392Y-79491987D01*
X107870771Y-79352835D01*
X107970867Y-79230867D01*
X108092835Y-79130771D01*
X108231987Y-79056392D01*
X108282318Y-79041125D01*
X108382977Y-79010590D01*
X108461429Y-79002863D01*
X108500654Y-78999000D01*
X109779346Y-78999000D01*
X109818571Y-79002863D01*
X109818571Y-79002863D01*
G37*
G36*
X103278571Y-64502863D02*
G01*
X103357023Y-64510590D01*
X103457682Y-64541125D01*
X103508013Y-64556392D01*
X103647165Y-64630771D01*
X103769133Y-64730867D01*
X103869229Y-64852835D01*
X103943608Y-64991987D01*
X103943608Y-64991988D01*
X103989410Y-65142977D01*
X104004875Y-65300000D01*
X103989410Y-65457023D01*
X103958875Y-65557682D01*
X103943608Y-65608013D01*
X103869229Y-65747165D01*
X103769133Y-65869133D01*
X103647165Y-65969229D01*
X103508013Y-66043608D01*
X103457682Y-66058875D01*
X103357023Y-66089410D01*
X103278571Y-66097137D01*
X103239346Y-66101000D01*
X101960654Y-66101000D01*
X101921429Y-66097137D01*
X101842977Y-66089410D01*
X101742318Y-66058875D01*
X101691987Y-66043608D01*
X101552835Y-65969229D01*
X101430867Y-65869133D01*
X101330771Y-65747165D01*
X101256392Y-65608013D01*
X101241125Y-65557682D01*
X101210590Y-65457023D01*
X101195125Y-65300000D01*
X101210590Y-65142977D01*
X101256392Y-64991988D01*
X101256392Y-64991987D01*
X101330771Y-64852835D01*
X101430867Y-64730867D01*
X101552835Y-64630771D01*
X101691987Y-64556392D01*
X101742318Y-64541125D01*
X101842977Y-64510590D01*
X101921429Y-64502863D01*
X101960654Y-64499000D01*
X103239346Y-64499000D01*
X103278571Y-64502863D01*
X103278571Y-64502863D01*
G37*
G36*
X109818571Y-64502863D02*
G01*
X109897023Y-64510590D01*
X109997682Y-64541125D01*
X110048013Y-64556392D01*
X110187165Y-64630771D01*
X110309133Y-64730867D01*
X110409229Y-64852835D01*
X110483608Y-64991987D01*
X110483608Y-64991988D01*
X110529410Y-65142977D01*
X110544875Y-65300000D01*
X110529410Y-65457023D01*
X110498875Y-65557682D01*
X110483608Y-65608013D01*
X110409229Y-65747165D01*
X110309133Y-65869133D01*
X110187165Y-65969229D01*
X110048013Y-66043608D01*
X109997682Y-66058875D01*
X109897023Y-66089410D01*
X109818571Y-66097137D01*
X109779346Y-66101000D01*
X108500654Y-66101000D01*
X108461429Y-66097137D01*
X108382977Y-66089410D01*
X108282318Y-66058875D01*
X108231987Y-66043608D01*
X108092835Y-65969229D01*
X107970867Y-65869133D01*
X107870771Y-65747165D01*
X107796392Y-65608013D01*
X107781125Y-65557682D01*
X107750590Y-65457023D01*
X107735125Y-65300000D01*
X107750590Y-65142977D01*
X107796392Y-64991988D01*
X107796392Y-64991987D01*
X107870771Y-64852835D01*
X107970867Y-64730867D01*
X108092835Y-64630771D01*
X108231987Y-64556392D01*
X108282318Y-64541125D01*
X108382977Y-64510590D01*
X108461429Y-64502863D01*
X108500654Y-64499000D01*
X109779346Y-64499000D01*
X109818571Y-64502863D01*
X109818571Y-64502863D01*
G37*
G36*
X105264903Y-60047075D02*
G01*
X105492571Y-60141378D01*
X105697466Y-60278285D01*
X105871715Y-60452534D01*
X106008622Y-60657429D01*
X106102925Y-60885097D01*
X106151000Y-61126787D01*
X106151000Y-61373213D01*
X106102925Y-61614903D01*
X106008622Y-61842571D01*
X105871715Y-62047466D01*
X105697466Y-62221715D01*
X105492571Y-62358622D01*
X105492570Y-62358623D01*
X105492569Y-62358623D01*
X105264903Y-62452925D01*
X105023214Y-62501000D01*
X104776786Y-62501000D01*
X104535097Y-62452925D01*
X104307431Y-62358623D01*
X104307430Y-62358623D01*
X104307429Y-62358622D01*
X104102534Y-62221715D01*
X103928285Y-62047466D01*
X103791378Y-61842571D01*
X103697075Y-61614903D01*
X103649000Y-61373213D01*
X103649000Y-61126787D01*
X103697075Y-60885097D01*
X103791378Y-60657429D01*
X103928285Y-60452534D01*
X104102534Y-60278285D01*
X104307429Y-60141378D01*
X104535097Y-60047075D01*
X104776786Y-59999000D01*
X105023214Y-59999000D01*
X105264903Y-60047075D01*
X105264903Y-60047075D01*
G37*
G36*
X106151000Y-59001000D02*
G01*
X103649000Y-59001000D01*
X103649000Y-56499000D01*
X106151000Y-56499000D01*
X106151000Y-59001000D01*
X106151000Y-59001000D01*
G37*
G36*
X103818433Y-51634893D02*
G01*
X103908657Y-51652839D01*
X104014267Y-51696585D01*
X104163621Y-51758449D01*
X104163622Y-51758450D01*
X104393086Y-51911772D01*
X104588228Y-52106914D01*
X104690675Y-52260237D01*
X104741551Y-52336379D01*
X104847161Y-52591344D01*
X104901000Y-52862012D01*
X104901000Y-53137988D01*
X104847161Y-53408656D01*
X104741551Y-53663621D01*
X104741550Y-53663622D01*
X104588228Y-53893086D01*
X104393086Y-54088228D01*
X104239763Y-54190675D01*
X104163621Y-54241551D01*
X104014267Y-54303415D01*
X103908657Y-54347161D01*
X103818433Y-54365107D01*
X103637988Y-54401000D01*
X103362012Y-54401000D01*
X103181567Y-54365107D01*
X103091343Y-54347161D01*
X102985733Y-54303415D01*
X102836379Y-54241551D01*
X102760237Y-54190675D01*
X102606914Y-54088228D01*
X102411772Y-53893086D01*
X102258450Y-53663622D01*
X102258449Y-53663621D01*
X102152839Y-53408656D01*
X102099000Y-53137988D01*
X102099000Y-52862012D01*
X102152839Y-52591344D01*
X102258449Y-52336379D01*
X102309325Y-52260237D01*
X102411772Y-52106914D01*
X102606914Y-51911772D01*
X102836378Y-51758450D01*
X102836379Y-51758449D01*
X102985733Y-51696585D01*
X103091343Y-51652839D01*
X103181567Y-51634893D01*
X103362012Y-51599000D01*
X103637988Y-51599000D01*
X103818433Y-51634893D01*
X103818433Y-51634893D01*
G37*
G36*
X187818433Y-51634893D02*
G01*
X187908657Y-51652839D01*
X188014267Y-51696585D01*
X188163621Y-51758449D01*
X188163622Y-51758450D01*
X188393086Y-51911772D01*
X188588228Y-52106914D01*
X188690675Y-52260237D01*
X188741551Y-52336379D01*
X188847161Y-52591344D01*
X188901000Y-52862012D01*
X188901000Y-53137988D01*
X188847161Y-53408656D01*
X188741551Y-53663621D01*
X188741550Y-53663622D01*
X188588228Y-53893086D01*
X188393086Y-54088228D01*
X188239763Y-54190675D01*
X188163621Y-54241551D01*
X188014267Y-54303415D01*
X187908657Y-54347161D01*
X187818433Y-54365107D01*
X187637988Y-54401000D01*
X187362012Y-54401000D01*
X187181567Y-54365107D01*
X187091343Y-54347161D01*
X186985733Y-54303415D01*
X186836379Y-54241551D01*
X186760237Y-54190675D01*
X186606914Y-54088228D01*
X186411772Y-53893086D01*
X186258450Y-53663622D01*
X186258449Y-53663621D01*
X186152839Y-53408656D01*
X186099000Y-53137988D01*
X186099000Y-52862012D01*
X186152839Y-52591344D01*
X186258449Y-52336379D01*
X186309325Y-52260237D01*
X186411772Y-52106914D01*
X186606914Y-51911772D01*
X186836378Y-51758450D01*
X186836379Y-51758449D01*
X186985733Y-51696585D01*
X187091343Y-51652839D01*
X187181567Y-51634893D01*
X187362012Y-51599000D01*
X187637988Y-51599000D01*
X187818433Y-51634893D01*
X187818433Y-51634893D01*
G37*
M02*
