G04 #@! TF.GenerationSoftware,KiCad,Pcbnew,(5.1.4-0)*
G04 #@! TF.CreationDate,2020-11-25T23:13:14+03:00*
G04 #@! TF.ProjectId,hdmi_to_mipi-dsi_converter,68646d69-5f74-46f5-9f6d-6970692d6473,rev?*
G04 #@! TF.SameCoordinates,Original*
G04 #@! TF.FileFunction,Copper,L4,Bot*
G04 #@! TF.FilePolarity,Positive*
%FSLAX46Y46*%
G04 Gerber Fmt 4.6, Leading zero omitted, Abs format (unit mm)*
G04 Created by KiCad (PCBNEW (5.1.4-0)) date 2020-11-25 23:13:14*
%MOMM*%
%LPD*%
G04 APERTURE LIST*
%ADD10O,2.700000X1.500000*%
%ADD11R,1.000000X1.000000*%
%ADD12O,1.000000X1.000000*%
%ADD13R,2.400000X2.400000*%
%ADD14C,2.400000*%
%ADD15C,1.450000*%
%ADD16O,1.200000X1.900000*%
%ADD17C,0.550000*%
%ADD18C,0.800000*%
%ADD19C,0.203200*%
%ADD20C,0.250000*%
%ADD21C,0.500000*%
%ADD22C,0.150000*%
%ADD23C,0.127000*%
%ADD24C,0.254000*%
G04 APERTURE END LIST*
D10*
X102600000Y-65300000D03*
X109140000Y-65300000D03*
X109140000Y-79800000D03*
X102600000Y-79800000D03*
X102600000Y-83150000D03*
X109140000Y-83150000D03*
X109140000Y-97650000D03*
X102600000Y-97650000D03*
D11*
X178100000Y-92640000D03*
D12*
X179370000Y-92640000D03*
X178100000Y-93910000D03*
X179370000Y-93910000D03*
X178100000Y-95180000D03*
X179370000Y-95180000D03*
X178100000Y-96450000D03*
X179370000Y-96450000D03*
X178100000Y-97720000D03*
X179370000Y-97720000D03*
D13*
X104900000Y-57750000D03*
D14*
X104900000Y-61250000D03*
D15*
X173850000Y-100550000D03*
X178850000Y-100550000D03*
D16*
X172850000Y-103250000D03*
X179850000Y-103250000D03*
D17*
X122850000Y-60150000D03*
X167400000Y-54150000D03*
X172250000Y-79000000D03*
X167450000Y-57750000D03*
X145400000Y-66254000D03*
X115200000Y-65900000D03*
X133500000Y-58650000D03*
X149800000Y-68100000D03*
X144450000Y-68850000D03*
X143300000Y-73950000D03*
X147125000Y-76025000D03*
X135625000Y-92396400D03*
X131800000Y-90800000D03*
X138879860Y-87128208D03*
X132900000Y-85550000D03*
X133400000Y-77945998D03*
X174200000Y-79050000D03*
X162900000Y-53800000D03*
X148995841Y-76904159D03*
X158900000Y-80350000D03*
X149000000Y-80900000D03*
D18*
X126600000Y-68800000D03*
X134398000Y-80050000D03*
X140450000Y-93200000D03*
X132850000Y-96450000D03*
D17*
X153100000Y-101550000D03*
X175723000Y-92950000D03*
D18*
X139600000Y-74350000D03*
D17*
X161450000Y-56500000D03*
X184300000Y-80250000D03*
X131900000Y-66700000D03*
X140750000Y-98200000D03*
X145750000Y-98950000D03*
X154800000Y-101200000D03*
X142450000Y-67150000D03*
X143397190Y-73179190D03*
X152300000Y-81016000D03*
X156100000Y-78650000D03*
X127900000Y-91000000D03*
X131800000Y-83050000D03*
X160400000Y-99400000D03*
X166200000Y-94800000D03*
X160600000Y-94750000D03*
X157850000Y-94750000D03*
X159050000Y-92103600D03*
X159800000Y-92750000D03*
X166850000Y-101700000D03*
X165200000Y-104200000D03*
X140250000Y-69211509D03*
X150950000Y-68400000D03*
X137150000Y-61850000D03*
D18*
X140500000Y-91309000D03*
X139550000Y-85239000D03*
D17*
X151900000Y-74750000D03*
X145150000Y-85350000D03*
X171800000Y-96950000D03*
X136100000Y-58850000D03*
X114200000Y-87150000D03*
X115300000Y-84400000D03*
X115950000Y-65100000D03*
X166800000Y-53750000D03*
X166923000Y-56750000D03*
X173150000Y-79050000D03*
X134350000Y-87200000D03*
X123700000Y-85250000D03*
X111150000Y-84850000D03*
X115650000Y-86200000D03*
X133672997Y-87200000D03*
X124900000Y-85800000D03*
X127150000Y-85650000D03*
X133784649Y-85540882D03*
X131657911Y-85975175D03*
X127450000Y-86566000D03*
X143050000Y-69298000D03*
X139750000Y-69943999D03*
X145250000Y-68800000D03*
X139600000Y-68900000D03*
X114707569Y-68548000D03*
X145174992Y-70548077D03*
X137750000Y-69050000D03*
X115500000Y-70330490D03*
X111200000Y-66950000D03*
X145850000Y-70600000D03*
X136000000Y-68450000D03*
X116250000Y-69350000D03*
X176850000Y-92153600D03*
X165450000Y-97750000D03*
X137100000Y-98500000D03*
X132851407Y-93812663D03*
X143819870Y-79398000D03*
X136200000Y-98500000D03*
X133900000Y-93750000D03*
X146100000Y-80100000D03*
X138050000Y-98400000D03*
X133859500Y-92750000D03*
X145200000Y-74150000D03*
X137350000Y-93200000D03*
X148617501Y-76150000D03*
X139050000Y-98400000D03*
X147650000Y-102596400D03*
X149200000Y-96950000D03*
X163050000Y-99950000D03*
X149200000Y-96200000D03*
X163600000Y-99100000D03*
X150273600Y-97700000D03*
X149266400Y-98050000D03*
X134150000Y-90700000D03*
X124400000Y-56500000D03*
X122850000Y-56500000D03*
X121250000Y-56500000D03*
X125200000Y-55600000D03*
X130900000Y-56500000D03*
X132200000Y-55950000D03*
X120450000Y-66400000D03*
X114200000Y-68100000D03*
X149750000Y-75900000D03*
X138250000Y-92500000D03*
X155200000Y-76900000D03*
X153600000Y-76200000D03*
X153300000Y-81016000D03*
X151950000Y-75750000D03*
X141750000Y-98100000D03*
X142050000Y-93250000D03*
X144300000Y-94650000D03*
X139550000Y-92900000D03*
X144350000Y-66350000D03*
X142300000Y-68100000D03*
X141250000Y-68050000D03*
X134950000Y-96300000D03*
X131800000Y-96250000D03*
X130750000Y-96250000D03*
X129650000Y-96300000D03*
X138250000Y-85550000D03*
X141300000Y-86050000D03*
X141250000Y-87050000D03*
X151250000Y-102700000D03*
X151250000Y-98150000D03*
X147750000Y-99450000D03*
X172250000Y-98700000D03*
X168900000Y-95250000D03*
X161050000Y-92103600D03*
X165550000Y-100450000D03*
X160350000Y-98263600D03*
X168600000Y-92153600D03*
X167600000Y-92153600D03*
X167850000Y-103200000D03*
X167850000Y-104250000D03*
X130050000Y-64250000D03*
X129300000Y-65750000D03*
X128200000Y-63650000D03*
X124800000Y-64350000D03*
X124200000Y-65700000D03*
X124500000Y-62150000D03*
X122850000Y-63850000D03*
X120800000Y-62550000D03*
X111900000Y-64100000D03*
X109850000Y-63200000D03*
X134600000Y-65600000D03*
X135150000Y-64300000D03*
X135150000Y-62150000D03*
X133500000Y-63750000D03*
X155550000Y-93250000D03*
X157250000Y-93750000D03*
X157300000Y-92750000D03*
X157850000Y-103600000D03*
X108100000Y-69050000D03*
X108150000Y-72050000D03*
X108150000Y-73550000D03*
X108150000Y-75050000D03*
X108150000Y-76550000D03*
X108000000Y-86900000D03*
X108000000Y-89900000D03*
X108000000Y-91400000D03*
X108000000Y-92900000D03*
X108000000Y-94400000D03*
X130900000Y-84800000D03*
X129800000Y-84750000D03*
X132750000Y-83050000D03*
X129250000Y-90000000D03*
X128050000Y-91950000D03*
X115000000Y-85550000D03*
X148348000Y-79350000D03*
X149652000Y-79350000D03*
X147300000Y-79250000D03*
X146300000Y-79400000D03*
X143150000Y-79300000D03*
X142100000Y-79300000D03*
X141100000Y-79350000D03*
X139700000Y-75350000D03*
X140750000Y-73350000D03*
D18*
X151950000Y-68650000D03*
D17*
X147750000Y-70800000D03*
X147800000Y-73900000D03*
X145250000Y-72700000D03*
X148350000Y-72000000D03*
X148350000Y-72700000D03*
X145250000Y-72000000D03*
X146486242Y-70831361D03*
X147100000Y-70800000D03*
X147150000Y-73850000D03*
X145306001Y-73300000D03*
X150100000Y-68850000D03*
X164450000Y-56600000D03*
X186500000Y-92300000D03*
X186550000Y-83250000D03*
X164450000Y-54250000D03*
X173450000Y-54300000D03*
D18*
X129900000Y-62050000D03*
X128050000Y-58250000D03*
D17*
X135650000Y-87550000D03*
X136850000Y-88000000D03*
X133800000Y-88700000D03*
X133800000Y-89350000D03*
X136900000Y-88700000D03*
X136900000Y-89350000D03*
X136850000Y-90000000D03*
X135650000Y-90500000D03*
X136300000Y-90500000D03*
D18*
X113350000Y-54800000D03*
X120150000Y-54800000D03*
X116750000Y-58550000D03*
X116750000Y-51100000D03*
X120100000Y-51450000D03*
X113450000Y-58350000D03*
X113350000Y-51200000D03*
X120100000Y-58350000D03*
D17*
X135696400Y-96350000D03*
X157550000Y-100600000D03*
X153900000Y-99300000D03*
X148500000Y-70750000D03*
X136850000Y-87350000D03*
X136300000Y-87500000D03*
X119300000Y-79850000D03*
X131050000Y-52900000D03*
D19*
X123124999Y-60424999D02*
X129375001Y-60424999D01*
X122850000Y-60150000D02*
X123124999Y-60424999D01*
X129375001Y-60424999D02*
X129750000Y-60050000D01*
X129750000Y-60050000D02*
X129750000Y-55800000D01*
X129750000Y-55800000D02*
X130103601Y-55446399D01*
X167400000Y-55000000D02*
X167400000Y-54150000D01*
X166953601Y-55446399D02*
X167400000Y-55000000D01*
D20*
X167847990Y-58447990D02*
X167450000Y-58050000D01*
X167450000Y-58050000D02*
X167450000Y-57750000D01*
X171747990Y-58447990D02*
X167847990Y-58447990D01*
X172250000Y-58950000D02*
X171747990Y-58447990D01*
X172250000Y-79000000D02*
X172250000Y-58950000D01*
D19*
X130103601Y-55446399D02*
X166953601Y-55446399D01*
D21*
X139600000Y-66050000D02*
X140100000Y-65550000D01*
X139600000Y-67300000D02*
X139600000Y-66050000D01*
X139102001Y-67797999D02*
X139600000Y-67300000D01*
X145084908Y-65550000D02*
X145267454Y-65732546D01*
X117247999Y-67797999D02*
X139102001Y-67797999D01*
X116550000Y-65900000D02*
X117000000Y-66350000D01*
X140100000Y-65550000D02*
X145084908Y-65550000D01*
X117000000Y-67550000D02*
X117247999Y-67797999D01*
X115200000Y-65900000D02*
X116550000Y-65900000D01*
X117000000Y-66350000D02*
X117000000Y-67550000D01*
X145084908Y-65550000D02*
X145400000Y-65865092D01*
X145400000Y-65865092D02*
X145400000Y-66254000D01*
X145267454Y-65732546D02*
X145400000Y-65865092D01*
X149052001Y-62802001D02*
X149800000Y-63550000D01*
X133952001Y-62802001D02*
X149052001Y-62802001D01*
X133500000Y-58650000D02*
X133500000Y-62350000D01*
X149800000Y-68100000D02*
X149800000Y-63550000D01*
X133500000Y-62350000D02*
X133952001Y-62802001D01*
X162900000Y-53150000D02*
X162900000Y-53800000D01*
X163200000Y-52850000D02*
X162900000Y-53150000D01*
X173500000Y-52850000D02*
X163200000Y-52850000D01*
X174200000Y-53550000D02*
X173500000Y-52850000D01*
X174200000Y-79050000D02*
X174200000Y-53550000D01*
X149700000Y-82500000D02*
X149000000Y-81800000D01*
X149000000Y-76908318D02*
X148995841Y-76904159D01*
X155550000Y-82500000D02*
X149700000Y-82500000D01*
X155950000Y-82500000D02*
X155550000Y-82500000D01*
X158300000Y-82500000D02*
X155550000Y-82500000D01*
X158900000Y-81900000D02*
X158300000Y-82500000D01*
X158900000Y-80350000D02*
X158900000Y-81900000D01*
X149000000Y-80900000D02*
X149000000Y-76908318D01*
X149000000Y-81800000D02*
X149000000Y-80900000D01*
X126600000Y-68800000D02*
X126600000Y-77400000D01*
X126600000Y-77400000D02*
X126600000Y-78550000D01*
X126600000Y-78550000D02*
X126600000Y-79300000D01*
X126600000Y-79300000D02*
X127350000Y-80050000D01*
X127350000Y-80050000D02*
X134398000Y-80050000D01*
D20*
X176833562Y-92950000D02*
X175723000Y-92950000D01*
X177143562Y-92640000D02*
X176833562Y-92950000D01*
X178100000Y-92640000D02*
X177143562Y-92640000D01*
D21*
X137600000Y-60500000D02*
X137150000Y-60950000D01*
X137150000Y-60950000D02*
X137150000Y-61850000D01*
X150250000Y-60500000D02*
X137600000Y-60500000D01*
X150950000Y-61200000D02*
X150250000Y-60500000D01*
X150950000Y-68400000D02*
X150950000Y-61200000D01*
X143900000Y-85200000D02*
X139550000Y-85239000D01*
X144050000Y-85350000D02*
X143900000Y-85200000D01*
X145150000Y-85350000D02*
X144050000Y-85350000D01*
X171800000Y-96950000D02*
X171400000Y-96550000D01*
X171400000Y-96550000D02*
X171400000Y-59650000D01*
X171400000Y-59650000D02*
X170700000Y-58950000D01*
X136200000Y-58950000D02*
X136100000Y-58850000D01*
X170700000Y-58950000D02*
X136200000Y-58950000D01*
X114200000Y-87150000D02*
X116000000Y-87150000D01*
X116000000Y-87150000D02*
X116350000Y-86800000D01*
X116350000Y-86800000D02*
X116350000Y-84750000D01*
X116350000Y-84750000D02*
X116000000Y-84400000D01*
X116000000Y-84400000D02*
X115300000Y-84400000D01*
D20*
X167100000Y-57100000D02*
X166923000Y-56923000D01*
X172600000Y-57100000D02*
X167100000Y-57100000D01*
X173150000Y-57650000D02*
X172600000Y-57100000D01*
X166923000Y-56923000D02*
X166923000Y-56750000D01*
X173150000Y-79050000D02*
X173150000Y-57650000D01*
D19*
X166800000Y-54600000D02*
X166800000Y-53750000D01*
X129575000Y-54950000D02*
X166450000Y-54950000D01*
X129200000Y-59200000D02*
X129200000Y-55325000D01*
X166450000Y-54950000D02*
X166800000Y-54600000D01*
X129200000Y-55325000D02*
X129575000Y-54950000D01*
X128753601Y-59646399D02*
X129200000Y-59200000D01*
X116353601Y-59646399D02*
X128753601Y-59646399D01*
X115950000Y-60050000D02*
X116353601Y-59646399D01*
X115950000Y-65100000D02*
X115950000Y-60050000D01*
D22*
X134350000Y-87200000D02*
X134350000Y-87650000D01*
X134350000Y-87650000D02*
X134100000Y-87900000D01*
X134100000Y-87900000D02*
X125750000Y-87900000D01*
X125750000Y-87900000D02*
X124550000Y-87900000D01*
X124550000Y-87900000D02*
X124250000Y-87600000D01*
X124250000Y-87600000D02*
X124250000Y-85500000D01*
X124000000Y-85250000D02*
X123700000Y-85250000D01*
X124250000Y-85500000D02*
X124000000Y-85250000D01*
D19*
X111150000Y-84850000D02*
X113450000Y-84850000D01*
X113450000Y-84850000D02*
X113650000Y-85050000D01*
X113650000Y-85050000D02*
X113650000Y-86050000D01*
X113800000Y-86200000D02*
X115650000Y-86200000D01*
X113650000Y-86050000D02*
X113800000Y-86200000D01*
D22*
X126450000Y-87200000D02*
X133672997Y-87200000D01*
X126200000Y-86950000D02*
X126450000Y-87200000D01*
X126200000Y-86050000D02*
X126200000Y-86950000D01*
X125950000Y-85800000D02*
X126200000Y-86050000D01*
X124900000Y-85800000D02*
X125950000Y-85800000D01*
X127350000Y-85450000D02*
X127150000Y-85650000D01*
X133784649Y-85540882D02*
X133693767Y-85450000D01*
D23*
X133784649Y-85151974D02*
X133784649Y-85540882D01*
X133632675Y-85000000D02*
X133784649Y-85151974D01*
X131388942Y-85000000D02*
X133632675Y-85000000D01*
X130938942Y-85450000D02*
X131388942Y-85000000D01*
X127350000Y-85450000D02*
X130938942Y-85450000D01*
X127484000Y-86566000D02*
X127450000Y-86566000D01*
X127700000Y-86350000D02*
X127484000Y-86566000D01*
X127850000Y-85950000D02*
X127700000Y-86100000D01*
X131657911Y-85975175D02*
X131632736Y-85950000D01*
X127700000Y-86100000D02*
X127700000Y-86350000D01*
X131632736Y-85950000D02*
X127850000Y-85950000D01*
D22*
X143050000Y-69700000D02*
X143050000Y-69298000D01*
X142806001Y-69943999D02*
X143050000Y-69700000D01*
X139750000Y-69943999D02*
X142806001Y-69943999D01*
D23*
X145250000Y-68750000D02*
X145250000Y-68800000D01*
X144850000Y-68350000D02*
X145250000Y-68750000D01*
X143150000Y-68350000D02*
X144850000Y-68350000D01*
X142765501Y-68734499D02*
X143150000Y-68350000D01*
X139765501Y-68734499D02*
X142765501Y-68734499D01*
X139600000Y-68900000D02*
X139765501Y-68734499D01*
D22*
X145174992Y-70548077D02*
X139298077Y-70548077D01*
X139298077Y-70548077D02*
X139050000Y-70300000D01*
X139050000Y-70300000D02*
X139050000Y-69250000D01*
X138850000Y-69050000D02*
X137750000Y-69050000D01*
X139050000Y-69250000D02*
X138850000Y-69050000D01*
X114707569Y-68936908D02*
X114750000Y-68979339D01*
X114707569Y-68548000D02*
X114707569Y-68936908D01*
X114750000Y-68979339D02*
X114750000Y-70050000D01*
X115030490Y-70330490D02*
X115500000Y-70330490D01*
X114750000Y-70050000D02*
X115030490Y-70330490D01*
X145850000Y-70600000D02*
X145850000Y-70950000D01*
X145850000Y-70950000D02*
X145650000Y-71150000D01*
X145650000Y-71150000D02*
X137050000Y-71150000D01*
X137050000Y-71150000D02*
X136850000Y-70950000D01*
X136850000Y-70950000D02*
X136850000Y-69000000D01*
X136850000Y-69000000D02*
X136850000Y-68800000D01*
X136850000Y-68800000D02*
X136850000Y-68650000D01*
X136650000Y-68450000D02*
X136000000Y-68450000D01*
X136850000Y-68650000D02*
X136650000Y-68450000D01*
X111250000Y-66900000D02*
X111200000Y-66950000D01*
X116000000Y-66900000D02*
X111250000Y-66900000D01*
X116250000Y-67150000D02*
X116000000Y-66900000D01*
X116250000Y-69350000D02*
X116250000Y-67150000D01*
X179370000Y-92120000D02*
X179370000Y-92640000D01*
X179150000Y-91900000D02*
X179370000Y-92120000D01*
X177103600Y-91900000D02*
X179150000Y-91900000D01*
X176850000Y-92153600D02*
X177103600Y-91900000D01*
D19*
X165450000Y-97750000D02*
X176250000Y-97750000D01*
X176250000Y-97750000D02*
X176650000Y-98150000D01*
X176650000Y-98150000D02*
X176650000Y-98950000D01*
X176650000Y-98950000D02*
X176950000Y-99250000D01*
X176950000Y-99250000D02*
X179150000Y-99250000D01*
X179370000Y-99030000D02*
X179370000Y-97720000D01*
X179150000Y-99250000D02*
X179370000Y-99030000D01*
D22*
X132851407Y-93423755D02*
X133025162Y-93250000D01*
X132851407Y-93812663D02*
X132851407Y-93423755D01*
X133025162Y-93250000D02*
X134300000Y-93250000D01*
D19*
X135950000Y-93250000D02*
X134300000Y-93250000D01*
X136250000Y-94450000D02*
X136250000Y-93550000D01*
X136400000Y-94600000D02*
X136250000Y-94450000D01*
X136850000Y-94600000D02*
X136400000Y-94600000D01*
X137100000Y-94850000D02*
X136850000Y-94600000D01*
X136250000Y-93550000D02*
X135950000Y-93250000D01*
X137100000Y-98500000D02*
X137100000Y-94850000D01*
D23*
X137350000Y-100300000D02*
X137100000Y-100050000D01*
X146000000Y-100300000D02*
X137350000Y-100300000D01*
X146250000Y-100050000D02*
X146000000Y-100300000D01*
X137100000Y-100050000D02*
X137100000Y-98500000D01*
X145950000Y-84300000D02*
X146250000Y-84600000D01*
X144150000Y-84300000D02*
X145950000Y-84300000D01*
X146250000Y-84600000D02*
X146250000Y-100050000D01*
X143819870Y-83969870D02*
X144150000Y-84300000D01*
X143819870Y-79398000D02*
X143819870Y-83969870D01*
D19*
X136200000Y-98500000D02*
X136200000Y-95350000D01*
X136200000Y-95350000D02*
X135950000Y-95100000D01*
X135950000Y-95100000D02*
X135200000Y-95100000D01*
X135200000Y-95100000D02*
X134900000Y-94800000D01*
X134900000Y-94800000D02*
X134900000Y-94000000D01*
X134650000Y-93750000D02*
X133900000Y-93750000D01*
X134900000Y-94000000D02*
X134650000Y-93750000D01*
D23*
X136200000Y-100700000D02*
X136200000Y-98500000D01*
X136550000Y-101050000D02*
X136200000Y-100700000D01*
X146550000Y-101050000D02*
X136550000Y-101050000D01*
X146800000Y-100800000D02*
X146550000Y-101050000D01*
X146800000Y-86450000D02*
X146800000Y-100800000D01*
X146750000Y-86400000D02*
X146800000Y-86450000D01*
X146100000Y-80100000D02*
X146100000Y-83500000D01*
X146750000Y-84150000D02*
X146750000Y-86400000D01*
X146100000Y-83500000D02*
X146750000Y-84150000D01*
D19*
X134009500Y-92900000D02*
X133859500Y-92750000D01*
X136700000Y-93200000D02*
X136400000Y-92900000D01*
X137700000Y-93900000D02*
X137000000Y-93900000D01*
X136400000Y-92900000D02*
X134009500Y-92900000D01*
X137000000Y-93900000D02*
X136700000Y-93600000D01*
X138050000Y-94250000D02*
X137700000Y-93900000D01*
X136700000Y-93600000D02*
X136700000Y-93200000D01*
X138050000Y-98400000D02*
X138050000Y-94250000D01*
D22*
X133859500Y-92040500D02*
X133859500Y-92750000D01*
X134050000Y-91850000D02*
X133859500Y-92040500D01*
X134850000Y-91850000D02*
X134050000Y-91850000D01*
X135000000Y-91700000D02*
X134850000Y-91850000D01*
X135000000Y-77800000D02*
X135000000Y-91700000D01*
X135550000Y-77250000D02*
X135000000Y-77800000D01*
X144800000Y-77250000D02*
X135550000Y-77250000D01*
X145200000Y-76850000D02*
X144800000Y-77250000D01*
X145200000Y-74150000D02*
X145200000Y-76850000D01*
D19*
X138650000Y-93200000D02*
X137350000Y-93200000D01*
X139050000Y-93600000D02*
X138650000Y-93200000D01*
X139050000Y-98400000D02*
X139050000Y-93600000D01*
X148342502Y-76424999D02*
X148342502Y-77807498D01*
X148617501Y-76150000D02*
X148342502Y-76424999D01*
X147844399Y-78305601D02*
X147844399Y-82294399D01*
X148342502Y-77807498D02*
X147844399Y-78305601D01*
X148653601Y-83103601D02*
X148653601Y-102246399D01*
X147844399Y-82294399D02*
X148653601Y-83103601D01*
X148303600Y-102596400D02*
X147650000Y-102596400D01*
X148653601Y-102246399D02*
X148303600Y-102596400D01*
X149200000Y-96950000D02*
X151700000Y-96950000D01*
X151700000Y-96950000D02*
X152000000Y-97250000D01*
X152000000Y-97250000D02*
X152000000Y-102550000D01*
X152000000Y-102550000D02*
X152500000Y-103050000D01*
X152500000Y-103050000D02*
X162800000Y-103050000D01*
X162800000Y-103050000D02*
X163050000Y-102800000D01*
X163050000Y-102800000D02*
X163050000Y-99950000D01*
X162800000Y-99100000D02*
X163600000Y-99100000D01*
X162546399Y-99353601D02*
X162800000Y-99100000D01*
X162546399Y-102196399D02*
X162546399Y-99353601D01*
X162550000Y-102200000D02*
X162546399Y-102196399D01*
X162250000Y-102500000D02*
X162550000Y-102200000D01*
X152800000Y-102500000D02*
X162250000Y-102500000D01*
X149200000Y-96200000D02*
X152100000Y-96200000D01*
X152450000Y-96550000D02*
X152450000Y-102150000D01*
X152100000Y-96200000D02*
X152450000Y-96550000D01*
X152450000Y-102150000D02*
X152800000Y-102500000D01*
X149550000Y-97700000D02*
X149266400Y-97983600D01*
X149266400Y-97983600D02*
X149266400Y-98050000D01*
X150273600Y-97700000D02*
X149550000Y-97700000D01*
D24*
G36*
X188759659Y-50688625D02*
G01*
X189009429Y-50764035D01*
X189239792Y-50886522D01*
X189441980Y-51051422D01*
X189608286Y-51252450D01*
X189732378Y-51481954D01*
X189809531Y-51731195D01*
X189840000Y-52021088D01*
X189840001Y-102967711D01*
X189811375Y-103259660D01*
X189735965Y-103509429D01*
X189613477Y-103739794D01*
X189448579Y-103941979D01*
X189247546Y-104108288D01*
X189018046Y-104232378D01*
X188768805Y-104309531D01*
X188478911Y-104340000D01*
X180841191Y-104340000D01*
X180942390Y-104189946D01*
X181036493Y-103965496D01*
X181085000Y-103727000D01*
X181085000Y-103377000D01*
X179977000Y-103377000D01*
X179977000Y-103397000D01*
X179723000Y-103397000D01*
X179723000Y-103377000D01*
X178615000Y-103377000D01*
X178615000Y-103727000D01*
X178663507Y-103965496D01*
X178757610Y-104189946D01*
X178858809Y-104340000D01*
X173841191Y-104340000D01*
X173942390Y-104189946D01*
X174036493Y-103965496D01*
X174085000Y-103727000D01*
X174085000Y-103377000D01*
X172977000Y-103377000D01*
X172977000Y-103397000D01*
X172723000Y-103397000D01*
X172723000Y-103377000D01*
X171615000Y-103377000D01*
X171615000Y-103727000D01*
X171663507Y-103965496D01*
X171757610Y-104189946D01*
X171858809Y-104340000D01*
X166099980Y-104340000D01*
X166110000Y-104289627D01*
X166110000Y-104110373D01*
X166075029Y-103934563D01*
X166006431Y-103768953D01*
X165906843Y-103619909D01*
X165780091Y-103493157D01*
X165631047Y-103393569D01*
X165465437Y-103324971D01*
X165289627Y-103290000D01*
X165110373Y-103290000D01*
X164934563Y-103324971D01*
X164768953Y-103393569D01*
X164619909Y-103493157D01*
X164493157Y-103619909D01*
X164393569Y-103768953D01*
X164324971Y-103934563D01*
X164290000Y-104110373D01*
X164290000Y-104289627D01*
X164300020Y-104340000D01*
X102532279Y-104340000D01*
X102240340Y-104311375D01*
X101990571Y-104235965D01*
X101760206Y-104113477D01*
X101558021Y-103948579D01*
X101391712Y-103747546D01*
X101267622Y-103518046D01*
X101190469Y-103268805D01*
X101160000Y-102978911D01*
X101160000Y-101804495D01*
X101515000Y-101804495D01*
X101515000Y-102195505D01*
X101591282Y-102579003D01*
X101740915Y-102940250D01*
X101958149Y-103265364D01*
X102234636Y-103541851D01*
X102559750Y-103759085D01*
X102920997Y-103908718D01*
X103304495Y-103985000D01*
X103695505Y-103985000D01*
X104079003Y-103908718D01*
X104440250Y-103759085D01*
X104765364Y-103541851D01*
X105041851Y-103265364D01*
X105259085Y-102940250D01*
X105408718Y-102579003D01*
X105485000Y-102195505D01*
X105485000Y-101804495D01*
X105408718Y-101420997D01*
X105259085Y-101059750D01*
X105041851Y-100734636D01*
X104765364Y-100458149D01*
X104440250Y-100240915D01*
X104079003Y-100091282D01*
X103695505Y-100015000D01*
X103304495Y-100015000D01*
X102920997Y-100091282D01*
X102559750Y-100240915D01*
X102234636Y-100458149D01*
X101958149Y-100734636D01*
X101740915Y-101059750D01*
X101591282Y-101420997D01*
X101515000Y-101804495D01*
X101160000Y-101804495D01*
X101160000Y-98754115D01*
X101352651Y-98880972D01*
X101605240Y-98983611D01*
X101873000Y-99035000D01*
X102473000Y-99035000D01*
X102473000Y-97777000D01*
X102727000Y-97777000D01*
X102727000Y-99035000D01*
X103327000Y-99035000D01*
X103594760Y-98983611D01*
X103847349Y-98880972D01*
X104075061Y-98731028D01*
X104269145Y-98539540D01*
X104422142Y-98313868D01*
X104528173Y-98062684D01*
X104542318Y-97991185D01*
X107197682Y-97991185D01*
X107211827Y-98062684D01*
X107317858Y-98313868D01*
X107470855Y-98539540D01*
X107664939Y-98731028D01*
X107892651Y-98880972D01*
X108145240Y-98983611D01*
X108413000Y-99035000D01*
X109013000Y-99035000D01*
X109013000Y-97777000D01*
X109267000Y-97777000D01*
X109267000Y-99035000D01*
X109867000Y-99035000D01*
X110134760Y-98983611D01*
X110387349Y-98880972D01*
X110615061Y-98731028D01*
X110809145Y-98539540D01*
X110962142Y-98313868D01*
X111068173Y-98062684D01*
X111082318Y-97991185D01*
X110959656Y-97777000D01*
X109267000Y-97777000D01*
X109013000Y-97777000D01*
X107320344Y-97777000D01*
X107197682Y-97991185D01*
X104542318Y-97991185D01*
X104419656Y-97777000D01*
X102727000Y-97777000D01*
X102473000Y-97777000D01*
X102453000Y-97777000D01*
X102453000Y-97523000D01*
X102473000Y-97523000D01*
X102473000Y-96265000D01*
X102727000Y-96265000D01*
X102727000Y-97523000D01*
X104419656Y-97523000D01*
X104542318Y-97308815D01*
X107197682Y-97308815D01*
X107320344Y-97523000D01*
X109013000Y-97523000D01*
X109013000Y-96265000D01*
X109267000Y-96265000D01*
X109267000Y-97523000D01*
X110959656Y-97523000D01*
X111082318Y-97308815D01*
X111068173Y-97237316D01*
X110962142Y-96986132D01*
X110809145Y-96760460D01*
X110615061Y-96568972D01*
X110387349Y-96419028D01*
X110212704Y-96348061D01*
X131815000Y-96348061D01*
X131815000Y-96551939D01*
X131854774Y-96751898D01*
X131932795Y-96940256D01*
X132046063Y-97109774D01*
X132190226Y-97253937D01*
X132359744Y-97367205D01*
X132548102Y-97445226D01*
X132748061Y-97485000D01*
X132951939Y-97485000D01*
X133151898Y-97445226D01*
X133340256Y-97367205D01*
X133509774Y-97253937D01*
X133653937Y-97109774D01*
X133767205Y-96940256D01*
X133845226Y-96751898D01*
X133885000Y-96551939D01*
X133885000Y-96348061D01*
X133845226Y-96148102D01*
X133767205Y-95959744D01*
X133653937Y-95790226D01*
X133509774Y-95646063D01*
X133340256Y-95532795D01*
X133151898Y-95454774D01*
X132951939Y-95415000D01*
X132748061Y-95415000D01*
X132548102Y-95454774D01*
X132359744Y-95532795D01*
X132190226Y-95646063D01*
X132046063Y-95790226D01*
X131932795Y-95959744D01*
X131854774Y-96148102D01*
X131815000Y-96348061D01*
X110212704Y-96348061D01*
X110134760Y-96316389D01*
X109867000Y-96265000D01*
X109267000Y-96265000D01*
X109013000Y-96265000D01*
X108413000Y-96265000D01*
X108145240Y-96316389D01*
X107892651Y-96419028D01*
X107664939Y-96568972D01*
X107470855Y-96760460D01*
X107317858Y-96986132D01*
X107211827Y-97237316D01*
X107197682Y-97308815D01*
X104542318Y-97308815D01*
X104528173Y-97237316D01*
X104422142Y-96986132D01*
X104269145Y-96760460D01*
X104075061Y-96568972D01*
X103847349Y-96419028D01*
X103594760Y-96316389D01*
X103327000Y-96265000D01*
X102727000Y-96265000D01*
X102473000Y-96265000D01*
X101873000Y-96265000D01*
X101605240Y-96316389D01*
X101352651Y-96419028D01*
X101160000Y-96545885D01*
X101160000Y-90910373D01*
X126990000Y-90910373D01*
X126990000Y-91089627D01*
X127024971Y-91265437D01*
X127093569Y-91431047D01*
X127193157Y-91580091D01*
X127319909Y-91706843D01*
X127468953Y-91806431D01*
X127634563Y-91875029D01*
X127810373Y-91910000D01*
X127989627Y-91910000D01*
X128165437Y-91875029D01*
X128331047Y-91806431D01*
X128480091Y-91706843D01*
X128606843Y-91580091D01*
X128706431Y-91431047D01*
X128775029Y-91265437D01*
X128810000Y-91089627D01*
X128810000Y-90910373D01*
X128775029Y-90734563D01*
X128765010Y-90710373D01*
X130890000Y-90710373D01*
X130890000Y-90889627D01*
X130924971Y-91065437D01*
X130993569Y-91231047D01*
X131093157Y-91380091D01*
X131219909Y-91506843D01*
X131368953Y-91606431D01*
X131534563Y-91675029D01*
X131710373Y-91710000D01*
X131889627Y-91710000D01*
X132065437Y-91675029D01*
X132231047Y-91606431D01*
X132380091Y-91506843D01*
X132506843Y-91380091D01*
X132606431Y-91231047D01*
X132675029Y-91065437D01*
X132710000Y-90889627D01*
X132710000Y-90710373D01*
X132675029Y-90534563D01*
X132606431Y-90368953D01*
X132506843Y-90219909D01*
X132380091Y-90093157D01*
X132231047Y-89993569D01*
X132065437Y-89924971D01*
X131889627Y-89890000D01*
X131710373Y-89890000D01*
X131534563Y-89924971D01*
X131368953Y-89993569D01*
X131219909Y-90093157D01*
X131093157Y-90219909D01*
X130993569Y-90368953D01*
X130924971Y-90534563D01*
X130890000Y-90710373D01*
X128765010Y-90710373D01*
X128706431Y-90568953D01*
X128606843Y-90419909D01*
X128480091Y-90293157D01*
X128331047Y-90193569D01*
X128165437Y-90124971D01*
X127989627Y-90090000D01*
X127810373Y-90090000D01*
X127634563Y-90124971D01*
X127468953Y-90193569D01*
X127319909Y-90293157D01*
X127193157Y-90419909D01*
X127093569Y-90568953D01*
X127024971Y-90734563D01*
X126990000Y-90910373D01*
X101160000Y-90910373D01*
X101160000Y-84254115D01*
X101352651Y-84380972D01*
X101605240Y-84483611D01*
X101873000Y-84535000D01*
X102473000Y-84535000D01*
X102473000Y-83277000D01*
X102727000Y-83277000D01*
X102727000Y-84535000D01*
X103327000Y-84535000D01*
X103594760Y-84483611D01*
X103847349Y-84380972D01*
X104075061Y-84231028D01*
X104269145Y-84039540D01*
X104422142Y-83813868D01*
X104528173Y-83562684D01*
X104542318Y-83491185D01*
X107197682Y-83491185D01*
X107211827Y-83562684D01*
X107317858Y-83813868D01*
X107470855Y-84039540D01*
X107664939Y-84231028D01*
X107892651Y-84380972D01*
X108145240Y-84483611D01*
X108413000Y-84535000D01*
X109013000Y-84535000D01*
X109013000Y-83277000D01*
X109267000Y-83277000D01*
X109267000Y-84535000D01*
X109867000Y-84535000D01*
X110134760Y-84483611D01*
X110362089Y-84391237D01*
X110343569Y-84418953D01*
X110274971Y-84584563D01*
X110240000Y-84760373D01*
X110240000Y-84939627D01*
X110274971Y-85115437D01*
X110343569Y-85281047D01*
X110443157Y-85430091D01*
X110569909Y-85556843D01*
X110718953Y-85656431D01*
X110884563Y-85725029D01*
X111060373Y-85760000D01*
X111239627Y-85760000D01*
X111415437Y-85725029D01*
X111581047Y-85656431D01*
X111685556Y-85586600D01*
X112913401Y-85586600D01*
X112913401Y-86013807D01*
X112909836Y-86050000D01*
X112919538Y-86148500D01*
X112924059Y-86194399D01*
X112937674Y-86239281D01*
X112966178Y-86333247D01*
X113034576Y-86461212D01*
X113096716Y-86536929D01*
X113126626Y-86573375D01*
X113154732Y-86596441D01*
X113253554Y-86695263D01*
X113276625Y-86723375D01*
X113362534Y-86793879D01*
X113324971Y-86884563D01*
X113290000Y-87060373D01*
X113290000Y-87239627D01*
X113324971Y-87415437D01*
X113393569Y-87581047D01*
X113493157Y-87730091D01*
X113619909Y-87856843D01*
X113768953Y-87956431D01*
X113934563Y-88025029D01*
X114110373Y-88060000D01*
X114289627Y-88060000D01*
X114415310Y-88035000D01*
X115956531Y-88035000D01*
X116000000Y-88039281D01*
X116043469Y-88035000D01*
X116043477Y-88035000D01*
X116173490Y-88022195D01*
X116340313Y-87971589D01*
X116494059Y-87889411D01*
X116628817Y-87778817D01*
X116656534Y-87745044D01*
X116945045Y-87456533D01*
X116978817Y-87428817D01*
X117089411Y-87294059D01*
X117171589Y-87140313D01*
X117222195Y-86973490D01*
X117235000Y-86843477D01*
X117235000Y-86843469D01*
X117239281Y-86800000D01*
X117235000Y-86756531D01*
X117235000Y-84793469D01*
X117239281Y-84750000D01*
X117235000Y-84706531D01*
X117235000Y-84706523D01*
X117222195Y-84576510D01*
X117171589Y-84409687D01*
X117089411Y-84255941D01*
X116978817Y-84121183D01*
X116945044Y-84093466D01*
X116656534Y-83804956D01*
X116628817Y-83771183D01*
X116494059Y-83660589D01*
X116340313Y-83578411D01*
X116173490Y-83527805D01*
X116043477Y-83515000D01*
X116043469Y-83515000D01*
X116000000Y-83510719D01*
X115956531Y-83515000D01*
X115515310Y-83515000D01*
X115389627Y-83490000D01*
X115210373Y-83490000D01*
X115034563Y-83524971D01*
X114868953Y-83593569D01*
X114719909Y-83693157D01*
X114593157Y-83819909D01*
X114493569Y-83968953D01*
X114424971Y-84134563D01*
X114390000Y-84310373D01*
X114390000Y-84489627D01*
X114424971Y-84665437D01*
X114493569Y-84831047D01*
X114593157Y-84980091D01*
X114719909Y-85106843D01*
X114868953Y-85206431D01*
X115034563Y-85275029D01*
X115210373Y-85310000D01*
X115389627Y-85310000D01*
X115465001Y-85295007D01*
X115465001Y-85308971D01*
X115384563Y-85324971D01*
X115218953Y-85393569D01*
X115114444Y-85463400D01*
X114386600Y-85463400D01*
X114386600Y-85086186D01*
X114390164Y-85050000D01*
X114375942Y-84905601D01*
X114364053Y-84866409D01*
X114333822Y-84766751D01*
X114265424Y-84638787D01*
X114173374Y-84526625D01*
X114145268Y-84503559D01*
X113996446Y-84354737D01*
X113973375Y-84326625D01*
X113861213Y-84234576D01*
X113733249Y-84166178D01*
X113594399Y-84124058D01*
X113486186Y-84113400D01*
X113486183Y-84113400D01*
X113450000Y-84109836D01*
X113413817Y-84113400D01*
X111685556Y-84113400D01*
X111581047Y-84043569D01*
X111415437Y-83974971D01*
X111239627Y-83940000D01*
X111060373Y-83940000D01*
X110884563Y-83974971D01*
X110840565Y-83993196D01*
X110962142Y-83813868D01*
X111068173Y-83562684D01*
X111082318Y-83491185D01*
X110959656Y-83277000D01*
X109267000Y-83277000D01*
X109013000Y-83277000D01*
X107320344Y-83277000D01*
X107197682Y-83491185D01*
X104542318Y-83491185D01*
X104419656Y-83277000D01*
X102727000Y-83277000D01*
X102473000Y-83277000D01*
X102453000Y-83277000D01*
X102453000Y-83023000D01*
X102473000Y-83023000D01*
X102473000Y-81765000D01*
X102727000Y-81765000D01*
X102727000Y-83023000D01*
X104419656Y-83023000D01*
X104542318Y-82808815D01*
X107197682Y-82808815D01*
X107320344Y-83023000D01*
X109013000Y-83023000D01*
X109013000Y-81765000D01*
X109267000Y-81765000D01*
X109267000Y-83023000D01*
X110959656Y-83023000D01*
X110995521Y-82960373D01*
X130890000Y-82960373D01*
X130890000Y-83139627D01*
X130924971Y-83315437D01*
X130993569Y-83481047D01*
X131093157Y-83630091D01*
X131219909Y-83756843D01*
X131368953Y-83856431D01*
X131534563Y-83925029D01*
X131710373Y-83960000D01*
X131889627Y-83960000D01*
X132065437Y-83925029D01*
X132231047Y-83856431D01*
X132380091Y-83756843D01*
X132506843Y-83630091D01*
X132606431Y-83481047D01*
X132675029Y-83315437D01*
X132710000Y-83139627D01*
X132710000Y-82960373D01*
X132675029Y-82784563D01*
X132606431Y-82618953D01*
X132506843Y-82469909D01*
X132380091Y-82343157D01*
X132231047Y-82243569D01*
X132065437Y-82174971D01*
X131889627Y-82140000D01*
X131710373Y-82140000D01*
X131534563Y-82174971D01*
X131368953Y-82243569D01*
X131219909Y-82343157D01*
X131093157Y-82469909D01*
X130993569Y-82618953D01*
X130924971Y-82784563D01*
X130890000Y-82960373D01*
X110995521Y-82960373D01*
X111082318Y-82808815D01*
X111068173Y-82737316D01*
X110962142Y-82486132D01*
X110809145Y-82260460D01*
X110615061Y-82068972D01*
X110387349Y-81919028D01*
X110134760Y-81816389D01*
X109867000Y-81765000D01*
X109267000Y-81765000D01*
X109013000Y-81765000D01*
X108413000Y-81765000D01*
X108145240Y-81816389D01*
X107892651Y-81919028D01*
X107664939Y-82068972D01*
X107470855Y-82260460D01*
X107317858Y-82486132D01*
X107211827Y-82737316D01*
X107197682Y-82808815D01*
X104542318Y-82808815D01*
X104528173Y-82737316D01*
X104422142Y-82486132D01*
X104269145Y-82260460D01*
X104075061Y-82068972D01*
X103847349Y-81919028D01*
X103594760Y-81816389D01*
X103327000Y-81765000D01*
X102727000Y-81765000D01*
X102473000Y-81765000D01*
X101873000Y-81765000D01*
X101605240Y-81816389D01*
X101352651Y-81919028D01*
X101160000Y-82045885D01*
X101160000Y-80904115D01*
X101352651Y-81030972D01*
X101605240Y-81133611D01*
X101873000Y-81185000D01*
X102473000Y-81185000D01*
X102473000Y-79927000D01*
X102727000Y-79927000D01*
X102727000Y-81185000D01*
X103327000Y-81185000D01*
X103594760Y-81133611D01*
X103847349Y-81030972D01*
X104075061Y-80881028D01*
X104269145Y-80689540D01*
X104422142Y-80463868D01*
X104528173Y-80212684D01*
X104542318Y-80141185D01*
X107197682Y-80141185D01*
X107211827Y-80212684D01*
X107317858Y-80463868D01*
X107470855Y-80689540D01*
X107664939Y-80881028D01*
X107892651Y-81030972D01*
X108145240Y-81133611D01*
X108413000Y-81185000D01*
X109013000Y-81185000D01*
X109013000Y-79927000D01*
X109267000Y-79927000D01*
X109267000Y-81185000D01*
X109867000Y-81185000D01*
X110134760Y-81133611D01*
X110387349Y-81030972D01*
X110615061Y-80881028D01*
X110809145Y-80689540D01*
X110962142Y-80463868D01*
X111068173Y-80212684D01*
X111082318Y-80141185D01*
X110959656Y-79927000D01*
X109267000Y-79927000D01*
X109013000Y-79927000D01*
X107320344Y-79927000D01*
X107197682Y-80141185D01*
X104542318Y-80141185D01*
X104419656Y-79927000D01*
X102727000Y-79927000D01*
X102473000Y-79927000D01*
X102453000Y-79927000D01*
X102453000Y-79673000D01*
X102473000Y-79673000D01*
X102473000Y-78415000D01*
X102727000Y-78415000D01*
X102727000Y-79673000D01*
X104419656Y-79673000D01*
X104542318Y-79458815D01*
X107197682Y-79458815D01*
X107320344Y-79673000D01*
X109013000Y-79673000D01*
X109013000Y-78415000D01*
X109267000Y-78415000D01*
X109267000Y-79673000D01*
X110959656Y-79673000D01*
X111082318Y-79458815D01*
X111068173Y-79387316D01*
X110962142Y-79136132D01*
X110809145Y-78910460D01*
X110615061Y-78718972D01*
X110387349Y-78569028D01*
X110134760Y-78466389D01*
X109867000Y-78415000D01*
X109267000Y-78415000D01*
X109013000Y-78415000D01*
X108413000Y-78415000D01*
X108145240Y-78466389D01*
X107892651Y-78569028D01*
X107664939Y-78718972D01*
X107470855Y-78910460D01*
X107317858Y-79136132D01*
X107211827Y-79387316D01*
X107197682Y-79458815D01*
X104542318Y-79458815D01*
X104528173Y-79387316D01*
X104422142Y-79136132D01*
X104269145Y-78910460D01*
X104075061Y-78718972D01*
X103847349Y-78569028D01*
X103594760Y-78466389D01*
X103327000Y-78415000D01*
X102727000Y-78415000D01*
X102473000Y-78415000D01*
X101873000Y-78415000D01*
X101605240Y-78466389D01*
X101352651Y-78569028D01*
X101160000Y-78695885D01*
X101160000Y-66404115D01*
X101352651Y-66530972D01*
X101605240Y-66633611D01*
X101873000Y-66685000D01*
X102473000Y-66685000D01*
X102473000Y-65427000D01*
X102727000Y-65427000D01*
X102727000Y-66685000D01*
X103327000Y-66685000D01*
X103594760Y-66633611D01*
X103847349Y-66530972D01*
X104075061Y-66381028D01*
X104269145Y-66189540D01*
X104422142Y-65963868D01*
X104528173Y-65712684D01*
X104542318Y-65641185D01*
X107197682Y-65641185D01*
X107211827Y-65712684D01*
X107317858Y-65963868D01*
X107470855Y-66189540D01*
X107664939Y-66381028D01*
X107892651Y-66530972D01*
X108145240Y-66633611D01*
X108413000Y-66685000D01*
X109013000Y-66685000D01*
X109013000Y-65427000D01*
X109267000Y-65427000D01*
X109267000Y-66685000D01*
X109867000Y-66685000D01*
X110134760Y-66633611D01*
X110387349Y-66530972D01*
X110389056Y-66529848D01*
X110324971Y-66684563D01*
X110290000Y-66860373D01*
X110290000Y-67039627D01*
X110324971Y-67215437D01*
X110393569Y-67381047D01*
X110493157Y-67530091D01*
X110619909Y-67656843D01*
X110768953Y-67756431D01*
X110934563Y-67825029D01*
X111110373Y-67860000D01*
X111289627Y-67860000D01*
X111465437Y-67825029D01*
X111631047Y-67756431D01*
X111780091Y-67656843D01*
X111826934Y-67610000D01*
X115540001Y-67610000D01*
X115540001Y-68179724D01*
X115514000Y-68116953D01*
X115414412Y-67967909D01*
X115287660Y-67841157D01*
X115138616Y-67741569D01*
X114973006Y-67672971D01*
X114797196Y-67638000D01*
X114617942Y-67638000D01*
X114442132Y-67672971D01*
X114276522Y-67741569D01*
X114127478Y-67841157D01*
X114000726Y-67967909D01*
X113901138Y-68116953D01*
X113832540Y-68282563D01*
X113797569Y-68458373D01*
X113797569Y-68637627D01*
X113832540Y-68813437D01*
X113901138Y-68979047D01*
X114000726Y-69128091D01*
X114033583Y-69160948D01*
X114040000Y-69182103D01*
X114040001Y-70015116D01*
X114036565Y-70050000D01*
X114050274Y-70189184D01*
X114090872Y-70323019D01*
X114156801Y-70446363D01*
X114209333Y-70510373D01*
X114245526Y-70554475D01*
X114272618Y-70576708D01*
X114503774Y-70807864D01*
X114526015Y-70834965D01*
X114634127Y-70923690D01*
X114757470Y-70989618D01*
X114891306Y-71030217D01*
X114915140Y-71032564D01*
X114919909Y-71037333D01*
X115068953Y-71136921D01*
X115234563Y-71205519D01*
X115410373Y-71240490D01*
X115589627Y-71240490D01*
X115765437Y-71205519D01*
X115931047Y-71136921D01*
X116080091Y-71037333D01*
X116206843Y-70910581D01*
X116306431Y-70761537D01*
X116375029Y-70595927D01*
X116410000Y-70420117D01*
X116410000Y-70246002D01*
X116515437Y-70225029D01*
X116681047Y-70156431D01*
X116830091Y-70056843D01*
X116956843Y-69930091D01*
X117056431Y-69781047D01*
X117125029Y-69615437D01*
X117160000Y-69439627D01*
X117160000Y-69260373D01*
X117125029Y-69084563D01*
X117056431Y-68918953D01*
X116960000Y-68774634D01*
X116960000Y-68635458D01*
X117074509Y-68670194D01*
X117204522Y-68682999D01*
X117204530Y-68682999D01*
X117247999Y-68687280D01*
X117291468Y-68682999D01*
X125567996Y-68682999D01*
X125565000Y-68698061D01*
X125565000Y-68901939D01*
X125604774Y-69101898D01*
X125682795Y-69290256D01*
X125715000Y-69338454D01*
X125715001Y-77356514D01*
X125715000Y-77356524D01*
X125715001Y-78506515D01*
X125715000Y-78506524D01*
X125715000Y-79256531D01*
X125710719Y-79300000D01*
X125715000Y-79343469D01*
X125715000Y-79343477D01*
X125722753Y-79422195D01*
X125727805Y-79473490D01*
X125778412Y-79640313D01*
X125860590Y-79794059D01*
X125943468Y-79895046D01*
X125943471Y-79895049D01*
X125971184Y-79928817D01*
X126004951Y-79956529D01*
X126693470Y-80645049D01*
X126721183Y-80678817D01*
X126754951Y-80706530D01*
X126754953Y-80706532D01*
X126808605Y-80750563D01*
X126855941Y-80789411D01*
X127009687Y-80871589D01*
X127176510Y-80922195D01*
X127306523Y-80935000D01*
X127306533Y-80935000D01*
X127349999Y-80939281D01*
X127393465Y-80935000D01*
X133859546Y-80935000D01*
X133907744Y-80967205D01*
X134096102Y-81045226D01*
X134290000Y-81083794D01*
X134290000Y-84666698D01*
X134280951Y-84655671D01*
X134254305Y-84633803D01*
X134150850Y-84530348D01*
X134128978Y-84503697D01*
X134022618Y-84416409D01*
X133901272Y-84351548D01*
X133769605Y-84311607D01*
X133666984Y-84301500D01*
X133666973Y-84301500D01*
X133632675Y-84298122D01*
X133598377Y-84301500D01*
X131423239Y-84301500D01*
X131388941Y-84298122D01*
X131354643Y-84301500D01*
X131354633Y-84301500D01*
X131252012Y-84311607D01*
X131120345Y-84351548D01*
X131120343Y-84351549D01*
X130998998Y-84416409D01*
X130919288Y-84481826D01*
X130919285Y-84481829D01*
X130892639Y-84503697D01*
X130870771Y-84530343D01*
X130649615Y-84751500D01*
X127493226Y-84751500D01*
X127489184Y-84750274D01*
X127350000Y-84736565D01*
X127264630Y-84744973D01*
X127239627Y-84740000D01*
X127060373Y-84740000D01*
X126884563Y-84774971D01*
X126718953Y-84843569D01*
X126569909Y-84943157D01*
X126443157Y-85069909D01*
X126349803Y-85209623D01*
X126346363Y-85206800D01*
X126223020Y-85140872D01*
X126089184Y-85100273D01*
X125984877Y-85090000D01*
X125984875Y-85090000D01*
X125950000Y-85086565D01*
X125915125Y-85090000D01*
X125475366Y-85090000D01*
X125331047Y-84993569D01*
X125165437Y-84924971D01*
X124989627Y-84890000D01*
X124810373Y-84890000D01*
X124671679Y-84917588D01*
X124526712Y-84772621D01*
X124504475Y-84745525D01*
X124396363Y-84656800D01*
X124390715Y-84653781D01*
X124280091Y-84543157D01*
X124131047Y-84443569D01*
X123965437Y-84374971D01*
X123789627Y-84340000D01*
X123610373Y-84340000D01*
X123434563Y-84374971D01*
X123268953Y-84443569D01*
X123119909Y-84543157D01*
X122993157Y-84669909D01*
X122893569Y-84818953D01*
X122824971Y-84984563D01*
X122790000Y-85160373D01*
X122790000Y-85339627D01*
X122824971Y-85515437D01*
X122893569Y-85681047D01*
X122993157Y-85830091D01*
X123119909Y-85956843D01*
X123268953Y-86056431D01*
X123434563Y-86125029D01*
X123540001Y-86146002D01*
X123540000Y-87565125D01*
X123536565Y-87600000D01*
X123540000Y-87634875D01*
X123540000Y-87634876D01*
X123550273Y-87739183D01*
X123590872Y-87873019D01*
X123656800Y-87996362D01*
X123745525Y-88104474D01*
X123772617Y-88126708D01*
X124023288Y-88377379D01*
X124045525Y-88404475D01*
X124153637Y-88493200D01*
X124276980Y-88559128D01*
X124410816Y-88599727D01*
X124515123Y-88610000D01*
X124515124Y-88610000D01*
X124549999Y-88613435D01*
X124584874Y-88610000D01*
X134065125Y-88610000D01*
X134100000Y-88613435D01*
X134134875Y-88610000D01*
X134134877Y-88610000D01*
X134239184Y-88599727D01*
X134290001Y-88584312D01*
X134290001Y-91140000D01*
X134084875Y-91140000D01*
X134050000Y-91136565D01*
X134015125Y-91140000D01*
X134015123Y-91140000D01*
X133910816Y-91150273D01*
X133776980Y-91190872D01*
X133653637Y-91256800D01*
X133545525Y-91345525D01*
X133523284Y-91372626D01*
X133382118Y-91513791D01*
X133355025Y-91536026D01*
X133266300Y-91644138D01*
X133200372Y-91767481D01*
X133159773Y-91901317D01*
X133151119Y-91989184D01*
X133146065Y-92040500D01*
X133149500Y-92075375D01*
X133149500Y-92174634D01*
X133053069Y-92318953D01*
X132984471Y-92484563D01*
X132973107Y-92541692D01*
X132885978Y-92550273D01*
X132752142Y-92590872D01*
X132628799Y-92656800D01*
X132520687Y-92745525D01*
X132498446Y-92772626D01*
X132374025Y-92897046D01*
X132346933Y-92919280D01*
X132258207Y-93027392D01*
X132192279Y-93150735D01*
X132177421Y-93199715D01*
X132144564Y-93232572D01*
X132044976Y-93381616D01*
X131976378Y-93547226D01*
X131941407Y-93723036D01*
X131941407Y-93902290D01*
X131976378Y-94078100D01*
X132044976Y-94243710D01*
X132144564Y-94392754D01*
X132271316Y-94519506D01*
X132420360Y-94619094D01*
X132585970Y-94687692D01*
X132761780Y-94722663D01*
X132941034Y-94722663D01*
X133116844Y-94687692D01*
X133282454Y-94619094D01*
X133422594Y-94525455D01*
X133468953Y-94556431D01*
X133634563Y-94625029D01*
X133810373Y-94660000D01*
X133989627Y-94660000D01*
X134163400Y-94625434D01*
X134163400Y-94763817D01*
X134159836Y-94800000D01*
X134163400Y-94836183D01*
X134163400Y-94836185D01*
X134174058Y-94944398D01*
X134216178Y-95083248D01*
X134249956Y-95146442D01*
X134284576Y-95211212D01*
X134349236Y-95290000D01*
X134376625Y-95323374D01*
X134404732Y-95346441D01*
X134653554Y-95595263D01*
X134676625Y-95623375D01*
X134788787Y-95715424D01*
X134916751Y-95783822D01*
X135055601Y-95825942D01*
X135163814Y-95836600D01*
X135163823Y-95836600D01*
X135199999Y-95840163D01*
X135236175Y-95836600D01*
X135463401Y-95836600D01*
X135463400Y-97964443D01*
X135393569Y-98068953D01*
X135324971Y-98234563D01*
X135290000Y-98410373D01*
X135290000Y-98589627D01*
X135324971Y-98765437D01*
X135393569Y-98931047D01*
X135493157Y-99080091D01*
X135501501Y-99088435D01*
X135501500Y-100665701D01*
X135498122Y-100700000D01*
X135501500Y-100734298D01*
X135501500Y-100734308D01*
X135511607Y-100836929D01*
X135551548Y-100968596D01*
X135551549Y-100968598D01*
X135616409Y-101089943D01*
X135681826Y-101169653D01*
X135681829Y-101169656D01*
X135703697Y-101196302D01*
X135730344Y-101218171D01*
X136031825Y-101519652D01*
X136053697Y-101546303D01*
X136160057Y-101633591D01*
X136281403Y-101698452D01*
X136413070Y-101738393D01*
X136515691Y-101748500D01*
X136515702Y-101748500D01*
X136550000Y-101751878D01*
X136584298Y-101748500D01*
X146515702Y-101748500D01*
X146550000Y-101751878D01*
X146584298Y-101748500D01*
X146584309Y-101748500D01*
X146686930Y-101738393D01*
X146818597Y-101698452D01*
X146939943Y-101633591D01*
X147046303Y-101546303D01*
X147068175Y-101519652D01*
X147269652Y-101318175D01*
X147296303Y-101296303D01*
X147383591Y-101189943D01*
X147448452Y-101068597D01*
X147488393Y-100936930D01*
X147498500Y-100834309D01*
X147498500Y-100834299D01*
X147501878Y-100800001D01*
X147498500Y-100765703D01*
X147498500Y-86484298D01*
X147501878Y-86450000D01*
X147498500Y-86415702D01*
X147498500Y-86415691D01*
X147488393Y-86313070D01*
X147448500Y-86181561D01*
X147448500Y-84184298D01*
X147451878Y-84150000D01*
X147448500Y-84115702D01*
X147448500Y-84115691D01*
X147438393Y-84013070D01*
X147398452Y-83881403D01*
X147356917Y-83803697D01*
X147333591Y-83760056D01*
X147268174Y-83680346D01*
X147268167Y-83680339D01*
X147246302Y-83653697D01*
X147219661Y-83631833D01*
X146798500Y-83210673D01*
X146798500Y-80688434D01*
X146806843Y-80680091D01*
X146906431Y-80531047D01*
X146975029Y-80365437D01*
X147010000Y-80189627D01*
X147010000Y-80010373D01*
X146975029Y-79834563D01*
X146906431Y-79668953D01*
X146806843Y-79519909D01*
X146680091Y-79393157D01*
X146531047Y-79293569D01*
X146365437Y-79224971D01*
X146189627Y-79190000D01*
X146010373Y-79190000D01*
X145834563Y-79224971D01*
X145668953Y-79293569D01*
X145519909Y-79393157D01*
X145393157Y-79519909D01*
X145293569Y-79668953D01*
X145224971Y-79834563D01*
X145190000Y-80010373D01*
X145190000Y-80189627D01*
X145224971Y-80365437D01*
X145293569Y-80531047D01*
X145393157Y-80680091D01*
X145401500Y-80688434D01*
X145401501Y-83465692D01*
X145398122Y-83500000D01*
X145401501Y-83534308D01*
X145401501Y-83534309D01*
X145408119Y-83601500D01*
X144518370Y-83601500D01*
X144518370Y-79986434D01*
X144526713Y-79978091D01*
X144626301Y-79829047D01*
X144694899Y-79663437D01*
X144729870Y-79487627D01*
X144729870Y-79308373D01*
X144694899Y-79132563D01*
X144626301Y-78966953D01*
X144526713Y-78817909D01*
X144399961Y-78691157D01*
X144250917Y-78591569D01*
X144085307Y-78522971D01*
X143909497Y-78488000D01*
X143730243Y-78488000D01*
X143554433Y-78522971D01*
X143388823Y-78591569D01*
X143239779Y-78691157D01*
X143113027Y-78817909D01*
X143013439Y-78966953D01*
X142944841Y-79132563D01*
X142909870Y-79308373D01*
X142909870Y-79487627D01*
X142944841Y-79663437D01*
X143013439Y-79829047D01*
X143113027Y-79978091D01*
X143121370Y-79986434D01*
X143121371Y-83935562D01*
X143117992Y-83969870D01*
X143121371Y-84004178D01*
X143121371Y-84004179D01*
X143131478Y-84106800D01*
X143148547Y-84163069D01*
X143171419Y-84238468D01*
X143215587Y-84321101D01*
X140081273Y-84349202D01*
X140040256Y-84321795D01*
X139851898Y-84243774D01*
X139651939Y-84204000D01*
X139448061Y-84204000D01*
X139248102Y-84243774D01*
X139059744Y-84321795D01*
X138890226Y-84435063D01*
X138746063Y-84579226D01*
X138632795Y-84748744D01*
X138554774Y-84937102D01*
X138515000Y-85137061D01*
X138515000Y-85340939D01*
X138554774Y-85540898D01*
X138632795Y-85729256D01*
X138746063Y-85898774D01*
X138890226Y-86042937D01*
X139059744Y-86156205D01*
X139248102Y-86234226D01*
X139448061Y-86274000D01*
X139651939Y-86274000D01*
X139851898Y-86234226D01*
X140040256Y-86156205D01*
X140095724Y-86119143D01*
X143554384Y-86088134D01*
X143555941Y-86089411D01*
X143709687Y-86171589D01*
X143876510Y-86222195D01*
X144006523Y-86235000D01*
X144006533Y-86235000D01*
X144049999Y-86239281D01*
X144093466Y-86235000D01*
X144934690Y-86235000D01*
X145060373Y-86260000D01*
X145239627Y-86260000D01*
X145415437Y-86225029D01*
X145551500Y-86168670D01*
X145551501Y-98061656D01*
X145484563Y-98074971D01*
X145318953Y-98143569D01*
X145169909Y-98243157D01*
X145043157Y-98369909D01*
X144943569Y-98518953D01*
X144874971Y-98684563D01*
X144840000Y-98860373D01*
X144840000Y-99039627D01*
X144874971Y-99215437D01*
X144943569Y-99381047D01*
X145043157Y-99530091D01*
X145114566Y-99601500D01*
X137798500Y-99601500D01*
X137798500Y-99277801D01*
X137960373Y-99310000D01*
X138139627Y-99310000D01*
X138315437Y-99275029D01*
X138481047Y-99206431D01*
X138550000Y-99160358D01*
X138618953Y-99206431D01*
X138784563Y-99275029D01*
X138960373Y-99310000D01*
X139139627Y-99310000D01*
X139315437Y-99275029D01*
X139481047Y-99206431D01*
X139630091Y-99106843D01*
X139756843Y-98980091D01*
X139856431Y-98831047D01*
X139925029Y-98665437D01*
X139935665Y-98611966D01*
X139943569Y-98631047D01*
X140043157Y-98780091D01*
X140169909Y-98906843D01*
X140318953Y-99006431D01*
X140484563Y-99075029D01*
X140660373Y-99110000D01*
X140839627Y-99110000D01*
X141015437Y-99075029D01*
X141181047Y-99006431D01*
X141330091Y-98906843D01*
X141456843Y-98780091D01*
X141556431Y-98631047D01*
X141625029Y-98465437D01*
X141660000Y-98289627D01*
X141660000Y-98110373D01*
X141625029Y-97934563D01*
X141556431Y-97768953D01*
X141456843Y-97619909D01*
X141330091Y-97493157D01*
X141181047Y-97393569D01*
X141015437Y-97324971D01*
X140839627Y-97290000D01*
X140660373Y-97290000D01*
X140484563Y-97324971D01*
X140318953Y-97393569D01*
X140169909Y-97493157D01*
X140043157Y-97619909D01*
X139943569Y-97768953D01*
X139874971Y-97934563D01*
X139864335Y-97988034D01*
X139856431Y-97968953D01*
X139786600Y-97864444D01*
X139786600Y-94000311D01*
X139790226Y-94003937D01*
X139959744Y-94117205D01*
X140148102Y-94195226D01*
X140348061Y-94235000D01*
X140551939Y-94235000D01*
X140751898Y-94195226D01*
X140940256Y-94117205D01*
X141109774Y-94003937D01*
X141253937Y-93859774D01*
X141367205Y-93690256D01*
X141445226Y-93501898D01*
X141485000Y-93301939D01*
X141485000Y-93098061D01*
X141445226Y-92898102D01*
X141367205Y-92709744D01*
X141253937Y-92540226D01*
X141109774Y-92396063D01*
X140940256Y-92282795D01*
X140896946Y-92264855D01*
X140990256Y-92226205D01*
X141159774Y-92112937D01*
X141303937Y-91968774D01*
X141417205Y-91799256D01*
X141495226Y-91610898D01*
X141535000Y-91410939D01*
X141535000Y-91207061D01*
X141495226Y-91007102D01*
X141417205Y-90818744D01*
X141303937Y-90649226D01*
X141159774Y-90505063D01*
X140990256Y-90391795D01*
X140801898Y-90313774D01*
X140601939Y-90274000D01*
X140398061Y-90274000D01*
X140198102Y-90313774D01*
X140009744Y-90391795D01*
X139840226Y-90505063D01*
X139696063Y-90649226D01*
X139582795Y-90818744D01*
X139504774Y-91007102D01*
X139465000Y-91207061D01*
X139465000Y-91410939D01*
X139504774Y-91610898D01*
X139582795Y-91799256D01*
X139696063Y-91968774D01*
X139840226Y-92112937D01*
X140009744Y-92226205D01*
X140053054Y-92244145D01*
X139959744Y-92282795D01*
X139790226Y-92396063D01*
X139646063Y-92540226D01*
X139532795Y-92709744D01*
X139454774Y-92898102D01*
X139443996Y-92952288D01*
X139196446Y-92704737D01*
X139173375Y-92676625D01*
X139061213Y-92584576D01*
X138933249Y-92516178D01*
X138794399Y-92474058D01*
X138686186Y-92463400D01*
X138686183Y-92463400D01*
X138650000Y-92459836D01*
X138613817Y-92463400D01*
X137885556Y-92463400D01*
X137781047Y-92393569D01*
X137615437Y-92324971D01*
X137439627Y-92290000D01*
X137260373Y-92290000D01*
X137084563Y-92324971D01*
X136932631Y-92387903D01*
X136923375Y-92376625D01*
X136811213Y-92284576D01*
X136683249Y-92216178D01*
X136544399Y-92174058D01*
X136507886Y-92170462D01*
X136500029Y-92130963D01*
X136431431Y-91965353D01*
X136331843Y-91816309D01*
X136205091Y-91689557D01*
X136056047Y-91589969D01*
X135890437Y-91521371D01*
X135714627Y-91486400D01*
X135710000Y-91486400D01*
X135710000Y-87038581D01*
X137969860Y-87038581D01*
X137969860Y-87217835D01*
X138004831Y-87393645D01*
X138073429Y-87559255D01*
X138173017Y-87708299D01*
X138299769Y-87835051D01*
X138448813Y-87934639D01*
X138614423Y-88003237D01*
X138790233Y-88038208D01*
X138969487Y-88038208D01*
X139145297Y-88003237D01*
X139310907Y-87934639D01*
X139459951Y-87835051D01*
X139586703Y-87708299D01*
X139686291Y-87559255D01*
X139754889Y-87393645D01*
X139789860Y-87217835D01*
X139789860Y-87038581D01*
X139754889Y-86862771D01*
X139686291Y-86697161D01*
X139586703Y-86548117D01*
X139459951Y-86421365D01*
X139310907Y-86321777D01*
X139145297Y-86253179D01*
X138969487Y-86218208D01*
X138790233Y-86218208D01*
X138614423Y-86253179D01*
X138448813Y-86321777D01*
X138299769Y-86421365D01*
X138173017Y-86548117D01*
X138073429Y-86697161D01*
X138004831Y-86862771D01*
X137969860Y-87038581D01*
X135710000Y-87038581D01*
X135710000Y-78094091D01*
X135844092Y-77960000D01*
X144765125Y-77960000D01*
X144800000Y-77963435D01*
X144834875Y-77960000D01*
X144834877Y-77960000D01*
X144939184Y-77949727D01*
X145073020Y-77909128D01*
X145196363Y-77843200D01*
X145304475Y-77754475D01*
X145326712Y-77727379D01*
X145677379Y-77376712D01*
X145704475Y-77354475D01*
X145781142Y-77261056D01*
X145793199Y-77246365D01*
X145822218Y-77192074D01*
X145859128Y-77123020D01*
X145899727Y-76989184D01*
X145910000Y-76884877D01*
X145910000Y-76884876D01*
X145913435Y-76850001D01*
X145910000Y-76815126D01*
X145910000Y-75935373D01*
X146215000Y-75935373D01*
X146215000Y-76114627D01*
X146249971Y-76290437D01*
X146318569Y-76456047D01*
X146418157Y-76605091D01*
X146544909Y-76731843D01*
X146693953Y-76831431D01*
X146859563Y-76900029D01*
X147035373Y-76935000D01*
X147214627Y-76935000D01*
X147390437Y-76900029D01*
X147556047Y-76831431D01*
X147605902Y-76798119D01*
X147605903Y-77502388D01*
X147349131Y-77759160D01*
X147321024Y-77782227D01*
X147297958Y-77810333D01*
X147297957Y-77810334D01*
X147229246Y-77894059D01*
X147228975Y-77894389D01*
X147160577Y-78022353D01*
X147118457Y-78161203D01*
X147112510Y-78221589D01*
X147104235Y-78305601D01*
X147107799Y-78341784D01*
X147107800Y-82258206D01*
X147104235Y-82294399D01*
X147114149Y-82395046D01*
X147118458Y-82438798D01*
X147132817Y-82486132D01*
X147160577Y-82577646D01*
X147221908Y-82692388D01*
X147228976Y-82705612D01*
X147321025Y-82817774D01*
X147349131Y-82840840D01*
X147917001Y-83408710D01*
X147917002Y-101722019D01*
X147915437Y-101721371D01*
X147739627Y-101686400D01*
X147560373Y-101686400D01*
X147384563Y-101721371D01*
X147218953Y-101789969D01*
X147069909Y-101889557D01*
X146943157Y-102016309D01*
X146843569Y-102165353D01*
X146774971Y-102330963D01*
X146740000Y-102506773D01*
X146740000Y-102686027D01*
X146774971Y-102861837D01*
X146843569Y-103027447D01*
X146943157Y-103176491D01*
X147069909Y-103303243D01*
X147218953Y-103402831D01*
X147384563Y-103471429D01*
X147560373Y-103506400D01*
X147739627Y-103506400D01*
X147915437Y-103471429D01*
X148081047Y-103402831D01*
X148185556Y-103333000D01*
X148267417Y-103333000D01*
X148303600Y-103336564D01*
X148339783Y-103333000D01*
X148339786Y-103333000D01*
X148447999Y-103322342D01*
X148586849Y-103280222D01*
X148714813Y-103211824D01*
X148826975Y-103119775D01*
X148850046Y-103091663D01*
X149148864Y-102792845D01*
X149176976Y-102769774D01*
X149269025Y-102657612D01*
X149337423Y-102529648D01*
X149379543Y-102390798D01*
X149390201Y-102282585D01*
X149390201Y-102282576D01*
X149393764Y-102246400D01*
X149390201Y-102210224D01*
X149390201Y-98953202D01*
X149531837Y-98925029D01*
X149697447Y-98856431D01*
X149846491Y-98756843D01*
X149973243Y-98630091D01*
X150009815Y-98575358D01*
X150183973Y-98610000D01*
X150363227Y-98610000D01*
X150539037Y-98575029D01*
X150704647Y-98506431D01*
X150853691Y-98406843D01*
X150980443Y-98280091D01*
X151080031Y-98131047D01*
X151148629Y-97965437D01*
X151183600Y-97789627D01*
X151183600Y-97686600D01*
X151263400Y-97686600D01*
X151263401Y-102513807D01*
X151259836Y-102550000D01*
X151269134Y-102644398D01*
X151274059Y-102694399D01*
X151289846Y-102746442D01*
X151316178Y-102833247D01*
X151384576Y-102961212D01*
X151433530Y-103020862D01*
X151476626Y-103073375D01*
X151504732Y-103096441D01*
X151953559Y-103545268D01*
X151976625Y-103573375D01*
X152088787Y-103665424D01*
X152216751Y-103733822D01*
X152310597Y-103762290D01*
X152355601Y-103775942D01*
X152500000Y-103790164D01*
X152536186Y-103786600D01*
X162763817Y-103786600D01*
X162800000Y-103790164D01*
X162836183Y-103786600D01*
X162836186Y-103786600D01*
X162944399Y-103775942D01*
X163083249Y-103733822D01*
X163211213Y-103665424D01*
X163323375Y-103573375D01*
X163346446Y-103545262D01*
X163545263Y-103346445D01*
X163573374Y-103323375D01*
X163665424Y-103211213D01*
X163733822Y-103083249D01*
X163775942Y-102944399D01*
X163786600Y-102836186D01*
X163786600Y-102836177D01*
X163790163Y-102800001D01*
X163787504Y-102773000D01*
X171615000Y-102773000D01*
X171615000Y-103123000D01*
X172723000Y-103123000D01*
X172723000Y-101831269D01*
X172977000Y-101831269D01*
X172977000Y-103123000D01*
X174085000Y-103123000D01*
X174085000Y-102773000D01*
X174036493Y-102534504D01*
X173942390Y-102310054D01*
X173806307Y-102108275D01*
X173633474Y-101936922D01*
X173538164Y-101873829D01*
X173655849Y-101902719D01*
X173923482Y-101914604D01*
X174188291Y-101874048D01*
X174440100Y-101782609D01*
X174547035Y-101725450D01*
X174609528Y-101489133D01*
X178090472Y-101489133D01*
X178152965Y-101725450D01*
X178395678Y-101838850D01*
X178655849Y-101902719D01*
X178923482Y-101914604D01*
X179153442Y-101879385D01*
X179066526Y-101936922D01*
X178893693Y-102108275D01*
X178757610Y-102310054D01*
X178663507Y-102534504D01*
X178615000Y-102773000D01*
X178615000Y-103123000D01*
X179723000Y-103123000D01*
X179723000Y-101831269D01*
X179977000Y-101831269D01*
X179977000Y-103123000D01*
X181085000Y-103123000D01*
X181085000Y-102773000D01*
X181036493Y-102534504D01*
X180942390Y-102310054D01*
X180806307Y-102108275D01*
X180633474Y-101936922D01*
X180433428Y-101804495D01*
X185515000Y-101804495D01*
X185515000Y-102195505D01*
X185591282Y-102579003D01*
X185740915Y-102940250D01*
X185958149Y-103265364D01*
X186234636Y-103541851D01*
X186559750Y-103759085D01*
X186920997Y-103908718D01*
X187304495Y-103985000D01*
X187695505Y-103985000D01*
X188079003Y-103908718D01*
X188440250Y-103759085D01*
X188765364Y-103541851D01*
X189041851Y-103265364D01*
X189259085Y-102940250D01*
X189408718Y-102579003D01*
X189485000Y-102195505D01*
X189485000Y-101804495D01*
X189408718Y-101420997D01*
X189259085Y-101059750D01*
X189041851Y-100734636D01*
X188765364Y-100458149D01*
X188440250Y-100240915D01*
X188079003Y-100091282D01*
X187695505Y-100015000D01*
X187304495Y-100015000D01*
X186920997Y-100091282D01*
X186559750Y-100240915D01*
X186234636Y-100458149D01*
X185958149Y-100734636D01*
X185740915Y-101059750D01*
X185591282Y-101420997D01*
X185515000Y-101804495D01*
X180433428Y-101804495D01*
X180430533Y-101802579D01*
X180205282Y-101710409D01*
X180167609Y-101706538D01*
X179977000Y-101831269D01*
X179723000Y-101831269D01*
X179549138Y-101717497D01*
X179609528Y-101489133D01*
X178850000Y-100729605D01*
X178090472Y-101489133D01*
X174609528Y-101489133D01*
X173850000Y-100729605D01*
X173090472Y-101489133D01*
X173150862Y-101717497D01*
X172977000Y-101831269D01*
X172723000Y-101831269D01*
X172532391Y-101706538D01*
X172494718Y-101710409D01*
X172269467Y-101802579D01*
X172066526Y-101936922D01*
X171893693Y-102108275D01*
X171757610Y-102310054D01*
X171663507Y-102534504D01*
X171615000Y-102773000D01*
X163787504Y-102773000D01*
X163786600Y-102763825D01*
X163786600Y-101610373D01*
X165940000Y-101610373D01*
X165940000Y-101789627D01*
X165974971Y-101965437D01*
X166043569Y-102131047D01*
X166143157Y-102280091D01*
X166269909Y-102406843D01*
X166418953Y-102506431D01*
X166584563Y-102575029D01*
X166760373Y-102610000D01*
X166939627Y-102610000D01*
X167115437Y-102575029D01*
X167281047Y-102506431D01*
X167430091Y-102406843D01*
X167556843Y-102280091D01*
X167656431Y-102131047D01*
X167725029Y-101965437D01*
X167760000Y-101789627D01*
X167760000Y-101610373D01*
X167725029Y-101434563D01*
X167656431Y-101268953D01*
X167556843Y-101119909D01*
X167430091Y-100993157D01*
X167281047Y-100893569D01*
X167115437Y-100824971D01*
X166939627Y-100790000D01*
X166760373Y-100790000D01*
X166584563Y-100824971D01*
X166418953Y-100893569D01*
X166269909Y-100993157D01*
X166143157Y-101119909D01*
X166043569Y-101268953D01*
X165974971Y-101434563D01*
X165940000Y-101610373D01*
X163786600Y-101610373D01*
X163786600Y-100623482D01*
X172485396Y-100623482D01*
X172525952Y-100888291D01*
X172617391Y-101140100D01*
X172674550Y-101247035D01*
X172910867Y-101309528D01*
X173670395Y-100550000D01*
X174029605Y-100550000D01*
X174789133Y-101309528D01*
X175025450Y-101247035D01*
X175138850Y-101004322D01*
X175202719Y-100744151D01*
X175214604Y-100476518D01*
X175174048Y-100211709D01*
X175082609Y-99959900D01*
X175025450Y-99852965D01*
X174789133Y-99790472D01*
X174029605Y-100550000D01*
X173670395Y-100550000D01*
X172910867Y-99790472D01*
X172674550Y-99852965D01*
X172561150Y-100095678D01*
X172497281Y-100355849D01*
X172485396Y-100623482D01*
X163786600Y-100623482D01*
X163786600Y-100485556D01*
X163856431Y-100381047D01*
X163925029Y-100215437D01*
X163960000Y-100039627D01*
X163960000Y-99935860D01*
X164031047Y-99906431D01*
X164180091Y-99806843D01*
X164306843Y-99680091D01*
X164353096Y-99610867D01*
X173090472Y-99610867D01*
X173850000Y-100370395D01*
X174609528Y-99610867D01*
X174547035Y-99374550D01*
X174304322Y-99261150D01*
X174044151Y-99197281D01*
X173776518Y-99185396D01*
X173511709Y-99225952D01*
X173259900Y-99317391D01*
X173152965Y-99374550D01*
X173090472Y-99610867D01*
X164353096Y-99610867D01*
X164406431Y-99531047D01*
X164475029Y-99365437D01*
X164510000Y-99189627D01*
X164510000Y-99010373D01*
X164475029Y-98834563D01*
X164406431Y-98668953D01*
X164306843Y-98519909D01*
X164180091Y-98393157D01*
X164031047Y-98293569D01*
X163865437Y-98224971D01*
X163689627Y-98190000D01*
X163510373Y-98190000D01*
X163334563Y-98224971D01*
X163168953Y-98293569D01*
X163064444Y-98363400D01*
X162836186Y-98363400D01*
X162800000Y-98359836D01*
X162763814Y-98363400D01*
X162655601Y-98374058D01*
X162516751Y-98416178D01*
X162388787Y-98484576D01*
X162276625Y-98576625D01*
X162253554Y-98604737D01*
X162051131Y-98807160D01*
X162023025Y-98830226D01*
X161999959Y-98858332D01*
X161999957Y-98858334D01*
X161930975Y-98942389D01*
X161862577Y-99070354D01*
X161851885Y-99105601D01*
X161831016Y-99174399D01*
X161820458Y-99209203D01*
X161806235Y-99353601D01*
X161809800Y-99389794D01*
X161809799Y-101763400D01*
X155517996Y-101763400D01*
X155606431Y-101631047D01*
X155675029Y-101465437D01*
X155710000Y-101289627D01*
X155710000Y-101110373D01*
X155675029Y-100934563D01*
X155606431Y-100768953D01*
X155506843Y-100619909D01*
X155380091Y-100493157D01*
X155231047Y-100393569D01*
X155065437Y-100324971D01*
X154889627Y-100290000D01*
X154710373Y-100290000D01*
X154534563Y-100324971D01*
X154368953Y-100393569D01*
X154219909Y-100493157D01*
X154093157Y-100619909D01*
X153993569Y-100768953D01*
X153924971Y-100934563D01*
X153892454Y-101098035D01*
X153806843Y-100969909D01*
X153680091Y-100843157D01*
X153531047Y-100743569D01*
X153365437Y-100674971D01*
X153189627Y-100640000D01*
X153186600Y-100640000D01*
X153186600Y-99310373D01*
X159490000Y-99310373D01*
X159490000Y-99489627D01*
X159524971Y-99665437D01*
X159593569Y-99831047D01*
X159693157Y-99980091D01*
X159819909Y-100106843D01*
X159968953Y-100206431D01*
X160134563Y-100275029D01*
X160310373Y-100310000D01*
X160489627Y-100310000D01*
X160665437Y-100275029D01*
X160831047Y-100206431D01*
X160980091Y-100106843D01*
X161106843Y-99980091D01*
X161206431Y-99831047D01*
X161275029Y-99665437D01*
X161310000Y-99489627D01*
X161310000Y-99310373D01*
X161275029Y-99134563D01*
X161206431Y-98968953D01*
X161106843Y-98819909D01*
X160980091Y-98693157D01*
X160831047Y-98593569D01*
X160665437Y-98524971D01*
X160489627Y-98490000D01*
X160310373Y-98490000D01*
X160134563Y-98524971D01*
X159968953Y-98593569D01*
X159819909Y-98693157D01*
X159693157Y-98819909D01*
X159593569Y-98968953D01*
X159524971Y-99134563D01*
X159490000Y-99310373D01*
X153186600Y-99310373D01*
X153186600Y-96586186D01*
X153190164Y-96550000D01*
X153175942Y-96405601D01*
X153157376Y-96344398D01*
X153133822Y-96266751D01*
X153065424Y-96138787D01*
X152973374Y-96026625D01*
X152945268Y-96003559D01*
X152646446Y-95704737D01*
X152623375Y-95676625D01*
X152511213Y-95584576D01*
X152383249Y-95516178D01*
X152244399Y-95474058D01*
X152136186Y-95463400D01*
X152136183Y-95463400D01*
X152100000Y-95459836D01*
X152063817Y-95463400D01*
X149735556Y-95463400D01*
X149631047Y-95393569D01*
X149465437Y-95324971D01*
X149390201Y-95310006D01*
X149390201Y-94660373D01*
X156940000Y-94660373D01*
X156940000Y-94839627D01*
X156974971Y-95015437D01*
X157043569Y-95181047D01*
X157143157Y-95330091D01*
X157269909Y-95456843D01*
X157418953Y-95556431D01*
X157584563Y-95625029D01*
X157760373Y-95660000D01*
X157939627Y-95660000D01*
X158115437Y-95625029D01*
X158281047Y-95556431D01*
X158430091Y-95456843D01*
X158556843Y-95330091D01*
X158656431Y-95181047D01*
X158725029Y-95015437D01*
X158760000Y-94839627D01*
X158760000Y-94660373D01*
X159690000Y-94660373D01*
X159690000Y-94839627D01*
X159724971Y-95015437D01*
X159793569Y-95181047D01*
X159893157Y-95330091D01*
X160019909Y-95456843D01*
X160168953Y-95556431D01*
X160334563Y-95625029D01*
X160510373Y-95660000D01*
X160689627Y-95660000D01*
X160865437Y-95625029D01*
X161031047Y-95556431D01*
X161180091Y-95456843D01*
X161306843Y-95330091D01*
X161406431Y-95181047D01*
X161475029Y-95015437D01*
X161510000Y-94839627D01*
X161510000Y-94710373D01*
X165290000Y-94710373D01*
X165290000Y-94889627D01*
X165324971Y-95065437D01*
X165393569Y-95231047D01*
X165493157Y-95380091D01*
X165619909Y-95506843D01*
X165768953Y-95606431D01*
X165934563Y-95675029D01*
X166110373Y-95710000D01*
X166289627Y-95710000D01*
X166465437Y-95675029D01*
X166631047Y-95606431D01*
X166780091Y-95506843D01*
X166906843Y-95380091D01*
X167006431Y-95231047D01*
X167075029Y-95065437D01*
X167110000Y-94889627D01*
X167110000Y-94710373D01*
X167075029Y-94534563D01*
X167006431Y-94368953D01*
X166906843Y-94219909D01*
X166780091Y-94093157D01*
X166631047Y-93993569D01*
X166465437Y-93924971D01*
X166289627Y-93890000D01*
X166110373Y-93890000D01*
X165934563Y-93924971D01*
X165768953Y-93993569D01*
X165619909Y-94093157D01*
X165493157Y-94219909D01*
X165393569Y-94368953D01*
X165324971Y-94534563D01*
X165290000Y-94710373D01*
X161510000Y-94710373D01*
X161510000Y-94660373D01*
X161475029Y-94484563D01*
X161406431Y-94318953D01*
X161306843Y-94169909D01*
X161180091Y-94043157D01*
X161031047Y-93943569D01*
X160865437Y-93874971D01*
X160689627Y-93840000D01*
X160510373Y-93840000D01*
X160334563Y-93874971D01*
X160168953Y-93943569D01*
X160019909Y-94043157D01*
X159893157Y-94169909D01*
X159793569Y-94318953D01*
X159724971Y-94484563D01*
X159690000Y-94660373D01*
X158760000Y-94660373D01*
X158725029Y-94484563D01*
X158656431Y-94318953D01*
X158556843Y-94169909D01*
X158430091Y-94043157D01*
X158281047Y-93943569D01*
X158115437Y-93874971D01*
X157939627Y-93840000D01*
X157760373Y-93840000D01*
X157584563Y-93874971D01*
X157418953Y-93943569D01*
X157269909Y-94043157D01*
X157143157Y-94169909D01*
X157043569Y-94318953D01*
X156974971Y-94484563D01*
X156940000Y-94660373D01*
X149390201Y-94660373D01*
X149390201Y-92013973D01*
X158140000Y-92013973D01*
X158140000Y-92193227D01*
X158174971Y-92369037D01*
X158243569Y-92534647D01*
X158343157Y-92683691D01*
X158469909Y-92810443D01*
X158618953Y-92910031D01*
X158784563Y-92978629D01*
X158923132Y-93006192D01*
X158924971Y-93015437D01*
X158993569Y-93181047D01*
X159093157Y-93330091D01*
X159219909Y-93456843D01*
X159368953Y-93556431D01*
X159534563Y-93625029D01*
X159710373Y-93660000D01*
X159889627Y-93660000D01*
X160065437Y-93625029D01*
X160231047Y-93556431D01*
X160380091Y-93456843D01*
X160506843Y-93330091D01*
X160606431Y-93181047D01*
X160675029Y-93015437D01*
X160710000Y-92839627D01*
X160710000Y-92660373D01*
X160675029Y-92484563D01*
X160606431Y-92318953D01*
X160506843Y-92169909D01*
X160380091Y-92043157D01*
X160231047Y-91943569D01*
X160065437Y-91874971D01*
X159926868Y-91847408D01*
X159925029Y-91838163D01*
X159856431Y-91672553D01*
X159756843Y-91523509D01*
X159630091Y-91396757D01*
X159481047Y-91297169D01*
X159315437Y-91228571D01*
X159139627Y-91193600D01*
X158960373Y-91193600D01*
X158784563Y-91228571D01*
X158618953Y-91297169D01*
X158469909Y-91396757D01*
X158343157Y-91523509D01*
X158243569Y-91672553D01*
X158174971Y-91838163D01*
X158140000Y-92013973D01*
X149390201Y-92013973D01*
X149390201Y-83330845D01*
X149526510Y-83372195D01*
X149656523Y-83385000D01*
X149656533Y-83385000D01*
X149699999Y-83389281D01*
X149743465Y-83385000D01*
X158256531Y-83385000D01*
X158300000Y-83389281D01*
X158343469Y-83385000D01*
X158343477Y-83385000D01*
X158473490Y-83372195D01*
X158640313Y-83321589D01*
X158794059Y-83239411D01*
X158928817Y-83128817D01*
X158956534Y-83095044D01*
X159495049Y-82556530D01*
X159528817Y-82528817D01*
X159639411Y-82394059D01*
X159721589Y-82240313D01*
X159772195Y-82073490D01*
X159785000Y-81943477D01*
X159785000Y-81943467D01*
X159789281Y-81900001D01*
X159785000Y-81856535D01*
X159785000Y-80565310D01*
X159810000Y-80439627D01*
X159810000Y-80260373D01*
X159775029Y-80084563D01*
X159706431Y-79918953D01*
X159606843Y-79769909D01*
X159480091Y-79643157D01*
X159331047Y-79543569D01*
X159165437Y-79474971D01*
X158989627Y-79440000D01*
X158810373Y-79440000D01*
X158634563Y-79474971D01*
X158468953Y-79543569D01*
X158319909Y-79643157D01*
X158193157Y-79769909D01*
X158093569Y-79918953D01*
X158024971Y-80084563D01*
X157990000Y-80260373D01*
X157990000Y-80439627D01*
X158015000Y-80565311D01*
X158015001Y-81533421D01*
X157933422Y-81615000D01*
X152987934Y-81615000D01*
X153006843Y-81596091D01*
X153106431Y-81447047D01*
X153175029Y-81281437D01*
X153210000Y-81105627D01*
X153210000Y-80926373D01*
X153175029Y-80750563D01*
X153106431Y-80584953D01*
X153006843Y-80435909D01*
X152880091Y-80309157D01*
X152731047Y-80209569D01*
X152565437Y-80140971D01*
X152389627Y-80106000D01*
X152210373Y-80106000D01*
X152034563Y-80140971D01*
X151868953Y-80209569D01*
X151719909Y-80309157D01*
X151593157Y-80435909D01*
X151493569Y-80584953D01*
X151424971Y-80750563D01*
X151390000Y-80926373D01*
X151390000Y-81105627D01*
X151424971Y-81281437D01*
X151493569Y-81447047D01*
X151593157Y-81596091D01*
X151612066Y-81615000D01*
X150066579Y-81615000D01*
X149885000Y-81433422D01*
X149885000Y-81115310D01*
X149910000Y-80989627D01*
X149910000Y-80810373D01*
X149885000Y-80684690D01*
X149885000Y-78560373D01*
X155190000Y-78560373D01*
X155190000Y-78739627D01*
X155224971Y-78915437D01*
X155293569Y-79081047D01*
X155393157Y-79230091D01*
X155519909Y-79356843D01*
X155668953Y-79456431D01*
X155834563Y-79525029D01*
X156010373Y-79560000D01*
X156189627Y-79560000D01*
X156365437Y-79525029D01*
X156531047Y-79456431D01*
X156680091Y-79356843D01*
X156806843Y-79230091D01*
X156906431Y-79081047D01*
X156975029Y-78915437D01*
X157010000Y-78739627D01*
X157010000Y-78560373D01*
X156975029Y-78384563D01*
X156906431Y-78218953D01*
X156806843Y-78069909D01*
X156680091Y-77943157D01*
X156531047Y-77843569D01*
X156365437Y-77774971D01*
X156189627Y-77740000D01*
X156010373Y-77740000D01*
X155834563Y-77774971D01*
X155668953Y-77843569D01*
X155519909Y-77943157D01*
X155393157Y-78069909D01*
X155293569Y-78218953D01*
X155224971Y-78384563D01*
X155190000Y-78560373D01*
X149885000Y-78560373D01*
X149885000Y-77098560D01*
X149905841Y-76993786D01*
X149905841Y-76814532D01*
X149870870Y-76638722D01*
X149802272Y-76473112D01*
X149702684Y-76324068D01*
X149575932Y-76197316D01*
X149527501Y-76164955D01*
X149527501Y-76060373D01*
X149492530Y-75884563D01*
X149423932Y-75718953D01*
X149324344Y-75569909D01*
X149197592Y-75443157D01*
X149048548Y-75343569D01*
X148882938Y-75274971D01*
X148707128Y-75240000D01*
X148527874Y-75240000D01*
X148352064Y-75274971D01*
X148186454Y-75343569D01*
X148037410Y-75443157D01*
X147913480Y-75567087D01*
X147831843Y-75444909D01*
X147705091Y-75318157D01*
X147556047Y-75218569D01*
X147390437Y-75149971D01*
X147214627Y-75115000D01*
X147035373Y-75115000D01*
X146859563Y-75149971D01*
X146693953Y-75218569D01*
X146544909Y-75318157D01*
X146418157Y-75444909D01*
X146318569Y-75593953D01*
X146249971Y-75759563D01*
X146215000Y-75935373D01*
X145910000Y-75935373D01*
X145910000Y-74725366D01*
X145953426Y-74660373D01*
X150990000Y-74660373D01*
X150990000Y-74839627D01*
X151024971Y-75015437D01*
X151093569Y-75181047D01*
X151193157Y-75330091D01*
X151319909Y-75456843D01*
X151468953Y-75556431D01*
X151634563Y-75625029D01*
X151810373Y-75660000D01*
X151989627Y-75660000D01*
X152165437Y-75625029D01*
X152331047Y-75556431D01*
X152480091Y-75456843D01*
X152606843Y-75330091D01*
X152706431Y-75181047D01*
X152775029Y-75015437D01*
X152810000Y-74839627D01*
X152810000Y-74660373D01*
X152775029Y-74484563D01*
X152706431Y-74318953D01*
X152606843Y-74169909D01*
X152480091Y-74043157D01*
X152331047Y-73943569D01*
X152165437Y-73874971D01*
X151989627Y-73840000D01*
X151810373Y-73840000D01*
X151634563Y-73874971D01*
X151468953Y-73943569D01*
X151319909Y-74043157D01*
X151193157Y-74169909D01*
X151093569Y-74318953D01*
X151024971Y-74484563D01*
X150990000Y-74660373D01*
X145953426Y-74660373D01*
X146006431Y-74581047D01*
X146075029Y-74415437D01*
X146110000Y-74239627D01*
X146110000Y-74060373D01*
X146075029Y-73884563D01*
X146006431Y-73718953D01*
X145906843Y-73569909D01*
X145780091Y-73443157D01*
X145631047Y-73343569D01*
X145465437Y-73274971D01*
X145289627Y-73240000D01*
X145110373Y-73240000D01*
X144934563Y-73274971D01*
X144768953Y-73343569D01*
X144619909Y-73443157D01*
X144493157Y-73569909D01*
X144393569Y-73718953D01*
X144324971Y-73884563D01*
X144290000Y-74060373D01*
X144290000Y-74239627D01*
X144324971Y-74415437D01*
X144393569Y-74581047D01*
X144490000Y-74725367D01*
X144490001Y-76540000D01*
X135584874Y-76540000D01*
X135549999Y-76536565D01*
X135515124Y-76540000D01*
X135515123Y-76540000D01*
X135410816Y-76550273D01*
X135276980Y-76590872D01*
X135187459Y-76638722D01*
X135153635Y-76656801D01*
X135090950Y-76708246D01*
X135045525Y-76745525D01*
X135023292Y-76772616D01*
X134522617Y-77273292D01*
X134495525Y-77295526D01*
X134406800Y-77403638D01*
X134340872Y-77526981D01*
X134300273Y-77660817D01*
X134292444Y-77740313D01*
X134290613Y-77758905D01*
X134275029Y-77680561D01*
X134206431Y-77514951D01*
X134106843Y-77365907D01*
X133980091Y-77239155D01*
X133831047Y-77139567D01*
X133665437Y-77070969D01*
X133489627Y-77035998D01*
X133310373Y-77035998D01*
X133134563Y-77070969D01*
X132968953Y-77139567D01*
X132819909Y-77239155D01*
X132693157Y-77365907D01*
X132593569Y-77514951D01*
X132524971Y-77680561D01*
X132490000Y-77856371D01*
X132490000Y-78035625D01*
X132524971Y-78211435D01*
X132593569Y-78377045D01*
X132693157Y-78526089D01*
X132819909Y-78652841D01*
X132968953Y-78752429D01*
X133134563Y-78821027D01*
X133310373Y-78855998D01*
X133489627Y-78855998D01*
X133665437Y-78821027D01*
X133831047Y-78752429D01*
X133980091Y-78652841D01*
X134106843Y-78526089D01*
X134206431Y-78377045D01*
X134275029Y-78211435D01*
X134290000Y-78136171D01*
X134290000Y-79016206D01*
X134096102Y-79054774D01*
X133907744Y-79132795D01*
X133859546Y-79165000D01*
X127716579Y-79165000D01*
X127485000Y-78933422D01*
X127485000Y-74248061D01*
X138565000Y-74248061D01*
X138565000Y-74451939D01*
X138604774Y-74651898D01*
X138682795Y-74840256D01*
X138796063Y-75009774D01*
X138940226Y-75153937D01*
X139109744Y-75267205D01*
X139298102Y-75345226D01*
X139498061Y-75385000D01*
X139701939Y-75385000D01*
X139901898Y-75345226D01*
X140090256Y-75267205D01*
X140259774Y-75153937D01*
X140403937Y-75009774D01*
X140517205Y-74840256D01*
X140595226Y-74651898D01*
X140635000Y-74451939D01*
X140635000Y-74248061D01*
X140595226Y-74048102D01*
X140517466Y-73860373D01*
X142390000Y-73860373D01*
X142390000Y-74039627D01*
X142424971Y-74215437D01*
X142493569Y-74381047D01*
X142593157Y-74530091D01*
X142719909Y-74656843D01*
X142868953Y-74756431D01*
X143034563Y-74825029D01*
X143210373Y-74860000D01*
X143389627Y-74860000D01*
X143565437Y-74825029D01*
X143731047Y-74756431D01*
X143880091Y-74656843D01*
X144006843Y-74530091D01*
X144106431Y-74381047D01*
X144175029Y-74215437D01*
X144210000Y-74039627D01*
X144210000Y-73860373D01*
X144175029Y-73684563D01*
X144166965Y-73665096D01*
X144203621Y-73610237D01*
X144272219Y-73444627D01*
X144307190Y-73268817D01*
X144307190Y-73089563D01*
X144272219Y-72913753D01*
X144203621Y-72748143D01*
X144104033Y-72599099D01*
X143977281Y-72472347D01*
X143828237Y-72372759D01*
X143662627Y-72304161D01*
X143486817Y-72269190D01*
X143307563Y-72269190D01*
X143131753Y-72304161D01*
X142966143Y-72372759D01*
X142817099Y-72472347D01*
X142690347Y-72599099D01*
X142590759Y-72748143D01*
X142522161Y-72913753D01*
X142487190Y-73089563D01*
X142487190Y-73268817D01*
X142522161Y-73444627D01*
X142530225Y-73464094D01*
X142493569Y-73518953D01*
X142424971Y-73684563D01*
X142390000Y-73860373D01*
X140517466Y-73860373D01*
X140517205Y-73859744D01*
X140403937Y-73690226D01*
X140259774Y-73546063D01*
X140090256Y-73432795D01*
X139901898Y-73354774D01*
X139701939Y-73315000D01*
X139498061Y-73315000D01*
X139298102Y-73354774D01*
X139109744Y-73432795D01*
X138940226Y-73546063D01*
X138796063Y-73690226D01*
X138682795Y-73859744D01*
X138604774Y-74048102D01*
X138565000Y-74248061D01*
X127485000Y-74248061D01*
X127485000Y-69338454D01*
X127517205Y-69290256D01*
X127595226Y-69101898D01*
X127635000Y-68901939D01*
X127635000Y-68698061D01*
X127632004Y-68682999D01*
X135118519Y-68682999D01*
X135124971Y-68715437D01*
X135193569Y-68881047D01*
X135293157Y-69030091D01*
X135419909Y-69156843D01*
X135568953Y-69256431D01*
X135734563Y-69325029D01*
X135910373Y-69360000D01*
X136089627Y-69360000D01*
X136140001Y-69349980D01*
X136140000Y-70915125D01*
X136136565Y-70950000D01*
X136140000Y-70984875D01*
X136140000Y-70984876D01*
X136150273Y-71089183D01*
X136190872Y-71223019D01*
X136256800Y-71346362D01*
X136345525Y-71454474D01*
X136372618Y-71476709D01*
X136523284Y-71627374D01*
X136545525Y-71654475D01*
X136653637Y-71743200D01*
X136776980Y-71809128D01*
X136910816Y-71849727D01*
X137015123Y-71860000D01*
X137015125Y-71860000D01*
X137050000Y-71863435D01*
X137084875Y-71860000D01*
X145615125Y-71860000D01*
X145650000Y-71863435D01*
X145684875Y-71860000D01*
X145684877Y-71860000D01*
X145789184Y-71849727D01*
X145923020Y-71809128D01*
X146046363Y-71743200D01*
X146154475Y-71654475D01*
X146176713Y-71627378D01*
X146327374Y-71476716D01*
X146354475Y-71454475D01*
X146443200Y-71346363D01*
X146503632Y-71233302D01*
X146556843Y-71180091D01*
X146656431Y-71031047D01*
X146725029Y-70865437D01*
X146760000Y-70689627D01*
X146760000Y-70510373D01*
X146725029Y-70334563D01*
X146656431Y-70168953D01*
X146556843Y-70019909D01*
X146430091Y-69893157D01*
X146281047Y-69793569D01*
X146115437Y-69724971D01*
X145939627Y-69690000D01*
X145760373Y-69690000D01*
X145584563Y-69724971D01*
X145575173Y-69728861D01*
X145467994Y-69684466D01*
X145515437Y-69675029D01*
X145681047Y-69606431D01*
X145830091Y-69506843D01*
X145956843Y-69380091D01*
X146056431Y-69231047D01*
X146125029Y-69065437D01*
X146160000Y-68889627D01*
X146160000Y-68710373D01*
X146125029Y-68534563D01*
X146056431Y-68368953D01*
X145956843Y-68219909D01*
X145830091Y-68093157D01*
X145681047Y-67993569D01*
X145515437Y-67924971D01*
X145387312Y-67899485D01*
X145368175Y-67880348D01*
X145346303Y-67853697D01*
X145239943Y-67766409D01*
X145118597Y-67701548D01*
X144986930Y-67661607D01*
X144884309Y-67651500D01*
X144884298Y-67651500D01*
X144850000Y-67648122D01*
X144815702Y-67651500D01*
X143209356Y-67651500D01*
X143256431Y-67581047D01*
X143325029Y-67415437D01*
X143360000Y-67239627D01*
X143360000Y-67060373D01*
X143325029Y-66884563D01*
X143256431Y-66718953D01*
X143156843Y-66569909D01*
X143030091Y-66443157D01*
X143017883Y-66435000D01*
X144508175Y-66435000D01*
X144524971Y-66519437D01*
X144593569Y-66685047D01*
X144693157Y-66834091D01*
X144819909Y-66960843D01*
X144968953Y-67060431D01*
X145134563Y-67129029D01*
X145310373Y-67164000D01*
X145489627Y-67164000D01*
X145665437Y-67129029D01*
X145831047Y-67060431D01*
X145980091Y-66960843D01*
X146106843Y-66834091D01*
X146206431Y-66685047D01*
X146275029Y-66519437D01*
X146310000Y-66343627D01*
X146310000Y-66164373D01*
X146285000Y-66038690D01*
X146285000Y-65908557D01*
X146289281Y-65865091D01*
X146285000Y-65821625D01*
X146285000Y-65821615D01*
X146272195Y-65691602D01*
X146221589Y-65524779D01*
X146139411Y-65371033D01*
X146028817Y-65236275D01*
X145995045Y-65208559D01*
X145741442Y-64954956D01*
X145713725Y-64921183D01*
X145578967Y-64810589D01*
X145425221Y-64728411D01*
X145258398Y-64677805D01*
X145128385Y-64665000D01*
X145128377Y-64665000D01*
X145084908Y-64660719D01*
X145041439Y-64665000D01*
X140143469Y-64665000D01*
X140100000Y-64660719D01*
X140056531Y-64665000D01*
X140056523Y-64665000D01*
X139926510Y-64677805D01*
X139759687Y-64728411D01*
X139605941Y-64810589D01*
X139471183Y-64921183D01*
X139443466Y-64954956D01*
X139004952Y-65393470D01*
X138971184Y-65421183D01*
X138943471Y-65454951D01*
X138943468Y-65454954D01*
X138860590Y-65555941D01*
X138778412Y-65709687D01*
X138727805Y-65876510D01*
X138710719Y-66050000D01*
X138715001Y-66093478D01*
X138715000Y-66912999D01*
X132785460Y-66912999D01*
X132810000Y-66789627D01*
X132810000Y-66610373D01*
X132775029Y-66434563D01*
X132706431Y-66268953D01*
X132606843Y-66119909D01*
X132480091Y-65993157D01*
X132331047Y-65893569D01*
X132165437Y-65824971D01*
X131989627Y-65790000D01*
X131810373Y-65790000D01*
X131634563Y-65824971D01*
X131468953Y-65893569D01*
X131319909Y-65993157D01*
X131193157Y-66119909D01*
X131093569Y-66268953D01*
X131024971Y-66434563D01*
X130990000Y-66610373D01*
X130990000Y-66789627D01*
X131014540Y-66912999D01*
X117885000Y-66912999D01*
X117885000Y-66393465D01*
X117889281Y-66349999D01*
X117885000Y-66306533D01*
X117885000Y-66306523D01*
X117872195Y-66176510D01*
X117821589Y-66009687D01*
X117739411Y-65855941D01*
X117628817Y-65721183D01*
X117595045Y-65693467D01*
X117206534Y-65304956D01*
X117178817Y-65271183D01*
X117044059Y-65160589D01*
X116890313Y-65078411D01*
X116860000Y-65069216D01*
X116860000Y-65010373D01*
X116825029Y-64834563D01*
X116756431Y-64668953D01*
X116686600Y-64564444D01*
X116686600Y-60382999D01*
X121968519Y-60382999D01*
X121974971Y-60415437D01*
X122043569Y-60581047D01*
X122143157Y-60730091D01*
X122269909Y-60856843D01*
X122418953Y-60956431D01*
X122584563Y-61025029D01*
X122744508Y-61056844D01*
X122841750Y-61108821D01*
X122980600Y-61150941D01*
X123088813Y-61161599D01*
X123088822Y-61161599D01*
X123124998Y-61165162D01*
X123161174Y-61161599D01*
X129338818Y-61161599D01*
X129375001Y-61165163D01*
X129411184Y-61161599D01*
X129411187Y-61161599D01*
X129519400Y-61150941D01*
X129658250Y-61108821D01*
X129786214Y-61040423D01*
X129898376Y-60948374D01*
X129921447Y-60920262D01*
X130245268Y-60596441D01*
X130273374Y-60573375D01*
X130365424Y-60461213D01*
X130433822Y-60333249D01*
X130475942Y-60194399D01*
X130486600Y-60086186D01*
X130486600Y-60086185D01*
X130490164Y-60050000D01*
X130486600Y-60013814D01*
X130486600Y-56182999D01*
X160596330Y-56182999D01*
X160574971Y-56234563D01*
X160540000Y-56410373D01*
X160540000Y-56589627D01*
X160574971Y-56765437D01*
X160643569Y-56931047D01*
X160743157Y-57080091D01*
X160869909Y-57206843D01*
X161018953Y-57306431D01*
X161184563Y-57375029D01*
X161360373Y-57410000D01*
X161539627Y-57410000D01*
X161715437Y-57375029D01*
X161881047Y-57306431D01*
X162030091Y-57206843D01*
X162156843Y-57080091D01*
X162256431Y-56931047D01*
X162325029Y-56765437D01*
X162360000Y-56589627D01*
X162360000Y-56410373D01*
X162325029Y-56234563D01*
X162303670Y-56182999D01*
X166207411Y-56182999D01*
X166116569Y-56318953D01*
X166047971Y-56484563D01*
X166013000Y-56660373D01*
X166013000Y-56839627D01*
X166047971Y-57015437D01*
X166116569Y-57181047D01*
X166216157Y-57330091D01*
X166342909Y-57456843D01*
X166460843Y-57535644D01*
X166536196Y-57610997D01*
X166547163Y-57624361D01*
X166540000Y-57660373D01*
X166540000Y-57839627D01*
X166574971Y-58015437D01*
X166595501Y-58065000D01*
X136563121Y-58065000D01*
X136531047Y-58043569D01*
X136365437Y-57974971D01*
X136189627Y-57940000D01*
X136010373Y-57940000D01*
X135834563Y-57974971D01*
X135668953Y-58043569D01*
X135519909Y-58143157D01*
X135393157Y-58269909D01*
X135293569Y-58418953D01*
X135224971Y-58584563D01*
X135190000Y-58760373D01*
X135190000Y-58939627D01*
X135224971Y-59115437D01*
X135293569Y-59281047D01*
X135393157Y-59430091D01*
X135519909Y-59556843D01*
X135651744Y-59644932D01*
X135705941Y-59689411D01*
X135859687Y-59771589D01*
X136026510Y-59822195D01*
X136156523Y-59835000D01*
X136156533Y-59835000D01*
X136199999Y-59839281D01*
X136243465Y-59835000D01*
X137015272Y-59835000D01*
X136971183Y-59871183D01*
X136943466Y-59904956D01*
X136554956Y-60293466D01*
X136521183Y-60321183D01*
X136410589Y-60455942D01*
X136328411Y-60609688D01*
X136299213Y-60705940D01*
X136277978Y-60775942D01*
X136277805Y-60776511D01*
X136265000Y-60906524D01*
X136265000Y-60906531D01*
X136260719Y-60950000D01*
X136265000Y-60993469D01*
X136265000Y-61634690D01*
X136240000Y-61760373D01*
X136240000Y-61917001D01*
X134385000Y-61917001D01*
X134385000Y-58865310D01*
X134410000Y-58739627D01*
X134410000Y-58560373D01*
X134375029Y-58384563D01*
X134306431Y-58218953D01*
X134206843Y-58069909D01*
X134080091Y-57943157D01*
X133931047Y-57843569D01*
X133765437Y-57774971D01*
X133589627Y-57740000D01*
X133410373Y-57740000D01*
X133234563Y-57774971D01*
X133068953Y-57843569D01*
X132919909Y-57943157D01*
X132793157Y-58069909D01*
X132693569Y-58218953D01*
X132624971Y-58384563D01*
X132590000Y-58560373D01*
X132590000Y-58739627D01*
X132615000Y-58865310D01*
X132615001Y-62306521D01*
X132610719Y-62350000D01*
X132627805Y-62523490D01*
X132678412Y-62690313D01*
X132760590Y-62844059D01*
X132843468Y-62945046D01*
X132843471Y-62945049D01*
X132871184Y-62978817D01*
X132904952Y-63006530D01*
X133295467Y-63397045D01*
X133323184Y-63430818D01*
X133457942Y-63541412D01*
X133611688Y-63623590D01*
X133727904Y-63658844D01*
X133778510Y-63674196D01*
X133793307Y-63675653D01*
X133908524Y-63687001D01*
X133908532Y-63687001D01*
X133952001Y-63691282D01*
X133995470Y-63687001D01*
X148685423Y-63687001D01*
X148915001Y-63916580D01*
X148915000Y-67884690D01*
X148890000Y-68010373D01*
X148890000Y-68189627D01*
X148924971Y-68365437D01*
X148993569Y-68531047D01*
X149093157Y-68680091D01*
X149219909Y-68806843D01*
X149368953Y-68906431D01*
X149534563Y-68975029D01*
X149710373Y-69010000D01*
X149889627Y-69010000D01*
X150065437Y-68975029D01*
X150201983Y-68918470D01*
X150243157Y-68980091D01*
X150369909Y-69106843D01*
X150518953Y-69206431D01*
X150684563Y-69275029D01*
X150860373Y-69310000D01*
X151039627Y-69310000D01*
X151215437Y-69275029D01*
X151381047Y-69206431D01*
X151530091Y-69106843D01*
X151656843Y-68980091D01*
X151756431Y-68831047D01*
X151825029Y-68665437D01*
X151860000Y-68489627D01*
X151860000Y-68310373D01*
X151835000Y-68184690D01*
X151835000Y-61243465D01*
X151839281Y-61199999D01*
X151835000Y-61156533D01*
X151835000Y-61156523D01*
X151822195Y-61026510D01*
X151771589Y-60859687D01*
X151689411Y-60705941D01*
X151578817Y-60571183D01*
X151545049Y-60543470D01*
X150906534Y-59904956D01*
X150878817Y-59871183D01*
X150834728Y-59835000D01*
X170333422Y-59835000D01*
X170515001Y-60016580D01*
X170515000Y-96506531D01*
X170510719Y-96550000D01*
X170515000Y-96593469D01*
X170515000Y-96593476D01*
X170519048Y-96634576D01*
X170527805Y-96723490D01*
X170536111Y-96750871D01*
X170578411Y-96890312D01*
X170644202Y-97013400D01*
X165985556Y-97013400D01*
X165881047Y-96943569D01*
X165715437Y-96874971D01*
X165539627Y-96840000D01*
X165360373Y-96840000D01*
X165184563Y-96874971D01*
X165018953Y-96943569D01*
X164869909Y-97043157D01*
X164743157Y-97169909D01*
X164643569Y-97318953D01*
X164574971Y-97484563D01*
X164540000Y-97660373D01*
X164540000Y-97839627D01*
X164574971Y-98015437D01*
X164643569Y-98181047D01*
X164743157Y-98330091D01*
X164869909Y-98456843D01*
X165018953Y-98556431D01*
X165184563Y-98625029D01*
X165360373Y-98660000D01*
X165539627Y-98660000D01*
X165715437Y-98625029D01*
X165881047Y-98556431D01*
X165985556Y-98486600D01*
X175913400Y-98486600D01*
X175913400Y-98913817D01*
X175909836Y-98950000D01*
X175913400Y-98986183D01*
X175913400Y-98986186D01*
X175924058Y-99094399D01*
X175952946Y-99189627D01*
X175966178Y-99233247D01*
X176034576Y-99361212D01*
X176100231Y-99441212D01*
X176126626Y-99473375D01*
X176154732Y-99496441D01*
X176403554Y-99745263D01*
X176426625Y-99773375D01*
X176538787Y-99865424D01*
X176666751Y-99933822D01*
X176805601Y-99975942D01*
X176913814Y-99986600D01*
X176913823Y-99986600D01*
X176949999Y-99990163D01*
X176986175Y-99986600D01*
X177612113Y-99986600D01*
X177561150Y-100095678D01*
X177497281Y-100355849D01*
X177485396Y-100623482D01*
X177525952Y-100888291D01*
X177617391Y-101140100D01*
X177674550Y-101247035D01*
X177910867Y-101309528D01*
X178670395Y-100550000D01*
X178656253Y-100535858D01*
X178835858Y-100356253D01*
X178850000Y-100370395D01*
X178864143Y-100356253D01*
X179043748Y-100535858D01*
X179029605Y-100550000D01*
X179789133Y-101309528D01*
X180025450Y-101247035D01*
X180138850Y-101004322D01*
X180202719Y-100744151D01*
X180214604Y-100476518D01*
X180174048Y-100211709D01*
X180082609Y-99959900D01*
X180025450Y-99852965D01*
X179789135Y-99790473D01*
X179905688Y-99673920D01*
X179836739Y-99604971D01*
X179865268Y-99576441D01*
X179893374Y-99553375D01*
X179985424Y-99441213D01*
X180053822Y-99313249D01*
X180095942Y-99174399D01*
X180106600Y-99066186D01*
X180106600Y-99066184D01*
X180110164Y-99030000D01*
X180106600Y-98993817D01*
X180106600Y-98583773D01*
X180176449Y-98526449D01*
X180318284Y-98353623D01*
X180423676Y-98156447D01*
X180488577Y-97942499D01*
X180510491Y-97720000D01*
X180488577Y-97497501D01*
X180423676Y-97283553D01*
X180318284Y-97086377D01*
X180317154Y-97085000D01*
X180318284Y-97083623D01*
X180423676Y-96886447D01*
X180488577Y-96672499D01*
X180510491Y-96450000D01*
X180488577Y-96227501D01*
X180423676Y-96013553D01*
X180318284Y-95816377D01*
X180317154Y-95815000D01*
X180318284Y-95813623D01*
X180423676Y-95616447D01*
X180488577Y-95402499D01*
X180510491Y-95180000D01*
X180488577Y-94957501D01*
X180423676Y-94743553D01*
X180318284Y-94546377D01*
X180317154Y-94545000D01*
X180318284Y-94543623D01*
X180423676Y-94346447D01*
X180488577Y-94132499D01*
X180510491Y-93910000D01*
X180488577Y-93687501D01*
X180423676Y-93473553D01*
X180318284Y-93276377D01*
X180317154Y-93275000D01*
X180318284Y-93273623D01*
X180423676Y-93076447D01*
X180488577Y-92862499D01*
X180510491Y-92640000D01*
X180488577Y-92417501D01*
X180423676Y-92203553D01*
X180318284Y-92006377D01*
X180176449Y-91833551D01*
X180003623Y-91691716D01*
X179884942Y-91628280D01*
X179874474Y-91615525D01*
X179847383Y-91593292D01*
X179676712Y-91422621D01*
X179654475Y-91395525D01*
X179546363Y-91306800D01*
X179423020Y-91240872D01*
X179289184Y-91200273D01*
X179184877Y-91190000D01*
X179184875Y-91190000D01*
X179150000Y-91186565D01*
X179115125Y-91190000D01*
X177138477Y-91190000D01*
X177103600Y-91186565D01*
X176964415Y-91200273D01*
X176897498Y-91220572D01*
X176830580Y-91240872D01*
X176825476Y-91243600D01*
X176760373Y-91243600D01*
X176584563Y-91278571D01*
X176418953Y-91347169D01*
X176269909Y-91446757D01*
X176143157Y-91573509D01*
X176043569Y-91722553D01*
X175974971Y-91888163D01*
X175940000Y-92063973D01*
X175940000Y-92065336D01*
X175812627Y-92040000D01*
X175633373Y-92040000D01*
X175457563Y-92074971D01*
X175291953Y-92143569D01*
X175142909Y-92243157D01*
X175016157Y-92369909D01*
X174916569Y-92518953D01*
X174847971Y-92684563D01*
X174813000Y-92860373D01*
X174813000Y-93039627D01*
X174847971Y-93215437D01*
X174916569Y-93381047D01*
X175016157Y-93530091D01*
X175142909Y-93656843D01*
X175291953Y-93756431D01*
X175457563Y-93825029D01*
X175633373Y-93860000D01*
X175812627Y-93860000D01*
X175988437Y-93825029D01*
X176154047Y-93756431D01*
X176223536Y-93710000D01*
X176796240Y-93710000D01*
X176833562Y-93713676D01*
X176870884Y-93710000D01*
X176870895Y-93710000D01*
X176982548Y-93699003D01*
X177055483Y-93676879D01*
X177132046Y-93783000D01*
X177973000Y-93783000D01*
X177973000Y-93778072D01*
X178227000Y-93778072D01*
X178227000Y-93783000D01*
X178242017Y-93783000D01*
X178229509Y-93910000D01*
X178242017Y-94037000D01*
X178227000Y-94037000D01*
X178227000Y-95053000D01*
X178242017Y-95053000D01*
X178229509Y-95180000D01*
X178242017Y-95307000D01*
X178227000Y-95307000D01*
X178227000Y-95322017D01*
X178155752Y-95315000D01*
X178044248Y-95315000D01*
X177973000Y-95322017D01*
X177973000Y-95307000D01*
X177132046Y-95307000D01*
X177005881Y-95481874D01*
X177022554Y-95536864D01*
X177112877Y-95740206D01*
X177159726Y-95806617D01*
X177151716Y-95816377D01*
X177046324Y-96013553D01*
X176981423Y-96227501D01*
X176959509Y-96450000D01*
X176981423Y-96672499D01*
X177046324Y-96886447D01*
X177151716Y-97083623D01*
X177159726Y-97093383D01*
X177112877Y-97159794D01*
X177022554Y-97363136D01*
X177005881Y-97418126D01*
X177125151Y-97583442D01*
X176796446Y-97254737D01*
X176773375Y-97226625D01*
X176661213Y-97134576D01*
X176533249Y-97066178D01*
X176394399Y-97024058D01*
X176286186Y-97013400D01*
X176286183Y-97013400D01*
X176250000Y-97009836D01*
X176213817Y-97013400D01*
X172710000Y-97013400D01*
X172710000Y-96860373D01*
X172675029Y-96684563D01*
X172606431Y-96518953D01*
X172506843Y-96369909D01*
X172380091Y-96243157D01*
X172285000Y-96179619D01*
X172285000Y-94211874D01*
X177005881Y-94211874D01*
X177022554Y-94266864D01*
X177112877Y-94470206D01*
X177165639Y-94545000D01*
X177112877Y-94619794D01*
X177022554Y-94823136D01*
X177005881Y-94878126D01*
X177132046Y-95053000D01*
X177973000Y-95053000D01*
X177973000Y-94037000D01*
X177132046Y-94037000D01*
X177005881Y-94211874D01*
X172285000Y-94211874D01*
X172285000Y-80160373D01*
X183390000Y-80160373D01*
X183390000Y-80339627D01*
X183424971Y-80515437D01*
X183493569Y-80681047D01*
X183593157Y-80830091D01*
X183719909Y-80956843D01*
X183868953Y-81056431D01*
X184034563Y-81125029D01*
X184210373Y-81160000D01*
X184389627Y-81160000D01*
X184565437Y-81125029D01*
X184731047Y-81056431D01*
X184880091Y-80956843D01*
X185006843Y-80830091D01*
X185106431Y-80681047D01*
X185175029Y-80515437D01*
X185210000Y-80339627D01*
X185210000Y-80160373D01*
X185175029Y-79984563D01*
X185106431Y-79818953D01*
X185006843Y-79669909D01*
X184880091Y-79543157D01*
X184731047Y-79443569D01*
X184565437Y-79374971D01*
X184389627Y-79340000D01*
X184210373Y-79340000D01*
X184034563Y-79374971D01*
X183868953Y-79443569D01*
X183719909Y-79543157D01*
X183593157Y-79669909D01*
X183493569Y-79818953D01*
X183424971Y-79984563D01*
X183390000Y-80160373D01*
X172285000Y-80160373D01*
X172285000Y-79910000D01*
X172339627Y-79910000D01*
X172515437Y-79875029D01*
X172658253Y-79815873D01*
X172718953Y-79856431D01*
X172884563Y-79925029D01*
X173060373Y-79960000D01*
X173239627Y-79960000D01*
X173415437Y-79925029D01*
X173581047Y-79856431D01*
X173675000Y-79793654D01*
X173768953Y-79856431D01*
X173934563Y-79925029D01*
X174110373Y-79960000D01*
X174289627Y-79960000D01*
X174465437Y-79925029D01*
X174631047Y-79856431D01*
X174780091Y-79756843D01*
X174906843Y-79630091D01*
X175006431Y-79481047D01*
X175075029Y-79315437D01*
X175110000Y-79139627D01*
X175110000Y-78960373D01*
X175085000Y-78834690D01*
X175085000Y-53593465D01*
X175089281Y-53549999D01*
X175085000Y-53506533D01*
X175085000Y-53506523D01*
X175072195Y-53376510D01*
X175021589Y-53209687D01*
X174939411Y-53055941D01*
X174828817Y-52921183D01*
X174795049Y-52893470D01*
X174706074Y-52804495D01*
X185515000Y-52804495D01*
X185515000Y-53195505D01*
X185591282Y-53579003D01*
X185740915Y-53940250D01*
X185958149Y-54265364D01*
X186234636Y-54541851D01*
X186559750Y-54759085D01*
X186920997Y-54908718D01*
X187304495Y-54985000D01*
X187695505Y-54985000D01*
X188079003Y-54908718D01*
X188440250Y-54759085D01*
X188765364Y-54541851D01*
X189041851Y-54265364D01*
X189259085Y-53940250D01*
X189408718Y-53579003D01*
X189485000Y-53195505D01*
X189485000Y-52804495D01*
X189408718Y-52420997D01*
X189259085Y-52059750D01*
X189041851Y-51734636D01*
X188765364Y-51458149D01*
X188440250Y-51240915D01*
X188079003Y-51091282D01*
X187695505Y-51015000D01*
X187304495Y-51015000D01*
X186920997Y-51091282D01*
X186559750Y-51240915D01*
X186234636Y-51458149D01*
X185958149Y-51734636D01*
X185740915Y-52059750D01*
X185591282Y-52420997D01*
X185515000Y-52804495D01*
X174706074Y-52804495D01*
X174156534Y-52254956D01*
X174128817Y-52221183D01*
X173994059Y-52110589D01*
X173840313Y-52028411D01*
X173673490Y-51977805D01*
X173543477Y-51965000D01*
X173543469Y-51965000D01*
X173500000Y-51960719D01*
X173456531Y-51965000D01*
X163243466Y-51965000D01*
X163199999Y-51960719D01*
X163156533Y-51965000D01*
X163156523Y-51965000D01*
X163026510Y-51977805D01*
X162859687Y-52028411D01*
X162705941Y-52110589D01*
X162571183Y-52221183D01*
X162543466Y-52254956D01*
X162304956Y-52493466D01*
X162271183Y-52521183D01*
X162160589Y-52655942D01*
X162078411Y-52809688D01*
X162054048Y-52890000D01*
X162034345Y-52954953D01*
X162027805Y-52976511D01*
X162015000Y-53106524D01*
X162015000Y-53106531D01*
X162010719Y-53150000D01*
X162015000Y-53193469D01*
X162015000Y-53584690D01*
X161990000Y-53710373D01*
X161990000Y-53889627D01*
X162024971Y-54065437D01*
X162086259Y-54213400D01*
X129611175Y-54213400D01*
X129574999Y-54209837D01*
X129538823Y-54213400D01*
X129538814Y-54213400D01*
X129430601Y-54224058D01*
X129291751Y-54266178D01*
X129163787Y-54334576D01*
X129051625Y-54426625D01*
X129028554Y-54454737D01*
X128704732Y-54778559D01*
X128676626Y-54801625D01*
X128653560Y-54829731D01*
X128653558Y-54829733D01*
X128584576Y-54913788D01*
X128516178Y-55041753D01*
X128500208Y-55094399D01*
X128474059Y-55180601D01*
X128472792Y-55193468D01*
X128459836Y-55325000D01*
X128463401Y-55361193D01*
X128463400Y-58894891D01*
X128448492Y-58909799D01*
X116389784Y-58909799D01*
X116353600Y-58906235D01*
X116317417Y-58909799D01*
X116317415Y-58909799D01*
X116209202Y-58920457D01*
X116070352Y-58962577D01*
X115942388Y-59030975D01*
X115830226Y-59123024D01*
X115807155Y-59151136D01*
X115454733Y-59503558D01*
X115426626Y-59526625D01*
X115403560Y-59554731D01*
X115403558Y-59554733D01*
X115334576Y-59638788D01*
X115307518Y-59689411D01*
X115269788Y-59760000D01*
X115266178Y-59766753D01*
X115245476Y-59835000D01*
X115225266Y-59901624D01*
X115224059Y-59905602D01*
X115209836Y-60050000D01*
X115213401Y-60086193D01*
X115213400Y-64564443D01*
X115143569Y-64668953D01*
X115074971Y-64834563D01*
X115041320Y-65003736D01*
X114934563Y-65024971D01*
X114768953Y-65093569D01*
X114619909Y-65193157D01*
X114493157Y-65319909D01*
X114393569Y-65468953D01*
X114324971Y-65634563D01*
X114290000Y-65810373D01*
X114290000Y-65989627D01*
X114324971Y-66165437D01*
X114335145Y-66190000D01*
X111700536Y-66190000D01*
X111631047Y-66143569D01*
X111465437Y-66074971D01*
X111289627Y-66040000D01*
X111110373Y-66040000D01*
X110934563Y-66074971D01*
X110868175Y-66102470D01*
X110962142Y-65963868D01*
X111068173Y-65712684D01*
X111082318Y-65641185D01*
X110959656Y-65427000D01*
X109267000Y-65427000D01*
X109013000Y-65427000D01*
X107320344Y-65427000D01*
X107197682Y-65641185D01*
X104542318Y-65641185D01*
X104419656Y-65427000D01*
X102727000Y-65427000D01*
X102473000Y-65427000D01*
X102453000Y-65427000D01*
X102453000Y-65173000D01*
X102473000Y-65173000D01*
X102473000Y-63915000D01*
X102727000Y-63915000D01*
X102727000Y-65173000D01*
X104419656Y-65173000D01*
X104542318Y-64958815D01*
X107197682Y-64958815D01*
X107320344Y-65173000D01*
X109013000Y-65173000D01*
X109013000Y-63915000D01*
X109267000Y-63915000D01*
X109267000Y-65173000D01*
X110959656Y-65173000D01*
X111082318Y-64958815D01*
X111068173Y-64887316D01*
X110962142Y-64636132D01*
X110809145Y-64410460D01*
X110615061Y-64218972D01*
X110387349Y-64069028D01*
X110134760Y-63966389D01*
X109867000Y-63915000D01*
X109267000Y-63915000D01*
X109013000Y-63915000D01*
X108413000Y-63915000D01*
X108145240Y-63966389D01*
X107892651Y-64069028D01*
X107664939Y-64218972D01*
X107470855Y-64410460D01*
X107317858Y-64636132D01*
X107211827Y-64887316D01*
X107197682Y-64958815D01*
X104542318Y-64958815D01*
X104528173Y-64887316D01*
X104422142Y-64636132D01*
X104269145Y-64410460D01*
X104075061Y-64218972D01*
X103847349Y-64069028D01*
X103594760Y-63966389D01*
X103327000Y-63915000D01*
X102727000Y-63915000D01*
X102473000Y-63915000D01*
X101873000Y-63915000D01*
X101605240Y-63966389D01*
X101352651Y-64069028D01*
X101160000Y-64195885D01*
X101160000Y-62527980D01*
X103801626Y-62527980D01*
X103921514Y-62812836D01*
X104245210Y-62973699D01*
X104594069Y-63068322D01*
X104954684Y-63093067D01*
X105313198Y-63046985D01*
X105655833Y-62931846D01*
X105878486Y-62812836D01*
X105998374Y-62527980D01*
X104900000Y-61429605D01*
X103801626Y-62527980D01*
X101160000Y-62527980D01*
X101160000Y-61304684D01*
X103056933Y-61304684D01*
X103103015Y-61663198D01*
X103218154Y-62005833D01*
X103337164Y-62228486D01*
X103622020Y-62348374D01*
X104720395Y-61250000D01*
X105079605Y-61250000D01*
X106177980Y-62348374D01*
X106462836Y-62228486D01*
X106623699Y-61904790D01*
X106718322Y-61555931D01*
X106743067Y-61195316D01*
X106696985Y-60836802D01*
X106581846Y-60494167D01*
X106462836Y-60271514D01*
X106177980Y-60151626D01*
X105079605Y-61250000D01*
X104720395Y-61250000D01*
X103622020Y-60151626D01*
X103337164Y-60271514D01*
X103176301Y-60595210D01*
X103081678Y-60944069D01*
X103056933Y-61304684D01*
X101160000Y-61304684D01*
X101160000Y-56550000D01*
X103061928Y-56550000D01*
X103061928Y-58950000D01*
X103074188Y-59074482D01*
X103110498Y-59194180D01*
X103169463Y-59304494D01*
X103248815Y-59401185D01*
X103345506Y-59480537D01*
X103455820Y-59539502D01*
X103575518Y-59575812D01*
X103700000Y-59588072D01*
X104106903Y-59588072D01*
X103921514Y-59687164D01*
X103801626Y-59972020D01*
X104900000Y-61070395D01*
X105998374Y-59972020D01*
X105878486Y-59687164D01*
X105679088Y-59588072D01*
X106100000Y-59588072D01*
X106224482Y-59575812D01*
X106344180Y-59539502D01*
X106454494Y-59480537D01*
X106551185Y-59401185D01*
X106630537Y-59304494D01*
X106689502Y-59194180D01*
X106725812Y-59074482D01*
X106738072Y-58950000D01*
X106738072Y-56550000D01*
X106725812Y-56425518D01*
X106689502Y-56305820D01*
X106630537Y-56195506D01*
X106551185Y-56098815D01*
X106454494Y-56019463D01*
X106344180Y-55960498D01*
X106224482Y-55924188D01*
X106100000Y-55911928D01*
X103700000Y-55911928D01*
X103575518Y-55924188D01*
X103455820Y-55960498D01*
X103345506Y-56019463D01*
X103248815Y-56098815D01*
X103169463Y-56195506D01*
X103110498Y-56305820D01*
X103074188Y-56425518D01*
X103061928Y-56550000D01*
X101160000Y-56550000D01*
X101160000Y-52804495D01*
X101515000Y-52804495D01*
X101515000Y-53195505D01*
X101591282Y-53579003D01*
X101740915Y-53940250D01*
X101958149Y-54265364D01*
X102234636Y-54541851D01*
X102559750Y-54759085D01*
X102920997Y-54908718D01*
X103304495Y-54985000D01*
X103695505Y-54985000D01*
X104079003Y-54908718D01*
X104440250Y-54759085D01*
X104765364Y-54541851D01*
X105041851Y-54265364D01*
X105259085Y-53940250D01*
X105408718Y-53579003D01*
X105485000Y-53195505D01*
X105485000Y-52804495D01*
X105408718Y-52420997D01*
X105259085Y-52059750D01*
X105041851Y-51734636D01*
X104765364Y-51458149D01*
X104440250Y-51240915D01*
X104079003Y-51091282D01*
X103695505Y-51015000D01*
X103304495Y-51015000D01*
X102920997Y-51091282D01*
X102559750Y-51240915D01*
X102234636Y-51458149D01*
X101958149Y-51734636D01*
X101740915Y-52059750D01*
X101591282Y-52420997D01*
X101515000Y-52804495D01*
X101160000Y-52804495D01*
X101160000Y-52032279D01*
X101188625Y-51740341D01*
X101264035Y-51490571D01*
X101386522Y-51260208D01*
X101551422Y-51058020D01*
X101752450Y-50891714D01*
X101981954Y-50767622D01*
X102231195Y-50690469D01*
X102521088Y-50660000D01*
X188467721Y-50660000D01*
X188759659Y-50688625D01*
X188759659Y-50688625D01*
G37*
X188759659Y-50688625D02*
X189009429Y-50764035D01*
X189239792Y-50886522D01*
X189441980Y-51051422D01*
X189608286Y-51252450D01*
X189732378Y-51481954D01*
X189809531Y-51731195D01*
X189840000Y-52021088D01*
X189840001Y-102967711D01*
X189811375Y-103259660D01*
X189735965Y-103509429D01*
X189613477Y-103739794D01*
X189448579Y-103941979D01*
X189247546Y-104108288D01*
X189018046Y-104232378D01*
X188768805Y-104309531D01*
X188478911Y-104340000D01*
X180841191Y-104340000D01*
X180942390Y-104189946D01*
X181036493Y-103965496D01*
X181085000Y-103727000D01*
X181085000Y-103377000D01*
X179977000Y-103377000D01*
X179977000Y-103397000D01*
X179723000Y-103397000D01*
X179723000Y-103377000D01*
X178615000Y-103377000D01*
X178615000Y-103727000D01*
X178663507Y-103965496D01*
X178757610Y-104189946D01*
X178858809Y-104340000D01*
X173841191Y-104340000D01*
X173942390Y-104189946D01*
X174036493Y-103965496D01*
X174085000Y-103727000D01*
X174085000Y-103377000D01*
X172977000Y-103377000D01*
X172977000Y-103397000D01*
X172723000Y-103397000D01*
X172723000Y-103377000D01*
X171615000Y-103377000D01*
X171615000Y-103727000D01*
X171663507Y-103965496D01*
X171757610Y-104189946D01*
X171858809Y-104340000D01*
X166099980Y-104340000D01*
X166110000Y-104289627D01*
X166110000Y-104110373D01*
X166075029Y-103934563D01*
X166006431Y-103768953D01*
X165906843Y-103619909D01*
X165780091Y-103493157D01*
X165631047Y-103393569D01*
X165465437Y-103324971D01*
X165289627Y-103290000D01*
X165110373Y-103290000D01*
X164934563Y-103324971D01*
X164768953Y-103393569D01*
X164619909Y-103493157D01*
X164493157Y-103619909D01*
X164393569Y-103768953D01*
X164324971Y-103934563D01*
X164290000Y-104110373D01*
X164290000Y-104289627D01*
X164300020Y-104340000D01*
X102532279Y-104340000D01*
X102240340Y-104311375D01*
X101990571Y-104235965D01*
X101760206Y-104113477D01*
X101558021Y-103948579D01*
X101391712Y-103747546D01*
X101267622Y-103518046D01*
X101190469Y-103268805D01*
X101160000Y-102978911D01*
X101160000Y-101804495D01*
X101515000Y-101804495D01*
X101515000Y-102195505D01*
X101591282Y-102579003D01*
X101740915Y-102940250D01*
X101958149Y-103265364D01*
X102234636Y-103541851D01*
X102559750Y-103759085D01*
X102920997Y-103908718D01*
X103304495Y-103985000D01*
X103695505Y-103985000D01*
X104079003Y-103908718D01*
X104440250Y-103759085D01*
X104765364Y-103541851D01*
X105041851Y-103265364D01*
X105259085Y-102940250D01*
X105408718Y-102579003D01*
X105485000Y-102195505D01*
X105485000Y-101804495D01*
X105408718Y-101420997D01*
X105259085Y-101059750D01*
X105041851Y-100734636D01*
X104765364Y-100458149D01*
X104440250Y-100240915D01*
X104079003Y-100091282D01*
X103695505Y-100015000D01*
X103304495Y-100015000D01*
X102920997Y-100091282D01*
X102559750Y-100240915D01*
X102234636Y-100458149D01*
X101958149Y-100734636D01*
X101740915Y-101059750D01*
X101591282Y-101420997D01*
X101515000Y-101804495D01*
X101160000Y-101804495D01*
X101160000Y-98754115D01*
X101352651Y-98880972D01*
X101605240Y-98983611D01*
X101873000Y-99035000D01*
X102473000Y-99035000D01*
X102473000Y-97777000D01*
X102727000Y-97777000D01*
X102727000Y-99035000D01*
X103327000Y-99035000D01*
X103594760Y-98983611D01*
X103847349Y-98880972D01*
X104075061Y-98731028D01*
X104269145Y-98539540D01*
X104422142Y-98313868D01*
X104528173Y-98062684D01*
X104542318Y-97991185D01*
X107197682Y-97991185D01*
X107211827Y-98062684D01*
X107317858Y-98313868D01*
X107470855Y-98539540D01*
X107664939Y-98731028D01*
X107892651Y-98880972D01*
X108145240Y-98983611D01*
X108413000Y-99035000D01*
X109013000Y-99035000D01*
X109013000Y-97777000D01*
X109267000Y-97777000D01*
X109267000Y-99035000D01*
X109867000Y-99035000D01*
X110134760Y-98983611D01*
X110387349Y-98880972D01*
X110615061Y-98731028D01*
X110809145Y-98539540D01*
X110962142Y-98313868D01*
X111068173Y-98062684D01*
X111082318Y-97991185D01*
X110959656Y-97777000D01*
X109267000Y-97777000D01*
X109013000Y-97777000D01*
X107320344Y-97777000D01*
X107197682Y-97991185D01*
X104542318Y-97991185D01*
X104419656Y-97777000D01*
X102727000Y-97777000D01*
X102473000Y-97777000D01*
X102453000Y-97777000D01*
X102453000Y-97523000D01*
X102473000Y-97523000D01*
X102473000Y-96265000D01*
X102727000Y-96265000D01*
X102727000Y-97523000D01*
X104419656Y-97523000D01*
X104542318Y-97308815D01*
X107197682Y-97308815D01*
X107320344Y-97523000D01*
X109013000Y-97523000D01*
X109013000Y-96265000D01*
X109267000Y-96265000D01*
X109267000Y-97523000D01*
X110959656Y-97523000D01*
X111082318Y-97308815D01*
X111068173Y-97237316D01*
X110962142Y-96986132D01*
X110809145Y-96760460D01*
X110615061Y-96568972D01*
X110387349Y-96419028D01*
X110212704Y-96348061D01*
X131815000Y-96348061D01*
X131815000Y-96551939D01*
X131854774Y-96751898D01*
X131932795Y-96940256D01*
X132046063Y-97109774D01*
X132190226Y-97253937D01*
X132359744Y-97367205D01*
X132548102Y-97445226D01*
X132748061Y-97485000D01*
X132951939Y-97485000D01*
X133151898Y-97445226D01*
X133340256Y-97367205D01*
X133509774Y-97253937D01*
X133653937Y-97109774D01*
X133767205Y-96940256D01*
X133845226Y-96751898D01*
X133885000Y-96551939D01*
X133885000Y-96348061D01*
X133845226Y-96148102D01*
X133767205Y-95959744D01*
X133653937Y-95790226D01*
X133509774Y-95646063D01*
X133340256Y-95532795D01*
X133151898Y-95454774D01*
X132951939Y-95415000D01*
X132748061Y-95415000D01*
X132548102Y-95454774D01*
X132359744Y-95532795D01*
X132190226Y-95646063D01*
X132046063Y-95790226D01*
X131932795Y-95959744D01*
X131854774Y-96148102D01*
X131815000Y-96348061D01*
X110212704Y-96348061D01*
X110134760Y-96316389D01*
X109867000Y-96265000D01*
X109267000Y-96265000D01*
X109013000Y-96265000D01*
X108413000Y-96265000D01*
X108145240Y-96316389D01*
X107892651Y-96419028D01*
X107664939Y-96568972D01*
X107470855Y-96760460D01*
X107317858Y-96986132D01*
X107211827Y-97237316D01*
X107197682Y-97308815D01*
X104542318Y-97308815D01*
X104528173Y-97237316D01*
X104422142Y-96986132D01*
X104269145Y-96760460D01*
X104075061Y-96568972D01*
X103847349Y-96419028D01*
X103594760Y-96316389D01*
X103327000Y-96265000D01*
X102727000Y-96265000D01*
X102473000Y-96265000D01*
X101873000Y-96265000D01*
X101605240Y-96316389D01*
X101352651Y-96419028D01*
X101160000Y-96545885D01*
X101160000Y-90910373D01*
X126990000Y-90910373D01*
X126990000Y-91089627D01*
X127024971Y-91265437D01*
X127093569Y-91431047D01*
X127193157Y-91580091D01*
X127319909Y-91706843D01*
X127468953Y-91806431D01*
X127634563Y-91875029D01*
X127810373Y-91910000D01*
X127989627Y-91910000D01*
X128165437Y-91875029D01*
X128331047Y-91806431D01*
X128480091Y-91706843D01*
X128606843Y-91580091D01*
X128706431Y-91431047D01*
X128775029Y-91265437D01*
X128810000Y-91089627D01*
X128810000Y-90910373D01*
X128775029Y-90734563D01*
X128765010Y-90710373D01*
X130890000Y-90710373D01*
X130890000Y-90889627D01*
X130924971Y-91065437D01*
X130993569Y-91231047D01*
X131093157Y-91380091D01*
X131219909Y-91506843D01*
X131368953Y-91606431D01*
X131534563Y-91675029D01*
X131710373Y-91710000D01*
X131889627Y-91710000D01*
X132065437Y-91675029D01*
X132231047Y-91606431D01*
X132380091Y-91506843D01*
X132506843Y-91380091D01*
X132606431Y-91231047D01*
X132675029Y-91065437D01*
X132710000Y-90889627D01*
X132710000Y-90710373D01*
X132675029Y-90534563D01*
X132606431Y-90368953D01*
X132506843Y-90219909D01*
X132380091Y-90093157D01*
X132231047Y-89993569D01*
X132065437Y-89924971D01*
X131889627Y-89890000D01*
X131710373Y-89890000D01*
X131534563Y-89924971D01*
X131368953Y-89993569D01*
X131219909Y-90093157D01*
X131093157Y-90219909D01*
X130993569Y-90368953D01*
X130924971Y-90534563D01*
X130890000Y-90710373D01*
X128765010Y-90710373D01*
X128706431Y-90568953D01*
X128606843Y-90419909D01*
X128480091Y-90293157D01*
X128331047Y-90193569D01*
X128165437Y-90124971D01*
X127989627Y-90090000D01*
X127810373Y-90090000D01*
X127634563Y-90124971D01*
X127468953Y-90193569D01*
X127319909Y-90293157D01*
X127193157Y-90419909D01*
X127093569Y-90568953D01*
X127024971Y-90734563D01*
X126990000Y-90910373D01*
X101160000Y-90910373D01*
X101160000Y-84254115D01*
X101352651Y-84380972D01*
X101605240Y-84483611D01*
X101873000Y-84535000D01*
X102473000Y-84535000D01*
X102473000Y-83277000D01*
X102727000Y-83277000D01*
X102727000Y-84535000D01*
X103327000Y-84535000D01*
X103594760Y-84483611D01*
X103847349Y-84380972D01*
X104075061Y-84231028D01*
X104269145Y-84039540D01*
X104422142Y-83813868D01*
X104528173Y-83562684D01*
X104542318Y-83491185D01*
X107197682Y-83491185D01*
X107211827Y-83562684D01*
X107317858Y-83813868D01*
X107470855Y-84039540D01*
X107664939Y-84231028D01*
X107892651Y-84380972D01*
X108145240Y-84483611D01*
X108413000Y-84535000D01*
X109013000Y-84535000D01*
X109013000Y-83277000D01*
X109267000Y-83277000D01*
X109267000Y-84535000D01*
X109867000Y-84535000D01*
X110134760Y-84483611D01*
X110362089Y-84391237D01*
X110343569Y-84418953D01*
X110274971Y-84584563D01*
X110240000Y-84760373D01*
X110240000Y-84939627D01*
X110274971Y-85115437D01*
X110343569Y-85281047D01*
X110443157Y-85430091D01*
X110569909Y-85556843D01*
X110718953Y-85656431D01*
X110884563Y-85725029D01*
X111060373Y-85760000D01*
X111239627Y-85760000D01*
X111415437Y-85725029D01*
X111581047Y-85656431D01*
X111685556Y-85586600D01*
X112913401Y-85586600D01*
X112913401Y-86013807D01*
X112909836Y-86050000D01*
X112919538Y-86148500D01*
X112924059Y-86194399D01*
X112937674Y-86239281D01*
X112966178Y-86333247D01*
X113034576Y-86461212D01*
X113096716Y-86536929D01*
X113126626Y-86573375D01*
X113154732Y-86596441D01*
X113253554Y-86695263D01*
X113276625Y-86723375D01*
X113362534Y-86793879D01*
X113324971Y-86884563D01*
X113290000Y-87060373D01*
X113290000Y-87239627D01*
X113324971Y-87415437D01*
X113393569Y-87581047D01*
X113493157Y-87730091D01*
X113619909Y-87856843D01*
X113768953Y-87956431D01*
X113934563Y-88025029D01*
X114110373Y-88060000D01*
X114289627Y-88060000D01*
X114415310Y-88035000D01*
X115956531Y-88035000D01*
X116000000Y-88039281D01*
X116043469Y-88035000D01*
X116043477Y-88035000D01*
X116173490Y-88022195D01*
X116340313Y-87971589D01*
X116494059Y-87889411D01*
X116628817Y-87778817D01*
X116656534Y-87745044D01*
X116945045Y-87456533D01*
X116978817Y-87428817D01*
X117089411Y-87294059D01*
X117171589Y-87140313D01*
X117222195Y-86973490D01*
X117235000Y-86843477D01*
X117235000Y-86843469D01*
X117239281Y-86800000D01*
X117235000Y-86756531D01*
X117235000Y-84793469D01*
X117239281Y-84750000D01*
X117235000Y-84706531D01*
X117235000Y-84706523D01*
X117222195Y-84576510D01*
X117171589Y-84409687D01*
X117089411Y-84255941D01*
X116978817Y-84121183D01*
X116945044Y-84093466D01*
X116656534Y-83804956D01*
X116628817Y-83771183D01*
X116494059Y-83660589D01*
X116340313Y-83578411D01*
X116173490Y-83527805D01*
X116043477Y-83515000D01*
X116043469Y-83515000D01*
X116000000Y-83510719D01*
X115956531Y-83515000D01*
X115515310Y-83515000D01*
X115389627Y-83490000D01*
X115210373Y-83490000D01*
X115034563Y-83524971D01*
X114868953Y-83593569D01*
X114719909Y-83693157D01*
X114593157Y-83819909D01*
X114493569Y-83968953D01*
X114424971Y-84134563D01*
X114390000Y-84310373D01*
X114390000Y-84489627D01*
X114424971Y-84665437D01*
X114493569Y-84831047D01*
X114593157Y-84980091D01*
X114719909Y-85106843D01*
X114868953Y-85206431D01*
X115034563Y-85275029D01*
X115210373Y-85310000D01*
X115389627Y-85310000D01*
X115465001Y-85295007D01*
X115465001Y-85308971D01*
X115384563Y-85324971D01*
X115218953Y-85393569D01*
X115114444Y-85463400D01*
X114386600Y-85463400D01*
X114386600Y-85086186D01*
X114390164Y-85050000D01*
X114375942Y-84905601D01*
X114364053Y-84866409D01*
X114333822Y-84766751D01*
X114265424Y-84638787D01*
X114173374Y-84526625D01*
X114145268Y-84503559D01*
X113996446Y-84354737D01*
X113973375Y-84326625D01*
X113861213Y-84234576D01*
X113733249Y-84166178D01*
X113594399Y-84124058D01*
X113486186Y-84113400D01*
X113486183Y-84113400D01*
X113450000Y-84109836D01*
X113413817Y-84113400D01*
X111685556Y-84113400D01*
X111581047Y-84043569D01*
X111415437Y-83974971D01*
X111239627Y-83940000D01*
X111060373Y-83940000D01*
X110884563Y-83974971D01*
X110840565Y-83993196D01*
X110962142Y-83813868D01*
X111068173Y-83562684D01*
X111082318Y-83491185D01*
X110959656Y-83277000D01*
X109267000Y-83277000D01*
X109013000Y-83277000D01*
X107320344Y-83277000D01*
X107197682Y-83491185D01*
X104542318Y-83491185D01*
X104419656Y-83277000D01*
X102727000Y-83277000D01*
X102473000Y-83277000D01*
X102453000Y-83277000D01*
X102453000Y-83023000D01*
X102473000Y-83023000D01*
X102473000Y-81765000D01*
X102727000Y-81765000D01*
X102727000Y-83023000D01*
X104419656Y-83023000D01*
X104542318Y-82808815D01*
X107197682Y-82808815D01*
X107320344Y-83023000D01*
X109013000Y-83023000D01*
X109013000Y-81765000D01*
X109267000Y-81765000D01*
X109267000Y-83023000D01*
X110959656Y-83023000D01*
X110995521Y-82960373D01*
X130890000Y-82960373D01*
X130890000Y-83139627D01*
X130924971Y-83315437D01*
X130993569Y-83481047D01*
X131093157Y-83630091D01*
X131219909Y-83756843D01*
X131368953Y-83856431D01*
X131534563Y-83925029D01*
X131710373Y-83960000D01*
X131889627Y-83960000D01*
X132065437Y-83925029D01*
X132231047Y-83856431D01*
X132380091Y-83756843D01*
X132506843Y-83630091D01*
X132606431Y-83481047D01*
X132675029Y-83315437D01*
X132710000Y-83139627D01*
X132710000Y-82960373D01*
X132675029Y-82784563D01*
X132606431Y-82618953D01*
X132506843Y-82469909D01*
X132380091Y-82343157D01*
X132231047Y-82243569D01*
X132065437Y-82174971D01*
X131889627Y-82140000D01*
X131710373Y-82140000D01*
X131534563Y-82174971D01*
X131368953Y-82243569D01*
X131219909Y-82343157D01*
X131093157Y-82469909D01*
X130993569Y-82618953D01*
X130924971Y-82784563D01*
X130890000Y-82960373D01*
X110995521Y-82960373D01*
X111082318Y-82808815D01*
X111068173Y-82737316D01*
X110962142Y-82486132D01*
X110809145Y-82260460D01*
X110615061Y-82068972D01*
X110387349Y-81919028D01*
X110134760Y-81816389D01*
X109867000Y-81765000D01*
X109267000Y-81765000D01*
X109013000Y-81765000D01*
X108413000Y-81765000D01*
X108145240Y-81816389D01*
X107892651Y-81919028D01*
X107664939Y-82068972D01*
X107470855Y-82260460D01*
X107317858Y-82486132D01*
X107211827Y-82737316D01*
X107197682Y-82808815D01*
X104542318Y-82808815D01*
X104528173Y-82737316D01*
X104422142Y-82486132D01*
X104269145Y-82260460D01*
X104075061Y-82068972D01*
X103847349Y-81919028D01*
X103594760Y-81816389D01*
X103327000Y-81765000D01*
X102727000Y-81765000D01*
X102473000Y-81765000D01*
X101873000Y-81765000D01*
X101605240Y-81816389D01*
X101352651Y-81919028D01*
X101160000Y-82045885D01*
X101160000Y-80904115D01*
X101352651Y-81030972D01*
X101605240Y-81133611D01*
X101873000Y-81185000D01*
X102473000Y-81185000D01*
X102473000Y-79927000D01*
X102727000Y-79927000D01*
X102727000Y-81185000D01*
X103327000Y-81185000D01*
X103594760Y-81133611D01*
X103847349Y-81030972D01*
X104075061Y-80881028D01*
X104269145Y-80689540D01*
X104422142Y-80463868D01*
X104528173Y-80212684D01*
X104542318Y-80141185D01*
X107197682Y-80141185D01*
X107211827Y-80212684D01*
X107317858Y-80463868D01*
X107470855Y-80689540D01*
X107664939Y-80881028D01*
X107892651Y-81030972D01*
X108145240Y-81133611D01*
X108413000Y-81185000D01*
X109013000Y-81185000D01*
X109013000Y-79927000D01*
X109267000Y-79927000D01*
X109267000Y-81185000D01*
X109867000Y-81185000D01*
X110134760Y-81133611D01*
X110387349Y-81030972D01*
X110615061Y-80881028D01*
X110809145Y-80689540D01*
X110962142Y-80463868D01*
X111068173Y-80212684D01*
X111082318Y-80141185D01*
X110959656Y-79927000D01*
X109267000Y-79927000D01*
X109013000Y-79927000D01*
X107320344Y-79927000D01*
X107197682Y-80141185D01*
X104542318Y-80141185D01*
X104419656Y-79927000D01*
X102727000Y-79927000D01*
X102473000Y-79927000D01*
X102453000Y-79927000D01*
X102453000Y-79673000D01*
X102473000Y-79673000D01*
X102473000Y-78415000D01*
X102727000Y-78415000D01*
X102727000Y-79673000D01*
X104419656Y-79673000D01*
X104542318Y-79458815D01*
X107197682Y-79458815D01*
X107320344Y-79673000D01*
X109013000Y-79673000D01*
X109013000Y-78415000D01*
X109267000Y-78415000D01*
X109267000Y-79673000D01*
X110959656Y-79673000D01*
X111082318Y-79458815D01*
X111068173Y-79387316D01*
X110962142Y-79136132D01*
X110809145Y-78910460D01*
X110615061Y-78718972D01*
X110387349Y-78569028D01*
X110134760Y-78466389D01*
X109867000Y-78415000D01*
X109267000Y-78415000D01*
X109013000Y-78415000D01*
X108413000Y-78415000D01*
X108145240Y-78466389D01*
X107892651Y-78569028D01*
X107664939Y-78718972D01*
X107470855Y-78910460D01*
X107317858Y-79136132D01*
X107211827Y-79387316D01*
X107197682Y-79458815D01*
X104542318Y-79458815D01*
X104528173Y-79387316D01*
X104422142Y-79136132D01*
X104269145Y-78910460D01*
X104075061Y-78718972D01*
X103847349Y-78569028D01*
X103594760Y-78466389D01*
X103327000Y-78415000D01*
X102727000Y-78415000D01*
X102473000Y-78415000D01*
X101873000Y-78415000D01*
X101605240Y-78466389D01*
X101352651Y-78569028D01*
X101160000Y-78695885D01*
X101160000Y-66404115D01*
X101352651Y-66530972D01*
X101605240Y-66633611D01*
X101873000Y-66685000D01*
X102473000Y-66685000D01*
X102473000Y-65427000D01*
X102727000Y-65427000D01*
X102727000Y-66685000D01*
X103327000Y-66685000D01*
X103594760Y-66633611D01*
X103847349Y-66530972D01*
X104075061Y-66381028D01*
X104269145Y-66189540D01*
X104422142Y-65963868D01*
X104528173Y-65712684D01*
X104542318Y-65641185D01*
X107197682Y-65641185D01*
X107211827Y-65712684D01*
X107317858Y-65963868D01*
X107470855Y-66189540D01*
X107664939Y-66381028D01*
X107892651Y-66530972D01*
X108145240Y-66633611D01*
X108413000Y-66685000D01*
X109013000Y-66685000D01*
X109013000Y-65427000D01*
X109267000Y-65427000D01*
X109267000Y-66685000D01*
X109867000Y-66685000D01*
X110134760Y-66633611D01*
X110387349Y-66530972D01*
X110389056Y-66529848D01*
X110324971Y-66684563D01*
X110290000Y-66860373D01*
X110290000Y-67039627D01*
X110324971Y-67215437D01*
X110393569Y-67381047D01*
X110493157Y-67530091D01*
X110619909Y-67656843D01*
X110768953Y-67756431D01*
X110934563Y-67825029D01*
X111110373Y-67860000D01*
X111289627Y-67860000D01*
X111465437Y-67825029D01*
X111631047Y-67756431D01*
X111780091Y-67656843D01*
X111826934Y-67610000D01*
X115540001Y-67610000D01*
X115540001Y-68179724D01*
X115514000Y-68116953D01*
X115414412Y-67967909D01*
X115287660Y-67841157D01*
X115138616Y-67741569D01*
X114973006Y-67672971D01*
X114797196Y-67638000D01*
X114617942Y-67638000D01*
X114442132Y-67672971D01*
X114276522Y-67741569D01*
X114127478Y-67841157D01*
X114000726Y-67967909D01*
X113901138Y-68116953D01*
X113832540Y-68282563D01*
X113797569Y-68458373D01*
X113797569Y-68637627D01*
X113832540Y-68813437D01*
X113901138Y-68979047D01*
X114000726Y-69128091D01*
X114033583Y-69160948D01*
X114040000Y-69182103D01*
X114040001Y-70015116D01*
X114036565Y-70050000D01*
X114050274Y-70189184D01*
X114090872Y-70323019D01*
X114156801Y-70446363D01*
X114209333Y-70510373D01*
X114245526Y-70554475D01*
X114272618Y-70576708D01*
X114503774Y-70807864D01*
X114526015Y-70834965D01*
X114634127Y-70923690D01*
X114757470Y-70989618D01*
X114891306Y-71030217D01*
X114915140Y-71032564D01*
X114919909Y-71037333D01*
X115068953Y-71136921D01*
X115234563Y-71205519D01*
X115410373Y-71240490D01*
X115589627Y-71240490D01*
X115765437Y-71205519D01*
X115931047Y-71136921D01*
X116080091Y-71037333D01*
X116206843Y-70910581D01*
X116306431Y-70761537D01*
X116375029Y-70595927D01*
X116410000Y-70420117D01*
X116410000Y-70246002D01*
X116515437Y-70225029D01*
X116681047Y-70156431D01*
X116830091Y-70056843D01*
X116956843Y-69930091D01*
X117056431Y-69781047D01*
X117125029Y-69615437D01*
X117160000Y-69439627D01*
X117160000Y-69260373D01*
X117125029Y-69084563D01*
X117056431Y-68918953D01*
X116960000Y-68774634D01*
X116960000Y-68635458D01*
X117074509Y-68670194D01*
X117204522Y-68682999D01*
X117204530Y-68682999D01*
X117247999Y-68687280D01*
X117291468Y-68682999D01*
X125567996Y-68682999D01*
X125565000Y-68698061D01*
X125565000Y-68901939D01*
X125604774Y-69101898D01*
X125682795Y-69290256D01*
X125715000Y-69338454D01*
X125715001Y-77356514D01*
X125715000Y-77356524D01*
X125715001Y-78506515D01*
X125715000Y-78506524D01*
X125715000Y-79256531D01*
X125710719Y-79300000D01*
X125715000Y-79343469D01*
X125715000Y-79343477D01*
X125722753Y-79422195D01*
X125727805Y-79473490D01*
X125778412Y-79640313D01*
X125860590Y-79794059D01*
X125943468Y-79895046D01*
X125943471Y-79895049D01*
X125971184Y-79928817D01*
X126004951Y-79956529D01*
X126693470Y-80645049D01*
X126721183Y-80678817D01*
X126754951Y-80706530D01*
X126754953Y-80706532D01*
X126808605Y-80750563D01*
X126855941Y-80789411D01*
X127009687Y-80871589D01*
X127176510Y-80922195D01*
X127306523Y-80935000D01*
X127306533Y-80935000D01*
X127349999Y-80939281D01*
X127393465Y-80935000D01*
X133859546Y-80935000D01*
X133907744Y-80967205D01*
X134096102Y-81045226D01*
X134290000Y-81083794D01*
X134290000Y-84666698D01*
X134280951Y-84655671D01*
X134254305Y-84633803D01*
X134150850Y-84530348D01*
X134128978Y-84503697D01*
X134022618Y-84416409D01*
X133901272Y-84351548D01*
X133769605Y-84311607D01*
X133666984Y-84301500D01*
X133666973Y-84301500D01*
X133632675Y-84298122D01*
X133598377Y-84301500D01*
X131423239Y-84301500D01*
X131388941Y-84298122D01*
X131354643Y-84301500D01*
X131354633Y-84301500D01*
X131252012Y-84311607D01*
X131120345Y-84351548D01*
X131120343Y-84351549D01*
X130998998Y-84416409D01*
X130919288Y-84481826D01*
X130919285Y-84481829D01*
X130892639Y-84503697D01*
X130870771Y-84530343D01*
X130649615Y-84751500D01*
X127493226Y-84751500D01*
X127489184Y-84750274D01*
X127350000Y-84736565D01*
X127264630Y-84744973D01*
X127239627Y-84740000D01*
X127060373Y-84740000D01*
X126884563Y-84774971D01*
X126718953Y-84843569D01*
X126569909Y-84943157D01*
X126443157Y-85069909D01*
X126349803Y-85209623D01*
X126346363Y-85206800D01*
X126223020Y-85140872D01*
X126089184Y-85100273D01*
X125984877Y-85090000D01*
X125984875Y-85090000D01*
X125950000Y-85086565D01*
X125915125Y-85090000D01*
X125475366Y-85090000D01*
X125331047Y-84993569D01*
X125165437Y-84924971D01*
X124989627Y-84890000D01*
X124810373Y-84890000D01*
X124671679Y-84917588D01*
X124526712Y-84772621D01*
X124504475Y-84745525D01*
X124396363Y-84656800D01*
X124390715Y-84653781D01*
X124280091Y-84543157D01*
X124131047Y-84443569D01*
X123965437Y-84374971D01*
X123789627Y-84340000D01*
X123610373Y-84340000D01*
X123434563Y-84374971D01*
X123268953Y-84443569D01*
X123119909Y-84543157D01*
X122993157Y-84669909D01*
X122893569Y-84818953D01*
X122824971Y-84984563D01*
X122790000Y-85160373D01*
X122790000Y-85339627D01*
X122824971Y-85515437D01*
X122893569Y-85681047D01*
X122993157Y-85830091D01*
X123119909Y-85956843D01*
X123268953Y-86056431D01*
X123434563Y-86125029D01*
X123540001Y-86146002D01*
X123540000Y-87565125D01*
X123536565Y-87600000D01*
X123540000Y-87634875D01*
X123540000Y-87634876D01*
X123550273Y-87739183D01*
X123590872Y-87873019D01*
X123656800Y-87996362D01*
X123745525Y-88104474D01*
X123772617Y-88126708D01*
X124023288Y-88377379D01*
X124045525Y-88404475D01*
X124153637Y-88493200D01*
X124276980Y-88559128D01*
X124410816Y-88599727D01*
X124515123Y-88610000D01*
X124515124Y-88610000D01*
X124549999Y-88613435D01*
X124584874Y-88610000D01*
X134065125Y-88610000D01*
X134100000Y-88613435D01*
X134134875Y-88610000D01*
X134134877Y-88610000D01*
X134239184Y-88599727D01*
X134290001Y-88584312D01*
X134290001Y-91140000D01*
X134084875Y-91140000D01*
X134050000Y-91136565D01*
X134015125Y-91140000D01*
X134015123Y-91140000D01*
X133910816Y-91150273D01*
X133776980Y-91190872D01*
X133653637Y-91256800D01*
X133545525Y-91345525D01*
X133523284Y-91372626D01*
X133382118Y-91513791D01*
X133355025Y-91536026D01*
X133266300Y-91644138D01*
X133200372Y-91767481D01*
X133159773Y-91901317D01*
X133151119Y-91989184D01*
X133146065Y-92040500D01*
X133149500Y-92075375D01*
X133149500Y-92174634D01*
X133053069Y-92318953D01*
X132984471Y-92484563D01*
X132973107Y-92541692D01*
X132885978Y-92550273D01*
X132752142Y-92590872D01*
X132628799Y-92656800D01*
X132520687Y-92745525D01*
X132498446Y-92772626D01*
X132374025Y-92897046D01*
X132346933Y-92919280D01*
X132258207Y-93027392D01*
X132192279Y-93150735D01*
X132177421Y-93199715D01*
X132144564Y-93232572D01*
X132044976Y-93381616D01*
X131976378Y-93547226D01*
X131941407Y-93723036D01*
X131941407Y-93902290D01*
X131976378Y-94078100D01*
X132044976Y-94243710D01*
X132144564Y-94392754D01*
X132271316Y-94519506D01*
X132420360Y-94619094D01*
X132585970Y-94687692D01*
X132761780Y-94722663D01*
X132941034Y-94722663D01*
X133116844Y-94687692D01*
X133282454Y-94619094D01*
X133422594Y-94525455D01*
X133468953Y-94556431D01*
X133634563Y-94625029D01*
X133810373Y-94660000D01*
X133989627Y-94660000D01*
X134163400Y-94625434D01*
X134163400Y-94763817D01*
X134159836Y-94800000D01*
X134163400Y-94836183D01*
X134163400Y-94836185D01*
X134174058Y-94944398D01*
X134216178Y-95083248D01*
X134249956Y-95146442D01*
X134284576Y-95211212D01*
X134349236Y-95290000D01*
X134376625Y-95323374D01*
X134404732Y-95346441D01*
X134653554Y-95595263D01*
X134676625Y-95623375D01*
X134788787Y-95715424D01*
X134916751Y-95783822D01*
X135055601Y-95825942D01*
X135163814Y-95836600D01*
X135163823Y-95836600D01*
X135199999Y-95840163D01*
X135236175Y-95836600D01*
X135463401Y-95836600D01*
X135463400Y-97964443D01*
X135393569Y-98068953D01*
X135324971Y-98234563D01*
X135290000Y-98410373D01*
X135290000Y-98589627D01*
X135324971Y-98765437D01*
X135393569Y-98931047D01*
X135493157Y-99080091D01*
X135501501Y-99088435D01*
X135501500Y-100665701D01*
X135498122Y-100700000D01*
X135501500Y-100734298D01*
X135501500Y-100734308D01*
X135511607Y-100836929D01*
X135551548Y-100968596D01*
X135551549Y-100968598D01*
X135616409Y-101089943D01*
X135681826Y-101169653D01*
X135681829Y-101169656D01*
X135703697Y-101196302D01*
X135730344Y-101218171D01*
X136031825Y-101519652D01*
X136053697Y-101546303D01*
X136160057Y-101633591D01*
X136281403Y-101698452D01*
X136413070Y-101738393D01*
X136515691Y-101748500D01*
X136515702Y-101748500D01*
X136550000Y-101751878D01*
X136584298Y-101748500D01*
X146515702Y-101748500D01*
X146550000Y-101751878D01*
X146584298Y-101748500D01*
X146584309Y-101748500D01*
X146686930Y-101738393D01*
X146818597Y-101698452D01*
X146939943Y-101633591D01*
X147046303Y-101546303D01*
X147068175Y-101519652D01*
X147269652Y-101318175D01*
X147296303Y-101296303D01*
X147383591Y-101189943D01*
X147448452Y-101068597D01*
X147488393Y-100936930D01*
X147498500Y-100834309D01*
X147498500Y-100834299D01*
X147501878Y-100800001D01*
X147498500Y-100765703D01*
X147498500Y-86484298D01*
X147501878Y-86450000D01*
X147498500Y-86415702D01*
X147498500Y-86415691D01*
X147488393Y-86313070D01*
X147448500Y-86181561D01*
X147448500Y-84184298D01*
X147451878Y-84150000D01*
X147448500Y-84115702D01*
X147448500Y-84115691D01*
X147438393Y-84013070D01*
X147398452Y-83881403D01*
X147356917Y-83803697D01*
X147333591Y-83760056D01*
X147268174Y-83680346D01*
X147268167Y-83680339D01*
X147246302Y-83653697D01*
X147219661Y-83631833D01*
X146798500Y-83210673D01*
X146798500Y-80688434D01*
X146806843Y-80680091D01*
X146906431Y-80531047D01*
X146975029Y-80365437D01*
X147010000Y-80189627D01*
X147010000Y-80010373D01*
X146975029Y-79834563D01*
X146906431Y-79668953D01*
X146806843Y-79519909D01*
X146680091Y-79393157D01*
X146531047Y-79293569D01*
X146365437Y-79224971D01*
X146189627Y-79190000D01*
X146010373Y-79190000D01*
X145834563Y-79224971D01*
X145668953Y-79293569D01*
X145519909Y-79393157D01*
X145393157Y-79519909D01*
X145293569Y-79668953D01*
X145224971Y-79834563D01*
X145190000Y-80010373D01*
X145190000Y-80189627D01*
X145224971Y-80365437D01*
X145293569Y-80531047D01*
X145393157Y-80680091D01*
X145401500Y-80688434D01*
X145401501Y-83465692D01*
X145398122Y-83500000D01*
X145401501Y-83534308D01*
X145401501Y-83534309D01*
X145408119Y-83601500D01*
X144518370Y-83601500D01*
X144518370Y-79986434D01*
X144526713Y-79978091D01*
X144626301Y-79829047D01*
X144694899Y-79663437D01*
X144729870Y-79487627D01*
X144729870Y-79308373D01*
X144694899Y-79132563D01*
X144626301Y-78966953D01*
X144526713Y-78817909D01*
X144399961Y-78691157D01*
X144250917Y-78591569D01*
X144085307Y-78522971D01*
X143909497Y-78488000D01*
X143730243Y-78488000D01*
X143554433Y-78522971D01*
X143388823Y-78591569D01*
X143239779Y-78691157D01*
X143113027Y-78817909D01*
X143013439Y-78966953D01*
X142944841Y-79132563D01*
X142909870Y-79308373D01*
X142909870Y-79487627D01*
X142944841Y-79663437D01*
X143013439Y-79829047D01*
X143113027Y-79978091D01*
X143121370Y-79986434D01*
X143121371Y-83935562D01*
X143117992Y-83969870D01*
X143121371Y-84004178D01*
X143121371Y-84004179D01*
X143131478Y-84106800D01*
X143148547Y-84163069D01*
X143171419Y-84238468D01*
X143215587Y-84321101D01*
X140081273Y-84349202D01*
X140040256Y-84321795D01*
X139851898Y-84243774D01*
X139651939Y-84204000D01*
X139448061Y-84204000D01*
X139248102Y-84243774D01*
X139059744Y-84321795D01*
X138890226Y-84435063D01*
X138746063Y-84579226D01*
X138632795Y-84748744D01*
X138554774Y-84937102D01*
X138515000Y-85137061D01*
X138515000Y-85340939D01*
X138554774Y-85540898D01*
X138632795Y-85729256D01*
X138746063Y-85898774D01*
X138890226Y-86042937D01*
X139059744Y-86156205D01*
X139248102Y-86234226D01*
X139448061Y-86274000D01*
X139651939Y-86274000D01*
X139851898Y-86234226D01*
X140040256Y-86156205D01*
X140095724Y-86119143D01*
X143554384Y-86088134D01*
X143555941Y-86089411D01*
X143709687Y-86171589D01*
X143876510Y-86222195D01*
X144006523Y-86235000D01*
X144006533Y-86235000D01*
X144049999Y-86239281D01*
X144093466Y-86235000D01*
X144934690Y-86235000D01*
X145060373Y-86260000D01*
X145239627Y-86260000D01*
X145415437Y-86225029D01*
X145551500Y-86168670D01*
X145551501Y-98061656D01*
X145484563Y-98074971D01*
X145318953Y-98143569D01*
X145169909Y-98243157D01*
X145043157Y-98369909D01*
X144943569Y-98518953D01*
X144874971Y-98684563D01*
X144840000Y-98860373D01*
X144840000Y-99039627D01*
X144874971Y-99215437D01*
X144943569Y-99381047D01*
X145043157Y-99530091D01*
X145114566Y-99601500D01*
X137798500Y-99601500D01*
X137798500Y-99277801D01*
X137960373Y-99310000D01*
X138139627Y-99310000D01*
X138315437Y-99275029D01*
X138481047Y-99206431D01*
X138550000Y-99160358D01*
X138618953Y-99206431D01*
X138784563Y-99275029D01*
X138960373Y-99310000D01*
X139139627Y-99310000D01*
X139315437Y-99275029D01*
X139481047Y-99206431D01*
X139630091Y-99106843D01*
X139756843Y-98980091D01*
X139856431Y-98831047D01*
X139925029Y-98665437D01*
X139935665Y-98611966D01*
X139943569Y-98631047D01*
X140043157Y-98780091D01*
X140169909Y-98906843D01*
X140318953Y-99006431D01*
X140484563Y-99075029D01*
X140660373Y-99110000D01*
X140839627Y-99110000D01*
X141015437Y-99075029D01*
X141181047Y-99006431D01*
X141330091Y-98906843D01*
X141456843Y-98780091D01*
X141556431Y-98631047D01*
X141625029Y-98465437D01*
X141660000Y-98289627D01*
X141660000Y-98110373D01*
X141625029Y-97934563D01*
X141556431Y-97768953D01*
X141456843Y-97619909D01*
X141330091Y-97493157D01*
X141181047Y-97393569D01*
X141015437Y-97324971D01*
X140839627Y-97290000D01*
X140660373Y-97290000D01*
X140484563Y-97324971D01*
X140318953Y-97393569D01*
X140169909Y-97493157D01*
X140043157Y-97619909D01*
X139943569Y-97768953D01*
X139874971Y-97934563D01*
X139864335Y-97988034D01*
X139856431Y-97968953D01*
X139786600Y-97864444D01*
X139786600Y-94000311D01*
X139790226Y-94003937D01*
X139959744Y-94117205D01*
X140148102Y-94195226D01*
X140348061Y-94235000D01*
X140551939Y-94235000D01*
X140751898Y-94195226D01*
X140940256Y-94117205D01*
X141109774Y-94003937D01*
X141253937Y-93859774D01*
X141367205Y-93690256D01*
X141445226Y-93501898D01*
X141485000Y-93301939D01*
X141485000Y-93098061D01*
X141445226Y-92898102D01*
X141367205Y-92709744D01*
X141253937Y-92540226D01*
X141109774Y-92396063D01*
X140940256Y-92282795D01*
X140896946Y-92264855D01*
X140990256Y-92226205D01*
X141159774Y-92112937D01*
X141303937Y-91968774D01*
X141417205Y-91799256D01*
X141495226Y-91610898D01*
X141535000Y-91410939D01*
X141535000Y-91207061D01*
X141495226Y-91007102D01*
X141417205Y-90818744D01*
X141303937Y-90649226D01*
X141159774Y-90505063D01*
X140990256Y-90391795D01*
X140801898Y-90313774D01*
X140601939Y-90274000D01*
X140398061Y-90274000D01*
X140198102Y-90313774D01*
X140009744Y-90391795D01*
X139840226Y-90505063D01*
X139696063Y-90649226D01*
X139582795Y-90818744D01*
X139504774Y-91007102D01*
X139465000Y-91207061D01*
X139465000Y-91410939D01*
X139504774Y-91610898D01*
X139582795Y-91799256D01*
X139696063Y-91968774D01*
X139840226Y-92112937D01*
X140009744Y-92226205D01*
X140053054Y-92244145D01*
X139959744Y-92282795D01*
X139790226Y-92396063D01*
X139646063Y-92540226D01*
X139532795Y-92709744D01*
X139454774Y-92898102D01*
X139443996Y-92952288D01*
X139196446Y-92704737D01*
X139173375Y-92676625D01*
X139061213Y-92584576D01*
X138933249Y-92516178D01*
X138794399Y-92474058D01*
X138686186Y-92463400D01*
X138686183Y-92463400D01*
X138650000Y-92459836D01*
X138613817Y-92463400D01*
X137885556Y-92463400D01*
X137781047Y-92393569D01*
X137615437Y-92324971D01*
X137439627Y-92290000D01*
X137260373Y-92290000D01*
X137084563Y-92324971D01*
X136932631Y-92387903D01*
X136923375Y-92376625D01*
X136811213Y-92284576D01*
X136683249Y-92216178D01*
X136544399Y-92174058D01*
X136507886Y-92170462D01*
X136500029Y-92130963D01*
X136431431Y-91965353D01*
X136331843Y-91816309D01*
X136205091Y-91689557D01*
X136056047Y-91589969D01*
X135890437Y-91521371D01*
X135714627Y-91486400D01*
X135710000Y-91486400D01*
X135710000Y-87038581D01*
X137969860Y-87038581D01*
X137969860Y-87217835D01*
X138004831Y-87393645D01*
X138073429Y-87559255D01*
X138173017Y-87708299D01*
X138299769Y-87835051D01*
X138448813Y-87934639D01*
X138614423Y-88003237D01*
X138790233Y-88038208D01*
X138969487Y-88038208D01*
X139145297Y-88003237D01*
X139310907Y-87934639D01*
X139459951Y-87835051D01*
X139586703Y-87708299D01*
X139686291Y-87559255D01*
X139754889Y-87393645D01*
X139789860Y-87217835D01*
X139789860Y-87038581D01*
X139754889Y-86862771D01*
X139686291Y-86697161D01*
X139586703Y-86548117D01*
X139459951Y-86421365D01*
X139310907Y-86321777D01*
X139145297Y-86253179D01*
X138969487Y-86218208D01*
X138790233Y-86218208D01*
X138614423Y-86253179D01*
X138448813Y-86321777D01*
X138299769Y-86421365D01*
X138173017Y-86548117D01*
X138073429Y-86697161D01*
X138004831Y-86862771D01*
X137969860Y-87038581D01*
X135710000Y-87038581D01*
X135710000Y-78094091D01*
X135844092Y-77960000D01*
X144765125Y-77960000D01*
X144800000Y-77963435D01*
X144834875Y-77960000D01*
X144834877Y-77960000D01*
X144939184Y-77949727D01*
X145073020Y-77909128D01*
X145196363Y-77843200D01*
X145304475Y-77754475D01*
X145326712Y-77727379D01*
X145677379Y-77376712D01*
X145704475Y-77354475D01*
X145781142Y-77261056D01*
X145793199Y-77246365D01*
X145822218Y-77192074D01*
X145859128Y-77123020D01*
X145899727Y-76989184D01*
X145910000Y-76884877D01*
X145910000Y-76884876D01*
X145913435Y-76850001D01*
X145910000Y-76815126D01*
X145910000Y-75935373D01*
X146215000Y-75935373D01*
X146215000Y-76114627D01*
X146249971Y-76290437D01*
X146318569Y-76456047D01*
X146418157Y-76605091D01*
X146544909Y-76731843D01*
X146693953Y-76831431D01*
X146859563Y-76900029D01*
X147035373Y-76935000D01*
X147214627Y-76935000D01*
X147390437Y-76900029D01*
X147556047Y-76831431D01*
X147605902Y-76798119D01*
X147605903Y-77502388D01*
X147349131Y-77759160D01*
X147321024Y-77782227D01*
X147297958Y-77810333D01*
X147297957Y-77810334D01*
X147229246Y-77894059D01*
X147228975Y-77894389D01*
X147160577Y-78022353D01*
X147118457Y-78161203D01*
X147112510Y-78221589D01*
X147104235Y-78305601D01*
X147107799Y-78341784D01*
X147107800Y-82258206D01*
X147104235Y-82294399D01*
X147114149Y-82395046D01*
X147118458Y-82438798D01*
X147132817Y-82486132D01*
X147160577Y-82577646D01*
X147221908Y-82692388D01*
X147228976Y-82705612D01*
X147321025Y-82817774D01*
X147349131Y-82840840D01*
X147917001Y-83408710D01*
X147917002Y-101722019D01*
X147915437Y-101721371D01*
X147739627Y-101686400D01*
X147560373Y-101686400D01*
X147384563Y-101721371D01*
X147218953Y-101789969D01*
X147069909Y-101889557D01*
X146943157Y-102016309D01*
X146843569Y-102165353D01*
X146774971Y-102330963D01*
X146740000Y-102506773D01*
X146740000Y-102686027D01*
X146774971Y-102861837D01*
X146843569Y-103027447D01*
X146943157Y-103176491D01*
X147069909Y-103303243D01*
X147218953Y-103402831D01*
X147384563Y-103471429D01*
X147560373Y-103506400D01*
X147739627Y-103506400D01*
X147915437Y-103471429D01*
X148081047Y-103402831D01*
X148185556Y-103333000D01*
X148267417Y-103333000D01*
X148303600Y-103336564D01*
X148339783Y-103333000D01*
X148339786Y-103333000D01*
X148447999Y-103322342D01*
X148586849Y-103280222D01*
X148714813Y-103211824D01*
X148826975Y-103119775D01*
X148850046Y-103091663D01*
X149148864Y-102792845D01*
X149176976Y-102769774D01*
X149269025Y-102657612D01*
X149337423Y-102529648D01*
X149379543Y-102390798D01*
X149390201Y-102282585D01*
X149390201Y-102282576D01*
X149393764Y-102246400D01*
X149390201Y-102210224D01*
X149390201Y-98953202D01*
X149531837Y-98925029D01*
X149697447Y-98856431D01*
X149846491Y-98756843D01*
X149973243Y-98630091D01*
X150009815Y-98575358D01*
X150183973Y-98610000D01*
X150363227Y-98610000D01*
X150539037Y-98575029D01*
X150704647Y-98506431D01*
X150853691Y-98406843D01*
X150980443Y-98280091D01*
X151080031Y-98131047D01*
X151148629Y-97965437D01*
X151183600Y-97789627D01*
X151183600Y-97686600D01*
X151263400Y-97686600D01*
X151263401Y-102513807D01*
X151259836Y-102550000D01*
X151269134Y-102644398D01*
X151274059Y-102694399D01*
X151289846Y-102746442D01*
X151316178Y-102833247D01*
X151384576Y-102961212D01*
X151433530Y-103020862D01*
X151476626Y-103073375D01*
X151504732Y-103096441D01*
X151953559Y-103545268D01*
X151976625Y-103573375D01*
X152088787Y-103665424D01*
X152216751Y-103733822D01*
X152310597Y-103762290D01*
X152355601Y-103775942D01*
X152500000Y-103790164D01*
X152536186Y-103786600D01*
X162763817Y-103786600D01*
X162800000Y-103790164D01*
X162836183Y-103786600D01*
X162836186Y-103786600D01*
X162944399Y-103775942D01*
X163083249Y-103733822D01*
X163211213Y-103665424D01*
X163323375Y-103573375D01*
X163346446Y-103545262D01*
X163545263Y-103346445D01*
X163573374Y-103323375D01*
X163665424Y-103211213D01*
X163733822Y-103083249D01*
X163775942Y-102944399D01*
X163786600Y-102836186D01*
X163786600Y-102836177D01*
X163790163Y-102800001D01*
X163787504Y-102773000D01*
X171615000Y-102773000D01*
X171615000Y-103123000D01*
X172723000Y-103123000D01*
X172723000Y-101831269D01*
X172977000Y-101831269D01*
X172977000Y-103123000D01*
X174085000Y-103123000D01*
X174085000Y-102773000D01*
X174036493Y-102534504D01*
X173942390Y-102310054D01*
X173806307Y-102108275D01*
X173633474Y-101936922D01*
X173538164Y-101873829D01*
X173655849Y-101902719D01*
X173923482Y-101914604D01*
X174188291Y-101874048D01*
X174440100Y-101782609D01*
X174547035Y-101725450D01*
X174609528Y-101489133D01*
X178090472Y-101489133D01*
X178152965Y-101725450D01*
X178395678Y-101838850D01*
X178655849Y-101902719D01*
X178923482Y-101914604D01*
X179153442Y-101879385D01*
X179066526Y-101936922D01*
X178893693Y-102108275D01*
X178757610Y-102310054D01*
X178663507Y-102534504D01*
X178615000Y-102773000D01*
X178615000Y-103123000D01*
X179723000Y-103123000D01*
X179723000Y-101831269D01*
X179977000Y-101831269D01*
X179977000Y-103123000D01*
X181085000Y-103123000D01*
X181085000Y-102773000D01*
X181036493Y-102534504D01*
X180942390Y-102310054D01*
X180806307Y-102108275D01*
X180633474Y-101936922D01*
X180433428Y-101804495D01*
X185515000Y-101804495D01*
X185515000Y-102195505D01*
X185591282Y-102579003D01*
X185740915Y-102940250D01*
X185958149Y-103265364D01*
X186234636Y-103541851D01*
X186559750Y-103759085D01*
X186920997Y-103908718D01*
X187304495Y-103985000D01*
X187695505Y-103985000D01*
X188079003Y-103908718D01*
X188440250Y-103759085D01*
X188765364Y-103541851D01*
X189041851Y-103265364D01*
X189259085Y-102940250D01*
X189408718Y-102579003D01*
X189485000Y-102195505D01*
X189485000Y-101804495D01*
X189408718Y-101420997D01*
X189259085Y-101059750D01*
X189041851Y-100734636D01*
X188765364Y-100458149D01*
X188440250Y-100240915D01*
X188079003Y-100091282D01*
X187695505Y-100015000D01*
X187304495Y-100015000D01*
X186920997Y-100091282D01*
X186559750Y-100240915D01*
X186234636Y-100458149D01*
X185958149Y-100734636D01*
X185740915Y-101059750D01*
X185591282Y-101420997D01*
X185515000Y-101804495D01*
X180433428Y-101804495D01*
X180430533Y-101802579D01*
X180205282Y-101710409D01*
X180167609Y-101706538D01*
X179977000Y-101831269D01*
X179723000Y-101831269D01*
X179549138Y-101717497D01*
X179609528Y-101489133D01*
X178850000Y-100729605D01*
X178090472Y-101489133D01*
X174609528Y-101489133D01*
X173850000Y-100729605D01*
X173090472Y-101489133D01*
X173150862Y-101717497D01*
X172977000Y-101831269D01*
X172723000Y-101831269D01*
X172532391Y-101706538D01*
X172494718Y-101710409D01*
X172269467Y-101802579D01*
X172066526Y-101936922D01*
X171893693Y-102108275D01*
X171757610Y-102310054D01*
X171663507Y-102534504D01*
X171615000Y-102773000D01*
X163787504Y-102773000D01*
X163786600Y-102763825D01*
X163786600Y-101610373D01*
X165940000Y-101610373D01*
X165940000Y-101789627D01*
X165974971Y-101965437D01*
X166043569Y-102131047D01*
X166143157Y-102280091D01*
X166269909Y-102406843D01*
X166418953Y-102506431D01*
X166584563Y-102575029D01*
X166760373Y-102610000D01*
X166939627Y-102610000D01*
X167115437Y-102575029D01*
X167281047Y-102506431D01*
X167430091Y-102406843D01*
X167556843Y-102280091D01*
X167656431Y-102131047D01*
X167725029Y-101965437D01*
X167760000Y-101789627D01*
X167760000Y-101610373D01*
X167725029Y-101434563D01*
X167656431Y-101268953D01*
X167556843Y-101119909D01*
X167430091Y-100993157D01*
X167281047Y-100893569D01*
X167115437Y-100824971D01*
X166939627Y-100790000D01*
X166760373Y-100790000D01*
X166584563Y-100824971D01*
X166418953Y-100893569D01*
X166269909Y-100993157D01*
X166143157Y-101119909D01*
X166043569Y-101268953D01*
X165974971Y-101434563D01*
X165940000Y-101610373D01*
X163786600Y-101610373D01*
X163786600Y-100623482D01*
X172485396Y-100623482D01*
X172525952Y-100888291D01*
X172617391Y-101140100D01*
X172674550Y-101247035D01*
X172910867Y-101309528D01*
X173670395Y-100550000D01*
X174029605Y-100550000D01*
X174789133Y-101309528D01*
X175025450Y-101247035D01*
X175138850Y-101004322D01*
X175202719Y-100744151D01*
X175214604Y-100476518D01*
X175174048Y-100211709D01*
X175082609Y-99959900D01*
X175025450Y-99852965D01*
X174789133Y-99790472D01*
X174029605Y-100550000D01*
X173670395Y-100550000D01*
X172910867Y-99790472D01*
X172674550Y-99852965D01*
X172561150Y-100095678D01*
X172497281Y-100355849D01*
X172485396Y-100623482D01*
X163786600Y-100623482D01*
X163786600Y-100485556D01*
X163856431Y-100381047D01*
X163925029Y-100215437D01*
X163960000Y-100039627D01*
X163960000Y-99935860D01*
X164031047Y-99906431D01*
X164180091Y-99806843D01*
X164306843Y-99680091D01*
X164353096Y-99610867D01*
X173090472Y-99610867D01*
X173850000Y-100370395D01*
X174609528Y-99610867D01*
X174547035Y-99374550D01*
X174304322Y-99261150D01*
X174044151Y-99197281D01*
X173776518Y-99185396D01*
X173511709Y-99225952D01*
X173259900Y-99317391D01*
X173152965Y-99374550D01*
X173090472Y-99610867D01*
X164353096Y-99610867D01*
X164406431Y-99531047D01*
X164475029Y-99365437D01*
X164510000Y-99189627D01*
X164510000Y-99010373D01*
X164475029Y-98834563D01*
X164406431Y-98668953D01*
X164306843Y-98519909D01*
X164180091Y-98393157D01*
X164031047Y-98293569D01*
X163865437Y-98224971D01*
X163689627Y-98190000D01*
X163510373Y-98190000D01*
X163334563Y-98224971D01*
X163168953Y-98293569D01*
X163064444Y-98363400D01*
X162836186Y-98363400D01*
X162800000Y-98359836D01*
X162763814Y-98363400D01*
X162655601Y-98374058D01*
X162516751Y-98416178D01*
X162388787Y-98484576D01*
X162276625Y-98576625D01*
X162253554Y-98604737D01*
X162051131Y-98807160D01*
X162023025Y-98830226D01*
X161999959Y-98858332D01*
X161999957Y-98858334D01*
X161930975Y-98942389D01*
X161862577Y-99070354D01*
X161851885Y-99105601D01*
X161831016Y-99174399D01*
X161820458Y-99209203D01*
X161806235Y-99353601D01*
X161809800Y-99389794D01*
X161809799Y-101763400D01*
X155517996Y-101763400D01*
X155606431Y-101631047D01*
X155675029Y-101465437D01*
X155710000Y-101289627D01*
X155710000Y-101110373D01*
X155675029Y-100934563D01*
X155606431Y-100768953D01*
X155506843Y-100619909D01*
X155380091Y-100493157D01*
X155231047Y-100393569D01*
X155065437Y-100324971D01*
X154889627Y-100290000D01*
X154710373Y-100290000D01*
X154534563Y-100324971D01*
X154368953Y-100393569D01*
X154219909Y-100493157D01*
X154093157Y-100619909D01*
X153993569Y-100768953D01*
X153924971Y-100934563D01*
X153892454Y-101098035D01*
X153806843Y-100969909D01*
X153680091Y-100843157D01*
X153531047Y-100743569D01*
X153365437Y-100674971D01*
X153189627Y-100640000D01*
X153186600Y-100640000D01*
X153186600Y-99310373D01*
X159490000Y-99310373D01*
X159490000Y-99489627D01*
X159524971Y-99665437D01*
X159593569Y-99831047D01*
X159693157Y-99980091D01*
X159819909Y-100106843D01*
X159968953Y-100206431D01*
X160134563Y-100275029D01*
X160310373Y-100310000D01*
X160489627Y-100310000D01*
X160665437Y-100275029D01*
X160831047Y-100206431D01*
X160980091Y-100106843D01*
X161106843Y-99980091D01*
X161206431Y-99831047D01*
X161275029Y-99665437D01*
X161310000Y-99489627D01*
X161310000Y-99310373D01*
X161275029Y-99134563D01*
X161206431Y-98968953D01*
X161106843Y-98819909D01*
X160980091Y-98693157D01*
X160831047Y-98593569D01*
X160665437Y-98524971D01*
X160489627Y-98490000D01*
X160310373Y-98490000D01*
X160134563Y-98524971D01*
X159968953Y-98593569D01*
X159819909Y-98693157D01*
X159693157Y-98819909D01*
X159593569Y-98968953D01*
X159524971Y-99134563D01*
X159490000Y-99310373D01*
X153186600Y-99310373D01*
X153186600Y-96586186D01*
X153190164Y-96550000D01*
X153175942Y-96405601D01*
X153157376Y-96344398D01*
X153133822Y-96266751D01*
X153065424Y-96138787D01*
X152973374Y-96026625D01*
X152945268Y-96003559D01*
X152646446Y-95704737D01*
X152623375Y-95676625D01*
X152511213Y-95584576D01*
X152383249Y-95516178D01*
X152244399Y-95474058D01*
X152136186Y-95463400D01*
X152136183Y-95463400D01*
X152100000Y-95459836D01*
X152063817Y-95463400D01*
X149735556Y-95463400D01*
X149631047Y-95393569D01*
X149465437Y-95324971D01*
X149390201Y-95310006D01*
X149390201Y-94660373D01*
X156940000Y-94660373D01*
X156940000Y-94839627D01*
X156974971Y-95015437D01*
X157043569Y-95181047D01*
X157143157Y-95330091D01*
X157269909Y-95456843D01*
X157418953Y-95556431D01*
X157584563Y-95625029D01*
X157760373Y-95660000D01*
X157939627Y-95660000D01*
X158115437Y-95625029D01*
X158281047Y-95556431D01*
X158430091Y-95456843D01*
X158556843Y-95330091D01*
X158656431Y-95181047D01*
X158725029Y-95015437D01*
X158760000Y-94839627D01*
X158760000Y-94660373D01*
X159690000Y-94660373D01*
X159690000Y-94839627D01*
X159724971Y-95015437D01*
X159793569Y-95181047D01*
X159893157Y-95330091D01*
X160019909Y-95456843D01*
X160168953Y-95556431D01*
X160334563Y-95625029D01*
X160510373Y-95660000D01*
X160689627Y-95660000D01*
X160865437Y-95625029D01*
X161031047Y-95556431D01*
X161180091Y-95456843D01*
X161306843Y-95330091D01*
X161406431Y-95181047D01*
X161475029Y-95015437D01*
X161510000Y-94839627D01*
X161510000Y-94710373D01*
X165290000Y-94710373D01*
X165290000Y-94889627D01*
X165324971Y-95065437D01*
X165393569Y-95231047D01*
X165493157Y-95380091D01*
X165619909Y-95506843D01*
X165768953Y-95606431D01*
X165934563Y-95675029D01*
X166110373Y-95710000D01*
X166289627Y-95710000D01*
X166465437Y-95675029D01*
X166631047Y-95606431D01*
X166780091Y-95506843D01*
X166906843Y-95380091D01*
X167006431Y-95231047D01*
X167075029Y-95065437D01*
X167110000Y-94889627D01*
X167110000Y-94710373D01*
X167075029Y-94534563D01*
X167006431Y-94368953D01*
X166906843Y-94219909D01*
X166780091Y-94093157D01*
X166631047Y-93993569D01*
X166465437Y-93924971D01*
X166289627Y-93890000D01*
X166110373Y-93890000D01*
X165934563Y-93924971D01*
X165768953Y-93993569D01*
X165619909Y-94093157D01*
X165493157Y-94219909D01*
X165393569Y-94368953D01*
X165324971Y-94534563D01*
X165290000Y-94710373D01*
X161510000Y-94710373D01*
X161510000Y-94660373D01*
X161475029Y-94484563D01*
X161406431Y-94318953D01*
X161306843Y-94169909D01*
X161180091Y-94043157D01*
X161031047Y-93943569D01*
X160865437Y-93874971D01*
X160689627Y-93840000D01*
X160510373Y-93840000D01*
X160334563Y-93874971D01*
X160168953Y-93943569D01*
X160019909Y-94043157D01*
X159893157Y-94169909D01*
X159793569Y-94318953D01*
X159724971Y-94484563D01*
X159690000Y-94660373D01*
X158760000Y-94660373D01*
X158725029Y-94484563D01*
X158656431Y-94318953D01*
X158556843Y-94169909D01*
X158430091Y-94043157D01*
X158281047Y-93943569D01*
X158115437Y-93874971D01*
X157939627Y-93840000D01*
X157760373Y-93840000D01*
X157584563Y-93874971D01*
X157418953Y-93943569D01*
X157269909Y-94043157D01*
X157143157Y-94169909D01*
X157043569Y-94318953D01*
X156974971Y-94484563D01*
X156940000Y-94660373D01*
X149390201Y-94660373D01*
X149390201Y-92013973D01*
X158140000Y-92013973D01*
X158140000Y-92193227D01*
X158174971Y-92369037D01*
X158243569Y-92534647D01*
X158343157Y-92683691D01*
X158469909Y-92810443D01*
X158618953Y-92910031D01*
X158784563Y-92978629D01*
X158923132Y-93006192D01*
X158924971Y-93015437D01*
X158993569Y-93181047D01*
X159093157Y-93330091D01*
X159219909Y-93456843D01*
X159368953Y-93556431D01*
X159534563Y-93625029D01*
X159710373Y-93660000D01*
X159889627Y-93660000D01*
X160065437Y-93625029D01*
X160231047Y-93556431D01*
X160380091Y-93456843D01*
X160506843Y-93330091D01*
X160606431Y-93181047D01*
X160675029Y-93015437D01*
X160710000Y-92839627D01*
X160710000Y-92660373D01*
X160675029Y-92484563D01*
X160606431Y-92318953D01*
X160506843Y-92169909D01*
X160380091Y-92043157D01*
X160231047Y-91943569D01*
X160065437Y-91874971D01*
X159926868Y-91847408D01*
X159925029Y-91838163D01*
X159856431Y-91672553D01*
X159756843Y-91523509D01*
X159630091Y-91396757D01*
X159481047Y-91297169D01*
X159315437Y-91228571D01*
X159139627Y-91193600D01*
X158960373Y-91193600D01*
X158784563Y-91228571D01*
X158618953Y-91297169D01*
X158469909Y-91396757D01*
X158343157Y-91523509D01*
X158243569Y-91672553D01*
X158174971Y-91838163D01*
X158140000Y-92013973D01*
X149390201Y-92013973D01*
X149390201Y-83330845D01*
X149526510Y-83372195D01*
X149656523Y-83385000D01*
X149656533Y-83385000D01*
X149699999Y-83389281D01*
X149743465Y-83385000D01*
X158256531Y-83385000D01*
X158300000Y-83389281D01*
X158343469Y-83385000D01*
X158343477Y-83385000D01*
X158473490Y-83372195D01*
X158640313Y-83321589D01*
X158794059Y-83239411D01*
X158928817Y-83128817D01*
X158956534Y-83095044D01*
X159495049Y-82556530D01*
X159528817Y-82528817D01*
X159639411Y-82394059D01*
X159721589Y-82240313D01*
X159772195Y-82073490D01*
X159785000Y-81943477D01*
X159785000Y-81943467D01*
X159789281Y-81900001D01*
X159785000Y-81856535D01*
X159785000Y-80565310D01*
X159810000Y-80439627D01*
X159810000Y-80260373D01*
X159775029Y-80084563D01*
X159706431Y-79918953D01*
X159606843Y-79769909D01*
X159480091Y-79643157D01*
X159331047Y-79543569D01*
X159165437Y-79474971D01*
X158989627Y-79440000D01*
X158810373Y-79440000D01*
X158634563Y-79474971D01*
X158468953Y-79543569D01*
X158319909Y-79643157D01*
X158193157Y-79769909D01*
X158093569Y-79918953D01*
X158024971Y-80084563D01*
X157990000Y-80260373D01*
X157990000Y-80439627D01*
X158015000Y-80565311D01*
X158015001Y-81533421D01*
X157933422Y-81615000D01*
X152987934Y-81615000D01*
X153006843Y-81596091D01*
X153106431Y-81447047D01*
X153175029Y-81281437D01*
X153210000Y-81105627D01*
X153210000Y-80926373D01*
X153175029Y-80750563D01*
X153106431Y-80584953D01*
X153006843Y-80435909D01*
X152880091Y-80309157D01*
X152731047Y-80209569D01*
X152565437Y-80140971D01*
X152389627Y-80106000D01*
X152210373Y-80106000D01*
X152034563Y-80140971D01*
X151868953Y-80209569D01*
X151719909Y-80309157D01*
X151593157Y-80435909D01*
X151493569Y-80584953D01*
X151424971Y-80750563D01*
X151390000Y-80926373D01*
X151390000Y-81105627D01*
X151424971Y-81281437D01*
X151493569Y-81447047D01*
X151593157Y-81596091D01*
X151612066Y-81615000D01*
X150066579Y-81615000D01*
X149885000Y-81433422D01*
X149885000Y-81115310D01*
X149910000Y-80989627D01*
X149910000Y-80810373D01*
X149885000Y-80684690D01*
X149885000Y-78560373D01*
X155190000Y-78560373D01*
X155190000Y-78739627D01*
X155224971Y-78915437D01*
X155293569Y-79081047D01*
X155393157Y-79230091D01*
X155519909Y-79356843D01*
X155668953Y-79456431D01*
X155834563Y-79525029D01*
X156010373Y-79560000D01*
X156189627Y-79560000D01*
X156365437Y-79525029D01*
X156531047Y-79456431D01*
X156680091Y-79356843D01*
X156806843Y-79230091D01*
X156906431Y-79081047D01*
X156975029Y-78915437D01*
X157010000Y-78739627D01*
X157010000Y-78560373D01*
X156975029Y-78384563D01*
X156906431Y-78218953D01*
X156806843Y-78069909D01*
X156680091Y-77943157D01*
X156531047Y-77843569D01*
X156365437Y-77774971D01*
X156189627Y-77740000D01*
X156010373Y-77740000D01*
X155834563Y-77774971D01*
X155668953Y-77843569D01*
X155519909Y-77943157D01*
X155393157Y-78069909D01*
X155293569Y-78218953D01*
X155224971Y-78384563D01*
X155190000Y-78560373D01*
X149885000Y-78560373D01*
X149885000Y-77098560D01*
X149905841Y-76993786D01*
X149905841Y-76814532D01*
X149870870Y-76638722D01*
X149802272Y-76473112D01*
X149702684Y-76324068D01*
X149575932Y-76197316D01*
X149527501Y-76164955D01*
X149527501Y-76060373D01*
X149492530Y-75884563D01*
X149423932Y-75718953D01*
X149324344Y-75569909D01*
X149197592Y-75443157D01*
X149048548Y-75343569D01*
X148882938Y-75274971D01*
X148707128Y-75240000D01*
X148527874Y-75240000D01*
X148352064Y-75274971D01*
X148186454Y-75343569D01*
X148037410Y-75443157D01*
X147913480Y-75567087D01*
X147831843Y-75444909D01*
X147705091Y-75318157D01*
X147556047Y-75218569D01*
X147390437Y-75149971D01*
X147214627Y-75115000D01*
X147035373Y-75115000D01*
X146859563Y-75149971D01*
X146693953Y-75218569D01*
X146544909Y-75318157D01*
X146418157Y-75444909D01*
X146318569Y-75593953D01*
X146249971Y-75759563D01*
X146215000Y-75935373D01*
X145910000Y-75935373D01*
X145910000Y-74725366D01*
X145953426Y-74660373D01*
X150990000Y-74660373D01*
X150990000Y-74839627D01*
X151024971Y-75015437D01*
X151093569Y-75181047D01*
X151193157Y-75330091D01*
X151319909Y-75456843D01*
X151468953Y-75556431D01*
X151634563Y-75625029D01*
X151810373Y-75660000D01*
X151989627Y-75660000D01*
X152165437Y-75625029D01*
X152331047Y-75556431D01*
X152480091Y-75456843D01*
X152606843Y-75330091D01*
X152706431Y-75181047D01*
X152775029Y-75015437D01*
X152810000Y-74839627D01*
X152810000Y-74660373D01*
X152775029Y-74484563D01*
X152706431Y-74318953D01*
X152606843Y-74169909D01*
X152480091Y-74043157D01*
X152331047Y-73943569D01*
X152165437Y-73874971D01*
X151989627Y-73840000D01*
X151810373Y-73840000D01*
X151634563Y-73874971D01*
X151468953Y-73943569D01*
X151319909Y-74043157D01*
X151193157Y-74169909D01*
X151093569Y-74318953D01*
X151024971Y-74484563D01*
X150990000Y-74660373D01*
X145953426Y-74660373D01*
X146006431Y-74581047D01*
X146075029Y-74415437D01*
X146110000Y-74239627D01*
X146110000Y-74060373D01*
X146075029Y-73884563D01*
X146006431Y-73718953D01*
X145906843Y-73569909D01*
X145780091Y-73443157D01*
X145631047Y-73343569D01*
X145465437Y-73274971D01*
X145289627Y-73240000D01*
X145110373Y-73240000D01*
X144934563Y-73274971D01*
X144768953Y-73343569D01*
X144619909Y-73443157D01*
X144493157Y-73569909D01*
X144393569Y-73718953D01*
X144324971Y-73884563D01*
X144290000Y-74060373D01*
X144290000Y-74239627D01*
X144324971Y-74415437D01*
X144393569Y-74581047D01*
X144490000Y-74725367D01*
X144490001Y-76540000D01*
X135584874Y-76540000D01*
X135549999Y-76536565D01*
X135515124Y-76540000D01*
X135515123Y-76540000D01*
X135410816Y-76550273D01*
X135276980Y-76590872D01*
X135187459Y-76638722D01*
X135153635Y-76656801D01*
X135090950Y-76708246D01*
X135045525Y-76745525D01*
X135023292Y-76772616D01*
X134522617Y-77273292D01*
X134495525Y-77295526D01*
X134406800Y-77403638D01*
X134340872Y-77526981D01*
X134300273Y-77660817D01*
X134292444Y-77740313D01*
X134290613Y-77758905D01*
X134275029Y-77680561D01*
X134206431Y-77514951D01*
X134106843Y-77365907D01*
X133980091Y-77239155D01*
X133831047Y-77139567D01*
X133665437Y-77070969D01*
X133489627Y-77035998D01*
X133310373Y-77035998D01*
X133134563Y-77070969D01*
X132968953Y-77139567D01*
X132819909Y-77239155D01*
X132693157Y-77365907D01*
X132593569Y-77514951D01*
X132524971Y-77680561D01*
X132490000Y-77856371D01*
X132490000Y-78035625D01*
X132524971Y-78211435D01*
X132593569Y-78377045D01*
X132693157Y-78526089D01*
X132819909Y-78652841D01*
X132968953Y-78752429D01*
X133134563Y-78821027D01*
X133310373Y-78855998D01*
X133489627Y-78855998D01*
X133665437Y-78821027D01*
X133831047Y-78752429D01*
X133980091Y-78652841D01*
X134106843Y-78526089D01*
X134206431Y-78377045D01*
X134275029Y-78211435D01*
X134290000Y-78136171D01*
X134290000Y-79016206D01*
X134096102Y-79054774D01*
X133907744Y-79132795D01*
X133859546Y-79165000D01*
X127716579Y-79165000D01*
X127485000Y-78933422D01*
X127485000Y-74248061D01*
X138565000Y-74248061D01*
X138565000Y-74451939D01*
X138604774Y-74651898D01*
X138682795Y-74840256D01*
X138796063Y-75009774D01*
X138940226Y-75153937D01*
X139109744Y-75267205D01*
X139298102Y-75345226D01*
X139498061Y-75385000D01*
X139701939Y-75385000D01*
X139901898Y-75345226D01*
X140090256Y-75267205D01*
X140259774Y-75153937D01*
X140403937Y-75009774D01*
X140517205Y-74840256D01*
X140595226Y-74651898D01*
X140635000Y-74451939D01*
X140635000Y-74248061D01*
X140595226Y-74048102D01*
X140517466Y-73860373D01*
X142390000Y-73860373D01*
X142390000Y-74039627D01*
X142424971Y-74215437D01*
X142493569Y-74381047D01*
X142593157Y-74530091D01*
X142719909Y-74656843D01*
X142868953Y-74756431D01*
X143034563Y-74825029D01*
X143210373Y-74860000D01*
X143389627Y-74860000D01*
X143565437Y-74825029D01*
X143731047Y-74756431D01*
X143880091Y-74656843D01*
X144006843Y-74530091D01*
X144106431Y-74381047D01*
X144175029Y-74215437D01*
X144210000Y-74039627D01*
X144210000Y-73860373D01*
X144175029Y-73684563D01*
X144166965Y-73665096D01*
X144203621Y-73610237D01*
X144272219Y-73444627D01*
X144307190Y-73268817D01*
X144307190Y-73089563D01*
X144272219Y-72913753D01*
X144203621Y-72748143D01*
X144104033Y-72599099D01*
X143977281Y-72472347D01*
X143828237Y-72372759D01*
X143662627Y-72304161D01*
X143486817Y-72269190D01*
X143307563Y-72269190D01*
X143131753Y-72304161D01*
X142966143Y-72372759D01*
X142817099Y-72472347D01*
X142690347Y-72599099D01*
X142590759Y-72748143D01*
X142522161Y-72913753D01*
X142487190Y-73089563D01*
X142487190Y-73268817D01*
X142522161Y-73444627D01*
X142530225Y-73464094D01*
X142493569Y-73518953D01*
X142424971Y-73684563D01*
X142390000Y-73860373D01*
X140517466Y-73860373D01*
X140517205Y-73859744D01*
X140403937Y-73690226D01*
X140259774Y-73546063D01*
X140090256Y-73432795D01*
X139901898Y-73354774D01*
X139701939Y-73315000D01*
X139498061Y-73315000D01*
X139298102Y-73354774D01*
X139109744Y-73432795D01*
X138940226Y-73546063D01*
X138796063Y-73690226D01*
X138682795Y-73859744D01*
X138604774Y-74048102D01*
X138565000Y-74248061D01*
X127485000Y-74248061D01*
X127485000Y-69338454D01*
X127517205Y-69290256D01*
X127595226Y-69101898D01*
X127635000Y-68901939D01*
X127635000Y-68698061D01*
X127632004Y-68682999D01*
X135118519Y-68682999D01*
X135124971Y-68715437D01*
X135193569Y-68881047D01*
X135293157Y-69030091D01*
X135419909Y-69156843D01*
X135568953Y-69256431D01*
X135734563Y-69325029D01*
X135910373Y-69360000D01*
X136089627Y-69360000D01*
X136140001Y-69349980D01*
X136140000Y-70915125D01*
X136136565Y-70950000D01*
X136140000Y-70984875D01*
X136140000Y-70984876D01*
X136150273Y-71089183D01*
X136190872Y-71223019D01*
X136256800Y-71346362D01*
X136345525Y-71454474D01*
X136372618Y-71476709D01*
X136523284Y-71627374D01*
X136545525Y-71654475D01*
X136653637Y-71743200D01*
X136776980Y-71809128D01*
X136910816Y-71849727D01*
X137015123Y-71860000D01*
X137015125Y-71860000D01*
X137050000Y-71863435D01*
X137084875Y-71860000D01*
X145615125Y-71860000D01*
X145650000Y-71863435D01*
X145684875Y-71860000D01*
X145684877Y-71860000D01*
X145789184Y-71849727D01*
X145923020Y-71809128D01*
X146046363Y-71743200D01*
X146154475Y-71654475D01*
X146176713Y-71627378D01*
X146327374Y-71476716D01*
X146354475Y-71454475D01*
X146443200Y-71346363D01*
X146503632Y-71233302D01*
X146556843Y-71180091D01*
X146656431Y-71031047D01*
X146725029Y-70865437D01*
X146760000Y-70689627D01*
X146760000Y-70510373D01*
X146725029Y-70334563D01*
X146656431Y-70168953D01*
X146556843Y-70019909D01*
X146430091Y-69893157D01*
X146281047Y-69793569D01*
X146115437Y-69724971D01*
X145939627Y-69690000D01*
X145760373Y-69690000D01*
X145584563Y-69724971D01*
X145575173Y-69728861D01*
X145467994Y-69684466D01*
X145515437Y-69675029D01*
X145681047Y-69606431D01*
X145830091Y-69506843D01*
X145956843Y-69380091D01*
X146056431Y-69231047D01*
X146125029Y-69065437D01*
X146160000Y-68889627D01*
X146160000Y-68710373D01*
X146125029Y-68534563D01*
X146056431Y-68368953D01*
X145956843Y-68219909D01*
X145830091Y-68093157D01*
X145681047Y-67993569D01*
X145515437Y-67924971D01*
X145387312Y-67899485D01*
X145368175Y-67880348D01*
X145346303Y-67853697D01*
X145239943Y-67766409D01*
X145118597Y-67701548D01*
X144986930Y-67661607D01*
X144884309Y-67651500D01*
X144884298Y-67651500D01*
X144850000Y-67648122D01*
X144815702Y-67651500D01*
X143209356Y-67651500D01*
X143256431Y-67581047D01*
X143325029Y-67415437D01*
X143360000Y-67239627D01*
X143360000Y-67060373D01*
X143325029Y-66884563D01*
X143256431Y-66718953D01*
X143156843Y-66569909D01*
X143030091Y-66443157D01*
X143017883Y-66435000D01*
X144508175Y-66435000D01*
X144524971Y-66519437D01*
X144593569Y-66685047D01*
X144693157Y-66834091D01*
X144819909Y-66960843D01*
X144968953Y-67060431D01*
X145134563Y-67129029D01*
X145310373Y-67164000D01*
X145489627Y-67164000D01*
X145665437Y-67129029D01*
X145831047Y-67060431D01*
X145980091Y-66960843D01*
X146106843Y-66834091D01*
X146206431Y-66685047D01*
X146275029Y-66519437D01*
X146310000Y-66343627D01*
X146310000Y-66164373D01*
X146285000Y-66038690D01*
X146285000Y-65908557D01*
X146289281Y-65865091D01*
X146285000Y-65821625D01*
X146285000Y-65821615D01*
X146272195Y-65691602D01*
X146221589Y-65524779D01*
X146139411Y-65371033D01*
X146028817Y-65236275D01*
X145995045Y-65208559D01*
X145741442Y-64954956D01*
X145713725Y-64921183D01*
X145578967Y-64810589D01*
X145425221Y-64728411D01*
X145258398Y-64677805D01*
X145128385Y-64665000D01*
X145128377Y-64665000D01*
X145084908Y-64660719D01*
X145041439Y-64665000D01*
X140143469Y-64665000D01*
X140100000Y-64660719D01*
X140056531Y-64665000D01*
X140056523Y-64665000D01*
X139926510Y-64677805D01*
X139759687Y-64728411D01*
X139605941Y-64810589D01*
X139471183Y-64921183D01*
X139443466Y-64954956D01*
X139004952Y-65393470D01*
X138971184Y-65421183D01*
X138943471Y-65454951D01*
X138943468Y-65454954D01*
X138860590Y-65555941D01*
X138778412Y-65709687D01*
X138727805Y-65876510D01*
X138710719Y-66050000D01*
X138715001Y-66093478D01*
X138715000Y-66912999D01*
X132785460Y-66912999D01*
X132810000Y-66789627D01*
X132810000Y-66610373D01*
X132775029Y-66434563D01*
X132706431Y-66268953D01*
X132606843Y-66119909D01*
X132480091Y-65993157D01*
X132331047Y-65893569D01*
X132165437Y-65824971D01*
X131989627Y-65790000D01*
X131810373Y-65790000D01*
X131634563Y-65824971D01*
X131468953Y-65893569D01*
X131319909Y-65993157D01*
X131193157Y-66119909D01*
X131093569Y-66268953D01*
X131024971Y-66434563D01*
X130990000Y-66610373D01*
X130990000Y-66789627D01*
X131014540Y-66912999D01*
X117885000Y-66912999D01*
X117885000Y-66393465D01*
X117889281Y-66349999D01*
X117885000Y-66306533D01*
X117885000Y-66306523D01*
X117872195Y-66176510D01*
X117821589Y-66009687D01*
X117739411Y-65855941D01*
X117628817Y-65721183D01*
X117595045Y-65693467D01*
X117206534Y-65304956D01*
X117178817Y-65271183D01*
X117044059Y-65160589D01*
X116890313Y-65078411D01*
X116860000Y-65069216D01*
X116860000Y-65010373D01*
X116825029Y-64834563D01*
X116756431Y-64668953D01*
X116686600Y-64564444D01*
X116686600Y-60382999D01*
X121968519Y-60382999D01*
X121974971Y-60415437D01*
X122043569Y-60581047D01*
X122143157Y-60730091D01*
X122269909Y-60856843D01*
X122418953Y-60956431D01*
X122584563Y-61025029D01*
X122744508Y-61056844D01*
X122841750Y-61108821D01*
X122980600Y-61150941D01*
X123088813Y-61161599D01*
X123088822Y-61161599D01*
X123124998Y-61165162D01*
X123161174Y-61161599D01*
X129338818Y-61161599D01*
X129375001Y-61165163D01*
X129411184Y-61161599D01*
X129411187Y-61161599D01*
X129519400Y-61150941D01*
X129658250Y-61108821D01*
X129786214Y-61040423D01*
X129898376Y-60948374D01*
X129921447Y-60920262D01*
X130245268Y-60596441D01*
X130273374Y-60573375D01*
X130365424Y-60461213D01*
X130433822Y-60333249D01*
X130475942Y-60194399D01*
X130486600Y-60086186D01*
X130486600Y-60086185D01*
X130490164Y-60050000D01*
X130486600Y-60013814D01*
X130486600Y-56182999D01*
X160596330Y-56182999D01*
X160574971Y-56234563D01*
X160540000Y-56410373D01*
X160540000Y-56589627D01*
X160574971Y-56765437D01*
X160643569Y-56931047D01*
X160743157Y-57080091D01*
X160869909Y-57206843D01*
X161018953Y-57306431D01*
X161184563Y-57375029D01*
X161360373Y-57410000D01*
X161539627Y-57410000D01*
X161715437Y-57375029D01*
X161881047Y-57306431D01*
X162030091Y-57206843D01*
X162156843Y-57080091D01*
X162256431Y-56931047D01*
X162325029Y-56765437D01*
X162360000Y-56589627D01*
X162360000Y-56410373D01*
X162325029Y-56234563D01*
X162303670Y-56182999D01*
X166207411Y-56182999D01*
X166116569Y-56318953D01*
X166047971Y-56484563D01*
X166013000Y-56660373D01*
X166013000Y-56839627D01*
X166047971Y-57015437D01*
X166116569Y-57181047D01*
X166216157Y-57330091D01*
X166342909Y-57456843D01*
X166460843Y-57535644D01*
X166536196Y-57610997D01*
X166547163Y-57624361D01*
X166540000Y-57660373D01*
X166540000Y-57839627D01*
X166574971Y-58015437D01*
X166595501Y-58065000D01*
X136563121Y-58065000D01*
X136531047Y-58043569D01*
X136365437Y-57974971D01*
X136189627Y-57940000D01*
X136010373Y-57940000D01*
X135834563Y-57974971D01*
X135668953Y-58043569D01*
X135519909Y-58143157D01*
X135393157Y-58269909D01*
X135293569Y-58418953D01*
X135224971Y-58584563D01*
X135190000Y-58760373D01*
X135190000Y-58939627D01*
X135224971Y-59115437D01*
X135293569Y-59281047D01*
X135393157Y-59430091D01*
X135519909Y-59556843D01*
X135651744Y-59644932D01*
X135705941Y-59689411D01*
X135859687Y-59771589D01*
X136026510Y-59822195D01*
X136156523Y-59835000D01*
X136156533Y-59835000D01*
X136199999Y-59839281D01*
X136243465Y-59835000D01*
X137015272Y-59835000D01*
X136971183Y-59871183D01*
X136943466Y-59904956D01*
X136554956Y-60293466D01*
X136521183Y-60321183D01*
X136410589Y-60455942D01*
X136328411Y-60609688D01*
X136299213Y-60705940D01*
X136277978Y-60775942D01*
X136277805Y-60776511D01*
X136265000Y-60906524D01*
X136265000Y-60906531D01*
X136260719Y-60950000D01*
X136265000Y-60993469D01*
X136265000Y-61634690D01*
X136240000Y-61760373D01*
X136240000Y-61917001D01*
X134385000Y-61917001D01*
X134385000Y-58865310D01*
X134410000Y-58739627D01*
X134410000Y-58560373D01*
X134375029Y-58384563D01*
X134306431Y-58218953D01*
X134206843Y-58069909D01*
X134080091Y-57943157D01*
X133931047Y-57843569D01*
X133765437Y-57774971D01*
X133589627Y-57740000D01*
X133410373Y-57740000D01*
X133234563Y-57774971D01*
X133068953Y-57843569D01*
X132919909Y-57943157D01*
X132793157Y-58069909D01*
X132693569Y-58218953D01*
X132624971Y-58384563D01*
X132590000Y-58560373D01*
X132590000Y-58739627D01*
X132615000Y-58865310D01*
X132615001Y-62306521D01*
X132610719Y-62350000D01*
X132627805Y-62523490D01*
X132678412Y-62690313D01*
X132760590Y-62844059D01*
X132843468Y-62945046D01*
X132843471Y-62945049D01*
X132871184Y-62978817D01*
X132904952Y-63006530D01*
X133295467Y-63397045D01*
X133323184Y-63430818D01*
X133457942Y-63541412D01*
X133611688Y-63623590D01*
X133727904Y-63658844D01*
X133778510Y-63674196D01*
X133793307Y-63675653D01*
X133908524Y-63687001D01*
X133908532Y-63687001D01*
X133952001Y-63691282D01*
X133995470Y-63687001D01*
X148685423Y-63687001D01*
X148915001Y-63916580D01*
X148915000Y-67884690D01*
X148890000Y-68010373D01*
X148890000Y-68189627D01*
X148924971Y-68365437D01*
X148993569Y-68531047D01*
X149093157Y-68680091D01*
X149219909Y-68806843D01*
X149368953Y-68906431D01*
X149534563Y-68975029D01*
X149710373Y-69010000D01*
X149889627Y-69010000D01*
X150065437Y-68975029D01*
X150201983Y-68918470D01*
X150243157Y-68980091D01*
X150369909Y-69106843D01*
X150518953Y-69206431D01*
X150684563Y-69275029D01*
X150860373Y-69310000D01*
X151039627Y-69310000D01*
X151215437Y-69275029D01*
X151381047Y-69206431D01*
X151530091Y-69106843D01*
X151656843Y-68980091D01*
X151756431Y-68831047D01*
X151825029Y-68665437D01*
X151860000Y-68489627D01*
X151860000Y-68310373D01*
X151835000Y-68184690D01*
X151835000Y-61243465D01*
X151839281Y-61199999D01*
X151835000Y-61156533D01*
X151835000Y-61156523D01*
X151822195Y-61026510D01*
X151771589Y-60859687D01*
X151689411Y-60705941D01*
X151578817Y-60571183D01*
X151545049Y-60543470D01*
X150906534Y-59904956D01*
X150878817Y-59871183D01*
X150834728Y-59835000D01*
X170333422Y-59835000D01*
X170515001Y-60016580D01*
X170515000Y-96506531D01*
X170510719Y-96550000D01*
X170515000Y-96593469D01*
X170515000Y-96593476D01*
X170519048Y-96634576D01*
X170527805Y-96723490D01*
X170536111Y-96750871D01*
X170578411Y-96890312D01*
X170644202Y-97013400D01*
X165985556Y-97013400D01*
X165881047Y-96943569D01*
X165715437Y-96874971D01*
X165539627Y-96840000D01*
X165360373Y-96840000D01*
X165184563Y-96874971D01*
X165018953Y-96943569D01*
X164869909Y-97043157D01*
X164743157Y-97169909D01*
X164643569Y-97318953D01*
X164574971Y-97484563D01*
X164540000Y-97660373D01*
X164540000Y-97839627D01*
X164574971Y-98015437D01*
X164643569Y-98181047D01*
X164743157Y-98330091D01*
X164869909Y-98456843D01*
X165018953Y-98556431D01*
X165184563Y-98625029D01*
X165360373Y-98660000D01*
X165539627Y-98660000D01*
X165715437Y-98625029D01*
X165881047Y-98556431D01*
X165985556Y-98486600D01*
X175913400Y-98486600D01*
X175913400Y-98913817D01*
X175909836Y-98950000D01*
X175913400Y-98986183D01*
X175913400Y-98986186D01*
X175924058Y-99094399D01*
X175952946Y-99189627D01*
X175966178Y-99233247D01*
X176034576Y-99361212D01*
X176100231Y-99441212D01*
X176126626Y-99473375D01*
X176154732Y-99496441D01*
X176403554Y-99745263D01*
X176426625Y-99773375D01*
X176538787Y-99865424D01*
X176666751Y-99933822D01*
X176805601Y-99975942D01*
X176913814Y-99986600D01*
X176913823Y-99986600D01*
X176949999Y-99990163D01*
X176986175Y-99986600D01*
X177612113Y-99986600D01*
X177561150Y-100095678D01*
X177497281Y-100355849D01*
X177485396Y-100623482D01*
X177525952Y-100888291D01*
X177617391Y-101140100D01*
X177674550Y-101247035D01*
X177910867Y-101309528D01*
X178670395Y-100550000D01*
X178656253Y-100535858D01*
X178835858Y-100356253D01*
X178850000Y-100370395D01*
X178864143Y-100356253D01*
X179043748Y-100535858D01*
X179029605Y-100550000D01*
X179789133Y-101309528D01*
X180025450Y-101247035D01*
X180138850Y-101004322D01*
X180202719Y-100744151D01*
X180214604Y-100476518D01*
X180174048Y-100211709D01*
X180082609Y-99959900D01*
X180025450Y-99852965D01*
X179789135Y-99790473D01*
X179905688Y-99673920D01*
X179836739Y-99604971D01*
X179865268Y-99576441D01*
X179893374Y-99553375D01*
X179985424Y-99441213D01*
X180053822Y-99313249D01*
X180095942Y-99174399D01*
X180106600Y-99066186D01*
X180106600Y-99066184D01*
X180110164Y-99030000D01*
X180106600Y-98993817D01*
X180106600Y-98583773D01*
X180176449Y-98526449D01*
X180318284Y-98353623D01*
X180423676Y-98156447D01*
X180488577Y-97942499D01*
X180510491Y-97720000D01*
X180488577Y-97497501D01*
X180423676Y-97283553D01*
X180318284Y-97086377D01*
X180317154Y-97085000D01*
X180318284Y-97083623D01*
X180423676Y-96886447D01*
X180488577Y-96672499D01*
X180510491Y-96450000D01*
X180488577Y-96227501D01*
X180423676Y-96013553D01*
X180318284Y-95816377D01*
X180317154Y-95815000D01*
X180318284Y-95813623D01*
X180423676Y-95616447D01*
X180488577Y-95402499D01*
X180510491Y-95180000D01*
X180488577Y-94957501D01*
X180423676Y-94743553D01*
X180318284Y-94546377D01*
X180317154Y-94545000D01*
X180318284Y-94543623D01*
X180423676Y-94346447D01*
X180488577Y-94132499D01*
X180510491Y-93910000D01*
X180488577Y-93687501D01*
X180423676Y-93473553D01*
X180318284Y-93276377D01*
X180317154Y-93275000D01*
X180318284Y-93273623D01*
X180423676Y-93076447D01*
X180488577Y-92862499D01*
X180510491Y-92640000D01*
X180488577Y-92417501D01*
X180423676Y-92203553D01*
X180318284Y-92006377D01*
X180176449Y-91833551D01*
X180003623Y-91691716D01*
X179884942Y-91628280D01*
X179874474Y-91615525D01*
X179847383Y-91593292D01*
X179676712Y-91422621D01*
X179654475Y-91395525D01*
X179546363Y-91306800D01*
X179423020Y-91240872D01*
X179289184Y-91200273D01*
X179184877Y-91190000D01*
X179184875Y-91190000D01*
X179150000Y-91186565D01*
X179115125Y-91190000D01*
X177138477Y-91190000D01*
X177103600Y-91186565D01*
X176964415Y-91200273D01*
X176897498Y-91220572D01*
X176830580Y-91240872D01*
X176825476Y-91243600D01*
X176760373Y-91243600D01*
X176584563Y-91278571D01*
X176418953Y-91347169D01*
X176269909Y-91446757D01*
X176143157Y-91573509D01*
X176043569Y-91722553D01*
X175974971Y-91888163D01*
X175940000Y-92063973D01*
X175940000Y-92065336D01*
X175812627Y-92040000D01*
X175633373Y-92040000D01*
X175457563Y-92074971D01*
X175291953Y-92143569D01*
X175142909Y-92243157D01*
X175016157Y-92369909D01*
X174916569Y-92518953D01*
X174847971Y-92684563D01*
X174813000Y-92860373D01*
X174813000Y-93039627D01*
X174847971Y-93215437D01*
X174916569Y-93381047D01*
X175016157Y-93530091D01*
X175142909Y-93656843D01*
X175291953Y-93756431D01*
X175457563Y-93825029D01*
X175633373Y-93860000D01*
X175812627Y-93860000D01*
X175988437Y-93825029D01*
X176154047Y-93756431D01*
X176223536Y-93710000D01*
X176796240Y-93710000D01*
X176833562Y-93713676D01*
X176870884Y-93710000D01*
X176870895Y-93710000D01*
X176982548Y-93699003D01*
X177055483Y-93676879D01*
X177132046Y-93783000D01*
X177973000Y-93783000D01*
X177973000Y-93778072D01*
X178227000Y-93778072D01*
X178227000Y-93783000D01*
X178242017Y-93783000D01*
X178229509Y-93910000D01*
X178242017Y-94037000D01*
X178227000Y-94037000D01*
X178227000Y-95053000D01*
X178242017Y-95053000D01*
X178229509Y-95180000D01*
X178242017Y-95307000D01*
X178227000Y-95307000D01*
X178227000Y-95322017D01*
X178155752Y-95315000D01*
X178044248Y-95315000D01*
X177973000Y-95322017D01*
X177973000Y-95307000D01*
X177132046Y-95307000D01*
X177005881Y-95481874D01*
X177022554Y-95536864D01*
X177112877Y-95740206D01*
X177159726Y-95806617D01*
X177151716Y-95816377D01*
X177046324Y-96013553D01*
X176981423Y-96227501D01*
X176959509Y-96450000D01*
X176981423Y-96672499D01*
X177046324Y-96886447D01*
X177151716Y-97083623D01*
X177159726Y-97093383D01*
X177112877Y-97159794D01*
X177022554Y-97363136D01*
X177005881Y-97418126D01*
X177125151Y-97583442D01*
X176796446Y-97254737D01*
X176773375Y-97226625D01*
X176661213Y-97134576D01*
X176533249Y-97066178D01*
X176394399Y-97024058D01*
X176286186Y-97013400D01*
X176286183Y-97013400D01*
X176250000Y-97009836D01*
X176213817Y-97013400D01*
X172710000Y-97013400D01*
X172710000Y-96860373D01*
X172675029Y-96684563D01*
X172606431Y-96518953D01*
X172506843Y-96369909D01*
X172380091Y-96243157D01*
X172285000Y-96179619D01*
X172285000Y-94211874D01*
X177005881Y-94211874D01*
X177022554Y-94266864D01*
X177112877Y-94470206D01*
X177165639Y-94545000D01*
X177112877Y-94619794D01*
X177022554Y-94823136D01*
X177005881Y-94878126D01*
X177132046Y-95053000D01*
X177973000Y-95053000D01*
X177973000Y-94037000D01*
X177132046Y-94037000D01*
X177005881Y-94211874D01*
X172285000Y-94211874D01*
X172285000Y-80160373D01*
X183390000Y-80160373D01*
X183390000Y-80339627D01*
X183424971Y-80515437D01*
X183493569Y-80681047D01*
X183593157Y-80830091D01*
X183719909Y-80956843D01*
X183868953Y-81056431D01*
X184034563Y-81125029D01*
X184210373Y-81160000D01*
X184389627Y-81160000D01*
X184565437Y-81125029D01*
X184731047Y-81056431D01*
X184880091Y-80956843D01*
X185006843Y-80830091D01*
X185106431Y-80681047D01*
X185175029Y-80515437D01*
X185210000Y-80339627D01*
X185210000Y-80160373D01*
X185175029Y-79984563D01*
X185106431Y-79818953D01*
X185006843Y-79669909D01*
X184880091Y-79543157D01*
X184731047Y-79443569D01*
X184565437Y-79374971D01*
X184389627Y-79340000D01*
X184210373Y-79340000D01*
X184034563Y-79374971D01*
X183868953Y-79443569D01*
X183719909Y-79543157D01*
X183593157Y-79669909D01*
X183493569Y-79818953D01*
X183424971Y-79984563D01*
X183390000Y-80160373D01*
X172285000Y-80160373D01*
X172285000Y-79910000D01*
X172339627Y-79910000D01*
X172515437Y-79875029D01*
X172658253Y-79815873D01*
X172718953Y-79856431D01*
X172884563Y-79925029D01*
X173060373Y-79960000D01*
X173239627Y-79960000D01*
X173415437Y-79925029D01*
X173581047Y-79856431D01*
X173675000Y-79793654D01*
X173768953Y-79856431D01*
X173934563Y-79925029D01*
X174110373Y-79960000D01*
X174289627Y-79960000D01*
X174465437Y-79925029D01*
X174631047Y-79856431D01*
X174780091Y-79756843D01*
X174906843Y-79630091D01*
X175006431Y-79481047D01*
X175075029Y-79315437D01*
X175110000Y-79139627D01*
X175110000Y-78960373D01*
X175085000Y-78834690D01*
X175085000Y-53593465D01*
X175089281Y-53549999D01*
X175085000Y-53506533D01*
X175085000Y-53506523D01*
X175072195Y-53376510D01*
X175021589Y-53209687D01*
X174939411Y-53055941D01*
X174828817Y-52921183D01*
X174795049Y-52893470D01*
X174706074Y-52804495D01*
X185515000Y-52804495D01*
X185515000Y-53195505D01*
X185591282Y-53579003D01*
X185740915Y-53940250D01*
X185958149Y-54265364D01*
X186234636Y-54541851D01*
X186559750Y-54759085D01*
X186920997Y-54908718D01*
X187304495Y-54985000D01*
X187695505Y-54985000D01*
X188079003Y-54908718D01*
X188440250Y-54759085D01*
X188765364Y-54541851D01*
X189041851Y-54265364D01*
X189259085Y-53940250D01*
X189408718Y-53579003D01*
X189485000Y-53195505D01*
X189485000Y-52804495D01*
X189408718Y-52420997D01*
X189259085Y-52059750D01*
X189041851Y-51734636D01*
X188765364Y-51458149D01*
X188440250Y-51240915D01*
X188079003Y-51091282D01*
X187695505Y-51015000D01*
X187304495Y-51015000D01*
X186920997Y-51091282D01*
X186559750Y-51240915D01*
X186234636Y-51458149D01*
X185958149Y-51734636D01*
X185740915Y-52059750D01*
X185591282Y-52420997D01*
X185515000Y-52804495D01*
X174706074Y-52804495D01*
X174156534Y-52254956D01*
X174128817Y-52221183D01*
X173994059Y-52110589D01*
X173840313Y-52028411D01*
X173673490Y-51977805D01*
X173543477Y-51965000D01*
X173543469Y-51965000D01*
X173500000Y-51960719D01*
X173456531Y-51965000D01*
X163243466Y-51965000D01*
X163199999Y-51960719D01*
X163156533Y-51965000D01*
X163156523Y-51965000D01*
X163026510Y-51977805D01*
X162859687Y-52028411D01*
X162705941Y-52110589D01*
X162571183Y-52221183D01*
X162543466Y-52254956D01*
X162304956Y-52493466D01*
X162271183Y-52521183D01*
X162160589Y-52655942D01*
X162078411Y-52809688D01*
X162054048Y-52890000D01*
X162034345Y-52954953D01*
X162027805Y-52976511D01*
X162015000Y-53106524D01*
X162015000Y-53106531D01*
X162010719Y-53150000D01*
X162015000Y-53193469D01*
X162015000Y-53584690D01*
X161990000Y-53710373D01*
X161990000Y-53889627D01*
X162024971Y-54065437D01*
X162086259Y-54213400D01*
X129611175Y-54213400D01*
X129574999Y-54209837D01*
X129538823Y-54213400D01*
X129538814Y-54213400D01*
X129430601Y-54224058D01*
X129291751Y-54266178D01*
X129163787Y-54334576D01*
X129051625Y-54426625D01*
X129028554Y-54454737D01*
X128704732Y-54778559D01*
X128676626Y-54801625D01*
X128653560Y-54829731D01*
X128653558Y-54829733D01*
X128584576Y-54913788D01*
X128516178Y-55041753D01*
X128500208Y-55094399D01*
X128474059Y-55180601D01*
X128472792Y-55193468D01*
X128459836Y-55325000D01*
X128463401Y-55361193D01*
X128463400Y-58894891D01*
X128448492Y-58909799D01*
X116389784Y-58909799D01*
X116353600Y-58906235D01*
X116317417Y-58909799D01*
X116317415Y-58909799D01*
X116209202Y-58920457D01*
X116070352Y-58962577D01*
X115942388Y-59030975D01*
X115830226Y-59123024D01*
X115807155Y-59151136D01*
X115454733Y-59503558D01*
X115426626Y-59526625D01*
X115403560Y-59554731D01*
X115403558Y-59554733D01*
X115334576Y-59638788D01*
X115307518Y-59689411D01*
X115269788Y-59760000D01*
X115266178Y-59766753D01*
X115245476Y-59835000D01*
X115225266Y-59901624D01*
X115224059Y-59905602D01*
X115209836Y-60050000D01*
X115213401Y-60086193D01*
X115213400Y-64564443D01*
X115143569Y-64668953D01*
X115074971Y-64834563D01*
X115041320Y-65003736D01*
X114934563Y-65024971D01*
X114768953Y-65093569D01*
X114619909Y-65193157D01*
X114493157Y-65319909D01*
X114393569Y-65468953D01*
X114324971Y-65634563D01*
X114290000Y-65810373D01*
X114290000Y-65989627D01*
X114324971Y-66165437D01*
X114335145Y-66190000D01*
X111700536Y-66190000D01*
X111631047Y-66143569D01*
X111465437Y-66074971D01*
X111289627Y-66040000D01*
X111110373Y-66040000D01*
X110934563Y-66074971D01*
X110868175Y-66102470D01*
X110962142Y-65963868D01*
X111068173Y-65712684D01*
X111082318Y-65641185D01*
X110959656Y-65427000D01*
X109267000Y-65427000D01*
X109013000Y-65427000D01*
X107320344Y-65427000D01*
X107197682Y-65641185D01*
X104542318Y-65641185D01*
X104419656Y-65427000D01*
X102727000Y-65427000D01*
X102473000Y-65427000D01*
X102453000Y-65427000D01*
X102453000Y-65173000D01*
X102473000Y-65173000D01*
X102473000Y-63915000D01*
X102727000Y-63915000D01*
X102727000Y-65173000D01*
X104419656Y-65173000D01*
X104542318Y-64958815D01*
X107197682Y-64958815D01*
X107320344Y-65173000D01*
X109013000Y-65173000D01*
X109013000Y-63915000D01*
X109267000Y-63915000D01*
X109267000Y-65173000D01*
X110959656Y-65173000D01*
X111082318Y-64958815D01*
X111068173Y-64887316D01*
X110962142Y-64636132D01*
X110809145Y-64410460D01*
X110615061Y-64218972D01*
X110387349Y-64069028D01*
X110134760Y-63966389D01*
X109867000Y-63915000D01*
X109267000Y-63915000D01*
X109013000Y-63915000D01*
X108413000Y-63915000D01*
X108145240Y-63966389D01*
X107892651Y-64069028D01*
X107664939Y-64218972D01*
X107470855Y-64410460D01*
X107317858Y-64636132D01*
X107211827Y-64887316D01*
X107197682Y-64958815D01*
X104542318Y-64958815D01*
X104528173Y-64887316D01*
X104422142Y-64636132D01*
X104269145Y-64410460D01*
X104075061Y-64218972D01*
X103847349Y-64069028D01*
X103594760Y-63966389D01*
X103327000Y-63915000D01*
X102727000Y-63915000D01*
X102473000Y-63915000D01*
X101873000Y-63915000D01*
X101605240Y-63966389D01*
X101352651Y-64069028D01*
X101160000Y-64195885D01*
X101160000Y-62527980D01*
X103801626Y-62527980D01*
X103921514Y-62812836D01*
X104245210Y-62973699D01*
X104594069Y-63068322D01*
X104954684Y-63093067D01*
X105313198Y-63046985D01*
X105655833Y-62931846D01*
X105878486Y-62812836D01*
X105998374Y-62527980D01*
X104900000Y-61429605D01*
X103801626Y-62527980D01*
X101160000Y-62527980D01*
X101160000Y-61304684D01*
X103056933Y-61304684D01*
X103103015Y-61663198D01*
X103218154Y-62005833D01*
X103337164Y-62228486D01*
X103622020Y-62348374D01*
X104720395Y-61250000D01*
X105079605Y-61250000D01*
X106177980Y-62348374D01*
X106462836Y-62228486D01*
X106623699Y-61904790D01*
X106718322Y-61555931D01*
X106743067Y-61195316D01*
X106696985Y-60836802D01*
X106581846Y-60494167D01*
X106462836Y-60271514D01*
X106177980Y-60151626D01*
X105079605Y-61250000D01*
X104720395Y-61250000D01*
X103622020Y-60151626D01*
X103337164Y-60271514D01*
X103176301Y-60595210D01*
X103081678Y-60944069D01*
X103056933Y-61304684D01*
X101160000Y-61304684D01*
X101160000Y-56550000D01*
X103061928Y-56550000D01*
X103061928Y-58950000D01*
X103074188Y-59074482D01*
X103110498Y-59194180D01*
X103169463Y-59304494D01*
X103248815Y-59401185D01*
X103345506Y-59480537D01*
X103455820Y-59539502D01*
X103575518Y-59575812D01*
X103700000Y-59588072D01*
X104106903Y-59588072D01*
X103921514Y-59687164D01*
X103801626Y-59972020D01*
X104900000Y-61070395D01*
X105998374Y-59972020D01*
X105878486Y-59687164D01*
X105679088Y-59588072D01*
X106100000Y-59588072D01*
X106224482Y-59575812D01*
X106344180Y-59539502D01*
X106454494Y-59480537D01*
X106551185Y-59401185D01*
X106630537Y-59304494D01*
X106689502Y-59194180D01*
X106725812Y-59074482D01*
X106738072Y-58950000D01*
X106738072Y-56550000D01*
X106725812Y-56425518D01*
X106689502Y-56305820D01*
X106630537Y-56195506D01*
X106551185Y-56098815D01*
X106454494Y-56019463D01*
X106344180Y-55960498D01*
X106224482Y-55924188D01*
X106100000Y-55911928D01*
X103700000Y-55911928D01*
X103575518Y-55924188D01*
X103455820Y-55960498D01*
X103345506Y-56019463D01*
X103248815Y-56098815D01*
X103169463Y-56195506D01*
X103110498Y-56305820D01*
X103074188Y-56425518D01*
X103061928Y-56550000D01*
X101160000Y-56550000D01*
X101160000Y-52804495D01*
X101515000Y-52804495D01*
X101515000Y-53195505D01*
X101591282Y-53579003D01*
X101740915Y-53940250D01*
X101958149Y-54265364D01*
X102234636Y-54541851D01*
X102559750Y-54759085D01*
X102920997Y-54908718D01*
X103304495Y-54985000D01*
X103695505Y-54985000D01*
X104079003Y-54908718D01*
X104440250Y-54759085D01*
X104765364Y-54541851D01*
X105041851Y-54265364D01*
X105259085Y-53940250D01*
X105408718Y-53579003D01*
X105485000Y-53195505D01*
X105485000Y-52804495D01*
X105408718Y-52420997D01*
X105259085Y-52059750D01*
X105041851Y-51734636D01*
X104765364Y-51458149D01*
X104440250Y-51240915D01*
X104079003Y-51091282D01*
X103695505Y-51015000D01*
X103304495Y-51015000D01*
X102920997Y-51091282D01*
X102559750Y-51240915D01*
X102234636Y-51458149D01*
X101958149Y-51734636D01*
X101740915Y-52059750D01*
X101591282Y-52420997D01*
X101515000Y-52804495D01*
X101160000Y-52804495D01*
X101160000Y-52032279D01*
X101188625Y-51740341D01*
X101264035Y-51490571D01*
X101386522Y-51260208D01*
X101551422Y-51058020D01*
X101752450Y-50891714D01*
X101981954Y-50767622D01*
X102231195Y-50690469D01*
X102521088Y-50660000D01*
X188467721Y-50660000D01*
X188759659Y-50688625D01*
G36*
X178227000Y-97593000D02*
G01*
X178242017Y-97593000D01*
X178229509Y-97720000D01*
X178242017Y-97847000D01*
X178227000Y-97847000D01*
X178227000Y-97867000D01*
X177973000Y-97867000D01*
X177973000Y-97847000D01*
X177953000Y-97847000D01*
X177953000Y-97593000D01*
X177973000Y-97593000D01*
X177973000Y-97577983D01*
X178044248Y-97585000D01*
X178155752Y-97585000D01*
X178227000Y-97577983D01*
X178227000Y-97593000D01*
X178227000Y-97593000D01*
G37*
X178227000Y-97593000D02*
X178242017Y-97593000D01*
X178229509Y-97720000D01*
X178242017Y-97847000D01*
X178227000Y-97847000D01*
X178227000Y-97867000D01*
X177973000Y-97867000D01*
X177973000Y-97847000D01*
X177953000Y-97847000D01*
X177953000Y-97593000D01*
X177973000Y-97593000D01*
X177973000Y-97577983D01*
X178044248Y-97585000D01*
X178155752Y-97585000D01*
X178227000Y-97577983D01*
X178227000Y-97593000D01*
G36*
X141869909Y-66443157D02*
G01*
X141743157Y-66569909D01*
X141643569Y-66718953D01*
X141574971Y-66884563D01*
X141540000Y-67060373D01*
X141540000Y-67239627D01*
X141574971Y-67415437D01*
X141643569Y-67581047D01*
X141743157Y-67730091D01*
X141869909Y-67856843D01*
X142018953Y-67956431D01*
X142184563Y-68025029D01*
X142239713Y-68035999D01*
X140115579Y-68035999D01*
X140195045Y-67956533D01*
X140228817Y-67928817D01*
X140339411Y-67794059D01*
X140421589Y-67640313D01*
X140472195Y-67473490D01*
X140485000Y-67343477D01*
X140485000Y-67343469D01*
X140489281Y-67300000D01*
X140485000Y-67256531D01*
X140485000Y-66435000D01*
X141882117Y-66435000D01*
X141869909Y-66443157D01*
X141869909Y-66443157D01*
G37*
X141869909Y-66443157D02*
X141743157Y-66569909D01*
X141643569Y-66718953D01*
X141574971Y-66884563D01*
X141540000Y-67060373D01*
X141540000Y-67239627D01*
X141574971Y-67415437D01*
X141643569Y-67581047D01*
X141743157Y-67730091D01*
X141869909Y-67856843D01*
X142018953Y-67956431D01*
X142184563Y-68025029D01*
X142239713Y-68035999D01*
X140115579Y-68035999D01*
X140195045Y-67956533D01*
X140228817Y-67928817D01*
X140339411Y-67794059D01*
X140421589Y-67640313D01*
X140472195Y-67473490D01*
X140485000Y-67343477D01*
X140485000Y-67343469D01*
X140489281Y-67300000D01*
X140485000Y-67256531D01*
X140485000Y-66435000D01*
X141882117Y-66435000D01*
X141869909Y-66443157D01*
G36*
X173315001Y-53916580D02*
G01*
X173315001Y-56740199D01*
X173163803Y-56589002D01*
X173140001Y-56559999D01*
X173024276Y-56465026D01*
X172892247Y-56394454D01*
X172748986Y-56350997D01*
X172637333Y-56340000D01*
X172637322Y-56340000D01*
X172600000Y-56336324D01*
X172562678Y-56340000D01*
X167738149Y-56340000D01*
X167729431Y-56318953D01*
X167629843Y-56169909D01*
X167503091Y-56043157D01*
X167439408Y-56000605D01*
X167476976Y-55969774D01*
X167500047Y-55941662D01*
X167895268Y-55546441D01*
X167923374Y-55523375D01*
X168015424Y-55411213D01*
X168083822Y-55283249D01*
X168125942Y-55144399D01*
X168136600Y-55036186D01*
X168136600Y-55036185D01*
X168140164Y-55000000D01*
X168136600Y-54963814D01*
X168136600Y-54685556D01*
X168206431Y-54581047D01*
X168275029Y-54415437D01*
X168310000Y-54239627D01*
X168310000Y-54060373D01*
X168275029Y-53884563D01*
X168213078Y-53735000D01*
X173133422Y-53735000D01*
X173315001Y-53916580D01*
X173315001Y-53916580D01*
G37*
X173315001Y-53916580D02*
X173315001Y-56740199D01*
X173163803Y-56589002D01*
X173140001Y-56559999D01*
X173024276Y-56465026D01*
X172892247Y-56394454D01*
X172748986Y-56350997D01*
X172637333Y-56340000D01*
X172637322Y-56340000D01*
X172600000Y-56336324D01*
X172562678Y-56340000D01*
X167738149Y-56340000D01*
X167729431Y-56318953D01*
X167629843Y-56169909D01*
X167503091Y-56043157D01*
X167439408Y-56000605D01*
X167476976Y-55969774D01*
X167500047Y-55941662D01*
X167895268Y-55546441D01*
X167923374Y-55523375D01*
X168015424Y-55411213D01*
X168083822Y-55283249D01*
X168125942Y-55144399D01*
X168136600Y-55036186D01*
X168136600Y-55036185D01*
X168140164Y-55000000D01*
X168136600Y-54963814D01*
X168136600Y-54685556D01*
X168206431Y-54581047D01*
X168275029Y-54415437D01*
X168310000Y-54239627D01*
X168310000Y-54060373D01*
X168275029Y-53884563D01*
X168213078Y-53735000D01*
X173133422Y-53735000D01*
X173315001Y-53916580D01*
M02*
