G04 #@! TF.GenerationSoftware,KiCad,Pcbnew,(5.1.10)-1*
G04 #@! TF.CreationDate,2021-11-19T20:39:20+03:00*
G04 #@! TF.ProjectId,hdmi_to_mipi-dsi_converter,68646d69-5f74-46f5-9f6d-6970692d6473,rev?*
G04 #@! TF.SameCoordinates,Original*
G04 #@! TF.FileFunction,Paste,Top*
G04 #@! TF.FilePolarity,Positive*
%FSLAX46Y46*%
G04 Gerber Fmt 4.6, Leading zero omitted, Abs format (unit mm)*
G04 Created by KiCad (PCBNEW (5.1.10)-1) date 2021-11-19 20:39:20*
%MOMM*%
%LPD*%
G01*
G04 APERTURE LIST*
%ADD10C,0.010000*%
%ADD11R,3.800000X2.000000*%
%ADD12R,1.500000X2.000000*%
%ADD13R,2.600000X0.280000*%
%ADD14R,1.700000X1.500000*%
%ADD15R,0.250000X1.100000*%
%ADD16R,0.800000X0.900000*%
%ADD17R,1.016000X0.660400*%
%ADD18R,1.200000X1.400000*%
%ADD19R,1.500000X1.900000*%
%ADD20R,0.400000X1.350000*%
%ADD21R,1.500000X1.700000*%
%ADD22R,1.100000X0.250000*%
%ADD23C,0.250000*%
%ADD24R,1.200000X0.900000*%
%ADD25R,2.200000X2.500000*%
%ADD26R,0.900000X1.300000*%
%ADD27C,0.100000*%
%ADD28R,0.850000X0.200000*%
%ADD29R,0.200000X0.850000*%
G04 APERTURE END LIST*
D10*
G36*
X113325000Y-57164000D02*
G01*
X116035000Y-57164000D01*
X116035000Y-60564000D01*
X113325000Y-60564000D01*
X113325000Y-57164000D01*
G37*
X113325000Y-57164000D02*
X116035000Y-57164000D01*
X116035000Y-60564000D01*
X113325000Y-60564000D01*
X113325000Y-57164000D01*
G36*
G01*
X130143750Y-58150000D02*
X130656250Y-58150000D01*
G75*
G02*
X130875000Y-58368750I0J-218750D01*
G01*
X130875000Y-58806250D01*
G75*
G02*
X130656250Y-59025000I-218750J0D01*
G01*
X130143750Y-59025000D01*
G75*
G02*
X129925000Y-58806250I0J218750D01*
G01*
X129925000Y-58368750D01*
G75*
G02*
X130143750Y-58150000I218750J0D01*
G01*
G37*
G36*
G01*
X130143750Y-56575000D02*
X130656250Y-56575000D01*
G75*
G02*
X130875000Y-56793750I0J-218750D01*
G01*
X130875000Y-57231250D01*
G75*
G02*
X130656250Y-57450000I-218750J0D01*
G01*
X130143750Y-57450000D01*
G75*
G02*
X129925000Y-57231250I0J218750D01*
G01*
X129925000Y-56793750D01*
G75*
G02*
X130143750Y-56575000I218750J0D01*
G01*
G37*
G36*
G01*
X126485000Y-67197500D02*
X126485000Y-66852500D01*
G75*
G02*
X126632500Y-66705000I147500J0D01*
G01*
X126927500Y-66705000D01*
G75*
G02*
X127075000Y-66852500I0J-147500D01*
G01*
X127075000Y-67197500D01*
G75*
G02*
X126927500Y-67345000I-147500J0D01*
G01*
X126632500Y-67345000D01*
G75*
G02*
X126485000Y-67197500I0J147500D01*
G01*
G37*
G36*
G01*
X127455000Y-67197500D02*
X127455000Y-66852500D01*
G75*
G02*
X127602500Y-66705000I147500J0D01*
G01*
X127897500Y-66705000D01*
G75*
G02*
X128045000Y-66852500I0J-147500D01*
G01*
X128045000Y-67197500D01*
G75*
G02*
X127897500Y-67345000I-147500J0D01*
G01*
X127602500Y-67345000D01*
G75*
G02*
X127455000Y-67197500I0J147500D01*
G01*
G37*
D11*
X125450000Y-58900000D03*
D12*
X125450000Y-65200000D03*
X127750000Y-65200000D03*
X123150000Y-65200000D03*
D13*
X109900000Y-68050000D03*
X109900000Y-68550000D03*
X109900000Y-69050000D03*
X109900000Y-69550000D03*
X109900000Y-70050000D03*
X109900000Y-70550000D03*
X109900000Y-71050000D03*
X109900000Y-71550000D03*
X109900000Y-72050000D03*
X109900000Y-72550000D03*
X109900000Y-73050000D03*
X109900000Y-73550000D03*
X109900000Y-74050000D03*
X109900000Y-74550000D03*
X109900000Y-75050000D03*
X109900000Y-75550000D03*
X109900000Y-76050000D03*
X109900000Y-76550000D03*
X109900000Y-77050000D03*
X109900000Y-85900000D03*
X109900000Y-86400000D03*
X109900000Y-86900000D03*
X109900000Y-87400000D03*
X109900000Y-87900000D03*
X109900000Y-88400000D03*
X109900000Y-88900000D03*
X109900000Y-89400000D03*
X109900000Y-89900000D03*
X109900000Y-90400000D03*
X109900000Y-90900000D03*
X109900000Y-91400000D03*
X109900000Y-91900000D03*
X109900000Y-92400000D03*
X109900000Y-92900000D03*
X109900000Y-93400000D03*
X109900000Y-93900000D03*
X109900000Y-94400000D03*
X109900000Y-94900000D03*
G36*
G01*
X114027500Y-67040000D02*
X114372500Y-67040000D01*
G75*
G02*
X114520000Y-67187500I0J-147500D01*
G01*
X114520000Y-67482500D01*
G75*
G02*
X114372500Y-67630000I-147500J0D01*
G01*
X114027500Y-67630000D01*
G75*
G02*
X113880000Y-67482500I0J147500D01*
G01*
X113880000Y-67187500D01*
G75*
G02*
X114027500Y-67040000I147500J0D01*
G01*
G37*
G36*
G01*
X114027500Y-66070000D02*
X114372500Y-66070000D01*
G75*
G02*
X114520000Y-66217500I0J-147500D01*
G01*
X114520000Y-66512500D01*
G75*
G02*
X114372500Y-66660000I-147500J0D01*
G01*
X114027500Y-66660000D01*
G75*
G02*
X113880000Y-66512500I0J147500D01*
G01*
X113880000Y-66217500D01*
G75*
G02*
X114027500Y-66070000I147500J0D01*
G01*
G37*
G36*
G01*
X147177500Y-78240000D02*
X147522500Y-78240000D01*
G75*
G02*
X147670000Y-78387500I0J-147500D01*
G01*
X147670000Y-78682500D01*
G75*
G02*
X147522500Y-78830000I-147500J0D01*
G01*
X147177500Y-78830000D01*
G75*
G02*
X147030000Y-78682500I0J147500D01*
G01*
X147030000Y-78387500D01*
G75*
G02*
X147177500Y-78240000I147500J0D01*
G01*
G37*
G36*
G01*
X147177500Y-77270000D02*
X147522500Y-77270000D01*
G75*
G02*
X147670000Y-77417500I0J-147500D01*
G01*
X147670000Y-77712500D01*
G75*
G02*
X147522500Y-77860000I-147500J0D01*
G01*
X147177500Y-77860000D01*
G75*
G02*
X147030000Y-77712500I0J147500D01*
G01*
X147030000Y-77417500D01*
G75*
G02*
X147177500Y-77270000I147500J0D01*
G01*
G37*
G36*
G01*
X150665000Y-70672500D02*
X150665000Y-70327500D01*
G75*
G02*
X150812500Y-70180000I147500J0D01*
G01*
X151107500Y-70180000D01*
G75*
G02*
X151255000Y-70327500I0J-147500D01*
G01*
X151255000Y-70672500D01*
G75*
G02*
X151107500Y-70820000I-147500J0D01*
G01*
X150812500Y-70820000D01*
G75*
G02*
X150665000Y-70672500I0J147500D01*
G01*
G37*
G36*
G01*
X151635000Y-70672500D02*
X151635000Y-70327500D01*
G75*
G02*
X151782500Y-70180000I147500J0D01*
G01*
X152077500Y-70180000D01*
G75*
G02*
X152225000Y-70327500I0J-147500D01*
G01*
X152225000Y-70672500D01*
G75*
G02*
X152077500Y-70820000I-147500J0D01*
G01*
X151782500Y-70820000D01*
G75*
G02*
X151635000Y-70672500I0J147500D01*
G01*
G37*
G36*
G01*
X149227500Y-78240000D02*
X149572500Y-78240000D01*
G75*
G02*
X149720000Y-78387500I0J-147500D01*
G01*
X149720000Y-78682500D01*
G75*
G02*
X149572500Y-78830000I-147500J0D01*
G01*
X149227500Y-78830000D01*
G75*
G02*
X149080000Y-78682500I0J147500D01*
G01*
X149080000Y-78387500D01*
G75*
G02*
X149227500Y-78240000I147500J0D01*
G01*
G37*
G36*
G01*
X149227500Y-77270000D02*
X149572500Y-77270000D01*
G75*
G02*
X149720000Y-77417500I0J-147500D01*
G01*
X149720000Y-77712500D01*
G75*
G02*
X149572500Y-77860000I-147500J0D01*
G01*
X149227500Y-77860000D01*
G75*
G02*
X149080000Y-77712500I0J147500D01*
G01*
X149080000Y-77417500D01*
G75*
G02*
X149227500Y-77270000I147500J0D01*
G01*
G37*
G36*
G01*
X148227500Y-77320000D02*
X148572500Y-77320000D01*
G75*
G02*
X148720000Y-77467500I0J-147500D01*
G01*
X148720000Y-77762500D01*
G75*
G02*
X148572500Y-77910000I-147500J0D01*
G01*
X148227500Y-77910000D01*
G75*
G02*
X148080000Y-77762500I0J147500D01*
G01*
X148080000Y-77467500D01*
G75*
G02*
X148227500Y-77320000I147500J0D01*
G01*
G37*
G36*
G01*
X148227500Y-78290000D02*
X148572500Y-78290000D01*
G75*
G02*
X148720000Y-78437500I0J-147500D01*
G01*
X148720000Y-78732500D01*
G75*
G02*
X148572500Y-78880000I-147500J0D01*
G01*
X148227500Y-78880000D01*
G75*
G02*
X148080000Y-78732500I0J147500D01*
G01*
X148080000Y-78437500D01*
G75*
G02*
X148227500Y-78290000I147500J0D01*
G01*
G37*
G36*
G01*
X140277500Y-75040000D02*
X140622500Y-75040000D01*
G75*
G02*
X140770000Y-75187500I0J-147500D01*
G01*
X140770000Y-75482500D01*
G75*
G02*
X140622500Y-75630000I-147500J0D01*
G01*
X140277500Y-75630000D01*
G75*
G02*
X140130000Y-75482500I0J147500D01*
G01*
X140130000Y-75187500D01*
G75*
G02*
X140277500Y-75040000I147500J0D01*
G01*
G37*
G36*
G01*
X140277500Y-74070000D02*
X140622500Y-74070000D01*
G75*
G02*
X140770000Y-74217500I0J-147500D01*
G01*
X140770000Y-74512500D01*
G75*
G02*
X140622500Y-74660000I-147500J0D01*
G01*
X140277500Y-74660000D01*
G75*
G02*
X140130000Y-74512500I0J147500D01*
G01*
X140130000Y-74217500D01*
G75*
G02*
X140277500Y-74070000I147500J0D01*
G01*
G37*
G36*
G01*
X141327500Y-74070000D02*
X141672500Y-74070000D01*
G75*
G02*
X141820000Y-74217500I0J-147500D01*
G01*
X141820000Y-74512500D01*
G75*
G02*
X141672500Y-74660000I-147500J0D01*
G01*
X141327500Y-74660000D01*
G75*
G02*
X141180000Y-74512500I0J147500D01*
G01*
X141180000Y-74217500D01*
G75*
G02*
X141327500Y-74070000I147500J0D01*
G01*
G37*
G36*
G01*
X141327500Y-75040000D02*
X141672500Y-75040000D01*
G75*
G02*
X141820000Y-75187500I0J-147500D01*
G01*
X141820000Y-75482500D01*
G75*
G02*
X141672500Y-75630000I-147500J0D01*
G01*
X141327500Y-75630000D01*
G75*
G02*
X141180000Y-75482500I0J147500D01*
G01*
X141180000Y-75187500D01*
G75*
G02*
X141327500Y-75040000I147500J0D01*
G01*
G37*
G36*
G01*
X150857500Y-75450000D02*
X151202500Y-75450000D01*
G75*
G02*
X151350000Y-75597500I0J-147500D01*
G01*
X151350000Y-75892500D01*
G75*
G02*
X151202500Y-76040000I-147500J0D01*
G01*
X150857500Y-76040000D01*
G75*
G02*
X150710000Y-75892500I0J147500D01*
G01*
X150710000Y-75597500D01*
G75*
G02*
X150857500Y-75450000I147500J0D01*
G01*
G37*
G36*
G01*
X150857500Y-74480000D02*
X151202500Y-74480000D01*
G75*
G02*
X151350000Y-74627500I0J-147500D01*
G01*
X151350000Y-74922500D01*
G75*
G02*
X151202500Y-75070000I-147500J0D01*
G01*
X150857500Y-75070000D01*
G75*
G02*
X150710000Y-74922500I0J147500D01*
G01*
X150710000Y-74627500D01*
G75*
G02*
X150857500Y-74480000I147500J0D01*
G01*
G37*
G36*
G01*
X150675000Y-69672500D02*
X150675000Y-69327500D01*
G75*
G02*
X150822500Y-69180000I147500J0D01*
G01*
X151117500Y-69180000D01*
G75*
G02*
X151265000Y-69327500I0J-147500D01*
G01*
X151265000Y-69672500D01*
G75*
G02*
X151117500Y-69820000I-147500J0D01*
G01*
X150822500Y-69820000D01*
G75*
G02*
X150675000Y-69672500I0J147500D01*
G01*
G37*
G36*
G01*
X151645000Y-69672500D02*
X151645000Y-69327500D01*
G75*
G02*
X151792500Y-69180000I147500J0D01*
G01*
X152087500Y-69180000D01*
G75*
G02*
X152235000Y-69327500I0J-147500D01*
G01*
X152235000Y-69672500D01*
G75*
G02*
X152087500Y-69820000I-147500J0D01*
G01*
X151792500Y-69820000D01*
G75*
G02*
X151645000Y-69672500I0J147500D01*
G01*
G37*
G36*
G01*
X144542500Y-68410000D02*
X144197500Y-68410000D01*
G75*
G02*
X144050000Y-68262500I0J147500D01*
G01*
X144050000Y-67967500D01*
G75*
G02*
X144197500Y-67820000I147500J0D01*
G01*
X144542500Y-67820000D01*
G75*
G02*
X144690000Y-67967500I0J-147500D01*
G01*
X144690000Y-68262500D01*
G75*
G02*
X144542500Y-68410000I-147500J0D01*
G01*
G37*
G36*
G01*
X144542500Y-67440000D02*
X144197500Y-67440000D01*
G75*
G02*
X144050000Y-67292500I0J147500D01*
G01*
X144050000Y-66997500D01*
G75*
G02*
X144197500Y-66850000I147500J0D01*
G01*
X144542500Y-66850000D01*
G75*
G02*
X144690000Y-66997500I0J-147500D01*
G01*
X144690000Y-67292500D01*
G75*
G02*
X144542500Y-67440000I-147500J0D01*
G01*
G37*
G36*
G01*
X142377500Y-75040000D02*
X142722500Y-75040000D01*
G75*
G02*
X142870000Y-75187500I0J-147500D01*
G01*
X142870000Y-75482500D01*
G75*
G02*
X142722500Y-75630000I-147500J0D01*
G01*
X142377500Y-75630000D01*
G75*
G02*
X142230000Y-75482500I0J147500D01*
G01*
X142230000Y-75187500D01*
G75*
G02*
X142377500Y-75040000I147500J0D01*
G01*
G37*
G36*
G01*
X142377500Y-74070000D02*
X142722500Y-74070000D01*
G75*
G02*
X142870000Y-74217500I0J-147500D01*
G01*
X142870000Y-74512500D01*
G75*
G02*
X142722500Y-74660000I-147500J0D01*
G01*
X142377500Y-74660000D01*
G75*
G02*
X142230000Y-74512500I0J147500D01*
G01*
X142230000Y-74217500D01*
G75*
G02*
X142377500Y-74070000I147500J0D01*
G01*
G37*
G36*
G01*
X141422500Y-70120000D02*
X141077500Y-70120000D01*
G75*
G02*
X140930000Y-69972500I0J147500D01*
G01*
X140930000Y-69677500D01*
G75*
G02*
X141077500Y-69530000I147500J0D01*
G01*
X141422500Y-69530000D01*
G75*
G02*
X141570000Y-69677500I0J-147500D01*
G01*
X141570000Y-69972500D01*
G75*
G02*
X141422500Y-70120000I-147500J0D01*
G01*
G37*
G36*
G01*
X141422500Y-69150000D02*
X141077500Y-69150000D01*
G75*
G02*
X140930000Y-69002500I0J147500D01*
G01*
X140930000Y-68707500D01*
G75*
G02*
X141077500Y-68560000I147500J0D01*
G01*
X141422500Y-68560000D01*
G75*
G02*
X141570000Y-68707500I0J-147500D01*
G01*
X141570000Y-69002500D01*
G75*
G02*
X141422500Y-69150000I-147500J0D01*
G01*
G37*
G36*
G01*
X142472500Y-69150000D02*
X142127500Y-69150000D01*
G75*
G02*
X141980000Y-69002500I0J147500D01*
G01*
X141980000Y-68707500D01*
G75*
G02*
X142127500Y-68560000I147500J0D01*
G01*
X142472500Y-68560000D01*
G75*
G02*
X142620000Y-68707500I0J-147500D01*
G01*
X142620000Y-69002500D01*
G75*
G02*
X142472500Y-69150000I-147500J0D01*
G01*
G37*
G36*
G01*
X142472500Y-70120000D02*
X142127500Y-70120000D01*
G75*
G02*
X141980000Y-69972500I0J147500D01*
G01*
X141980000Y-69677500D01*
G75*
G02*
X142127500Y-69530000I147500J0D01*
G01*
X142472500Y-69530000D01*
G75*
G02*
X142620000Y-69677500I0J-147500D01*
G01*
X142620000Y-69972500D01*
G75*
G02*
X142472500Y-70120000I-147500J0D01*
G01*
G37*
G36*
G01*
X141910000Y-73177500D02*
X141910000Y-73522500D01*
G75*
G02*
X141762500Y-73670000I-147500J0D01*
G01*
X141467500Y-73670000D01*
G75*
G02*
X141320000Y-73522500I0J147500D01*
G01*
X141320000Y-73177500D01*
G75*
G02*
X141467500Y-73030000I147500J0D01*
G01*
X141762500Y-73030000D01*
G75*
G02*
X141910000Y-73177500I0J-147500D01*
G01*
G37*
G36*
G01*
X142880000Y-73177500D02*
X142880000Y-73522500D01*
G75*
G02*
X142732500Y-73670000I-147500J0D01*
G01*
X142437500Y-73670000D01*
G75*
G02*
X142290000Y-73522500I0J147500D01*
G01*
X142290000Y-73177500D01*
G75*
G02*
X142437500Y-73030000I147500J0D01*
G01*
X142732500Y-73030000D01*
G75*
G02*
X142880000Y-73177500I0J-147500D01*
G01*
G37*
G36*
G01*
X133243750Y-60737500D02*
X133756250Y-60737500D01*
G75*
G02*
X133975000Y-60956250I0J-218750D01*
G01*
X133975000Y-61393750D01*
G75*
G02*
X133756250Y-61612500I-218750J0D01*
G01*
X133243750Y-61612500D01*
G75*
G02*
X133025000Y-61393750I0J218750D01*
G01*
X133025000Y-60956250D01*
G75*
G02*
X133243750Y-60737500I218750J0D01*
G01*
G37*
G36*
G01*
X133243750Y-62312500D02*
X133756250Y-62312500D01*
G75*
G02*
X133975000Y-62531250I0J-218750D01*
G01*
X133975000Y-62968750D01*
G75*
G02*
X133756250Y-63187500I-218750J0D01*
G01*
X133243750Y-63187500D01*
G75*
G02*
X133025000Y-62968750I0J218750D01*
G01*
X133025000Y-62531250D01*
G75*
G02*
X133243750Y-62312500I218750J0D01*
G01*
G37*
G36*
G01*
X129643750Y-65350000D02*
X130156250Y-65350000D01*
G75*
G02*
X130375000Y-65568750I0J-218750D01*
G01*
X130375000Y-66006250D01*
G75*
G02*
X130156250Y-66225000I-218750J0D01*
G01*
X129643750Y-66225000D01*
G75*
G02*
X129425000Y-66006250I0J218750D01*
G01*
X129425000Y-65568750D01*
G75*
G02*
X129643750Y-65350000I218750J0D01*
G01*
G37*
G36*
G01*
X129643750Y-63775000D02*
X130156250Y-63775000D01*
G75*
G02*
X130375000Y-63993750I0J-218750D01*
G01*
X130375000Y-64431250D01*
G75*
G02*
X130156250Y-64650000I-218750J0D01*
G01*
X129643750Y-64650000D01*
G75*
G02*
X129425000Y-64431250I0J218750D01*
G01*
X129425000Y-63993750D01*
G75*
G02*
X129643750Y-63775000I218750J0D01*
G01*
G37*
G36*
G01*
X135125000Y-58193750D02*
X135125000Y-58706250D01*
G75*
G02*
X134906250Y-58925000I-218750J0D01*
G01*
X134468750Y-58925000D01*
G75*
G02*
X134250000Y-58706250I0J218750D01*
G01*
X134250000Y-58193750D01*
G75*
G02*
X134468750Y-57975000I218750J0D01*
G01*
X134906250Y-57975000D01*
G75*
G02*
X135125000Y-58193750I0J-218750D01*
G01*
G37*
G36*
G01*
X136700000Y-58193750D02*
X136700000Y-58706250D01*
G75*
G02*
X136481250Y-58925000I-218750J0D01*
G01*
X136043750Y-58925000D01*
G75*
G02*
X135825000Y-58706250I0J218750D01*
G01*
X135825000Y-58193750D01*
G75*
G02*
X136043750Y-57975000I218750J0D01*
G01*
X136481250Y-57975000D01*
G75*
G02*
X136700000Y-58193750I0J-218750D01*
G01*
G37*
G36*
G01*
X126781250Y-54125000D02*
X126268750Y-54125000D01*
G75*
G02*
X126050000Y-53906250I0J218750D01*
G01*
X126050000Y-53468750D01*
G75*
G02*
X126268750Y-53250000I218750J0D01*
G01*
X126781250Y-53250000D01*
G75*
G02*
X127000000Y-53468750I0J-218750D01*
G01*
X127000000Y-53906250D01*
G75*
G02*
X126781250Y-54125000I-218750J0D01*
G01*
G37*
G36*
G01*
X126781250Y-52550000D02*
X126268750Y-52550000D01*
G75*
G02*
X126050000Y-52331250I0J218750D01*
G01*
X126050000Y-51893750D01*
G75*
G02*
X126268750Y-51675000I218750J0D01*
G01*
X126781250Y-51675000D01*
G75*
G02*
X127000000Y-51893750I0J-218750D01*
G01*
X127000000Y-52331250D01*
G75*
G02*
X126781250Y-52550000I-218750J0D01*
G01*
G37*
G36*
G01*
X125962500Y-66993750D02*
X125962500Y-67506250D01*
G75*
G02*
X125743750Y-67725000I-218750J0D01*
G01*
X125306250Y-67725000D01*
G75*
G02*
X125087500Y-67506250I0J218750D01*
G01*
X125087500Y-66993750D01*
G75*
G02*
X125306250Y-66775000I218750J0D01*
G01*
X125743750Y-66775000D01*
G75*
G02*
X125962500Y-66993750I0J-218750D01*
G01*
G37*
G36*
G01*
X124387500Y-66993750D02*
X124387500Y-67506250D01*
G75*
G02*
X124168750Y-67725000I-218750J0D01*
G01*
X123731250Y-67725000D01*
G75*
G02*
X123512500Y-67506250I0J218750D01*
G01*
X123512500Y-66993750D01*
G75*
G02*
X123731250Y-66775000I218750J0D01*
G01*
X124168750Y-66775000D01*
G75*
G02*
X124387500Y-66993750I0J-218750D01*
G01*
G37*
G36*
G01*
X128275000Y-55393750D02*
X128275000Y-55906250D01*
G75*
G02*
X128056250Y-56125000I-218750J0D01*
G01*
X127618750Y-56125000D01*
G75*
G02*
X127400000Y-55906250I0J218750D01*
G01*
X127400000Y-55393750D01*
G75*
G02*
X127618750Y-55175000I218750J0D01*
G01*
X128056250Y-55175000D01*
G75*
G02*
X128275000Y-55393750I0J-218750D01*
G01*
G37*
G36*
G01*
X126700000Y-55393750D02*
X126700000Y-55906250D01*
G75*
G02*
X126481250Y-56125000I-218750J0D01*
G01*
X126043750Y-56125000D01*
G75*
G02*
X125825000Y-55906250I0J218750D01*
G01*
X125825000Y-55393750D01*
G75*
G02*
X126043750Y-55175000I218750J0D01*
G01*
X126481250Y-55175000D01*
G75*
G02*
X126700000Y-55393750I0J-218750D01*
G01*
G37*
G36*
G01*
X142977500Y-77320000D02*
X143322500Y-77320000D01*
G75*
G02*
X143470000Y-77467500I0J-147500D01*
G01*
X143470000Y-77762500D01*
G75*
G02*
X143322500Y-77910000I-147500J0D01*
G01*
X142977500Y-77910000D01*
G75*
G02*
X142830000Y-77762500I0J147500D01*
G01*
X142830000Y-77467500D01*
G75*
G02*
X142977500Y-77320000I147500J0D01*
G01*
G37*
G36*
G01*
X142977500Y-78290000D02*
X143322500Y-78290000D01*
G75*
G02*
X143470000Y-78437500I0J-147500D01*
G01*
X143470000Y-78732500D01*
G75*
G02*
X143322500Y-78880000I-147500J0D01*
G01*
X142977500Y-78880000D01*
G75*
G02*
X142830000Y-78732500I0J147500D01*
G01*
X142830000Y-78437500D01*
G75*
G02*
X142977500Y-78290000I147500J0D01*
G01*
G37*
G36*
G01*
X141927500Y-77320000D02*
X142272500Y-77320000D01*
G75*
G02*
X142420000Y-77467500I0J-147500D01*
G01*
X142420000Y-77762500D01*
G75*
G02*
X142272500Y-77910000I-147500J0D01*
G01*
X141927500Y-77910000D01*
G75*
G02*
X141780000Y-77762500I0J147500D01*
G01*
X141780000Y-77467500D01*
G75*
G02*
X141927500Y-77320000I147500J0D01*
G01*
G37*
G36*
G01*
X141927500Y-78290000D02*
X142272500Y-78290000D01*
G75*
G02*
X142420000Y-78437500I0J-147500D01*
G01*
X142420000Y-78732500D01*
G75*
G02*
X142272500Y-78880000I-147500J0D01*
G01*
X141927500Y-78880000D01*
G75*
G02*
X141780000Y-78732500I0J147500D01*
G01*
X141780000Y-78437500D01*
G75*
G02*
X141927500Y-78290000I147500J0D01*
G01*
G37*
G36*
G01*
X140927500Y-78290000D02*
X141272500Y-78290000D01*
G75*
G02*
X141420000Y-78437500I0J-147500D01*
G01*
X141420000Y-78732500D01*
G75*
G02*
X141272500Y-78880000I-147500J0D01*
G01*
X140927500Y-78880000D01*
G75*
G02*
X140780000Y-78732500I0J147500D01*
G01*
X140780000Y-78437500D01*
G75*
G02*
X140927500Y-78290000I147500J0D01*
G01*
G37*
G36*
G01*
X140927500Y-77320000D02*
X141272500Y-77320000D01*
G75*
G02*
X141420000Y-77467500I0J-147500D01*
G01*
X141420000Y-77762500D01*
G75*
G02*
X141272500Y-77910000I-147500J0D01*
G01*
X140927500Y-77910000D01*
G75*
G02*
X140780000Y-77762500I0J147500D01*
G01*
X140780000Y-77467500D01*
G75*
G02*
X140927500Y-77320000I147500J0D01*
G01*
G37*
G36*
G01*
X170330000Y-98173750D02*
X170330000Y-98686250D01*
G75*
G02*
X170111250Y-98905000I-218750J0D01*
G01*
X169673750Y-98905000D01*
G75*
G02*
X169455000Y-98686250I0J218750D01*
G01*
X169455000Y-98173750D01*
G75*
G02*
X169673750Y-97955000I218750J0D01*
G01*
X170111250Y-97955000D01*
G75*
G02*
X170330000Y-98173750I0J-218750D01*
G01*
G37*
G36*
G01*
X171905000Y-98173750D02*
X171905000Y-98686250D01*
G75*
G02*
X171686250Y-98905000I-218750J0D01*
G01*
X171248750Y-98905000D01*
G75*
G02*
X171030000Y-98686250I0J218750D01*
G01*
X171030000Y-98173750D01*
G75*
G02*
X171248750Y-97955000I218750J0D01*
G01*
X171686250Y-97955000D01*
G75*
G02*
X171905000Y-98173750I0J-218750D01*
G01*
G37*
G36*
G01*
X154320000Y-94162500D02*
X154320000Y-93817500D01*
G75*
G02*
X154467500Y-93670000I147500J0D01*
G01*
X154762500Y-93670000D01*
G75*
G02*
X154910000Y-93817500I0J-147500D01*
G01*
X154910000Y-94162500D01*
G75*
G02*
X154762500Y-94310000I-147500J0D01*
G01*
X154467500Y-94310000D01*
G75*
G02*
X154320000Y-94162500I0J147500D01*
G01*
G37*
G36*
G01*
X155290000Y-94162500D02*
X155290000Y-93817500D01*
G75*
G02*
X155437500Y-93670000I147500J0D01*
G01*
X155732500Y-93670000D01*
G75*
G02*
X155880000Y-93817500I0J-147500D01*
G01*
X155880000Y-94162500D01*
G75*
G02*
X155732500Y-94310000I-147500J0D01*
G01*
X155437500Y-94310000D01*
G75*
G02*
X155290000Y-94162500I0J147500D01*
G01*
G37*
G36*
G01*
X156060000Y-99117500D02*
X156060000Y-99462500D01*
G75*
G02*
X155912500Y-99610000I-147500J0D01*
G01*
X155617500Y-99610000D01*
G75*
G02*
X155470000Y-99462500I0J147500D01*
G01*
X155470000Y-99117500D01*
G75*
G02*
X155617500Y-98970000I147500J0D01*
G01*
X155912500Y-98970000D01*
G75*
G02*
X156060000Y-99117500I0J-147500D01*
G01*
G37*
G36*
G01*
X155090000Y-99117500D02*
X155090000Y-99462500D01*
G75*
G02*
X154942500Y-99610000I-147500J0D01*
G01*
X154647500Y-99610000D01*
G75*
G02*
X154500000Y-99462500I0J147500D01*
G01*
X154500000Y-99117500D01*
G75*
G02*
X154647500Y-98970000I147500J0D01*
G01*
X154942500Y-98970000D01*
G75*
G02*
X155090000Y-99117500I0J-147500D01*
G01*
G37*
G36*
G01*
X158482500Y-103782500D02*
X158482500Y-103357500D01*
G75*
G02*
X158695000Y-103145000I212500J0D01*
G01*
X159495000Y-103145000D01*
G75*
G02*
X159707500Y-103357500I0J-212500D01*
G01*
X159707500Y-103782500D01*
G75*
G02*
X159495000Y-103995000I-212500J0D01*
G01*
X158695000Y-103995000D01*
G75*
G02*
X158482500Y-103782500I0J212500D01*
G01*
G37*
G36*
G01*
X160107500Y-103782500D02*
X160107500Y-103357500D01*
G75*
G02*
X160320000Y-103145000I212500J0D01*
G01*
X161120000Y-103145000D01*
G75*
G02*
X161332500Y-103357500I0J-212500D01*
G01*
X161332500Y-103782500D01*
G75*
G02*
X161120000Y-103995000I-212500J0D01*
G01*
X160320000Y-103995000D01*
G75*
G02*
X160107500Y-103782500I0J212500D01*
G01*
G37*
G36*
G01*
X119087500Y-67450000D02*
X119512500Y-67450000D01*
G75*
G02*
X119725000Y-67662500I0J-212500D01*
G01*
X119725000Y-68462500D01*
G75*
G02*
X119512500Y-68675000I-212500J0D01*
G01*
X119087500Y-68675000D01*
G75*
G02*
X118875000Y-68462500I0J212500D01*
G01*
X118875000Y-67662500D01*
G75*
G02*
X119087500Y-67450000I212500J0D01*
G01*
G37*
G36*
G01*
X119087500Y-65825000D02*
X119512500Y-65825000D01*
G75*
G02*
X119725000Y-66037500I0J-212500D01*
G01*
X119725000Y-66837500D01*
G75*
G02*
X119512500Y-67050000I-212500J0D01*
G01*
X119087500Y-67050000D01*
G75*
G02*
X118875000Y-66837500I0J212500D01*
G01*
X118875000Y-66037500D01*
G75*
G02*
X119087500Y-65825000I212500J0D01*
G01*
G37*
D14*
X142300000Y-51500000D03*
X175100000Y-51500000D03*
D15*
X143950000Y-55400000D03*
X144450000Y-55400000D03*
X144950000Y-55400000D03*
X145450000Y-55400000D03*
X145950000Y-55400000D03*
X146450000Y-55400000D03*
X146950000Y-55400000D03*
X147450000Y-55400000D03*
X147950000Y-55400000D03*
X148450000Y-55400000D03*
X148950000Y-55400000D03*
X149450000Y-55400000D03*
X149950000Y-55400000D03*
X150450000Y-55400000D03*
X150950000Y-55400000D03*
X151450000Y-55400000D03*
X151950000Y-55400000D03*
X152450000Y-55400000D03*
X152950000Y-55400000D03*
X153450000Y-55400000D03*
X153950000Y-55400000D03*
X154450000Y-55400000D03*
X154950000Y-55400000D03*
X155450000Y-55400000D03*
X155950000Y-55400000D03*
X156450000Y-55400000D03*
X156950000Y-55400000D03*
X157450000Y-55400000D03*
X157950000Y-55400000D03*
X158450000Y-55400000D03*
X158950000Y-55400000D03*
X159450000Y-55400000D03*
X159950000Y-55400000D03*
X160450000Y-55400000D03*
X160950000Y-55400000D03*
X161450000Y-55400000D03*
X161950000Y-55400000D03*
X162450000Y-55400000D03*
X162950000Y-55400000D03*
X163450000Y-55400000D03*
X163950000Y-55400000D03*
X164450000Y-55400000D03*
X164950000Y-55400000D03*
X165450000Y-55400000D03*
X165950000Y-55400000D03*
X166450000Y-55400000D03*
X166950000Y-55400000D03*
X167450000Y-55400000D03*
X167950000Y-55400000D03*
X168450000Y-55400000D03*
X168950000Y-55400000D03*
X169450000Y-55400000D03*
X169950000Y-55400000D03*
X170450000Y-55400000D03*
X170950000Y-55400000D03*
X171450000Y-55400000D03*
X171950000Y-55400000D03*
X172450000Y-55400000D03*
X172950000Y-55400000D03*
X173450000Y-55400000D03*
G36*
G01*
X150277500Y-77270000D02*
X150622500Y-77270000D01*
G75*
G02*
X150770000Y-77417500I0J-147500D01*
G01*
X150770000Y-77712500D01*
G75*
G02*
X150622500Y-77860000I-147500J0D01*
G01*
X150277500Y-77860000D01*
G75*
G02*
X150130000Y-77712500I0J147500D01*
G01*
X150130000Y-77417500D01*
G75*
G02*
X150277500Y-77270000I147500J0D01*
G01*
G37*
G36*
G01*
X150277500Y-78240000D02*
X150622500Y-78240000D01*
G75*
G02*
X150770000Y-78387500I0J-147500D01*
G01*
X150770000Y-78682500D01*
G75*
G02*
X150622500Y-78830000I-147500J0D01*
G01*
X150277500Y-78830000D01*
G75*
G02*
X150130000Y-78682500I0J147500D01*
G01*
X150130000Y-78387500D01*
G75*
G02*
X150277500Y-78240000I147500J0D01*
G01*
G37*
G36*
G01*
X146522500Y-78830000D02*
X146177500Y-78830000D01*
G75*
G02*
X146030000Y-78682500I0J147500D01*
G01*
X146030000Y-78387500D01*
G75*
G02*
X146177500Y-78240000I147500J0D01*
G01*
X146522500Y-78240000D01*
G75*
G02*
X146670000Y-78387500I0J-147500D01*
G01*
X146670000Y-78682500D01*
G75*
G02*
X146522500Y-78830000I-147500J0D01*
G01*
G37*
G36*
G01*
X146522500Y-77860000D02*
X146177500Y-77860000D01*
G75*
G02*
X146030000Y-77712500I0J147500D01*
G01*
X146030000Y-77417500D01*
G75*
G02*
X146177500Y-77270000I147500J0D01*
G01*
X146522500Y-77270000D01*
G75*
G02*
X146670000Y-77417500I0J-147500D01*
G01*
X146670000Y-77712500D01*
G75*
G02*
X146522500Y-77860000I-147500J0D01*
G01*
G37*
G36*
G01*
X147056250Y-100975000D02*
X146543750Y-100975000D01*
G75*
G02*
X146325000Y-100756250I0J218750D01*
G01*
X146325000Y-100318750D01*
G75*
G02*
X146543750Y-100100000I218750J0D01*
G01*
X147056250Y-100100000D01*
G75*
G02*
X147275000Y-100318750I0J-218750D01*
G01*
X147275000Y-100756250D01*
G75*
G02*
X147056250Y-100975000I-218750J0D01*
G01*
G37*
G36*
G01*
X147056250Y-99400000D02*
X146543750Y-99400000D01*
G75*
G02*
X146325000Y-99181250I0J218750D01*
G01*
X146325000Y-98743750D01*
G75*
G02*
X146543750Y-98525000I218750J0D01*
G01*
X147056250Y-98525000D01*
G75*
G02*
X147275000Y-98743750I0J-218750D01*
G01*
X147275000Y-99181250D01*
G75*
G02*
X147056250Y-99400000I-218750J0D01*
G01*
G37*
G36*
G01*
X164395000Y-103343750D02*
X164395000Y-103856250D01*
G75*
G02*
X164176250Y-104075000I-218750J0D01*
G01*
X163738750Y-104075000D01*
G75*
G02*
X163520000Y-103856250I0J218750D01*
G01*
X163520000Y-103343750D01*
G75*
G02*
X163738750Y-103125000I218750J0D01*
G01*
X164176250Y-103125000D01*
G75*
G02*
X164395000Y-103343750I0J-218750D01*
G01*
G37*
G36*
G01*
X162820000Y-103343750D02*
X162820000Y-103856250D01*
G75*
G02*
X162601250Y-104075000I-218750J0D01*
G01*
X162163750Y-104075000D01*
G75*
G02*
X161945000Y-103856250I0J218750D01*
G01*
X161945000Y-103343750D01*
G75*
G02*
X162163750Y-103125000I218750J0D01*
G01*
X162601250Y-103125000D01*
G75*
G02*
X162820000Y-103343750I0J-218750D01*
G01*
G37*
G36*
G01*
X117443750Y-65925000D02*
X117956250Y-65925000D01*
G75*
G02*
X118175000Y-66143750I0J-218750D01*
G01*
X118175000Y-66581250D01*
G75*
G02*
X117956250Y-66800000I-218750J0D01*
G01*
X117443750Y-66800000D01*
G75*
G02*
X117225000Y-66581250I0J218750D01*
G01*
X117225000Y-66143750D01*
G75*
G02*
X117443750Y-65925000I218750J0D01*
G01*
G37*
G36*
G01*
X117443750Y-67500000D02*
X117956250Y-67500000D01*
G75*
G02*
X118175000Y-67718750I0J-218750D01*
G01*
X118175000Y-68156250D01*
G75*
G02*
X117956250Y-68375000I-218750J0D01*
G01*
X117443750Y-68375000D01*
G75*
G02*
X117225000Y-68156250I0J218750D01*
G01*
X117225000Y-67718750D01*
G75*
G02*
X117443750Y-67500000I218750J0D01*
G01*
G37*
D16*
X136100000Y-61050000D03*
X137050000Y-63050000D03*
X135150000Y-63050000D03*
X128300000Y-54050000D03*
X130200000Y-54050000D03*
X129250000Y-52050000D03*
G36*
G01*
X158410000Y-94835000D02*
X158410000Y-94685000D01*
G75*
G02*
X158485000Y-94610000I75000J0D01*
G01*
X159810000Y-94610000D01*
G75*
G02*
X159885000Y-94685000I0J-75000D01*
G01*
X159885000Y-94835000D01*
G75*
G02*
X159810000Y-94910000I-75000J0D01*
G01*
X158485000Y-94910000D01*
G75*
G02*
X158410000Y-94835000I0J75000D01*
G01*
G37*
G36*
G01*
X158410000Y-95335000D02*
X158410000Y-95185000D01*
G75*
G02*
X158485000Y-95110000I75000J0D01*
G01*
X159810000Y-95110000D01*
G75*
G02*
X159885000Y-95185000I0J-75000D01*
G01*
X159885000Y-95335000D01*
G75*
G02*
X159810000Y-95410000I-75000J0D01*
G01*
X158485000Y-95410000D01*
G75*
G02*
X158410000Y-95335000I0J75000D01*
G01*
G37*
G36*
G01*
X158410000Y-95835000D02*
X158410000Y-95685000D01*
G75*
G02*
X158485000Y-95610000I75000J0D01*
G01*
X159810000Y-95610000D01*
G75*
G02*
X159885000Y-95685000I0J-75000D01*
G01*
X159885000Y-95835000D01*
G75*
G02*
X159810000Y-95910000I-75000J0D01*
G01*
X158485000Y-95910000D01*
G75*
G02*
X158410000Y-95835000I0J75000D01*
G01*
G37*
G36*
G01*
X158410000Y-96335000D02*
X158410000Y-96185000D01*
G75*
G02*
X158485000Y-96110000I75000J0D01*
G01*
X159810000Y-96110000D01*
G75*
G02*
X159885000Y-96185000I0J-75000D01*
G01*
X159885000Y-96335000D01*
G75*
G02*
X159810000Y-96410000I-75000J0D01*
G01*
X158485000Y-96410000D01*
G75*
G02*
X158410000Y-96335000I0J75000D01*
G01*
G37*
G36*
G01*
X158410000Y-96835000D02*
X158410000Y-96685000D01*
G75*
G02*
X158485000Y-96610000I75000J0D01*
G01*
X159810000Y-96610000D01*
G75*
G02*
X159885000Y-96685000I0J-75000D01*
G01*
X159885000Y-96835000D01*
G75*
G02*
X159810000Y-96910000I-75000J0D01*
G01*
X158485000Y-96910000D01*
G75*
G02*
X158410000Y-96835000I0J75000D01*
G01*
G37*
G36*
G01*
X158410000Y-97335000D02*
X158410000Y-97185000D01*
G75*
G02*
X158485000Y-97110000I75000J0D01*
G01*
X159810000Y-97110000D01*
G75*
G02*
X159885000Y-97185000I0J-75000D01*
G01*
X159885000Y-97335000D01*
G75*
G02*
X159810000Y-97410000I-75000J0D01*
G01*
X158485000Y-97410000D01*
G75*
G02*
X158410000Y-97335000I0J75000D01*
G01*
G37*
G36*
G01*
X158410000Y-97835000D02*
X158410000Y-97685000D01*
G75*
G02*
X158485000Y-97610000I75000J0D01*
G01*
X159810000Y-97610000D01*
G75*
G02*
X159885000Y-97685000I0J-75000D01*
G01*
X159885000Y-97835000D01*
G75*
G02*
X159810000Y-97910000I-75000J0D01*
G01*
X158485000Y-97910000D01*
G75*
G02*
X158410000Y-97835000I0J75000D01*
G01*
G37*
G36*
G01*
X158410000Y-98335000D02*
X158410000Y-98185000D01*
G75*
G02*
X158485000Y-98110000I75000J0D01*
G01*
X159810000Y-98110000D01*
G75*
G02*
X159885000Y-98185000I0J-75000D01*
G01*
X159885000Y-98335000D01*
G75*
G02*
X159810000Y-98410000I-75000J0D01*
G01*
X158485000Y-98410000D01*
G75*
G02*
X158410000Y-98335000I0J75000D01*
G01*
G37*
G36*
G01*
X158410000Y-98835000D02*
X158410000Y-98685000D01*
G75*
G02*
X158485000Y-98610000I75000J0D01*
G01*
X159810000Y-98610000D01*
G75*
G02*
X159885000Y-98685000I0J-75000D01*
G01*
X159885000Y-98835000D01*
G75*
G02*
X159810000Y-98910000I-75000J0D01*
G01*
X158485000Y-98910000D01*
G75*
G02*
X158410000Y-98835000I0J75000D01*
G01*
G37*
G36*
G01*
X158410000Y-99335000D02*
X158410000Y-99185000D01*
G75*
G02*
X158485000Y-99110000I75000J0D01*
G01*
X159810000Y-99110000D01*
G75*
G02*
X159885000Y-99185000I0J-75000D01*
G01*
X159885000Y-99335000D01*
G75*
G02*
X159810000Y-99410000I-75000J0D01*
G01*
X158485000Y-99410000D01*
G75*
G02*
X158410000Y-99335000I0J75000D01*
G01*
G37*
G36*
G01*
X158410000Y-99835000D02*
X158410000Y-99685000D01*
G75*
G02*
X158485000Y-99610000I75000J0D01*
G01*
X159810000Y-99610000D01*
G75*
G02*
X159885000Y-99685000I0J-75000D01*
G01*
X159885000Y-99835000D01*
G75*
G02*
X159810000Y-99910000I-75000J0D01*
G01*
X158485000Y-99910000D01*
G75*
G02*
X158410000Y-99835000I0J75000D01*
G01*
G37*
G36*
G01*
X158410000Y-100335000D02*
X158410000Y-100185000D01*
G75*
G02*
X158485000Y-100110000I75000J0D01*
G01*
X159810000Y-100110000D01*
G75*
G02*
X159885000Y-100185000I0J-75000D01*
G01*
X159885000Y-100335000D01*
G75*
G02*
X159810000Y-100410000I-75000J0D01*
G01*
X158485000Y-100410000D01*
G75*
G02*
X158410000Y-100335000I0J75000D01*
G01*
G37*
G36*
G01*
X160410000Y-102335000D02*
X160410000Y-101010000D01*
G75*
G02*
X160485000Y-100935000I75000J0D01*
G01*
X160635000Y-100935000D01*
G75*
G02*
X160710000Y-101010000I0J-75000D01*
G01*
X160710000Y-102335000D01*
G75*
G02*
X160635000Y-102410000I-75000J0D01*
G01*
X160485000Y-102410000D01*
G75*
G02*
X160410000Y-102335000I0J75000D01*
G01*
G37*
G36*
G01*
X160910000Y-102335000D02*
X160910000Y-101010000D01*
G75*
G02*
X160985000Y-100935000I75000J0D01*
G01*
X161135000Y-100935000D01*
G75*
G02*
X161210000Y-101010000I0J-75000D01*
G01*
X161210000Y-102335000D01*
G75*
G02*
X161135000Y-102410000I-75000J0D01*
G01*
X160985000Y-102410000D01*
G75*
G02*
X160910000Y-102335000I0J75000D01*
G01*
G37*
G36*
G01*
X161410000Y-102335000D02*
X161410000Y-101010000D01*
G75*
G02*
X161485000Y-100935000I75000J0D01*
G01*
X161635000Y-100935000D01*
G75*
G02*
X161710000Y-101010000I0J-75000D01*
G01*
X161710000Y-102335000D01*
G75*
G02*
X161635000Y-102410000I-75000J0D01*
G01*
X161485000Y-102410000D01*
G75*
G02*
X161410000Y-102335000I0J75000D01*
G01*
G37*
G36*
G01*
X161910000Y-102335000D02*
X161910000Y-101010000D01*
G75*
G02*
X161985000Y-100935000I75000J0D01*
G01*
X162135000Y-100935000D01*
G75*
G02*
X162210000Y-101010000I0J-75000D01*
G01*
X162210000Y-102335000D01*
G75*
G02*
X162135000Y-102410000I-75000J0D01*
G01*
X161985000Y-102410000D01*
G75*
G02*
X161910000Y-102335000I0J75000D01*
G01*
G37*
G36*
G01*
X162410000Y-102335000D02*
X162410000Y-101010000D01*
G75*
G02*
X162485000Y-100935000I75000J0D01*
G01*
X162635000Y-100935000D01*
G75*
G02*
X162710000Y-101010000I0J-75000D01*
G01*
X162710000Y-102335000D01*
G75*
G02*
X162635000Y-102410000I-75000J0D01*
G01*
X162485000Y-102410000D01*
G75*
G02*
X162410000Y-102335000I0J75000D01*
G01*
G37*
G36*
G01*
X162910000Y-102335000D02*
X162910000Y-101010000D01*
G75*
G02*
X162985000Y-100935000I75000J0D01*
G01*
X163135000Y-100935000D01*
G75*
G02*
X163210000Y-101010000I0J-75000D01*
G01*
X163210000Y-102335000D01*
G75*
G02*
X163135000Y-102410000I-75000J0D01*
G01*
X162985000Y-102410000D01*
G75*
G02*
X162910000Y-102335000I0J75000D01*
G01*
G37*
G36*
G01*
X163410000Y-102335000D02*
X163410000Y-101010000D01*
G75*
G02*
X163485000Y-100935000I75000J0D01*
G01*
X163635000Y-100935000D01*
G75*
G02*
X163710000Y-101010000I0J-75000D01*
G01*
X163710000Y-102335000D01*
G75*
G02*
X163635000Y-102410000I-75000J0D01*
G01*
X163485000Y-102410000D01*
G75*
G02*
X163410000Y-102335000I0J75000D01*
G01*
G37*
G36*
G01*
X163910000Y-102335000D02*
X163910000Y-101010000D01*
G75*
G02*
X163985000Y-100935000I75000J0D01*
G01*
X164135000Y-100935000D01*
G75*
G02*
X164210000Y-101010000I0J-75000D01*
G01*
X164210000Y-102335000D01*
G75*
G02*
X164135000Y-102410000I-75000J0D01*
G01*
X163985000Y-102410000D01*
G75*
G02*
X163910000Y-102335000I0J75000D01*
G01*
G37*
G36*
G01*
X164410000Y-102335000D02*
X164410000Y-101010000D01*
G75*
G02*
X164485000Y-100935000I75000J0D01*
G01*
X164635000Y-100935000D01*
G75*
G02*
X164710000Y-101010000I0J-75000D01*
G01*
X164710000Y-102335000D01*
G75*
G02*
X164635000Y-102410000I-75000J0D01*
G01*
X164485000Y-102410000D01*
G75*
G02*
X164410000Y-102335000I0J75000D01*
G01*
G37*
G36*
G01*
X164910000Y-102335000D02*
X164910000Y-101010000D01*
G75*
G02*
X164985000Y-100935000I75000J0D01*
G01*
X165135000Y-100935000D01*
G75*
G02*
X165210000Y-101010000I0J-75000D01*
G01*
X165210000Y-102335000D01*
G75*
G02*
X165135000Y-102410000I-75000J0D01*
G01*
X164985000Y-102410000D01*
G75*
G02*
X164910000Y-102335000I0J75000D01*
G01*
G37*
G36*
G01*
X165410000Y-102335000D02*
X165410000Y-101010000D01*
G75*
G02*
X165485000Y-100935000I75000J0D01*
G01*
X165635000Y-100935000D01*
G75*
G02*
X165710000Y-101010000I0J-75000D01*
G01*
X165710000Y-102335000D01*
G75*
G02*
X165635000Y-102410000I-75000J0D01*
G01*
X165485000Y-102410000D01*
G75*
G02*
X165410000Y-102335000I0J75000D01*
G01*
G37*
G36*
G01*
X165910000Y-102335000D02*
X165910000Y-101010000D01*
G75*
G02*
X165985000Y-100935000I75000J0D01*
G01*
X166135000Y-100935000D01*
G75*
G02*
X166210000Y-101010000I0J-75000D01*
G01*
X166210000Y-102335000D01*
G75*
G02*
X166135000Y-102410000I-75000J0D01*
G01*
X165985000Y-102410000D01*
G75*
G02*
X165910000Y-102335000I0J75000D01*
G01*
G37*
G36*
G01*
X166735000Y-100335000D02*
X166735000Y-100185000D01*
G75*
G02*
X166810000Y-100110000I75000J0D01*
G01*
X168135000Y-100110000D01*
G75*
G02*
X168210000Y-100185000I0J-75000D01*
G01*
X168210000Y-100335000D01*
G75*
G02*
X168135000Y-100410000I-75000J0D01*
G01*
X166810000Y-100410000D01*
G75*
G02*
X166735000Y-100335000I0J75000D01*
G01*
G37*
G36*
G01*
X166735000Y-99835000D02*
X166735000Y-99685000D01*
G75*
G02*
X166810000Y-99610000I75000J0D01*
G01*
X168135000Y-99610000D01*
G75*
G02*
X168210000Y-99685000I0J-75000D01*
G01*
X168210000Y-99835000D01*
G75*
G02*
X168135000Y-99910000I-75000J0D01*
G01*
X166810000Y-99910000D01*
G75*
G02*
X166735000Y-99835000I0J75000D01*
G01*
G37*
G36*
G01*
X166735000Y-99335000D02*
X166735000Y-99185000D01*
G75*
G02*
X166810000Y-99110000I75000J0D01*
G01*
X168135000Y-99110000D01*
G75*
G02*
X168210000Y-99185000I0J-75000D01*
G01*
X168210000Y-99335000D01*
G75*
G02*
X168135000Y-99410000I-75000J0D01*
G01*
X166810000Y-99410000D01*
G75*
G02*
X166735000Y-99335000I0J75000D01*
G01*
G37*
G36*
G01*
X166735000Y-98835000D02*
X166735000Y-98685000D01*
G75*
G02*
X166810000Y-98610000I75000J0D01*
G01*
X168135000Y-98610000D01*
G75*
G02*
X168210000Y-98685000I0J-75000D01*
G01*
X168210000Y-98835000D01*
G75*
G02*
X168135000Y-98910000I-75000J0D01*
G01*
X166810000Y-98910000D01*
G75*
G02*
X166735000Y-98835000I0J75000D01*
G01*
G37*
G36*
G01*
X166735000Y-98335000D02*
X166735000Y-98185000D01*
G75*
G02*
X166810000Y-98110000I75000J0D01*
G01*
X168135000Y-98110000D01*
G75*
G02*
X168210000Y-98185000I0J-75000D01*
G01*
X168210000Y-98335000D01*
G75*
G02*
X168135000Y-98410000I-75000J0D01*
G01*
X166810000Y-98410000D01*
G75*
G02*
X166735000Y-98335000I0J75000D01*
G01*
G37*
G36*
G01*
X166735000Y-97835000D02*
X166735000Y-97685000D01*
G75*
G02*
X166810000Y-97610000I75000J0D01*
G01*
X168135000Y-97610000D01*
G75*
G02*
X168210000Y-97685000I0J-75000D01*
G01*
X168210000Y-97835000D01*
G75*
G02*
X168135000Y-97910000I-75000J0D01*
G01*
X166810000Y-97910000D01*
G75*
G02*
X166735000Y-97835000I0J75000D01*
G01*
G37*
G36*
G01*
X166735000Y-97335000D02*
X166735000Y-97185000D01*
G75*
G02*
X166810000Y-97110000I75000J0D01*
G01*
X168135000Y-97110000D01*
G75*
G02*
X168210000Y-97185000I0J-75000D01*
G01*
X168210000Y-97335000D01*
G75*
G02*
X168135000Y-97410000I-75000J0D01*
G01*
X166810000Y-97410000D01*
G75*
G02*
X166735000Y-97335000I0J75000D01*
G01*
G37*
G36*
G01*
X166735000Y-96835000D02*
X166735000Y-96685000D01*
G75*
G02*
X166810000Y-96610000I75000J0D01*
G01*
X168135000Y-96610000D01*
G75*
G02*
X168210000Y-96685000I0J-75000D01*
G01*
X168210000Y-96835000D01*
G75*
G02*
X168135000Y-96910000I-75000J0D01*
G01*
X166810000Y-96910000D01*
G75*
G02*
X166735000Y-96835000I0J75000D01*
G01*
G37*
G36*
G01*
X166735000Y-96335000D02*
X166735000Y-96185000D01*
G75*
G02*
X166810000Y-96110000I75000J0D01*
G01*
X168135000Y-96110000D01*
G75*
G02*
X168210000Y-96185000I0J-75000D01*
G01*
X168210000Y-96335000D01*
G75*
G02*
X168135000Y-96410000I-75000J0D01*
G01*
X166810000Y-96410000D01*
G75*
G02*
X166735000Y-96335000I0J75000D01*
G01*
G37*
G36*
G01*
X166735000Y-95835000D02*
X166735000Y-95685000D01*
G75*
G02*
X166810000Y-95610000I75000J0D01*
G01*
X168135000Y-95610000D01*
G75*
G02*
X168210000Y-95685000I0J-75000D01*
G01*
X168210000Y-95835000D01*
G75*
G02*
X168135000Y-95910000I-75000J0D01*
G01*
X166810000Y-95910000D01*
G75*
G02*
X166735000Y-95835000I0J75000D01*
G01*
G37*
G36*
G01*
X166735000Y-95335000D02*
X166735000Y-95185000D01*
G75*
G02*
X166810000Y-95110000I75000J0D01*
G01*
X168135000Y-95110000D01*
G75*
G02*
X168210000Y-95185000I0J-75000D01*
G01*
X168210000Y-95335000D01*
G75*
G02*
X168135000Y-95410000I-75000J0D01*
G01*
X166810000Y-95410000D01*
G75*
G02*
X166735000Y-95335000I0J75000D01*
G01*
G37*
G36*
G01*
X166735000Y-94835000D02*
X166735000Y-94685000D01*
G75*
G02*
X166810000Y-94610000I75000J0D01*
G01*
X168135000Y-94610000D01*
G75*
G02*
X168210000Y-94685000I0J-75000D01*
G01*
X168210000Y-94835000D01*
G75*
G02*
X168135000Y-94910000I-75000J0D01*
G01*
X166810000Y-94910000D01*
G75*
G02*
X166735000Y-94835000I0J75000D01*
G01*
G37*
G36*
G01*
X165910000Y-94010000D02*
X165910000Y-92685000D01*
G75*
G02*
X165985000Y-92610000I75000J0D01*
G01*
X166135000Y-92610000D01*
G75*
G02*
X166210000Y-92685000I0J-75000D01*
G01*
X166210000Y-94010000D01*
G75*
G02*
X166135000Y-94085000I-75000J0D01*
G01*
X165985000Y-94085000D01*
G75*
G02*
X165910000Y-94010000I0J75000D01*
G01*
G37*
G36*
G01*
X165410000Y-94010000D02*
X165410000Y-92685000D01*
G75*
G02*
X165485000Y-92610000I75000J0D01*
G01*
X165635000Y-92610000D01*
G75*
G02*
X165710000Y-92685000I0J-75000D01*
G01*
X165710000Y-94010000D01*
G75*
G02*
X165635000Y-94085000I-75000J0D01*
G01*
X165485000Y-94085000D01*
G75*
G02*
X165410000Y-94010000I0J75000D01*
G01*
G37*
G36*
G01*
X164910000Y-94010000D02*
X164910000Y-92685000D01*
G75*
G02*
X164985000Y-92610000I75000J0D01*
G01*
X165135000Y-92610000D01*
G75*
G02*
X165210000Y-92685000I0J-75000D01*
G01*
X165210000Y-94010000D01*
G75*
G02*
X165135000Y-94085000I-75000J0D01*
G01*
X164985000Y-94085000D01*
G75*
G02*
X164910000Y-94010000I0J75000D01*
G01*
G37*
G36*
G01*
X164410000Y-94010000D02*
X164410000Y-92685000D01*
G75*
G02*
X164485000Y-92610000I75000J0D01*
G01*
X164635000Y-92610000D01*
G75*
G02*
X164710000Y-92685000I0J-75000D01*
G01*
X164710000Y-94010000D01*
G75*
G02*
X164635000Y-94085000I-75000J0D01*
G01*
X164485000Y-94085000D01*
G75*
G02*
X164410000Y-94010000I0J75000D01*
G01*
G37*
G36*
G01*
X163910000Y-94010000D02*
X163910000Y-92685000D01*
G75*
G02*
X163985000Y-92610000I75000J0D01*
G01*
X164135000Y-92610000D01*
G75*
G02*
X164210000Y-92685000I0J-75000D01*
G01*
X164210000Y-94010000D01*
G75*
G02*
X164135000Y-94085000I-75000J0D01*
G01*
X163985000Y-94085000D01*
G75*
G02*
X163910000Y-94010000I0J75000D01*
G01*
G37*
G36*
G01*
X163410000Y-94010000D02*
X163410000Y-92685000D01*
G75*
G02*
X163485000Y-92610000I75000J0D01*
G01*
X163635000Y-92610000D01*
G75*
G02*
X163710000Y-92685000I0J-75000D01*
G01*
X163710000Y-94010000D01*
G75*
G02*
X163635000Y-94085000I-75000J0D01*
G01*
X163485000Y-94085000D01*
G75*
G02*
X163410000Y-94010000I0J75000D01*
G01*
G37*
G36*
G01*
X162910000Y-94010000D02*
X162910000Y-92685000D01*
G75*
G02*
X162985000Y-92610000I75000J0D01*
G01*
X163135000Y-92610000D01*
G75*
G02*
X163210000Y-92685000I0J-75000D01*
G01*
X163210000Y-94010000D01*
G75*
G02*
X163135000Y-94085000I-75000J0D01*
G01*
X162985000Y-94085000D01*
G75*
G02*
X162910000Y-94010000I0J75000D01*
G01*
G37*
G36*
G01*
X162410000Y-94010000D02*
X162410000Y-92685000D01*
G75*
G02*
X162485000Y-92610000I75000J0D01*
G01*
X162635000Y-92610000D01*
G75*
G02*
X162710000Y-92685000I0J-75000D01*
G01*
X162710000Y-94010000D01*
G75*
G02*
X162635000Y-94085000I-75000J0D01*
G01*
X162485000Y-94085000D01*
G75*
G02*
X162410000Y-94010000I0J75000D01*
G01*
G37*
G36*
G01*
X161910000Y-94010000D02*
X161910000Y-92685000D01*
G75*
G02*
X161985000Y-92610000I75000J0D01*
G01*
X162135000Y-92610000D01*
G75*
G02*
X162210000Y-92685000I0J-75000D01*
G01*
X162210000Y-94010000D01*
G75*
G02*
X162135000Y-94085000I-75000J0D01*
G01*
X161985000Y-94085000D01*
G75*
G02*
X161910000Y-94010000I0J75000D01*
G01*
G37*
G36*
G01*
X161410000Y-94010000D02*
X161410000Y-92685000D01*
G75*
G02*
X161485000Y-92610000I75000J0D01*
G01*
X161635000Y-92610000D01*
G75*
G02*
X161710000Y-92685000I0J-75000D01*
G01*
X161710000Y-94010000D01*
G75*
G02*
X161635000Y-94085000I-75000J0D01*
G01*
X161485000Y-94085000D01*
G75*
G02*
X161410000Y-94010000I0J75000D01*
G01*
G37*
G36*
G01*
X160910000Y-94010000D02*
X160910000Y-92685000D01*
G75*
G02*
X160985000Y-92610000I75000J0D01*
G01*
X161135000Y-92610000D01*
G75*
G02*
X161210000Y-92685000I0J-75000D01*
G01*
X161210000Y-94010000D01*
G75*
G02*
X161135000Y-94085000I-75000J0D01*
G01*
X160985000Y-94085000D01*
G75*
G02*
X160910000Y-94010000I0J75000D01*
G01*
G37*
G36*
G01*
X160410000Y-94010000D02*
X160410000Y-92685000D01*
G75*
G02*
X160485000Y-92610000I75000J0D01*
G01*
X160635000Y-92610000D01*
G75*
G02*
X160710000Y-92685000I0J-75000D01*
G01*
X160710000Y-94010000D01*
G75*
G02*
X160635000Y-94085000I-75000J0D01*
G01*
X160485000Y-94085000D01*
G75*
G02*
X160410000Y-94010000I0J75000D01*
G01*
G37*
D17*
X153560100Y-79015500D03*
X153560100Y-77364500D03*
X151959900Y-77364500D03*
X151959900Y-79015500D03*
D18*
X154260000Y-95520000D03*
X154260000Y-97720000D03*
X155960000Y-97720000D03*
X155960000Y-95520000D03*
D19*
X177350000Y-103250000D03*
D20*
X175700000Y-100550000D03*
X175050000Y-100550000D03*
X177650000Y-100550000D03*
X177000000Y-100550000D03*
X176350000Y-100550000D03*
D19*
X175350000Y-103250000D03*
G36*
G01*
X113977500Y-84270000D02*
X114322500Y-84270000D01*
G75*
G02*
X114470000Y-84417500I0J-147500D01*
G01*
X114470000Y-84712500D01*
G75*
G02*
X114322500Y-84860000I-147500J0D01*
G01*
X113977500Y-84860000D01*
G75*
G02*
X113830000Y-84712500I0J147500D01*
G01*
X113830000Y-84417500D01*
G75*
G02*
X113977500Y-84270000I147500J0D01*
G01*
G37*
G36*
G01*
X113977500Y-85240000D02*
X114322500Y-85240000D01*
G75*
G02*
X114470000Y-85387500I0J-147500D01*
G01*
X114470000Y-85682500D01*
G75*
G02*
X114322500Y-85830000I-147500J0D01*
G01*
X113977500Y-85830000D01*
G75*
G02*
X113830000Y-85682500I0J147500D01*
G01*
X113830000Y-85387500D01*
G75*
G02*
X113977500Y-85240000I147500J0D01*
G01*
G37*
G36*
G01*
X135827500Y-95140000D02*
X136172500Y-95140000D01*
G75*
G02*
X136320000Y-95287500I0J-147500D01*
G01*
X136320000Y-95582500D01*
G75*
G02*
X136172500Y-95730000I-147500J0D01*
G01*
X135827500Y-95730000D01*
G75*
G02*
X135680000Y-95582500I0J147500D01*
G01*
X135680000Y-95287500D01*
G75*
G02*
X135827500Y-95140000I147500J0D01*
G01*
G37*
G36*
G01*
X135827500Y-94170000D02*
X136172500Y-94170000D01*
G75*
G02*
X136320000Y-94317500I0J-147500D01*
G01*
X136320000Y-94612500D01*
G75*
G02*
X136172500Y-94760000I-147500J0D01*
G01*
X135827500Y-94760000D01*
G75*
G02*
X135680000Y-94612500I0J147500D01*
G01*
X135680000Y-94317500D01*
G75*
G02*
X135827500Y-94170000I147500J0D01*
G01*
G37*
G36*
G01*
X139235000Y-87202500D02*
X139235000Y-86857500D01*
G75*
G02*
X139382500Y-86710000I147500J0D01*
G01*
X139677500Y-86710000D01*
G75*
G02*
X139825000Y-86857500I0J-147500D01*
G01*
X139825000Y-87202500D01*
G75*
G02*
X139677500Y-87350000I-147500J0D01*
G01*
X139382500Y-87350000D01*
G75*
G02*
X139235000Y-87202500I0J147500D01*
G01*
G37*
G36*
G01*
X140205000Y-87202500D02*
X140205000Y-86857500D01*
G75*
G02*
X140352500Y-86710000I147500J0D01*
G01*
X140647500Y-86710000D01*
G75*
G02*
X140795000Y-86857500I0J-147500D01*
G01*
X140795000Y-87202500D01*
G75*
G02*
X140647500Y-87350000I-147500J0D01*
G01*
X140352500Y-87350000D01*
G75*
G02*
X140205000Y-87202500I0J147500D01*
G01*
G37*
G36*
G01*
X136827500Y-95140000D02*
X137172500Y-95140000D01*
G75*
G02*
X137320000Y-95287500I0J-147500D01*
G01*
X137320000Y-95582500D01*
G75*
G02*
X137172500Y-95730000I-147500J0D01*
G01*
X136827500Y-95730000D01*
G75*
G02*
X136680000Y-95582500I0J147500D01*
G01*
X136680000Y-95287500D01*
G75*
G02*
X136827500Y-95140000I147500J0D01*
G01*
G37*
G36*
G01*
X136827500Y-94170000D02*
X137172500Y-94170000D01*
G75*
G02*
X137320000Y-94317500I0J-147500D01*
G01*
X137320000Y-94612500D01*
G75*
G02*
X137172500Y-94760000I-147500J0D01*
G01*
X136827500Y-94760000D01*
G75*
G02*
X136680000Y-94612500I0J147500D01*
G01*
X136680000Y-94317500D01*
G75*
G02*
X136827500Y-94170000I147500J0D01*
G01*
G37*
G36*
G01*
X137827500Y-94170000D02*
X138172500Y-94170000D01*
G75*
G02*
X138320000Y-94317500I0J-147500D01*
G01*
X138320000Y-94612500D01*
G75*
G02*
X138172500Y-94760000I-147500J0D01*
G01*
X137827500Y-94760000D01*
G75*
G02*
X137680000Y-94612500I0J147500D01*
G01*
X137680000Y-94317500D01*
G75*
G02*
X137827500Y-94170000I147500J0D01*
G01*
G37*
G36*
G01*
X137827500Y-95140000D02*
X138172500Y-95140000D01*
G75*
G02*
X138320000Y-95287500I0J-147500D01*
G01*
X138320000Y-95582500D01*
G75*
G02*
X138172500Y-95730000I-147500J0D01*
G01*
X137827500Y-95730000D01*
G75*
G02*
X137680000Y-95582500I0J147500D01*
G01*
X137680000Y-95287500D01*
G75*
G02*
X137827500Y-95140000I147500J0D01*
G01*
G37*
G36*
G01*
X128727500Y-91655000D02*
X129072500Y-91655000D01*
G75*
G02*
X129220000Y-91802500I0J-147500D01*
G01*
X129220000Y-92097500D01*
G75*
G02*
X129072500Y-92245000I-147500J0D01*
G01*
X128727500Y-92245000D01*
G75*
G02*
X128580000Y-92097500I0J147500D01*
G01*
X128580000Y-91802500D01*
G75*
G02*
X128727500Y-91655000I147500J0D01*
G01*
G37*
G36*
G01*
X128727500Y-90685000D02*
X129072500Y-90685000D01*
G75*
G02*
X129220000Y-90832500I0J-147500D01*
G01*
X129220000Y-91127500D01*
G75*
G02*
X129072500Y-91275000I-147500J0D01*
G01*
X128727500Y-91275000D01*
G75*
G02*
X128580000Y-91127500I0J147500D01*
G01*
X128580000Y-90832500D01*
G75*
G02*
X128727500Y-90685000I147500J0D01*
G01*
G37*
G36*
G01*
X129777500Y-90685000D02*
X130122500Y-90685000D01*
G75*
G02*
X130270000Y-90832500I0J-147500D01*
G01*
X130270000Y-91127500D01*
G75*
G02*
X130122500Y-91275000I-147500J0D01*
G01*
X129777500Y-91275000D01*
G75*
G02*
X129630000Y-91127500I0J147500D01*
G01*
X129630000Y-90832500D01*
G75*
G02*
X129777500Y-90685000I147500J0D01*
G01*
G37*
G36*
G01*
X129777500Y-91655000D02*
X130122500Y-91655000D01*
G75*
G02*
X130270000Y-91802500I0J-147500D01*
G01*
X130270000Y-92097500D01*
G75*
G02*
X130122500Y-92245000I-147500J0D01*
G01*
X129777500Y-92245000D01*
G75*
G02*
X129630000Y-92097500I0J147500D01*
G01*
X129630000Y-91802500D01*
G75*
G02*
X129777500Y-91655000I147500J0D01*
G01*
G37*
G36*
G01*
X139407500Y-91940000D02*
X139752500Y-91940000D01*
G75*
G02*
X139900000Y-92087500I0J-147500D01*
G01*
X139900000Y-92382500D01*
G75*
G02*
X139752500Y-92530000I-147500J0D01*
G01*
X139407500Y-92530000D01*
G75*
G02*
X139260000Y-92382500I0J147500D01*
G01*
X139260000Y-92087500D01*
G75*
G02*
X139407500Y-91940000I147500J0D01*
G01*
G37*
G36*
G01*
X139407500Y-90970000D02*
X139752500Y-90970000D01*
G75*
G02*
X139900000Y-91117500I0J-147500D01*
G01*
X139900000Y-91412500D01*
G75*
G02*
X139752500Y-91560000I-147500J0D01*
G01*
X139407500Y-91560000D01*
G75*
G02*
X139260000Y-91412500I0J147500D01*
G01*
X139260000Y-91117500D01*
G75*
G02*
X139407500Y-90970000I147500J0D01*
G01*
G37*
G36*
G01*
X139250000Y-86212500D02*
X139250000Y-85867500D01*
G75*
G02*
X139397500Y-85720000I147500J0D01*
G01*
X139692500Y-85720000D01*
G75*
G02*
X139840000Y-85867500I0J-147500D01*
G01*
X139840000Y-86212500D01*
G75*
G02*
X139692500Y-86360000I-147500J0D01*
G01*
X139397500Y-86360000D01*
G75*
G02*
X139250000Y-86212500I0J147500D01*
G01*
G37*
G36*
G01*
X140220000Y-86212500D02*
X140220000Y-85867500D01*
G75*
G02*
X140367500Y-85720000I147500J0D01*
G01*
X140662500Y-85720000D01*
G75*
G02*
X140810000Y-85867500I0J-147500D01*
G01*
X140810000Y-86212500D01*
G75*
G02*
X140662500Y-86360000I-147500J0D01*
G01*
X140367500Y-86360000D01*
G75*
G02*
X140220000Y-86212500I0J147500D01*
G01*
G37*
G36*
G01*
X132922500Y-84125000D02*
X132577500Y-84125000D01*
G75*
G02*
X132430000Y-83977500I0J147500D01*
G01*
X132430000Y-83682500D01*
G75*
G02*
X132577500Y-83535000I147500J0D01*
G01*
X132922500Y-83535000D01*
G75*
G02*
X133070000Y-83682500I0J-147500D01*
G01*
X133070000Y-83977500D01*
G75*
G02*
X132922500Y-84125000I-147500J0D01*
G01*
G37*
G36*
G01*
X132922500Y-85095000D02*
X132577500Y-85095000D01*
G75*
G02*
X132430000Y-84947500I0J147500D01*
G01*
X132430000Y-84652500D01*
G75*
G02*
X132577500Y-84505000I147500J0D01*
G01*
X132922500Y-84505000D01*
G75*
G02*
X133070000Y-84652500I0J-147500D01*
G01*
X133070000Y-84947500D01*
G75*
G02*
X132922500Y-85095000I-147500J0D01*
G01*
G37*
G36*
G01*
X130877500Y-90685000D02*
X131222500Y-90685000D01*
G75*
G02*
X131370000Y-90832500I0J-147500D01*
G01*
X131370000Y-91127500D01*
G75*
G02*
X131222500Y-91275000I-147500J0D01*
G01*
X130877500Y-91275000D01*
G75*
G02*
X130730000Y-91127500I0J147500D01*
G01*
X130730000Y-90832500D01*
G75*
G02*
X130877500Y-90685000I147500J0D01*
G01*
G37*
G36*
G01*
X130877500Y-91655000D02*
X131222500Y-91655000D01*
G75*
G02*
X131370000Y-91802500I0J-147500D01*
G01*
X131370000Y-92097500D01*
G75*
G02*
X131222500Y-92245000I-147500J0D01*
G01*
X130877500Y-92245000D01*
G75*
G02*
X130730000Y-92097500I0J147500D01*
G01*
X130730000Y-91802500D01*
G75*
G02*
X130877500Y-91655000I147500J0D01*
G01*
G37*
G36*
G01*
X129972500Y-86750000D02*
X129627500Y-86750000D01*
G75*
G02*
X129480000Y-86602500I0J147500D01*
G01*
X129480000Y-86307500D01*
G75*
G02*
X129627500Y-86160000I147500J0D01*
G01*
X129972500Y-86160000D01*
G75*
G02*
X130120000Y-86307500I0J-147500D01*
G01*
X130120000Y-86602500D01*
G75*
G02*
X129972500Y-86750000I-147500J0D01*
G01*
G37*
G36*
G01*
X129972500Y-85780000D02*
X129627500Y-85780000D01*
G75*
G02*
X129480000Y-85632500I0J147500D01*
G01*
X129480000Y-85337500D01*
G75*
G02*
X129627500Y-85190000I147500J0D01*
G01*
X129972500Y-85190000D01*
G75*
G02*
X130120000Y-85337500I0J-147500D01*
G01*
X130120000Y-85632500D01*
G75*
G02*
X129972500Y-85780000I-147500J0D01*
G01*
G37*
G36*
G01*
X130425000Y-89827500D02*
X130425000Y-90172500D01*
G75*
G02*
X130277500Y-90320000I-147500J0D01*
G01*
X129982500Y-90320000D01*
G75*
G02*
X129835000Y-90172500I0J147500D01*
G01*
X129835000Y-89827500D01*
G75*
G02*
X129982500Y-89680000I147500J0D01*
G01*
X130277500Y-89680000D01*
G75*
G02*
X130425000Y-89827500I0J-147500D01*
G01*
G37*
G36*
G01*
X131395000Y-89827500D02*
X131395000Y-90172500D01*
G75*
G02*
X131247500Y-90320000I-147500J0D01*
G01*
X130952500Y-90320000D01*
G75*
G02*
X130805000Y-90172500I0J147500D01*
G01*
X130805000Y-89827500D01*
G75*
G02*
X130952500Y-89680000I147500J0D01*
G01*
X131247500Y-89680000D01*
G75*
G02*
X131395000Y-89827500I0J-147500D01*
G01*
G37*
G36*
G01*
X130972500Y-86750000D02*
X130627500Y-86750000D01*
G75*
G02*
X130480000Y-86602500I0J147500D01*
G01*
X130480000Y-86307500D01*
G75*
G02*
X130627500Y-86160000I147500J0D01*
G01*
X130972500Y-86160000D01*
G75*
G02*
X131120000Y-86307500I0J-147500D01*
G01*
X131120000Y-86602500D01*
G75*
G02*
X130972500Y-86750000I-147500J0D01*
G01*
G37*
G36*
G01*
X130972500Y-85780000D02*
X130627500Y-85780000D01*
G75*
G02*
X130480000Y-85632500I0J147500D01*
G01*
X130480000Y-85337500D01*
G75*
G02*
X130627500Y-85190000I147500J0D01*
G01*
X130972500Y-85190000D01*
G75*
G02*
X131120000Y-85337500I0J-147500D01*
G01*
X131120000Y-85632500D01*
G75*
G02*
X130972500Y-85780000I-147500J0D01*
G01*
G37*
G36*
G01*
X131627500Y-95140000D02*
X131972500Y-95140000D01*
G75*
G02*
X132120000Y-95287500I0J-147500D01*
G01*
X132120000Y-95582500D01*
G75*
G02*
X131972500Y-95730000I-147500J0D01*
G01*
X131627500Y-95730000D01*
G75*
G02*
X131480000Y-95582500I0J147500D01*
G01*
X131480000Y-95287500D01*
G75*
G02*
X131627500Y-95140000I147500J0D01*
G01*
G37*
G36*
G01*
X131627500Y-94170000D02*
X131972500Y-94170000D01*
G75*
G02*
X132120000Y-94317500I0J-147500D01*
G01*
X132120000Y-94612500D01*
G75*
G02*
X131972500Y-94760000I-147500J0D01*
G01*
X131627500Y-94760000D01*
G75*
G02*
X131480000Y-94612500I0J147500D01*
G01*
X131480000Y-94317500D01*
G75*
G02*
X131627500Y-94170000I147500J0D01*
G01*
G37*
G36*
G01*
X130577500Y-94170000D02*
X130922500Y-94170000D01*
G75*
G02*
X131070000Y-94317500I0J-147500D01*
G01*
X131070000Y-94612500D01*
G75*
G02*
X130922500Y-94760000I-147500J0D01*
G01*
X130577500Y-94760000D01*
G75*
G02*
X130430000Y-94612500I0J147500D01*
G01*
X130430000Y-94317500D01*
G75*
G02*
X130577500Y-94170000I147500J0D01*
G01*
G37*
G36*
G01*
X130577500Y-95140000D02*
X130922500Y-95140000D01*
G75*
G02*
X131070000Y-95287500I0J-147500D01*
G01*
X131070000Y-95582500D01*
G75*
G02*
X130922500Y-95730000I-147500J0D01*
G01*
X130577500Y-95730000D01*
G75*
G02*
X130430000Y-95582500I0J147500D01*
G01*
X130430000Y-95287500D01*
G75*
G02*
X130577500Y-95140000I147500J0D01*
G01*
G37*
G36*
G01*
X129477500Y-95140000D02*
X129822500Y-95140000D01*
G75*
G02*
X129970000Y-95287500I0J-147500D01*
G01*
X129970000Y-95582500D01*
G75*
G02*
X129822500Y-95730000I-147500J0D01*
G01*
X129477500Y-95730000D01*
G75*
G02*
X129330000Y-95582500I0J147500D01*
G01*
X129330000Y-95287500D01*
G75*
G02*
X129477500Y-95140000I147500J0D01*
G01*
G37*
G36*
G01*
X129477500Y-94170000D02*
X129822500Y-94170000D01*
G75*
G02*
X129970000Y-94317500I0J-147500D01*
G01*
X129970000Y-94612500D01*
G75*
G02*
X129822500Y-94760000I-147500J0D01*
G01*
X129477500Y-94760000D01*
G75*
G02*
X129330000Y-94612500I0J147500D01*
G01*
X129330000Y-94317500D01*
G75*
G02*
X129477500Y-94170000I147500J0D01*
G01*
G37*
D21*
X189300000Y-61100000D03*
X189300000Y-93900000D03*
D22*
X185400000Y-62750000D03*
X185400000Y-63250000D03*
X185400000Y-63750000D03*
X185400000Y-64250000D03*
X185400000Y-64750000D03*
X185400000Y-65250000D03*
X185400000Y-65750000D03*
X185400000Y-66250000D03*
X185400000Y-66750000D03*
X185400000Y-67250000D03*
X185400000Y-67750000D03*
X185400000Y-68250000D03*
X185400000Y-68750000D03*
X185400000Y-69250000D03*
X185400000Y-69750000D03*
X185400000Y-70250000D03*
X185400000Y-70750000D03*
X185400000Y-71250000D03*
X185400000Y-71750000D03*
X185400000Y-72250000D03*
X185400000Y-72750000D03*
X185400000Y-73250000D03*
X185400000Y-73750000D03*
X185400000Y-74250000D03*
X185400000Y-74750000D03*
X185400000Y-75250000D03*
X185400000Y-75750000D03*
X185400000Y-76250000D03*
X185400000Y-76750000D03*
X185400000Y-77250000D03*
X185400000Y-77750000D03*
X185400000Y-78250000D03*
X185400000Y-78750000D03*
X185400000Y-79250000D03*
X185400000Y-79750000D03*
X185400000Y-80250000D03*
X185400000Y-80750000D03*
X185400000Y-81250000D03*
X185400000Y-81750000D03*
X185400000Y-82250000D03*
X185400000Y-82750000D03*
X185400000Y-83250000D03*
X185400000Y-83750000D03*
X185400000Y-84250000D03*
X185400000Y-84750000D03*
X185400000Y-85250000D03*
X185400000Y-85750000D03*
X185400000Y-86250000D03*
X185400000Y-86750000D03*
X185400000Y-87250000D03*
X185400000Y-87750000D03*
X185400000Y-88250000D03*
X185400000Y-88750000D03*
X185400000Y-89250000D03*
X185400000Y-89750000D03*
X185400000Y-90250000D03*
X185400000Y-90750000D03*
X185400000Y-91250000D03*
X185400000Y-91750000D03*
X185400000Y-92250000D03*
G36*
G01*
X138827500Y-95140000D02*
X139172500Y-95140000D01*
G75*
G02*
X139320000Y-95287500I0J-147500D01*
G01*
X139320000Y-95582500D01*
G75*
G02*
X139172500Y-95730000I-147500J0D01*
G01*
X138827500Y-95730000D01*
G75*
G02*
X138680000Y-95582500I0J147500D01*
G01*
X138680000Y-95287500D01*
G75*
G02*
X138827500Y-95140000I147500J0D01*
G01*
G37*
G36*
G01*
X138827500Y-94170000D02*
X139172500Y-94170000D01*
G75*
G02*
X139320000Y-94317500I0J-147500D01*
G01*
X139320000Y-94612500D01*
G75*
G02*
X139172500Y-94760000I-147500J0D01*
G01*
X138827500Y-94760000D01*
G75*
G02*
X138680000Y-94612500I0J147500D01*
G01*
X138680000Y-94317500D01*
G75*
G02*
X138827500Y-94170000I147500J0D01*
G01*
G37*
G36*
G01*
X135122500Y-95730000D02*
X134777500Y-95730000D01*
G75*
G02*
X134630000Y-95582500I0J147500D01*
G01*
X134630000Y-95287500D01*
G75*
G02*
X134777500Y-95140000I147500J0D01*
G01*
X135122500Y-95140000D01*
G75*
G02*
X135270000Y-95287500I0J-147500D01*
G01*
X135270000Y-95582500D01*
G75*
G02*
X135122500Y-95730000I-147500J0D01*
G01*
G37*
G36*
G01*
X135122500Y-94760000D02*
X134777500Y-94760000D01*
G75*
G02*
X134630000Y-94612500I0J147500D01*
G01*
X134630000Y-94317500D01*
G75*
G02*
X134777500Y-94170000I147500J0D01*
G01*
X135122500Y-94170000D01*
G75*
G02*
X135270000Y-94317500I0J-147500D01*
G01*
X135270000Y-94612500D01*
G75*
G02*
X135122500Y-94760000I-147500J0D01*
G01*
G37*
D17*
X140399900Y-95975500D03*
X140399900Y-94324500D03*
X142000100Y-94324500D03*
X142000100Y-95975500D03*
G36*
G01*
X132456250Y-59075000D02*
X131943750Y-59075000D01*
G75*
G02*
X131725000Y-58856250I0J218750D01*
G01*
X131725000Y-58418750D01*
G75*
G02*
X131943750Y-58200000I218750J0D01*
G01*
X132456250Y-58200000D01*
G75*
G02*
X132675000Y-58418750I0J-218750D01*
G01*
X132675000Y-58856250D01*
G75*
G02*
X132456250Y-59075000I-218750J0D01*
G01*
G37*
G36*
G01*
X132456250Y-57500000D02*
X131943750Y-57500000D01*
G75*
G02*
X131725000Y-57281250I0J218750D01*
G01*
X131725000Y-56843750D01*
G75*
G02*
X131943750Y-56625000I218750J0D01*
G01*
X132456250Y-56625000D01*
G75*
G02*
X132675000Y-56843750I0J-218750D01*
G01*
X132675000Y-57281250D01*
G75*
G02*
X132456250Y-57500000I-218750J0D01*
G01*
G37*
G36*
G01*
X137575000Y-65343750D02*
X137575000Y-65856250D01*
G75*
G02*
X137356250Y-66075000I-218750J0D01*
G01*
X136918750Y-66075000D01*
G75*
G02*
X136700000Y-65856250I0J218750D01*
G01*
X136700000Y-65343750D01*
G75*
G02*
X136918750Y-65125000I218750J0D01*
G01*
X137356250Y-65125000D01*
G75*
G02*
X137575000Y-65343750I0J-218750D01*
G01*
G37*
G36*
G01*
X136000000Y-65343750D02*
X136000000Y-65856250D01*
G75*
G02*
X135781250Y-66075000I-218750J0D01*
G01*
X135343750Y-66075000D01*
G75*
G02*
X135125000Y-65856250I0J218750D01*
G01*
X135125000Y-65343750D01*
G75*
G02*
X135343750Y-65125000I218750J0D01*
G01*
X135781250Y-65125000D01*
G75*
G02*
X136000000Y-65343750I0J-218750D01*
G01*
G37*
G36*
G01*
X136310000Y-64127500D02*
X136310000Y-64472500D01*
G75*
G02*
X136162500Y-64620000I-147500J0D01*
G01*
X135867500Y-64620000D01*
G75*
G02*
X135720000Y-64472500I0J147500D01*
G01*
X135720000Y-64127500D01*
G75*
G02*
X135867500Y-63980000I147500J0D01*
G01*
X136162500Y-63980000D01*
G75*
G02*
X136310000Y-64127500I0J-147500D01*
G01*
G37*
G36*
G01*
X137280000Y-64127500D02*
X137280000Y-64472500D01*
G75*
G02*
X137132500Y-64620000I-147500J0D01*
G01*
X136837500Y-64620000D01*
G75*
G02*
X136690000Y-64472500I0J147500D01*
G01*
X136690000Y-64127500D01*
G75*
G02*
X136837500Y-63980000I147500J0D01*
G01*
X137132500Y-63980000D01*
G75*
G02*
X137280000Y-64127500I0J-147500D01*
G01*
G37*
G36*
G01*
X139487500Y-58731250D02*
X139487500Y-58218750D01*
G75*
G02*
X139706250Y-58000000I218750J0D01*
G01*
X140143750Y-58000000D01*
G75*
G02*
X140362500Y-58218750I0J-218750D01*
G01*
X140362500Y-58731250D01*
G75*
G02*
X140143750Y-58950000I-218750J0D01*
G01*
X139706250Y-58950000D01*
G75*
G02*
X139487500Y-58731250I0J218750D01*
G01*
G37*
G36*
G01*
X137912500Y-58731250D02*
X137912500Y-58218750D01*
G75*
G02*
X138131250Y-58000000I218750J0D01*
G01*
X138568750Y-58000000D01*
G75*
G02*
X138787500Y-58218750I0J-218750D01*
G01*
X138787500Y-58731250D01*
G75*
G02*
X138568750Y-58950000I-218750J0D01*
G01*
X138131250Y-58950000D01*
G75*
G02*
X137912500Y-58731250I0J218750D01*
G01*
G37*
G36*
G01*
X138677500Y-55920000D02*
X139022500Y-55920000D01*
G75*
G02*
X139170000Y-56067500I0J-147500D01*
G01*
X139170000Y-56362500D01*
G75*
G02*
X139022500Y-56510000I-147500J0D01*
G01*
X138677500Y-56510000D01*
G75*
G02*
X138530000Y-56362500I0J147500D01*
G01*
X138530000Y-56067500D01*
G75*
G02*
X138677500Y-55920000I147500J0D01*
G01*
G37*
G36*
G01*
X138677500Y-56890000D02*
X139022500Y-56890000D01*
G75*
G02*
X139170000Y-57037500I0J-147500D01*
G01*
X139170000Y-57332500D01*
G75*
G02*
X139022500Y-57480000I-147500J0D01*
G01*
X138677500Y-57480000D01*
G75*
G02*
X138530000Y-57332500I0J147500D01*
G01*
X138530000Y-57037500D01*
G75*
G02*
X138677500Y-56890000I147500J0D01*
G01*
G37*
G36*
G01*
X131785000Y-59727500D02*
X131785000Y-60072500D01*
G75*
G02*
X131637500Y-60220000I-147500J0D01*
G01*
X131342500Y-60220000D01*
G75*
G02*
X131195000Y-60072500I0J147500D01*
G01*
X131195000Y-59727500D01*
G75*
G02*
X131342500Y-59580000I147500J0D01*
G01*
X131637500Y-59580000D01*
G75*
G02*
X131785000Y-59727500I0J-147500D01*
G01*
G37*
G36*
G01*
X132755000Y-59727500D02*
X132755000Y-60072500D01*
G75*
G02*
X132607500Y-60220000I-147500J0D01*
G01*
X132312500Y-60220000D01*
G75*
G02*
X132165000Y-60072500I0J147500D01*
G01*
X132165000Y-59727500D01*
G75*
G02*
X132312500Y-59580000I147500J0D01*
G01*
X132607500Y-59580000D01*
G75*
G02*
X132755000Y-59727500I0J-147500D01*
G01*
G37*
G36*
G01*
X141440000Y-97422500D02*
X141440000Y-97077500D01*
G75*
G02*
X141587500Y-96930000I147500J0D01*
G01*
X141882500Y-96930000D01*
G75*
G02*
X142030000Y-97077500I0J-147500D01*
G01*
X142030000Y-97422500D01*
G75*
G02*
X141882500Y-97570000I-147500J0D01*
G01*
X141587500Y-97570000D01*
G75*
G02*
X141440000Y-97422500I0J147500D01*
G01*
G37*
G36*
G01*
X140470000Y-97422500D02*
X140470000Y-97077500D01*
G75*
G02*
X140617500Y-96930000I147500J0D01*
G01*
X140912500Y-96930000D01*
G75*
G02*
X141060000Y-97077500I0J-147500D01*
G01*
X141060000Y-97422500D01*
G75*
G02*
X140912500Y-97570000I-147500J0D01*
G01*
X140617500Y-97570000D01*
G75*
G02*
X140470000Y-97422500I0J147500D01*
G01*
G37*
G36*
G01*
X112410000Y-86977500D02*
X112410000Y-87322500D01*
G75*
G02*
X112262500Y-87470000I-147500J0D01*
G01*
X111967500Y-87470000D01*
G75*
G02*
X111820000Y-87322500I0J147500D01*
G01*
X111820000Y-86977500D01*
G75*
G02*
X111967500Y-86830000I147500J0D01*
G01*
X112262500Y-86830000D01*
G75*
G02*
X112410000Y-86977500I0J-147500D01*
G01*
G37*
G36*
G01*
X113380000Y-86977500D02*
X113380000Y-87322500D01*
G75*
G02*
X113232500Y-87470000I-147500J0D01*
G01*
X112937500Y-87470000D01*
G75*
G02*
X112790000Y-87322500I0J147500D01*
G01*
X112790000Y-86977500D01*
G75*
G02*
X112937500Y-86830000I147500J0D01*
G01*
X113232500Y-86830000D01*
G75*
G02*
X113380000Y-86977500I0J-147500D01*
G01*
G37*
G36*
G01*
X111820000Y-88322500D02*
X111820000Y-87977500D01*
G75*
G02*
X111967500Y-87830000I147500J0D01*
G01*
X112262500Y-87830000D01*
G75*
G02*
X112410000Y-87977500I0J-147500D01*
G01*
X112410000Y-88322500D01*
G75*
G02*
X112262500Y-88470000I-147500J0D01*
G01*
X111967500Y-88470000D01*
G75*
G02*
X111820000Y-88322500I0J147500D01*
G01*
G37*
G36*
G01*
X112790000Y-88322500D02*
X112790000Y-87977500D01*
G75*
G02*
X112937500Y-87830000I147500J0D01*
G01*
X113232500Y-87830000D01*
G75*
G02*
X113380000Y-87977500I0J-147500D01*
G01*
X113380000Y-88322500D01*
G75*
G02*
X113232500Y-88470000I-147500J0D01*
G01*
X112937500Y-88470000D01*
G75*
G02*
X112790000Y-88322500I0J147500D01*
G01*
G37*
G36*
G01*
X143572500Y-95930000D02*
X143227500Y-95930000D01*
G75*
G02*
X143080000Y-95782500I0J147500D01*
G01*
X143080000Y-95487500D01*
G75*
G02*
X143227500Y-95340000I147500J0D01*
G01*
X143572500Y-95340000D01*
G75*
G02*
X143720000Y-95487500I0J-147500D01*
G01*
X143720000Y-95782500D01*
G75*
G02*
X143572500Y-95930000I-147500J0D01*
G01*
G37*
G36*
G01*
X143572500Y-94960000D02*
X143227500Y-94960000D01*
G75*
G02*
X143080000Y-94812500I0J147500D01*
G01*
X143080000Y-94517500D01*
G75*
G02*
X143227500Y-94370000I147500J0D01*
G01*
X143572500Y-94370000D01*
G75*
G02*
X143720000Y-94517500I0J-147500D01*
G01*
X143720000Y-94812500D01*
G75*
G02*
X143572500Y-94960000I-147500J0D01*
G01*
G37*
G36*
G01*
X152020000Y-80472500D02*
X152020000Y-80127500D01*
G75*
G02*
X152167500Y-79980000I147500J0D01*
G01*
X152462500Y-79980000D01*
G75*
G02*
X152610000Y-80127500I0J-147500D01*
G01*
X152610000Y-80472500D01*
G75*
G02*
X152462500Y-80620000I-147500J0D01*
G01*
X152167500Y-80620000D01*
G75*
G02*
X152020000Y-80472500I0J147500D01*
G01*
G37*
G36*
G01*
X152990000Y-80472500D02*
X152990000Y-80127500D01*
G75*
G02*
X153137500Y-79980000I147500J0D01*
G01*
X153432500Y-79980000D01*
G75*
G02*
X153580000Y-80127500I0J-147500D01*
G01*
X153580000Y-80472500D01*
G75*
G02*
X153432500Y-80620000I-147500J0D01*
G01*
X153137500Y-80620000D01*
G75*
G02*
X152990000Y-80472500I0J147500D01*
G01*
G37*
G36*
G01*
X155342500Y-77980000D02*
X154997500Y-77980000D01*
G75*
G02*
X154850000Y-77832500I0J147500D01*
G01*
X154850000Y-77537500D01*
G75*
G02*
X154997500Y-77390000I147500J0D01*
G01*
X155342500Y-77390000D01*
G75*
G02*
X155490000Y-77537500I0J-147500D01*
G01*
X155490000Y-77832500D01*
G75*
G02*
X155342500Y-77980000I-147500J0D01*
G01*
G37*
G36*
G01*
X155342500Y-78950000D02*
X154997500Y-78950000D01*
G75*
G02*
X154850000Y-78802500I0J147500D01*
G01*
X154850000Y-78507500D01*
G75*
G02*
X154997500Y-78360000I147500J0D01*
G01*
X155342500Y-78360000D01*
G75*
G02*
X155490000Y-78507500I0J-147500D01*
G01*
X155490000Y-78802500D01*
G75*
G02*
X155342500Y-78950000I-147500J0D01*
G01*
G37*
G36*
G01*
X144027500Y-78290000D02*
X144372500Y-78290000D01*
G75*
G02*
X144520000Y-78437500I0J-147500D01*
G01*
X144520000Y-78732500D01*
G75*
G02*
X144372500Y-78880000I-147500J0D01*
G01*
X144027500Y-78880000D01*
G75*
G02*
X143880000Y-78732500I0J147500D01*
G01*
X143880000Y-78437500D01*
G75*
G02*
X144027500Y-78290000I147500J0D01*
G01*
G37*
G36*
G01*
X144027500Y-77320000D02*
X144372500Y-77320000D01*
G75*
G02*
X144520000Y-77467500I0J-147500D01*
G01*
X144520000Y-77762500D01*
G75*
G02*
X144372500Y-77910000I-147500J0D01*
G01*
X144027500Y-77910000D01*
G75*
G02*
X143880000Y-77762500I0J147500D01*
G01*
X143880000Y-77467500D01*
G75*
G02*
X144027500Y-77320000I147500J0D01*
G01*
G37*
G36*
G01*
X145077500Y-77320000D02*
X145422500Y-77320000D01*
G75*
G02*
X145570000Y-77467500I0J-147500D01*
G01*
X145570000Y-77762500D01*
G75*
G02*
X145422500Y-77910000I-147500J0D01*
G01*
X145077500Y-77910000D01*
G75*
G02*
X144930000Y-77762500I0J147500D01*
G01*
X144930000Y-77467500D01*
G75*
G02*
X145077500Y-77320000I147500J0D01*
G01*
G37*
G36*
G01*
X145077500Y-78290000D02*
X145422500Y-78290000D01*
G75*
G02*
X145570000Y-78437500I0J-147500D01*
G01*
X145570000Y-78732500D01*
G75*
G02*
X145422500Y-78880000I-147500J0D01*
G01*
X145077500Y-78880000D01*
G75*
G02*
X144930000Y-78732500I0J147500D01*
G01*
X144930000Y-78437500D01*
G75*
G02*
X145077500Y-78290000I147500J0D01*
G01*
G37*
G36*
G01*
X143522500Y-67430000D02*
X143177500Y-67430000D01*
G75*
G02*
X143030000Y-67282500I0J147500D01*
G01*
X143030000Y-66987500D01*
G75*
G02*
X143177500Y-66840000I147500J0D01*
G01*
X143522500Y-66840000D01*
G75*
G02*
X143670000Y-66987500I0J-147500D01*
G01*
X143670000Y-67282500D01*
G75*
G02*
X143522500Y-67430000I-147500J0D01*
G01*
G37*
G36*
G01*
X143522500Y-68400000D02*
X143177500Y-68400000D01*
G75*
G02*
X143030000Y-68252500I0J147500D01*
G01*
X143030000Y-67957500D01*
G75*
G02*
X143177500Y-67810000I147500J0D01*
G01*
X143522500Y-67810000D01*
G75*
G02*
X143670000Y-67957500I0J-147500D01*
G01*
X143670000Y-68252500D01*
G75*
G02*
X143522500Y-68400000I-147500J0D01*
G01*
G37*
G36*
G01*
X112220000Y-69372500D02*
X112220000Y-69027500D01*
G75*
G02*
X112367500Y-68880000I147500J0D01*
G01*
X112662500Y-68880000D01*
G75*
G02*
X112810000Y-69027500I0J-147500D01*
G01*
X112810000Y-69372500D01*
G75*
G02*
X112662500Y-69520000I-147500J0D01*
G01*
X112367500Y-69520000D01*
G75*
G02*
X112220000Y-69372500I0J147500D01*
G01*
G37*
G36*
G01*
X113190000Y-69372500D02*
X113190000Y-69027500D01*
G75*
G02*
X113337500Y-68880000I147500J0D01*
G01*
X113632500Y-68880000D01*
G75*
G02*
X113780000Y-69027500I0J-147500D01*
G01*
X113780000Y-69372500D01*
G75*
G02*
X113632500Y-69520000I-147500J0D01*
G01*
X113337500Y-69520000D01*
G75*
G02*
X113190000Y-69372500I0J147500D01*
G01*
G37*
G36*
G01*
X113190000Y-70422500D02*
X113190000Y-70077500D01*
G75*
G02*
X113337500Y-69930000I147500J0D01*
G01*
X113632500Y-69930000D01*
G75*
G02*
X113780000Y-70077500I0J-147500D01*
G01*
X113780000Y-70422500D01*
G75*
G02*
X113632500Y-70570000I-147500J0D01*
G01*
X113337500Y-70570000D01*
G75*
G02*
X113190000Y-70422500I0J147500D01*
G01*
G37*
G36*
G01*
X112220000Y-70422500D02*
X112220000Y-70077500D01*
G75*
G02*
X112367500Y-69930000I147500J0D01*
G01*
X112662500Y-69930000D01*
G75*
G02*
X112810000Y-70077500I0J-147500D01*
G01*
X112810000Y-70422500D01*
G75*
G02*
X112662500Y-70570000I-147500J0D01*
G01*
X112367500Y-70570000D01*
G75*
G02*
X112220000Y-70422500I0J147500D01*
G01*
G37*
G36*
G01*
X131972500Y-85095000D02*
X131627500Y-85095000D01*
G75*
G02*
X131480000Y-84947500I0J147500D01*
G01*
X131480000Y-84652500D01*
G75*
G02*
X131627500Y-84505000I147500J0D01*
G01*
X131972500Y-84505000D01*
G75*
G02*
X132120000Y-84652500I0J-147500D01*
G01*
X132120000Y-84947500D01*
G75*
G02*
X131972500Y-85095000I-147500J0D01*
G01*
G37*
G36*
G01*
X131972500Y-84125000D02*
X131627500Y-84125000D01*
G75*
G02*
X131480000Y-83977500I0J147500D01*
G01*
X131480000Y-83682500D01*
G75*
G02*
X131627500Y-83535000I147500J0D01*
G01*
X131972500Y-83535000D01*
G75*
G02*
X132120000Y-83682500I0J-147500D01*
G01*
X132120000Y-83977500D01*
G75*
G02*
X131972500Y-84125000I-147500J0D01*
G01*
G37*
G36*
G01*
X132677500Y-94170000D02*
X133022500Y-94170000D01*
G75*
G02*
X133170000Y-94317500I0J-147500D01*
G01*
X133170000Y-94612500D01*
G75*
G02*
X133022500Y-94760000I-147500J0D01*
G01*
X132677500Y-94760000D01*
G75*
G02*
X132530000Y-94612500I0J147500D01*
G01*
X132530000Y-94317500D01*
G75*
G02*
X132677500Y-94170000I147500J0D01*
G01*
G37*
G36*
G01*
X132677500Y-95140000D02*
X133022500Y-95140000D01*
G75*
G02*
X133170000Y-95287500I0J-147500D01*
G01*
X133170000Y-95582500D01*
G75*
G02*
X133022500Y-95730000I-147500J0D01*
G01*
X132677500Y-95730000D01*
G75*
G02*
X132530000Y-95582500I0J147500D01*
G01*
X132530000Y-95287500D01*
G75*
G02*
X132677500Y-95140000I147500J0D01*
G01*
G37*
G36*
G01*
X133727500Y-95140000D02*
X134072500Y-95140000D01*
G75*
G02*
X134220000Y-95287500I0J-147500D01*
G01*
X134220000Y-95582500D01*
G75*
G02*
X134072500Y-95730000I-147500J0D01*
G01*
X133727500Y-95730000D01*
G75*
G02*
X133580000Y-95582500I0J147500D01*
G01*
X133580000Y-95287500D01*
G75*
G02*
X133727500Y-95140000I147500J0D01*
G01*
G37*
G36*
G01*
X133727500Y-94170000D02*
X134072500Y-94170000D01*
G75*
G02*
X134220000Y-94317500I0J-147500D01*
G01*
X134220000Y-94612500D01*
G75*
G02*
X134072500Y-94760000I-147500J0D01*
G01*
X133727500Y-94760000D01*
G75*
G02*
X133580000Y-94612500I0J147500D01*
G01*
X133580000Y-94317500D01*
G75*
G02*
X133727500Y-94170000I147500J0D01*
G01*
G37*
D23*
X143875000Y-69425000D03*
X143875000Y-70075000D03*
X143875000Y-70725000D03*
X143875000Y-71375000D03*
X143875000Y-72025000D03*
X143875000Y-72675000D03*
X143875000Y-73325000D03*
X143875000Y-73975000D03*
X143875000Y-74625000D03*
X143875000Y-75275000D03*
X144525000Y-69425000D03*
X144525000Y-70075000D03*
X144525000Y-70725000D03*
X144525000Y-71375000D03*
X144525000Y-72025000D03*
X144525000Y-72675000D03*
X144525000Y-73325000D03*
X144525000Y-73975000D03*
X144525000Y-74625000D03*
X144525000Y-75275000D03*
X145175000Y-69425000D03*
X145175000Y-70075000D03*
X145175000Y-74625000D03*
X145175000Y-75275000D03*
X145825000Y-69425000D03*
X145825000Y-70075000D03*
X145825000Y-71375000D03*
X145825000Y-72025000D03*
X145825000Y-72675000D03*
X145825000Y-73325000D03*
X145825000Y-74625000D03*
X145825000Y-75275000D03*
X146475000Y-69425000D03*
X146475000Y-70075000D03*
X146475000Y-71375000D03*
X146475000Y-72025000D03*
X146475000Y-72675000D03*
X146475000Y-73325000D03*
X146475000Y-74625000D03*
X146475000Y-75275000D03*
X147125000Y-69425000D03*
X147125000Y-70075000D03*
X147125000Y-71375000D03*
X147125000Y-72025000D03*
X147125000Y-72675000D03*
X147125000Y-73325000D03*
X147125000Y-74625000D03*
X147125000Y-75275000D03*
X147775000Y-69425000D03*
X147775000Y-70075000D03*
X147775000Y-71375000D03*
X147775000Y-72025000D03*
X147775000Y-72675000D03*
X147775000Y-73325000D03*
X147775000Y-74625000D03*
X147775000Y-75275000D03*
X148425000Y-69425000D03*
X148425000Y-70075000D03*
X148425000Y-74625000D03*
X148425000Y-75275000D03*
X149075000Y-69425000D03*
X149075000Y-70075000D03*
X149075000Y-70725000D03*
X149075000Y-71375000D03*
X149075000Y-72025000D03*
X149075000Y-72675000D03*
X149075000Y-73325000D03*
X149075000Y-73975000D03*
X149075000Y-74625000D03*
X149075000Y-75275000D03*
X149725000Y-69425000D03*
X149725000Y-70075000D03*
X149725000Y-70725000D03*
X149725000Y-71375000D03*
X149725000Y-72025000D03*
X149725000Y-72675000D03*
X149725000Y-73325000D03*
X149725000Y-73975000D03*
X149725000Y-74625000D03*
X149725000Y-75275000D03*
X138225000Y-91925000D03*
X138225000Y-91275000D03*
X138225000Y-90625000D03*
X138225000Y-89975000D03*
X138225000Y-89325000D03*
X138225000Y-88675000D03*
X138225000Y-88025000D03*
X138225000Y-87375000D03*
X138225000Y-86725000D03*
X138225000Y-86075000D03*
X137575000Y-91925000D03*
X137575000Y-91275000D03*
X137575000Y-90625000D03*
X137575000Y-89975000D03*
X137575000Y-89325000D03*
X137575000Y-88675000D03*
X137575000Y-88025000D03*
X137575000Y-87375000D03*
X137575000Y-86725000D03*
X137575000Y-86075000D03*
X136925000Y-91925000D03*
X136925000Y-91275000D03*
X136925000Y-86725000D03*
X136925000Y-86075000D03*
X136275000Y-91925000D03*
X136275000Y-91275000D03*
X136275000Y-89975000D03*
X136275000Y-89325000D03*
X136275000Y-88675000D03*
X136275000Y-88025000D03*
X136275000Y-86725000D03*
X136275000Y-86075000D03*
X135625000Y-91925000D03*
X135625000Y-91275000D03*
X135625000Y-89975000D03*
X135625000Y-89325000D03*
X135625000Y-88675000D03*
X135625000Y-88025000D03*
X135625000Y-86725000D03*
X135625000Y-86075000D03*
X134975000Y-91925000D03*
X134975000Y-91275000D03*
X134975000Y-89975000D03*
X134975000Y-89325000D03*
X134975000Y-88675000D03*
X134975000Y-88025000D03*
X134975000Y-86725000D03*
X134975000Y-86075000D03*
X134325000Y-91925000D03*
X134325000Y-91275000D03*
X134325000Y-89975000D03*
X134325000Y-89325000D03*
X134325000Y-88675000D03*
X134325000Y-88025000D03*
X134325000Y-86725000D03*
X134325000Y-86075000D03*
X133675000Y-91925000D03*
X133675000Y-91275000D03*
X133675000Y-86725000D03*
X133675000Y-86075000D03*
X133025000Y-91925000D03*
X133025000Y-91275000D03*
X133025000Y-90625000D03*
X133025000Y-89975000D03*
X133025000Y-89325000D03*
X133025000Y-88675000D03*
X133025000Y-88025000D03*
X133025000Y-87375000D03*
X133025000Y-86725000D03*
X133025000Y-86075000D03*
X132375000Y-91925000D03*
X132375000Y-91275000D03*
X132375000Y-90625000D03*
X132375000Y-89975000D03*
X132375000Y-89325000D03*
X132375000Y-88675000D03*
X132375000Y-88025000D03*
X132375000Y-87375000D03*
X132375000Y-86725000D03*
X132375000Y-86075000D03*
G36*
G01*
X167762500Y-94150000D02*
X167417500Y-94150000D01*
G75*
G02*
X167270000Y-94002500I0J147500D01*
G01*
X167270000Y-93707500D01*
G75*
G02*
X167417500Y-93560000I147500J0D01*
G01*
X167762500Y-93560000D01*
G75*
G02*
X167910000Y-93707500I0J-147500D01*
G01*
X167910000Y-94002500D01*
G75*
G02*
X167762500Y-94150000I-147500J0D01*
G01*
G37*
G36*
G01*
X167762500Y-93180000D02*
X167417500Y-93180000D01*
G75*
G02*
X167270000Y-93032500I0J147500D01*
G01*
X167270000Y-92737500D01*
G75*
G02*
X167417500Y-92590000I147500J0D01*
G01*
X167762500Y-92590000D01*
G75*
G02*
X167910000Y-92737500I0J-147500D01*
G01*
X167910000Y-93032500D01*
G75*
G02*
X167762500Y-93180000I-147500J0D01*
G01*
G37*
G36*
G01*
X157427500Y-99440000D02*
X157772500Y-99440000D01*
G75*
G02*
X157920000Y-99587500I0J-147500D01*
G01*
X157920000Y-99882500D01*
G75*
G02*
X157772500Y-100030000I-147500J0D01*
G01*
X157427500Y-100030000D01*
G75*
G02*
X157280000Y-99882500I0J147500D01*
G01*
X157280000Y-99587500D01*
G75*
G02*
X157427500Y-99440000I147500J0D01*
G01*
G37*
G36*
G01*
X157427500Y-98470000D02*
X157772500Y-98470000D01*
G75*
G02*
X157920000Y-98617500I0J-147500D01*
G01*
X157920000Y-98912500D01*
G75*
G02*
X157772500Y-99060000I-147500J0D01*
G01*
X157427500Y-99060000D01*
G75*
G02*
X157280000Y-98912500I0J147500D01*
G01*
X157280000Y-98617500D01*
G75*
G02*
X157427500Y-98470000I147500J0D01*
G01*
G37*
G36*
G01*
X165770000Y-104422500D02*
X165770000Y-104077500D01*
G75*
G02*
X165917500Y-103930000I147500J0D01*
G01*
X166212500Y-103930000D01*
G75*
G02*
X166360000Y-104077500I0J-147500D01*
G01*
X166360000Y-104422500D01*
G75*
G02*
X166212500Y-104570000I-147500J0D01*
G01*
X165917500Y-104570000D01*
G75*
G02*
X165770000Y-104422500I0J147500D01*
G01*
G37*
G36*
G01*
X166740000Y-104422500D02*
X166740000Y-104077500D01*
G75*
G02*
X166887500Y-103930000I147500J0D01*
G01*
X167182500Y-103930000D01*
G75*
G02*
X167330000Y-104077500I0J-147500D01*
G01*
X167330000Y-104422500D01*
G75*
G02*
X167182500Y-104570000I-147500J0D01*
G01*
X166887500Y-104570000D01*
G75*
G02*
X166740000Y-104422500I0J147500D01*
G01*
G37*
G36*
G01*
X158360000Y-92577500D02*
X158360000Y-92922500D01*
G75*
G02*
X158212500Y-93070000I-147500J0D01*
G01*
X157917500Y-93070000D01*
G75*
G02*
X157770000Y-92922500I0J147500D01*
G01*
X157770000Y-92577500D01*
G75*
G02*
X157917500Y-92430000I147500J0D01*
G01*
X158212500Y-92430000D01*
G75*
G02*
X158360000Y-92577500I0J-147500D01*
G01*
G37*
G36*
G01*
X159330000Y-92577500D02*
X159330000Y-92922500D01*
G75*
G02*
X159182500Y-93070000I-147500J0D01*
G01*
X158887500Y-93070000D01*
G75*
G02*
X158740000Y-92922500I0J147500D01*
G01*
X158740000Y-92577500D01*
G75*
G02*
X158887500Y-92430000I147500J0D01*
G01*
X159182500Y-92430000D01*
G75*
G02*
X159330000Y-92577500I0J-147500D01*
G01*
G37*
G36*
G01*
X168762500Y-94140000D02*
X168417500Y-94140000D01*
G75*
G02*
X168270000Y-93992500I0J147500D01*
G01*
X168270000Y-93697500D01*
G75*
G02*
X168417500Y-93550000I147500J0D01*
G01*
X168762500Y-93550000D01*
G75*
G02*
X168910000Y-93697500I0J-147500D01*
G01*
X168910000Y-93992500D01*
G75*
G02*
X168762500Y-94140000I-147500J0D01*
G01*
G37*
G36*
G01*
X168762500Y-93170000D02*
X168417500Y-93170000D01*
G75*
G02*
X168270000Y-93022500I0J147500D01*
G01*
X168270000Y-92727500D01*
G75*
G02*
X168417500Y-92580000I147500J0D01*
G01*
X168762500Y-92580000D01*
G75*
G02*
X168910000Y-92727500I0J-147500D01*
G01*
X168910000Y-93022500D01*
G75*
G02*
X168762500Y-93170000I-147500J0D01*
G01*
G37*
G36*
G01*
X158360000Y-93577500D02*
X158360000Y-93922500D01*
G75*
G02*
X158212500Y-94070000I-147500J0D01*
G01*
X157917500Y-94070000D01*
G75*
G02*
X157770000Y-93922500I0J147500D01*
G01*
X157770000Y-93577500D01*
G75*
G02*
X157917500Y-93430000I147500J0D01*
G01*
X158212500Y-93430000D01*
G75*
G02*
X158360000Y-93577500I0J-147500D01*
G01*
G37*
G36*
G01*
X159330000Y-93577500D02*
X159330000Y-93922500D01*
G75*
G02*
X159182500Y-94070000I-147500J0D01*
G01*
X158887500Y-94070000D01*
G75*
G02*
X158740000Y-93922500I0J147500D01*
G01*
X158740000Y-93577500D01*
G75*
G02*
X158887500Y-93430000I147500J0D01*
G01*
X159182500Y-93430000D01*
G75*
G02*
X159330000Y-93577500I0J-147500D01*
G01*
G37*
G36*
G01*
X165770000Y-103392500D02*
X165770000Y-103047500D01*
G75*
G02*
X165917500Y-102900000I147500J0D01*
G01*
X166212500Y-102900000D01*
G75*
G02*
X166360000Y-103047500I0J-147500D01*
G01*
X166360000Y-103392500D01*
G75*
G02*
X166212500Y-103540000I-147500J0D01*
G01*
X165917500Y-103540000D01*
G75*
G02*
X165770000Y-103392500I0J147500D01*
G01*
G37*
G36*
G01*
X166740000Y-103392500D02*
X166740000Y-103047500D01*
G75*
G02*
X166887500Y-102900000I147500J0D01*
G01*
X167182500Y-102900000D01*
G75*
G02*
X167330000Y-103047500I0J-147500D01*
G01*
X167330000Y-103392500D01*
G75*
G02*
X167182500Y-103540000I-147500J0D01*
G01*
X166887500Y-103540000D01*
G75*
G02*
X166740000Y-103392500I0J147500D01*
G01*
G37*
G36*
G01*
X154520000Y-100522500D02*
X154520000Y-100177500D01*
G75*
G02*
X154667500Y-100030000I147500J0D01*
G01*
X154962500Y-100030000D01*
G75*
G02*
X155110000Y-100177500I0J-147500D01*
G01*
X155110000Y-100522500D01*
G75*
G02*
X154962500Y-100670000I-147500J0D01*
G01*
X154667500Y-100670000D01*
G75*
G02*
X154520000Y-100522500I0J147500D01*
G01*
G37*
G36*
G01*
X155490000Y-100522500D02*
X155490000Y-100177500D01*
G75*
G02*
X155637500Y-100030000I147500J0D01*
G01*
X155932500Y-100030000D01*
G75*
G02*
X156080000Y-100177500I0J-147500D01*
G01*
X156080000Y-100522500D01*
G75*
G02*
X155932500Y-100670000I-147500J0D01*
G01*
X155637500Y-100670000D01*
G75*
G02*
X155490000Y-100522500I0J147500D01*
G01*
G37*
G36*
G01*
X151422500Y-99225000D02*
X151077500Y-99225000D01*
G75*
G02*
X150930000Y-99077500I0J147500D01*
G01*
X150930000Y-98782500D01*
G75*
G02*
X151077500Y-98635000I147500J0D01*
G01*
X151422500Y-98635000D01*
G75*
G02*
X151570000Y-98782500I0J-147500D01*
G01*
X151570000Y-99077500D01*
G75*
G02*
X151422500Y-99225000I-147500J0D01*
G01*
G37*
G36*
G01*
X151422500Y-100195000D02*
X151077500Y-100195000D01*
G75*
G02*
X150930000Y-100047500I0J147500D01*
G01*
X150930000Y-99752500D01*
G75*
G02*
X151077500Y-99605000I147500J0D01*
G01*
X151422500Y-99605000D01*
G75*
G02*
X151570000Y-99752500I0J-147500D01*
G01*
X151570000Y-100047500D01*
G75*
G02*
X151422500Y-100195000I-147500J0D01*
G01*
G37*
G36*
G01*
X151077500Y-100520000D02*
X151422500Y-100520000D01*
G75*
G02*
X151570000Y-100667500I0J-147500D01*
G01*
X151570000Y-100962500D01*
G75*
G02*
X151422500Y-101110000I-147500J0D01*
G01*
X151077500Y-101110000D01*
G75*
G02*
X150930000Y-100962500I0J147500D01*
G01*
X150930000Y-100667500D01*
G75*
G02*
X151077500Y-100520000I147500J0D01*
G01*
G37*
G36*
G01*
X151077500Y-101490000D02*
X151422500Y-101490000D01*
G75*
G02*
X151570000Y-101637500I0J-147500D01*
G01*
X151570000Y-101932500D01*
G75*
G02*
X151422500Y-102080000I-147500J0D01*
G01*
X151077500Y-102080000D01*
G75*
G02*
X150930000Y-101932500I0J147500D01*
G01*
X150930000Y-101637500D01*
G75*
G02*
X151077500Y-101490000I147500J0D01*
G01*
G37*
G36*
G01*
X108230001Y-54642500D02*
X107329999Y-54642500D01*
G75*
G02*
X107080000Y-54392501I0J249999D01*
G01*
X107080000Y-53867499D01*
G75*
G02*
X107329999Y-53617500I249999J0D01*
G01*
X108230001Y-53617500D01*
G75*
G02*
X108480000Y-53867499I0J-249999D01*
G01*
X108480000Y-54392501D01*
G75*
G02*
X108230001Y-54642500I-249999J0D01*
G01*
G37*
G36*
G01*
X108230001Y-52817500D02*
X107329999Y-52817500D01*
G75*
G02*
X107080000Y-52567501I0J249999D01*
G01*
X107080000Y-52042499D01*
G75*
G02*
X107329999Y-51792500I249999J0D01*
G01*
X108230001Y-51792500D01*
G75*
G02*
X108480000Y-52042499I0J-249999D01*
G01*
X108480000Y-52567501D01*
G75*
G02*
X108230001Y-52817500I-249999J0D01*
G01*
G37*
G36*
G01*
X110250001Y-54637500D02*
X109349999Y-54637500D01*
G75*
G02*
X109100000Y-54387501I0J249999D01*
G01*
X109100000Y-53862499D01*
G75*
G02*
X109349999Y-53612500I249999J0D01*
G01*
X110250001Y-53612500D01*
G75*
G02*
X110500000Y-53862499I0J-249999D01*
G01*
X110500000Y-54387501D01*
G75*
G02*
X110250001Y-54637500I-249999J0D01*
G01*
G37*
G36*
G01*
X110250001Y-52812500D02*
X109349999Y-52812500D01*
G75*
G02*
X109100000Y-52562501I0J249999D01*
G01*
X109100000Y-52037499D01*
G75*
G02*
X109349999Y-51787500I249999J0D01*
G01*
X110250001Y-51787500D01*
G75*
G02*
X110500000Y-52037499I0J-249999D01*
G01*
X110500000Y-52562501D01*
G75*
G02*
X110250001Y-52812500I-249999J0D01*
G01*
G37*
G36*
G01*
X118930000Y-61718000D02*
X118930000Y-61218000D01*
G75*
G02*
X119155000Y-60993000I225000J0D01*
G01*
X119605000Y-60993000D01*
G75*
G02*
X119830000Y-61218000I0J-225000D01*
G01*
X119830000Y-61718000D01*
G75*
G02*
X119605000Y-61943000I-225000J0D01*
G01*
X119155000Y-61943000D01*
G75*
G02*
X118930000Y-61718000I0J225000D01*
G01*
G37*
G36*
G01*
X120480000Y-61718000D02*
X120480000Y-61218000D01*
G75*
G02*
X120705000Y-60993000I225000J0D01*
G01*
X121155000Y-60993000D01*
G75*
G02*
X121380000Y-61218000I0J-225000D01*
G01*
X121380000Y-61718000D01*
G75*
G02*
X121155000Y-61943000I-225000J0D01*
G01*
X120705000Y-61943000D01*
G75*
G02*
X120480000Y-61718000I0J225000D01*
G01*
G37*
G36*
G01*
X117089500Y-63442001D02*
X117089500Y-62541999D01*
G75*
G02*
X117339499Y-62292000I249999J0D01*
G01*
X117864501Y-62292000D01*
G75*
G02*
X118114500Y-62541999I0J-249999D01*
G01*
X118114500Y-63442001D01*
G75*
G02*
X117864501Y-63692000I-249999J0D01*
G01*
X117339499Y-63692000D01*
G75*
G02*
X117089500Y-63442001I0J249999D01*
G01*
G37*
G36*
G01*
X115264500Y-63442001D02*
X115264500Y-62541999D01*
G75*
G02*
X115514499Y-62292000I249999J0D01*
G01*
X116039501Y-62292000D01*
G75*
G02*
X116289500Y-62541999I0J-249999D01*
G01*
X116289500Y-63442001D01*
G75*
G02*
X116039501Y-63692000I-249999J0D01*
G01*
X115514499Y-63692000D01*
G75*
G02*
X115264500Y-63442001I0J249999D01*
G01*
G37*
G36*
G01*
X110423000Y-63642001D02*
X110423000Y-62341999D01*
G75*
G02*
X110672999Y-62092000I249999J0D01*
G01*
X111323001Y-62092000D01*
G75*
G02*
X111573000Y-62341999I0J-249999D01*
G01*
X111573000Y-63642001D01*
G75*
G02*
X111323001Y-63892000I-249999J0D01*
G01*
X110672999Y-63892000D01*
G75*
G02*
X110423000Y-63642001I0J249999D01*
G01*
G37*
G36*
G01*
X113373000Y-63642001D02*
X113373000Y-62341999D01*
G75*
G02*
X113622999Y-62092000I249999J0D01*
G01*
X114273001Y-62092000D01*
G75*
G02*
X114523000Y-62341999I0J-249999D01*
G01*
X114523000Y-63642001D01*
G75*
G02*
X114273001Y-63892000I-249999J0D01*
G01*
X113622999Y-63892000D01*
G75*
G02*
X113373000Y-63642001I0J249999D01*
G01*
G37*
G36*
G01*
X111125000Y-55439000D02*
X111125000Y-54489000D01*
G75*
G02*
X111375000Y-54239000I250000J0D01*
G01*
X111875000Y-54239000D01*
G75*
G02*
X112125000Y-54489000I0J-250000D01*
G01*
X112125000Y-55439000D01*
G75*
G02*
X111875000Y-55689000I-250000J0D01*
G01*
X111375000Y-55689000D01*
G75*
G02*
X111125000Y-55439000I0J250000D01*
G01*
G37*
G36*
G01*
X113025000Y-55439000D02*
X113025000Y-54489000D01*
G75*
G02*
X113275000Y-54239000I250000J0D01*
G01*
X113775000Y-54239000D01*
G75*
G02*
X114025000Y-54489000I0J-250000D01*
G01*
X114025000Y-55439000D01*
G75*
G02*
X113775000Y-55689000I-250000J0D01*
G01*
X113275000Y-55689000D01*
G75*
G02*
X113025000Y-55439000I0J250000D01*
G01*
G37*
G36*
G01*
X123496000Y-53700500D02*
X123496000Y-53499500D01*
G75*
G02*
X123575500Y-53420000I79500J0D01*
G01*
X123734500Y-53420000D01*
G75*
G02*
X123814000Y-53499500I0J-79500D01*
G01*
X123814000Y-53700500D01*
G75*
G02*
X123734500Y-53780000I-79500J0D01*
G01*
X123575500Y-53780000D01*
G75*
G02*
X123496000Y-53700500I0J79500D01*
G01*
G37*
G36*
G01*
X124186000Y-53700500D02*
X124186000Y-53499500D01*
G75*
G02*
X124265500Y-53420000I79500J0D01*
G01*
X124424500Y-53420000D01*
G75*
G02*
X124504000Y-53499500I0J-79500D01*
G01*
X124504000Y-53700500D01*
G75*
G02*
X124424500Y-53780000I-79500J0D01*
G01*
X124265500Y-53780000D01*
G75*
G02*
X124186000Y-53700500I0J79500D01*
G01*
G37*
G36*
G01*
X123441000Y-52750500D02*
X123441000Y-52549500D01*
G75*
G02*
X123520500Y-52470000I79500J0D01*
G01*
X123679500Y-52470000D01*
G75*
G02*
X123759000Y-52549500I0J-79500D01*
G01*
X123759000Y-52750500D01*
G75*
G02*
X123679500Y-52830000I-79500J0D01*
G01*
X123520500Y-52830000D01*
G75*
G02*
X123441000Y-52750500I0J79500D01*
G01*
G37*
G36*
G01*
X124131000Y-52750500D02*
X124131000Y-52549500D01*
G75*
G02*
X124210500Y-52470000I79500J0D01*
G01*
X124369500Y-52470000D01*
G75*
G02*
X124449000Y-52549500I0J-79500D01*
G01*
X124449000Y-52750500D01*
G75*
G02*
X124369500Y-52830000I-79500J0D01*
G01*
X124210500Y-52830000D01*
G75*
G02*
X124131000Y-52750500I0J79500D01*
G01*
G37*
G36*
G01*
X124111000Y-51825500D02*
X124111000Y-51624500D01*
G75*
G02*
X124190500Y-51545000I79500J0D01*
G01*
X124349500Y-51545000D01*
G75*
G02*
X124429000Y-51624500I0J-79500D01*
G01*
X124429000Y-51825500D01*
G75*
G02*
X124349500Y-51905000I-79500J0D01*
G01*
X124190500Y-51905000D01*
G75*
G02*
X124111000Y-51825500I0J79500D01*
G01*
G37*
G36*
G01*
X123421000Y-51825500D02*
X123421000Y-51624500D01*
G75*
G02*
X123500500Y-51545000I79500J0D01*
G01*
X123659500Y-51545000D01*
G75*
G02*
X123739000Y-51624500I0J-79500D01*
G01*
X123739000Y-51825500D01*
G75*
G02*
X123659500Y-51905000I-79500J0D01*
G01*
X123500500Y-51905000D01*
G75*
G02*
X123421000Y-51825500I0J79500D01*
G01*
G37*
G36*
G01*
X142105000Y-67600000D02*
X142445000Y-67600000D01*
G75*
G02*
X142585000Y-67740000I0J-140000D01*
G01*
X142585000Y-68020000D01*
G75*
G02*
X142445000Y-68160000I-140000J0D01*
G01*
X142105000Y-68160000D01*
G75*
G02*
X141965000Y-68020000I0J140000D01*
G01*
X141965000Y-67740000D01*
G75*
G02*
X142105000Y-67600000I140000J0D01*
G01*
G37*
G36*
G01*
X142105000Y-66640000D02*
X142445000Y-66640000D01*
G75*
G02*
X142585000Y-66780000I0J-140000D01*
G01*
X142585000Y-67060000D01*
G75*
G02*
X142445000Y-67200000I-140000J0D01*
G01*
X142105000Y-67200000D01*
G75*
G02*
X141965000Y-67060000I0J140000D01*
G01*
X141965000Y-66780000D01*
G75*
G02*
X142105000Y-66640000I140000J0D01*
G01*
G37*
G36*
G01*
X131060000Y-83680000D02*
X131060000Y-84020000D01*
G75*
G02*
X130920000Y-84160000I-140000J0D01*
G01*
X130640000Y-84160000D01*
G75*
G02*
X130500000Y-84020000I0J140000D01*
G01*
X130500000Y-83680000D01*
G75*
G02*
X130640000Y-83540000I140000J0D01*
G01*
X130920000Y-83540000D01*
G75*
G02*
X131060000Y-83680000I0J-140000D01*
G01*
G37*
G36*
G01*
X130100000Y-83680000D02*
X130100000Y-84020000D01*
G75*
G02*
X129960000Y-84160000I-140000J0D01*
G01*
X129680000Y-84160000D01*
G75*
G02*
X129540000Y-84020000I0J140000D01*
G01*
X129540000Y-83680000D01*
G75*
G02*
X129680000Y-83540000I140000J0D01*
G01*
X129960000Y-83540000D01*
G75*
G02*
X130100000Y-83680000I0J-140000D01*
G01*
G37*
G36*
G01*
X175215000Y-98193750D02*
X175215000Y-98706250D01*
G75*
G02*
X174996250Y-98925000I-218750J0D01*
G01*
X174558750Y-98925000D01*
G75*
G02*
X174340000Y-98706250I0J218750D01*
G01*
X174340000Y-98193750D01*
G75*
G02*
X174558750Y-97975000I218750J0D01*
G01*
X174996250Y-97975000D01*
G75*
G02*
X175215000Y-98193750I0J-218750D01*
G01*
G37*
G36*
G01*
X173640000Y-98193750D02*
X173640000Y-98706250D01*
G75*
G02*
X173421250Y-98925000I-218750J0D01*
G01*
X172983750Y-98925000D01*
G75*
G02*
X172765000Y-98706250I0J218750D01*
G01*
X172765000Y-98193750D01*
G75*
G02*
X172983750Y-97975000I218750J0D01*
G01*
X173421250Y-97975000D01*
G75*
G02*
X173640000Y-98193750I0J-218750D01*
G01*
G37*
D24*
X115775000Y-55200000D03*
X115775000Y-51900000D03*
D25*
X118625000Y-53500000D03*
X121725000Y-53500000D03*
G36*
G01*
X138450000Y-67865000D02*
X138450000Y-68235000D01*
G75*
G02*
X138315000Y-68370000I-135000J0D01*
G01*
X138045000Y-68370000D01*
G75*
G02*
X137910000Y-68235000I0J135000D01*
G01*
X137910000Y-67865000D01*
G75*
G02*
X138045000Y-67730000I135000J0D01*
G01*
X138315000Y-67730000D01*
G75*
G02*
X138450000Y-67865000I0J-135000D01*
G01*
G37*
G36*
G01*
X137430000Y-67865000D02*
X137430000Y-68235000D01*
G75*
G02*
X137295000Y-68370000I-135000J0D01*
G01*
X137025000Y-68370000D01*
G75*
G02*
X136890000Y-68235000I0J135000D01*
G01*
X136890000Y-67865000D01*
G75*
G02*
X137025000Y-67730000I135000J0D01*
G01*
X137295000Y-67730000D01*
G75*
G02*
X137430000Y-67865000I0J-135000D01*
G01*
G37*
G36*
G01*
X124735000Y-84690000D02*
X125105000Y-84690000D01*
G75*
G02*
X125240000Y-84825000I0J-135000D01*
G01*
X125240000Y-85095000D01*
G75*
G02*
X125105000Y-85230000I-135000J0D01*
G01*
X124735000Y-85230000D01*
G75*
G02*
X124600000Y-85095000I0J135000D01*
G01*
X124600000Y-84825000D01*
G75*
G02*
X124735000Y-84690000I135000J0D01*
G01*
G37*
G36*
G01*
X124735000Y-83670000D02*
X125105000Y-83670000D01*
G75*
G02*
X125240000Y-83805000I0J-135000D01*
G01*
X125240000Y-84075000D01*
G75*
G02*
X125105000Y-84210000I-135000J0D01*
G01*
X124735000Y-84210000D01*
G75*
G02*
X124600000Y-84075000I0J135000D01*
G01*
X124600000Y-83805000D01*
G75*
G02*
X124735000Y-83670000I135000J0D01*
G01*
G37*
G36*
G01*
X145295000Y-66610000D02*
X145665000Y-66610000D01*
G75*
G02*
X145800000Y-66745000I0J-135000D01*
G01*
X145800000Y-67015000D01*
G75*
G02*
X145665000Y-67150000I-135000J0D01*
G01*
X145295000Y-67150000D01*
G75*
G02*
X145160000Y-67015000I0J135000D01*
G01*
X145160000Y-66745000D01*
G75*
G02*
X145295000Y-66610000I135000J0D01*
G01*
G37*
G36*
G01*
X145295000Y-67630000D02*
X145665000Y-67630000D01*
G75*
G02*
X145800000Y-67765000I0J-135000D01*
G01*
X145800000Y-68035000D01*
G75*
G02*
X145665000Y-68170000I-135000J0D01*
G01*
X145295000Y-68170000D01*
G75*
G02*
X145160000Y-68035000I0J135000D01*
G01*
X145160000Y-67765000D01*
G75*
G02*
X145295000Y-67630000I135000J0D01*
G01*
G37*
G36*
G01*
X116585000Y-67470000D02*
X116215000Y-67470000D01*
G75*
G02*
X116080000Y-67335000I0J135000D01*
G01*
X116080000Y-67065000D01*
G75*
G02*
X116215000Y-66930000I135000J0D01*
G01*
X116585000Y-66930000D01*
G75*
G02*
X116720000Y-67065000I0J-135000D01*
G01*
X116720000Y-67335000D01*
G75*
G02*
X116585000Y-67470000I-135000J0D01*
G01*
G37*
G36*
G01*
X116585000Y-68490000D02*
X116215000Y-68490000D01*
G75*
G02*
X116080000Y-68355000I0J135000D01*
G01*
X116080000Y-68085000D01*
G75*
G02*
X116215000Y-67950000I135000J0D01*
G01*
X116585000Y-67950000D01*
G75*
G02*
X116720000Y-68085000I0J-135000D01*
G01*
X116720000Y-68355000D01*
G75*
G02*
X116585000Y-68490000I-135000J0D01*
G01*
G37*
G36*
G01*
X120630000Y-63521000D02*
X120630000Y-62971000D01*
G75*
G02*
X120830000Y-62771000I200000J0D01*
G01*
X121230000Y-62771000D01*
G75*
G02*
X121430000Y-62971000I0J-200000D01*
G01*
X121430000Y-63521000D01*
G75*
G02*
X121230000Y-63721000I-200000J0D01*
G01*
X120830000Y-63721000D01*
G75*
G02*
X120630000Y-63521000I0J200000D01*
G01*
G37*
G36*
G01*
X118980000Y-63521000D02*
X118980000Y-62971000D01*
G75*
G02*
X119180000Y-62771000I200000J0D01*
G01*
X119580000Y-62771000D01*
G75*
G02*
X119780000Y-62971000I0J-200000D01*
G01*
X119780000Y-63521000D01*
G75*
G02*
X119580000Y-63721000I-200000J0D01*
G01*
X119180000Y-63721000D01*
G75*
G02*
X118980000Y-63521000I0J200000D01*
G01*
G37*
G36*
G01*
X121225000Y-56425000D02*
X121225000Y-56975000D01*
G75*
G02*
X121025000Y-57175000I-200000J0D01*
G01*
X120625000Y-57175000D01*
G75*
G02*
X120425000Y-56975000I0J200000D01*
G01*
X120425000Y-56425000D01*
G75*
G02*
X120625000Y-56225000I200000J0D01*
G01*
X121025000Y-56225000D01*
G75*
G02*
X121225000Y-56425000I0J-200000D01*
G01*
G37*
G36*
G01*
X122875000Y-56425000D02*
X122875000Y-56975000D01*
G75*
G02*
X122675000Y-57175000I-200000J0D01*
G01*
X122275000Y-57175000D01*
G75*
G02*
X122075000Y-56975000I0J200000D01*
G01*
X122075000Y-56425000D01*
G75*
G02*
X122275000Y-56225000I200000J0D01*
G01*
X122675000Y-56225000D01*
G75*
G02*
X122875000Y-56425000I0J-200000D01*
G01*
G37*
G36*
G01*
X120650000Y-57925000D02*
X121200000Y-57925000D01*
G75*
G02*
X121400000Y-58125000I0J-200000D01*
G01*
X121400000Y-58525000D01*
G75*
G02*
X121200000Y-58725000I-200000J0D01*
G01*
X120650000Y-58725000D01*
G75*
G02*
X120450000Y-58525000I0J200000D01*
G01*
X120450000Y-58125000D01*
G75*
G02*
X120650000Y-57925000I200000J0D01*
G01*
G37*
G36*
G01*
X120650000Y-59575000D02*
X121200000Y-59575000D01*
G75*
G02*
X121400000Y-59775000I0J-200000D01*
G01*
X121400000Y-60175000D01*
G75*
G02*
X121200000Y-60375000I-200000J0D01*
G01*
X120650000Y-60375000D01*
G75*
G02*
X120450000Y-60175000I0J200000D01*
G01*
X120450000Y-59775000D01*
G75*
G02*
X120650000Y-59575000I200000J0D01*
G01*
G37*
G36*
G01*
X116755000Y-86460000D02*
X116385000Y-86460000D01*
G75*
G02*
X116250000Y-86325000I0J135000D01*
G01*
X116250000Y-86055000D01*
G75*
G02*
X116385000Y-85920000I135000J0D01*
G01*
X116755000Y-85920000D01*
G75*
G02*
X116890000Y-86055000I0J-135000D01*
G01*
X116890000Y-86325000D01*
G75*
G02*
X116755000Y-86460000I-135000J0D01*
G01*
G37*
G36*
G01*
X116755000Y-85440000D02*
X116385000Y-85440000D01*
G75*
G02*
X116250000Y-85305000I0J135000D01*
G01*
X116250000Y-85035000D01*
G75*
G02*
X116385000Y-84900000I135000J0D01*
G01*
X116755000Y-84900000D01*
G75*
G02*
X116890000Y-85035000I0J-135000D01*
G01*
X116890000Y-85305000D01*
G75*
G02*
X116755000Y-85440000I-135000J0D01*
G01*
G37*
G36*
G01*
X133360000Y-82065000D02*
X133360000Y-81695000D01*
G75*
G02*
X133495000Y-81560000I135000J0D01*
G01*
X133765000Y-81560000D01*
G75*
G02*
X133900000Y-81695000I0J-135000D01*
G01*
X133900000Y-82065000D01*
G75*
G02*
X133765000Y-82200000I-135000J0D01*
G01*
X133495000Y-82200000D01*
G75*
G02*
X133360000Y-82065000I0J135000D01*
G01*
G37*
G36*
G01*
X132340000Y-82065000D02*
X132340000Y-81695000D01*
G75*
G02*
X132475000Y-81560000I135000J0D01*
G01*
X132745000Y-81560000D01*
G75*
G02*
X132880000Y-81695000I0J-135000D01*
G01*
X132880000Y-82065000D01*
G75*
G02*
X132745000Y-82200000I-135000J0D01*
G01*
X132475000Y-82200000D01*
G75*
G02*
X132340000Y-82065000I0J135000D01*
G01*
G37*
G36*
G01*
X139430000Y-67885000D02*
X139430000Y-68255000D01*
G75*
G02*
X139295000Y-68390000I-135000J0D01*
G01*
X139025000Y-68390000D01*
G75*
G02*
X138890000Y-68255000I0J135000D01*
G01*
X138890000Y-67885000D01*
G75*
G02*
X139025000Y-67750000I135000J0D01*
G01*
X139295000Y-67750000D01*
G75*
G02*
X139430000Y-67885000I0J-135000D01*
G01*
G37*
G36*
G01*
X140450000Y-67885000D02*
X140450000Y-68255000D01*
G75*
G02*
X140315000Y-68390000I-135000J0D01*
G01*
X140045000Y-68390000D01*
G75*
G02*
X139910000Y-68255000I0J135000D01*
G01*
X139910000Y-67885000D01*
G75*
G02*
X140045000Y-67750000I135000J0D01*
G01*
X140315000Y-67750000D01*
G75*
G02*
X140450000Y-67885000I0J-135000D01*
G01*
G37*
G36*
G01*
X154850000Y-74645000D02*
X154850000Y-75015000D01*
G75*
G02*
X154715000Y-75150000I-135000J0D01*
G01*
X154445000Y-75150000D01*
G75*
G02*
X154310000Y-75015000I0J135000D01*
G01*
X154310000Y-74645000D01*
G75*
G02*
X154445000Y-74510000I135000J0D01*
G01*
X154715000Y-74510000D01*
G75*
G02*
X154850000Y-74645000I0J-135000D01*
G01*
G37*
G36*
G01*
X153830000Y-74645000D02*
X153830000Y-75015000D01*
G75*
G02*
X153695000Y-75150000I-135000J0D01*
G01*
X153425000Y-75150000D01*
G75*
G02*
X153290000Y-75015000I0J135000D01*
G01*
X153290000Y-74645000D01*
G75*
G02*
X153425000Y-74510000I135000J0D01*
G01*
X153695000Y-74510000D01*
G75*
G02*
X153830000Y-74645000I0J-135000D01*
G01*
G37*
G36*
G01*
X136390000Y-78775000D02*
X136760000Y-78775000D01*
G75*
G02*
X136895000Y-78910000I0J-135000D01*
G01*
X136895000Y-79180000D01*
G75*
G02*
X136760000Y-79315000I-135000J0D01*
G01*
X136390000Y-79315000D01*
G75*
G02*
X136255000Y-79180000I0J135000D01*
G01*
X136255000Y-78910000D01*
G75*
G02*
X136390000Y-78775000I135000J0D01*
G01*
G37*
G36*
G01*
X136390000Y-77755000D02*
X136760000Y-77755000D01*
G75*
G02*
X136895000Y-77890000I0J-135000D01*
G01*
X136895000Y-78160000D01*
G75*
G02*
X136760000Y-78295000I-135000J0D01*
G01*
X136390000Y-78295000D01*
G75*
G02*
X136255000Y-78160000I0J135000D01*
G01*
X136255000Y-77890000D01*
G75*
G02*
X136390000Y-77755000I135000J0D01*
G01*
G37*
G36*
G01*
X144045000Y-92670000D02*
X143675000Y-92670000D01*
G75*
G02*
X143540000Y-92535000I0J135000D01*
G01*
X143540000Y-92265000D01*
G75*
G02*
X143675000Y-92130000I135000J0D01*
G01*
X144045000Y-92130000D01*
G75*
G02*
X144180000Y-92265000I0J-135000D01*
G01*
X144180000Y-92535000D01*
G75*
G02*
X144045000Y-92670000I-135000J0D01*
G01*
G37*
G36*
G01*
X144045000Y-91650000D02*
X143675000Y-91650000D01*
G75*
G02*
X143540000Y-91515000I0J135000D01*
G01*
X143540000Y-91245000D01*
G75*
G02*
X143675000Y-91110000I135000J0D01*
G01*
X144045000Y-91110000D01*
G75*
G02*
X144180000Y-91245000I0J-135000D01*
G01*
X144180000Y-91515000D01*
G75*
G02*
X144045000Y-91650000I-135000J0D01*
G01*
G37*
G36*
G01*
X125845000Y-83690000D02*
X126215000Y-83690000D01*
G75*
G02*
X126350000Y-83825000I0J-135000D01*
G01*
X126350000Y-84095000D01*
G75*
G02*
X126215000Y-84230000I-135000J0D01*
G01*
X125845000Y-84230000D01*
G75*
G02*
X125710000Y-84095000I0J135000D01*
G01*
X125710000Y-83825000D01*
G75*
G02*
X125845000Y-83690000I135000J0D01*
G01*
G37*
G36*
G01*
X125845000Y-84710000D02*
X126215000Y-84710000D01*
G75*
G02*
X126350000Y-84845000I0J-135000D01*
G01*
X126350000Y-85115000D01*
G75*
G02*
X126215000Y-85250000I-135000J0D01*
G01*
X125845000Y-85250000D01*
G75*
G02*
X125710000Y-85115000I0J135000D01*
G01*
X125710000Y-84845000D01*
G75*
G02*
X125845000Y-84710000I135000J0D01*
G01*
G37*
D26*
X134300000Y-56725000D03*
X137300000Y-56725000D03*
D27*
G36*
X136666500Y-52775000D02*
G01*
X136666500Y-55900000D01*
X136250000Y-55900000D01*
X136250000Y-57375000D01*
X135350000Y-57375000D01*
X135350000Y-55900000D01*
X134933500Y-55900000D01*
X134933500Y-52775000D01*
X136666500Y-52775000D01*
G37*
G36*
G01*
X111205000Y-57253000D02*
X111205000Y-56665000D01*
G75*
G02*
X111211000Y-56659000I6000J0D01*
G01*
X112749000Y-56659000D01*
G75*
G02*
X112755000Y-56665000I0J-6000D01*
G01*
X112755000Y-57253000D01*
G75*
G02*
X112749000Y-57259000I-6000J0D01*
G01*
X111211000Y-57259000D01*
G75*
G02*
X111205000Y-57253000I0J6000D01*
G01*
G37*
G36*
G01*
X111205000Y-58523000D02*
X111205000Y-57935000D01*
G75*
G02*
X111211000Y-57929000I6000J0D01*
G01*
X112749000Y-57929000D01*
G75*
G02*
X112755000Y-57935000I0J-6000D01*
G01*
X112755000Y-58523000D01*
G75*
G02*
X112749000Y-58529000I-6000J0D01*
G01*
X111211000Y-58529000D01*
G75*
G02*
X111205000Y-58523000I0J6000D01*
G01*
G37*
G36*
G01*
X111205000Y-59793000D02*
X111205000Y-59205000D01*
G75*
G02*
X111211000Y-59199000I6000J0D01*
G01*
X112749000Y-59199000D01*
G75*
G02*
X112755000Y-59205000I0J-6000D01*
G01*
X112755000Y-59793000D01*
G75*
G02*
X112749000Y-59799000I-6000J0D01*
G01*
X111211000Y-59799000D01*
G75*
G02*
X111205000Y-59793000I0J6000D01*
G01*
G37*
G36*
G01*
X111205000Y-61063000D02*
X111205000Y-60475000D01*
G75*
G02*
X111211000Y-60469000I6000J0D01*
G01*
X112749000Y-60469000D01*
G75*
G02*
X112755000Y-60475000I0J-6000D01*
G01*
X112755000Y-61063000D01*
G75*
G02*
X112749000Y-61069000I-6000J0D01*
G01*
X111211000Y-61069000D01*
G75*
G02*
X111205000Y-61063000I0J6000D01*
G01*
G37*
G36*
G01*
X116605000Y-61063000D02*
X116605000Y-60475000D01*
G75*
G02*
X116611000Y-60469000I6000J0D01*
G01*
X118149000Y-60469000D01*
G75*
G02*
X118155000Y-60475000I0J-6000D01*
G01*
X118155000Y-61063000D01*
G75*
G02*
X118149000Y-61069000I-6000J0D01*
G01*
X116611000Y-61069000D01*
G75*
G02*
X116605000Y-61063000I0J6000D01*
G01*
G37*
G36*
G01*
X116605000Y-59793000D02*
X116605000Y-59205000D01*
G75*
G02*
X116611000Y-59199000I6000J0D01*
G01*
X118149000Y-59199000D01*
G75*
G02*
X118155000Y-59205000I0J-6000D01*
G01*
X118155000Y-59793000D01*
G75*
G02*
X118149000Y-59799000I-6000J0D01*
G01*
X116611000Y-59799000D01*
G75*
G02*
X116605000Y-59793000I0J6000D01*
G01*
G37*
G36*
G01*
X116605000Y-58523000D02*
X116605000Y-57935000D01*
G75*
G02*
X116611000Y-57929000I6000J0D01*
G01*
X118149000Y-57929000D01*
G75*
G02*
X118155000Y-57935000I0J-6000D01*
G01*
X118155000Y-58523000D01*
G75*
G02*
X118149000Y-58529000I-6000J0D01*
G01*
X116611000Y-58529000D01*
G75*
G02*
X116605000Y-58523000I0J6000D01*
G01*
G37*
G36*
G01*
X116605000Y-57253000D02*
X116605000Y-56665000D01*
G75*
G02*
X116611000Y-56659000I6000J0D01*
G01*
X118149000Y-56659000D01*
G75*
G02*
X118155000Y-56665000I0J-6000D01*
G01*
X118155000Y-57253000D01*
G75*
G02*
X118149000Y-57259000I-6000J0D01*
G01*
X116611000Y-57259000D01*
G75*
G02*
X116605000Y-57253000I0J6000D01*
G01*
G37*
G36*
G01*
X112906250Y-66510000D02*
X112393750Y-66510000D01*
G75*
G02*
X112175000Y-66291250I0J218750D01*
G01*
X112175000Y-65853750D01*
G75*
G02*
X112393750Y-65635000I218750J0D01*
G01*
X112906250Y-65635000D01*
G75*
G02*
X113125000Y-65853750I0J-218750D01*
G01*
X113125000Y-66291250D01*
G75*
G02*
X112906250Y-66510000I-218750J0D01*
G01*
G37*
G36*
G01*
X112906250Y-68085000D02*
X112393750Y-68085000D01*
G75*
G02*
X112175000Y-67866250I0J218750D01*
G01*
X112175000Y-67428750D01*
G75*
G02*
X112393750Y-67210000I218750J0D01*
G01*
X112906250Y-67210000D01*
G75*
G02*
X113125000Y-67428750I0J-218750D01*
G01*
X113125000Y-67866250D01*
G75*
G02*
X112906250Y-68085000I-218750J0D01*
G01*
G37*
G36*
G01*
X172367500Y-96786250D02*
X172367500Y-96273750D01*
G75*
G02*
X172586250Y-96055000I218750J0D01*
G01*
X173023750Y-96055000D01*
G75*
G02*
X173242500Y-96273750I0J-218750D01*
G01*
X173242500Y-96786250D01*
G75*
G02*
X173023750Y-97005000I-218750J0D01*
G01*
X172586250Y-97005000D01*
G75*
G02*
X172367500Y-96786250I0J218750D01*
G01*
G37*
G36*
G01*
X173942500Y-96786250D02*
X173942500Y-96273750D01*
G75*
G02*
X174161250Y-96055000I218750J0D01*
G01*
X174598750Y-96055000D01*
G75*
G02*
X174817500Y-96273750I0J-218750D01*
G01*
X174817500Y-96786250D01*
G75*
G02*
X174598750Y-97005000I-218750J0D01*
G01*
X174161250Y-97005000D01*
G75*
G02*
X173942500Y-96786250I0J218750D01*
G01*
G37*
G36*
G01*
X165225000Y-58193750D02*
X165225000Y-58706250D01*
G75*
G02*
X165006250Y-58925000I-218750J0D01*
G01*
X164568750Y-58925000D01*
G75*
G02*
X164350000Y-58706250I0J218750D01*
G01*
X164350000Y-58193750D01*
G75*
G02*
X164568750Y-57975000I218750J0D01*
G01*
X165006250Y-57975000D01*
G75*
G02*
X165225000Y-58193750I0J-218750D01*
G01*
G37*
G36*
G01*
X166800000Y-58193750D02*
X166800000Y-58706250D01*
G75*
G02*
X166581250Y-58925000I-218750J0D01*
G01*
X166143750Y-58925000D01*
G75*
G02*
X165925000Y-58706250I0J218750D01*
G01*
X165925000Y-58193750D01*
G75*
G02*
X166143750Y-57975000I218750J0D01*
G01*
X166581250Y-57975000D01*
G75*
G02*
X166800000Y-58193750I0J-218750D01*
G01*
G37*
G36*
G01*
X112856250Y-86075000D02*
X112343750Y-86075000D01*
G75*
G02*
X112125000Y-85856250I0J218750D01*
G01*
X112125000Y-85418750D01*
G75*
G02*
X112343750Y-85200000I218750J0D01*
G01*
X112856250Y-85200000D01*
G75*
G02*
X113075000Y-85418750I0J-218750D01*
G01*
X113075000Y-85856250D01*
G75*
G02*
X112856250Y-86075000I-218750J0D01*
G01*
G37*
G36*
G01*
X112856250Y-84500000D02*
X112343750Y-84500000D01*
G75*
G02*
X112125000Y-84281250I0J218750D01*
G01*
X112125000Y-83843750D01*
G75*
G02*
X112343750Y-83625000I218750J0D01*
G01*
X112856250Y-83625000D01*
G75*
G02*
X113075000Y-83843750I0J-218750D01*
G01*
X113075000Y-84281250D01*
G75*
G02*
X112856250Y-84500000I-218750J0D01*
G01*
G37*
G36*
G01*
X164350000Y-60900000D02*
X164350000Y-60350000D01*
G75*
G02*
X164550000Y-60150000I200000J0D01*
G01*
X164950000Y-60150000D01*
G75*
G02*
X165150000Y-60350000I0J-200000D01*
G01*
X165150000Y-60900000D01*
G75*
G02*
X164950000Y-61100000I-200000J0D01*
G01*
X164550000Y-61100000D01*
G75*
G02*
X164350000Y-60900000I0J200000D01*
G01*
G37*
G36*
G01*
X166000000Y-60900000D02*
X166000000Y-60350000D01*
G75*
G02*
X166200000Y-60150000I200000J0D01*
G01*
X166600000Y-60150000D01*
G75*
G02*
X166800000Y-60350000I0J-200000D01*
G01*
X166800000Y-60900000D01*
G75*
G02*
X166600000Y-61100000I-200000J0D01*
G01*
X166200000Y-61100000D01*
G75*
G02*
X166000000Y-60900000I0J200000D01*
G01*
G37*
D28*
X150020000Y-100600000D03*
X150020000Y-100200000D03*
D29*
X149770000Y-99550000D03*
X149370000Y-99550000D03*
X148970000Y-99550000D03*
X148570000Y-99550000D03*
D28*
X148320000Y-100200000D03*
X148320000Y-100600000D03*
D29*
X148570000Y-101250000D03*
X148970000Y-101250000D03*
X149370000Y-101250000D03*
X149770000Y-101250000D03*
M02*
