M48
; DRILL file {KiCad (5.1.4-0)} date 2020 November 25, Wednesday 23:13:11
; FORMAT={-:-/ absolute / inch / decimal}
; #@! TF.CreationDate,2020-11-25T23:13:11+03:00
; #@! TF.GenerationSoftware,Kicad,Pcbnew,(5.1.4-0)
; #@! TF.FileFunction,Plated,1,4,PTH
FMAT,2
INCH
T1C0.0098
T2C0.0118
T3C0.0157
T4C0.0236
T5C0.0256
T6C0.0335
T7C0.0354
T8C0.0472
%
G90
G05
T1
X4.6969Y-3.1437
X5.0354Y-3.5827
X5.1594Y-2.0827
X5.189Y-3.2697
X5.189Y-3.5748
X5.2323Y-3.3681
X5.252Y-3.0687
X5.3396Y-3.6377
X5.3424Y-3.7933
X5.3661Y-3.4449
X5.3878Y-3.439
X5.4677Y-3.4302
X5.4961Y-2.7126
X5.5217Y-2.7249
X5.5413Y-3.8661
X5.6083Y-2.6437
X5.6417Y-2.9114
X5.6456Y-2.8811
X5.6622Y-3.1259
X5.7146Y-3.3602
X5.7382Y-3.8957
X5.752Y-3.1535
X5.7923Y-2.9931
X5.813Y-4.0392
X5.8465Y-2.7854
X5.9803Y-2.9429
X5.9961Y-3.1896
X6.0276Y-3.998
X6.0591Y-3.9094
X6.0945Y-3.9843
X6.1457Y-3.0965
X6.2028Y-3.9606
X6.2146Y-3.7303
X6.2618Y-3.6261
X6.2913Y-3.6516
X6.315Y-3.9134
X6.3228Y-3.7303
X6.5039Y-4.1024
X6.5433Y-3.7323
X6.5689Y-4.0039
T2
X4.252Y-3.4213
X4.252Y-3.5394
X4.252Y-3.5984
X4.252Y-3.6575
X4.252Y-3.7165
X4.2559Y-2.7185
X4.2579Y-2.8366
X4.2579Y-2.8957
X4.2579Y-2.9547
X4.2579Y-3.0138
X4.3248Y-2.4882
X4.376Y-3.3406
X4.378Y-2.6358
X4.4055Y-2.5236
X4.4961Y-2.6811
X4.4961Y-3.4311
X4.516Y-2.6987
X4.5276Y-3.3681
X4.5354Y-2.5945
X4.5394Y-3.3228
X4.5472Y-2.7689
X4.5531Y-3.3937
X4.565Y-2.563
X4.5768Y-2.7303
X4.7421Y-2.6142
X4.7559Y-2.4626
X4.7736Y-2.2244
X4.8366Y-2.2244
X4.8366Y-2.3681
X4.8366Y-2.5138
X4.8701Y-3.3563
X4.8898Y-2.5866
X4.8976Y-2.2244
X4.9016Y-2.4469
X4.9134Y-2.5335
X4.9173Y-3.378
X4.9291Y-2.189
X5.0059Y-3.372
X5.0177Y-3.4081
X5.0413Y-3.6201
X5.0472Y-2.5059
X5.0886Y-3.5433
X5.0906Y-2.5886
X5.1043Y-3.7913
X5.1102Y-3.3366
X5.1201Y-2.5295
X5.1476Y-3.7894
X5.1535Y-2.2244
X5.1535Y-3.3386
X5.1834Y-3.3848
X5.189Y-3.7894
X5.1929Y-2.626
X5.2047Y-2.2028
X5.2264Y-3.2697
X5.2304Y-3.6934
X5.2559Y-2.3091
X5.2559Y-2.5098
X5.2627Y-3.4331
X5.2671Y-3.3678
X5.2677Y-3.4921
X5.2677Y-3.5177
X5.2701Y-3.6516
X5.2717Y-3.6909
X5.2815Y-3.5709
X5.2894Y-3.4331
X5.2992Y-2.5827
X5.313Y-3.7913
X5.3209Y-2.4469
X5.3209Y-2.5315
X5.3406Y-3.4469
X5.3406Y-3.563
X5.3543Y-2.6949
X5.3583Y-2.3169
X5.3622Y-3.878
X5.3661Y-3.563
X5.3878Y-3.4646
X5.3878Y-3.5433
X5.3898Y-3.4921
X5.3898Y-3.5177
X5.3976Y-3.878
X5.3996Y-2.435
X5.4075Y-3.6693
X5.4232Y-2.7185
X5.435Y-3.874
X5.4429Y-3.3681
X5.4429Y-3.6417
X5.4744Y-3.874
X5.4941Y-3.6575
X5.5Y-2.9665
X5.502Y-2.7537
X5.5413Y-2.8878
X5.5551Y-3.124
X5.561Y-2.6791
X5.561Y-3.4272
X5.563Y-3.3878
X5.5807Y-3.8622
X5.5925Y-3.6713
X5.5945Y-3.122
X5.6024Y-2.6811
X5.6319Y-2.7283
X5.6358Y-3.122
X5.6811Y-3.7264
X5.6831Y-2.6122
X5.687Y-2.7106
X5.7156Y-2.7775
X5.7165Y-2.9193
X5.7185Y-2.7087
X5.7185Y-2.8346
X5.7185Y-2.8622
X5.7207Y-2.8858
X5.7244Y-2.6084
X5.7421Y-2.7795
X5.7598Y-3.126
X5.7672Y-2.7886
X5.7913Y-2.7874
X5.7933Y-2.9075
X5.7992Y-3.1201
X5.8169Y-2.7874
X5.8169Y-3.9154
X5.8189Y-2.9094
X5.8405Y-3.124
X5.8406Y-2.8346
X5.8406Y-2.8622
X5.8511Y-2.998
X5.866Y-3.0277
X5.8661Y-3.185
X5.874Y-3.7874
X5.874Y-3.8169
X5.8766Y-3.8602
X5.8918Y-3.124
X5.8957Y-2.9882
X5.8976Y-2.6811
X5.9094Y-2.7106
X5.9163Y-3.8465
X5.9429Y-2.6929
X5.9547Y-3.8642
X5.9547Y-4.0433
X5.9823Y-2.9823
X6.0354Y-3.1896
X6.0472Y-3.0
X6.1102Y-3.0276
X6.124Y-3.6713
X6.1909Y-3.6909
X6.1929Y-3.6516
X6.2146Y-4.0787
X6.2559Y-3.1634
X6.313Y-3.8686
X6.3406Y-3.6261
X6.3563Y-2.2244
X6.4134Y-2.1181
X6.4193Y-3.935
X6.4409Y-3.9016
X6.4744Y-2.1358
X6.4744Y-2.2283
X6.5138Y-3.8484
X6.5177Y-3.9547
X6.5669Y-2.1161
X6.5718Y-2.2343
X6.5906Y-2.1319
X6.5925Y-2.2736
X6.5984Y-3.6281
X6.6083Y-4.063
X6.6083Y-4.1043
X6.6378Y-3.6281
X6.6496Y-3.75
X6.7638Y-3.8169
X6.7815Y-3.1102
X6.7815Y-3.8858
X6.8169Y-3.1122
X6.8287Y-2.1378
X6.8583Y-3.1122
X6.9182Y-3.6594
X6.9626Y-3.6281
X7.2559Y-3.1594
X7.3425Y-3.6339
X7.3445Y-3.2776
T3
X4.4626Y-2.0157
X4.4626Y-2.1575
X4.4665Y-2.2972
X4.5965Y-2.0118
X4.5965Y-2.3051
X4.7283Y-2.0256
X4.7283Y-2.2972
X4.7303Y-2.1575
X4.9843Y-2.7087
X5.0413Y-2.2933
X5.1142Y-2.4429
X5.2303Y-3.7972
X5.2913Y-3.1516
X5.4941Y-3.3559
X5.4961Y-2.9272
X5.5295Y-3.6693
X5.5315Y-3.5948
X5.9823Y-2.7028
T5
X7.0118Y-3.6472
X7.0118Y-3.6972
X7.0118Y-3.7472
X7.0118Y-3.7972
X7.0118Y-3.8472
X7.0618Y-3.6472
X7.0618Y-3.6972
X7.0618Y-3.7472
X7.0618Y-3.7972
X7.0618Y-3.8472
T6
X6.8445Y-3.9587
X7.0413Y-3.9587
T8
X4.1299Y-2.2736
X4.1299Y-2.4114
T4
G00X6.8051Y-4.0787
M15
G01X6.8051Y-4.0512
M16
G05
G00X7.0807Y-4.0512
M15
G01X7.0807Y-4.0787
M16
G05
T7
G00X4.063Y-2.5709
M15
G01X4.0157Y-2.5709
M16
G05
G00X4.063Y-3.1417
M15
G01X4.0157Y-3.1417
M16
G05
G00X4.3205Y-2.5709
M15
G01X4.2732Y-2.5709
M16
G05
G00X4.3205Y-3.1417
M15
G01X4.2732Y-3.1417
M16
G05
G00X4.063Y-3.2736
M15
G01X4.0157Y-3.2736
M16
G05
G00X4.063Y-3.8445
M15
G01X4.0157Y-3.8445
M16
G05
G00X4.3205Y-3.2736
M15
G01X4.2732Y-3.2736
M16
G05
G00X4.3205Y-3.8445
M15
G01X4.2732Y-3.8445
M16
G05
T0
M30
