M48
; DRILL file {KiCad (5.1.10)-1} date 11/19/21 20:52:28
; FORMAT={-:-/ absolute / metric / decimal}
; #@! TF.CreationDate,2021-11-19T20:52:28+03:00
; #@! TF.GenerationSoftware,Kicad,Pcbnew,(5.1.10)-1
; #@! TF.FileFunction,Plated,1,4,PTH
FMAT,2
METRIC
T1C0.200
T2C0.250
T3C0.300
T4C0.400
T5C0.600
T6C0.650
T7C0.850
T8C0.900
T9C1.200
%
G90
G05
T1
X114.03Y-56.914
X114.03Y-58.214
X114.03Y-59.514
X114.03Y-60.814
X115.33Y-56.914
X115.33Y-58.214
X115.33Y-59.514
X115.33Y-60.814
T2
X114.125Y-64.55
X114.25Y-51.925
X115.725Y-64.275
X118.95Y-59.475
X119.1Y-58.325
X119.3Y-79.85
X119.38Y-61.468
X121.95Y-60.125
X121.95Y-61.475
X124.25Y-51.05
X124.65Y-54.275
X124.96Y-83.96
X125.8Y-51.1
X127.15Y-61.175
X127.9Y-91.0
X129.025Y-84.125
X129.225Y-53.375
X130.825Y-61.45
X131.4Y-60.675
X131.8Y-83.05
X131.8Y-90.8
X132.225Y-55.95
X132.9Y-85.55
X133.4Y-77.946
X133.61Y-87.44
X133.7Y-58.1
X133.975Y-55.575
X135.6Y-90.69
X135.625Y-92.396
X135.696Y-96.35
X136.3Y-87.5
X136.575Y-77.25
X136.85Y-87.35
X138.3Y-51.45
X138.3Y-69.03
X138.88Y-87.128
X140.25Y-69.212
X140.75Y-98.2
X140.85Y-66.85
X141.575Y-67.5
X142.3Y-69.825
X143.035Y-67.135
X143.13Y-91.44
X143.3Y-73.95
X143.397Y-73.179
X143.82Y-79.398
X145.15Y-70.67
X145.15Y-85.35
X145.31Y-68.67
X145.75Y-98.95
X146.1Y-80.1
X147.02Y-73.99
X147.125Y-76.025
X147.65Y-102.596
X148.5Y-70.75
X149.25Y-98.2
X151.893Y-74.837
X152.3Y-81.016
X152.77Y-74.64
X153.1Y-101.55
X153.9Y-99.3
X154.8Y-101.2
X156.1Y-78.65
X157.55Y-100.6
X157.85Y-94.75
X159.05Y-92.104
X159.8Y-92.75
X160.4Y-99.4
X160.6Y-94.75
X163.65Y-59.55
X165.2Y-104.2
X166.2Y-94.8
X166.85Y-101.7
X168.248Y-58.448
T3
X108.0Y-86.9
X108.0Y-89.9
X108.0Y-91.4
X108.0Y-92.9
X108.0Y-94.4
X108.1Y-69.05
X108.15Y-72.05
X108.15Y-73.55
X108.15Y-75.05
X108.15Y-76.55
X111.15Y-84.85
X111.2Y-66.95
X114.2Y-68.1
X114.2Y-87.15
X114.708Y-68.548
X115.0Y-85.55
X115.2Y-65.9
X115.3Y-84.4
X115.5Y-70.33
X115.65Y-86.2
X116.25Y-69.35
X120.45Y-66.4
X122.85Y-63.85
X123.7Y-85.25
X124.2Y-65.7
X124.5Y-62.15
X125.2Y-55.6
X127.45Y-86.566
X128.05Y-91.95
X129.25Y-90.0
X129.65Y-96.3
X129.8Y-84.75
X130.75Y-96.25
X130.9Y-84.8
X131.658Y-85.975
X131.8Y-96.25
X132.75Y-83.05
X132.851Y-93.813
X133.394Y-58.716
X133.8Y-88.7
X133.8Y-89.35
X133.859Y-92.75
X133.9Y-93.75
X134.15Y-90.7
X134.35Y-87.2
X134.6Y-65.6
X134.95Y-96.3
X135.15Y-62.15
X135.15Y-64.3
X135.65Y-87.55
X136.0Y-68.45
X136.2Y-98.5
X136.25Y-59.55
X136.3Y-90.5
X136.85Y-88.0
X136.85Y-90.0
X136.9Y-88.7
X136.9Y-89.35
X137.1Y-98.5
X137.15Y-61.85
X137.35Y-93.2
X138.05Y-98.4
X138.25Y-85.55
X138.25Y-92.5
X139.05Y-98.4
X139.55Y-92.9
X139.7Y-75.35
X139.75Y-69.944
X140.75Y-73.35
X141.1Y-79.35
X141.25Y-68.05
X141.25Y-87.05
X141.3Y-86.05
X141.75Y-98.1
X142.05Y-93.25
X142.1Y-79.3
X143.05Y-69.298
X143.15Y-79.3
X144.3Y-94.65
X144.35Y-66.35
X144.45Y-68.85
X145.2Y-74.15
X145.22Y-66.0
X145.25Y-72.0
X145.25Y-72.7
X145.306Y-73.3
X145.85Y-70.6
X146.3Y-79.4
X146.486Y-70.831
X147.1Y-70.8
X147.3Y-79.25
X147.75Y-70.8
X147.75Y-99.45
X147.792Y-73.753
X148.348Y-79.35
X148.35Y-72.0
X148.35Y-72.7
X148.618Y-76.15
X148.996Y-76.904
X149.0Y-80.9
X149.2Y-96.2
X149.2Y-96.95
X149.652Y-79.35
X149.75Y-75.9
X149.8Y-68.1
X150.1Y-68.85
X150.274Y-97.7
X150.95Y-68.4
X151.25Y-102.7
X151.95Y-75.75
X153.3Y-81.016
X153.6Y-76.2
X155.2Y-76.9
X155.55Y-93.25
X157.25Y-93.75
X157.3Y-92.75
X157.85Y-103.6
X158.9Y-80.35
X160.35Y-98.264
X161.05Y-92.104
X161.45Y-56.5
X162.9Y-53.8
X163.05Y-99.95
X163.6Y-99.1
X164.45Y-54.25
X164.45Y-56.6
X165.45Y-97.75
X165.55Y-100.45
X166.923Y-56.75
X167.6Y-92.154
X167.85Y-103.2
X167.85Y-104.25
X168.6Y-92.154
X168.9Y-95.25
X171.42Y-96.7
X172.25Y-79.0
X173.15Y-79.05
X173.45Y-54.3
X174.2Y-79.05
X175.723Y-92.95
X176.85Y-92.154
X184.3Y-80.25
X186.5Y-92.3
X186.55Y-83.25
T4
X126.6Y-68.8
X132.85Y-96.45
X134.398Y-80.05
X139.55Y-85.239
X139.6Y-74.35
X140.45Y-93.2
X140.5Y-91.309
X151.95Y-68.65
T6
X178.1Y-92.64
X178.1Y-93.91
X178.1Y-95.18
X178.1Y-96.45
X178.1Y-97.72
X179.37Y-92.64
X179.37Y-93.91
X179.37Y-95.18
X179.37Y-96.45
X179.37Y-97.72
T7
X173.85Y-100.55
X178.85Y-100.55
T9
X104.9Y-57.75
X104.9Y-61.25
T5
G00X172.85Y-103.6
M15
G01X172.85Y-102.9
M16
G05
G00X179.85Y-102.9
M15
G01X179.85Y-103.6
M16
G05
T8
G00X103.2Y-65.3
M15
G01X102.0Y-65.3
M16
G05
G00X103.2Y-79.8
M15
G01X102.0Y-79.8
M16
G05
G00X103.2Y-83.15
M15
G01X102.0Y-83.15
M16
G05
G00X103.2Y-97.65
M15
G01X102.0Y-97.65
M16
G05
G00X109.74Y-65.3
M15
G01X108.54Y-65.3
M16
G05
G00X109.74Y-79.8
M15
G01X108.54Y-79.8
M16
G05
G00X109.74Y-83.15
M15
G01X108.54Y-83.15
M16
G05
G00X109.74Y-97.65
M15
G01X108.54Y-97.65
M16
G05
T0
M30
